<?xml version="1.0" encoding="utf-8" standalone="no"?>
<!DOCTYPE svg PUBLIC "-//W3C//DTD SVG 1.1//EN"
  "http://www.w3.org/Graphics/SVG/1.1/DTD/svg11.dtd">
<!-- Created with matplotlib (http://matplotlib.org/) -->
<svg height="309.4pt" version="1.1" viewBox="0 0 381.4 309.4" width="381.4pt" xmlns="http://www.w3.org/2000/svg" xmlns:xlink="http://www.w3.org/1999/xlink">
 <defs>
  <style type="text/css">
*{stroke-linecap:butt;stroke-linejoin:round;}
  </style>
 </defs>
 <g id="figure_1">
  <g id="patch_1">
   <path d="M 0 309.4 
L 381.4 309.4 
L 381.4 0 
L 0 0 
z
" style="fill:none;"/>
  </g>
  <g id="patch_2">
   <path d="M 10.7 298.7 
L 370.7 298.7 
L 370.7 10.7 
L 10.7 10.7 
z
" style="fill:#ffffff;"/>
  </g>
  <g id="pane3d_1">
   <g id="patch_3">
    <path d="M 219.619567 185.462306 
L 335.768129 233.715199 
L 340.919918 79.597002 
L 220.435568 41.545085 
" style="fill:#f2f2f2;opacity:0.5;stroke:#f2f2f2;stroke-linejoin:miter;"/>
   </g>
  </g>
  <g id="pane3d_2">
   <g id="patch_4">
    <path d="M 219.619567 185.462306 
L 58.794045 217.8137 
L 53.895826 67.034254 
L 220.435568 41.545085 
" style="fill:#e6e6e6;opacity:0.5;stroke:#e6e6e6;stroke-linejoin:miter;"/>
   </g>
  </g>
  <g id="pane3d_3">
   <g id="patch_5">
    <path d="M 219.619567 185.462306 
L 58.794045 217.8137 
L 168.062833 271.631196 
L 335.768129 233.715199 
" style="fill:#ececec;opacity:0.5;stroke:#ececec;stroke-linejoin:miter;"/>
   </g>
  </g>
  <g id="axis3d_1">
   <g id="line2d_1">
    <path d="M 335.768129 233.715199 
L 168.062833 271.631196 
" style="fill:none;stroke:#000000;stroke-linecap:square;stroke-width:0.8;"/>
   </g>
   <g id="text_1">
    <!-- coins of 大熊 -->
    <defs>
     <path d="M 44.53125 19.53125 
Q 44.53125 11.328125 38.859375 6.25 
Q 33.203125 1.171875 24.609375 1.171875 
Q 16.015625 1.171875 9.765625 7.21875 
Q 3.515625 13.28125 3.515625 23.828125 
Q 3.515625 34.375 9.765625 40.421875 
Q 16.015625 46.484375 24.609375 46.484375 
Q 33.203125 46.484375 38.28125 41.984375 
Q 43.359375 37.5 43.359375 31.25 
L 34.765625 31.25 
Q 34.375 35.9375 31.4375 37.6875 
Q 28.515625 39.453125 24.609375 39.453125 
Q 19.921875 39.453125 16.015625 35.734375 
Q 12.109375 32.03125 12.109375 23.828125 
Q 12.109375 15.625 16.015625 11.90625 
Q 19.921875 8.203125 24.609375 8.203125 
Q 29.6875 8.203125 32.8125 10.9375 
Q 35.9375 13.671875 35.9375 19.53125 
z
" id="SimHei-63"/>
     <path d="M 45.703125 23.828125 
Q 45.703125 13.671875 39.453125 7.421875 
Q 33.203125 1.171875 24.609375 1.171875 
Q 16.015625 1.171875 9.765625 7.421875 
Q 3.515625 13.671875 3.515625 23.828125 
Q 3.515625 33.984375 9.765625 40.234375 
Q 16.015625 46.484375 24.609375 46.484375 
Q 33.203125 46.484375 39.453125 40.234375 
Q 45.703125 33.984375 45.703125 23.828125 
z
M 37.109375 23.828125 
Q 37.109375 31.640625 33.203125 35.546875 
Q 29.296875 39.453125 24.609375 39.453125 
Q 19.921875 39.453125 16.015625 35.546875 
Q 12.109375 31.640625 12.109375 23.828125 
Q 12.109375 16.015625 16.015625 12.109375 
Q 19.921875 8.203125 24.609375 8.203125 
Q 29.296875 8.203125 33.203125 12.109375 
Q 37.109375 16.015625 37.109375 23.828125 
z
" id="SimHei-6f"/>
     <path d="M 28.125 58.203125 
L 20.3125 58.203125 
L 20.3125 68.359375 
L 28.125 68.359375 
z
M 28.125 1.953125 
L 20.3125 1.953125 
L 20.3125 45.703125 
L 28.125 45.703125 
z
" id="SimHei-69"/>
     <path d="M 43.75 1.953125 
L 35.9375 1.953125 
L 35.9375 30.078125 
Q 35.9375 34.765625 33.59375 37.5 
Q 31.25 40.234375 27.34375 40.234375 
Q 22.265625 40.234375 17.765625 34.953125 
Q 13.28125 29.6875 13.28125 21.875 
L 13.28125 1.953125 
L 5.46875 1.953125 
L 5.46875 45.703125 
L 13.28125 45.703125 
L 13.28125 37.5 
Q 16.40625 41.796875 20.109375 44.140625 
Q 23.828125 46.484375 29.6875 46.484375 
Q 36.71875 46.484375 40.234375 42.578125 
Q 43.75 38.671875 43.75 32.8125 
z
" id="SimHei-6e"/>
     <path d="M 42.96875 14.0625 
Q 42.96875 7.8125 38.078125 4.484375 
Q 33.203125 1.171875 25.78125 1.171875 
Q 16.40625 1.171875 11.328125 4.875 
Q 6.25 8.59375 6.25 15.625 
L 14.0625 15.625 
Q 14.0625 10.9375 17.375 9.375 
Q 20.703125 7.8125 25.390625 7.8125 
Q 30.078125 7.8125 32.421875 9.5625 
Q 34.765625 11.328125 34.765625 14.0625 
Q 34.765625 16.015625 32.8125 17.96875 
Q 30.859375 19.921875 23.046875 21.09375 
Q 14.0625 22.265625 10.734375 25.578125 
Q 7.421875 28.90625 7.421875 34.375 
Q 7.421875 39.0625 11.90625 42.765625 
Q 16.40625 46.484375 25 46.484375 
Q 32.8125 46.484375 37.296875 42.96875 
Q 41.796875 39.453125 41.796875 33.59375 
L 33.984375 33.59375 
Q 33.984375 37.109375 31.4375 38.46875 
Q 28.90625 39.84375 25 39.84375 
Q 19.921875 39.84375 17.765625 38.078125 
Q 15.625 36.328125 15.625 33.984375 
Q 15.625 31.25 17.578125 29.6875 
Q 19.53125 28.125 25.78125 27.34375 
Q 35.9375 25.78125 39.453125 22.453125 
Q 42.96875 19.140625 42.96875 14.0625 
z
" id="SimHei-73"/>
     <path id="SimHei-20"/>
     <path d="M 44.53125 59.765625 
Q 42.578125 60.9375 39.84375 61.71875 
Q 37.109375 62.5 32.8125 62.5 
Q 28.515625 62.5 26.953125 60.34375 
Q 25.390625 58.203125 25.390625 55.078125 
L 25.390625 45.703125 
L 41.40625 45.703125 
L 41.40625 39.453125 
L 25.390625 39.453125 
L 25.390625 1.953125 
L 17.578125 1.953125 
L 17.578125 39.453125 
L 4.296875 39.453125 
L 4.296875 45.703125 
L 17.578125 45.703125 
L 17.578125 54.6875 
Q 17.578125 61.71875 21.875 65.625 
Q 26.171875 69.53125 33.203125 69.53125 
Q 37.5 69.53125 40.03125 68.9375 
Q 42.578125 68.359375 44.53125 67.578125 
z
" id="SimHei-66"/>
     <path d="M 45.3125 53.125 
Q 45.703125 66.796875 45.5 71.484375 
Q 45.3125 76.171875 44.921875 80.46875 
Q 49.609375 79.6875 55.46875 79.296875 
Q 54.296875 75.390625 53.703125 67.96875 
Q 53.125 60.546875 53.125 53.125 
L 73.046875 53.125 
Q 83.59375 53.125 92.578125 53.90625 
L 92.578125 45.3125 
Q 84.765625 45.703125 76.5625 45.703125 
L 53.515625 45.703125 
Q 55.078125 39.0625 58.984375 32.21875 
Q 62.890625 25.390625 66.984375 20.109375 
Q 71.09375 14.84375 78.3125 8.984375 
Q 85.546875 3.125 94.140625 -0.78125 
Q 91.015625 -3.125 87.890625 -8.59375 
Q 80.859375 -4.6875 74.015625 1.171875 
Q 67.1875 7.03125 60.34375 16.59375 
Q 53.515625 26.171875 50 34.375 
Q 46.875 25.78125 43.359375 20.109375 
Q 39.84375 14.453125 35.734375 9.765625 
Q 31.640625 5.078125 25.1875 0.390625 
Q 18.75 -4.296875 10.546875 -8.984375 
Q 7.421875 -4.296875 3.515625 -0.78125 
Q 11.71875 1.953125 19.71875 7.03125 
Q 27.734375 12.109375 32.8125 18.546875 
Q 37.890625 25 41.015625 32.03125 
Q 44.140625 39.0625 44.921875 45.703125 
L 23.4375 45.703125 
Q 14.0625 45.703125 8.59375 45.3125 
L 8.59375 53.90625 
Q 14.0625 53.515625 23.4375 53.125 
z
" id="SimHei-5927"/>
     <path d="M 49.609375 52.34375 
Q 49.21875 46.484375 49.21875 40.625 
L 49.21875 19.53125 
Q 49.21875 15.234375 46.484375 13.859375 
Q 43.75 12.5 34.765625 11.328125 
Q 33.59375 14.84375 31.640625 18.359375 
Q 38.671875 18.75 40.421875 18.9375 
Q 42.1875 19.140625 41.796875 23.4375 
L 18.359375 23.4375 
L 18.359375 12.5 
L 10.15625 12.5 
Q 10.546875 25 10.546875 33.59375 
Q 10.546875 42.1875 10.15625 52.34375 
L 49.609375 52.34375 
z
M 65.625 45.3125 
Q 65.234375 41.015625 65.234375 34.375 
Q 81.640625 38.671875 88.28125 43.359375 
Q 90.234375 39.453125 93.359375 36.71875 
Q 85.9375 34.765625 65.625 28.125 
L 65.625 23.046875 
Q 65.625 19.53125 70.703125 19.53125 
L 80.46875 19.53125 
Q 83.59375 19.53125 85.15625 20.890625 
Q 86.71875 22.265625 88.28125 28.125 
Q 92.1875 26.171875 96.875 25.390625 
Q 93.359375 17.1875 91.40625 15.234375 
Q 89.453125 13.28125 83.984375 13.28125 
L 65.234375 13.28125 
Q 57.03125 13.28125 57.03125 19.53125 
L 57.03125 37.5 
Q 57.03125 40.625 56.640625 45.3125 
L 65.625 45.3125 
z
M 92.578125 69.140625 
Q 78.515625 65.234375 64.84375 61.328125 
Q 64.84375 54.6875 68.359375 54.6875 
L 80.46875 54.6875 
Q 83.203125 54.6875 84.765625 56.4375 
Q 86.328125 58.203125 86.71875 62.5 
Q 90.234375 60.9375 94.921875 59.765625 
Q 92.96875 51.5625 90.421875 50.1875 
Q 87.890625 48.828125 82.8125 48.828125 
L 64.84375 48.828125 
Q 57.03125 48.828125 57.03125 54.296875 
L 57.03125 71.09375 
Q 57.03125 75.78125 56.640625 80.46875 
L 65.625 80.46875 
Q 65.234375 75.390625 65.234375 67.1875 
Q 78.515625 70.3125 86.328125 76.171875 
Q 88.671875 72.65625 92.578125 69.140625 
z
M 32.03125 78.125 
Q 24.609375 71.484375 16.40625 62.890625 
Q 22.65625 63.28125 40.625 65.234375 
Q 38.671875 67.578125 35.546875 70.703125 
Q 39.0625 72.265625 42.96875 74.21875 
Q 51.171875 63.28125 55.078125 58.59375 
Q 51.171875 57.03125 48.046875 54.6875 
L 44.53125 59.765625 
Q 42.578125 59.375 33.203125 58.59375 
Q 23.828125 57.8125 9.375 55.859375 
Q 7.421875 59.375 6.25 62.890625 
Q 10.15625 64.84375 14.640625 69.53125 
Q 19.140625 74.21875 23.4375 82.03125 
Q 27.734375 79.6875 32.03125 78.125 
z
M 41.796875 28.90625 
L 41.796875 35.546875 
L 18.359375 35.546875 
L 18.359375 28.90625 
z
M 20.3125 6.640625 
Q 17.1875 3.125 11.71875 -9.765625 
Q 6.640625 -7.8125 3.90625 -7.03125 
Q 6.640625 -1.5625 11.71875 8.984375 
Q 15.625 7.8125 20.3125 6.640625 
z
M 85.9375 10.15625 
Q 92.578125 -1.953125 94.140625 -5.46875 
Q 89.84375 -6.640625 86.328125 -8.59375 
Q 83.984375 -2.34375 78.515625 7.03125 
Q 81.25 8.203125 85.9375 10.15625 
z
M 41.796875 41.015625 
L 41.796875 46.875 
L 18.359375 46.875 
L 18.359375 41.015625 
z
M 62.890625 8.59375 
Q 65.625 -1.953125 66.40625 -5.859375 
L 58.59375 -7.421875 
Q 57.421875 -3.90625 55.46875 7.421875 
Q 58.59375 8.203125 62.890625 8.59375 
z
M 39.84375 7.421875 
Q 40.234375 3.90625 42.578125 -6.640625 
Q 38.671875 -6.640625 34.375 -7.8125 
Q 33.59375 -3.125 32.03125 6.640625 
Q 35.15625 7.421875 39.84375 7.421875 
z
" id="SimHei-718a"/>
    </defs>
    <g style="fill:#800080;" transform="translate(235.061813 295.570823)rotate(-12.739652)scale(0.12 -0.12)">
     <use xlink:href="#SimHei-63"/>
     <use x="50" xlink:href="#SimHei-6f"/>
     <use x="100" xlink:href="#SimHei-69"/>
     <use x="150" xlink:href="#SimHei-6e"/>
     <use x="200" xlink:href="#SimHei-73"/>
     <use x="250" xlink:href="#SimHei-20"/>
     <use x="300" xlink:href="#SimHei-6f"/>
     <use x="350" xlink:href="#SimHei-66"/>
     <use x="400" xlink:href="#SimHei-20"/>
     <use x="450" xlink:href="#SimHei-5927"/>
     <use x="550" xlink:href="#SimHei-718a"/>
    </g>
   </g>
   <g id="Line3DCollection_1">
    <path d="M 325.649087 236.002984 
L 209.876104 187.422284 
L 210.363217 43.086674 
" style="fill:none;stroke:#b0b0b0;stroke-width:0.8;"/>
    <path d="M 305.615951 240.532216 
L 190.60155 191.299522 
L 190.43149 46.137256 
" style="fill:none;stroke:#b0b0b0;stroke-width:0.8;"/>
    <path d="M 285.302458 245.124834 
L 171.077619 195.226923 
L 170.232989 49.228668 
" style="fill:none;stroke:#b0b0b0;stroke-width:0.8;"/>
    <path d="M 264.70268 249.782177 
L 151.299439 199.205469 
L 149.762321 52.361736 
" style="fill:none;stroke:#b0b0b0;stroke-width:0.8;"/>
    <path d="M 243.810523 254.505623 
L 131.262013 203.236164 
L 129.013948 55.537307 
" style="fill:none;stroke:#b0b0b0;stroke-width:0.8;"/>
    <path d="M 222.619718 259.29659 
L 110.960209 207.320041 
L 107.982181 58.756252 
" style="fill:none;stroke:#b0b0b0;stroke-width:0.8;"/>
    <path d="M 201.123814 264.156536 
L 90.38876 211.458159 
L 86.661174 62.019466 
" style="fill:none;stroke:#b0b0b0;stroke-width:0.8;"/>
    <path d="M 179.316176 269.086961 
L 69.542258 215.651607 
L 65.044918 65.327868 
" style="fill:none;stroke:#b0b0b0;stroke-width:0.8;"/>
   </g>
   <g id="xtick_1">
    <g id="line2d_2">
     <path d="M 324.648958 235.583309 
L 327.653217 236.843957 
" style="fill:none;stroke:#000000;stroke-linecap:square;stroke-width:0.8;"/>
    </g>
    <g id="text_2">
     <!-- 0 -->
     <defs>
      <path d="M 3.125 29.296875 
Q 3.90625 50 6.4375 56.046875 
Q 8.984375 62.109375 13.671875 66.015625 
Q 18.359375 69.921875 25.1875 69.921875 
Q 32.03125 69.921875 37.109375 64.25 
Q 42.1875 58.59375 43.75 50 
Q 45.3125 41.40625 44.71875 30.265625 
Q 44.140625 19.140625 40.8125 12.109375 
Q 37.5 5.078125 30.859375 2.34375 
Q 24.21875 -0.390625 17.578125 2.921875 
Q 10.9375 6.25 8.203125 11.71875 
Q 5.46875 17.1875 4.296875 23.234375 
Q 3.125 29.296875 3.90625 50 
z
M 12.890625 52.734375 
Q 10.546875 31.25 12.5 22.84375 
Q 14.453125 14.453125 18.9375 10.9375 
Q 23.4375 7.421875 28.125 9.5625 
Q 32.8125 11.71875 34.953125 18.15625 
Q 37.109375 24.609375 37.109375 32.21875 
Q 37.109375 39.84375 36.515625 46.09375 
Q 35.9375 52.34375 33 57.421875 
Q 30.078125 62.5 25.1875 62.6875 
Q 20.3125 62.890625 16.59375 57.8125 
Q 12.890625 52.734375 10.546875 31.25 
z
" id="SimHei-30"/>
     </defs>
     <g transform="translate(330.134125 260.095778)scale(0.15 -0.15)">
      <use xlink:href="#SimHei-30"/>
     </g>
    </g>
   </g>
   <g id="xtick_2">
    <g id="line2d_3">
     <path d="M 304.621865 240.106691 
L 307.607998 241.384926 
" style="fill:none;stroke:#000000;stroke-linecap:square;stroke-width:0.8;"/>
    </g>
    <g id="text_3">
     <!-- 2 -->
     <defs>
      <path d="M 4.6875 3.90625 
Q 5.078125 9.765625 10.15625 14.453125 
Q 15.234375 19.140625 23.046875 29.09375 
Q 30.859375 39.0625 33.203125 44.53125 
Q 35.546875 50 34.953125 53.90625 
Q 34.375 57.8125 31.25 60.34375 
Q 28.125 62.890625 24.015625 62.5 
Q 19.921875 62.109375 16.203125 59.375 
Q 12.5 56.640625 10.546875 51.171875 
L 3.125 52.34375 
Q 6.25 61.328125 11.125 65.421875 
Q 16.015625 69.53125 22.65625 69.921875 
Q 26.5625 70.3125 29.6875 69.71875 
Q 32.8125 69.140625 36.125 66.984375 
Q 39.453125 64.84375 41.59375 60.546875 
Q 43.75 56.25 43.15625 50.1875 
Q 42.578125 44.140625 37.109375 35.734375 
Q 31.640625 27.34375 16.015625 9.375 
L 44.140625 9.375 
L 44.140625 2.34375 
L 4.6875 2.34375 
z
" id="SimHei-32"/>
     </defs>
     <g transform="translate(310.096382 264.735082)scale(0.15 -0.15)">
      <use xlink:href="#SimHei-32"/>
     </g>
    </g>
   </g>
   <g id="xtick_3">
    <g id="line2d_4">
     <path d="M 284.314682 244.693335 
L 287.281886 245.989527 
" style="fill:none;stroke:#000000;stroke-linecap:square;stroke-width:0.8;"/>
    </g>
    <g id="text_4">
     <!-- 4 -->
     <defs>
      <path d="M 31.25 17.1875 
L 1.171875 17.1875 
L 1.171875 23.828125 
L 32.8125 69.53125 
L 38.671875 69.53125 
L 38.671875 23.828125 
L 48.046875 23.828125 
L 48.046875 17.1875 
L 38.671875 17.1875 
L 38.671875 2.34375 
L 31.25 2.34375 
z
M 31.25 23.828125 
L 31.25 54.6875 
L 9.375 23.828125 
z
" id="SimHei-34"/>
     </defs>
     <g transform="translate(289.777342 269.439513)scale(0.15 -0.15)">
      <use xlink:href="#SimHei-34"/>
     </g>
    </g>
   </g>
   <g id="xtick_4">
    <g id="line2d_5">
     <path d="M 263.721492 249.344577 
L 266.668935 250.659107 
" style="fill:none;stroke:#000000;stroke-linecap:square;stroke-width:0.8;"/>
    </g>
    <g id="text_5">
     <!-- 6 -->
     <defs>
      <path d="M 3.515625 19.53125 
Q 4.296875 30.859375 6.046875 34.765625 
Q 7.8125 38.671875 11.328125 44.53125 
L 27.34375 69.53125 
L 36.328125 69.53125 
L 19.921875 43.75 
Q 30.46875 46.484375 36.71875 42.96875 
Q 42.96875 39.453125 45.109375 34.953125 
Q 47.265625 30.46875 47.453125 25.1875 
Q 47.65625 19.921875 45.890625 14.84375 
Q 44.140625 9.765625 39.640625 5.65625 
Q 35.15625 1.5625 27.140625 1.171875 
Q 19.140625 0.78125 13.46875 4.09375 
Q 7.8125 7.421875 5.65625 13.46875 
Q 3.515625 19.53125 4.296875 30.859375 
z
M 12.5 16.015625 
Q 19.53125 8.59375 25.390625 8.203125 
Q 31.25 7.8125 35.15625 12.109375 
Q 39.0625 16.40625 39.0625 24.609375 
Q 39.0625 32.8125 34.171875 35.9375 
Q 29.296875 39.0625 23.234375 38.28125 
Q 17.1875 37.5 14.453125 32.421875 
Q 11.71875 27.34375 12.109375 21.671875 
Q 12.5 16.015625 19.53125 8.59375 
z
" id="SimHei-36"/>
     </defs>
     <g transform="translate(269.171041 274.210454)scale(0.15 -0.15)">
      <use xlink:href="#SimHei-36"/>
     </g>
    </g>
   </g>
   <g id="xtick_5">
    <g id="line2d_6">
     <path d="M 242.83621 254.061792 
L 245.763028 255.395052 
" style="fill:none;stroke:#000000;stroke-linecap:square;stroke-width:0.8;"/>
    </g>
    <g id="text_6">
     <!-- 8 -->
     <defs>
      <path d="M 2.734375 16.796875 
Q 2.734375 26.171875 5.078125 30.65625 
Q 7.421875 35.15625 12.890625 37.890625 
Q 8.203125 40.625 6.640625 43.9375 
Q 5.078125 47.265625 4.875 51.5625 
Q 4.6875 55.859375 6.046875 58.984375 
Q 7.421875 62.109375 10.15625 64.84375 
Q 12.890625 67.578125 16.203125 68.546875 
Q 19.53125 69.53125 23.4375 69.53125 
Q 27.34375 69.53125 30.46875 68.75 
Q 33.59375 67.96875 37.109375 65.421875 
Q 40.625 62.890625 42.1875 58.203125 
Q 43.75 53.515625 41.984375 47.265625 
Q 40.234375 41.015625 32.8125 37.5 
Q 39.453125 35.546875 42.1875 31.4375 
Q 44.921875 27.34375 44.921875 21.484375 
Q 44.921875 15.625 43.15625 12.109375 
Q 41.40625 8.59375 39.25 6.25 
Q 37.109375 3.90625 33.390625 2.53125 
Q 29.6875 1.171875 24.015625 1.171875 
Q 18.359375 1.171875 14.25 2.53125 
Q 10.15625 3.90625 7.421875 6.640625 
Q 4.6875 9.375 3.703125 13.078125 
Q 2.734375 16.796875 2.734375 26.171875 
z
M 10.9375 26.5625 
Q 10.546875 17.1875 12.296875 13.671875 
Q 14.0625 10.15625 18.75 9.171875 
Q 23.4375 8.203125 28.515625 9.375 
Q 33.59375 10.546875 35.546875 14.84375 
Q 37.5 19.140625 36.90625 23.4375 
Q 36.328125 27.734375 32.03125 30.65625 
Q 27.734375 33.59375 22.65625 33.203125 
Q 17.578125 32.8125 14.25 29.6875 
Q 10.9375 26.5625 10.546875 17.1875 
z
M 12.109375 56.25 
Q 12.109375 48.4375 14.84375 44.921875 
Q 17.578125 41.40625 23.4375 41.40625 
Q 29.296875 41.40625 32.21875 44.921875 
Q 35.15625 48.4375 34.953125 53.3125 
Q 34.765625 58.203125 31.4375 60.546875 
Q 28.125 62.890625 22.453125 62.5 
Q 16.796875 62.109375 14.453125 59.171875 
Q 12.109375 56.25 12.109375 48.4375 
z
" id="SimHei-38"/>
     </defs>
     <g transform="translate(248.271344 279.049324)scale(0.15 -0.15)">
      <use xlink:href="#SimHei-38"/>
     </g>
    </g>
   </g>
   <g id="xtick_6">
    <g id="line2d_7">
     <path d="M 221.652577 258.846394 
L 224.557878 260.198787 
" style="fill:none;stroke:#000000;stroke-linecap:square;stroke-width:0.8;"/>
    </g>
    <g id="text_7">
     <!-- 10 -->
     <defs>
      <path d="M 21.875 56.25 
Q 16.796875 51.171875 8.984375 46.484375 
L 8.984375 53.90625 
Q 18.75 60.546875 25 69.53125 
L 29.6875 69.53125 
L 29.6875 2.34375 
L 21.875 2.34375 
z
" id="SimHei-31"/>
     </defs>
     <g transform="translate(223.321939 283.957585)scale(0.15 -0.15)">
      <use xlink:href="#SimHei-31"/>
      <use x="50" xlink:href="#SimHei-30"/>
     </g>
    </g>
   </g>
   <g id="xtick_7">
    <g id="line2d_8">
     <path d="M 200.164153 263.699837 
L 203.047012 265.071778 
" style="fill:none;stroke:#000000;stroke-linecap:square;stroke-width:0.8;"/>
    </g>
    <g id="text_8">
     <!-- 12 -->
     <g transform="translate(201.816333 288.936741)scale(0.15 -0.15)">
      <use xlink:href="#SimHei-31"/>
      <use x="50" xlink:href="#SimHei-32"/>
     </g>
    </g>
   </g>
   <g id="xtick_8">
    <g id="line2d_9">
     <path d="M 178.364314 268.623617 
L 181.22377 270.015533 
" style="fill:none;stroke:#000000;stroke-linecap:square;stroke-width:0.8;"/>
    </g>
    <g id="text_9">
     <!-- 14 -->
     <g transform="translate(179.997844 293.988337)scale(0.15 -0.15)">
      <use xlink:href="#SimHei-31"/>
      <use x="50" xlink:href="#SimHei-34"/>
     </g>
    </g>
   </g>
  </g>
  <g id="axis3d_2">
   <g id="line2d_10">
    <path d="M 58.794045 217.8137 
L 168.062833 271.631196 
" style="fill:none;stroke:#000000;stroke-linecap:square;stroke-width:0.8;"/>
   </g>
   <g id="text_10">
    <!-- coins of 胖虎 -->
    <defs>
     <path d="M 21.484375 1.953125 
Q 25.78125 1.5625 28.515625 1.75 
Q 31.25 1.953125 31.640625 7.03125 
L 31.640625 26.171875 
L 18.359375 26.171875 
Q 16.796875 14.453125 14.453125 5.859375 
Q 12.109375 -2.734375 10.15625 -7.03125 
Q 6.640625 -3.90625 3.125 -2.734375 
Q 6.640625 2.734375 8.78125 10.34375 
Q 10.9375 17.96875 11.71875 30.859375 
L 11.71875 64.453125 
Q 11.71875 71.09375 11.328125 76.953125 
L 38.671875 76.953125 
Q 38.28125 69.140625 38.28125 61.328125 
L 38.28125 1.953125 
Q 38.28125 -6.25 23.4375 -7.03125 
Q 23.046875 -3.125 21.484375 1.953125 
z
M 64.453125 45.3125 
L 64.453125 69.140625 
Q 64.453125 73.828125 63.671875 79.296875 
L 72.265625 79.296875 
Q 71.875 74.21875 71.875 69.140625 
L 71.875 45.3125 
L 82.421875 45.3125 
Q 85.9375 45.3125 91.796875 45.703125 
L 91.796875 38.671875 
Q 88.28125 39.0625 82.421875 39.0625 
L 71.875 39.0625 
L 71.875 23.4375 
L 84.765625 23.4375 
Q 91.015625 23.4375 96.09375 23.828125 
L 96.09375 16.796875 
Q 90.234375 17.1875 84.765625 17.1875 
L 71.875 17.1875 
L 71.875 3.90625 
Q 71.875 -2.34375 72.265625 -8.984375 
L 64.0625 -8.984375 
Q 64.453125 -2.734375 64.453125 3.90625 
L 64.453125 17.1875 
L 53.90625 17.1875 
Q 48.4375 17.1875 42.578125 16.796875 
L 42.578125 23.828125 
Q 48.046875 23.4375 54.296875 23.4375 
L 64.453125 23.4375 
L 64.453125 39.0625 
L 53.90625 39.0625 
Q 48.4375 39.0625 43.359375 38.671875 
L 43.359375 45.703125 
Q 48.4375 45.3125 53.515625 45.3125 
z
M 31.640625 32.8125 
L 31.640625 48.828125 
L 18.75 48.828125 
L 18.75 32.8125 
z
M 31.640625 55.078125 
L 31.640625 70.703125 
L 18.75 70.703125 
L 18.75 55.078125 
z
M 51.5625 51.953125 
Q 50 58.984375 44.921875 71.09375 
L 51.171875 74.21875 
Q 55.859375 63.28125 58.59375 54.6875 
Q 54.296875 53.515625 51.5625 51.953125 
z
M 77.34375 53.90625 
Q 83.984375 67.96875 84.765625 73.4375 
Q 88.671875 71.875 92.578125 70.703125 
Q 90.625 67.96875 88.671875 62.890625 
Q 86.71875 57.8125 84.375 51.953125 
Q 80.859375 53.90625 77.34375 53.90625 
z
" id="SimHei-80d6"/>
     <path d="M 25.78125 45.703125 
Q 33.203125 46.09375 44.140625 46.875 
L 44.140625 56.640625 
L 20.703125 56.640625 
Q 20.703125 31.640625 20.109375 23.4375 
Q 19.53125 15.234375 17.578125 8 
Q 15.625 0.78125 10.9375 -7.8125 
Q 7.8125 -5.46875 3.125 -3.90625 
Q 7.03125 0.78125 9.171875 6.828125 
Q 11.328125 12.890625 12.109375 18.75 
Q 12.890625 24.609375 13.078125 30.265625 
Q 13.28125 35.9375 13.28125 42.96875 
Q 13.28125 50.390625 12.890625 62.5 
L 44.140625 62.5 
L 44.140625 74.609375 
Q 44.140625 77.34375 43.359375 82.421875 
L 51.953125 82.421875 
Q 51.5625 78.515625 51.5625 75.390625 
L 71.09375 75.390625 
Q 76.171875 75.390625 84.765625 76.171875 
L 84.765625 69.53125 
Q 76.171875 69.921875 70.703125 69.921875 
L 51.171875 69.921875 
L 51.171875 62.5 
L 93.75 62.5 
Q 92.1875 57.8125 89.84375 46.875 
Q 85.15625 48.046875 82.03125 48.4375 
Q 83.984375 52.734375 85.15625 56.640625 
L 51.171875 56.640625 
L 51.171875 47.65625 
Q 65.234375 49.21875 74.21875 50.78125 
L 75 44.140625 
Q 64.0625 42.96875 51.171875 41.40625 
L 51.171875 36.71875 
Q 51.171875 33.203125 57.421875 33.203125 
L 70.3125 33.203125 
Q 75 32.8125 76.359375 34.5625 
Q 77.734375 36.328125 78.515625 41.015625 
Q 81.640625 39.0625 86.71875 37.109375 
Q 84.765625 30.859375 82.03125 29.09375 
Q 79.296875 27.34375 73.828125 27.34375 
L 54.296875 27.34375 
Q 44.140625 27.34375 44.140625 33.59375 
L 44.140625 41.015625 
Q 36.328125 40.234375 27.34375 39.0625 
Q 26.5625 42.578125 25.78125 45.703125 
z
M 71.09375 22.265625 
Q 70.703125 16.796875 70.703125 10.9375 
L 70.703125 2.34375 
Q 70.703125 -1.953125 75 -1.953125 
L 81.25 -1.953125 
Q 85.9375 -1.953125 86.71875 0.78125 
Q 87.5 3.515625 87.5 7.421875 
Q 91.40625 5.078125 96.09375 4.296875 
Q 93.359375 -3.90625 91.59375 -5.859375 
Q 89.84375 -7.8125 85.15625 -7.8125 
L 72.65625 -7.8125 
Q 63.671875 -7.8125 63.671875 -1.171875 
L 63.671875 16.40625 
L 45.3125 16.40625 
Q 45.3125 4.6875 41.203125 -0.578125 
Q 37.109375 -5.859375 26.171875 -10.546875 
Q 25 -6.640625 21.484375 -3.515625 
Q 35.9375 0.78125 37.109375 7.421875 
Q 38.28125 14.0625 37.890625 22.265625 
L 71.09375 22.265625 
z
" id="SimHei-864e"/>
    </defs>
    <g style="fill:#800080;" transform="translate(49.092792 257.912399)rotate(-333.778649)scale(0.12 -0.12)">
     <use xlink:href="#SimHei-63"/>
     <use x="50" xlink:href="#SimHei-6f"/>
     <use x="100" xlink:href="#SimHei-69"/>
     <use x="150" xlink:href="#SimHei-6e"/>
     <use x="200" xlink:href="#SimHei-73"/>
     <use x="250" xlink:href="#SimHei-20"/>
     <use x="300" xlink:href="#SimHei-6f"/>
     <use x="350" xlink:href="#SimHei-66"/>
     <use x="400" xlink:href="#SimHei-20"/>
     <use x="450" xlink:href="#SimHei-80d6"/>
     <use x="550" xlink:href="#SimHei-864e"/>
    </g>
   </g>
   <g id="Line3DCollection_2">
    <path d="M 227.548604 43.791556 
L 226.494241 188.318329 
L 65.235235 220.98614 
" style="fill:none;stroke:#b0b0b0;stroke-width:0.8;"/>
    <path d="M 241.688876 48.257402 
L 240.154088 193.993191 
L 78.043534 227.294534 
" style="fill:none;stroke:#b0b0b0;stroke-width:0.8;"/>
    <path d="M 256.106644 52.810887 
L 254.072998 199.775679 
L 91.108144 233.729167 
" style="fill:none;stroke:#b0b0b0;stroke-width:0.8;"/>
    <path d="M 270.810156 57.454617 
L 268.25841 205.668883 
L 104.436836 240.293868 
" style="fill:none;stroke:#b0b0b0;stroke-width:0.8;"/>
    <path d="M 285.807992 62.191302 
L 282.718053 211.676014 
L 118.0377 246.992619 
" style="fill:none;stroke:#b0b0b0;stroke-width:0.8;"/>
    <path d="M 301.10908 67.023762 
L 297.459956 217.800407 
L 131.919157 253.829569 
" style="fill:none;stroke:#b0b0b0;stroke-width:0.8;"/>
    <path d="M 316.722709 71.95493 
L 312.492466 224.045531 
L 146.089982 260.80904 
" style="fill:none;stroke:#b0b0b0;stroke-width:0.8;"/>
    <path d="M 332.658556 76.987861 
L 327.824262 230.41499 
L 160.559317 267.935534 
" style="fill:none;stroke:#b0b0b0;stroke-width:0.8;"/>
   </g>
   <g id="xtick_9">
    <g id="line2d_11">
     <path d="M 66.594479 220.710784 
L 62.513215 221.537566 
" style="fill:none;stroke:#000000;stroke-linecap:square;stroke-width:0.8;"/>
    </g>
    <g id="text_11">
     <!-- 0 -->
     <g transform="translate(50.195232 243.623733)scale(0.15 -0.15)">
      <use xlink:href="#SimHei-30"/>
     </g>
    </g>
   </g>
   <g id="xtick_10">
    <g id="line2d_12">
     <path d="M 79.410645 227.013697 
L 75.305726 227.856945 
" style="fill:none;stroke:#000000;stroke-linecap:square;stroke-width:0.8;"/>
    </g>
    <g id="text_12">
     <!-- 2 -->
     <g transform="translate(62.908596 250.062791)scale(0.15 -0.15)">
      <use xlink:href="#SimHei-32"/>
     </g>
    </g>
   </g>
   <g id="xtick_11">
    <g id="line2d_13">
     <path d="M 92.483165 233.442684 
L 88.354458 234.302894 
" style="fill:none;stroke:#000000;stroke-linecap:square;stroke-width:0.8;"/>
    </g>
    <g id="text_13">
     <!-- 4 -->
     <g transform="translate(75.876714 256.630876)scale(0.15 -0.15)">
      <use xlink:href="#SimHei-34"/>
     </g>
    </g>
   </g>
   <g id="xtick_12">
    <g id="line2d_14">
     <path d="M 105.81981 240.001565 
L 101.667187 240.879255 
" style="fill:none;stroke:#000000;stroke-linecap:square;stroke-width:0.8;"/>
    </g>
    <g id="text_14">
     <!-- 6 -->
     <g transform="translate(89.10732 263.331906)scale(0.15 -0.15)">
      <use xlink:href="#SimHei-36"/>
     </g>
    </g>
   </g>
   <g id="xtick_13">
    <g id="line2d_15">
     <path d="M 119.428666 246.694319 
L 115.252006 247.590026 
" style="fill:none;stroke:#000000;stroke-linecap:square;stroke-width:0.8;"/>
    </g>
    <g id="text_15">
     <!-- 8 -->
     <g transform="translate(102.608465 270.169958)scale(0.15 -0.15)">
      <use xlink:href="#SimHei-38"/>
     </g>
    </g>
   </g>
   <g id="xtick_14">
    <g id="line2d_16">
     <path d="M 133.318153 253.525084 
L 129.117343 254.439371 
" style="fill:none;stroke:#000000;stroke-linecap:square;stroke-width:0.8;"/>
    </g>
    <g id="text_16">
     <!-- 10 -->
     <g transform="translate(112.638533 277.14928)scale(0.15 -0.15)">
      <use xlink:href="#SimHei-31"/>
      <use x="50" xlink:href="#SimHei-30"/>
     </g>
    </g>
   </g>
   <g id="xtick_15">
    <g id="line2d_17">
     <path d="M 147.497042 260.498176 
L 143.271977 261.431625 
" style="fill:none;stroke:#000000;stroke-linecap:square;stroke-width:0.8;"/>
    </g>
    <g id="text_17">
     <!-- 12 -->
     <g transform="translate(126.706257 284.274293)scale(0.15 -0.15)">
      <use xlink:href="#SimHei-31"/>
      <use x="50" xlink:href="#SimHei-32"/>
     </g>
    </g>
   </g>
   <g id="xtick_16">
    <g id="line2d_18">
     <path d="M 161.974472 267.618089 
L 157.725058 268.57131 
" style="fill:none;stroke:#000000;stroke-linecap:square;stroke-width:0.8;"/>
    </g>
    <g id="text_18">
     <!-- 14 -->
     <g transform="translate(141.07074 291.549608)scale(0.15 -0.15)">
      <use xlink:href="#SimHei-31"/>
      <use x="50" xlink:href="#SimHei-34"/>
     </g>
    </g>
   </g>
  </g>
  <g id="axis3d_3">
   <g id="line2d_19">
    <path d="M 58.794045 217.8137 
L 53.895826 67.034254 
" style="fill:none;stroke:#000000;stroke-linecap:square;stroke-width:0.8;"/>
   </g>
   <g id="text_19">
    <!-- coins of 静香 -->
    <defs>
     <path d="M 67.578125 78.90625 
Q 65.625 76.5625 64.640625 74.40625 
Q 63.671875 72.265625 62.890625 70.3125 
L 84.375 70.3125 
Q 82.03125 66.796875 80.078125 62.296875 
Q 78.125 57.8125 75.78125 52.734375 
L 90.234375 52.734375 
Q 89.84375 47.265625 89.84375 41.015625 
L 89.84375 36.71875 
Q 93.359375 36.71875 96.875 37.109375 
L 96.875 30.46875 
Q 94.140625 30.859375 89.84375 30.859375 
L 89.84375 25.390625 
Q 89.84375 17.578125 90.234375 10.546875 
L 83.203125 10.546875 
L 83.203125 14.84375 
L 72.265625 14.84375 
L 72.265625 0.390625 
Q 71.875 -4.6875 68.9375 -6.640625 
Q 66.015625 -8.59375 56.25 -9.375 
Q 56.25 -5.46875 53.90625 -1.171875 
Q 58.984375 -1.5625 62.296875 -1.171875 
Q 65.625 -0.78125 65.625 2.734375 
L 65.625 14.84375 
L 60.15625 14.84375 
Q 55.46875 14.84375 50.390625 14.453125 
L 50.390625 20.703125 
Q 55.078125 20.3125 60.15625 20.3125 
L 65.625 20.3125 
L 65.625 30.859375 
L 59.765625 30.859375 
Q 54.6875 30.859375 48.046875 30.46875 
L 48.046875 36.71875 
Q 53.515625 36.328125 60.15625 36.328125 
L 65.625 36.328125 
L 65.625 47.265625 
L 60.15625 47.265625 
Q 57.8125 47.265625 51.953125 46.875 
L 51.953125 51.953125 
Q 50.78125 50.78125 48.828125 48.4375 
Q 46.875 51.5625 44.140625 53.90625 
Q 50.390625 60.15625 53.703125 68.15625 
Q 57.03125 76.171875 58.984375 82.03125 
Q 62.890625 80.078125 67.578125 78.90625 
z
M 42.96875 36.328125 
Q 42.578125 30.859375 42.578125 25 
L 42.578125 1.171875 
Q 42.578125 -4.6875 39.453125 -6.25 
Q 36.328125 -7.8125 30.078125 -8.984375 
Q 29.6875 -5.46875 27.34375 -1.5625 
Q 36.328125 -1.5625 35.546875 1.953125 
L 35.546875 6.640625 
L 15.234375 6.640625 
L 15.234375 -8.203125 
L 8.203125 -8.203125 
Q 8.59375 -3.90625 8.59375 1.953125 
L 8.59375 25 
Q 8.59375 30.859375 8.203125 36.328125 
L 42.96875 36.328125 
z
M 21.875 71.09375 
Q 21.875 74.609375 21.484375 80.46875 
L 29.296875 80.46875 
Q 28.90625 74.609375 28.90625 71.09375 
L 33.984375 71.09375 
Q 39.453125 71.09375 46.875 71.484375 
L 46.875 65.234375 
Q 39.453125 65.625 33.984375 65.625 
L 28.90625 65.625 
L 28.90625 59.375 
L 33.984375 59.375 
Q 36.328125 59.375 42.578125 59.765625 
L 42.578125 53.515625 
Q 35.9375 53.90625 33.59375 53.90625 
L 28.90625 53.90625 
L 28.90625 47.65625 
L 35.15625 47.65625 
Q 40.625 47.65625 46.484375 48.046875 
L 46.484375 41.796875 
Q 40.234375 42.1875 35.15625 42.1875 
L 15.625 42.1875 
Q 9.375 42.1875 3.90625 41.796875 
L 3.90625 48.046875 
Q 9.375 47.65625 15.625 47.65625 
L 21.875 47.65625 
L 21.875 53.90625 
L 15.234375 53.90625 
Q 12.890625 53.90625 8.59375 53.515625 
L 8.59375 59.765625 
Q 12.890625 59.375 15.234375 59.375 
L 21.875 59.375 
L 21.875 65.625 
L 15.234375 65.625 
Q 10.15625 65.625 4.6875 65.234375 
L 4.6875 71.484375 
Q 10.15625 71.09375 15.234375 71.09375 
z
M 52.734375 53.515625 
Q 57.421875 53.125 64.453125 53.125 
L 68.359375 53.125 
Q 72.265625 61.328125 73.4375 64.84375 
L 60.15625 64.84375 
Q 55.078125 56.640625 52.734375 53.515625 
z
M 35.546875 12.109375 
L 35.546875 19.140625 
L 15.234375 19.140625 
L 15.234375 12.109375 
z
M 35.546875 24.609375 
L 35.546875 30.859375 
L 15.234375 30.859375 
L 15.234375 24.609375 
z
M 83.203125 36.328125 
L 83.203125 47.265625 
L 72.265625 47.265625 
L 72.265625 36.328125 
z
M 83.203125 20.3125 
L 83.203125 30.859375 
L 72.265625 30.859375 
L 72.265625 20.3125 
z
" id="SimHei-9759"/>
     <path d="M 45.703125 33.59375 
L 45.703125 53.90625 
Q 36.71875 44.140625 26.359375 38.28125 
Q 16.015625 32.421875 10.546875 30.078125 
Q 10.546875 33.203125 5.46875 36.71875 
Q 16.015625 39.453125 24.21875 44.53125 
Q 32.421875 49.609375 37.109375 54.296875 
L 21.484375 54.296875 
Q 14.84375 54.296875 7.8125 53.90625 
L 7.8125 60.15625 
Q 14.84375 59.765625 21.484375 59.765625 
L 45.703125 59.765625 
L 45.703125 69.921875 
Q 38.28125 69.140625 17.96875 67.578125 
Q 16.796875 71.09375 14.453125 74.609375 
Q 32.8125 74.609375 50.390625 76.953125 
Q 67.96875 79.296875 74.609375 82.03125 
Q 76.953125 78.125 81.25 73.828125 
Q 74.609375 73.4375 67.96875 72.65625 
Q 61.328125 71.875 52.34375 70.703125 
L 52.34375 59.765625 
L 78.125 59.765625 
Q 83.984375 59.765625 91.40625 60.15625 
L 91.40625 53.90625 
Q 84.375 54.296875 78.125 54.296875 
L 61.71875 54.296875 
Q 66.40625 48.4375 74.21875 43.15625 
Q 82.03125 37.890625 94.140625 34.765625 
Q 89.84375 31.640625 88.28125 26.953125 
Q 82.421875 29.296875 77.34375 32.03125 
Q 76.5625 25 76.5625 12.5 
Q 76.5625 -0.78125 76.953125 -8.984375 
L 69.53125 -8.984375 
L 69.53125 -3.125 
L 28.515625 -3.125 
L 28.515625 -9.375 
L 21.875 -9.375 
L 21.875 11.71875 
Q 21.875 25 21.484375 33.59375 
z
M 69.53125 17.96875 
L 69.53125 27.734375 
L 28.515625 27.734375 
L 28.515625 17.96875 
z
M 69.53125 2.734375 
L 69.53125 12.5 
L 28.515625 12.5 
L 28.515625 2.734375 
z
M 71.484375 35.9375 
Q 62.109375 42.578125 52.734375 54.296875 
L 52.34375 54.296875 
L 52.34375 33.59375 
L 75 33.59375 
z
" id="SimHei-9999"/>
    </defs>
    <g style="fill:#800080;" transform="translate(10.565293 102.842551)rotate(-271.860655)scale(0.12 -0.12)">
     <use xlink:href="#SimHei-63"/>
     <use x="50" xlink:href="#SimHei-6f"/>
     <use x="100" xlink:href="#SimHei-69"/>
     <use x="150" xlink:href="#SimHei-6e"/>
     <use x="200" xlink:href="#SimHei-73"/>
     <use x="250" xlink:href="#SimHei-20"/>
     <use x="300" xlink:href="#SimHei-6f"/>
     <use x="350" xlink:href="#SimHei-66"/>
     <use x="400" xlink:href="#SimHei-20"/>
     <use x="450" xlink:href="#SimHei-9759"/>
     <use x="550" xlink:href="#SimHei-9999"/>
    </g>
   </g>
   <g id="Line3DCollection_3">
    <path d="M 58.492454 208.529967 
L 219.669895 176.585888 
L 336.085066 224.233899 
" style="fill:none;stroke:#b0b0b0;stroke-width:0.8;"/>
    <path d="M 57.897709 190.222231 
L 219.769111 159.08724 
L 336.710174 205.533478 
" style="fill:none;stroke:#b0b0b0;stroke-width:0.8;"/>
    <path d="M 57.297781 171.754931 
L 219.869148 141.443949 
L 337.340869 186.665935 
" style="fill:none;stroke:#b0b0b0;stroke-width:0.8;"/>
    <path d="M 56.692601 153.125973 
L 219.970014 123.654212 
L 337.977226 167.629019 
" style="fill:none;stroke:#b0b0b0;stroke-width:0.8;"/>
    <path d="M 56.0821 134.333224 
L 220.071722 105.716199 
L 338.619321 148.42044 
" style="fill:none;stroke:#b0b0b0;stroke-width:0.8;"/>
    <path d="M 55.466207 115.374514 
L 220.17428 87.628049 
L 339.267233 129.037865 
" style="fill:none;stroke:#b0b0b0;stroke-width:0.8;"/>
    <path d="M 54.844852 96.247636 
L 220.277701 69.387869 
L 339.92104 109.478918 
" style="fill:none;stroke:#b0b0b0;stroke-width:0.8;"/>
    <path d="M 54.21796 76.950341 
L 220.381995 50.993734 
L 340.580823 89.741182 
" style="fill:none;stroke:#b0b0b0;stroke-width:0.8;"/>
   </g>
   <g id="xtick_17">
    <g id="line2d_20">
     <path d="M 59.850818 208.26075 
L 55.772207 209.069099 
" style="fill:none;stroke:#000000;stroke-linecap:square;stroke-width:0.8;"/>
    </g>
    <g id="text_20">
     <!-- 0 -->
     <g transform="translate(36.319991 217.800274)scale(0.15 -0.15)">
      <use xlink:href="#SimHei-30"/>
     </g>
    </g>
   </g>
   <g id="xtick_18">
    <g id="line2d_21">
     <path d="M 59.262222 189.959775 
L 55.165133 190.747826 
" style="fill:none;stroke:#000000;stroke-linecap:square;stroke-width:0.8;"/>
    </g>
    <g id="text_21">
     <!-- 2 -->
     <g transform="translate(35.646444 199.518717)scale(0.15 -0.15)">
      <use xlink:href="#SimHei-32"/>
     </g>
    </g>
   </g>
   <g id="xtick_19">
    <g id="line2d_22">
     <path d="M 58.668498 171.499365 
L 54.552763 172.266732 
" style="fill:none;stroke:#000000;stroke-linecap:square;stroke-width:0.8;"/>
    </g>
    <g id="text_22">
     <!-- 4 -->
     <g transform="translate(34.967036 181.078092)scale(0.15 -0.15)">
      <use xlink:href="#SimHei-34"/>
     </g>
    </g>
   </g>
   <g id="xtick_20">
    <g id="line2d_23">
     <path d="M 58.069579 152.877427 
L 53.935029 153.623718 
" style="fill:none;stroke:#000000;stroke-linecap:square;stroke-width:0.8;"/>
    </g>
    <g id="text_23">
     <!-- 6 -->
     <g transform="translate(34.281691 162.476316)scale(0.15 -0.15)">
      <use xlink:href="#SimHei-36"/>
     </g>
    </g>
   </g>
   <g id="xtick_21">
    <g id="line2d_24">
     <path d="M 57.465397 134.091831 
L 53.311858 134.816645 
" style="fill:none;stroke:#000000;stroke-linecap:square;stroke-width:0.8;"/>
    </g>
    <g id="text_24">
     <!-- 8 -->
     <g transform="translate(33.590331 143.711265)scale(0.15 -0.15)">
      <use xlink:href="#SimHei-38"/>
     </g>
    </g>
   </g>
   <g id="xtick_22">
    <g id="line2d_25">
     <path d="M 56.855881 115.140412 
L 52.683179 115.843338 
" style="fill:none;stroke:#000000;stroke-linecap:square;stroke-width:0.8;"/>
    </g>
    <g id="text_25">
     <!-- 10 -->
     <g transform="translate(29.142875 124.780781)scale(0.15 -0.15)">
      <use xlink:href="#SimHei-31"/>
      <use x="50" xlink:href="#SimHei-30"/>
     </g>
    </g>
   </g>
   <g id="xtick_23">
    <g id="line2d_26">
     <path d="M 56.240962 96.020962 
L 52.048919 96.701585 
" style="fill:none;stroke:#000000;stroke-linecap:square;stroke-width:0.8;"/>
    </g>
    <g id="text_26">
     <!-- 12 -->
     <g transform="translate(28.439244 105.682667)scale(0.15 -0.15)">
      <use xlink:href="#SimHei-31"/>
      <use x="50" xlink:href="#SimHei-32"/>
     </g>
    </g>
   </g>
   <g id="xtick_24">
    <g id="line2d_27">
     <path d="M 55.620566 76.731239 
L 51.409002 77.389131 
" style="fill:none;stroke:#000000;stroke-linecap:square;stroke-width:0.8;"/>
    </g>
    <g id="text_27">
     <!-- 14 -->
     <g transform="translate(27.729354 86.414686)scale(0.15 -0.15)">
      <use xlink:href="#SimHei-31"/>
      <use x="50" xlink:href="#SimHei-34"/>
     </g>
    </g>
   </g>
  </g>
  <g id="axes_1">
   <g id="Path3DCollection_1">
    <defs>
     <path d="M 0 5 
C 1.326016 5 2.597899 4.473168 3.535534 3.535534 
C 4.473168 2.597899 5 1.326016 5 0 
C 5 -1.326016 4.473168 -2.597899 3.535534 -3.535534 
C 2.597899 -4.473168 1.326016 -5 0 -5 
C -1.326016 -5 -2.597899 -4.473168 -3.535534 -3.535534 
C -4.473168 -2.597899 -5 -1.326016 -5 0 
C -5 1.326016 -4.473168 2.597899 -3.535534 3.535534 
C -2.597899 4.473168 -1.326016 5 0 5 
z
" id="m4194c14398" style="stroke:#008000;"/>
    </defs>
    <g clip-path="url(#pb5dc698a04)">
     <use style="fill:#008000;stroke:#008000;" x="201.941437" xlink:href="#m4194c14398" y="159.994462"/>
    </g>
   </g>
   <g id="Path3DCollection_2">
    <path clip-path="url(#pb5dc698a04)" d="M 224.398551 58.559797 
C 224.773605 58.559797 225.133348 58.410786 225.398551 58.145583 
C 225.663754 57.88038 225.812764 57.520637 225.812764 57.145583 
C 225.812764 56.770529 225.663754 56.410786 225.398551 56.145583 
C 225.133348 55.88038 224.773605 55.731369 224.398551 55.731369 
C 224.023497 55.731369 223.663754 55.88038 223.398551 56.145583 
C 223.133348 56.410786 222.984337 56.770529 222.984337 57.145583 
C 222.984337 57.520637 223.133348 57.88038 223.398551 58.145583 
C 223.663754 58.410786 224.023497 58.559797 224.398551 58.559797 
z
" style="fill:#ff0000;stroke:#ff0000;"/>
    <path clip-path="url(#pb5dc698a04)" d="M 231.385035 71.009513 
C 231.96808 71.009513 232.527323 70.777867 232.939598 70.365592 
C 233.351873 69.953317 233.583519 69.394074 233.583519 68.811029 
C 233.583519 68.227984 233.351873 67.668741 232.939598 67.256466 
C 232.527323 66.844191 231.96808 66.612545 231.385035 66.612545 
C 230.80199 66.612545 230.242747 66.844191 229.830472 67.256466 
C 229.418197 67.668741 229.18655 68.227984 229.18655 68.811029 
C 229.18655 69.394074 229.418197 69.953317 229.830472 70.365592 
C 230.242747 70.777867 230.80199 71.009513 231.385035 71.009513 
z
" style="fill:#ff0000;stroke:#ff0000;"/>
    <path clip-path="url(#pb5dc698a04)" d="M 238.409492 83.05649 
C 239.076905 83.05649 239.717072 82.791324 240.189005 82.319392 
C 240.660937 81.84746 240.926103 81.207292 240.926103 80.539879 
C 240.926103 79.872466 240.660937 79.232298 240.189005 78.760366 
C 239.717072 78.288433 239.076905 78.023267 238.409492 78.023267 
C 237.742078 78.023267 237.101911 78.288433 236.629978 78.760366 
C 236.158046 79.232298 235.89288 79.872466 235.89288 80.539879 
C 235.89288 81.207292 236.158046 81.84746 236.629978 82.319392 
C 237.101911 82.791324 237.742078 83.05649 238.409492 83.05649 
z
" style="fill:#ff0000;stroke:#ff0000;"/>
    <path clip-path="url(#pb5dc698a04)" d="M 245.472232 95.547201 
C 246.32474 95.547201 247.142447 95.208496 247.745262 94.605681 
C 248.348077 94.002867 248.686782 93.18516 248.686782 92.332651 
C 248.686782 91.480142 248.348077 90.662435 247.745262 90.059621 
C 247.142447 89.456806 246.32474 89.118101 245.472232 89.118101 
C 244.619723 89.118101 243.802016 89.456806 243.199201 90.059621 
C 242.596387 90.662435 242.257681 91.480142 242.257681 92.332651 
C 242.257681 93.18516 242.596387 94.002867 243.199201 94.605681 
C 243.802016 95.208496 244.619723 95.547201 245.472232 95.547201 
z
" style="fill:#ff0000;stroke:#ff0000;"/>
    <path clip-path="url(#pb5dc698a04)" d="M 252.573569 108.062852 
C 253.600696 108.062852 254.585893 107.65477 255.312182 106.928482 
C 256.03847 106.202193 256.446552 105.216996 256.446552 104.189869 
C 256.446552 103.162742 256.03847 102.177545 255.312182 101.451256 
C 254.585893 100.724968 253.600696 100.316886 252.573569 100.316886 
C 251.546442 100.316886 250.561245 100.724968 249.834956 101.451256 
C 249.108667 102.177545 248.700585 103.162742 248.700585 104.189869 
C 248.700585 105.216996 249.108667 106.202193 249.834956 106.928482 
C 250.561245 107.65477 251.546442 108.062852 252.573569 108.062852 
z
" style="fill:#ff0000;stroke:#ff0000;"/>
    <path clip-path="url(#pb5dc698a04)" d="M 259.71382 121.044946 
C 261.022036 121.044946 262.276847 120.525186 263.201895 119.600138 
C 264.126943 118.67509 264.646703 117.420279 264.646703 116.112063 
C 264.646703 114.803847 264.126943 113.549037 263.201895 112.623988 
C 262.276847 111.69894 261.022036 111.17918 259.71382 111.17918 
C 258.405604 111.17918 257.150794 111.69894 256.225745 112.623988 
C 255.300697 113.549037 254.780937 114.803847 254.780937 116.112063 
C 254.780937 117.420279 255.300697 118.67509 256.225745 119.600138 
C 257.150794 120.525186 258.405604 121.044946 259.71382 121.044946 
z
" style="fill:#ff0000;stroke:#ff0000;"/>
    <path clip-path="url(#pb5dc698a04)" d="M 266.893307 132.571905 
C 268.079331 132.571905 269.216939 132.100692 270.055584 131.262046 
C 270.89423 130.423401 271.365443 129.285793 271.365443 128.099769 
C 271.365443 126.913744 270.89423 125.776137 270.055584 124.937491 
C 269.216939 124.098845 268.079331 123.627633 266.893307 123.627633 
C 265.707282 123.627633 264.569675 124.098845 263.731029 124.937491 
C 262.892383 125.776137 262.421171 126.913744 262.421171 128.099769 
C 262.421171 129.285793 262.892383 130.423401 263.731029 131.262046 
C 264.569675 132.100692 265.707282 132.571905 266.893307 132.571905 
z
" style="fill:#ff0000;stroke:#ff0000;"/>
    <path clip-path="url(#pb5dc698a04)" d="M 274.112353 144.931951 
C 275.379605 144.931951 276.595125 144.428466 277.491208 143.532383 
C 278.387292 142.6363 278.890776 141.42078 278.890776 140.153527 
C 278.890776 138.886274 278.387292 137.670754 277.491208 136.774671 
C 276.595125 135.878588 275.379605 135.375103 274.112353 135.375103 
C 272.8451 135.375103 271.62958 135.878588 270.733497 136.774671 
C 269.837414 137.670754 269.333929 138.886274 269.333929 140.153527 
C 269.333929 141.42078 269.837414 142.6363 270.733497 143.532383 
C 271.62958 144.428466 272.8451 144.931951 274.112353 144.931951 
z
" style="fill:#ff0000;stroke:#ff0000;"/>
    <path clip-path="url(#pb5dc698a04)" d="M 281.371286 157.017302 
C 282.629255 157.017302 283.83587 156.517506 284.725388 155.627988 
C 285.614906 154.73847 286.114702 153.531855 286.114702 152.273886 
C 286.114702 151.015917 285.614906 149.809302 284.725388 148.919784 
C 283.83587 148.030266 282.629255 147.53047 281.371286 147.53047 
C 280.113317 147.53047 278.906702 148.030266 278.017184 148.919784 
C 277.127666 149.809302 276.627869 151.015917 276.627869 152.273886 
C 276.627869 153.531855 277.127666 154.73847 278.017184 155.627988 
C 278.906702 156.517506 280.113317 157.017302 281.371286 157.017302 
z
" style="fill:#ff0000;stroke:#ff0000;"/>
    <path clip-path="url(#pb5dc698a04)" d="M 288.670438 168.158244 
C 289.650853 168.158244 290.591244 167.768721 291.284502 167.075463 
C 291.97776 166.382205 292.367283 165.441814 292.367283 164.461399 
C 292.367283 163.480984 291.97776 162.540592 291.284502 161.847334 
C 290.591244 161.154076 289.650853 160.764553 288.670438 160.764553 
C 287.690023 160.764553 286.749631 161.154076 286.056373 161.847334 
C 285.363115 162.540592 284.973592 163.480984 284.973592 164.461399 
C 284.973592 165.441814 285.363115 166.382205 286.056373 167.075463 
C 286.749631 167.768721 287.690023 168.158244 288.670438 168.158244 
z
" style="fill:#ff0000;stroke:#ff0000;"/>
    <path clip-path="url(#pb5dc698a04)" d="M 296.010143 179.798832 
C 296.827554 179.798832 297.611596 179.474071 298.189593 178.896074 
C 298.76759 178.318078 299.09235 177.534036 299.09235 176.716625 
C 299.09235 175.899214 298.76759 175.115172 298.189593 174.537175 
C 297.611596 173.959179 296.827554 173.634418 296.010143 173.634418 
C 295.192733 173.634418 294.408691 173.959179 293.830694 174.537175 
C 293.252697 175.115172 292.927936 175.899214 292.927936 176.716625 
C 292.927936 177.534036 293.252697 178.318078 293.830694 178.896074 
C 294.408691 179.474071 295.192733 179.798832 296.010143 179.798832 
z
" style="fill:#ff0000;stroke:#ff0000;"/>
    <path clip-path="url(#pb5dc698a04)" d="M 303.390742 191.83894 
C 304.132995 191.83894 304.844947 191.54404 305.369799 191.019188 
C 305.894651 190.494335 306.189551 189.782383 306.189551 189.04013 
C 306.189551 188.297878 305.894651 187.585926 305.369799 187.061073 
C 304.844947 186.536221 304.132995 186.241321 303.390742 186.241321 
C 302.648489 186.241321 301.936537 186.536221 301.411685 187.061073 
C 300.886833 187.585926 300.591933 188.297878 300.591933 189.04013 
C 300.591933 189.782383 300.886833 190.494335 301.411685 191.019188 
C 301.936537 191.54404 302.648489 191.83894 303.390742 191.83894 
z
" style="fill:#ff0000;stroke:#ff0000;"/>
    <path clip-path="url(#pb5dc698a04)" d="M 310.812576 203.553808 
C 311.375157 203.553808 311.914772 203.330292 312.312576 202.932488 
C 312.710381 202.534683 312.933897 201.995068 312.933897 201.432488 
C 312.933897 200.869907 312.710381 200.330292 312.312576 199.932488 
C 311.914772 199.534683 311.375157 199.311167 310.812576 199.311167 
C 310.249995 199.311167 309.710381 199.534683 309.312576 199.932488 
C 308.914772 200.330292 308.691256 200.869907 308.691256 201.432488 
C 308.691256 201.995068 308.914772 202.534683 309.312576 202.932488 
C 309.710381 203.330292 310.249995 203.553808 310.812576 203.553808 
z
" style="fill:#ff0000;stroke:#ff0000;"/>
    <path clip-path="url(#pb5dc698a04)" d="M 318.275992 215.366235 
C 318.666361 215.366235 319.040793 215.21114 319.316825 214.935108 
C 319.592858 214.659076 319.747953 214.284644 319.747953 213.894275 
C 319.747953 213.503907 319.592858 213.129474 319.316825 212.853442 
C 319.040793 212.57741 318.666361 212.422315 318.275992 212.422315 
C 317.885624 212.422315 317.511192 212.57741 317.235159 212.853442 
C 316.959127 213.129474 316.804032 213.503907 316.804032 213.894275 
C 316.804032 214.284644 316.959127 214.659076 317.235159 214.935108 
C 317.511192 215.21114 317.885624 215.366235 318.275992 215.366235 
z
" style="fill:#ff0000;stroke:#ff0000;"/>
    <path clip-path="url(#pb5dc698a04)" d="M 207.466343 57.95823 
C 207.871447 57.95823 208.260014 57.79728 208.546466 57.510828 
C 208.832918 57.224376 208.993868 56.835809 208.993868 56.430705 
C 208.993868 56.0256 208.832918 55.637034 208.546466 55.350581 
C 208.260014 55.064129 207.871447 54.90318 207.466343 54.90318 
C 207.061238 54.90318 206.672672 55.064129 206.386219 55.350581 
C 206.099767 55.637034 205.938818 56.0256 205.938818 56.430705 
C 205.938818 56.835809 206.099767 57.224376 206.386219 57.510828 
C 206.672672 57.79728 207.061238 57.95823 207.466343 57.95823 
z
" style="fill:#ff0000;stroke:#ff0000;"/>
    <path clip-path="url(#pb5dc698a04)" d="M 197.459219 69.504513 
C 198.032123 69.504513 198.58164 69.276896 198.986744 68.871791 
C 199.391848 68.466687 199.619466 67.91717 199.619466 67.344266 
C 199.619466 66.771362 199.391848 66.221845 198.986744 65.816741 
C 198.58164 65.411636 198.032123 65.184019 197.459219 65.184019 
C 196.886315 65.184019 196.336798 65.411636 195.931694 65.816741 
C 195.526589 66.221845 195.298972 66.771362 195.298972 67.344266 
C 195.298972 67.91717 195.526589 68.466687 195.931694 68.871791 
C 196.336798 69.276896 196.886315 69.504513 197.459219 69.504513 
z
" style="fill:#ff0000;stroke:#ff0000;"/>
    <path clip-path="url(#pb5dc698a04)" d="M 187.428275 80.929555 
C 188.129937 80.929555 188.802955 80.650782 189.299104 80.154632 
C 189.795254 79.658483 190.074027 78.985465 190.074027 78.283804 
C 190.074027 77.582142 189.795254 76.909125 189.299104 76.412975 
C 188.802955 75.916825 188.129937 75.638052 187.428275 75.638052 
C 186.726614 75.638052 186.053596 75.916825 185.557447 76.412975 
C 185.061297 76.909125 184.782524 77.582142 184.782524 78.283804 
C 184.782524 78.985465 185.061297 79.658483 185.557447 80.154632 
C 186.053596 80.650782 186.726614 80.929555 187.428275 80.929555 
z
" style="fill:#ff0000;stroke:#ff0000;"/>
    <path clip-path="url(#pb5dc698a04)" d="M 177.373428 92.761296 
C 178.30479 92.761296 179.198132 92.391261 179.856705 91.732689 
C 180.515278 91.074116 180.885312 90.180774 180.885312 89.249411 
C 180.885312 88.318049 180.515278 87.424707 179.856705 86.766134 
C 179.198132 86.107561 178.30479 85.737527 177.373428 85.737527 
C 176.442065 85.737527 175.548723 86.107561 174.89015 86.766134 
C 174.231577 87.424707 173.861543 88.318049 173.861543 89.249411 
C 173.861543 90.180774 174.231577 91.074116 174.89015 91.732689 
C 175.548723 92.391261 176.442065 92.761296 177.373428 92.761296 
z
" style="fill:#ff0000;stroke:#ff0000;"/>
    <path clip-path="url(#pb5dc698a04)" d="M 167.29459 104.404514 
C 168.398719 104.404514 169.457774 103.965839 170.23851 103.185102 
C 171.019247 102.404365 171.457922 101.34531 171.457922 100.241182 
C 171.457922 99.137053 171.019247 98.077998 170.23851 97.297261 
C 169.457774 96.516524 168.398719 96.07785 167.29459 96.07785 
C 166.190461 96.07785 165.131406 96.516524 164.35067 97.297261 
C 163.569933 98.077998 163.131258 99.137053 163.131258 100.241182 
C 163.131258 101.34531 163.569933 102.404365 164.35067 103.185102 
C 165.131406 103.965839 166.190461 104.404514 167.29459 104.404514 
z
" style="fill:#ff0000;stroke:#ff0000;"/>
    <path clip-path="url(#pb5dc698a04)" d="M 157.191676 115.656177 
C 158.357766 115.656177 159.476253 115.192885 160.300803 114.368335 
C 161.125353 113.543785 161.588645 112.425298 161.588645 111.259209 
C 161.588645 110.093119 161.125353 108.974632 160.300803 108.150082 
C 159.476253 107.325532 158.357766 106.86224 157.191676 106.86224 
C 156.025587 106.86224 154.9071 107.325532 154.08255 108.150082 
C 153.258 108.974632 152.794708 110.093119 152.794708 111.259209 
C 152.794708 112.425298 153.258 113.543785 154.08255 114.368335 
C 154.9071 115.192885 156.025587 115.656177 157.191676 115.656177 
z
" style="fill:#ff0000;stroke:#ff0000;"/>
    <path clip-path="url(#pb5dc698a04)" d="M 147.064601 127.047003 
C 148.322569 127.047003 149.529184 126.547207 150.418703 125.657688 
C 151.308221 124.76817 151.808017 123.561555 151.808017 122.303586 
C 151.808017 121.045618 151.308221 119.839003 150.418703 118.949484 
C 149.529184 118.059966 148.322569 117.56017 147.064601 117.56017 
C 145.806632 117.56017 144.600017 118.059966 143.710499 118.949484 
C 142.82098 119.839003 142.321184 121.045618 142.321184 122.303586 
C 142.321184 123.561555 142.82098 124.76817 143.710499 125.657688 
C 144.600017 126.547207 145.806632 127.047003 147.064601 127.047003 
z
" style="fill:#ff0000;stroke:#ff0000;"/>
    <path clip-path="url(#pb5dc698a04)" d="M 136.913276 138.152833 
C 138.180529 138.152833 139.396049 137.649349 140.292132 136.753266 
C 141.188215 135.857183 141.6917 134.641663 141.6917 133.37441 
C 141.6917 132.107157 141.188215 130.891637 140.292132 129.995554 
C 139.396049 129.099471 138.180529 128.595986 136.913276 128.595986 
C 135.646023 128.595986 134.430503 129.099471 133.53442 129.995554 
C 132.638337 130.891637 132.134852 132.107157 132.134852 133.37441 
C 132.134852 134.641663 132.638337 135.857183 133.53442 136.753266 
C 134.430503 137.649349 135.646023 138.152833 136.913276 138.152833 
z
" style="fill:#ff0000;stroke:#ff0000;"/>
    <path clip-path="url(#pb5dc698a04)" d="M 126.737615 149.072498 
C 127.957741 149.072498 129.128059 148.587737 129.990818 147.724977 
C 130.853578 146.862218 131.338339 145.6919 131.338339 144.471774 
C 131.338339 143.251647 130.853578 142.08133 129.990818 141.21857 
C 129.128059 140.35581 127.957741 139.871049 126.737615 139.871049 
C 125.517488 139.871049 124.347171 140.35581 123.484411 141.21857 
C 122.621652 142.08133 122.13689 143.251647 122.13689 144.471774 
C 122.13689 145.6919 122.621652 146.862218 123.484411 147.724977 
C 124.347171 148.587737 125.517488 149.072498 126.737615 149.072498 
z
" style="fill:#ff0000;stroke:#ff0000;"/>
    <path clip-path="url(#pb5dc698a04)" d="M 116.53753 159.838414 
C 117.662691 159.838414 118.74192 159.391383 119.53753 158.595774 
C 120.333139 157.800164 120.78017 156.720935 120.78017 155.595774 
C 120.78017 154.470612 120.333139 153.391383 119.53753 152.595774 
C 118.74192 151.800164 117.662691 151.353133 116.53753 151.353133 
C 115.412368 151.353133 114.333139 151.800164 113.53753 152.595774 
C 112.74192 153.391383 112.294889 154.470612 112.294889 155.595774 
C 112.294889 156.720935 112.74192 157.800164 113.53753 158.595774 
C 114.333139 159.391383 115.412368 159.838414 116.53753 159.838414 
z
" style="fill:#ff0000;stroke:#ff0000;"/>
    <path clip-path="url(#pb5dc698a04)" d="M 106.312933 169.485119 
C 107.039222 169.485119 107.735861 169.196561 108.249425 168.682998 
C 108.762988 168.169434 109.051546 167.472795 109.051546 166.746506 
C 109.051546 166.020217 108.762988 165.323578 108.249425 164.810014 
C 107.735861 164.296451 107.039222 164.007893 106.312933 164.007893 
C 105.586644 164.007893 104.890005 164.296451 104.376441 164.810014 
C 103.862878 165.323578 103.57432 166.020217 103.57432 166.746506 
C 103.57432 167.472795 103.862878 168.169434 104.376441 168.682998 
C 104.890005 169.196561 105.586644 169.485119 106.312933 169.485119 
z
" style="fill:#ff0000;stroke:#ff0000;"/>
    <path clip-path="url(#pb5dc698a04)" d="M 96.063736 180.60113 
C 96.773701 180.60113 97.454684 180.319058 97.956705 179.817036 
C 98.458727 179.315015 98.740799 178.634032 98.740799 177.924067 
C 98.740799 177.214102 98.458727 176.533119 97.956705 176.031097 
C 97.454684 175.529076 96.773701 175.247004 96.063736 175.247004 
C 95.35377 175.247004 94.672788 175.529076 94.170766 176.031097 
C 93.668745 176.533119 93.386673 177.214102 93.386673 177.924067 
C 93.386673 178.634032 93.668745 179.315015 94.170766 179.817036 
C 94.672788 180.319058 95.35377 180.60113 96.063736 180.60113 
z
" style="fill:#ff0000;stroke:#ff0000;"/>
    <path clip-path="url(#pb5dc698a04)" d="M 85.789849 191.327038 
C 86.372894 191.327038 86.932137 191.095392 87.344412 190.683117 
C 87.756687 190.270842 87.988334 189.711598 87.988334 189.128553 
C 87.988334 188.545509 87.756687 187.986265 87.344412 187.57399 
C 86.932137 187.161715 86.372894 186.930069 85.789849 186.930069 
C 85.206804 186.930069 84.647561 187.161715 84.235286 187.57399 
C 83.823011 187.986265 83.591365 188.545509 83.591365 189.128553 
C 83.591365 189.711598 83.823011 190.270842 84.235286 190.683117 
C 84.647561 191.095392 85.206804 191.327038 85.789849 191.327038 
z
" style="fill:#ff0000;stroke:#ff0000;"/>
    <path clip-path="url(#pb5dc698a04)" d="M 75.491184 201.774276 
C 75.866238 201.774276 76.225981 201.625266 76.491184 201.360063 
C 76.756387 201.09486 76.905398 200.735117 76.905398 200.360063 
C 76.905398 199.985009 76.756387 199.625266 76.491184 199.360063 
C 76.225981 199.09486 75.866238 198.945849 75.491184 198.945849 
C 75.11613 198.945849 74.756387 199.09486 74.491184 199.360063 
C 74.225981 199.625266 74.076971 199.985009 74.076971 200.360063 
C 74.076971 200.735117 74.225981 201.09486 74.491184 201.360063 
C 74.756387 201.625266 75.11613 201.774276 75.491184 201.774276 
z
" style="fill:#ff0000;stroke:#ff0000;"/>
    <path clip-path="url(#pb5dc698a04)" d="M 308.024995 226.771216 
C 308.384081 226.771216 308.728509 226.628549 308.982422 226.374636 
C 309.236334 226.120724 309.379001 225.776296 309.379001 225.417209 
C 309.379001 225.058123 309.236334 224.713695 308.982422 224.459782 
C 308.728509 224.205869 308.384081 224.063203 308.024995 224.063203 
C 307.665908 224.063203 307.32148 224.205869 307.067568 224.459782 
C 306.813655 224.713695 306.670988 225.058123 306.670988 225.417209 
C 306.670988 225.776296 306.813655 226.120724 307.067568 226.374636 
C 307.32148 226.628549 307.665908 226.771216 308.024995 226.771216 
z
" style="fill:#ff0000;stroke:#ff0000;"/>
    <path clip-path="url(#pb5dc698a04)" d="M 290.324347 226.756713 
C 290.946304 226.756713 291.54287 226.509607 291.98266 226.069817 
C 292.422449 225.630028 292.669555 225.033461 292.669555 224.411505 
C 292.669555 223.789549 292.422449 223.192982 291.98266 222.753193 
C 291.54287 222.313403 290.946304 222.066297 290.324347 222.066297 
C 289.702391 222.066297 289.105824 222.313403 288.666035 222.753193 
C 288.226245 223.192982 287.979139 223.789549 287.979139 224.411505 
C 287.979139 225.033461 288.226245 225.630028 288.666035 226.069817 
C 289.105824 226.509607 289.702391 226.756713 290.324347 226.756713 
z
" style="fill:#ff0000;stroke:#ff0000;"/>
    <path clip-path="url(#pb5dc698a04)" d="M 272.679137 226.177825 
C 273.413451 226.177825 274.117788 225.886079 274.637027 225.36684 
C 275.156265 224.847602 275.448011 224.143265 275.448011 223.40895 
C 275.448011 222.674636 275.156265 221.970299 274.637027 221.45106 
C 274.117788 220.931822 273.413451 220.640076 272.679137 220.640076 
C 271.944822 220.640076 271.240485 220.931822 270.721247 221.45106 
C 270.202008 221.970299 269.910262 222.674636 269.910262 223.40895 
C 269.910262 224.143265 270.202008 224.847602 270.721247 225.36684 
C 271.240485 225.886079 271.944822 226.177825 272.679137 226.177825 
z
" style="fill:#ff0000;stroke:#ff0000;"/>
    <path clip-path="url(#pb5dc698a04)" d="M 255.089103 225.437181 
C 255.892045 225.437181 256.662209 225.118169 257.229975 224.550403 
C 257.797741 223.982637 258.116753 223.212473 258.116753 222.409531 
C 258.116753 221.606589 257.797741 220.836425 257.229975 220.268659 
C 256.662209 219.700893 255.892045 219.381881 255.089103 219.381881 
C 254.286161 219.381881 253.515997 219.700893 252.948231 220.268659 
C 252.380465 220.836425 252.061453 221.606589 252.061453 222.409531 
C 252.061453 223.212473 252.380465 223.982637 252.948231 224.550403 
C 253.515997 225.118169 254.286161 225.437181 255.089103 225.437181 
z
" style="fill:#ff0000;stroke:#ff0000;"/>
    <path clip-path="url(#pb5dc698a04)" d="M 237.553988 225.199171 
C 238.558031 225.199171 239.521086 224.80026 240.231051 224.090295 
C 240.941017 223.380329 241.339927 222.417275 241.339927 221.413232 
C 241.339927 220.409189 240.941017 219.446134 240.231051 218.736169 
C 239.521086 218.026203 238.558031 217.627293 237.553988 217.627293 
C 236.549945 217.627293 235.586891 218.026203 234.876925 218.736169 
C 234.16696 219.446134 233.768049 220.409189 233.768049 221.413232 
C 233.768049 222.417275 234.16696 223.380329 234.876925 224.090295 
C 235.586891 224.80026 236.549945 225.199171 237.553988 225.199171 
z
" style="fill:#ff0000;stroke:#ff0000;"/>
    <path clip-path="url(#pb5dc698a04)" d="M 220.073535 224.966099 
C 221.279165 224.966099 222.435577 224.487097 223.288085 223.634589 
C 224.140594 222.78208 224.619596 221.625668 224.619596 220.420038 
C 224.619596 219.214409 224.140594 218.057997 223.288085 217.205488 
C 222.435577 216.352979 221.279165 215.873978 220.073535 215.873978 
C 218.867906 215.873978 217.711494 216.352979 216.858985 217.205488 
C 216.006476 218.057997 215.527475 219.214409 215.527475 220.420038 
C 215.527475 221.625668 216.006476 222.78208 216.858985 223.634589 
C 217.711494 224.487097 218.867906 224.966099 220.073535 224.966099 
z
" style="fill:#ff0000;stroke:#ff0000;"/>
    <path clip-path="url(#pb5dc698a04)" d="M 202.647489 224.225768 
C 203.919358 224.225768 205.139306 223.720449 206.038654 222.821101 
C 206.938001 221.921754 207.44332 220.701806 207.44332 219.429936 
C 207.44332 218.158067 206.938001 216.938119 206.038654 216.038771 
C 205.139306 215.139424 203.919358 214.634105 202.647489 214.634105 
C 201.375619 214.634105 200.155671 215.139424 199.256324 216.038771 
C 198.356976 216.938119 197.851657 218.158067 197.851657 219.429936 
C 197.851657 220.701806 198.356976 221.921754 199.256324 222.821101 
C 200.155671 223.720449 201.375619 224.225768 202.647489 224.225768 
z
" style="fill:#ff0000;stroke:#ff0000;"/>
    <path clip-path="url(#pb5dc698a04)" d="M 185.275595 223.256087 
C 186.552065 223.256087 187.776425 222.748941 188.679025 221.846341 
C 189.581625 220.943741 190.088772 219.71938 190.088772 218.442911 
C 190.088772 217.166442 189.581625 215.942081 188.679025 215.039481 
C 187.776425 214.136881 186.552065 213.629735 185.275595 213.629735 
C 183.999126 213.629735 182.774766 214.136881 181.872166 215.039481 
C 180.969566 215.942081 180.462419 217.166442 180.462419 218.442911 
C 180.462419 219.71938 180.969566 220.943741 181.872166 221.846341 
C 182.774766 222.748941 183.999126 223.256087 185.275595 223.256087 
z
" style="fill:#ff0000;stroke:#ff0000;"/>
    <path clip-path="url(#pb5dc698a04)" d="M 167.957603 222.005009 
C 169.163232 222.005009 170.319645 221.526007 171.172153 220.673498 
C 172.024662 219.82099 172.503664 218.664578 172.503664 217.458948 
C 172.503664 216.253319 172.024662 215.096907 171.172153 214.244398 
C 170.319645 213.391889 169.163232 212.912888 167.957603 212.912888 
C 166.751974 212.912888 165.595561 213.391889 164.743053 214.244398 
C 163.890544 215.096907 163.411542 216.253319 163.411542 217.458948 
C 163.411542 218.664578 163.890544 219.82099 164.743053 220.673498 
C 165.595561 221.526007 166.751974 222.005009 167.957603 222.005009 
z
" style="fill:#ff0000;stroke:#ff0000;"/>
    <path clip-path="url(#pb5dc698a04)" d="M 150.693261 220.681207 
C 151.807956 220.681207 152.877145 220.238334 153.665354 219.450126 
C 154.453562 218.661918 154.896435 217.592728 154.896435 216.478034 
C 154.896435 215.363339 154.453562 214.294149 153.665354 213.505941 
C 152.877145 212.717733 151.807956 212.27486 150.693261 212.27486 
C 149.578567 212.27486 148.509377 212.717733 147.721169 213.505941 
C 146.932961 214.294149 146.490088 215.363339 146.490088 216.478034 
C 146.490088 217.592728 146.932961 218.661918 147.721169 219.450126 
C 148.509377 220.238334 149.578567 220.681207 150.693261 220.681207 
z
" style="fill:#ff0000;stroke:#ff0000;"/>
    <path clip-path="url(#pb5dc698a04)" d="M 133.482321 218.208166 
C 134.200494 218.208166 134.88935 217.922833 135.397175 217.415007 
C 135.905 216.907182 136.190334 216.218327 136.190334 215.500153 
C 136.190334 214.78198 135.905 214.093124 135.397175 213.585299 
C 134.88935 213.077474 134.200494 212.79214 133.482321 212.79214 
C 132.764148 212.79214 132.075292 213.077474 131.567467 213.585299 
C 131.059641 214.093124 130.774308 214.78198 130.774308 215.500153 
C 130.774308 216.218327 131.059641 216.907182 131.567467 217.415007 
C 132.075292 217.922833 132.764148 218.208166 133.482321 218.208166 
z
" style="fill:#ff0000;stroke:#ff0000;"/>
    <path clip-path="url(#pb5dc698a04)" d="M 116.324535 217.497385 
C 117.112743 217.497385 117.868774 217.184227 118.426122 216.62688 
C 118.983469 216.069532 119.296627 215.313501 119.296627 214.525293 
C 119.296627 213.737085 118.983469 212.981054 118.426122 212.423706 
C 117.868774 211.866359 117.112743 211.553201 116.324535 211.553201 
C 115.536327 211.553201 114.780296 211.866359 114.222948 212.423706 
C 113.665601 212.981054 113.352442 213.737085 113.352442 214.525293 
C 113.352442 215.313501 113.665601 216.069532 114.222948 216.62688 
C 114.780296 217.184227 115.536327 217.497385 116.324535 217.497385 
z
" style="fill:#ff0000;stroke:#ff0000;"/>
    <path clip-path="url(#pb5dc698a04)" d="M 99.219657 215.511329 
C 99.738896 215.511329 100.236937 215.305033 100.604095 214.937876 
C 100.971252 214.570719 101.177547 214.072677 101.177547 213.553439 
C 101.177547 213.0342 100.971252 212.536158 100.604095 212.169001 
C 100.236937 211.801844 99.738896 211.595549 99.219657 211.595549 
C 98.700419 211.595549 98.202377 211.801844 97.83522 212.169001 
C 97.468063 212.536158 97.261767 213.0342 97.261767 213.553439 
C 97.261767 214.072677 97.468063 214.570719 97.83522 214.937876 
C 98.202377 215.305033 98.700419 215.511329 99.219657 215.511329 
z
" style="fill:#ff0000;stroke:#ff0000;"/>
    <path clip-path="url(#pb5dc698a04)" d="M 82.167443 213.809322 
C 82.49225 213.809322 82.803796 213.680275 83.033469 213.450602 
C 83.263142 213.22093 83.392188 212.909383 83.392188 212.584577 
C 83.392188 212.259771 83.263142 211.948224 83.033469 211.718551 
C 82.803796 211.488879 82.49225 211.359832 82.167443 211.359832 
C 81.842637 211.359832 81.531091 211.488879 81.301418 211.718551 
C 81.071745 211.948224 80.942699 212.259771 80.942699 212.584577 
C 80.942699 212.909383 81.071745 213.22093 81.301418 213.450602 
C 81.531091 213.680275 81.842637 213.809322 82.167443 213.809322 
z
" style="fill:#ff0000;stroke:#ff0000;"/>
   </g>
   <g id="legend_1">
    <g id="patch_6">
     <path d="M 21.2 291.2 
L 294.2 291.2 
Q 297.2 291.2 297.2 288.2 
L 297.2 249.95 
Q 297.2 246.95 294.2 246.95 
L 21.2 246.95 
Q 18.2 246.95 18.2 249.95 
L 18.2 288.2 
Q 18.2 291.2 21.2 291.2 
z
" style="fill:#ffffff;opacity:0.8;stroke:#cccccc;stroke-linejoin:miter;"/>
    </g>
    <g id="Path3DCollection_3">
     <defs>
      <path d="M 0 3.593976 
C 0.953134 3.593976 1.867358 3.215292 2.541325 2.541325 
C 3.215292 1.867358 3.593976 0.953134 3.593976 0 
C 3.593976 -0.953134 3.215292 -1.867358 2.541325 -2.541325 
C 1.867358 -3.215292 0.953134 -3.593976 0 -3.593976 
C -0.953134 -3.593976 -1.867358 -3.215292 -2.541325 -2.541325 
C -3.215292 -1.867358 -3.593976 -0.953134 -3.593976 0 
C -3.593976 0.953134 -3.215292 1.867358 -2.541325 2.541325 
C -1.867358 3.215292 -0.953134 3.593976 0 3.593976 
z
" id="mdd6862bc6a" style="stroke:#ff0000;"/>
     </defs>
     <g>
      <use style="fill:#ff0000;stroke:#ff0000;" x="39.2" xlink:href="#mdd6862bc6a" y="259.5125"/>
     </g>
    </g>
    <g id="text_28">
     <!-- probability of absorbing state -->
     <defs>
      <path d="M 44.140625 23.828125 
Q 44.140625 12.5 38.671875 6.640625 
Q 33.203125 0.78125 25.390625 0.78125 
Q 21.09375 0.78125 17.96875 2.53125 
Q 14.84375 4.296875 12.5 7.8125 
L 12.5 -12.5 
L 4.6875 -12.5 
L 4.6875 45.703125 
L 12.5 45.703125 
L 12.5 39.84375 
Q 14.84375 43.359375 17.96875 44.921875 
Q 21.09375 46.484375 25.390625 46.484375 
Q 33.203125 46.484375 38.671875 40.8125 
Q 44.140625 35.15625 44.140625 23.828125 
z
M 35.546875 23.828125 
Q 35.546875 31.25 32.609375 35.34375 
Q 29.6875 39.453125 23.828125 39.453125 
Q 19.140625 39.453125 15.8125 35.34375 
Q 12.5 31.25 12.5 23.828125 
Q 12.5 16.40625 15.8125 12.109375 
Q 19.140625 7.8125 23.828125 7.8125 
Q 29.6875 7.8125 32.609375 12.109375 
Q 35.546875 16.40625 35.546875 23.828125 
z
" id="SimHei-70"/>
      <path d="M 39.0625 37.890625 
Q 31.640625 39.0625 26.5625 35.734375 
Q 21.484375 32.421875 17.96875 24.21875 
L 17.96875 1.953125 
L 10.15625 1.953125 
L 10.15625 45.703125 
L 17.96875 45.703125 
L 17.96875 34.375 
Q 21.484375 40.625 26.75 43.546875 
Q 32.03125 46.484375 39.0625 46.484375 
z
" id="SimHei-72"/>
      <path d="M 44.140625 23.828125 
Q 44.140625 12.5 38.671875 6.828125 
Q 33.203125 1.171875 25.390625 1.171875 
Q 21.09375 1.171875 17.96875 2.734375 
Q 14.84375 4.296875 12.5 7.8125 
L 12.5 1.953125 
L 4.6875 1.953125 
L 4.6875 68.75 
L 12.5 68.75 
L 12.5 39.84375 
Q 14.84375 43.359375 17.96875 45.109375 
Q 21.09375 46.875 25.390625 46.875 
Q 33.203125 46.875 38.671875 41.015625 
Q 44.140625 35.15625 44.140625 23.828125 
z
M 35.546875 23.828125 
Q 35.546875 31.25 32.609375 35.546875 
Q 29.6875 39.84375 23.828125 39.84375 
Q 19.140625 39.84375 15.8125 35.546875 
Q 12.5 31.25 12.5 23.828125 
Q 12.5 16.40625 15.8125 12.296875 
Q 19.140625 8.203125 23.828125 8.203125 
Q 29.6875 8.203125 32.609375 12.296875 
Q 35.546875 16.40625 35.546875 23.828125 
z
" id="SimHei-62"/>
      <path d="M 44.921875 1.953125 
L 35.546875 1.953125 
Q 34.765625 2.734375 34.375 4.09375 
Q 33.984375 5.46875 33.984375 7.421875 
Q 31.25 4.296875 27.34375 2.734375 
Q 23.4375 1.171875 19.140625 1.171875 
Q 12.890625 1.171875 8.59375 4.296875 
Q 4.296875 7.421875 4.296875 13.28125 
Q 4.296875 19.140625 8.203125 22.65625 
Q 12.109375 26.171875 20.3125 27.34375 
Q 25.78125 28.125 29.875 29.296875 
Q 33.984375 30.46875 33.984375 32.421875 
Q 33.984375 34.765625 32.21875 37.109375 
Q 30.46875 39.453125 24.609375 39.453125 
Q 19.921875 39.453125 17.765625 37.6875 
Q 15.625 35.9375 14.84375 32.8125 
L 6.25 32.8125 
Q 7.03125 39.0625 11.90625 42.765625 
Q 16.796875 46.484375 24.609375 46.484375 
Q 33.203125 46.484375 37.5 42.578125 
Q 41.796875 38.671875 41.796875 31.640625 
L 41.796875 10.15625 
Q 41.796875 7.8125 42.578125 5.859375 
Q 43.359375 3.90625 44.921875 1.953125 
z
M 33.984375 16.40625 
L 33.984375 24.21875 
Q 31.640625 23.4375 29.484375 22.84375 
Q 27.34375 22.265625 22.265625 21.484375 
Q 16.40625 20.703125 14.640625 18.75 
Q 12.890625 16.796875 12.890625 14.0625 
Q 12.890625 11.71875 14.640625 9.953125 
Q 16.40625 8.203125 19.921875 8.203125 
Q 23.4375 8.203125 27.53125 10.15625 
Q 31.640625 12.109375 33.984375 16.40625 
z
" id="SimHei-61"/>
      <path d="M 28.515625 1.953125 
L 20.703125 1.953125 
L 20.703125 68.75 
L 28.515625 68.75 
z
" id="SimHei-6c"/>
      <path d="M 42.96875 3.125 
Q 41.015625 2.34375 38.46875 1.75 
Q 35.9375 1.171875 31.640625 1.171875 
Q 24.609375 1.171875 20.3125 5.078125 
Q 16.015625 8.984375 16.015625 16.015625 
L 16.015625 39.453125 
L 2.734375 39.453125 
L 2.734375 45.703125 
L 16.015625 45.703125 
L 16.015625 60.9375 
L 23.828125 60.9375 
L 23.828125 45.703125 
L 39.84375 45.703125 
L 39.84375 39.453125 
L 23.828125 39.453125 
L 23.828125 15.625 
Q 23.828125 12.5 25.390625 10.34375 
Q 26.953125 8.203125 31.25 8.203125 
Q 35.546875 8.203125 38.28125 8.984375 
Q 41.015625 9.765625 42.96875 10.9375 
z
" id="SimHei-74"/>
      <path d="M 45.3125 45.703125 
L 27.34375 -1.5625 
Q 25.78125 -7.03125 22.65625 -9.765625 
Q 19.53125 -12.5 14.84375 -12.5 
Q 12.890625 -12.5 11.125 -12.296875 
Q 9.375 -12.109375 7.8125 -11.328125 
L 7.8125 -3.515625 
Q 9.375 -4.296875 10.9375 -4.6875 
Q 12.5 -5.078125 13.671875 -5.078125 
Q 16.796875 -5.078125 17.96875 -4.09375 
Q 19.140625 -3.125 20.3125 0.390625 
L 3.125 45.703125 
L 11.71875 45.703125 
L 24.21875 11.328125 
L 24.609375 11.328125 
L 36.71875 45.703125 
z
" id="SimHei-79"/>
      <path d="M 46.484375 39.0625 
Q 43.75 39.84375 41.203125 40.03125 
Q 38.671875 40.234375 35.9375 39.453125 
Q 37.109375 38.28125 37.890625 36.515625 
Q 38.671875 34.765625 38.671875 31.25 
Q 38.671875 24.609375 34.171875 20.3125 
Q 29.6875 16.015625 23.046875 16.015625 
Q 21.484375 16.015625 18.9375 16.59375 
Q 16.40625 17.1875 14.84375 17.96875 
Q 13.671875 17.1875 13.28125 16.40625 
Q 12.890625 15.625 12.890625 14.453125 
Q 12.890625 12.5 15.625 11.515625 
Q 18.359375 10.546875 25.390625 10.546875 
Q 36.71875 10.546875 40.8125 7.421875 
Q 44.921875 4.296875 44.921875 -0.390625 
Q 44.921875 -6.640625 38.859375 -9.5625 
Q 32.8125 -12.5 24.609375 -12.5 
Q 14.0625 -12.5 8.984375 -9.765625 
Q 3.90625 -7.03125 3.90625 -2.34375 
Q 3.90625 0 5.859375 2.34375 
Q 7.8125 4.6875 10.9375 6.25 
Q 8.59375 7.421875 7.21875 9.171875 
Q 5.859375 10.9375 5.859375 13.671875 
Q 5.859375 16.015625 7.609375 17.765625 
Q 9.375 19.53125 11.71875 20.703125 
Q 9.765625 22.65625 8.59375 25.390625 
Q 7.421875 28.125 7.421875 31.25 
Q 7.421875 37.890625 11.90625 42.1875 
Q 16.40625 46.484375 23.046875 46.484375 
Q 26.5625 46.484375 29.09375 45.5 
Q 31.640625 44.53125 33.59375 42.578125 
Q 36.71875 44.921875 39.84375 45.890625 
Q 42.96875 46.875 46.484375 46.484375 
z
M 30.859375 31.25 
Q 30.859375 35.15625 28.90625 37.5 
Q 26.953125 39.84375 23.046875 39.84375 
Q 19.140625 39.84375 17.1875 37.5 
Q 15.234375 35.15625 15.234375 31.25 
Q 15.234375 27.34375 17.1875 25 
Q 19.140625 22.65625 23.046875 22.65625 
Q 26.953125 22.65625 28.90625 25 
Q 30.859375 27.34375 30.859375 31.25 
z
M 37.5 -1.171875 
Q 37.5 0.390625 35.734375 1.953125 
Q 33.984375 3.515625 26.953125 3.515625 
Q 25.390625 3.515625 22.65625 3.703125 
Q 19.921875 3.90625 16.40625 4.296875 
Q 13.28125 3.125 12.109375 1.5625 
Q 10.9375 0 10.9375 -1.5625 
Q 10.9375 -3.90625 14.0625 -5.46875 
Q 17.1875 -7.03125 25 -7.03125 
Q 31.640625 -7.03125 34.5625 -5.265625 
Q 37.5 -3.515625 37.5 -1.171875 
z
" id="SimHei-67"/>
      <path d="M 44.53125 16.796875 
Q 43.75 9.765625 38.28125 5.46875 
Q 32.8125 1.171875 25.390625 1.171875 
Q 16.015625 1.171875 9.953125 7.21875 
Q 3.90625 13.28125 3.90625 23.828125 
Q 3.90625 34.375 9.953125 40.421875 
Q 16.015625 46.484375 25.390625 46.484375 
Q 33.59375 46.484375 38.859375 41.203125 
Q 44.140625 35.9375 44.140625 23.828125 
L 12.5 23.828125 
Q 12.5 15.234375 16.203125 11.71875 
Q 19.921875 8.203125 25.390625 8.203125 
Q 29.6875 8.203125 32.421875 10.34375 
Q 35.15625 12.5 35.9375 16.796875 
z
M 35.15625 30.078125 
Q 34.375 35.546875 31.640625 37.6875 
Q 28.90625 39.84375 24.609375 39.84375 
Q 20.703125 39.84375 17.578125 37.6875 
Q 14.453125 35.546875 12.890625 30.078125 
z
" id="SimHei-65"/>
     </defs>
     <g transform="translate(66.2 263.45)scale(0.15 -0.15)">
      <use xlink:href="#SimHei-70"/>
      <use x="50" xlink:href="#SimHei-72"/>
      <use x="100" xlink:href="#SimHei-6f"/>
      <use x="150" xlink:href="#SimHei-62"/>
      <use x="200" xlink:href="#SimHei-61"/>
      <use x="250" xlink:href="#SimHei-62"/>
      <use x="300" xlink:href="#SimHei-69"/>
      <use x="350" xlink:href="#SimHei-6c"/>
      <use x="400" xlink:href="#SimHei-69"/>
      <use x="450" xlink:href="#SimHei-74"/>
      <use x="500" xlink:href="#SimHei-79"/>
      <use x="550" xlink:href="#SimHei-20"/>
      <use x="600" xlink:href="#SimHei-6f"/>
      <use x="650" xlink:href="#SimHei-66"/>
      <use x="700" xlink:href="#SimHei-20"/>
      <use x="750" xlink:href="#SimHei-61"/>
      <use x="800" xlink:href="#SimHei-62"/>
      <use x="850" xlink:href="#SimHei-73"/>
      <use x="900" xlink:href="#SimHei-6f"/>
      <use x="950" xlink:href="#SimHei-72"/>
      <use x="1000" xlink:href="#SimHei-62"/>
      <use x="1050" xlink:href="#SimHei-69"/>
      <use x="1100" xlink:href="#SimHei-6e"/>
      <use x="1150" xlink:href="#SimHei-67"/>
      <use x="1200" xlink:href="#SimHei-20"/>
      <use x="1250" xlink:href="#SimHei-73"/>
      <use x="1300" xlink:href="#SimHei-74"/>
      <use x="1350" xlink:href="#SimHei-61"/>
      <use x="1400" xlink:href="#SimHei-74"/>
      <use x="1450" xlink:href="#SimHei-65"/>
     </g>
    </g>
    <g id="Path3DCollection_4">
     <g>
      <use style="fill:#008000;stroke:#008000;" x="39.2" xlink:href="#m4194c14398" y="279.3875"/>
     </g>
    </g>
    <g id="text_29">
     <!-- start state -->
     <g transform="translate(66.2 283.325)scale(0.15 -0.15)">
      <use xlink:href="#SimHei-73"/>
      <use x="50" xlink:href="#SimHei-74"/>
      <use x="100" xlink:href="#SimHei-61"/>
      <use x="150" xlink:href="#SimHei-72"/>
      <use x="200" xlink:href="#SimHei-74"/>
      <use x="250" xlink:href="#SimHei-20"/>
      <use x="300" xlink:href="#SimHei-73"/>
      <use x="350" xlink:href="#SimHei-74"/>
      <use x="400" xlink:href="#SimHei-61"/>
      <use x="450" xlink:href="#SimHei-74"/>
      <use x="500" xlink:href="#SimHei-65"/>
     </g>
    </g>
   </g>
  </g>
 </g>
 <defs>
  <clipPath id="pb5dc698a04">
   <rect height="288" width="360" x="10.7" y="10.7"/>
  </clipPath>
 </defs>
</svg>
