<?xml version="1.0" encoding="utf-8" standalone="no"?>
<!DOCTYPE svg PUBLIC "-//W3C//DTD SVG 1.1//EN"
  "http://www.w3.org/Graphics/SVG/1.1/DTD/svg11.dtd">
<!-- Created with matplotlib (http://matplotlib.org/) -->
<svg height="309.4pt" version="1.1" viewBox="0 0 381.4 309.4" width="381.4pt" xmlns="http://www.w3.org/2000/svg" xmlns:xlink="http://www.w3.org/1999/xlink">
 <defs>
  <style type="text/css">
*{stroke-linecap:butt;stroke-linejoin:round;}
  </style>
 </defs>
 <g id="figure_1">
  <g id="patch_1">
   <path d="M 0 309.4 
L 381.4 309.4 
L 381.4 0 
L 0 0 
z
" style="fill:none;"/>
  </g>
  <g id="patch_2">
   <path d="M 10.7 298.7 
L 370.7 298.7 
L 370.7 10.7 
L 10.7 10.7 
z
" style="fill:#ffffff;"/>
  </g>
  <g id="pane3d_1">
   <g id="patch_3">
    <path d="M 219.619567 185.462306 
L 335.768129 233.715199 
L 340.919918 79.597002 
L 220.435568 41.545085 
" style="fill:#f2f2f2;opacity:0.5;stroke:#f2f2f2;stroke-linejoin:miter;"/>
   </g>
  </g>
  <g id="pane3d_2">
   <g id="patch_4">
    <path d="M 219.619567 185.462306 
L 58.794045 217.8137 
L 53.895826 67.034254 
L 220.435568 41.545085 
" style="fill:#e6e6e6;opacity:0.5;stroke:#e6e6e6;stroke-linejoin:miter;"/>
   </g>
  </g>
  <g id="pane3d_3">
   <g id="patch_5">
    <path d="M 219.619567 185.462306 
L 58.794045 217.8137 
L 168.062833 271.631196 
L 335.768129 233.715199 
" style="fill:#ececec;opacity:0.5;stroke:#ececec;stroke-linejoin:miter;"/>
   </g>
  </g>
  <g id="axis3d_1">
   <g id="line2d_1">
    <path d="M 335.768129 233.715199 
L 168.062833 271.631196 
" style="fill:none;stroke:#000000;stroke-linecap:square;stroke-width:0.8;"/>
   </g>
   <g id="text_1">
    <!-- coins of 大熊 -->
    <defs>
     <path d="M 44.53125 19.53125 
Q 44.53125 11.328125 38.859375 6.25 
Q 33.203125 1.171875 24.609375 1.171875 
Q 16.015625 1.171875 9.765625 7.21875 
Q 3.515625 13.28125 3.515625 23.828125 
Q 3.515625 34.375 9.765625 40.421875 
Q 16.015625 46.484375 24.609375 46.484375 
Q 33.203125 46.484375 38.28125 41.984375 
Q 43.359375 37.5 43.359375 31.25 
L 34.765625 31.25 
Q 34.375 35.9375 31.4375 37.6875 
Q 28.515625 39.453125 24.609375 39.453125 
Q 19.921875 39.453125 16.015625 35.734375 
Q 12.109375 32.03125 12.109375 23.828125 
Q 12.109375 15.625 16.015625 11.90625 
Q 19.921875 8.203125 24.609375 8.203125 
Q 29.6875 8.203125 32.8125 10.9375 
Q 35.9375 13.671875 35.9375 19.53125 
z
" id="SimHei-63"/>
     <path d="M 45.703125 23.828125 
Q 45.703125 13.671875 39.453125 7.421875 
Q 33.203125 1.171875 24.609375 1.171875 
Q 16.015625 1.171875 9.765625 7.421875 
Q 3.515625 13.671875 3.515625 23.828125 
Q 3.515625 33.984375 9.765625 40.234375 
Q 16.015625 46.484375 24.609375 46.484375 
Q 33.203125 46.484375 39.453125 40.234375 
Q 45.703125 33.984375 45.703125 23.828125 
z
M 37.109375 23.828125 
Q 37.109375 31.640625 33.203125 35.546875 
Q 29.296875 39.453125 24.609375 39.453125 
Q 19.921875 39.453125 16.015625 35.546875 
Q 12.109375 31.640625 12.109375 23.828125 
Q 12.109375 16.015625 16.015625 12.109375 
Q 19.921875 8.203125 24.609375 8.203125 
Q 29.296875 8.203125 33.203125 12.109375 
Q 37.109375 16.015625 37.109375 23.828125 
z
" id="SimHei-6f"/>
     <path d="M 28.125 58.203125 
L 20.3125 58.203125 
L 20.3125 68.359375 
L 28.125 68.359375 
z
M 28.125 1.953125 
L 20.3125 1.953125 
L 20.3125 45.703125 
L 28.125 45.703125 
z
" id="SimHei-69"/>
     <path d="M 43.75 1.953125 
L 35.9375 1.953125 
L 35.9375 30.078125 
Q 35.9375 34.765625 33.59375 37.5 
Q 31.25 40.234375 27.34375 40.234375 
Q 22.265625 40.234375 17.765625 34.953125 
Q 13.28125 29.6875 13.28125 21.875 
L 13.28125 1.953125 
L 5.46875 1.953125 
L 5.46875 45.703125 
L 13.28125 45.703125 
L 13.28125 37.5 
Q 16.40625 41.796875 20.109375 44.140625 
Q 23.828125 46.484375 29.6875 46.484375 
Q 36.71875 46.484375 40.234375 42.578125 
Q 43.75 38.671875 43.75 32.8125 
z
" id="SimHei-6e"/>
     <path d="M 42.96875 14.0625 
Q 42.96875 7.8125 38.078125 4.484375 
Q 33.203125 1.171875 25.78125 1.171875 
Q 16.40625 1.171875 11.328125 4.875 
Q 6.25 8.59375 6.25 15.625 
L 14.0625 15.625 
Q 14.0625 10.9375 17.375 9.375 
Q 20.703125 7.8125 25.390625 7.8125 
Q 30.078125 7.8125 32.421875 9.5625 
Q 34.765625 11.328125 34.765625 14.0625 
Q 34.765625 16.015625 32.8125 17.96875 
Q 30.859375 19.921875 23.046875 21.09375 
Q 14.0625 22.265625 10.734375 25.578125 
Q 7.421875 28.90625 7.421875 34.375 
Q 7.421875 39.0625 11.90625 42.765625 
Q 16.40625 46.484375 25 46.484375 
Q 32.8125 46.484375 37.296875 42.96875 
Q 41.796875 39.453125 41.796875 33.59375 
L 33.984375 33.59375 
Q 33.984375 37.109375 31.4375 38.46875 
Q 28.90625 39.84375 25 39.84375 
Q 19.921875 39.84375 17.765625 38.078125 
Q 15.625 36.328125 15.625 33.984375 
Q 15.625 31.25 17.578125 29.6875 
Q 19.53125 28.125 25.78125 27.34375 
Q 35.9375 25.78125 39.453125 22.453125 
Q 42.96875 19.140625 42.96875 14.0625 
z
" id="SimHei-73"/>
     <path id="SimHei-20"/>
     <path d="M 44.53125 59.765625 
Q 42.578125 60.9375 39.84375 61.71875 
Q 37.109375 62.5 32.8125 62.5 
Q 28.515625 62.5 26.953125 60.34375 
Q 25.390625 58.203125 25.390625 55.078125 
L 25.390625 45.703125 
L 41.40625 45.703125 
L 41.40625 39.453125 
L 25.390625 39.453125 
L 25.390625 1.953125 
L 17.578125 1.953125 
L 17.578125 39.453125 
L 4.296875 39.453125 
L 4.296875 45.703125 
L 17.578125 45.703125 
L 17.578125 54.6875 
Q 17.578125 61.71875 21.875 65.625 
Q 26.171875 69.53125 33.203125 69.53125 
Q 37.5 69.53125 40.03125 68.9375 
Q 42.578125 68.359375 44.53125 67.578125 
z
" id="SimHei-66"/>
     <path d="M 45.3125 53.125 
Q 45.703125 66.796875 45.5 71.484375 
Q 45.3125 76.171875 44.921875 80.46875 
Q 49.609375 79.6875 55.46875 79.296875 
Q 54.296875 75.390625 53.703125 67.96875 
Q 53.125 60.546875 53.125 53.125 
L 73.046875 53.125 
Q 83.59375 53.125 92.578125 53.90625 
L 92.578125 45.3125 
Q 84.765625 45.703125 76.5625 45.703125 
L 53.515625 45.703125 
Q 55.078125 39.0625 58.984375 32.21875 
Q 62.890625 25.390625 66.984375 20.109375 
Q 71.09375 14.84375 78.3125 8.984375 
Q 85.546875 3.125 94.140625 -0.78125 
Q 91.015625 -3.125 87.890625 -8.59375 
Q 80.859375 -4.6875 74.015625 1.171875 
Q 67.1875 7.03125 60.34375 16.59375 
Q 53.515625 26.171875 50 34.375 
Q 46.875 25.78125 43.359375 20.109375 
Q 39.84375 14.453125 35.734375 9.765625 
Q 31.640625 5.078125 25.1875 0.390625 
Q 18.75 -4.296875 10.546875 -8.984375 
Q 7.421875 -4.296875 3.515625 -0.78125 
Q 11.71875 1.953125 19.71875 7.03125 
Q 27.734375 12.109375 32.8125 18.546875 
Q 37.890625 25 41.015625 32.03125 
Q 44.140625 39.0625 44.921875 45.703125 
L 23.4375 45.703125 
Q 14.0625 45.703125 8.59375 45.3125 
L 8.59375 53.90625 
Q 14.0625 53.515625 23.4375 53.125 
z
" id="SimHei-5927"/>
     <path d="M 49.609375 52.34375 
Q 49.21875 46.484375 49.21875 40.625 
L 49.21875 19.53125 
Q 49.21875 15.234375 46.484375 13.859375 
Q 43.75 12.5 34.765625 11.328125 
Q 33.59375 14.84375 31.640625 18.359375 
Q 38.671875 18.75 40.421875 18.9375 
Q 42.1875 19.140625 41.796875 23.4375 
L 18.359375 23.4375 
L 18.359375 12.5 
L 10.15625 12.5 
Q 10.546875 25 10.546875 33.59375 
Q 10.546875 42.1875 10.15625 52.34375 
L 49.609375 52.34375 
z
M 65.625 45.3125 
Q 65.234375 41.015625 65.234375 34.375 
Q 81.640625 38.671875 88.28125 43.359375 
Q 90.234375 39.453125 93.359375 36.71875 
Q 85.9375 34.765625 65.625 28.125 
L 65.625 23.046875 
Q 65.625 19.53125 70.703125 19.53125 
L 80.46875 19.53125 
Q 83.59375 19.53125 85.15625 20.890625 
Q 86.71875 22.265625 88.28125 28.125 
Q 92.1875 26.171875 96.875 25.390625 
Q 93.359375 17.1875 91.40625 15.234375 
Q 89.453125 13.28125 83.984375 13.28125 
L 65.234375 13.28125 
Q 57.03125 13.28125 57.03125 19.53125 
L 57.03125 37.5 
Q 57.03125 40.625 56.640625 45.3125 
L 65.625 45.3125 
z
M 92.578125 69.140625 
Q 78.515625 65.234375 64.84375 61.328125 
Q 64.84375 54.6875 68.359375 54.6875 
L 80.46875 54.6875 
Q 83.203125 54.6875 84.765625 56.4375 
Q 86.328125 58.203125 86.71875 62.5 
Q 90.234375 60.9375 94.921875 59.765625 
Q 92.96875 51.5625 90.421875 50.1875 
Q 87.890625 48.828125 82.8125 48.828125 
L 64.84375 48.828125 
Q 57.03125 48.828125 57.03125 54.296875 
L 57.03125 71.09375 
Q 57.03125 75.78125 56.640625 80.46875 
L 65.625 80.46875 
Q 65.234375 75.390625 65.234375 67.1875 
Q 78.515625 70.3125 86.328125 76.171875 
Q 88.671875 72.65625 92.578125 69.140625 
z
M 32.03125 78.125 
Q 24.609375 71.484375 16.40625 62.890625 
Q 22.65625 63.28125 40.625 65.234375 
Q 38.671875 67.578125 35.546875 70.703125 
Q 39.0625 72.265625 42.96875 74.21875 
Q 51.171875 63.28125 55.078125 58.59375 
Q 51.171875 57.03125 48.046875 54.6875 
L 44.53125 59.765625 
Q 42.578125 59.375 33.203125 58.59375 
Q 23.828125 57.8125 9.375 55.859375 
Q 7.421875 59.375 6.25 62.890625 
Q 10.15625 64.84375 14.640625 69.53125 
Q 19.140625 74.21875 23.4375 82.03125 
Q 27.734375 79.6875 32.03125 78.125 
z
M 41.796875 28.90625 
L 41.796875 35.546875 
L 18.359375 35.546875 
L 18.359375 28.90625 
z
M 20.3125 6.640625 
Q 17.1875 3.125 11.71875 -9.765625 
Q 6.640625 -7.8125 3.90625 -7.03125 
Q 6.640625 -1.5625 11.71875 8.984375 
Q 15.625 7.8125 20.3125 6.640625 
z
M 85.9375 10.15625 
Q 92.578125 -1.953125 94.140625 -5.46875 
Q 89.84375 -6.640625 86.328125 -8.59375 
Q 83.984375 -2.34375 78.515625 7.03125 
Q 81.25 8.203125 85.9375 10.15625 
z
M 41.796875 41.015625 
L 41.796875 46.875 
L 18.359375 46.875 
L 18.359375 41.015625 
z
M 62.890625 8.59375 
Q 65.625 -1.953125 66.40625 -5.859375 
L 58.59375 -7.421875 
Q 57.421875 -3.90625 55.46875 7.421875 
Q 58.59375 8.203125 62.890625 8.59375 
z
M 39.84375 7.421875 
Q 40.234375 3.90625 42.578125 -6.640625 
Q 38.671875 -6.640625 34.375 -7.8125 
Q 33.59375 -3.125 32.03125 6.640625 
Q 35.15625 7.421875 39.84375 7.421875 
z
" id="SimHei-718a"/>
    </defs>
    <g style="fill:#800080;" transform="translate(235.061813 295.570823)rotate(-12.739652)scale(0.12 -0.12)">
     <use xlink:href="#SimHei-63"/>
     <use x="50" xlink:href="#SimHei-6f"/>
     <use x="100" xlink:href="#SimHei-69"/>
     <use x="150" xlink:href="#SimHei-6e"/>
     <use x="200" xlink:href="#SimHei-73"/>
     <use x="250" xlink:href="#SimHei-20"/>
     <use x="300" xlink:href="#SimHei-6f"/>
     <use x="350" xlink:href="#SimHei-66"/>
     <use x="400" xlink:href="#SimHei-20"/>
     <use x="450" xlink:href="#SimHei-5927"/>
     <use x="550" xlink:href="#SimHei-718a"/>
    </g>
   </g>
   <g id="Line3DCollection_1">
    <path d="M 325.649087 236.002984 
L 209.876104 187.422284 
L 210.363217 43.086674 
" style="fill:none;stroke:#b0b0b0;stroke-width:0.8;"/>
    <path d="M 305.615951 240.532216 
L 190.60155 191.299522 
L 190.43149 46.137256 
" style="fill:none;stroke:#b0b0b0;stroke-width:0.8;"/>
    <path d="M 285.302458 245.124834 
L 171.077619 195.226923 
L 170.232989 49.228668 
" style="fill:none;stroke:#b0b0b0;stroke-width:0.8;"/>
    <path d="M 264.70268 249.782177 
L 151.299439 199.205469 
L 149.762321 52.361736 
" style="fill:none;stroke:#b0b0b0;stroke-width:0.8;"/>
    <path d="M 243.810523 254.505623 
L 131.262013 203.236164 
L 129.013948 55.537307 
" style="fill:none;stroke:#b0b0b0;stroke-width:0.8;"/>
    <path d="M 222.619718 259.29659 
L 110.960209 207.320041 
L 107.982181 58.756252 
" style="fill:none;stroke:#b0b0b0;stroke-width:0.8;"/>
    <path d="M 201.123814 264.156536 
L 90.38876 211.458159 
L 86.661174 62.019466 
" style="fill:none;stroke:#b0b0b0;stroke-width:0.8;"/>
    <path d="M 179.316176 269.086961 
L 69.542258 215.651607 
L 65.044918 65.327868 
" style="fill:none;stroke:#b0b0b0;stroke-width:0.8;"/>
   </g>
   <g id="xtick_1">
    <g id="line2d_2">
     <path d="M 324.648958 235.583309 
L 327.653217 236.843957 
" style="fill:none;stroke:#000000;stroke-linecap:square;stroke-width:0.8;"/>
    </g>
    <g id="text_2">
     <!-- 0 -->
     <defs>
      <path d="M 3.125 29.296875 
Q 3.90625 50 6.4375 56.046875 
Q 8.984375 62.109375 13.671875 66.015625 
Q 18.359375 69.921875 25.1875 69.921875 
Q 32.03125 69.921875 37.109375 64.25 
Q 42.1875 58.59375 43.75 50 
Q 45.3125 41.40625 44.71875 30.265625 
Q 44.140625 19.140625 40.8125 12.109375 
Q 37.5 5.078125 30.859375 2.34375 
Q 24.21875 -0.390625 17.578125 2.921875 
Q 10.9375 6.25 8.203125 11.71875 
Q 5.46875 17.1875 4.296875 23.234375 
Q 3.125 29.296875 3.90625 50 
z
M 12.890625 52.734375 
Q 10.546875 31.25 12.5 22.84375 
Q 14.453125 14.453125 18.9375 10.9375 
Q 23.4375 7.421875 28.125 9.5625 
Q 32.8125 11.71875 34.953125 18.15625 
Q 37.109375 24.609375 37.109375 32.21875 
Q 37.109375 39.84375 36.515625 46.09375 
Q 35.9375 52.34375 33 57.421875 
Q 30.078125 62.5 25.1875 62.6875 
Q 20.3125 62.890625 16.59375 57.8125 
Q 12.890625 52.734375 10.546875 31.25 
z
" id="SimHei-30"/>
     </defs>
     <g transform="translate(330.134125 260.095778)scale(0.15 -0.15)">
      <use xlink:href="#SimHei-30"/>
     </g>
    </g>
   </g>
   <g id="xtick_2">
    <g id="line2d_3">
     <path d="M 304.621865 240.106691 
L 307.607998 241.384926 
" style="fill:none;stroke:#000000;stroke-linecap:square;stroke-width:0.8;"/>
    </g>
    <g id="text_3">
     <!-- 2 -->
     <defs>
      <path d="M 4.6875 3.90625 
Q 5.078125 9.765625 10.15625 14.453125 
Q 15.234375 19.140625 23.046875 29.09375 
Q 30.859375 39.0625 33.203125 44.53125 
Q 35.546875 50 34.953125 53.90625 
Q 34.375 57.8125 31.25 60.34375 
Q 28.125 62.890625 24.015625 62.5 
Q 19.921875 62.109375 16.203125 59.375 
Q 12.5 56.640625 10.546875 51.171875 
L 3.125 52.34375 
Q 6.25 61.328125 11.125 65.421875 
Q 16.015625 69.53125 22.65625 69.921875 
Q 26.5625 70.3125 29.6875 69.71875 
Q 32.8125 69.140625 36.125 66.984375 
Q 39.453125 64.84375 41.59375 60.546875 
Q 43.75 56.25 43.15625 50.1875 
Q 42.578125 44.140625 37.109375 35.734375 
Q 31.640625 27.34375 16.015625 9.375 
L 44.140625 9.375 
L 44.140625 2.34375 
L 4.6875 2.34375 
z
" id="SimHei-32"/>
     </defs>
     <g transform="translate(310.096382 264.735082)scale(0.15 -0.15)">
      <use xlink:href="#SimHei-32"/>
     </g>
    </g>
   </g>
   <g id="xtick_3">
    <g id="line2d_4">
     <path d="M 284.314682 244.693335 
L 287.281886 245.989527 
" style="fill:none;stroke:#000000;stroke-linecap:square;stroke-width:0.8;"/>
    </g>
    <g id="text_4">
     <!-- 4 -->
     <defs>
      <path d="M 31.25 17.1875 
L 1.171875 17.1875 
L 1.171875 23.828125 
L 32.8125 69.53125 
L 38.671875 69.53125 
L 38.671875 23.828125 
L 48.046875 23.828125 
L 48.046875 17.1875 
L 38.671875 17.1875 
L 38.671875 2.34375 
L 31.25 2.34375 
z
M 31.25 23.828125 
L 31.25 54.6875 
L 9.375 23.828125 
z
" id="SimHei-34"/>
     </defs>
     <g transform="translate(289.777342 269.439513)scale(0.15 -0.15)">
      <use xlink:href="#SimHei-34"/>
     </g>
    </g>
   </g>
   <g id="xtick_4">
    <g id="line2d_5">
     <path d="M 263.721492 249.344577 
L 266.668935 250.659107 
" style="fill:none;stroke:#000000;stroke-linecap:square;stroke-width:0.8;"/>
    </g>
    <g id="text_5">
     <!-- 6 -->
     <defs>
      <path d="M 3.515625 19.53125 
Q 4.296875 30.859375 6.046875 34.765625 
Q 7.8125 38.671875 11.328125 44.53125 
L 27.34375 69.53125 
L 36.328125 69.53125 
L 19.921875 43.75 
Q 30.46875 46.484375 36.71875 42.96875 
Q 42.96875 39.453125 45.109375 34.953125 
Q 47.265625 30.46875 47.453125 25.1875 
Q 47.65625 19.921875 45.890625 14.84375 
Q 44.140625 9.765625 39.640625 5.65625 
Q 35.15625 1.5625 27.140625 1.171875 
Q 19.140625 0.78125 13.46875 4.09375 
Q 7.8125 7.421875 5.65625 13.46875 
Q 3.515625 19.53125 4.296875 30.859375 
z
M 12.5 16.015625 
Q 19.53125 8.59375 25.390625 8.203125 
Q 31.25 7.8125 35.15625 12.109375 
Q 39.0625 16.40625 39.0625 24.609375 
Q 39.0625 32.8125 34.171875 35.9375 
Q 29.296875 39.0625 23.234375 38.28125 
Q 17.1875 37.5 14.453125 32.421875 
Q 11.71875 27.34375 12.109375 21.671875 
Q 12.5 16.015625 19.53125 8.59375 
z
" id="SimHei-36"/>
     </defs>
     <g transform="translate(269.171041 274.210454)scale(0.15 -0.15)">
      <use xlink:href="#SimHei-36"/>
     </g>
    </g>
   </g>
   <g id="xtick_5">
    <g id="line2d_6">
     <path d="M 242.83621 254.061792 
L 245.763028 255.395052 
" style="fill:none;stroke:#000000;stroke-linecap:square;stroke-width:0.8;"/>
    </g>
    <g id="text_6">
     <!-- 8 -->
     <defs>
      <path d="M 2.734375 16.796875 
Q 2.734375 26.171875 5.078125 30.65625 
Q 7.421875 35.15625 12.890625 37.890625 
Q 8.203125 40.625 6.640625 43.9375 
Q 5.078125 47.265625 4.875 51.5625 
Q 4.6875 55.859375 6.046875 58.984375 
Q 7.421875 62.109375 10.15625 64.84375 
Q 12.890625 67.578125 16.203125 68.546875 
Q 19.53125 69.53125 23.4375 69.53125 
Q 27.34375 69.53125 30.46875 68.75 
Q 33.59375 67.96875 37.109375 65.421875 
Q 40.625 62.890625 42.1875 58.203125 
Q 43.75 53.515625 41.984375 47.265625 
Q 40.234375 41.015625 32.8125 37.5 
Q 39.453125 35.546875 42.1875 31.4375 
Q 44.921875 27.34375 44.921875 21.484375 
Q 44.921875 15.625 43.15625 12.109375 
Q 41.40625 8.59375 39.25 6.25 
Q 37.109375 3.90625 33.390625 2.53125 
Q 29.6875 1.171875 24.015625 1.171875 
Q 18.359375 1.171875 14.25 2.53125 
Q 10.15625 3.90625 7.421875 6.640625 
Q 4.6875 9.375 3.703125 13.078125 
Q 2.734375 16.796875 2.734375 26.171875 
z
M 10.9375 26.5625 
Q 10.546875 17.1875 12.296875 13.671875 
Q 14.0625 10.15625 18.75 9.171875 
Q 23.4375 8.203125 28.515625 9.375 
Q 33.59375 10.546875 35.546875 14.84375 
Q 37.5 19.140625 36.90625 23.4375 
Q 36.328125 27.734375 32.03125 30.65625 
Q 27.734375 33.59375 22.65625 33.203125 
Q 17.578125 32.8125 14.25 29.6875 
Q 10.9375 26.5625 10.546875 17.1875 
z
M 12.109375 56.25 
Q 12.109375 48.4375 14.84375 44.921875 
Q 17.578125 41.40625 23.4375 41.40625 
Q 29.296875 41.40625 32.21875 44.921875 
Q 35.15625 48.4375 34.953125 53.3125 
Q 34.765625 58.203125 31.4375 60.546875 
Q 28.125 62.890625 22.453125 62.5 
Q 16.796875 62.109375 14.453125 59.171875 
Q 12.109375 56.25 12.109375 48.4375 
z
" id="SimHei-38"/>
     </defs>
     <g transform="translate(248.271344 279.049324)scale(0.15 -0.15)">
      <use xlink:href="#SimHei-38"/>
     </g>
    </g>
   </g>
   <g id="xtick_6">
    <g id="line2d_7">
     <path d="M 221.652577 258.846394 
L 224.557878 260.198787 
" style="fill:none;stroke:#000000;stroke-linecap:square;stroke-width:0.8;"/>
    </g>
    <g id="text_7">
     <!-- 10 -->
     <defs>
      <path d="M 21.875 56.25 
Q 16.796875 51.171875 8.984375 46.484375 
L 8.984375 53.90625 
Q 18.75 60.546875 25 69.53125 
L 29.6875 69.53125 
L 29.6875 2.34375 
L 21.875 2.34375 
z
" id="SimHei-31"/>
     </defs>
     <g transform="translate(223.321939 283.957585)scale(0.15 -0.15)">
      <use xlink:href="#SimHei-31"/>
      <use x="50" xlink:href="#SimHei-30"/>
     </g>
    </g>
   </g>
   <g id="xtick_7">
    <g id="line2d_8">
     <path d="M 200.164153 263.699837 
L 203.047012 265.071778 
" style="fill:none;stroke:#000000;stroke-linecap:square;stroke-width:0.8;"/>
    </g>
    <g id="text_8">
     <!-- 12 -->
     <g transform="translate(201.816333 288.936741)scale(0.15 -0.15)">
      <use xlink:href="#SimHei-31"/>
      <use x="50" xlink:href="#SimHei-32"/>
     </g>
    </g>
   </g>
   <g id="xtick_8">
    <g id="line2d_9">
     <path d="M 178.364314 268.623617 
L 181.22377 270.015533 
" style="fill:none;stroke:#000000;stroke-linecap:square;stroke-width:0.8;"/>
    </g>
    <g id="text_9">
     <!-- 14 -->
     <g transform="translate(179.997844 293.988337)scale(0.15 -0.15)">
      <use xlink:href="#SimHei-31"/>
      <use x="50" xlink:href="#SimHei-34"/>
     </g>
    </g>
   </g>
  </g>
  <g id="axis3d_2">
   <g id="line2d_10">
    <path d="M 58.794045 217.8137 
L 168.062833 271.631196 
" style="fill:none;stroke:#000000;stroke-linecap:square;stroke-width:0.8;"/>
   </g>
   <g id="text_10">
    <!-- coins of 胖虎 -->
    <defs>
     <path d="M 21.484375 1.953125 
Q 25.78125 1.5625 28.515625 1.75 
Q 31.25 1.953125 31.640625 7.03125 
L 31.640625 26.171875 
L 18.359375 26.171875 
Q 16.796875 14.453125 14.453125 5.859375 
Q 12.109375 -2.734375 10.15625 -7.03125 
Q 6.640625 -3.90625 3.125 -2.734375 
Q 6.640625 2.734375 8.78125 10.34375 
Q 10.9375 17.96875 11.71875 30.859375 
L 11.71875 64.453125 
Q 11.71875 71.09375 11.328125 76.953125 
L 38.671875 76.953125 
Q 38.28125 69.140625 38.28125 61.328125 
L 38.28125 1.953125 
Q 38.28125 -6.25 23.4375 -7.03125 
Q 23.046875 -3.125 21.484375 1.953125 
z
M 64.453125 45.3125 
L 64.453125 69.140625 
Q 64.453125 73.828125 63.671875 79.296875 
L 72.265625 79.296875 
Q 71.875 74.21875 71.875 69.140625 
L 71.875 45.3125 
L 82.421875 45.3125 
Q 85.9375 45.3125 91.796875 45.703125 
L 91.796875 38.671875 
Q 88.28125 39.0625 82.421875 39.0625 
L 71.875 39.0625 
L 71.875 23.4375 
L 84.765625 23.4375 
Q 91.015625 23.4375 96.09375 23.828125 
L 96.09375 16.796875 
Q 90.234375 17.1875 84.765625 17.1875 
L 71.875 17.1875 
L 71.875 3.90625 
Q 71.875 -2.34375 72.265625 -8.984375 
L 64.0625 -8.984375 
Q 64.453125 -2.734375 64.453125 3.90625 
L 64.453125 17.1875 
L 53.90625 17.1875 
Q 48.4375 17.1875 42.578125 16.796875 
L 42.578125 23.828125 
Q 48.046875 23.4375 54.296875 23.4375 
L 64.453125 23.4375 
L 64.453125 39.0625 
L 53.90625 39.0625 
Q 48.4375 39.0625 43.359375 38.671875 
L 43.359375 45.703125 
Q 48.4375 45.3125 53.515625 45.3125 
z
M 31.640625 32.8125 
L 31.640625 48.828125 
L 18.75 48.828125 
L 18.75 32.8125 
z
M 31.640625 55.078125 
L 31.640625 70.703125 
L 18.75 70.703125 
L 18.75 55.078125 
z
M 51.5625 51.953125 
Q 50 58.984375 44.921875 71.09375 
L 51.171875 74.21875 
Q 55.859375 63.28125 58.59375 54.6875 
Q 54.296875 53.515625 51.5625 51.953125 
z
M 77.34375 53.90625 
Q 83.984375 67.96875 84.765625 73.4375 
Q 88.671875 71.875 92.578125 70.703125 
Q 90.625 67.96875 88.671875 62.890625 
Q 86.71875 57.8125 84.375 51.953125 
Q 80.859375 53.90625 77.34375 53.90625 
z
" id="SimHei-80d6"/>
     <path d="M 25.78125 45.703125 
Q 33.203125 46.09375 44.140625 46.875 
L 44.140625 56.640625 
L 20.703125 56.640625 
Q 20.703125 31.640625 20.109375 23.4375 
Q 19.53125 15.234375 17.578125 8 
Q 15.625 0.78125 10.9375 -7.8125 
Q 7.8125 -5.46875 3.125 -3.90625 
Q 7.03125 0.78125 9.171875 6.828125 
Q 11.328125 12.890625 12.109375 18.75 
Q 12.890625 24.609375 13.078125 30.265625 
Q 13.28125 35.9375 13.28125 42.96875 
Q 13.28125 50.390625 12.890625 62.5 
L 44.140625 62.5 
L 44.140625 74.609375 
Q 44.140625 77.34375 43.359375 82.421875 
L 51.953125 82.421875 
Q 51.5625 78.515625 51.5625 75.390625 
L 71.09375 75.390625 
Q 76.171875 75.390625 84.765625 76.171875 
L 84.765625 69.53125 
Q 76.171875 69.921875 70.703125 69.921875 
L 51.171875 69.921875 
L 51.171875 62.5 
L 93.75 62.5 
Q 92.1875 57.8125 89.84375 46.875 
Q 85.15625 48.046875 82.03125 48.4375 
Q 83.984375 52.734375 85.15625 56.640625 
L 51.171875 56.640625 
L 51.171875 47.65625 
Q 65.234375 49.21875 74.21875 50.78125 
L 75 44.140625 
Q 64.0625 42.96875 51.171875 41.40625 
L 51.171875 36.71875 
Q 51.171875 33.203125 57.421875 33.203125 
L 70.3125 33.203125 
Q 75 32.8125 76.359375 34.5625 
Q 77.734375 36.328125 78.515625 41.015625 
Q 81.640625 39.0625 86.71875 37.109375 
Q 84.765625 30.859375 82.03125 29.09375 
Q 79.296875 27.34375 73.828125 27.34375 
L 54.296875 27.34375 
Q 44.140625 27.34375 44.140625 33.59375 
L 44.140625 41.015625 
Q 36.328125 40.234375 27.34375 39.0625 
Q 26.5625 42.578125 25.78125 45.703125 
z
M 71.09375 22.265625 
Q 70.703125 16.796875 70.703125 10.9375 
L 70.703125 2.34375 
Q 70.703125 -1.953125 75 -1.953125 
L 81.25 -1.953125 
Q 85.9375 -1.953125 86.71875 0.78125 
Q 87.5 3.515625 87.5 7.421875 
Q 91.40625 5.078125 96.09375 4.296875 
Q 93.359375 -3.90625 91.59375 -5.859375 
Q 89.84375 -7.8125 85.15625 -7.8125 
L 72.65625 -7.8125 
Q 63.671875 -7.8125 63.671875 -1.171875 
L 63.671875 16.40625 
L 45.3125 16.40625 
Q 45.3125 4.6875 41.203125 -0.578125 
Q 37.109375 -5.859375 26.171875 -10.546875 
Q 25 -6.640625 21.484375 -3.515625 
Q 35.9375 0.78125 37.109375 7.421875 
Q 38.28125 14.0625 37.890625 22.265625 
L 71.09375 22.265625 
z
" id="SimHei-864e"/>
    </defs>
    <g style="fill:#800080;" transform="translate(49.092792 257.912399)rotate(-333.778649)scale(0.12 -0.12)">
     <use xlink:href="#SimHei-63"/>
     <use x="50" xlink:href="#SimHei-6f"/>
     <use x="100" xlink:href="#SimHei-69"/>
     <use x="150" xlink:href="#SimHei-6e"/>
     <use x="200" xlink:href="#SimHei-73"/>
     <use x="250" xlink:href="#SimHei-20"/>
     <use x="300" xlink:href="#SimHei-6f"/>
     <use x="350" xlink:href="#SimHei-66"/>
     <use x="400" xlink:href="#SimHei-20"/>
     <use x="450" xlink:href="#SimHei-80d6"/>
     <use x="550" xlink:href="#SimHei-864e"/>
    </g>
   </g>
   <g id="Line3DCollection_2">
    <path d="M 227.548604 43.791556 
L 226.494241 188.318329 
L 65.235235 220.98614 
" style="fill:none;stroke:#b0b0b0;stroke-width:0.8;"/>
    <path d="M 241.688876 48.257402 
L 240.154088 193.993191 
L 78.043534 227.294534 
" style="fill:none;stroke:#b0b0b0;stroke-width:0.8;"/>
    <path d="M 256.106644 52.810887 
L 254.072998 199.775679 
L 91.108144 233.729167 
" style="fill:none;stroke:#b0b0b0;stroke-width:0.8;"/>
    <path d="M 270.810156 57.454617 
L 268.25841 205.668883 
L 104.436836 240.293868 
" style="fill:none;stroke:#b0b0b0;stroke-width:0.8;"/>
    <path d="M 285.807992 62.191302 
L 282.718053 211.676014 
L 118.0377 246.992619 
" style="fill:none;stroke:#b0b0b0;stroke-width:0.8;"/>
    <path d="M 301.10908 67.023762 
L 297.459956 217.800407 
L 131.919157 253.829569 
" style="fill:none;stroke:#b0b0b0;stroke-width:0.8;"/>
    <path d="M 316.722709 71.95493 
L 312.492466 224.045531 
L 146.089982 260.80904 
" style="fill:none;stroke:#b0b0b0;stroke-width:0.8;"/>
    <path d="M 332.658556 76.987861 
L 327.824262 230.41499 
L 160.559317 267.935534 
" style="fill:none;stroke:#b0b0b0;stroke-width:0.8;"/>
   </g>
   <g id="xtick_9">
    <g id="line2d_11">
     <path d="M 66.594479 220.710784 
L 62.513215 221.537566 
" style="fill:none;stroke:#000000;stroke-linecap:square;stroke-width:0.8;"/>
    </g>
    <g id="text_11">
     <!-- 0 -->
     <g transform="translate(50.195232 243.623733)scale(0.15 -0.15)">
      <use xlink:href="#SimHei-30"/>
     </g>
    </g>
   </g>
   <g id="xtick_10">
    <g id="line2d_12">
     <path d="M 79.410645 227.013697 
L 75.305726 227.856945 
" style="fill:none;stroke:#000000;stroke-linecap:square;stroke-width:0.8;"/>
    </g>
    <g id="text_12">
     <!-- 2 -->
     <g transform="translate(62.908596 250.062791)scale(0.15 -0.15)">
      <use xlink:href="#SimHei-32"/>
     </g>
    </g>
   </g>
   <g id="xtick_11">
    <g id="line2d_13">
     <path d="M 92.483165 233.442684 
L 88.354458 234.302894 
" style="fill:none;stroke:#000000;stroke-linecap:square;stroke-width:0.8;"/>
    </g>
    <g id="text_13">
     <!-- 4 -->
     <g transform="translate(75.876714 256.630876)scale(0.15 -0.15)">
      <use xlink:href="#SimHei-34"/>
     </g>
    </g>
   </g>
   <g id="xtick_12">
    <g id="line2d_14">
     <path d="M 105.81981 240.001565 
L 101.667187 240.879255 
" style="fill:none;stroke:#000000;stroke-linecap:square;stroke-width:0.8;"/>
    </g>
    <g id="text_14">
     <!-- 6 -->
     <g transform="translate(89.10732 263.331906)scale(0.15 -0.15)">
      <use xlink:href="#SimHei-36"/>
     </g>
    </g>
   </g>
   <g id="xtick_13">
    <g id="line2d_15">
     <path d="M 119.428666 246.694319 
L 115.252006 247.590026 
" style="fill:none;stroke:#000000;stroke-linecap:square;stroke-width:0.8;"/>
    </g>
    <g id="text_15">
     <!-- 8 -->
     <g transform="translate(102.608465 270.169958)scale(0.15 -0.15)">
      <use xlink:href="#SimHei-38"/>
     </g>
    </g>
   </g>
   <g id="xtick_14">
    <g id="line2d_16">
     <path d="M 133.318153 253.525084 
L 129.117343 254.439371 
" style="fill:none;stroke:#000000;stroke-linecap:square;stroke-width:0.8;"/>
    </g>
    <g id="text_16">
     <!-- 10 -->
     <g transform="translate(112.638533 277.14928)scale(0.15 -0.15)">
      <use xlink:href="#SimHei-31"/>
      <use x="50" xlink:href="#SimHei-30"/>
     </g>
    </g>
   </g>
   <g id="xtick_15">
    <g id="line2d_17">
     <path d="M 147.497042 260.498176 
L 143.271977 261.431625 
" style="fill:none;stroke:#000000;stroke-linecap:square;stroke-width:0.8;"/>
    </g>
    <g id="text_17">
     <!-- 12 -->
     <g transform="translate(126.706257 284.274293)scale(0.15 -0.15)">
      <use xlink:href="#SimHei-31"/>
      <use x="50" xlink:href="#SimHei-32"/>
     </g>
    </g>
   </g>
   <g id="xtick_16">
    <g id="line2d_18">
     <path d="M 161.974472 267.618089 
L 157.725058 268.57131 
" style="fill:none;stroke:#000000;stroke-linecap:square;stroke-width:0.8;"/>
    </g>
    <g id="text_18">
     <!-- 14 -->
     <g transform="translate(141.07074 291.549608)scale(0.15 -0.15)">
      <use xlink:href="#SimHei-31"/>
      <use x="50" xlink:href="#SimHei-34"/>
     </g>
    </g>
   </g>
  </g>
  <g id="axis3d_3">
   <g id="line2d_19">
    <path d="M 58.794045 217.8137 
L 53.895826 67.034254 
" style="fill:none;stroke:#000000;stroke-linecap:square;stroke-width:0.8;"/>
   </g>
   <g id="text_19">
    <!-- coins of 静香 -->
    <defs>
     <path d="M 67.578125 78.90625 
Q 65.625 76.5625 64.640625 74.40625 
Q 63.671875 72.265625 62.890625 70.3125 
L 84.375 70.3125 
Q 82.03125 66.796875 80.078125 62.296875 
Q 78.125 57.8125 75.78125 52.734375 
L 90.234375 52.734375 
Q 89.84375 47.265625 89.84375 41.015625 
L 89.84375 36.71875 
Q 93.359375 36.71875 96.875 37.109375 
L 96.875 30.46875 
Q 94.140625 30.859375 89.84375 30.859375 
L 89.84375 25.390625 
Q 89.84375 17.578125 90.234375 10.546875 
L 83.203125 10.546875 
L 83.203125 14.84375 
L 72.265625 14.84375 
L 72.265625 0.390625 
Q 71.875 -4.6875 68.9375 -6.640625 
Q 66.015625 -8.59375 56.25 -9.375 
Q 56.25 -5.46875 53.90625 -1.171875 
Q 58.984375 -1.5625 62.296875 -1.171875 
Q 65.625 -0.78125 65.625 2.734375 
L 65.625 14.84375 
L 60.15625 14.84375 
Q 55.46875 14.84375 50.390625 14.453125 
L 50.390625 20.703125 
Q 55.078125 20.3125 60.15625 20.3125 
L 65.625 20.3125 
L 65.625 30.859375 
L 59.765625 30.859375 
Q 54.6875 30.859375 48.046875 30.46875 
L 48.046875 36.71875 
Q 53.515625 36.328125 60.15625 36.328125 
L 65.625 36.328125 
L 65.625 47.265625 
L 60.15625 47.265625 
Q 57.8125 47.265625 51.953125 46.875 
L 51.953125 51.953125 
Q 50.78125 50.78125 48.828125 48.4375 
Q 46.875 51.5625 44.140625 53.90625 
Q 50.390625 60.15625 53.703125 68.15625 
Q 57.03125 76.171875 58.984375 82.03125 
Q 62.890625 80.078125 67.578125 78.90625 
z
M 42.96875 36.328125 
Q 42.578125 30.859375 42.578125 25 
L 42.578125 1.171875 
Q 42.578125 -4.6875 39.453125 -6.25 
Q 36.328125 -7.8125 30.078125 -8.984375 
Q 29.6875 -5.46875 27.34375 -1.5625 
Q 36.328125 -1.5625 35.546875 1.953125 
L 35.546875 6.640625 
L 15.234375 6.640625 
L 15.234375 -8.203125 
L 8.203125 -8.203125 
Q 8.59375 -3.90625 8.59375 1.953125 
L 8.59375 25 
Q 8.59375 30.859375 8.203125 36.328125 
L 42.96875 36.328125 
z
M 21.875 71.09375 
Q 21.875 74.609375 21.484375 80.46875 
L 29.296875 80.46875 
Q 28.90625 74.609375 28.90625 71.09375 
L 33.984375 71.09375 
Q 39.453125 71.09375 46.875 71.484375 
L 46.875 65.234375 
Q 39.453125 65.625 33.984375 65.625 
L 28.90625 65.625 
L 28.90625 59.375 
L 33.984375 59.375 
Q 36.328125 59.375 42.578125 59.765625 
L 42.578125 53.515625 
Q 35.9375 53.90625 33.59375 53.90625 
L 28.90625 53.90625 
L 28.90625 47.65625 
L 35.15625 47.65625 
Q 40.625 47.65625 46.484375 48.046875 
L 46.484375 41.796875 
Q 40.234375 42.1875 35.15625 42.1875 
L 15.625 42.1875 
Q 9.375 42.1875 3.90625 41.796875 
L 3.90625 48.046875 
Q 9.375 47.65625 15.625 47.65625 
L 21.875 47.65625 
L 21.875 53.90625 
L 15.234375 53.90625 
Q 12.890625 53.90625 8.59375 53.515625 
L 8.59375 59.765625 
Q 12.890625 59.375 15.234375 59.375 
L 21.875 59.375 
L 21.875 65.625 
L 15.234375 65.625 
Q 10.15625 65.625 4.6875 65.234375 
L 4.6875 71.484375 
Q 10.15625 71.09375 15.234375 71.09375 
z
M 52.734375 53.515625 
Q 57.421875 53.125 64.453125 53.125 
L 68.359375 53.125 
Q 72.265625 61.328125 73.4375 64.84375 
L 60.15625 64.84375 
Q 55.078125 56.640625 52.734375 53.515625 
z
M 35.546875 12.109375 
L 35.546875 19.140625 
L 15.234375 19.140625 
L 15.234375 12.109375 
z
M 35.546875 24.609375 
L 35.546875 30.859375 
L 15.234375 30.859375 
L 15.234375 24.609375 
z
M 83.203125 36.328125 
L 83.203125 47.265625 
L 72.265625 47.265625 
L 72.265625 36.328125 
z
M 83.203125 20.3125 
L 83.203125 30.859375 
L 72.265625 30.859375 
L 72.265625 20.3125 
z
" id="SimHei-9759"/>
     <path d="M 45.703125 33.59375 
L 45.703125 53.90625 
Q 36.71875 44.140625 26.359375 38.28125 
Q 16.015625 32.421875 10.546875 30.078125 
Q 10.546875 33.203125 5.46875 36.71875 
Q 16.015625 39.453125 24.21875 44.53125 
Q 32.421875 49.609375 37.109375 54.296875 
L 21.484375 54.296875 
Q 14.84375 54.296875 7.8125 53.90625 
L 7.8125 60.15625 
Q 14.84375 59.765625 21.484375 59.765625 
L 45.703125 59.765625 
L 45.703125 69.921875 
Q 38.28125 69.140625 17.96875 67.578125 
Q 16.796875 71.09375 14.453125 74.609375 
Q 32.8125 74.609375 50.390625 76.953125 
Q 67.96875 79.296875 74.609375 82.03125 
Q 76.953125 78.125 81.25 73.828125 
Q 74.609375 73.4375 67.96875 72.65625 
Q 61.328125 71.875 52.34375 70.703125 
L 52.34375 59.765625 
L 78.125 59.765625 
Q 83.984375 59.765625 91.40625 60.15625 
L 91.40625 53.90625 
Q 84.375 54.296875 78.125 54.296875 
L 61.71875 54.296875 
Q 66.40625 48.4375 74.21875 43.15625 
Q 82.03125 37.890625 94.140625 34.765625 
Q 89.84375 31.640625 88.28125 26.953125 
Q 82.421875 29.296875 77.34375 32.03125 
Q 76.5625 25 76.5625 12.5 
Q 76.5625 -0.78125 76.953125 -8.984375 
L 69.53125 -8.984375 
L 69.53125 -3.125 
L 28.515625 -3.125 
L 28.515625 -9.375 
L 21.875 -9.375 
L 21.875 11.71875 
Q 21.875 25 21.484375 33.59375 
z
M 69.53125 17.96875 
L 69.53125 27.734375 
L 28.515625 27.734375 
L 28.515625 17.96875 
z
M 69.53125 2.734375 
L 69.53125 12.5 
L 28.515625 12.5 
L 28.515625 2.734375 
z
M 71.484375 35.9375 
Q 62.109375 42.578125 52.734375 54.296875 
L 52.34375 54.296875 
L 52.34375 33.59375 
L 75 33.59375 
z
" id="SimHei-9999"/>
    </defs>
    <g style="fill:#800080;" transform="translate(10.565293 102.842551)rotate(-271.860655)scale(0.12 -0.12)">
     <use xlink:href="#SimHei-63"/>
     <use x="50" xlink:href="#SimHei-6f"/>
     <use x="100" xlink:href="#SimHei-69"/>
     <use x="150" xlink:href="#SimHei-6e"/>
     <use x="200" xlink:href="#SimHei-73"/>
     <use x="250" xlink:href="#SimHei-20"/>
     <use x="300" xlink:href="#SimHei-6f"/>
     <use x="350" xlink:href="#SimHei-66"/>
     <use x="400" xlink:href="#SimHei-20"/>
     <use x="450" xlink:href="#SimHei-9759"/>
     <use x="550" xlink:href="#SimHei-9999"/>
    </g>
   </g>
   <g id="Line3DCollection_3">
    <path d="M 58.492454 208.529967 
L 219.669895 176.585888 
L 336.085066 224.233899 
" style="fill:none;stroke:#b0b0b0;stroke-width:0.8;"/>
    <path d="M 57.897709 190.222231 
L 219.769111 159.08724 
L 336.710174 205.533478 
" style="fill:none;stroke:#b0b0b0;stroke-width:0.8;"/>
    <path d="M 57.297781 171.754931 
L 219.869148 141.443949 
L 337.340869 186.665935 
" style="fill:none;stroke:#b0b0b0;stroke-width:0.8;"/>
    <path d="M 56.692601 153.125973 
L 219.970014 123.654212 
L 337.977226 167.629019 
" style="fill:none;stroke:#b0b0b0;stroke-width:0.8;"/>
    <path d="M 56.0821 134.333224 
L 220.071722 105.716199 
L 338.619321 148.42044 
" style="fill:none;stroke:#b0b0b0;stroke-width:0.8;"/>
    <path d="M 55.466207 115.374514 
L 220.17428 87.628049 
L 339.267233 129.037865 
" style="fill:none;stroke:#b0b0b0;stroke-width:0.8;"/>
    <path d="M 54.844852 96.247636 
L 220.277701 69.387869 
L 339.92104 109.478918 
" style="fill:none;stroke:#b0b0b0;stroke-width:0.8;"/>
    <path d="M 54.21796 76.950341 
L 220.381995 50.993734 
L 340.580823 89.741182 
" style="fill:none;stroke:#b0b0b0;stroke-width:0.8;"/>
   </g>
   <g id="xtick_17">
    <g id="line2d_20">
     <path d="M 59.850818 208.26075 
L 55.772207 209.069099 
" style="fill:none;stroke:#000000;stroke-linecap:square;stroke-width:0.8;"/>
    </g>
    <g id="text_20">
     <!-- 0 -->
     <g transform="translate(36.319991 217.800274)scale(0.15 -0.15)">
      <use xlink:href="#SimHei-30"/>
     </g>
    </g>
   </g>
   <g id="xtick_18">
    <g id="line2d_21">
     <path d="M 59.262222 189.959775 
L 55.165133 190.747826 
" style="fill:none;stroke:#000000;stroke-linecap:square;stroke-width:0.8;"/>
    </g>
    <g id="text_21">
     <!-- 2 -->
     <g transform="translate(35.646444 199.518717)scale(0.15 -0.15)">
      <use xlink:href="#SimHei-32"/>
     </g>
    </g>
   </g>
   <g id="xtick_19">
    <g id="line2d_22">
     <path d="M 58.668498 171.499365 
L 54.552763 172.266732 
" style="fill:none;stroke:#000000;stroke-linecap:square;stroke-width:0.8;"/>
    </g>
    <g id="text_22">
     <!-- 4 -->
     <g transform="translate(34.967036 181.078092)scale(0.15 -0.15)">
      <use xlink:href="#SimHei-34"/>
     </g>
    </g>
   </g>
   <g id="xtick_20">
    <g id="line2d_23">
     <path d="M 58.069579 152.877427 
L 53.935029 153.623718 
" style="fill:none;stroke:#000000;stroke-linecap:square;stroke-width:0.8;"/>
    </g>
    <g id="text_23">
     <!-- 6 -->
     <g transform="translate(34.281691 162.476316)scale(0.15 -0.15)">
      <use xlink:href="#SimHei-36"/>
     </g>
    </g>
   </g>
   <g id="xtick_21">
    <g id="line2d_24">
     <path d="M 57.465397 134.091831 
L 53.311858 134.816645 
" style="fill:none;stroke:#000000;stroke-linecap:square;stroke-width:0.8;"/>
    </g>
    <g id="text_24">
     <!-- 8 -->
     <g transform="translate(33.590331 143.711265)scale(0.15 -0.15)">
      <use xlink:href="#SimHei-38"/>
     </g>
    </g>
   </g>
   <g id="xtick_22">
    <g id="line2d_25">
     <path d="M 56.855881 115.140412 
L 52.683179 115.843338 
" style="fill:none;stroke:#000000;stroke-linecap:square;stroke-width:0.8;"/>
    </g>
    <g id="text_25">
     <!-- 10 -->
     <g transform="translate(29.142875 124.780781)scale(0.15 -0.15)">
      <use xlink:href="#SimHei-31"/>
      <use x="50" xlink:href="#SimHei-30"/>
     </g>
    </g>
   </g>
   <g id="xtick_23">
    <g id="line2d_26">
     <path d="M 56.240962 96.020962 
L 52.048919 96.701585 
" style="fill:none;stroke:#000000;stroke-linecap:square;stroke-width:0.8;"/>
    </g>
    <g id="text_26">
     <!-- 12 -->
     <g transform="translate(28.439244 105.682667)scale(0.15 -0.15)">
      <use xlink:href="#SimHei-31"/>
      <use x="50" xlink:href="#SimHei-32"/>
     </g>
    </g>
   </g>
   <g id="xtick_24">
    <g id="line2d_27">
     <path d="M 55.620566 76.731239 
L 51.409002 77.389131 
" style="fill:none;stroke:#000000;stroke-linecap:square;stroke-width:0.8;"/>
    </g>
    <g id="text_27">
     <!-- 14 -->
     <g transform="translate(27.729354 86.414686)scale(0.15 -0.15)">
      <use xlink:href="#SimHei-31"/>
      <use x="50" xlink:href="#SimHei-34"/>
     </g>
    </g>
   </g>
  </g>
  <g id="axes_1">
   <g id="Path3DCollection_1">
    <defs>
     <path d="M 0 5 
C 1.326016 5 2.597899 4.473168 3.535534 3.535534 
C 4.473168 2.597899 5 1.326016 5 0 
C 5 -1.326016 4.473168 -2.597899 3.535534 -3.535534 
C 2.597899 -4.473168 1.326016 -5 0 -5 
C -1.326016 -5 -2.597899 -4.473168 -3.535534 -3.535534 
C -4.473168 -2.597899 -5 -1.326016 -5 0 
C -5 1.326016 -4.473168 2.597899 -3.535534 3.535534 
C -2.597899 4.473168 -1.326016 5 0 5 
z
" id="mc4be5525a5" style="stroke:#008000;"/>
    </defs>
    <g clip-path="url(#p38f197a024)">
     <use style="fill:#008000;stroke:#008000;" x="212.11679" xlink:href="#mc4be5525a5" y="148.779619"/>
    </g>
   </g>
   <g id="Path3DCollection_2">
    <path clip-path="url(#p38f197a024)" d="M 224.398551 58.499589 
C 224.757637 58.499589 225.102065 58.356923 225.355978 58.10301 
C 225.609891 57.849098 225.752557 57.50467 225.752557 57.145583 
C 225.752557 56.786496 225.609891 56.442069 225.355978 56.188156 
C 225.102065 55.934243 224.757637 55.791577 224.398551 55.791577 
C 224.039464 55.791577 223.695036 55.934243 223.441124 56.188156 
C 223.187211 56.442069 223.044544 56.786496 223.044544 57.145583 
C 223.044544 57.50467 223.187211 57.849098 223.441124 58.10301 
C 223.695036 58.356923 224.039464 58.499589 224.398551 58.499589 
z
" style="fill:#ff0000;stroke:#ff0000;"/>
    <path clip-path="url(#p38f197a024)" d="M 231.385035 71.425094 
C 232.078293 71.425094 232.74325 71.149659 233.233457 70.659452 
C 233.723665 70.169244 233.999099 69.504287 233.999099 68.811029 
C 233.999099 68.117771 233.723665 67.452814 233.233457 66.962606 
C 232.74325 66.472399 232.078293 66.196965 231.385035 66.196965 
C 230.691777 66.196965 230.026819 66.472399 229.536612 66.962606 
C 229.046405 67.452814 228.77097 68.117771 228.77097 68.811029 
C 228.77097 69.504287 229.046405 70.169244 229.536612 70.659452 
C 230.026819 71.149659 230.691777 71.425094 231.385035 71.425094 
z
" style="fill:#ff0000;stroke:#ff0000;"/>
    <path clip-path="url(#p38f197a024)" d="M 238.409492 83.7284 
C 239.255097 83.7284 240.066183 83.392437 240.664116 82.794504 
C 241.26205 82.19657 241.598013 81.385485 241.598013 80.539879 
C 241.598013 79.694273 241.26205 78.883188 240.664116 78.285254 
C 240.066183 77.687321 239.255097 77.351358 238.409492 77.351358 
C 237.563886 77.351358 236.7528 77.687321 236.154867 78.285254 
C 235.556933 78.883188 235.22097 79.694273 235.22097 80.539879 
C 235.22097 81.385485 235.556933 82.19657 236.154867 82.794504 
C 236.7528 83.392437 237.563886 83.7284 238.409492 83.7284 
z
" style="fill:#ff0000;stroke:#ff0000;"/>
    <path clip-path="url(#p38f197a024)" d="M 245.472232 96.614395 
C 246.607763 96.614395 247.69694 96.163244 248.499882 95.360301 
C 249.302824 94.557359 249.753976 93.468183 249.753976 92.332651 
C 249.753976 91.197119 249.302824 90.107943 248.499882 89.305001 
C 247.69694 88.502058 246.607763 88.050907 245.472232 88.050907 
C 244.3367 88.050907 243.247523 88.502058 242.444581 89.305001 
C 241.641639 90.107943 241.190487 91.197119 241.190487 92.332651 
C 241.190487 93.468183 241.641639 94.557359 242.444581 95.360301 
C 243.247523 96.163244 244.3367 96.614395 245.472232 96.614395 
z
" style="fill:#ff0000;stroke:#ff0000;"/>
    <path clip-path="url(#p38f197a024)" d="M 252.573569 109.223092 
C 253.908395 109.223092 255.18873 108.69276 256.132595 107.748895 
C 257.07646 106.80503 257.606792 105.524695 257.606792 104.189869 
C 257.606792 102.855043 257.07646 101.574708 256.132595 100.630843 
C 255.18873 99.686978 253.908395 99.156646 252.573569 99.156646 
C 251.238742 99.156646 249.958407 99.686978 249.014543 100.630843 
C 248.070678 101.574708 247.540346 102.855043 247.540346 104.189869 
C 247.540346 105.524695 248.070678 106.80503 249.014543 107.748895 
C 249.958407 108.69276 251.238742 109.223092 252.573569 109.223092 
z
" style="fill:#ff0000;stroke:#ff0000;"/>
    <path clip-path="url(#p38f197a024)" d="M 259.71382 121.419291 
C 261.121313 121.419291 262.471349 120.860088 263.466597 119.86484 
C 264.461845 118.869592 265.021048 117.519556 265.021048 116.112063 
C 265.021048 114.70457 264.461845 113.354534 263.466597 112.359286 
C 262.471349 111.364038 261.121313 110.804835 259.71382 110.804835 
C 258.306327 110.804835 256.956291 111.364038 255.961043 112.359286 
C 254.965795 113.354534 254.406592 114.70457 254.406592 116.112063 
C 254.406592 117.519556 254.965795 118.869592 255.961043 119.86484 
C 256.956291 120.860088 258.306327 121.419291 259.71382 121.419291 
z
" style="fill:#ff0000;stroke:#ff0000;"/>
    <path clip-path="url(#p38f197a024)" d="M 266.893307 133.438308 
C 268.309104 133.438308 269.667104 132.875806 270.668224 131.874686 
C 271.669344 130.873566 272.231846 129.515566 272.231846 128.099769 
C 272.231846 126.683972 271.669344 125.325971 270.668224 124.324852 
C 269.667104 123.323732 268.309104 122.76123 266.893307 122.76123 
C 265.47751 122.76123 264.119509 123.323732 263.11839 124.324852 
C 262.11727 125.325971 261.554768 126.683972 261.554768 128.099769 
C 261.554768 129.515566 262.11727 130.873566 263.11839 131.874686 
C 264.119509 132.875806 265.47751 133.438308 266.893307 133.438308 
z
" style="fill:#ff0000;stroke:#ff0000;"/>
    <path clip-path="url(#p38f197a024)" d="M 274.112353 145.397571 
C 275.503089 145.397571 276.837052 144.845026 277.820452 143.861626 
C 278.803851 142.878227 279.356397 141.544264 279.356397 140.153527 
C 279.356397 138.76279 278.803851 137.428827 277.820452 136.445428 
C 276.837052 135.462029 275.503089 134.909483 274.112353 134.909483 
C 272.721616 134.909483 271.387653 135.462029 270.404253 136.445428 
C 269.420854 137.428827 268.868308 138.76279 268.868308 140.153527 
C 268.868308 141.544264 269.420854 142.878227 270.404253 143.861626 
C 271.387653 144.845026 272.721616 145.397571 274.112353 145.397571 
z
" style="fill:#ff0000;stroke:#ff0000;"/>
    <path clip-path="url(#p38f197a024)" d="M 281.371286 157.05231 
C 282.638539 157.05231 283.854059 156.548825 284.750142 155.652742 
C 285.646225 154.756659 286.14971 153.541139 286.14971 152.273886 
C 286.14971 151.006633 285.646225 149.791113 284.750142 148.89503 
C 283.854059 147.998947 282.638539 147.495462 281.371286 147.495462 
C 280.104033 147.495462 278.888513 147.998947 277.99243 148.89503 
C 277.096347 149.791113 276.592862 151.006633 276.592862 152.273886 
C 276.592862 153.541139 277.096347 154.756659 277.99243 155.652742 
C 278.888513 156.548825 280.104033 157.05231 281.371286 157.05231 
z
" style="fill:#ff0000;stroke:#ff0000;"/>
    <path clip-path="url(#p38f197a024)" d="M 288.670438 168.858367 
C 289.836527 168.858367 290.955014 168.395075 291.779564 167.570525 
C 292.604114 166.745975 293.067406 165.627488 293.067406 164.461399 
C 293.067406 163.295309 292.604114 162.176822 291.779564 161.352272 
C 290.955014 160.527722 289.836527 160.06443 288.670438 160.06443 
C 287.504348 160.06443 286.385861 160.527722 285.561311 161.352272 
C 284.736761 162.176822 284.273469 163.295309 284.273469 164.461399 
C 284.273469 165.627488 284.736761 166.745975 285.561311 167.570525 
C 286.385861 168.395075 287.504348 168.858367 288.670438 168.858367 
z
" style="fill:#ff0000;stroke:#ff0000;"/>
    <path clip-path="url(#p38f197a024)" d="M 296.010143 180.10779 
C 296.909491 180.10779 297.772125 179.750475 298.408059 179.114541 
C 299.043994 178.478606 299.401308 177.615972 299.401308 176.716625 
C 299.401308 175.817277 299.043994 174.954644 298.408059 174.318709 
C 297.772125 173.682774 296.909491 173.32546 296.010143 173.32546 
C 295.110796 173.32546 294.248162 173.682774 293.612228 174.318709 
C 292.976293 174.954644 292.618978 175.817277 292.618978 176.716625 
C 292.618978 177.615972 292.976293 178.478606 293.612228 179.114541 
C 294.248162 179.750475 295.110796 180.10779 296.010143 180.10779 
z
" style="fill:#ff0000;stroke:#ff0000;"/>
    <path clip-path="url(#p38f197a024)" d="M 303.390742 191.778743 
C 304.117031 191.778743 304.81367 191.490186 305.327234 190.976622 
C 305.840797 190.463059 306.129355 189.766419 306.129355 189.04013 
C 306.129355 188.313842 305.840797 187.617202 305.327234 187.103639 
C 304.81367 186.590075 304.117031 186.301518 303.390742 186.301518 
C 302.664453 186.301518 301.967814 186.590075 301.45425 187.103639 
C 300.940687 187.617202 300.652129 188.313842 300.652129 189.04013 
C 300.652129 189.766419 300.940687 190.463059 301.45425 190.976622 
C 301.967814 191.490186 302.664453 191.778743 303.390742 191.778743 
z
" style="fill:#ff0000;stroke:#ff0000;"/>
    <path clip-path="url(#p38f197a024)" d="M 310.812576 203.303316 
C 311.308726 203.303316 311.784621 203.106194 312.135452 202.755363 
C 312.486283 202.404533 312.683405 201.928637 312.683405 201.432488 
C 312.683405 200.936338 312.486283 200.460443 312.135452 200.109612 
C 311.784621 199.758781 311.308726 199.561659 310.812576 199.561659 
C 310.316427 199.561659 309.840531 199.758781 309.489701 200.109612 
C 309.13887 200.460443 308.941747 200.936338 308.941747 201.432488 
C 308.941747 201.928637 309.13887 202.404533 309.489701 202.755363 
C 309.840531 203.106194 310.316427 203.303316 310.812576 203.303316 
z
" style="fill:#ff0000;stroke:#ff0000;"/>
    <path clip-path="url(#p38f197a024)" d="M 318.275992 214.894275 
C 318.541195 214.894275 318.795572 214.788909 318.983099 214.601382 
C 319.170626 214.413855 319.275992 214.159478 319.275992 213.894275 
C 319.275992 213.629072 319.170626 213.374695 318.983099 213.187168 
C 318.795572 212.999642 318.541195 212.894275 318.275992 212.894275 
C 318.010789 212.894275 317.756413 212.999642 317.568886 213.187168 
C 317.381359 213.374695 317.275992 213.629072 317.275992 213.894275 
C 317.275992 214.159478 317.381359 214.413855 317.568886 214.601382 
C 317.756413 214.788909 318.010789 214.894275 318.275992 214.894275 
z
" style="fill:#ff0000;stroke:#ff0000;"/>
    <path clip-path="url(#p38f197a024)" d="M 207.466343 58.301534 
C 207.962492 58.301534 208.438388 58.104411 208.789219 57.753581 
C 209.140049 57.40275 209.337172 56.926854 209.337172 56.430705 
C 209.337172 55.934555 209.140049 55.45866 208.789219 55.107829 
C 208.438388 54.756998 207.962492 54.559876 207.466343 54.559876 
C 206.970193 54.559876 206.494298 54.756998 206.143467 55.107829 
C 205.792637 55.45866 205.595514 55.934555 205.595514 56.430705 
C 205.595514 56.926854 205.792637 57.40275 206.143467 57.753581 
C 206.494298 58.104411 206.970193 58.301534 207.466343 58.301534 
z
" style="fill:#ff0000;stroke:#ff0000;"/>
    <path clip-path="url(#p38f197a024)" d="M 197.459219 69.990017 
C 198.16088 69.990017 198.833898 69.711244 199.330047 69.215095 
C 199.826197 68.718945 200.10497 68.045927 200.10497 67.344266 
C 200.10497 66.642604 199.826197 65.969587 199.330047 65.473437 
C 198.833898 64.977288 198.16088 64.698515 197.459219 64.698515 
C 196.757557 64.698515 196.08454 64.977288 195.58839 65.473437 
C 195.092241 65.969587 194.813467 66.642604 194.813467 67.344266 
C 194.813467 68.045927 195.092241 68.718945 195.58839 69.215095 
C 196.08454 69.711244 196.757557 69.990017 197.459219 69.990017 
z
" style="fill:#ff0000;stroke:#ff0000;"/>
    <path clip-path="url(#p38f197a024)" d="M 187.428275 81.524174 
C 188.287632 81.524174 189.111907 81.182748 189.719563 80.575092 
C 190.32722 79.967435 190.668646 79.14316 190.668646 78.283804 
C 190.668646 77.424447 190.32722 76.600173 189.719563 75.992516 
C 189.111907 75.384859 188.287632 75.043433 187.428275 75.043433 
C 186.568919 75.043433 185.744644 75.384859 185.136988 75.992516 
C 184.529331 76.600173 184.187905 77.424447 184.187905 78.283804 
C 184.187905 79.14316 184.529331 79.967435 185.136988 80.575092 
C 185.744644 81.182748 186.568919 81.524174 187.428275 81.524174 
z
" style="fill:#ff0000;stroke:#ff0000;"/>
    <path clip-path="url(#p38f197a024)" d="M 177.373428 93.057298 
C 178.383291 93.057298 179.351929 92.656075 180.06601 91.941994 
C 180.780091 91.227912 181.181314 90.259274 181.181314 89.249411 
C 181.181314 88.239548 180.780091 87.27091 180.06601 86.556829 
C 179.351929 85.842748 178.383291 85.441525 177.373428 85.441525 
C 176.363564 85.441525 175.394926 85.842748 174.680845 86.556829 
C 173.966764 87.27091 173.565541 88.239548 173.565541 89.249411 
C 173.565541 90.259274 173.966764 91.227912 174.680845 91.941994 
C 175.394926 92.656075 176.363564 93.057298 177.373428 93.057298 
z
" style="fill:#ff0000;stroke:#ff0000;"/>
    <path clip-path="url(#p38f197a024)" d="M 167.29459 104.750431 
C 168.490457 104.750431 169.637505 104.275308 170.483111 103.429703 
C 171.328717 102.584097 171.80384 101.437049 171.80384 100.241182 
C 171.80384 99.045315 171.328717 97.898266 170.483111 97.05266 
C 169.637505 96.207055 168.490457 95.731932 167.29459 95.731932 
C 166.098723 95.731932 164.951675 96.207055 164.106069 97.05266 
C 163.260463 97.898266 162.78534 99.045315 162.78534 100.241182 
C 162.78534 101.437049 163.260463 102.584097 164.106069 103.429703 
C 164.951675 104.275308 166.098723 104.750431 167.29459 104.750431 
z
" style="fill:#ff0000;stroke:#ff0000;"/>
    <path clip-path="url(#p38f197a024)" d="M 157.191676 115.675089 
C 158.362782 115.675089 159.486079 115.209804 160.314175 114.381708 
C 161.142272 113.553611 161.607557 112.430314 161.607557 111.259209 
C 161.607557 110.088103 161.142272 108.964806 160.314175 108.13671 
C 159.486079 107.308613 158.362782 106.843328 157.191676 106.843328 
C 156.020571 106.843328 154.897274 107.308613 154.069177 108.13671 
C 153.241081 108.964806 152.775796 110.088103 152.775796 111.259209 
C 152.775796 112.430314 153.241081 113.553611 154.069177 114.381708 
C 154.897274 115.209804 156.020571 115.675089 157.191676 115.675089 
z
" style="fill:#ff0000;stroke:#ff0000;"/>
    <path clip-path="url(#p38f197a024)" d="M 147.064601 126.565824 
C 148.194959 126.565824 149.279173 126.116727 150.078458 125.317443 
C 150.877742 124.518159 151.326838 123.433945 151.326838 122.303586 
C 151.326838 121.173228 150.877742 120.089014 150.078458 119.289729 
C 149.279173 118.490445 148.194959 118.041349 147.064601 118.041349 
C 145.934242 118.041349 144.850028 118.490445 144.050744 119.289729 
C 143.25146 120.089014 142.802363 121.173228 142.802363 122.303586 
C 142.802363 123.433945 143.25146 124.518159 144.050744 125.317443 
C 144.850028 126.116727 145.934242 126.565824 147.064601 126.565824 
z
" style="fill:#ff0000;stroke:#ff0000;"/>
    <path clip-path="url(#p38f197a024)" d="M 136.913276 137.656154 
C 138.048808 137.656154 139.137984 137.205002 139.940926 136.40206 
C 140.743868 135.599118 141.19502 134.509942 141.19502 133.37441 
C 141.19502 132.238878 140.743868 131.149702 139.940926 130.346759 
C 139.137984 129.543817 138.048808 129.092666 136.913276 129.092666 
C 135.777744 129.092666 134.688568 129.543817 133.885625 130.346759 
C 133.082683 131.149702 132.631532 132.238878 132.631532 133.37441 
C 132.631532 134.509942 133.082683 135.599118 133.885625 136.40206 
C 134.688568 137.205002 135.777744 137.656154 136.913276 137.656154 
z
" style="fill:#ff0000;stroke:#ff0000;"/>
    <path clip-path="url(#p38f197a024)" d="M 126.737615 148.635106 
C 127.841743 148.635106 128.900798 148.196431 129.681535 147.415694 
C 130.462272 146.634957 130.900947 145.575902 130.900947 144.471774 
C 130.900947 143.367645 130.462272 142.30859 129.681535 141.527853 
C 128.900798 140.747117 127.841743 140.308442 126.737615 140.308442 
C 125.633486 140.308442 124.574431 140.747117 123.793694 141.527853 
C 123.012958 142.30859 122.574283 143.367645 122.574283 144.471774 
C 122.574283 145.575902 123.012958 146.634957 123.793694 147.415694 
C 124.574431 148.196431 125.633486 148.635106 126.737615 148.635106 
z
" style="fill:#ff0000;stroke:#ff0000;"/>
    <path clip-path="url(#p38f197a024)" d="M 116.53753 158.836144 
C 117.396886 158.836144 118.221161 158.494718 118.828818 157.887062 
C 119.436474 157.279405 119.7779 156.45513 119.7779 155.595774 
C 119.7779 154.736418 119.436474 153.912143 118.828818 153.304486 
C 118.221161 152.696829 117.396886 152.355403 116.53753 152.355403 
C 115.678174 152.355403 114.853899 152.696829 114.246242 153.304486 
C 113.638585 153.912143 113.297159 154.736418 113.297159 155.595774 
C 113.297159 156.45513 113.638585 157.279405 114.246242 157.887062 
C 114.853899 158.494718 115.678174 158.836144 116.53753 158.836144 
z
" style="fill:#ff0000;stroke:#ff0000;"/>
    <path clip-path="url(#p38f197a024)" d="M 106.312933 169.661982 
C 107.086126 169.661982 107.827756 169.354789 108.374486 168.808059 
C 108.921216 168.261329 109.228409 167.519699 109.228409 166.746506 
C 109.228409 165.973313 108.921216 165.231683 108.374486 164.684953 
C 107.827756 164.138223 107.086126 163.83103 106.312933 163.83103 
C 105.53974 163.83103 104.79811 164.138223 104.25138 164.684953 
C 103.70465 165.231683 103.397457 165.973313 103.397457 166.746506 
C 103.397457 167.519699 103.70465 168.261329 104.25138 168.808059 
C 104.79811 169.354789 105.53974 169.661982 106.312933 169.661982 
z
" style="fill:#ff0000;stroke:#ff0000;"/>
    <path clip-path="url(#p38f197a024)" d="M 96.063736 180.407344 
C 96.722309 180.407344 97.353997 180.145691 97.819678 179.680009 
C 98.285359 179.214328 98.547013 178.58264 98.547013 177.924067 
C 98.547013 177.265494 98.285359 176.633806 97.819678 176.168125 
C 97.353997 175.702443 96.722309 175.44079 96.063736 175.44079 
C 95.405163 175.44079 94.773475 175.702443 94.307793 176.168125 
C 93.842112 176.633806 93.580458 177.265494 93.580458 177.924067 
C 93.580458 178.58264 93.842112 179.214328 94.307793 179.680009 
C 94.773475 180.145691 95.405163 180.407344 96.063736 180.407344 
z
" style="fill:#ff0000;stroke:#ff0000;"/>
    <path clip-path="url(#p38f197a024)" d="M 85.789849 190.954295 
C 86.274042 190.954295 86.738468 190.761924 87.080844 190.419548 
C 87.423219 190.077172 87.615591 189.612746 87.615591 189.128553 
C 87.615591 188.644361 87.423219 188.179935 87.080844 187.837559 
C 86.738468 187.495183 86.274042 187.302812 85.789849 187.302812 
C 85.305657 187.302812 84.841231 187.495183 84.498855 187.837559 
C 84.156479 188.179935 83.964107 188.644361 83.964107 189.128553 
C 83.964107 189.612746 84.156479 190.077172 84.498855 190.419548 
C 84.841231 190.761924 85.305657 190.954295 85.789849 190.954295 
z
" style="fill:#ff0000;stroke:#ff0000;"/>
    <path clip-path="url(#p38f197a024)" d="M 75.491184 200.768311 
C 75.599453 200.768311 75.703302 200.725296 75.779859 200.648738 
C 75.856417 200.57218 75.899433 200.468332 75.899433 200.360063 
C 75.899433 200.251794 75.856417 200.147945 75.779859 200.071388 
C 75.703302 199.99483 75.599453 199.951815 75.491184 199.951815 
C 75.382916 199.951815 75.279067 199.99483 75.202509 200.071388 
C 75.125952 200.147945 75.082936 200.251794 75.082936 200.360063 
C 75.082936 200.468332 75.125952 200.57218 75.202509 200.648738 
C 75.279067 200.725296 75.382916 200.768311 75.491184 200.768311 
z
" style="fill:#ff0000;stroke:#ff0000;"/>
    <path clip-path="url(#p38f197a024)" d="M 308.024995 226.57191 
C 308.331225 226.57191 308.624954 226.450243 308.841491 226.233706 
C 309.058029 226.017168 309.179695 225.723439 309.179695 225.417209 
C 309.179695 225.110979 309.058029 224.81725 308.841491 224.600713 
C 308.624954 224.384175 308.331225 224.262509 308.024995 224.262509 
C 307.718765 224.262509 307.425036 224.384175 307.208498 224.600713 
C 306.991961 224.81725 306.870294 225.110979 306.870294 225.417209 
C 306.870294 225.723439 306.991961 226.017168 307.208498 226.233706 
C 307.425036 226.450243 307.718765 226.57191 308.024995 226.57191 
z
" style="fill:#ff0000;stroke:#ff0000;"/>
    <path clip-path="url(#p38f197a024)" d="M 290.324347 226.647573 
C 290.917359 226.647573 291.486163 226.411967 291.905486 225.992644 
C 292.324809 225.573321 292.560415 225.004517 292.560415 224.411505 
C 292.560415 223.818493 292.324809 223.249689 291.905486 222.830366 
C 291.486163 222.411043 290.917359 222.175437 290.324347 222.175437 
C 289.731335 222.175437 289.162531 222.411043 288.743208 222.830366 
C 288.323885 223.249689 288.088279 223.818493 288.088279 224.411505 
C 288.088279 225.004517 288.323885 225.573321 288.743208 225.992644 
C 289.162531 226.411967 289.731335 226.647573 290.324347 226.647573 
z
" style="fill:#ff0000;stroke:#ff0000;"/>
    <path clip-path="url(#p38f197a024)" d="M 272.679137 225.607435 
C 273.262181 225.607435 273.821425 225.375789 274.2337 224.963514 
C 274.645975 224.551239 274.877621 223.991995 274.877621 223.40895 
C 274.877621 222.825906 274.645975 222.266662 274.2337 221.854387 
C 273.821425 221.442112 273.262181 221.210466 272.679137 221.210466 
C 272.096092 221.210466 271.536848 221.442112 271.124573 221.854387 
C 270.712298 222.266662 270.480652 222.825906 270.480652 223.40895 
C 270.480652 223.991995 270.712298 224.551239 271.124573 224.963514 
C 271.536848 225.375789 272.096092 225.607435 272.679137 225.607435 
z
" style="fill:#ff0000;stroke:#ff0000;"/>
    <path clip-path="url(#p38f197a024)" d="M 255.089103 225.649901 
C 255.948459 225.649901 256.772734 225.308475 257.380391 224.700819 
C 257.988048 224.093162 258.329473 223.268887 258.329473 222.409531 
C 258.329473 221.550175 257.988048 220.7259 257.380391 220.118243 
C 256.772734 219.510586 255.948459 219.169161 255.089103 219.169161 
C 254.229747 219.169161 253.405472 219.510586 252.797815 220.118243 
C 252.190159 220.7259 251.848733 221.550175 251.848733 222.409531 
C 251.848733 223.268887 252.190159 224.093162 252.797815 224.700819 
C 253.405472 225.308475 254.229747 225.649901 255.089103 225.649901 
z
" style="fill:#ff0000;stroke:#ff0000;"/>
    <path clip-path="url(#p38f197a024)" d="M 237.553988 225.454684 
C 238.625794 225.454684 239.653845 225.028851 240.411726 224.27097 
C 241.169607 223.513089 241.59544 222.485037 241.59544 221.413232 
C 241.59544 220.341426 241.169607 219.313375 240.411726 218.555494 
C 239.653845 217.797613 238.625794 217.37178 237.553988 217.37178 
C 236.482183 217.37178 235.454131 217.797613 234.69625 218.555494 
C 233.938369 219.313375 233.512536 220.341426 233.512536 221.413232 
C 233.512536 222.485037 233.938369 223.513089 234.69625 224.27097 
C 235.454131 225.028851 236.482183 225.454684 237.553988 225.454684 
z
" style="fill:#ff0000;stroke:#ff0000;"/>
    <path clip-path="url(#p38f197a024)" d="M 220.073535 224.603339 
C 221.182959 224.603339 222.247094 224.16256 223.031575 223.378078 
C 223.816056 222.593597 224.256835 221.529463 224.256835 220.420038 
C 224.256835 219.310614 223.816056 218.24648 223.031575 217.461999 
C 222.247094 216.677517 221.182959 216.236738 220.073535 216.236738 
C 218.964111 216.236738 217.899977 216.677517 217.115495 217.461999 
C 216.331014 218.24648 215.890235 219.310614 215.890235 220.420038 
C 215.890235 221.529463 216.331014 222.593597 217.115495 223.378078 
C 217.899977 224.16256 218.964111 224.603339 220.073535 224.603339 
z
" style="fill:#ff0000;stroke:#ff0000;"/>
    <path clip-path="url(#p38f197a024)" d="M 202.647489 223.593268 
C 203.751617 223.593268 204.810672 223.154593 205.591409 222.373857 
C 206.372146 221.59312 206.810821 220.534065 206.810821 219.429936 
C 206.810821 218.325808 206.372146 217.266753 205.591409 216.486016 
C 204.810672 215.705279 203.751617 215.266604 202.647489 215.266604 
C 201.54336 215.266604 200.484305 215.705279 199.703568 216.486016 
C 198.922832 217.266753 198.484157 218.325808 198.484157 219.429936 
C 198.484157 220.534065 198.922832 221.59312 199.703568 222.373857 
C 200.484305 223.154593 201.54336 223.593268 202.647489 223.593268 
z
" style="fill:#ff0000;stroke:#ff0000;"/>
    <path clip-path="url(#p38f197a024)" d="M 185.275595 222.566017 
C 186.369056 222.566017 187.417878 222.13158 188.191071 221.358387 
C 188.964265 220.585194 189.398701 219.536371 189.398701 218.442911 
C 189.398701 217.349451 188.964265 216.300628 188.191071 215.527435 
C 187.417878 214.754242 186.369056 214.319805 185.275595 214.319805 
C 184.182135 214.319805 183.133313 214.754242 182.360119 215.527435 
C 181.586926 216.300628 181.15249 217.349451 181.15249 218.442911 
C 181.15249 219.536371 181.586926 220.585194 182.360119 221.358387 
C 183.133313 222.13158 184.182135 222.566017 185.275595 222.566017 
z
" style="fill:#ff0000;stroke:#ff0000;"/>
    <path clip-path="url(#p38f197a024)" d="M 167.957603 220.898909 
C 168.869891 220.898909 169.744938 220.536453 170.390023 219.891368 
C 171.035108 219.246283 171.397564 218.371237 171.397564 217.458948 
C 171.397564 216.54666 171.035108 215.671614 170.390023 215.026528 
C 169.744938 214.381443 168.869891 214.018987 167.957603 214.018987 
C 167.045315 214.018987 166.170268 214.381443 165.525183 215.026528 
C 164.880098 215.671614 164.517642 216.54666 164.517642 217.458948 
C 164.517642 218.371237 164.880098 219.246283 165.525183 219.891368 
C 166.170268 220.536453 167.045315 220.898909 167.957603 220.898909 
z
" style="fill:#ff0000;stroke:#ff0000;"/>
    <path clip-path="url(#p38f197a024)" d="M 150.693261 219.613848 
C 151.524889 219.613848 152.322567 219.283439 152.910617 218.695389 
C 153.498667 218.10734 153.829076 217.309661 153.829076 216.478034 
C 153.829076 215.646406 153.498667 214.848727 152.910617 214.260678 
C 152.322567 213.672628 151.524889 213.342219 150.693261 213.342219 
C 149.861633 213.342219 149.063955 213.672628 148.475905 214.260678 
C 147.887856 214.848727 147.557447 215.646406 147.557447 216.478034 
C 147.557447 217.309661 147.887856 218.10734 148.475905 218.695389 
C 149.063955 219.283439 149.861633 219.613848 150.693261 219.613848 
z
" style="fill:#ff0000;stroke:#ff0000;"/>
    <path clip-path="url(#p38f197a024)" d="M 133.482321 218.444074 
C 134.263058 218.444074 135.011923 218.133884 135.563987 217.581819 
C 136.116051 217.029755 136.426241 216.28089 136.426241 215.500153 
C 136.426241 214.719416 136.116051 213.970552 135.563987 213.418487 
C 135.011923 212.866423 134.263058 212.556233 133.482321 212.556233 
C 132.701584 212.556233 131.952719 212.866423 131.400655 213.418487 
C 130.848591 213.970552 130.538401 214.719416 130.538401 215.500153 
C 130.538401 216.28089 130.848591 217.029755 131.400655 217.581819 
C 131.952719 218.133884 132.701584 218.444074 133.482321 218.444074 
z
" style="fill:#ff0000;stroke:#ff0000;"/>
    <path clip-path="url(#p38f197a024)" d="M 116.324535 216.798323 
C 116.92735 216.798323 117.505556 216.558822 117.93181 216.132568 
C 118.358064 215.706314 118.597565 215.128108 118.597565 214.525293 
C 118.597565 213.922478 118.358064 213.344272 117.93181 212.918018 
C 117.505556 212.491763 116.92735 212.252263 116.324535 212.252263 
C 115.72172 212.252263 115.143514 212.491763 114.71726 212.918018 
C 114.291005 213.344272 114.051505 213.922478 114.051505 214.525293 
C 114.051505 215.128108 114.291005 215.706314 114.71726 216.132568 
C 115.143514 216.558822 115.72172 216.798323 116.324535 216.798323 
z
" style="fill:#ff0000;stroke:#ff0000;"/>
    <path clip-path="url(#p38f197a024)" d="M 99.219657 215.134578 
C 99.63898 215.134578 100.041185 214.967979 100.337691 214.671473 
C 100.634197 214.374967 100.800796 213.972762 100.800796 213.553439 
C 100.800796 213.134116 100.634197 212.731911 100.337691 212.435405 
C 100.041185 212.138899 99.63898 211.9723 99.219657 211.9723 
C 98.800334 211.9723 98.398129 212.138899 98.101623 212.435405 
C 97.805117 212.731911 97.638518 213.134116 97.638518 213.553439 
C 97.638518 213.972762 97.805117 214.374967 98.101623 214.671473 
C 98.398129 214.967979 98.800334 215.134578 99.219657 215.134578 
z
" style="fill:#ff0000;stroke:#ff0000;"/>
    <path clip-path="url(#p38f197a024)" d="M 82.167443 213.99879 
C 82.542497 213.99879 82.90224 213.84978 83.167443 213.584577 
C 83.432647 213.319374 83.581657 212.959631 83.581657 212.584577 
C 83.581657 212.209523 83.432647 211.84978 83.167443 211.584577 
C 82.90224 211.319374 82.542497 211.170363 82.167443 211.170363 
C 81.79239 211.170363 81.432647 211.319374 81.167443 211.584577 
C 80.90224 211.84978 80.75323 212.209523 80.75323 212.584577 
C 80.75323 212.959631 80.90224 213.319374 81.167443 213.584577 
C 81.432647 213.84978 81.79239 213.99879 82.167443 213.99879 
z
" style="fill:#ff0000;stroke:#ff0000;"/>
   </g>
   <g id="legend_1">
    <g id="patch_6">
     <path d="M 21.2 291.2 
L 294.2 291.2 
Q 297.2 291.2 297.2 288.2 
L 297.2 249.95 
Q 297.2 246.95 294.2 246.95 
L 21.2 246.95 
Q 18.2 246.95 18.2 249.95 
L 18.2 288.2 
Q 18.2 291.2 21.2 291.2 
z
" style="fill:#ffffff;opacity:0.8;stroke:#cccccc;stroke-linejoin:miter;"/>
    </g>
    <g id="Path3DCollection_3">
     <defs>
      <path d="M 0 3.785939 
C 1.004043 3.785939 1.967098 3.387028 2.677063 2.677063 
C 3.387028 1.967098 3.785939 1.004043 3.785939 0 
C 3.785939 -1.004043 3.387028 -1.967098 2.677063 -2.677063 
C 1.967098 -3.387028 1.004043 -3.785939 0 -3.785939 
C -1.004043 -3.785939 -1.967098 -3.387028 -2.677063 -2.677063 
C -3.387028 -1.967098 -3.785939 -1.004043 -3.785939 0 
C -3.785939 1.004043 -3.387028 1.967098 -2.677063 2.677063 
C -1.967098 3.387028 -1.004043 3.785939 0 3.785939 
z
" id="ma5640c550e" style="stroke:#ff0000;"/>
     </defs>
     <g>
      <use style="fill:#ff0000;stroke:#ff0000;" x="39.2" xlink:href="#ma5640c550e" y="259.5125"/>
     </g>
    </g>
    <g id="text_28">
     <!-- probability of absorbing state -->
     <defs>
      <path d="M 44.140625 23.828125 
Q 44.140625 12.5 38.671875 6.640625 
Q 33.203125 0.78125 25.390625 0.78125 
Q 21.09375 0.78125 17.96875 2.53125 
Q 14.84375 4.296875 12.5 7.8125 
L 12.5 -12.5 
L 4.6875 -12.5 
L 4.6875 45.703125 
L 12.5 45.703125 
L 12.5 39.84375 
Q 14.84375 43.359375 17.96875 44.921875 
Q 21.09375 46.484375 25.390625 46.484375 
Q 33.203125 46.484375 38.671875 40.8125 
Q 44.140625 35.15625 44.140625 23.828125 
z
M 35.546875 23.828125 
Q 35.546875 31.25 32.609375 35.34375 
Q 29.6875 39.453125 23.828125 39.453125 
Q 19.140625 39.453125 15.8125 35.34375 
Q 12.5 31.25 12.5 23.828125 
Q 12.5 16.40625 15.8125 12.109375 
Q 19.140625 7.8125 23.828125 7.8125 
Q 29.6875 7.8125 32.609375 12.109375 
Q 35.546875 16.40625 35.546875 23.828125 
z
" id="SimHei-70"/>
      <path d="M 39.0625 37.890625 
Q 31.640625 39.0625 26.5625 35.734375 
Q 21.484375 32.421875 17.96875 24.21875 
L 17.96875 1.953125 
L 10.15625 1.953125 
L 10.15625 45.703125 
L 17.96875 45.703125 
L 17.96875 34.375 
Q 21.484375 40.625 26.75 43.546875 
Q 32.03125 46.484375 39.0625 46.484375 
z
" id="SimHei-72"/>
      <path d="M 44.140625 23.828125 
Q 44.140625 12.5 38.671875 6.828125 
Q 33.203125 1.171875 25.390625 1.171875 
Q 21.09375 1.171875 17.96875 2.734375 
Q 14.84375 4.296875 12.5 7.8125 
L 12.5 1.953125 
L 4.6875 1.953125 
L 4.6875 68.75 
L 12.5 68.75 
L 12.5 39.84375 
Q 14.84375 43.359375 17.96875 45.109375 
Q 21.09375 46.875 25.390625 46.875 
Q 33.203125 46.875 38.671875 41.015625 
Q 44.140625 35.15625 44.140625 23.828125 
z
M 35.546875 23.828125 
Q 35.546875 31.25 32.609375 35.546875 
Q 29.6875 39.84375 23.828125 39.84375 
Q 19.140625 39.84375 15.8125 35.546875 
Q 12.5 31.25 12.5 23.828125 
Q 12.5 16.40625 15.8125 12.296875 
Q 19.140625 8.203125 23.828125 8.203125 
Q 29.6875 8.203125 32.609375 12.296875 
Q 35.546875 16.40625 35.546875 23.828125 
z
" id="SimHei-62"/>
      <path d="M 44.921875 1.953125 
L 35.546875 1.953125 
Q 34.765625 2.734375 34.375 4.09375 
Q 33.984375 5.46875 33.984375 7.421875 
Q 31.25 4.296875 27.34375 2.734375 
Q 23.4375 1.171875 19.140625 1.171875 
Q 12.890625 1.171875 8.59375 4.296875 
Q 4.296875 7.421875 4.296875 13.28125 
Q 4.296875 19.140625 8.203125 22.65625 
Q 12.109375 26.171875 20.3125 27.34375 
Q 25.78125 28.125 29.875 29.296875 
Q 33.984375 30.46875 33.984375 32.421875 
Q 33.984375 34.765625 32.21875 37.109375 
Q 30.46875 39.453125 24.609375 39.453125 
Q 19.921875 39.453125 17.765625 37.6875 
Q 15.625 35.9375 14.84375 32.8125 
L 6.25 32.8125 
Q 7.03125 39.0625 11.90625 42.765625 
Q 16.796875 46.484375 24.609375 46.484375 
Q 33.203125 46.484375 37.5 42.578125 
Q 41.796875 38.671875 41.796875 31.640625 
L 41.796875 10.15625 
Q 41.796875 7.8125 42.578125 5.859375 
Q 43.359375 3.90625 44.921875 1.953125 
z
M 33.984375 16.40625 
L 33.984375 24.21875 
Q 31.640625 23.4375 29.484375 22.84375 
Q 27.34375 22.265625 22.265625 21.484375 
Q 16.40625 20.703125 14.640625 18.75 
Q 12.890625 16.796875 12.890625 14.0625 
Q 12.890625 11.71875 14.640625 9.953125 
Q 16.40625 8.203125 19.921875 8.203125 
Q 23.4375 8.203125 27.53125 10.15625 
Q 31.640625 12.109375 33.984375 16.40625 
z
" id="SimHei-61"/>
      <path d="M 28.515625 1.953125 
L 20.703125 1.953125 
L 20.703125 68.75 
L 28.515625 68.75 
z
" id="SimHei-6c"/>
      <path d="M 42.96875 3.125 
Q 41.015625 2.34375 38.46875 1.75 
Q 35.9375 1.171875 31.640625 1.171875 
Q 24.609375 1.171875 20.3125 5.078125 
Q 16.015625 8.984375 16.015625 16.015625 
L 16.015625 39.453125 
L 2.734375 39.453125 
L 2.734375 45.703125 
L 16.015625 45.703125 
L 16.015625 60.9375 
L 23.828125 60.9375 
L 23.828125 45.703125 
L 39.84375 45.703125 
L 39.84375 39.453125 
L 23.828125 39.453125 
L 23.828125 15.625 
Q 23.828125 12.5 25.390625 10.34375 
Q 26.953125 8.203125 31.25 8.203125 
Q 35.546875 8.203125 38.28125 8.984375 
Q 41.015625 9.765625 42.96875 10.9375 
z
" id="SimHei-74"/>
      <path d="M 45.3125 45.703125 
L 27.34375 -1.5625 
Q 25.78125 -7.03125 22.65625 -9.765625 
Q 19.53125 -12.5 14.84375 -12.5 
Q 12.890625 -12.5 11.125 -12.296875 
Q 9.375 -12.109375 7.8125 -11.328125 
L 7.8125 -3.515625 
Q 9.375 -4.296875 10.9375 -4.6875 
Q 12.5 -5.078125 13.671875 -5.078125 
Q 16.796875 -5.078125 17.96875 -4.09375 
Q 19.140625 -3.125 20.3125 0.390625 
L 3.125 45.703125 
L 11.71875 45.703125 
L 24.21875 11.328125 
L 24.609375 11.328125 
L 36.71875 45.703125 
z
" id="SimHei-79"/>
      <path d="M 46.484375 39.0625 
Q 43.75 39.84375 41.203125 40.03125 
Q 38.671875 40.234375 35.9375 39.453125 
Q 37.109375 38.28125 37.890625 36.515625 
Q 38.671875 34.765625 38.671875 31.25 
Q 38.671875 24.609375 34.171875 20.3125 
Q 29.6875 16.015625 23.046875 16.015625 
Q 21.484375 16.015625 18.9375 16.59375 
Q 16.40625 17.1875 14.84375 17.96875 
Q 13.671875 17.1875 13.28125 16.40625 
Q 12.890625 15.625 12.890625 14.453125 
Q 12.890625 12.5 15.625 11.515625 
Q 18.359375 10.546875 25.390625 10.546875 
Q 36.71875 10.546875 40.8125 7.421875 
Q 44.921875 4.296875 44.921875 -0.390625 
Q 44.921875 -6.640625 38.859375 -9.5625 
Q 32.8125 -12.5 24.609375 -12.5 
Q 14.0625 -12.5 8.984375 -9.765625 
Q 3.90625 -7.03125 3.90625 -2.34375 
Q 3.90625 0 5.859375 2.34375 
Q 7.8125 4.6875 10.9375 6.25 
Q 8.59375 7.421875 7.21875 9.171875 
Q 5.859375 10.9375 5.859375 13.671875 
Q 5.859375 16.015625 7.609375 17.765625 
Q 9.375 19.53125 11.71875 20.703125 
Q 9.765625 22.65625 8.59375 25.390625 
Q 7.421875 28.125 7.421875 31.25 
Q 7.421875 37.890625 11.90625 42.1875 
Q 16.40625 46.484375 23.046875 46.484375 
Q 26.5625 46.484375 29.09375 45.5 
Q 31.640625 44.53125 33.59375 42.578125 
Q 36.71875 44.921875 39.84375 45.890625 
Q 42.96875 46.875 46.484375 46.484375 
z
M 30.859375 31.25 
Q 30.859375 35.15625 28.90625 37.5 
Q 26.953125 39.84375 23.046875 39.84375 
Q 19.140625 39.84375 17.1875 37.5 
Q 15.234375 35.15625 15.234375 31.25 
Q 15.234375 27.34375 17.1875 25 
Q 19.140625 22.65625 23.046875 22.65625 
Q 26.953125 22.65625 28.90625 25 
Q 30.859375 27.34375 30.859375 31.25 
z
M 37.5 -1.171875 
Q 37.5 0.390625 35.734375 1.953125 
Q 33.984375 3.515625 26.953125 3.515625 
Q 25.390625 3.515625 22.65625 3.703125 
Q 19.921875 3.90625 16.40625 4.296875 
Q 13.28125 3.125 12.109375 1.5625 
Q 10.9375 0 10.9375 -1.5625 
Q 10.9375 -3.90625 14.0625 -5.46875 
Q 17.1875 -7.03125 25 -7.03125 
Q 31.640625 -7.03125 34.5625 -5.265625 
Q 37.5 -3.515625 37.5 -1.171875 
z
" id="SimHei-67"/>
      <path d="M 44.53125 16.796875 
Q 43.75 9.765625 38.28125 5.46875 
Q 32.8125 1.171875 25.390625 1.171875 
Q 16.015625 1.171875 9.953125 7.21875 
Q 3.90625 13.28125 3.90625 23.828125 
Q 3.90625 34.375 9.953125 40.421875 
Q 16.015625 46.484375 25.390625 46.484375 
Q 33.59375 46.484375 38.859375 41.203125 
Q 44.140625 35.9375 44.140625 23.828125 
L 12.5 23.828125 
Q 12.5 15.234375 16.203125 11.71875 
Q 19.921875 8.203125 25.390625 8.203125 
Q 29.6875 8.203125 32.421875 10.34375 
Q 35.15625 12.5 35.9375 16.796875 
z
M 35.15625 30.078125 
Q 34.375 35.546875 31.640625 37.6875 
Q 28.90625 39.84375 24.609375 39.84375 
Q 20.703125 39.84375 17.578125 37.6875 
Q 14.453125 35.546875 12.890625 30.078125 
z
" id="SimHei-65"/>
     </defs>
     <g transform="translate(66.2 263.45)scale(0.15 -0.15)">
      <use xlink:href="#SimHei-70"/>
      <use x="50" xlink:href="#SimHei-72"/>
      <use x="100" xlink:href="#SimHei-6f"/>
      <use x="150" xlink:href="#SimHei-62"/>
      <use x="200" xlink:href="#SimHei-61"/>
      <use x="250" xlink:href="#SimHei-62"/>
      <use x="300" xlink:href="#SimHei-69"/>
      <use x="350" xlink:href="#SimHei-6c"/>
      <use x="400" xlink:href="#SimHei-69"/>
      <use x="450" xlink:href="#SimHei-74"/>
      <use x="500" xlink:href="#SimHei-79"/>
      <use x="550" xlink:href="#SimHei-20"/>
      <use x="600" xlink:href="#SimHei-6f"/>
      <use x="650" xlink:href="#SimHei-66"/>
      <use x="700" xlink:href="#SimHei-20"/>
      <use x="750" xlink:href="#SimHei-61"/>
      <use x="800" xlink:href="#SimHei-62"/>
      <use x="850" xlink:href="#SimHei-73"/>
      <use x="900" xlink:href="#SimHei-6f"/>
      <use x="950" xlink:href="#SimHei-72"/>
      <use x="1000" xlink:href="#SimHei-62"/>
      <use x="1050" xlink:href="#SimHei-69"/>
      <use x="1100" xlink:href="#SimHei-6e"/>
      <use x="1150" xlink:href="#SimHei-67"/>
      <use x="1200" xlink:href="#SimHei-20"/>
      <use x="1250" xlink:href="#SimHei-73"/>
      <use x="1300" xlink:href="#SimHei-74"/>
      <use x="1350" xlink:href="#SimHei-61"/>
      <use x="1400" xlink:href="#SimHei-74"/>
      <use x="1450" xlink:href="#SimHei-65"/>
     </g>
    </g>
    <g id="Path3DCollection_4">
     <g>
      <use style="fill:#008000;stroke:#008000;" x="39.2" xlink:href="#mc4be5525a5" y="279.3875"/>
     </g>
    </g>
    <g id="text_29">
     <!-- start state -->
     <g transform="translate(66.2 283.325)scale(0.15 -0.15)">
      <use xlink:href="#SimHei-73"/>
      <use x="50" xlink:href="#SimHei-74"/>
      <use x="100" xlink:href="#SimHei-61"/>
      <use x="150" xlink:href="#SimHei-72"/>
      <use x="200" xlink:href="#SimHei-74"/>
      <use x="250" xlink:href="#SimHei-20"/>
      <use x="300" xlink:href="#SimHei-73"/>
      <use x="350" xlink:href="#SimHei-74"/>
      <use x="400" xlink:href="#SimHei-61"/>
      <use x="450" xlink:href="#SimHei-74"/>
      <use x="500" xlink:href="#SimHei-65"/>
     </g>
    </g>
   </g>
  </g>
 </g>
 <defs>
  <clipPath id="p38f197a024">
   <rect height="288" width="360" x="10.7" y="10.7"/>
  </clipPath>
 </defs>
</svg>
