<?xml version="1.0" encoding="utf-8" standalone="no"?>
<!DOCTYPE svg PUBLIC "-//W3C//DTD SVG 1.1//EN"
  "http://www.w3.org/Graphics/SVG/1.1/DTD/svg11.dtd">
<!-- Created with matplotlib (http://matplotlib.org/) -->
<svg height="309.4pt" version="1.1" viewBox="0 0 381.4 309.4" width="381.4pt" xmlns="http://www.w3.org/2000/svg" xmlns:xlink="http://www.w3.org/1999/xlink">
 <defs>
  <style type="text/css">
*{stroke-linecap:butt;stroke-linejoin:round;}
  </style>
 </defs>
 <g id="figure_1">
  <g id="patch_1">
   <path d="M 0 309.4 
L 381.4 309.4 
L 381.4 0 
L 0 0 
z
" style="fill:none;"/>
  </g>
  <g id="patch_2">
   <path d="M 10.7 298.7 
L 370.7 298.7 
L 370.7 10.7 
L 10.7 10.7 
z
" style="fill:#ffffff;"/>
  </g>
  <g id="pane3d_1">
   <g id="patch_3">
    <path d="M 219.619567 185.462306 
L 335.768129 233.715199 
L 340.919918 79.597002 
L 220.435568 41.545085 
" style="fill:#f2f2f2;opacity:0.5;stroke:#f2f2f2;stroke-linejoin:miter;"/>
   </g>
  </g>
  <g id="pane3d_2">
   <g id="patch_4">
    <path d="M 219.619567 185.462306 
L 58.794045 217.8137 
L 53.895826 67.034254 
L 220.435568 41.545085 
" style="fill:#e6e6e6;opacity:0.5;stroke:#e6e6e6;stroke-linejoin:miter;"/>
   </g>
  </g>
  <g id="pane3d_3">
   <g id="patch_5">
    <path d="M 219.619567 185.462306 
L 58.794045 217.8137 
L 168.062833 271.631196 
L 335.768129 233.715199 
" style="fill:#ececec;opacity:0.5;stroke:#ececec;stroke-linejoin:miter;"/>
   </g>
  </g>
  <g id="axis3d_1">
   <g id="line2d_1">
    <path d="M 335.768129 233.715199 
L 168.062833 271.631196 
" style="fill:none;stroke:#000000;stroke-linecap:square;stroke-width:0.8;"/>
   </g>
   <g id="text_1">
    <!-- coins of 大熊 -->
    <defs>
     <path d="M 44.53125 19.53125 
Q 44.53125 11.328125 38.859375 6.25 
Q 33.203125 1.171875 24.609375 1.171875 
Q 16.015625 1.171875 9.765625 7.21875 
Q 3.515625 13.28125 3.515625 23.828125 
Q 3.515625 34.375 9.765625 40.421875 
Q 16.015625 46.484375 24.609375 46.484375 
Q 33.203125 46.484375 38.28125 41.984375 
Q 43.359375 37.5 43.359375 31.25 
L 34.765625 31.25 
Q 34.375 35.9375 31.4375 37.6875 
Q 28.515625 39.453125 24.609375 39.453125 
Q 19.921875 39.453125 16.015625 35.734375 
Q 12.109375 32.03125 12.109375 23.828125 
Q 12.109375 15.625 16.015625 11.90625 
Q 19.921875 8.203125 24.609375 8.203125 
Q 29.6875 8.203125 32.8125 10.9375 
Q 35.9375 13.671875 35.9375 19.53125 
z
" id="SimHei-63"/>
     <path d="M 45.703125 23.828125 
Q 45.703125 13.671875 39.453125 7.421875 
Q 33.203125 1.171875 24.609375 1.171875 
Q 16.015625 1.171875 9.765625 7.421875 
Q 3.515625 13.671875 3.515625 23.828125 
Q 3.515625 33.984375 9.765625 40.234375 
Q 16.015625 46.484375 24.609375 46.484375 
Q 33.203125 46.484375 39.453125 40.234375 
Q 45.703125 33.984375 45.703125 23.828125 
z
M 37.109375 23.828125 
Q 37.109375 31.640625 33.203125 35.546875 
Q 29.296875 39.453125 24.609375 39.453125 
Q 19.921875 39.453125 16.015625 35.546875 
Q 12.109375 31.640625 12.109375 23.828125 
Q 12.109375 16.015625 16.015625 12.109375 
Q 19.921875 8.203125 24.609375 8.203125 
Q 29.296875 8.203125 33.203125 12.109375 
Q 37.109375 16.015625 37.109375 23.828125 
z
" id="SimHei-6f"/>
     <path d="M 28.125 58.203125 
L 20.3125 58.203125 
L 20.3125 68.359375 
L 28.125 68.359375 
z
M 28.125 1.953125 
L 20.3125 1.953125 
L 20.3125 45.703125 
L 28.125 45.703125 
z
" id="SimHei-69"/>
     <path d="M 43.75 1.953125 
L 35.9375 1.953125 
L 35.9375 30.078125 
Q 35.9375 34.765625 33.59375 37.5 
Q 31.25 40.234375 27.34375 40.234375 
Q 22.265625 40.234375 17.765625 34.953125 
Q 13.28125 29.6875 13.28125 21.875 
L 13.28125 1.953125 
L 5.46875 1.953125 
L 5.46875 45.703125 
L 13.28125 45.703125 
L 13.28125 37.5 
Q 16.40625 41.796875 20.109375 44.140625 
Q 23.828125 46.484375 29.6875 46.484375 
Q 36.71875 46.484375 40.234375 42.578125 
Q 43.75 38.671875 43.75 32.8125 
z
" id="SimHei-6e"/>
     <path d="M 42.96875 14.0625 
Q 42.96875 7.8125 38.078125 4.484375 
Q 33.203125 1.171875 25.78125 1.171875 
Q 16.40625 1.171875 11.328125 4.875 
Q 6.25 8.59375 6.25 15.625 
L 14.0625 15.625 
Q 14.0625 10.9375 17.375 9.375 
Q 20.703125 7.8125 25.390625 7.8125 
Q 30.078125 7.8125 32.421875 9.5625 
Q 34.765625 11.328125 34.765625 14.0625 
Q 34.765625 16.015625 32.8125 17.96875 
Q 30.859375 19.921875 23.046875 21.09375 
Q 14.0625 22.265625 10.734375 25.578125 
Q 7.421875 28.90625 7.421875 34.375 
Q 7.421875 39.0625 11.90625 42.765625 
Q 16.40625 46.484375 25 46.484375 
Q 32.8125 46.484375 37.296875 42.96875 
Q 41.796875 39.453125 41.796875 33.59375 
L 33.984375 33.59375 
Q 33.984375 37.109375 31.4375 38.46875 
Q 28.90625 39.84375 25 39.84375 
Q 19.921875 39.84375 17.765625 38.078125 
Q 15.625 36.328125 15.625 33.984375 
Q 15.625 31.25 17.578125 29.6875 
Q 19.53125 28.125 25.78125 27.34375 
Q 35.9375 25.78125 39.453125 22.453125 
Q 42.96875 19.140625 42.96875 14.0625 
z
" id="SimHei-73"/>
     <path id="SimHei-20"/>
     <path d="M 44.53125 59.765625 
Q 42.578125 60.9375 39.84375 61.71875 
Q 37.109375 62.5 32.8125 62.5 
Q 28.515625 62.5 26.953125 60.34375 
Q 25.390625 58.203125 25.390625 55.078125 
L 25.390625 45.703125 
L 41.40625 45.703125 
L 41.40625 39.453125 
L 25.390625 39.453125 
L 25.390625 1.953125 
L 17.578125 1.953125 
L 17.578125 39.453125 
L 4.296875 39.453125 
L 4.296875 45.703125 
L 17.578125 45.703125 
L 17.578125 54.6875 
Q 17.578125 61.71875 21.875 65.625 
Q 26.171875 69.53125 33.203125 69.53125 
Q 37.5 69.53125 40.03125 68.9375 
Q 42.578125 68.359375 44.53125 67.578125 
z
" id="SimHei-66"/>
     <path d="M 45.3125 53.125 
Q 45.703125 66.796875 45.5 71.484375 
Q 45.3125 76.171875 44.921875 80.46875 
Q 49.609375 79.6875 55.46875 79.296875 
Q 54.296875 75.390625 53.703125 67.96875 
Q 53.125 60.546875 53.125 53.125 
L 73.046875 53.125 
Q 83.59375 53.125 92.578125 53.90625 
L 92.578125 45.3125 
Q 84.765625 45.703125 76.5625 45.703125 
L 53.515625 45.703125 
Q 55.078125 39.0625 58.984375 32.21875 
Q 62.890625 25.390625 66.984375 20.109375 
Q 71.09375 14.84375 78.3125 8.984375 
Q 85.546875 3.125 94.140625 -0.78125 
Q 91.015625 -3.125 87.890625 -8.59375 
Q 80.859375 -4.6875 74.015625 1.171875 
Q 67.1875 7.03125 60.34375 16.59375 
Q 53.515625 26.171875 50 34.375 
Q 46.875 25.78125 43.359375 20.109375 
Q 39.84375 14.453125 35.734375 9.765625 
Q 31.640625 5.078125 25.1875 0.390625 
Q 18.75 -4.296875 10.546875 -8.984375 
Q 7.421875 -4.296875 3.515625 -0.78125 
Q 11.71875 1.953125 19.71875 7.03125 
Q 27.734375 12.109375 32.8125 18.546875 
Q 37.890625 25 41.015625 32.03125 
Q 44.140625 39.0625 44.921875 45.703125 
L 23.4375 45.703125 
Q 14.0625 45.703125 8.59375 45.3125 
L 8.59375 53.90625 
Q 14.0625 53.515625 23.4375 53.125 
z
" id="SimHei-5927"/>
     <path d="M 49.609375 52.34375 
Q 49.21875 46.484375 49.21875 40.625 
L 49.21875 19.53125 
Q 49.21875 15.234375 46.484375 13.859375 
Q 43.75 12.5 34.765625 11.328125 
Q 33.59375 14.84375 31.640625 18.359375 
Q 38.671875 18.75 40.421875 18.9375 
Q 42.1875 19.140625 41.796875 23.4375 
L 18.359375 23.4375 
L 18.359375 12.5 
L 10.15625 12.5 
Q 10.546875 25 10.546875 33.59375 
Q 10.546875 42.1875 10.15625 52.34375 
L 49.609375 52.34375 
z
M 65.625 45.3125 
Q 65.234375 41.015625 65.234375 34.375 
Q 81.640625 38.671875 88.28125 43.359375 
Q 90.234375 39.453125 93.359375 36.71875 
Q 85.9375 34.765625 65.625 28.125 
L 65.625 23.046875 
Q 65.625 19.53125 70.703125 19.53125 
L 80.46875 19.53125 
Q 83.59375 19.53125 85.15625 20.890625 
Q 86.71875 22.265625 88.28125 28.125 
Q 92.1875 26.171875 96.875 25.390625 
Q 93.359375 17.1875 91.40625 15.234375 
Q 89.453125 13.28125 83.984375 13.28125 
L 65.234375 13.28125 
Q 57.03125 13.28125 57.03125 19.53125 
L 57.03125 37.5 
Q 57.03125 40.625 56.640625 45.3125 
L 65.625 45.3125 
z
M 92.578125 69.140625 
Q 78.515625 65.234375 64.84375 61.328125 
Q 64.84375 54.6875 68.359375 54.6875 
L 80.46875 54.6875 
Q 83.203125 54.6875 84.765625 56.4375 
Q 86.328125 58.203125 86.71875 62.5 
Q 90.234375 60.9375 94.921875 59.765625 
Q 92.96875 51.5625 90.421875 50.1875 
Q 87.890625 48.828125 82.8125 48.828125 
L 64.84375 48.828125 
Q 57.03125 48.828125 57.03125 54.296875 
L 57.03125 71.09375 
Q 57.03125 75.78125 56.640625 80.46875 
L 65.625 80.46875 
Q 65.234375 75.390625 65.234375 67.1875 
Q 78.515625 70.3125 86.328125 76.171875 
Q 88.671875 72.65625 92.578125 69.140625 
z
M 32.03125 78.125 
Q 24.609375 71.484375 16.40625 62.890625 
Q 22.65625 63.28125 40.625 65.234375 
Q 38.671875 67.578125 35.546875 70.703125 
Q 39.0625 72.265625 42.96875 74.21875 
Q 51.171875 63.28125 55.078125 58.59375 
Q 51.171875 57.03125 48.046875 54.6875 
L 44.53125 59.765625 
Q 42.578125 59.375 33.203125 58.59375 
Q 23.828125 57.8125 9.375 55.859375 
Q 7.421875 59.375 6.25 62.890625 
Q 10.15625 64.84375 14.640625 69.53125 
Q 19.140625 74.21875 23.4375 82.03125 
Q 27.734375 79.6875 32.03125 78.125 
z
M 41.796875 28.90625 
L 41.796875 35.546875 
L 18.359375 35.546875 
L 18.359375 28.90625 
z
M 20.3125 6.640625 
Q 17.1875 3.125 11.71875 -9.765625 
Q 6.640625 -7.8125 3.90625 -7.03125 
Q 6.640625 -1.5625 11.71875 8.984375 
Q 15.625 7.8125 20.3125 6.640625 
z
M 85.9375 10.15625 
Q 92.578125 -1.953125 94.140625 -5.46875 
Q 89.84375 -6.640625 86.328125 -8.59375 
Q 83.984375 -2.34375 78.515625 7.03125 
Q 81.25 8.203125 85.9375 10.15625 
z
M 41.796875 41.015625 
L 41.796875 46.875 
L 18.359375 46.875 
L 18.359375 41.015625 
z
M 62.890625 8.59375 
Q 65.625 -1.953125 66.40625 -5.859375 
L 58.59375 -7.421875 
Q 57.421875 -3.90625 55.46875 7.421875 
Q 58.59375 8.203125 62.890625 8.59375 
z
M 39.84375 7.421875 
Q 40.234375 3.90625 42.578125 -6.640625 
Q 38.671875 -6.640625 34.375 -7.8125 
Q 33.59375 -3.125 32.03125 6.640625 
Q 35.15625 7.421875 39.84375 7.421875 
z
" id="SimHei-718a"/>
    </defs>
    <g style="fill:#800080;" transform="translate(235.061813 295.570823)rotate(-12.739652)scale(0.12 -0.12)">
     <use xlink:href="#SimHei-63"/>
     <use x="50" xlink:href="#SimHei-6f"/>
     <use x="100" xlink:href="#SimHei-69"/>
     <use x="150" xlink:href="#SimHei-6e"/>
     <use x="200" xlink:href="#SimHei-73"/>
     <use x="250" xlink:href="#SimHei-20"/>
     <use x="300" xlink:href="#SimHei-6f"/>
     <use x="350" xlink:href="#SimHei-66"/>
     <use x="400" xlink:href="#SimHei-20"/>
     <use x="450" xlink:href="#SimHei-5927"/>
     <use x="550" xlink:href="#SimHei-718a"/>
    </g>
   </g>
   <g id="Line3DCollection_1">
    <path d="M 325.649087 236.002984 
L 209.876104 187.422284 
L 210.363217 43.086674 
" style="fill:none;stroke:#b0b0b0;stroke-width:0.8;"/>
    <path d="M 305.615951 240.532216 
L 190.60155 191.299522 
L 190.43149 46.137256 
" style="fill:none;stroke:#b0b0b0;stroke-width:0.8;"/>
    <path d="M 285.302458 245.124834 
L 171.077619 195.226923 
L 170.232989 49.228668 
" style="fill:none;stroke:#b0b0b0;stroke-width:0.8;"/>
    <path d="M 264.70268 249.782177 
L 151.299439 199.205469 
L 149.762321 52.361736 
" style="fill:none;stroke:#b0b0b0;stroke-width:0.8;"/>
    <path d="M 243.810523 254.505623 
L 131.262013 203.236164 
L 129.013948 55.537307 
" style="fill:none;stroke:#b0b0b0;stroke-width:0.8;"/>
    <path d="M 222.619718 259.29659 
L 110.960209 207.320041 
L 107.982181 58.756252 
" style="fill:none;stroke:#b0b0b0;stroke-width:0.8;"/>
    <path d="M 201.123814 264.156536 
L 90.38876 211.458159 
L 86.661174 62.019466 
" style="fill:none;stroke:#b0b0b0;stroke-width:0.8;"/>
    <path d="M 179.316176 269.086961 
L 69.542258 215.651607 
L 65.044918 65.327868 
" style="fill:none;stroke:#b0b0b0;stroke-width:0.8;"/>
   </g>
   <g id="xtick_1">
    <g id="line2d_2">
     <path d="M 324.648958 235.583309 
L 327.653217 236.843957 
" style="fill:none;stroke:#000000;stroke-linecap:square;stroke-width:0.8;"/>
    </g>
    <g id="text_2">
     <!-- 0 -->
     <defs>
      <path d="M 3.125 29.296875 
Q 3.90625 50 6.4375 56.046875 
Q 8.984375 62.109375 13.671875 66.015625 
Q 18.359375 69.921875 25.1875 69.921875 
Q 32.03125 69.921875 37.109375 64.25 
Q 42.1875 58.59375 43.75 50 
Q 45.3125 41.40625 44.71875 30.265625 
Q 44.140625 19.140625 40.8125 12.109375 
Q 37.5 5.078125 30.859375 2.34375 
Q 24.21875 -0.390625 17.578125 2.921875 
Q 10.9375 6.25 8.203125 11.71875 
Q 5.46875 17.1875 4.296875 23.234375 
Q 3.125 29.296875 3.90625 50 
z
M 12.890625 52.734375 
Q 10.546875 31.25 12.5 22.84375 
Q 14.453125 14.453125 18.9375 10.9375 
Q 23.4375 7.421875 28.125 9.5625 
Q 32.8125 11.71875 34.953125 18.15625 
Q 37.109375 24.609375 37.109375 32.21875 
Q 37.109375 39.84375 36.515625 46.09375 
Q 35.9375 52.34375 33 57.421875 
Q 30.078125 62.5 25.1875 62.6875 
Q 20.3125 62.890625 16.59375 57.8125 
Q 12.890625 52.734375 10.546875 31.25 
z
" id="SimHei-30"/>
     </defs>
     <g transform="translate(330.134125 260.095778)scale(0.15 -0.15)">
      <use xlink:href="#SimHei-30"/>
     </g>
    </g>
   </g>
   <g id="xtick_2">
    <g id="line2d_3">
     <path d="M 304.621865 240.106691 
L 307.607998 241.384926 
" style="fill:none;stroke:#000000;stroke-linecap:square;stroke-width:0.8;"/>
    </g>
    <g id="text_3">
     <!-- 2 -->
     <defs>
      <path d="M 4.6875 3.90625 
Q 5.078125 9.765625 10.15625 14.453125 
Q 15.234375 19.140625 23.046875 29.09375 
Q 30.859375 39.0625 33.203125 44.53125 
Q 35.546875 50 34.953125 53.90625 
Q 34.375 57.8125 31.25 60.34375 
Q 28.125 62.890625 24.015625 62.5 
Q 19.921875 62.109375 16.203125 59.375 
Q 12.5 56.640625 10.546875 51.171875 
L 3.125 52.34375 
Q 6.25 61.328125 11.125 65.421875 
Q 16.015625 69.53125 22.65625 69.921875 
Q 26.5625 70.3125 29.6875 69.71875 
Q 32.8125 69.140625 36.125 66.984375 
Q 39.453125 64.84375 41.59375 60.546875 
Q 43.75 56.25 43.15625 50.1875 
Q 42.578125 44.140625 37.109375 35.734375 
Q 31.640625 27.34375 16.015625 9.375 
L 44.140625 9.375 
L 44.140625 2.34375 
L 4.6875 2.34375 
z
" id="SimHei-32"/>
     </defs>
     <g transform="translate(310.096382 264.735082)scale(0.15 -0.15)">
      <use xlink:href="#SimHei-32"/>
     </g>
    </g>
   </g>
   <g id="xtick_3">
    <g id="line2d_4">
     <path d="M 284.314682 244.693335 
L 287.281886 245.989527 
" style="fill:none;stroke:#000000;stroke-linecap:square;stroke-width:0.8;"/>
    </g>
    <g id="text_4">
     <!-- 4 -->
     <defs>
      <path d="M 31.25 17.1875 
L 1.171875 17.1875 
L 1.171875 23.828125 
L 32.8125 69.53125 
L 38.671875 69.53125 
L 38.671875 23.828125 
L 48.046875 23.828125 
L 48.046875 17.1875 
L 38.671875 17.1875 
L 38.671875 2.34375 
L 31.25 2.34375 
z
M 31.25 23.828125 
L 31.25 54.6875 
L 9.375 23.828125 
z
" id="SimHei-34"/>
     </defs>
     <g transform="translate(289.777342 269.439513)scale(0.15 -0.15)">
      <use xlink:href="#SimHei-34"/>
     </g>
    </g>
   </g>
   <g id="xtick_4">
    <g id="line2d_5">
     <path d="M 263.721492 249.344577 
L 266.668935 250.659107 
" style="fill:none;stroke:#000000;stroke-linecap:square;stroke-width:0.8;"/>
    </g>
    <g id="text_5">
     <!-- 6 -->
     <defs>
      <path d="M 3.515625 19.53125 
Q 4.296875 30.859375 6.046875 34.765625 
Q 7.8125 38.671875 11.328125 44.53125 
L 27.34375 69.53125 
L 36.328125 69.53125 
L 19.921875 43.75 
Q 30.46875 46.484375 36.71875 42.96875 
Q 42.96875 39.453125 45.109375 34.953125 
Q 47.265625 30.46875 47.453125 25.1875 
Q 47.65625 19.921875 45.890625 14.84375 
Q 44.140625 9.765625 39.640625 5.65625 
Q 35.15625 1.5625 27.140625 1.171875 
Q 19.140625 0.78125 13.46875 4.09375 
Q 7.8125 7.421875 5.65625 13.46875 
Q 3.515625 19.53125 4.296875 30.859375 
z
M 12.5 16.015625 
Q 19.53125 8.59375 25.390625 8.203125 
Q 31.25 7.8125 35.15625 12.109375 
Q 39.0625 16.40625 39.0625 24.609375 
Q 39.0625 32.8125 34.171875 35.9375 
Q 29.296875 39.0625 23.234375 38.28125 
Q 17.1875 37.5 14.453125 32.421875 
Q 11.71875 27.34375 12.109375 21.671875 
Q 12.5 16.015625 19.53125 8.59375 
z
" id="SimHei-36"/>
     </defs>
     <g transform="translate(269.171041 274.210454)scale(0.15 -0.15)">
      <use xlink:href="#SimHei-36"/>
     </g>
    </g>
   </g>
   <g id="xtick_5">
    <g id="line2d_6">
     <path d="M 242.83621 254.061792 
L 245.763028 255.395052 
" style="fill:none;stroke:#000000;stroke-linecap:square;stroke-width:0.8;"/>
    </g>
    <g id="text_6">
     <!-- 8 -->
     <defs>
      <path d="M 2.734375 16.796875 
Q 2.734375 26.171875 5.078125 30.65625 
Q 7.421875 35.15625 12.890625 37.890625 
Q 8.203125 40.625 6.640625 43.9375 
Q 5.078125 47.265625 4.875 51.5625 
Q 4.6875 55.859375 6.046875 58.984375 
Q 7.421875 62.109375 10.15625 64.84375 
Q 12.890625 67.578125 16.203125 68.546875 
Q 19.53125 69.53125 23.4375 69.53125 
Q 27.34375 69.53125 30.46875 68.75 
Q 33.59375 67.96875 37.109375 65.421875 
Q 40.625 62.890625 42.1875 58.203125 
Q 43.75 53.515625 41.984375 47.265625 
Q 40.234375 41.015625 32.8125 37.5 
Q 39.453125 35.546875 42.1875 31.4375 
Q 44.921875 27.34375 44.921875 21.484375 
Q 44.921875 15.625 43.15625 12.109375 
Q 41.40625 8.59375 39.25 6.25 
Q 37.109375 3.90625 33.390625 2.53125 
Q 29.6875 1.171875 24.015625 1.171875 
Q 18.359375 1.171875 14.25 2.53125 
Q 10.15625 3.90625 7.421875 6.640625 
Q 4.6875 9.375 3.703125 13.078125 
Q 2.734375 16.796875 2.734375 26.171875 
z
M 10.9375 26.5625 
Q 10.546875 17.1875 12.296875 13.671875 
Q 14.0625 10.15625 18.75 9.171875 
Q 23.4375 8.203125 28.515625 9.375 
Q 33.59375 10.546875 35.546875 14.84375 
Q 37.5 19.140625 36.90625 23.4375 
Q 36.328125 27.734375 32.03125 30.65625 
Q 27.734375 33.59375 22.65625 33.203125 
Q 17.578125 32.8125 14.25 29.6875 
Q 10.9375 26.5625 10.546875 17.1875 
z
M 12.109375 56.25 
Q 12.109375 48.4375 14.84375 44.921875 
Q 17.578125 41.40625 23.4375 41.40625 
Q 29.296875 41.40625 32.21875 44.921875 
Q 35.15625 48.4375 34.953125 53.3125 
Q 34.765625 58.203125 31.4375 60.546875 
Q 28.125 62.890625 22.453125 62.5 
Q 16.796875 62.109375 14.453125 59.171875 
Q 12.109375 56.25 12.109375 48.4375 
z
" id="SimHei-38"/>
     </defs>
     <g transform="translate(248.271344 279.049324)scale(0.15 -0.15)">
      <use xlink:href="#SimHei-38"/>
     </g>
    </g>
   </g>
   <g id="xtick_6">
    <g id="line2d_7">
     <path d="M 221.652577 258.846394 
L 224.557878 260.198787 
" style="fill:none;stroke:#000000;stroke-linecap:square;stroke-width:0.8;"/>
    </g>
    <g id="text_7">
     <!-- 10 -->
     <defs>
      <path d="M 21.875 56.25 
Q 16.796875 51.171875 8.984375 46.484375 
L 8.984375 53.90625 
Q 18.75 60.546875 25 69.53125 
L 29.6875 69.53125 
L 29.6875 2.34375 
L 21.875 2.34375 
z
" id="SimHei-31"/>
     </defs>
     <g transform="translate(223.321939 283.957585)scale(0.15 -0.15)">
      <use xlink:href="#SimHei-31"/>
      <use x="50" xlink:href="#SimHei-30"/>
     </g>
    </g>
   </g>
   <g id="xtick_7">
    <g id="line2d_8">
     <path d="M 200.164153 263.699837 
L 203.047012 265.071778 
" style="fill:none;stroke:#000000;stroke-linecap:square;stroke-width:0.8;"/>
    </g>
    <g id="text_8">
     <!-- 12 -->
     <g transform="translate(201.816333 288.936741)scale(0.15 -0.15)">
      <use xlink:href="#SimHei-31"/>
      <use x="50" xlink:href="#SimHei-32"/>
     </g>
    </g>
   </g>
   <g id="xtick_8">
    <g id="line2d_9">
     <path d="M 178.364314 268.623617 
L 181.22377 270.015533 
" style="fill:none;stroke:#000000;stroke-linecap:square;stroke-width:0.8;"/>
    </g>
    <g id="text_9">
     <!-- 14 -->
     <g transform="translate(179.997844 293.988337)scale(0.15 -0.15)">
      <use xlink:href="#SimHei-31"/>
      <use x="50" xlink:href="#SimHei-34"/>
     </g>
    </g>
   </g>
  </g>
  <g id="axis3d_2">
   <g id="line2d_10">
    <path d="M 58.794045 217.8137 
L 168.062833 271.631196 
" style="fill:none;stroke:#000000;stroke-linecap:square;stroke-width:0.8;"/>
   </g>
   <g id="text_10">
    <!-- coins of 胖虎 -->
    <defs>
     <path d="M 21.484375 1.953125 
Q 25.78125 1.5625 28.515625 1.75 
Q 31.25 1.953125 31.640625 7.03125 
L 31.640625 26.171875 
L 18.359375 26.171875 
Q 16.796875 14.453125 14.453125 5.859375 
Q 12.109375 -2.734375 10.15625 -7.03125 
Q 6.640625 -3.90625 3.125 -2.734375 
Q 6.640625 2.734375 8.78125 10.34375 
Q 10.9375 17.96875 11.71875 30.859375 
L 11.71875 64.453125 
Q 11.71875 71.09375 11.328125 76.953125 
L 38.671875 76.953125 
Q 38.28125 69.140625 38.28125 61.328125 
L 38.28125 1.953125 
Q 38.28125 -6.25 23.4375 -7.03125 
Q 23.046875 -3.125 21.484375 1.953125 
z
M 64.453125 45.3125 
L 64.453125 69.140625 
Q 64.453125 73.828125 63.671875 79.296875 
L 72.265625 79.296875 
Q 71.875 74.21875 71.875 69.140625 
L 71.875 45.3125 
L 82.421875 45.3125 
Q 85.9375 45.3125 91.796875 45.703125 
L 91.796875 38.671875 
Q 88.28125 39.0625 82.421875 39.0625 
L 71.875 39.0625 
L 71.875 23.4375 
L 84.765625 23.4375 
Q 91.015625 23.4375 96.09375 23.828125 
L 96.09375 16.796875 
Q 90.234375 17.1875 84.765625 17.1875 
L 71.875 17.1875 
L 71.875 3.90625 
Q 71.875 -2.34375 72.265625 -8.984375 
L 64.0625 -8.984375 
Q 64.453125 -2.734375 64.453125 3.90625 
L 64.453125 17.1875 
L 53.90625 17.1875 
Q 48.4375 17.1875 42.578125 16.796875 
L 42.578125 23.828125 
Q 48.046875 23.4375 54.296875 23.4375 
L 64.453125 23.4375 
L 64.453125 39.0625 
L 53.90625 39.0625 
Q 48.4375 39.0625 43.359375 38.671875 
L 43.359375 45.703125 
Q 48.4375 45.3125 53.515625 45.3125 
z
M 31.640625 32.8125 
L 31.640625 48.828125 
L 18.75 48.828125 
L 18.75 32.8125 
z
M 31.640625 55.078125 
L 31.640625 70.703125 
L 18.75 70.703125 
L 18.75 55.078125 
z
M 51.5625 51.953125 
Q 50 58.984375 44.921875 71.09375 
L 51.171875 74.21875 
Q 55.859375 63.28125 58.59375 54.6875 
Q 54.296875 53.515625 51.5625 51.953125 
z
M 77.34375 53.90625 
Q 83.984375 67.96875 84.765625 73.4375 
Q 88.671875 71.875 92.578125 70.703125 
Q 90.625 67.96875 88.671875 62.890625 
Q 86.71875 57.8125 84.375 51.953125 
Q 80.859375 53.90625 77.34375 53.90625 
z
" id="SimHei-80d6"/>
     <path d="M 25.78125 45.703125 
Q 33.203125 46.09375 44.140625 46.875 
L 44.140625 56.640625 
L 20.703125 56.640625 
Q 20.703125 31.640625 20.109375 23.4375 
Q 19.53125 15.234375 17.578125 8 
Q 15.625 0.78125 10.9375 -7.8125 
Q 7.8125 -5.46875 3.125 -3.90625 
Q 7.03125 0.78125 9.171875 6.828125 
Q 11.328125 12.890625 12.109375 18.75 
Q 12.890625 24.609375 13.078125 30.265625 
Q 13.28125 35.9375 13.28125 42.96875 
Q 13.28125 50.390625 12.890625 62.5 
L 44.140625 62.5 
L 44.140625 74.609375 
Q 44.140625 77.34375 43.359375 82.421875 
L 51.953125 82.421875 
Q 51.5625 78.515625 51.5625 75.390625 
L 71.09375 75.390625 
Q 76.171875 75.390625 84.765625 76.171875 
L 84.765625 69.53125 
Q 76.171875 69.921875 70.703125 69.921875 
L 51.171875 69.921875 
L 51.171875 62.5 
L 93.75 62.5 
Q 92.1875 57.8125 89.84375 46.875 
Q 85.15625 48.046875 82.03125 48.4375 
Q 83.984375 52.734375 85.15625 56.640625 
L 51.171875 56.640625 
L 51.171875 47.65625 
Q 65.234375 49.21875 74.21875 50.78125 
L 75 44.140625 
Q 64.0625 42.96875 51.171875 41.40625 
L 51.171875 36.71875 
Q 51.171875 33.203125 57.421875 33.203125 
L 70.3125 33.203125 
Q 75 32.8125 76.359375 34.5625 
Q 77.734375 36.328125 78.515625 41.015625 
Q 81.640625 39.0625 86.71875 37.109375 
Q 84.765625 30.859375 82.03125 29.09375 
Q 79.296875 27.34375 73.828125 27.34375 
L 54.296875 27.34375 
Q 44.140625 27.34375 44.140625 33.59375 
L 44.140625 41.015625 
Q 36.328125 40.234375 27.34375 39.0625 
Q 26.5625 42.578125 25.78125 45.703125 
z
M 71.09375 22.265625 
Q 70.703125 16.796875 70.703125 10.9375 
L 70.703125 2.34375 
Q 70.703125 -1.953125 75 -1.953125 
L 81.25 -1.953125 
Q 85.9375 -1.953125 86.71875 0.78125 
Q 87.5 3.515625 87.5 7.421875 
Q 91.40625 5.078125 96.09375 4.296875 
Q 93.359375 -3.90625 91.59375 -5.859375 
Q 89.84375 -7.8125 85.15625 -7.8125 
L 72.65625 -7.8125 
Q 63.671875 -7.8125 63.671875 -1.171875 
L 63.671875 16.40625 
L 45.3125 16.40625 
Q 45.3125 4.6875 41.203125 -0.578125 
Q 37.109375 -5.859375 26.171875 -10.546875 
Q 25 -6.640625 21.484375 -3.515625 
Q 35.9375 0.78125 37.109375 7.421875 
Q 38.28125 14.0625 37.890625 22.265625 
L 71.09375 22.265625 
z
" id="SimHei-864e"/>
    </defs>
    <g style="fill:#800080;" transform="translate(49.092792 257.912399)rotate(-333.778649)scale(0.12 -0.12)">
     <use xlink:href="#SimHei-63"/>
     <use x="50" xlink:href="#SimHei-6f"/>
     <use x="100" xlink:href="#SimHei-69"/>
     <use x="150" xlink:href="#SimHei-6e"/>
     <use x="200" xlink:href="#SimHei-73"/>
     <use x="250" xlink:href="#SimHei-20"/>
     <use x="300" xlink:href="#SimHei-6f"/>
     <use x="350" xlink:href="#SimHei-66"/>
     <use x="400" xlink:href="#SimHei-20"/>
     <use x="450" xlink:href="#SimHei-80d6"/>
     <use x="550" xlink:href="#SimHei-864e"/>
    </g>
   </g>
   <g id="Line3DCollection_2">
    <path d="M 227.548604 43.791556 
L 226.494241 188.318329 
L 65.235235 220.98614 
" style="fill:none;stroke:#b0b0b0;stroke-width:0.8;"/>
    <path d="M 241.688876 48.257402 
L 240.154088 193.993191 
L 78.043534 227.294534 
" style="fill:none;stroke:#b0b0b0;stroke-width:0.8;"/>
    <path d="M 256.106644 52.810887 
L 254.072998 199.775679 
L 91.108144 233.729167 
" style="fill:none;stroke:#b0b0b0;stroke-width:0.8;"/>
    <path d="M 270.810156 57.454617 
L 268.25841 205.668883 
L 104.436836 240.293868 
" style="fill:none;stroke:#b0b0b0;stroke-width:0.8;"/>
    <path d="M 285.807992 62.191302 
L 282.718053 211.676014 
L 118.0377 246.992619 
" style="fill:none;stroke:#b0b0b0;stroke-width:0.8;"/>
    <path d="M 301.10908 67.023762 
L 297.459956 217.800407 
L 131.919157 253.829569 
" style="fill:none;stroke:#b0b0b0;stroke-width:0.8;"/>
    <path d="M 316.722709 71.95493 
L 312.492466 224.045531 
L 146.089982 260.80904 
" style="fill:none;stroke:#b0b0b0;stroke-width:0.8;"/>
    <path d="M 332.658556 76.987861 
L 327.824262 230.41499 
L 160.559317 267.935534 
" style="fill:none;stroke:#b0b0b0;stroke-width:0.8;"/>
   </g>
   <g id="xtick_9">
    <g id="line2d_11">
     <path d="M 66.594479 220.710784 
L 62.513215 221.537566 
" style="fill:none;stroke:#000000;stroke-linecap:square;stroke-width:0.8;"/>
    </g>
    <g id="text_11">
     <!-- 0 -->
     <g transform="translate(50.195232 243.623733)scale(0.15 -0.15)">
      <use xlink:href="#SimHei-30"/>
     </g>
    </g>
   </g>
   <g id="xtick_10">
    <g id="line2d_12">
     <path d="M 79.410645 227.013697 
L 75.305726 227.856945 
" style="fill:none;stroke:#000000;stroke-linecap:square;stroke-width:0.8;"/>
    </g>
    <g id="text_12">
     <!-- 2 -->
     <g transform="translate(62.908596 250.062791)scale(0.15 -0.15)">
      <use xlink:href="#SimHei-32"/>
     </g>
    </g>
   </g>
   <g id="xtick_11">
    <g id="line2d_13">
     <path d="M 92.483165 233.442684 
L 88.354458 234.302894 
" style="fill:none;stroke:#000000;stroke-linecap:square;stroke-width:0.8;"/>
    </g>
    <g id="text_13">
     <!-- 4 -->
     <g transform="translate(75.876714 256.630876)scale(0.15 -0.15)">
      <use xlink:href="#SimHei-34"/>
     </g>
    </g>
   </g>
   <g id="xtick_12">
    <g id="line2d_14">
     <path d="M 105.81981 240.001565 
L 101.667187 240.879255 
" style="fill:none;stroke:#000000;stroke-linecap:square;stroke-width:0.8;"/>
    </g>
    <g id="text_14">
     <!-- 6 -->
     <g transform="translate(89.10732 263.331906)scale(0.15 -0.15)">
      <use xlink:href="#SimHei-36"/>
     </g>
    </g>
   </g>
   <g id="xtick_13">
    <g id="line2d_15">
     <path d="M 119.428666 246.694319 
L 115.252006 247.590026 
" style="fill:none;stroke:#000000;stroke-linecap:square;stroke-width:0.8;"/>
    </g>
    <g id="text_15">
     <!-- 8 -->
     <g transform="translate(102.608465 270.169958)scale(0.15 -0.15)">
      <use xlink:href="#SimHei-38"/>
     </g>
    </g>
   </g>
   <g id="xtick_14">
    <g id="line2d_16">
     <path d="M 133.318153 253.525084 
L 129.117343 254.439371 
" style="fill:none;stroke:#000000;stroke-linecap:square;stroke-width:0.8;"/>
    </g>
    <g id="text_16">
     <!-- 10 -->
     <g transform="translate(112.638533 277.14928)scale(0.15 -0.15)">
      <use xlink:href="#SimHei-31"/>
      <use x="50" xlink:href="#SimHei-30"/>
     </g>
    </g>
   </g>
   <g id="xtick_15">
    <g id="line2d_17">
     <path d="M 147.497042 260.498176 
L 143.271977 261.431625 
" style="fill:none;stroke:#000000;stroke-linecap:square;stroke-width:0.8;"/>
    </g>
    <g id="text_17">
     <!-- 12 -->
     <g transform="translate(126.706257 284.274293)scale(0.15 -0.15)">
      <use xlink:href="#SimHei-31"/>
      <use x="50" xlink:href="#SimHei-32"/>
     </g>
    </g>
   </g>
   <g id="xtick_16">
    <g id="line2d_18">
     <path d="M 161.974472 267.618089 
L 157.725058 268.57131 
" style="fill:none;stroke:#000000;stroke-linecap:square;stroke-width:0.8;"/>
    </g>
    <g id="text_18">
     <!-- 14 -->
     <g transform="translate(141.07074 291.549608)scale(0.15 -0.15)">
      <use xlink:href="#SimHei-31"/>
      <use x="50" xlink:href="#SimHei-34"/>
     </g>
    </g>
   </g>
  </g>
  <g id="axis3d_3">
   <g id="line2d_19">
    <path d="M 58.794045 217.8137 
L 53.895826 67.034254 
" style="fill:none;stroke:#000000;stroke-linecap:square;stroke-width:0.8;"/>
   </g>
   <g id="text_19">
    <!-- coins of 静香 -->
    <defs>
     <path d="M 67.578125 78.90625 
Q 65.625 76.5625 64.640625 74.40625 
Q 63.671875 72.265625 62.890625 70.3125 
L 84.375 70.3125 
Q 82.03125 66.796875 80.078125 62.296875 
Q 78.125 57.8125 75.78125 52.734375 
L 90.234375 52.734375 
Q 89.84375 47.265625 89.84375 41.015625 
L 89.84375 36.71875 
Q 93.359375 36.71875 96.875 37.109375 
L 96.875 30.46875 
Q 94.140625 30.859375 89.84375 30.859375 
L 89.84375 25.390625 
Q 89.84375 17.578125 90.234375 10.546875 
L 83.203125 10.546875 
L 83.203125 14.84375 
L 72.265625 14.84375 
L 72.265625 0.390625 
Q 71.875 -4.6875 68.9375 -6.640625 
Q 66.015625 -8.59375 56.25 -9.375 
Q 56.25 -5.46875 53.90625 -1.171875 
Q 58.984375 -1.5625 62.296875 -1.171875 
Q 65.625 -0.78125 65.625 2.734375 
L 65.625 14.84375 
L 60.15625 14.84375 
Q 55.46875 14.84375 50.390625 14.453125 
L 50.390625 20.703125 
Q 55.078125 20.3125 60.15625 20.3125 
L 65.625 20.3125 
L 65.625 30.859375 
L 59.765625 30.859375 
Q 54.6875 30.859375 48.046875 30.46875 
L 48.046875 36.71875 
Q 53.515625 36.328125 60.15625 36.328125 
L 65.625 36.328125 
L 65.625 47.265625 
L 60.15625 47.265625 
Q 57.8125 47.265625 51.953125 46.875 
L 51.953125 51.953125 
Q 50.78125 50.78125 48.828125 48.4375 
Q 46.875 51.5625 44.140625 53.90625 
Q 50.390625 60.15625 53.703125 68.15625 
Q 57.03125 76.171875 58.984375 82.03125 
Q 62.890625 80.078125 67.578125 78.90625 
z
M 42.96875 36.328125 
Q 42.578125 30.859375 42.578125 25 
L 42.578125 1.171875 
Q 42.578125 -4.6875 39.453125 -6.25 
Q 36.328125 -7.8125 30.078125 -8.984375 
Q 29.6875 -5.46875 27.34375 -1.5625 
Q 36.328125 -1.5625 35.546875 1.953125 
L 35.546875 6.640625 
L 15.234375 6.640625 
L 15.234375 -8.203125 
L 8.203125 -8.203125 
Q 8.59375 -3.90625 8.59375 1.953125 
L 8.59375 25 
Q 8.59375 30.859375 8.203125 36.328125 
L 42.96875 36.328125 
z
M 21.875 71.09375 
Q 21.875 74.609375 21.484375 80.46875 
L 29.296875 80.46875 
Q 28.90625 74.609375 28.90625 71.09375 
L 33.984375 71.09375 
Q 39.453125 71.09375 46.875 71.484375 
L 46.875 65.234375 
Q 39.453125 65.625 33.984375 65.625 
L 28.90625 65.625 
L 28.90625 59.375 
L 33.984375 59.375 
Q 36.328125 59.375 42.578125 59.765625 
L 42.578125 53.515625 
Q 35.9375 53.90625 33.59375 53.90625 
L 28.90625 53.90625 
L 28.90625 47.65625 
L 35.15625 47.65625 
Q 40.625 47.65625 46.484375 48.046875 
L 46.484375 41.796875 
Q 40.234375 42.1875 35.15625 42.1875 
L 15.625 42.1875 
Q 9.375 42.1875 3.90625 41.796875 
L 3.90625 48.046875 
Q 9.375 47.65625 15.625 47.65625 
L 21.875 47.65625 
L 21.875 53.90625 
L 15.234375 53.90625 
Q 12.890625 53.90625 8.59375 53.515625 
L 8.59375 59.765625 
Q 12.890625 59.375 15.234375 59.375 
L 21.875 59.375 
L 21.875 65.625 
L 15.234375 65.625 
Q 10.15625 65.625 4.6875 65.234375 
L 4.6875 71.484375 
Q 10.15625 71.09375 15.234375 71.09375 
z
M 52.734375 53.515625 
Q 57.421875 53.125 64.453125 53.125 
L 68.359375 53.125 
Q 72.265625 61.328125 73.4375 64.84375 
L 60.15625 64.84375 
Q 55.078125 56.640625 52.734375 53.515625 
z
M 35.546875 12.109375 
L 35.546875 19.140625 
L 15.234375 19.140625 
L 15.234375 12.109375 
z
M 35.546875 24.609375 
L 35.546875 30.859375 
L 15.234375 30.859375 
L 15.234375 24.609375 
z
M 83.203125 36.328125 
L 83.203125 47.265625 
L 72.265625 47.265625 
L 72.265625 36.328125 
z
M 83.203125 20.3125 
L 83.203125 30.859375 
L 72.265625 30.859375 
L 72.265625 20.3125 
z
" id="SimHei-9759"/>
     <path d="M 45.703125 33.59375 
L 45.703125 53.90625 
Q 36.71875 44.140625 26.359375 38.28125 
Q 16.015625 32.421875 10.546875 30.078125 
Q 10.546875 33.203125 5.46875 36.71875 
Q 16.015625 39.453125 24.21875 44.53125 
Q 32.421875 49.609375 37.109375 54.296875 
L 21.484375 54.296875 
Q 14.84375 54.296875 7.8125 53.90625 
L 7.8125 60.15625 
Q 14.84375 59.765625 21.484375 59.765625 
L 45.703125 59.765625 
L 45.703125 69.921875 
Q 38.28125 69.140625 17.96875 67.578125 
Q 16.796875 71.09375 14.453125 74.609375 
Q 32.8125 74.609375 50.390625 76.953125 
Q 67.96875 79.296875 74.609375 82.03125 
Q 76.953125 78.125 81.25 73.828125 
Q 74.609375 73.4375 67.96875 72.65625 
Q 61.328125 71.875 52.34375 70.703125 
L 52.34375 59.765625 
L 78.125 59.765625 
Q 83.984375 59.765625 91.40625 60.15625 
L 91.40625 53.90625 
Q 84.375 54.296875 78.125 54.296875 
L 61.71875 54.296875 
Q 66.40625 48.4375 74.21875 43.15625 
Q 82.03125 37.890625 94.140625 34.765625 
Q 89.84375 31.640625 88.28125 26.953125 
Q 82.421875 29.296875 77.34375 32.03125 
Q 76.5625 25 76.5625 12.5 
Q 76.5625 -0.78125 76.953125 -8.984375 
L 69.53125 -8.984375 
L 69.53125 -3.125 
L 28.515625 -3.125 
L 28.515625 -9.375 
L 21.875 -9.375 
L 21.875 11.71875 
Q 21.875 25 21.484375 33.59375 
z
M 69.53125 17.96875 
L 69.53125 27.734375 
L 28.515625 27.734375 
L 28.515625 17.96875 
z
M 69.53125 2.734375 
L 69.53125 12.5 
L 28.515625 12.5 
L 28.515625 2.734375 
z
M 71.484375 35.9375 
Q 62.109375 42.578125 52.734375 54.296875 
L 52.34375 54.296875 
L 52.34375 33.59375 
L 75 33.59375 
z
" id="SimHei-9999"/>
    </defs>
    <g style="fill:#800080;" transform="translate(10.565293 102.842551)rotate(-271.860655)scale(0.12 -0.12)">
     <use xlink:href="#SimHei-63"/>
     <use x="50" xlink:href="#SimHei-6f"/>
     <use x="100" xlink:href="#SimHei-69"/>
     <use x="150" xlink:href="#SimHei-6e"/>
     <use x="200" xlink:href="#SimHei-73"/>
     <use x="250" xlink:href="#SimHei-20"/>
     <use x="300" xlink:href="#SimHei-6f"/>
     <use x="350" xlink:href="#SimHei-66"/>
     <use x="400" xlink:href="#SimHei-20"/>
     <use x="450" xlink:href="#SimHei-9759"/>
     <use x="550" xlink:href="#SimHei-9999"/>
    </g>
   </g>
   <g id="Line3DCollection_3">
    <path d="M 58.492454 208.529967 
L 219.669895 176.585888 
L 336.085066 224.233899 
" style="fill:none;stroke:#b0b0b0;stroke-width:0.8;"/>
    <path d="M 57.897709 190.222231 
L 219.769111 159.08724 
L 336.710174 205.533478 
" style="fill:none;stroke:#b0b0b0;stroke-width:0.8;"/>
    <path d="M 57.297781 171.754931 
L 219.869148 141.443949 
L 337.340869 186.665935 
" style="fill:none;stroke:#b0b0b0;stroke-width:0.8;"/>
    <path d="M 56.692601 153.125973 
L 219.970014 123.654212 
L 337.977226 167.629019 
" style="fill:none;stroke:#b0b0b0;stroke-width:0.8;"/>
    <path d="M 56.0821 134.333224 
L 220.071722 105.716199 
L 338.619321 148.42044 
" style="fill:none;stroke:#b0b0b0;stroke-width:0.8;"/>
    <path d="M 55.466207 115.374514 
L 220.17428 87.628049 
L 339.267233 129.037865 
" style="fill:none;stroke:#b0b0b0;stroke-width:0.8;"/>
    <path d="M 54.844852 96.247636 
L 220.277701 69.387869 
L 339.92104 109.478918 
" style="fill:none;stroke:#b0b0b0;stroke-width:0.8;"/>
    <path d="M 54.21796 76.950341 
L 220.381995 50.993734 
L 340.580823 89.741182 
" style="fill:none;stroke:#b0b0b0;stroke-width:0.8;"/>
   </g>
   <g id="xtick_17">
    <g id="line2d_20">
     <path d="M 59.850818 208.26075 
L 55.772207 209.069099 
" style="fill:none;stroke:#000000;stroke-linecap:square;stroke-width:0.8;"/>
    </g>
    <g id="text_20">
     <!-- 0 -->
     <g transform="translate(36.319991 217.800274)scale(0.15 -0.15)">
      <use xlink:href="#SimHei-30"/>
     </g>
    </g>
   </g>
   <g id="xtick_18">
    <g id="line2d_21">
     <path d="M 59.262222 189.959775 
L 55.165133 190.747826 
" style="fill:none;stroke:#000000;stroke-linecap:square;stroke-width:0.8;"/>
    </g>
    <g id="text_21">
     <!-- 2 -->
     <g transform="translate(35.646444 199.518717)scale(0.15 -0.15)">
      <use xlink:href="#SimHei-32"/>
     </g>
    </g>
   </g>
   <g id="xtick_19">
    <g id="line2d_22">
     <path d="M 58.668498 171.499365 
L 54.552763 172.266732 
" style="fill:none;stroke:#000000;stroke-linecap:square;stroke-width:0.8;"/>
    </g>
    <g id="text_22">
     <!-- 4 -->
     <g transform="translate(34.967036 181.078092)scale(0.15 -0.15)">
      <use xlink:href="#SimHei-34"/>
     </g>
    </g>
   </g>
   <g id="xtick_20">
    <g id="line2d_23">
     <path d="M 58.069579 152.877427 
L 53.935029 153.623718 
" style="fill:none;stroke:#000000;stroke-linecap:square;stroke-width:0.8;"/>
    </g>
    <g id="text_23">
     <!-- 6 -->
     <g transform="translate(34.281691 162.476316)scale(0.15 -0.15)">
      <use xlink:href="#SimHei-36"/>
     </g>
    </g>
   </g>
   <g id="xtick_21">
    <g id="line2d_24">
     <path d="M 57.465397 134.091831 
L 53.311858 134.816645 
" style="fill:none;stroke:#000000;stroke-linecap:square;stroke-width:0.8;"/>
    </g>
    <g id="text_24">
     <!-- 8 -->
     <g transform="translate(33.590331 143.711265)scale(0.15 -0.15)">
      <use xlink:href="#SimHei-38"/>
     </g>
    </g>
   </g>
   <g id="xtick_22">
    <g id="line2d_25">
     <path d="M 56.855881 115.140412 
L 52.683179 115.843338 
" style="fill:none;stroke:#000000;stroke-linecap:square;stroke-width:0.8;"/>
    </g>
    <g id="text_25">
     <!-- 10 -->
     <g transform="translate(29.142875 124.780781)scale(0.15 -0.15)">
      <use xlink:href="#SimHei-31"/>
      <use x="50" xlink:href="#SimHei-30"/>
     </g>
    </g>
   </g>
   <g id="xtick_23">
    <g id="line2d_26">
     <path d="M 56.240962 96.020962 
L 52.048919 96.701585 
" style="fill:none;stroke:#000000;stroke-linecap:square;stroke-width:0.8;"/>
    </g>
    <g id="text_26">
     <!-- 12 -->
     <g transform="translate(28.439244 105.682667)scale(0.15 -0.15)">
      <use xlink:href="#SimHei-31"/>
      <use x="50" xlink:href="#SimHei-32"/>
     </g>
    </g>
   </g>
   <g id="xtick_24">
    <g id="line2d_27">
     <path d="M 55.620566 76.731239 
L 51.409002 77.389131 
" style="fill:none;stroke:#000000;stroke-linecap:square;stroke-width:0.8;"/>
    </g>
    <g id="text_27">
     <!-- 14 -->
     <g transform="translate(27.729354 86.414686)scale(0.15 -0.15)">
      <use xlink:href="#SimHei-31"/>
      <use x="50" xlink:href="#SimHei-34"/>
     </g>
    </g>
   </g>
  </g>
  <g id="axes_1">
   <g id="Path3DCollection_1">
    <defs>
     <path d="M 0 5 
C 1.326016 5 2.597899 4.473168 3.535534 3.535534 
C 4.473168 2.597899 5 1.326016 5 0 
C 5 -1.326016 4.473168 -2.597899 3.535534 -3.535534 
C 2.597899 -4.473168 1.326016 -5 0 -5 
C -1.326016 -5 -2.597899 -4.473168 -3.535534 -3.535534 
C -4.473168 -2.597899 -5 -1.326016 -5 0 
C -5 1.326016 -4.473168 2.597899 -3.535534 3.535534 
C -2.597899 4.473168 -1.326016 5 0 5 
z
" id="m74611d43a0" style="stroke:#008000;"/>
    </defs>
    <g clip-path="url(#pacf73c1a74)">
     <use style="fill:#008000;stroke:#008000;" x="214.396417" xlink:href="#m74611d43a0" y="68.076536"/>
    </g>
   </g>
   <g id="Path3DCollection_2">
    <path clip-path="url(#pacf73c1a74)" d="M 224.398551 64.77229 
C 226.421177 64.77229 228.361234 63.968692 229.791447 62.53848 
C 231.22166 61.108267 232.025258 59.16821 232.025258 57.145583 
C 232.025258 55.122957 231.22166 53.182899 229.791447 51.752686 
C 228.361234 50.322474 226.421177 49.518876 224.398551 49.518876 
C 222.375924 49.518876 220.435867 50.322474 219.005654 51.752686 
C 217.575441 53.182899 216.771843 55.122957 216.771843 57.145583 
C 216.771843 59.16821 217.575441 61.108267 219.005654 62.53848 
C 220.435867 63.968692 222.375924 64.77229 224.398551 64.77229 
z
" style="fill:#ff0000;stroke:#ff0000;"/>
    <path clip-path="url(#pacf73c1a74)" d="M 231.385035 78.437382 
C 233.937973 78.437382 236.386694 77.423089 238.191894 75.617888 
C 239.997094 73.812688 241.011387 71.363968 241.011387 68.811029 
C 241.011387 66.25809 239.997094 63.80937 238.191894 62.00417 
C 236.386694 60.19897 233.937973 59.184676 231.385035 59.184676 
C 228.832096 59.184676 226.383376 60.19897 224.578175 62.00417 
C 222.772975 63.80937 221.758682 66.25809 221.758682 68.811029 
C 221.758682 71.363968 222.772975 73.812688 224.578175 75.617888 
C 226.383376 77.423089 228.832096 78.437382 231.385035 78.437382 
z
" style="fill:#ff0000;stroke:#ff0000;"/>
    <path clip-path="url(#pacf73c1a74)" d="M 238.409492 87.173128 
C 240.16865 87.173128 241.855994 86.474207 243.099907 85.230295 
C 244.34382 83.986382 245.042741 82.299037 245.042741 80.539879 
C 245.042741 78.780721 244.34382 77.093376 243.099907 75.849463 
C 241.855994 74.60555 240.16865 73.906629 238.409492 73.906629 
C 236.650333 73.906629 234.962989 74.60555 233.719076 75.849463 
C 232.475163 77.093376 231.776242 78.780721 231.776242 80.539879 
C 231.776242 82.299037 232.475163 83.986382 233.719076 85.230295 
C 234.962989 86.474207 236.650333 87.173128 238.409492 87.173128 
z
" style="fill:#ff0000;stroke:#ff0000;"/>
    <path clip-path="url(#pacf73c1a74)" d="M 245.472232 96.786114 
C 246.653304 96.786114 247.786161 96.316869 248.621306 95.481725 
C 249.45645 94.646581 249.925695 93.513723 249.925695 92.332651 
C 249.925695 91.151579 249.45645 90.018721 248.621306 89.183577 
C 247.786161 88.348433 246.653304 87.879188 245.472232 87.879188 
C 244.291159 87.879188 243.158302 88.348433 242.323158 89.183577 
C 241.488013 90.018721 241.018769 91.151579 241.018769 92.332651 
C 241.018769 93.513723 241.488013 94.646581 242.323158 95.481725 
C 243.158302 96.316869 244.291159 96.786114 245.472232 96.786114 
z
" style="fill:#ff0000;stroke:#ff0000;"/>
    <path clip-path="url(#pacf73c1a74)" d="M 252.573569 107.455855 
C 253.439718 107.455855 254.270509 107.11173 254.88297 106.49927 
C 255.49543 105.88681 255.839555 105.056019 255.839555 104.189869 
C 255.839555 103.323719 255.49543 102.492928 254.88297 101.880468 
C 254.270509 101.268008 253.439718 100.923883 252.573569 100.923883 
C 251.707419 100.923883 250.876628 101.268008 250.264168 101.880468 
C 249.651707 102.492928 249.307582 103.323719 249.307582 104.189869 
C 249.307582 105.056019 249.651707 105.88681 250.264168 106.49927 
C 250.876628 107.11173 251.707419 107.455855 252.573569 107.455855 
z
" style="fill:#ff0000;stroke:#ff0000;"/>
    <path clip-path="url(#pacf73c1a74)" d="M 259.71382 118.694052 
C 260.398572 118.694052 261.05537 118.421997 261.539562 117.937805 
C 262.023754 117.453613 262.295809 116.796815 262.295809 116.112063 
C 262.295809 115.427312 262.023754 114.770514 261.539562 114.286321 
C 261.05537 113.802129 260.398572 113.530074 259.71382 113.530074 
C 259.029069 113.530074 258.372271 113.802129 257.888078 114.286321 
C 257.403886 114.770514 257.131831 115.427312 257.131831 116.112063 
C 257.131831 116.796815 257.403886 117.453613 257.888078 117.937805 
C 258.372271 118.421997 259.029069 118.694052 259.71382 118.694052 
z
" style="fill:#ff0000;stroke:#ff0000;"/>
    <path clip-path="url(#pacf73c1a74)" d="M 266.893307 130.057659 
C 267.412545 130.057659 267.910587 129.851363 268.277744 129.484206 
C 268.644901 129.117049 268.851197 128.619007 268.851197 128.099769 
C 268.851197 127.58053 268.644901 127.082488 268.277744 126.715331 
C 267.910587 126.348174 267.412545 126.141879 266.893307 126.141879 
C 266.374068 126.141879 265.876026 126.348174 265.508869 126.715331 
C 265.141712 127.082488 264.935417 127.58053 264.935417 128.099769 
C 264.935417 128.619007 265.141712 129.117049 265.508869 129.484206 
C 265.876026 129.851363 266.374068 130.057659 266.893307 130.057659 
z
" style="fill:#ff0000;stroke:#ff0000;"/>
    <path clip-path="url(#pacf73c1a74)" d="M 274.112353 141.681052 
C 274.517457 141.681052 274.906024 141.520103 275.192476 141.233651 
C 275.478928 140.947199 275.639878 140.558632 275.639878 140.153527 
C 275.639878 139.748423 275.478928 139.359856 275.192476 139.073404 
C 274.906024 138.786952 274.517457 138.626002 274.112353 138.626002 
C 273.707248 138.626002 273.318681 138.786952 273.032229 139.073404 
C 272.745777 139.359856 272.584827 139.748423 272.584827 140.153527 
C 272.584827 140.558632 272.745777 140.947199 273.032229 141.233651 
C 273.318681 141.520103 273.707248 141.681052 274.112353 141.681052 
z
" style="fill:#ff0000;stroke:#ff0000;"/>
    <path clip-path="url(#pacf73c1a74)" d="M 281.371286 153.090383 
C 281.587823 153.090383 281.795521 153.004351 281.948636 152.851236 
C 282.101751 152.698121 282.187782 152.490423 282.187782 152.273886 
C 282.187782 152.057349 282.101751 151.849651 281.948636 151.696536 
C 281.795521 151.543421 281.587823 151.457389 281.371286 151.457389 
C 281.154748 151.457389 280.947051 151.543421 280.793936 151.696536 
C 280.64082 151.849651 280.554789 152.057349 280.554789 152.273886 
C 280.554789 152.490423 280.64082 152.698121 280.793936 152.851236 
C 280.947051 153.004351 281.154748 153.090383 281.371286 153.090383 
z
" style="fill:#ff0000;stroke:#ff0000;"/>
    <path clip-path="url(#pacf73c1a74)" d="M 288.670438 165.37427 
C 288.912534 165.37427 289.144747 165.278084 289.315935 165.106896 
C 289.487123 164.935708 289.583309 164.703495 289.583309 164.461399 
C 289.583309 164.219302 289.487123 163.987089 289.315935 163.815901 
C 289.144747 163.644714 288.912534 163.548528 288.670438 163.548528 
C 288.428341 163.548528 288.196128 163.644714 288.02494 163.815901 
C 287.853753 163.987089 287.757567 164.219302 287.757567 164.461399 
C 287.757567 164.703495 287.853753 164.935708 288.02494 165.106896 
C 288.196128 165.278084 288.428341 165.37427 288.670438 165.37427 
z
" style="fill:#ff0000;stroke:#ff0000;"/>
    <path clip-path="url(#pacf73c1a74)" d="M 296.010143 177.293975 
C 296.163259 177.293975 296.310123 177.233142 296.418392 177.124873 
C 296.52666 177.016604 296.587494 176.86974 296.587494 176.716625 
C 296.587494 176.56351 296.52666 176.416645 296.418392 176.308377 
C 296.310123 176.200108 296.163259 176.139275 296.010143 176.139275 
C 295.857028 176.139275 295.710164 176.200108 295.601895 176.308377 
C 295.493626 176.416645 295.432793 176.56351 295.432793 176.716625 
C 295.432793 176.86974 295.493626 177.016604 295.601895 177.124873 
C 295.710164 177.233142 295.857028 177.293975 296.010143 177.293975 
z
" style="fill:#ff0000;stroke:#ff0000;"/>
    <path clip-path="url(#pacf73c1a74)" d="M 303.390742 189.747237 
C 303.578269 189.747237 303.758141 189.672732 303.890742 189.54013 
C 304.023344 189.407529 304.097849 189.227657 304.097849 189.04013 
C 304.097849 188.852604 304.023344 188.672732 303.890742 188.54013 
C 303.758141 188.407529 303.578269 188.333024 303.390742 188.333024 
C 303.203215 188.333024 303.023344 188.407529 302.890742 188.54013 
C 302.758141 188.672732 302.683635 188.852604 302.683635 189.04013 
C 302.683635 189.227657 302.758141 189.407529 302.890742 189.54013 
C 303.023344 189.672732 303.203215 189.747237 303.390742 189.747237 
z
" style="fill:#ff0000;stroke:#ff0000;"/>
    <path clip-path="url(#pacf73c1a74)" d="M 310.812576 202.248984 
C 311.029114 202.248984 311.236811 202.162953 311.389926 202.009838 
C 311.543042 201.856723 311.629073 201.649025 311.629073 201.432488 
C 311.629073 201.21595 311.543042 201.008253 311.389926 200.855137 
C 311.236811 200.702022 311.029114 200.615991 310.812576 200.615991 
C 310.596039 200.615991 310.388341 200.702022 310.235226 200.855137 
C 310.082111 201.008253 309.99608 201.21595 309.99608 201.432488 
C 309.99608 201.649025 310.082111 201.856723 310.235226 202.009838 
C 310.388341 202.162953 310.596039 202.248984 310.812576 202.248984 
z
" style="fill:#ff0000;stroke:#ff0000;"/>
    <path clip-path="url(#pacf73c1a74)" d="M 318.275992 213.894275 
C 318.275992 213.894275 318.275992 213.894275 318.275992 213.894275 
C 318.275992 213.894275 318.275992 213.894275 318.275992 213.894275 
C 318.275992 213.894275 318.275992 213.894275 318.275992 213.894275 
C 318.275992 213.894275 318.275992 213.894275 318.275992 213.894275 
C 318.275992 213.894275 318.275992 213.894275 318.275992 213.894275 
C 318.275992 213.894275 318.275992 213.894275 318.275992 213.894275 
C 318.275992 213.894275 318.275992 213.894275 318.275992 213.894275 
C 318.275992 213.894275 318.275992 213.894275 318.275992 213.894275 
z
" style="fill:#ff0000;stroke:#ff0000;"/>
    <path clip-path="url(#pacf73c1a74)" d="M 207.466343 64.409844 
C 209.582435 64.409844 211.612143 63.569112 213.108447 62.072809 
C 214.60475 60.576505 215.445482 58.546797 215.445482 56.430705 
C 215.445482 54.314612 214.60475 52.284905 213.108447 50.788601 
C 211.612143 49.292298 209.582435 48.451565 207.466343 48.451565 
C 205.35025 48.451565 203.320543 49.292298 201.824239 50.788601 
C 200.327936 52.284905 199.487203 54.314612 199.487203 56.430705 
C 199.487203 58.546797 200.327936 60.576505 201.824239 62.072809 
C 203.320543 63.569112 205.35025 64.409844 207.466343 64.409844 
z
" style="fill:#ff0000;stroke:#ff0000;"/>
    <path clip-path="url(#pacf73c1a74)" d="M 197.459219 77.073946 
C 200.03956 77.073946 202.514564 76.048765 204.339141 74.224188 
C 206.163718 72.399612 207.188898 69.924607 207.188898 67.344266 
C 207.188898 64.763925 206.163718 62.28892 204.339141 60.464343 
C 202.514564 58.639767 200.03956 57.614586 197.459219 57.614586 
C 194.878878 57.614586 192.403873 58.639767 190.579296 60.464343 
C 188.75472 62.28892 187.729539 64.763925 187.729539 67.344266 
C 187.729539 69.924607 188.75472 72.399612 190.579296 74.224188 
C 192.403873 76.048765 194.878878 77.073946 197.459219 77.073946 
z
" style="fill:#ff0000;stroke:#ff0000;"/>
    <path clip-path="url(#pacf73c1a74)" d="M 187.428275 85.199968 
C 189.262464 85.199968 191.021775 84.471238 192.318742 83.174271 
C 193.615709 81.877304 194.34444 80.117992 194.34444 78.283804 
C 194.34444 76.449615 193.615709 74.690304 192.318742 73.393337 
C 191.021775 72.09637 189.262464 71.367639 187.428275 71.367639 
C 185.594087 71.367639 183.834775 72.09637 182.537808 73.393337 
C 181.240841 74.690304 180.512111 76.449615 180.512111 78.283804 
C 180.512111 80.117992 181.240841 81.877304 182.537808 83.174271 
C 183.834775 84.471238 185.594087 85.199968 187.428275 85.199968 
z
" style="fill:#ff0000;stroke:#ff0000;"/>
    <path clip-path="url(#pacf73c1a74)" d="M 177.373428 93.813766 
C 178.583909 93.813766 179.744974 93.332837 180.600914 92.476897 
C 181.456853 91.620958 181.937782 90.459892 181.937782 89.249411 
C 181.937782 88.03893 181.456853 86.877864 180.600914 86.021925 
C 179.744974 85.165986 178.583909 84.685057 177.373428 84.685057 
C 176.162947 84.685057 175.001881 85.165986 174.145942 86.021925 
C 173.290002 86.877864 172.809073 88.03893 172.809073 89.249411 
C 172.809073 90.459892 173.290002 91.620958 174.145942 92.476897 
C 175.001881 93.332837 176.162947 93.813766 177.373428 93.813766 
z
" style="fill:#ff0000;stroke:#ff0000;"/>
    <path clip-path="url(#pacf73c1a74)" d="M 167.29459 103.557806 
C 168.174169 103.557806 169.017841 103.208346 169.639798 102.586389 
C 170.261754 101.964433 170.611215 101.120761 170.611215 100.241182 
C 170.611215 99.361602 170.261754 98.51793 169.639798 97.895974 
C 169.017841 97.274017 168.174169 96.924557 167.29459 96.924557 
C 166.415011 96.924557 165.571339 97.274017 164.949382 97.895974 
C 164.327426 98.51793 163.977965 99.361602 163.977965 100.241182 
C 163.977965 101.120761 164.327426 101.964433 164.949382 102.586389 
C 165.571339 103.208346 166.415011 103.557806 167.29459 103.557806 
z
" style="fill:#ff0000;stroke:#ff0000;"/>
    <path clip-path="url(#pacf73c1a74)" d="M 157.191676 113.936272 
C 157.901642 113.936272 158.582625 113.654199 159.084646 113.152178 
C 159.586667 112.650157 159.86874 111.969174 159.86874 111.259209 
C 159.86874 110.549243 159.586667 109.86826 159.084646 109.366239 
C 158.582625 108.864218 157.901642 108.582145 157.191676 108.582145 
C 156.481711 108.582145 155.800728 108.864218 155.298707 109.366239 
C 154.796686 109.86826 154.514613 110.549243 154.514613 111.259209 
C 154.514613 111.969174 154.796686 112.650157 155.298707 113.152178 
C 155.800728 113.654199 156.481711 113.936272 157.191676 113.936272 
z
" style="fill:#ff0000;stroke:#ff0000;"/>
    <path clip-path="url(#pacf73c1a74)" d="M 147.064601 124.174415 
C 147.56075 124.174415 148.036646 123.977293 148.387476 123.626462 
C 148.738307 123.275631 148.935429 122.799736 148.935429 122.303586 
C 148.935429 121.807437 148.738307 121.331541 148.387476 120.980711 
C 148.036646 120.62988 147.56075 120.432758 147.064601 120.432758 
C 146.568451 120.432758 146.092556 120.62988 145.741725 120.980711 
C 145.390894 121.331541 145.193772 121.807437 145.193772 122.303586 
C 145.193772 122.799736 145.390894 123.275631 145.741725 123.626462 
C 146.092556 123.977293 146.568451 124.174415 147.064601 124.174415 
z
" style="fill:#ff0000;stroke:#ff0000;"/>
    <path clip-path="url(#pacf73c1a74)" d="M 136.913276 134.728416 
C 137.272362 134.728416 137.61679 134.585749 137.870703 134.331837 
C 138.124616 134.077924 138.267282 133.733496 138.267282 133.37441 
C 138.267282 133.015323 138.124616 132.670895 137.870703 132.416983 
C 137.61679 132.16307 137.272362 132.020403 136.913276 132.020403 
C 136.554189 132.020403 136.209761 132.16307 135.955849 132.416983 
C 135.701936 132.670895 135.559269 133.015323 135.559269 133.37441 
C 135.559269 133.733496 135.701936 134.077924 135.955849 134.331837 
C 136.209761 134.585749 136.554189 134.728416 136.913276 134.728416 
z
" style="fill:#ff0000;stroke:#ff0000;"/>
    <path clip-path="url(#pacf73c1a74)" d="M 126.737615 145.471774 
C 127.002818 145.471774 127.257195 145.366407 127.444721 145.17888 
C 127.632248 144.991354 127.737615 144.736977 127.737615 144.471774 
C 127.737615 144.206571 127.632248 143.952194 127.444721 143.764667 
C 127.257195 143.57714 127.002818 143.471774 126.737615 143.471774 
C 126.472412 143.471774 126.218035 143.57714 126.030508 143.764667 
C 125.842981 143.952194 125.737615 144.206571 125.737615 144.471774 
C 125.737615 144.736977 125.842981 144.991354 126.030508 145.17888 
C 126.218035 145.366407 126.472412 145.471774 126.737615 145.471774 
z
" style="fill:#ff0000;stroke:#ff0000;"/>
    <path clip-path="url(#pacf73c1a74)" d="M 116.53753 156.595774 
C 116.802733 156.595774 117.05711 156.490407 117.244637 156.302881 
C 117.432163 156.115354 117.53753 155.860977 117.53753 155.595774 
C 117.53753 155.330571 117.432163 155.076194 117.244637 154.888667 
C 117.05711 154.70114 116.802733 154.595774 116.53753 154.595774 
C 116.272327 154.595774 116.01795 154.70114 115.830423 154.888667 
C 115.642896 155.076194 115.53753 155.330571 115.53753 155.595774 
C 115.53753 155.860977 115.642896 156.115354 115.830423 156.302881 
C 116.01795 156.490407 116.272327 156.595774 116.53753 156.595774 
z
" style="fill:#ff0000;stroke:#ff0000;"/>
    <path clip-path="url(#pacf73c1a74)" d="M 106.312933 167.323856 
C 106.466048 167.323856 106.612913 167.263023 106.721181 167.154754 
C 106.82945 167.046486 106.890283 166.899621 106.890283 166.746506 
C 106.890283 166.593391 106.82945 166.446526 106.721181 166.338258 
C 106.612913 166.229989 106.466048 166.169156 106.312933 166.169156 
C 106.159818 166.169156 106.012953 166.229989 105.904685 166.338258 
C 105.796416 166.446526 105.735583 166.593391 105.735583 166.746506 
C 105.735583 166.899621 105.796416 167.046486 105.904685 167.154754 
C 106.012953 167.263023 106.159818 167.323856 106.312933 167.323856 
z
" style="fill:#ff0000;stroke:#ff0000;"/>
    <path clip-path="url(#pacf73c1a74)" d="M 96.063736 178.740564 
C 96.280273 178.740564 96.487971 178.654532 96.641086 178.501417 
C 96.794201 178.348302 96.880232 178.140604 96.880232 177.924067 
C 96.880232 177.70753 96.794201 177.499832 96.641086 177.346717 
C 96.487971 177.193602 96.280273 177.10757 96.063736 177.10757 
C 95.847198 177.10757 95.639501 177.193602 95.486385 177.346717 
C 95.33327 177.499832 95.247239 177.70753 95.247239 177.924067 
C 95.247239 178.140604 95.33327 178.348302 95.486385 178.501417 
C 95.639501 178.654532 95.847198 178.740564 96.063736 178.740564 
z
" style="fill:#ff0000;stroke:#ff0000;"/>
    <path clip-path="url(#pacf73c1a74)" d="M 85.789849 189.83566 
C 85.977376 189.83566 86.157248 189.761155 86.289849 189.628553 
C 86.422451 189.495952 86.496956 189.31608 86.496956 189.128553 
C 86.496956 188.941027 86.422451 188.761155 86.289849 188.628553 
C 86.157248 188.495952 85.977376 188.421447 85.789849 188.421447 
C 85.602322 188.421447 85.422451 188.495952 85.289849 188.628553 
C 85.157248 188.761155 85.082743 188.941027 85.082743 189.128553 
C 85.082743 189.31608 85.157248 189.495952 85.289849 189.628553 
C 85.422451 189.761155 85.602322 189.83566 85.789849 189.83566 
z
" style="fill:#ff0000;stroke:#ff0000;"/>
    <path clip-path="url(#pacf73c1a74)" d="M 75.491184 200.360063 
C 75.491184 200.360063 75.491184 200.360063 75.491184 200.360063 
C 75.491184 200.360063 75.491184 200.360063 75.491184 200.360063 
C 75.491184 200.360063 75.491184 200.360063 75.491184 200.360063 
C 75.491184 200.360063 75.491184 200.360063 75.491184 200.360063 
C 75.491184 200.360063 75.491184 200.360063 75.491184 200.360063 
C 75.491184 200.360063 75.491184 200.360063 75.491184 200.360063 
C 75.491184 200.360063 75.491184 200.360063 75.491184 200.360063 
C 75.491184 200.360063 75.491184 200.360063 75.491184 200.360063 
z
" style="fill:#ff0000;stroke:#ff0000;"/>
    <path clip-path="url(#pacf73c1a74)" d="M 308.024995 225.417209 
C 308.024995 225.417209 308.024995 225.417209 308.024995 225.417209 
C 308.024995 225.417209 308.024995 225.417209 308.024995 225.417209 
C 308.024995 225.417209 308.024995 225.417209 308.024995 225.417209 
C 308.024995 225.417209 308.024995 225.417209 308.024995 225.417209 
C 308.024995 225.417209 308.024995 225.417209 308.024995 225.417209 
C 308.024995 225.417209 308.024995 225.417209 308.024995 225.417209 
C 308.024995 225.417209 308.024995 225.417209 308.024995 225.417209 
C 308.024995 225.417209 308.024995 225.417209 308.024995 225.417209 
z
" style="fill:#ff0000;stroke:#ff0000;"/>
    <path clip-path="url(#pacf73c1a74)" d="M 290.324347 224.411505 
C 290.324347 224.411505 290.324347 224.411505 290.324347 224.411505 
C 290.324347 224.411505 290.324347 224.411505 290.324347 224.411505 
C 290.324347 224.411505 290.324347 224.411505 290.324347 224.411505 
C 290.324347 224.411505 290.324347 224.411505 290.324347 224.411505 
C 290.324347 224.411505 290.324347 224.411505 290.324347 224.411505 
C 290.324347 224.411505 290.324347 224.411505 290.324347 224.411505 
C 290.324347 224.411505 290.324347 224.411505 290.324347 224.411505 
C 290.324347 224.411505 290.324347 224.411505 290.324347 224.411505 
z
" style="fill:#ff0000;stroke:#ff0000;"/>
    <path clip-path="url(#pacf73c1a74)" d="M 272.679137 224.116057 
C 272.866664 224.116057 273.046535 224.041552 273.179137 223.90895 
C 273.311738 223.776349 273.386243 223.596477 273.386243 223.40895 
C 273.386243 223.221424 273.311738 223.041552 273.179137 222.90895 
C 273.046535 222.776349 272.866664 222.701844 272.679137 222.701844 
C 272.49161 222.701844 272.311738 222.776349 272.179137 222.90895 
C 272.046535 223.041552 271.97203 223.221424 271.97203 223.40895 
C 271.97203 223.596477 272.046535 223.776349 272.179137 223.90895 
C 272.311738 224.041552 272.49161 224.116057 272.679137 224.116057 
z
" style="fill:#ff0000;stroke:#ff0000;"/>
    <path clip-path="url(#pacf73c1a74)" d="M 255.089103 222.409531 
C 255.089103 222.409531 255.089103 222.409531 255.089103 222.409531 
C 255.089103 222.409531 255.089103 222.409531 255.089103 222.409531 
C 255.089103 222.409531 255.089103 222.409531 255.089103 222.409531 
C 255.089103 222.409531 255.089103 222.409531 255.089103 222.409531 
C 255.089103 222.409531 255.089103 222.409531 255.089103 222.409531 
C 255.089103 222.409531 255.089103 222.409531 255.089103 222.409531 
C 255.089103 222.409531 255.089103 222.409531 255.089103 222.409531 
C 255.089103 222.409531 255.089103 222.409531 255.089103 222.409531 
z
" style="fill:#ff0000;stroke:#ff0000;"/>
    <path clip-path="url(#pacf73c1a74)" d="M 237.553988 221.990582 
C 237.707103 221.990582 237.853968 221.929749 237.962237 221.82148 
C 238.070505 221.713211 238.131338 221.566347 238.131338 221.413232 
C 238.131338 221.260117 238.070505 221.113252 237.962237 221.004984 
C 237.853968 220.896715 237.707103 220.835882 237.553988 220.835882 
C 237.400873 220.835882 237.254009 220.896715 237.14574 221.004984 
C 237.037471 221.113252 236.976638 221.260117 236.976638 221.413232 
C 236.976638 221.566347 237.037471 221.713211 237.14574 221.82148 
C 237.254009 221.929749 237.400873 221.990582 237.553988 221.990582 
z
" style="fill:#ff0000;stroke:#ff0000;"/>
    <path clip-path="url(#pacf73c1a74)" d="M 220.073535 221.332909 
C 220.315631 221.332909 220.547845 221.236724 220.719032 221.065536 
C 220.89022 220.894348 220.986406 220.662135 220.986406 220.420038 
C 220.986406 220.177942 220.89022 219.945729 220.719032 219.774541 
C 220.547845 219.603353 220.315631 219.507168 220.073535 219.507168 
C 219.831439 219.507168 219.599226 219.603353 219.428038 219.774541 
C 219.25685 219.945729 219.160664 220.177942 219.160664 220.420038 
C 219.160664 220.662135 219.25685 220.894348 219.428038 221.065536 
C 219.599226 221.236724 219.831439 221.332909 220.073535 221.332909 
z
" style="fill:#ff0000;stroke:#ff0000;"/>
    <path clip-path="url(#pacf73c1a74)" d="M 202.647489 220.51006 
C 202.933941 220.51006 203.208699 220.396251 203.411251 220.193699 
C 203.613804 219.991147 203.727612 219.716388 203.727612 219.429936 
C 203.727612 219.143484 203.613804 218.868726 203.411251 218.666174 
C 203.208699 218.463621 202.933941 218.349813 202.647489 218.349813 
C 202.361037 218.349813 202.086278 218.463621 201.883726 218.666174 
C 201.681174 218.868726 201.567365 219.143484 201.567365 219.429936 
C 201.567365 219.716388 201.681174 219.991147 201.883726 220.193699 
C 202.086278 220.396251 202.361037 220.51006 202.647489 220.51006 
z
" style="fill:#ff0000;stroke:#ff0000;"/>
    <path clip-path="url(#pacf73c1a74)" d="M 185.275595 218.851159 
C 185.383864 218.851159 185.487713 218.808144 185.564271 218.731586 
C 185.640828 218.655029 185.683844 218.55118 185.683844 218.442911 
C 185.683844 218.334642 185.640828 218.230793 185.564271 218.154236 
C 185.487713 218.077678 185.383864 218.034663 185.275595 218.034663 
C 185.167327 218.034663 185.063478 218.077678 184.98692 218.154236 
C 184.910363 218.230793 184.867347 218.334642 184.867347 218.442911 
C 184.867347 218.55118 184.910363 218.655029 184.98692 218.731586 
C 185.063478 218.808144 185.167327 218.851159 185.275595 218.851159 
z
" style="fill:#ff0000;stroke:#ff0000;"/>
    <path clip-path="url(#pacf73c1a74)" d="M 167.957603 218.371819 
C 168.199699 218.371819 168.431912 218.275633 168.6031 218.104445 
C 168.774288 217.933258 168.870474 217.701044 168.870474 217.458948 
C 168.870474 217.216852 168.774288 216.984639 168.6031 216.813451 
C 168.431912 216.642263 168.199699 216.546077 167.957603 216.546077 
C 167.715507 216.546077 167.483294 216.642263 167.312106 216.813451 
C 167.140918 216.984639 167.044732 217.216852 167.044732 217.458948 
C 167.044732 217.701044 167.140918 217.933258 167.312106 218.104445 
C 167.483294 218.275633 167.715507 218.371819 167.957603 218.371819 
z
" style="fill:#ff0000;stroke:#ff0000;"/>
    <path clip-path="url(#pacf73c1a74)" d="M 150.693261 217.390905 
C 150.935357 217.390905 151.167571 217.294719 151.338758 217.123531 
C 151.509946 216.952343 151.606132 216.72013 151.606132 216.478034 
C 151.606132 216.235937 151.509946 216.003724 151.338758 215.832536 
C 151.167571 215.661349 150.935357 215.565163 150.693261 215.565163 
C 150.451165 215.565163 150.218952 215.661349 150.047764 215.832536 
C 149.876576 216.003724 149.78039 216.235937 149.78039 216.478034 
C 149.78039 216.72013 149.876576 216.952343 150.047764 217.123531 
C 150.218952 217.294719 150.451165 217.390905 150.693261 217.390905 
z
" style="fill:#ff0000;stroke:#ff0000;"/>
    <path clip-path="url(#pacf73c1a74)" d="M 133.482321 215.908402 
C 133.59059 215.908402 133.694439 215.865386 133.770996 215.788828 
C 133.847554 215.712271 133.890569 215.608422 133.890569 215.500153 
C 133.890569 215.391885 133.847554 215.288036 133.770996 215.211478 
C 133.694439 215.134921 133.59059 215.091905 133.482321 215.091905 
C 133.374052 215.091905 133.270203 215.134921 133.193646 215.211478 
C 133.117088 215.288036 133.074073 215.391885 133.074073 215.500153 
C 133.074073 215.608422 133.117088 215.712271 133.193646 215.788828 
C 133.270203 215.865386 133.374052 215.908402 133.482321 215.908402 
z
" style="fill:#ff0000;stroke:#ff0000;"/>
    <path clip-path="url(#pacf73c1a74)" d="M 116.324535 214.525293 
C 116.324535 214.525293 116.324535 214.525293 116.324535 214.525293 
C 116.324535 214.525293 116.324535 214.525293 116.324535 214.525293 
C 116.324535 214.525293 116.324535 214.525293 116.324535 214.525293 
C 116.324535 214.525293 116.324535 214.525293 116.324535 214.525293 
C 116.324535 214.525293 116.324535 214.525293 116.324535 214.525293 
C 116.324535 214.525293 116.324535 214.525293 116.324535 214.525293 
C 116.324535 214.525293 116.324535 214.525293 116.324535 214.525293 
C 116.324535 214.525293 116.324535 214.525293 116.324535 214.525293 
z
" style="fill:#ff0000;stroke:#ff0000;"/>
    <path clip-path="url(#pacf73c1a74)" d="M 99.219657 213.553439 
C 99.219657 213.553439 99.219657 213.553439 99.219657 213.553439 
C 99.219657 213.553439 99.219657 213.553439 99.219657 213.553439 
C 99.219657 213.553439 99.219657 213.553439 99.219657 213.553439 
C 99.219657 213.553439 99.219657 213.553439 99.219657 213.553439 
C 99.219657 213.553439 99.219657 213.553439 99.219657 213.553439 
C 99.219657 213.553439 99.219657 213.553439 99.219657 213.553439 
C 99.219657 213.553439 99.219657 213.553439 99.219657 213.553439 
C 99.219657 213.553439 99.219657 213.553439 99.219657 213.553439 
z
" style="fill:#ff0000;stroke:#ff0000;"/>
    <path clip-path="url(#pacf73c1a74)" d="M 82.167443 212.584577 
C 82.167443 212.584577 82.167443 212.584577 82.167443 212.584577 
C 82.167443 212.584577 82.167443 212.584577 82.167443 212.584577 
C 82.167443 212.584577 82.167443 212.584577 82.167443 212.584577 
C 82.167443 212.584577 82.167443 212.584577 82.167443 212.584577 
C 82.167443 212.584577 82.167443 212.584577 82.167443 212.584577 
C 82.167443 212.584577 82.167443 212.584577 82.167443 212.584577 
C 82.167443 212.584577 82.167443 212.584577 82.167443 212.584577 
C 82.167443 212.584577 82.167443 212.584577 82.167443 212.584577 
z
" style="fill:#ff0000;stroke:#ff0000;"/>
   </g>
   <g id="legend_1">
    <g id="patch_6">
     <path d="M 21.2 291.2 
L 294.2 291.2 
Q 297.2 291.2 297.2 288.2 
L 297.2 249.95 
Q 297.2 246.95 294.2 246.95 
L 21.2 246.95 
Q 18.2 246.95 18.2 249.95 
L 18.2 288.2 
Q 18.2 291.2 21.2 291.2 
z
" style="fill:#ffffff;opacity:0.8;stroke:#cccccc;stroke-linejoin:miter;"/>
    </g>
    <g id="Path3DCollection_3">
     <defs>
      <path d="M 0 6.879922 
C 1.824577 6.879922 3.574669 6.15501 4.86484 4.86484 
C 6.15501 3.574669 6.879922 1.824577 6.879922 0 
C 6.879922 -1.824577 6.15501 -3.574669 4.86484 -4.86484 
C 3.574669 -6.15501 1.824577 -6.879922 0 -6.879922 
C -1.824577 -6.879922 -3.574669 -6.15501 -4.86484 -4.86484 
C -6.15501 -3.574669 -6.879922 -1.824577 -6.879922 0 
C -6.879922 1.824577 -6.15501 3.574669 -4.86484 4.86484 
C -3.574669 6.15501 -1.824577 6.879922 0 6.879922 
z
" id="mb3fd2f2a04" style="stroke:#ff0000;"/>
     </defs>
     <g>
      <use style="fill:#ff0000;stroke:#ff0000;" x="39.2" xlink:href="#mb3fd2f2a04" y="259.5125"/>
     </g>
    </g>
    <g id="text_28">
     <!-- probability of absorbing state -->
     <defs>
      <path d="M 44.140625 23.828125 
Q 44.140625 12.5 38.671875 6.640625 
Q 33.203125 0.78125 25.390625 0.78125 
Q 21.09375 0.78125 17.96875 2.53125 
Q 14.84375 4.296875 12.5 7.8125 
L 12.5 -12.5 
L 4.6875 -12.5 
L 4.6875 45.703125 
L 12.5 45.703125 
L 12.5 39.84375 
Q 14.84375 43.359375 17.96875 44.921875 
Q 21.09375 46.484375 25.390625 46.484375 
Q 33.203125 46.484375 38.671875 40.8125 
Q 44.140625 35.15625 44.140625 23.828125 
z
M 35.546875 23.828125 
Q 35.546875 31.25 32.609375 35.34375 
Q 29.6875 39.453125 23.828125 39.453125 
Q 19.140625 39.453125 15.8125 35.34375 
Q 12.5 31.25 12.5 23.828125 
Q 12.5 16.40625 15.8125 12.109375 
Q 19.140625 7.8125 23.828125 7.8125 
Q 29.6875 7.8125 32.609375 12.109375 
Q 35.546875 16.40625 35.546875 23.828125 
z
" id="SimHei-70"/>
      <path d="M 39.0625 37.890625 
Q 31.640625 39.0625 26.5625 35.734375 
Q 21.484375 32.421875 17.96875 24.21875 
L 17.96875 1.953125 
L 10.15625 1.953125 
L 10.15625 45.703125 
L 17.96875 45.703125 
L 17.96875 34.375 
Q 21.484375 40.625 26.75 43.546875 
Q 32.03125 46.484375 39.0625 46.484375 
z
" id="SimHei-72"/>
      <path d="M 44.140625 23.828125 
Q 44.140625 12.5 38.671875 6.828125 
Q 33.203125 1.171875 25.390625 1.171875 
Q 21.09375 1.171875 17.96875 2.734375 
Q 14.84375 4.296875 12.5 7.8125 
L 12.5 1.953125 
L 4.6875 1.953125 
L 4.6875 68.75 
L 12.5 68.75 
L 12.5 39.84375 
Q 14.84375 43.359375 17.96875 45.109375 
Q 21.09375 46.875 25.390625 46.875 
Q 33.203125 46.875 38.671875 41.015625 
Q 44.140625 35.15625 44.140625 23.828125 
z
M 35.546875 23.828125 
Q 35.546875 31.25 32.609375 35.546875 
Q 29.6875 39.84375 23.828125 39.84375 
Q 19.140625 39.84375 15.8125 35.546875 
Q 12.5 31.25 12.5 23.828125 
Q 12.5 16.40625 15.8125 12.296875 
Q 19.140625 8.203125 23.828125 8.203125 
Q 29.6875 8.203125 32.609375 12.296875 
Q 35.546875 16.40625 35.546875 23.828125 
z
" id="SimHei-62"/>
      <path d="M 44.921875 1.953125 
L 35.546875 1.953125 
Q 34.765625 2.734375 34.375 4.09375 
Q 33.984375 5.46875 33.984375 7.421875 
Q 31.25 4.296875 27.34375 2.734375 
Q 23.4375 1.171875 19.140625 1.171875 
Q 12.890625 1.171875 8.59375 4.296875 
Q 4.296875 7.421875 4.296875 13.28125 
Q 4.296875 19.140625 8.203125 22.65625 
Q 12.109375 26.171875 20.3125 27.34375 
Q 25.78125 28.125 29.875 29.296875 
Q 33.984375 30.46875 33.984375 32.421875 
Q 33.984375 34.765625 32.21875 37.109375 
Q 30.46875 39.453125 24.609375 39.453125 
Q 19.921875 39.453125 17.765625 37.6875 
Q 15.625 35.9375 14.84375 32.8125 
L 6.25 32.8125 
Q 7.03125 39.0625 11.90625 42.765625 
Q 16.796875 46.484375 24.609375 46.484375 
Q 33.203125 46.484375 37.5 42.578125 
Q 41.796875 38.671875 41.796875 31.640625 
L 41.796875 10.15625 
Q 41.796875 7.8125 42.578125 5.859375 
Q 43.359375 3.90625 44.921875 1.953125 
z
M 33.984375 16.40625 
L 33.984375 24.21875 
Q 31.640625 23.4375 29.484375 22.84375 
Q 27.34375 22.265625 22.265625 21.484375 
Q 16.40625 20.703125 14.640625 18.75 
Q 12.890625 16.796875 12.890625 14.0625 
Q 12.890625 11.71875 14.640625 9.953125 
Q 16.40625 8.203125 19.921875 8.203125 
Q 23.4375 8.203125 27.53125 10.15625 
Q 31.640625 12.109375 33.984375 16.40625 
z
" id="SimHei-61"/>
      <path d="M 28.515625 1.953125 
L 20.703125 1.953125 
L 20.703125 68.75 
L 28.515625 68.75 
z
" id="SimHei-6c"/>
      <path d="M 42.96875 3.125 
Q 41.015625 2.34375 38.46875 1.75 
Q 35.9375 1.171875 31.640625 1.171875 
Q 24.609375 1.171875 20.3125 5.078125 
Q 16.015625 8.984375 16.015625 16.015625 
L 16.015625 39.453125 
L 2.734375 39.453125 
L 2.734375 45.703125 
L 16.015625 45.703125 
L 16.015625 60.9375 
L 23.828125 60.9375 
L 23.828125 45.703125 
L 39.84375 45.703125 
L 39.84375 39.453125 
L 23.828125 39.453125 
L 23.828125 15.625 
Q 23.828125 12.5 25.390625 10.34375 
Q 26.953125 8.203125 31.25 8.203125 
Q 35.546875 8.203125 38.28125 8.984375 
Q 41.015625 9.765625 42.96875 10.9375 
z
" id="SimHei-74"/>
      <path d="M 45.3125 45.703125 
L 27.34375 -1.5625 
Q 25.78125 -7.03125 22.65625 -9.765625 
Q 19.53125 -12.5 14.84375 -12.5 
Q 12.890625 -12.5 11.125 -12.296875 
Q 9.375 -12.109375 7.8125 -11.328125 
L 7.8125 -3.515625 
Q 9.375 -4.296875 10.9375 -4.6875 
Q 12.5 -5.078125 13.671875 -5.078125 
Q 16.796875 -5.078125 17.96875 -4.09375 
Q 19.140625 -3.125 20.3125 0.390625 
L 3.125 45.703125 
L 11.71875 45.703125 
L 24.21875 11.328125 
L 24.609375 11.328125 
L 36.71875 45.703125 
z
" id="SimHei-79"/>
      <path d="M 46.484375 39.0625 
Q 43.75 39.84375 41.203125 40.03125 
Q 38.671875 40.234375 35.9375 39.453125 
Q 37.109375 38.28125 37.890625 36.515625 
Q 38.671875 34.765625 38.671875 31.25 
Q 38.671875 24.609375 34.171875 20.3125 
Q 29.6875 16.015625 23.046875 16.015625 
Q 21.484375 16.015625 18.9375 16.59375 
Q 16.40625 17.1875 14.84375 17.96875 
Q 13.671875 17.1875 13.28125 16.40625 
Q 12.890625 15.625 12.890625 14.453125 
Q 12.890625 12.5 15.625 11.515625 
Q 18.359375 10.546875 25.390625 10.546875 
Q 36.71875 10.546875 40.8125 7.421875 
Q 44.921875 4.296875 44.921875 -0.390625 
Q 44.921875 -6.640625 38.859375 -9.5625 
Q 32.8125 -12.5 24.609375 -12.5 
Q 14.0625 -12.5 8.984375 -9.765625 
Q 3.90625 -7.03125 3.90625 -2.34375 
Q 3.90625 0 5.859375 2.34375 
Q 7.8125 4.6875 10.9375 6.25 
Q 8.59375 7.421875 7.21875 9.171875 
Q 5.859375 10.9375 5.859375 13.671875 
Q 5.859375 16.015625 7.609375 17.765625 
Q 9.375 19.53125 11.71875 20.703125 
Q 9.765625 22.65625 8.59375 25.390625 
Q 7.421875 28.125 7.421875 31.25 
Q 7.421875 37.890625 11.90625 42.1875 
Q 16.40625 46.484375 23.046875 46.484375 
Q 26.5625 46.484375 29.09375 45.5 
Q 31.640625 44.53125 33.59375 42.578125 
Q 36.71875 44.921875 39.84375 45.890625 
Q 42.96875 46.875 46.484375 46.484375 
z
M 30.859375 31.25 
Q 30.859375 35.15625 28.90625 37.5 
Q 26.953125 39.84375 23.046875 39.84375 
Q 19.140625 39.84375 17.1875 37.5 
Q 15.234375 35.15625 15.234375 31.25 
Q 15.234375 27.34375 17.1875 25 
Q 19.140625 22.65625 23.046875 22.65625 
Q 26.953125 22.65625 28.90625 25 
Q 30.859375 27.34375 30.859375 31.25 
z
M 37.5 -1.171875 
Q 37.5 0.390625 35.734375 1.953125 
Q 33.984375 3.515625 26.953125 3.515625 
Q 25.390625 3.515625 22.65625 3.703125 
Q 19.921875 3.90625 16.40625 4.296875 
Q 13.28125 3.125 12.109375 1.5625 
Q 10.9375 0 10.9375 -1.5625 
Q 10.9375 -3.90625 14.0625 -5.46875 
Q 17.1875 -7.03125 25 -7.03125 
Q 31.640625 -7.03125 34.5625 -5.265625 
Q 37.5 -3.515625 37.5 -1.171875 
z
" id="SimHei-67"/>
      <path d="M 44.53125 16.796875 
Q 43.75 9.765625 38.28125 5.46875 
Q 32.8125 1.171875 25.390625 1.171875 
Q 16.015625 1.171875 9.953125 7.21875 
Q 3.90625 13.28125 3.90625 23.828125 
Q 3.90625 34.375 9.953125 40.421875 
Q 16.015625 46.484375 25.390625 46.484375 
Q 33.59375 46.484375 38.859375 41.203125 
Q 44.140625 35.9375 44.140625 23.828125 
L 12.5 23.828125 
Q 12.5 15.234375 16.203125 11.71875 
Q 19.921875 8.203125 25.390625 8.203125 
Q 29.6875 8.203125 32.421875 10.34375 
Q 35.15625 12.5 35.9375 16.796875 
z
M 35.15625 30.078125 
Q 34.375 35.546875 31.640625 37.6875 
Q 28.90625 39.84375 24.609375 39.84375 
Q 20.703125 39.84375 17.578125 37.6875 
Q 14.453125 35.546875 12.890625 30.078125 
z
" id="SimHei-65"/>
     </defs>
     <g transform="translate(66.2 263.45)scale(0.15 -0.15)">
      <use xlink:href="#SimHei-70"/>
      <use x="50" xlink:href="#SimHei-72"/>
      <use x="100" xlink:href="#SimHei-6f"/>
      <use x="150" xlink:href="#SimHei-62"/>
      <use x="200" xlink:href="#SimHei-61"/>
      <use x="250" xlink:href="#SimHei-62"/>
      <use x="300" xlink:href="#SimHei-69"/>
      <use x="350" xlink:href="#SimHei-6c"/>
      <use x="400" xlink:href="#SimHei-69"/>
      <use x="450" xlink:href="#SimHei-74"/>
      <use x="500" xlink:href="#SimHei-79"/>
      <use x="550" xlink:href="#SimHei-20"/>
      <use x="600" xlink:href="#SimHei-6f"/>
      <use x="650" xlink:href="#SimHei-66"/>
      <use x="700" xlink:href="#SimHei-20"/>
      <use x="750" xlink:href="#SimHei-61"/>
      <use x="800" xlink:href="#SimHei-62"/>
      <use x="850" xlink:href="#SimHei-73"/>
      <use x="900" xlink:href="#SimHei-6f"/>
      <use x="950" xlink:href="#SimHei-72"/>
      <use x="1000" xlink:href="#SimHei-62"/>
      <use x="1050" xlink:href="#SimHei-69"/>
      <use x="1100" xlink:href="#SimHei-6e"/>
      <use x="1150" xlink:href="#SimHei-67"/>
      <use x="1200" xlink:href="#SimHei-20"/>
      <use x="1250" xlink:href="#SimHei-73"/>
      <use x="1300" xlink:href="#SimHei-74"/>
      <use x="1350" xlink:href="#SimHei-61"/>
      <use x="1400" xlink:href="#SimHei-74"/>
      <use x="1450" xlink:href="#SimHei-65"/>
     </g>
    </g>
    <g id="Path3DCollection_4">
     <g>
      <use style="fill:#008000;stroke:#008000;" x="39.2" xlink:href="#m74611d43a0" y="279.3875"/>
     </g>
    </g>
    <g id="text_29">
     <!-- start state -->
     <g transform="translate(66.2 283.325)scale(0.15 -0.15)">
      <use xlink:href="#SimHei-73"/>
      <use x="50" xlink:href="#SimHei-74"/>
      <use x="100" xlink:href="#SimHei-61"/>
      <use x="150" xlink:href="#SimHei-72"/>
      <use x="200" xlink:href="#SimHei-74"/>
      <use x="250" xlink:href="#SimHei-20"/>
      <use x="300" xlink:href="#SimHei-73"/>
      <use x="350" xlink:href="#SimHei-74"/>
      <use x="400" xlink:href="#SimHei-61"/>
      <use x="450" xlink:href="#SimHei-74"/>
      <use x="500" xlink:href="#SimHei-65"/>
     </g>
    </g>
   </g>
  </g>
 </g>
 <defs>
  <clipPath id="pacf73c1a74">
   <rect height="288" width="360" x="10.7" y="10.7"/>
  </clipPath>
 </defs>
</svg>
