<?xml version="1.0" encoding="utf-8" standalone="no"?>
<!DOCTYPE svg PUBLIC "-//W3C//DTD SVG 1.1//EN"
  "http://www.w3.org/Graphics/SVG/1.1/DTD/svg11.dtd">
<!-- Created with matplotlib (http://matplotlib.org/) -->
<svg height="309.4pt" version="1.1" viewBox="0 0 381.4 309.4" width="381.4pt" xmlns="http://www.w3.org/2000/svg" xmlns:xlink="http://www.w3.org/1999/xlink">
 <defs>
  <style type="text/css">
*{stroke-linecap:butt;stroke-linejoin:round;}
  </style>
 </defs>
 <g id="figure_1">
  <g id="patch_1">
   <path d="M 0 309.4 
L 381.4 309.4 
L 381.4 0 
L 0 0 
z
" style="fill:none;"/>
  </g>
  <g id="patch_2">
   <path d="M 10.7 298.7 
L 370.7 298.7 
L 370.7 10.7 
L 10.7 10.7 
z
" style="fill:#ffffff;"/>
  </g>
  <g id="pane3d_1">
   <g id="patch_3">
    <path d="M 219.619567 185.462306 
L 335.768129 233.715199 
L 340.919918 79.597002 
L 220.435568 41.545085 
" style="fill:#f2f2f2;opacity:0.5;stroke:#f2f2f2;stroke-linejoin:miter;"/>
   </g>
  </g>
  <g id="pane3d_2">
   <g id="patch_4">
    <path d="M 219.619567 185.462306 
L 58.794045 217.8137 
L 53.895826 67.034254 
L 220.435568 41.545085 
" style="fill:#e6e6e6;opacity:0.5;stroke:#e6e6e6;stroke-linejoin:miter;"/>
   </g>
  </g>
  <g id="pane3d_3">
   <g id="patch_5">
    <path d="M 219.619567 185.462306 
L 58.794045 217.8137 
L 168.062833 271.631196 
L 335.768129 233.715199 
" style="fill:#ececec;opacity:0.5;stroke:#ececec;stroke-linejoin:miter;"/>
   </g>
  </g>
  <g id="axis3d_1">
   <g id="line2d_1">
    <path d="M 335.768129 233.715199 
L 168.062833 271.631196 
" style="fill:none;stroke:#000000;stroke-linecap:square;stroke-width:0.8;"/>
   </g>
   <g id="text_1">
    <!-- coins of 大熊 -->
    <defs>
     <path d="M 44.53125 19.53125 
Q 44.53125 11.328125 38.859375 6.25 
Q 33.203125 1.171875 24.609375 1.171875 
Q 16.015625 1.171875 9.765625 7.21875 
Q 3.515625 13.28125 3.515625 23.828125 
Q 3.515625 34.375 9.765625 40.421875 
Q 16.015625 46.484375 24.609375 46.484375 
Q 33.203125 46.484375 38.28125 41.984375 
Q 43.359375 37.5 43.359375 31.25 
L 34.765625 31.25 
Q 34.375 35.9375 31.4375 37.6875 
Q 28.515625 39.453125 24.609375 39.453125 
Q 19.921875 39.453125 16.015625 35.734375 
Q 12.109375 32.03125 12.109375 23.828125 
Q 12.109375 15.625 16.015625 11.90625 
Q 19.921875 8.203125 24.609375 8.203125 
Q 29.6875 8.203125 32.8125 10.9375 
Q 35.9375 13.671875 35.9375 19.53125 
z
" id="SimHei-63"/>
     <path d="M 45.703125 23.828125 
Q 45.703125 13.671875 39.453125 7.421875 
Q 33.203125 1.171875 24.609375 1.171875 
Q 16.015625 1.171875 9.765625 7.421875 
Q 3.515625 13.671875 3.515625 23.828125 
Q 3.515625 33.984375 9.765625 40.234375 
Q 16.015625 46.484375 24.609375 46.484375 
Q 33.203125 46.484375 39.453125 40.234375 
Q 45.703125 33.984375 45.703125 23.828125 
z
M 37.109375 23.828125 
Q 37.109375 31.640625 33.203125 35.546875 
Q 29.296875 39.453125 24.609375 39.453125 
Q 19.921875 39.453125 16.015625 35.546875 
Q 12.109375 31.640625 12.109375 23.828125 
Q 12.109375 16.015625 16.015625 12.109375 
Q 19.921875 8.203125 24.609375 8.203125 
Q 29.296875 8.203125 33.203125 12.109375 
Q 37.109375 16.015625 37.109375 23.828125 
z
" id="SimHei-6f"/>
     <path d="M 28.125 58.203125 
L 20.3125 58.203125 
L 20.3125 68.359375 
L 28.125 68.359375 
z
M 28.125 1.953125 
L 20.3125 1.953125 
L 20.3125 45.703125 
L 28.125 45.703125 
z
" id="SimHei-69"/>
     <path d="M 43.75 1.953125 
L 35.9375 1.953125 
L 35.9375 30.078125 
Q 35.9375 34.765625 33.59375 37.5 
Q 31.25 40.234375 27.34375 40.234375 
Q 22.265625 40.234375 17.765625 34.953125 
Q 13.28125 29.6875 13.28125 21.875 
L 13.28125 1.953125 
L 5.46875 1.953125 
L 5.46875 45.703125 
L 13.28125 45.703125 
L 13.28125 37.5 
Q 16.40625 41.796875 20.109375 44.140625 
Q 23.828125 46.484375 29.6875 46.484375 
Q 36.71875 46.484375 40.234375 42.578125 
Q 43.75 38.671875 43.75 32.8125 
z
" id="SimHei-6e"/>
     <path d="M 42.96875 14.0625 
Q 42.96875 7.8125 38.078125 4.484375 
Q 33.203125 1.171875 25.78125 1.171875 
Q 16.40625 1.171875 11.328125 4.875 
Q 6.25 8.59375 6.25 15.625 
L 14.0625 15.625 
Q 14.0625 10.9375 17.375 9.375 
Q 20.703125 7.8125 25.390625 7.8125 
Q 30.078125 7.8125 32.421875 9.5625 
Q 34.765625 11.328125 34.765625 14.0625 
Q 34.765625 16.015625 32.8125 17.96875 
Q 30.859375 19.921875 23.046875 21.09375 
Q 14.0625 22.265625 10.734375 25.578125 
Q 7.421875 28.90625 7.421875 34.375 
Q 7.421875 39.0625 11.90625 42.765625 
Q 16.40625 46.484375 25 46.484375 
Q 32.8125 46.484375 37.296875 42.96875 
Q 41.796875 39.453125 41.796875 33.59375 
L 33.984375 33.59375 
Q 33.984375 37.109375 31.4375 38.46875 
Q 28.90625 39.84375 25 39.84375 
Q 19.921875 39.84375 17.765625 38.078125 
Q 15.625 36.328125 15.625 33.984375 
Q 15.625 31.25 17.578125 29.6875 
Q 19.53125 28.125 25.78125 27.34375 
Q 35.9375 25.78125 39.453125 22.453125 
Q 42.96875 19.140625 42.96875 14.0625 
z
" id="SimHei-73"/>
     <path id="SimHei-20"/>
     <path d="M 44.53125 59.765625 
Q 42.578125 60.9375 39.84375 61.71875 
Q 37.109375 62.5 32.8125 62.5 
Q 28.515625 62.5 26.953125 60.34375 
Q 25.390625 58.203125 25.390625 55.078125 
L 25.390625 45.703125 
L 41.40625 45.703125 
L 41.40625 39.453125 
L 25.390625 39.453125 
L 25.390625 1.953125 
L 17.578125 1.953125 
L 17.578125 39.453125 
L 4.296875 39.453125 
L 4.296875 45.703125 
L 17.578125 45.703125 
L 17.578125 54.6875 
Q 17.578125 61.71875 21.875 65.625 
Q 26.171875 69.53125 33.203125 69.53125 
Q 37.5 69.53125 40.03125 68.9375 
Q 42.578125 68.359375 44.53125 67.578125 
z
" id="SimHei-66"/>
     <path d="M 45.3125 53.125 
Q 45.703125 66.796875 45.5 71.484375 
Q 45.3125 76.171875 44.921875 80.46875 
Q 49.609375 79.6875 55.46875 79.296875 
Q 54.296875 75.390625 53.703125 67.96875 
Q 53.125 60.546875 53.125 53.125 
L 73.046875 53.125 
Q 83.59375 53.125 92.578125 53.90625 
L 92.578125 45.3125 
Q 84.765625 45.703125 76.5625 45.703125 
L 53.515625 45.703125 
Q 55.078125 39.0625 58.984375 32.21875 
Q 62.890625 25.390625 66.984375 20.109375 
Q 71.09375 14.84375 78.3125 8.984375 
Q 85.546875 3.125 94.140625 -0.78125 
Q 91.015625 -3.125 87.890625 -8.59375 
Q 80.859375 -4.6875 74.015625 1.171875 
Q 67.1875 7.03125 60.34375 16.59375 
Q 53.515625 26.171875 50 34.375 
Q 46.875 25.78125 43.359375 20.109375 
Q 39.84375 14.453125 35.734375 9.765625 
Q 31.640625 5.078125 25.1875 0.390625 
Q 18.75 -4.296875 10.546875 -8.984375 
Q 7.421875 -4.296875 3.515625 -0.78125 
Q 11.71875 1.953125 19.71875 7.03125 
Q 27.734375 12.109375 32.8125 18.546875 
Q 37.890625 25 41.015625 32.03125 
Q 44.140625 39.0625 44.921875 45.703125 
L 23.4375 45.703125 
Q 14.0625 45.703125 8.59375 45.3125 
L 8.59375 53.90625 
Q 14.0625 53.515625 23.4375 53.125 
z
" id="SimHei-5927"/>
     <path d="M 49.609375 52.34375 
Q 49.21875 46.484375 49.21875 40.625 
L 49.21875 19.53125 
Q 49.21875 15.234375 46.484375 13.859375 
Q 43.75 12.5 34.765625 11.328125 
Q 33.59375 14.84375 31.640625 18.359375 
Q 38.671875 18.75 40.421875 18.9375 
Q 42.1875 19.140625 41.796875 23.4375 
L 18.359375 23.4375 
L 18.359375 12.5 
L 10.15625 12.5 
Q 10.546875 25 10.546875 33.59375 
Q 10.546875 42.1875 10.15625 52.34375 
L 49.609375 52.34375 
z
M 65.625 45.3125 
Q 65.234375 41.015625 65.234375 34.375 
Q 81.640625 38.671875 88.28125 43.359375 
Q 90.234375 39.453125 93.359375 36.71875 
Q 85.9375 34.765625 65.625 28.125 
L 65.625 23.046875 
Q 65.625 19.53125 70.703125 19.53125 
L 80.46875 19.53125 
Q 83.59375 19.53125 85.15625 20.890625 
Q 86.71875 22.265625 88.28125 28.125 
Q 92.1875 26.171875 96.875 25.390625 
Q 93.359375 17.1875 91.40625 15.234375 
Q 89.453125 13.28125 83.984375 13.28125 
L 65.234375 13.28125 
Q 57.03125 13.28125 57.03125 19.53125 
L 57.03125 37.5 
Q 57.03125 40.625 56.640625 45.3125 
L 65.625 45.3125 
z
M 92.578125 69.140625 
Q 78.515625 65.234375 64.84375 61.328125 
Q 64.84375 54.6875 68.359375 54.6875 
L 80.46875 54.6875 
Q 83.203125 54.6875 84.765625 56.4375 
Q 86.328125 58.203125 86.71875 62.5 
Q 90.234375 60.9375 94.921875 59.765625 
Q 92.96875 51.5625 90.421875 50.1875 
Q 87.890625 48.828125 82.8125 48.828125 
L 64.84375 48.828125 
Q 57.03125 48.828125 57.03125 54.296875 
L 57.03125 71.09375 
Q 57.03125 75.78125 56.640625 80.46875 
L 65.625 80.46875 
Q 65.234375 75.390625 65.234375 67.1875 
Q 78.515625 70.3125 86.328125 76.171875 
Q 88.671875 72.65625 92.578125 69.140625 
z
M 32.03125 78.125 
Q 24.609375 71.484375 16.40625 62.890625 
Q 22.65625 63.28125 40.625 65.234375 
Q 38.671875 67.578125 35.546875 70.703125 
Q 39.0625 72.265625 42.96875 74.21875 
Q 51.171875 63.28125 55.078125 58.59375 
Q 51.171875 57.03125 48.046875 54.6875 
L 44.53125 59.765625 
Q 42.578125 59.375 33.203125 58.59375 
Q 23.828125 57.8125 9.375 55.859375 
Q 7.421875 59.375 6.25 62.890625 
Q 10.15625 64.84375 14.640625 69.53125 
Q 19.140625 74.21875 23.4375 82.03125 
Q 27.734375 79.6875 32.03125 78.125 
z
M 41.796875 28.90625 
L 41.796875 35.546875 
L 18.359375 35.546875 
L 18.359375 28.90625 
z
M 20.3125 6.640625 
Q 17.1875 3.125 11.71875 -9.765625 
Q 6.640625 -7.8125 3.90625 -7.03125 
Q 6.640625 -1.5625 11.71875 8.984375 
Q 15.625 7.8125 20.3125 6.640625 
z
M 85.9375 10.15625 
Q 92.578125 -1.953125 94.140625 -5.46875 
Q 89.84375 -6.640625 86.328125 -8.59375 
Q 83.984375 -2.34375 78.515625 7.03125 
Q 81.25 8.203125 85.9375 10.15625 
z
M 41.796875 41.015625 
L 41.796875 46.875 
L 18.359375 46.875 
L 18.359375 41.015625 
z
M 62.890625 8.59375 
Q 65.625 -1.953125 66.40625 -5.859375 
L 58.59375 -7.421875 
Q 57.421875 -3.90625 55.46875 7.421875 
Q 58.59375 8.203125 62.890625 8.59375 
z
M 39.84375 7.421875 
Q 40.234375 3.90625 42.578125 -6.640625 
Q 38.671875 -6.640625 34.375 -7.8125 
Q 33.59375 -3.125 32.03125 6.640625 
Q 35.15625 7.421875 39.84375 7.421875 
z
" id="SimHei-718a"/>
    </defs>
    <g style="fill:#800080;" transform="translate(235.061813 295.570823)rotate(-12.739652)scale(0.12 -0.12)">
     <use xlink:href="#SimHei-63"/>
     <use x="50" xlink:href="#SimHei-6f"/>
     <use x="100" xlink:href="#SimHei-69"/>
     <use x="150" xlink:href="#SimHei-6e"/>
     <use x="200" xlink:href="#SimHei-73"/>
     <use x="250" xlink:href="#SimHei-20"/>
     <use x="300" xlink:href="#SimHei-6f"/>
     <use x="350" xlink:href="#SimHei-66"/>
     <use x="400" xlink:href="#SimHei-20"/>
     <use x="450" xlink:href="#SimHei-5927"/>
     <use x="550" xlink:href="#SimHei-718a"/>
    </g>
   </g>
   <g id="Line3DCollection_1">
    <path d="M 325.649087 236.002984 
L 209.876104 187.422284 
L 210.363217 43.086674 
" style="fill:none;stroke:#b0b0b0;stroke-width:0.8;"/>
    <path d="M 305.615951 240.532216 
L 190.60155 191.299522 
L 190.43149 46.137256 
" style="fill:none;stroke:#b0b0b0;stroke-width:0.8;"/>
    <path d="M 285.302458 245.124834 
L 171.077619 195.226923 
L 170.232989 49.228668 
" style="fill:none;stroke:#b0b0b0;stroke-width:0.8;"/>
    <path d="M 264.70268 249.782177 
L 151.299439 199.205469 
L 149.762321 52.361736 
" style="fill:none;stroke:#b0b0b0;stroke-width:0.8;"/>
    <path d="M 243.810523 254.505623 
L 131.262013 203.236164 
L 129.013948 55.537307 
" style="fill:none;stroke:#b0b0b0;stroke-width:0.8;"/>
    <path d="M 222.619718 259.29659 
L 110.960209 207.320041 
L 107.982181 58.756252 
" style="fill:none;stroke:#b0b0b0;stroke-width:0.8;"/>
    <path d="M 201.123814 264.156536 
L 90.38876 211.458159 
L 86.661174 62.019466 
" style="fill:none;stroke:#b0b0b0;stroke-width:0.8;"/>
    <path d="M 179.316176 269.086961 
L 69.542258 215.651607 
L 65.044918 65.327868 
" style="fill:none;stroke:#b0b0b0;stroke-width:0.8;"/>
   </g>
   <g id="xtick_1">
    <g id="line2d_2">
     <path d="M 324.648958 235.583309 
L 327.653217 236.843957 
" style="fill:none;stroke:#000000;stroke-linecap:square;stroke-width:0.8;"/>
    </g>
    <g id="text_2">
     <!-- 0 -->
     <defs>
      <path d="M 3.125 29.296875 
Q 3.90625 50 6.4375 56.046875 
Q 8.984375 62.109375 13.671875 66.015625 
Q 18.359375 69.921875 25.1875 69.921875 
Q 32.03125 69.921875 37.109375 64.25 
Q 42.1875 58.59375 43.75 50 
Q 45.3125 41.40625 44.71875 30.265625 
Q 44.140625 19.140625 40.8125 12.109375 
Q 37.5 5.078125 30.859375 2.34375 
Q 24.21875 -0.390625 17.578125 2.921875 
Q 10.9375 6.25 8.203125 11.71875 
Q 5.46875 17.1875 4.296875 23.234375 
Q 3.125 29.296875 3.90625 50 
z
M 12.890625 52.734375 
Q 10.546875 31.25 12.5 22.84375 
Q 14.453125 14.453125 18.9375 10.9375 
Q 23.4375 7.421875 28.125 9.5625 
Q 32.8125 11.71875 34.953125 18.15625 
Q 37.109375 24.609375 37.109375 32.21875 
Q 37.109375 39.84375 36.515625 46.09375 
Q 35.9375 52.34375 33 57.421875 
Q 30.078125 62.5 25.1875 62.6875 
Q 20.3125 62.890625 16.59375 57.8125 
Q 12.890625 52.734375 10.546875 31.25 
z
" id="SimHei-30"/>
     </defs>
     <g transform="translate(330.134125 260.095778)scale(0.15 -0.15)">
      <use xlink:href="#SimHei-30"/>
     </g>
    </g>
   </g>
   <g id="xtick_2">
    <g id="line2d_3">
     <path d="M 304.621865 240.106691 
L 307.607998 241.384926 
" style="fill:none;stroke:#000000;stroke-linecap:square;stroke-width:0.8;"/>
    </g>
    <g id="text_3">
     <!-- 2 -->
     <defs>
      <path d="M 4.6875 3.90625 
Q 5.078125 9.765625 10.15625 14.453125 
Q 15.234375 19.140625 23.046875 29.09375 
Q 30.859375 39.0625 33.203125 44.53125 
Q 35.546875 50 34.953125 53.90625 
Q 34.375 57.8125 31.25 60.34375 
Q 28.125 62.890625 24.015625 62.5 
Q 19.921875 62.109375 16.203125 59.375 
Q 12.5 56.640625 10.546875 51.171875 
L 3.125 52.34375 
Q 6.25 61.328125 11.125 65.421875 
Q 16.015625 69.53125 22.65625 69.921875 
Q 26.5625 70.3125 29.6875 69.71875 
Q 32.8125 69.140625 36.125 66.984375 
Q 39.453125 64.84375 41.59375 60.546875 
Q 43.75 56.25 43.15625 50.1875 
Q 42.578125 44.140625 37.109375 35.734375 
Q 31.640625 27.34375 16.015625 9.375 
L 44.140625 9.375 
L 44.140625 2.34375 
L 4.6875 2.34375 
z
" id="SimHei-32"/>
     </defs>
     <g transform="translate(310.096382 264.735082)scale(0.15 -0.15)">
      <use xlink:href="#SimHei-32"/>
     </g>
    </g>
   </g>
   <g id="xtick_3">
    <g id="line2d_4">
     <path d="M 284.314682 244.693335 
L 287.281886 245.989527 
" style="fill:none;stroke:#000000;stroke-linecap:square;stroke-width:0.8;"/>
    </g>
    <g id="text_4">
     <!-- 4 -->
     <defs>
      <path d="M 31.25 17.1875 
L 1.171875 17.1875 
L 1.171875 23.828125 
L 32.8125 69.53125 
L 38.671875 69.53125 
L 38.671875 23.828125 
L 48.046875 23.828125 
L 48.046875 17.1875 
L 38.671875 17.1875 
L 38.671875 2.34375 
L 31.25 2.34375 
z
M 31.25 23.828125 
L 31.25 54.6875 
L 9.375 23.828125 
z
" id="SimHei-34"/>
     </defs>
     <g transform="translate(289.777342 269.439513)scale(0.15 -0.15)">
      <use xlink:href="#SimHei-34"/>
     </g>
    </g>
   </g>
   <g id="xtick_4">
    <g id="line2d_5">
     <path d="M 263.721492 249.344577 
L 266.668935 250.659107 
" style="fill:none;stroke:#000000;stroke-linecap:square;stroke-width:0.8;"/>
    </g>
    <g id="text_5">
     <!-- 6 -->
     <defs>
      <path d="M 3.515625 19.53125 
Q 4.296875 30.859375 6.046875 34.765625 
Q 7.8125 38.671875 11.328125 44.53125 
L 27.34375 69.53125 
L 36.328125 69.53125 
L 19.921875 43.75 
Q 30.46875 46.484375 36.71875 42.96875 
Q 42.96875 39.453125 45.109375 34.953125 
Q 47.265625 30.46875 47.453125 25.1875 
Q 47.65625 19.921875 45.890625 14.84375 
Q 44.140625 9.765625 39.640625 5.65625 
Q 35.15625 1.5625 27.140625 1.171875 
Q 19.140625 0.78125 13.46875 4.09375 
Q 7.8125 7.421875 5.65625 13.46875 
Q 3.515625 19.53125 4.296875 30.859375 
z
M 12.5 16.015625 
Q 19.53125 8.59375 25.390625 8.203125 
Q 31.25 7.8125 35.15625 12.109375 
Q 39.0625 16.40625 39.0625 24.609375 
Q 39.0625 32.8125 34.171875 35.9375 
Q 29.296875 39.0625 23.234375 38.28125 
Q 17.1875 37.5 14.453125 32.421875 
Q 11.71875 27.34375 12.109375 21.671875 
Q 12.5 16.015625 19.53125 8.59375 
z
" id="SimHei-36"/>
     </defs>
     <g transform="translate(269.171041 274.210454)scale(0.15 -0.15)">
      <use xlink:href="#SimHei-36"/>
     </g>
    </g>
   </g>
   <g id="xtick_5">
    <g id="line2d_6">
     <path d="M 242.83621 254.061792 
L 245.763028 255.395052 
" style="fill:none;stroke:#000000;stroke-linecap:square;stroke-width:0.8;"/>
    </g>
    <g id="text_6">
     <!-- 8 -->
     <defs>
      <path d="M 2.734375 16.796875 
Q 2.734375 26.171875 5.078125 30.65625 
Q 7.421875 35.15625 12.890625 37.890625 
Q 8.203125 40.625 6.640625 43.9375 
Q 5.078125 47.265625 4.875 51.5625 
Q 4.6875 55.859375 6.046875 58.984375 
Q 7.421875 62.109375 10.15625 64.84375 
Q 12.890625 67.578125 16.203125 68.546875 
Q 19.53125 69.53125 23.4375 69.53125 
Q 27.34375 69.53125 30.46875 68.75 
Q 33.59375 67.96875 37.109375 65.421875 
Q 40.625 62.890625 42.1875 58.203125 
Q 43.75 53.515625 41.984375 47.265625 
Q 40.234375 41.015625 32.8125 37.5 
Q 39.453125 35.546875 42.1875 31.4375 
Q 44.921875 27.34375 44.921875 21.484375 
Q 44.921875 15.625 43.15625 12.109375 
Q 41.40625 8.59375 39.25 6.25 
Q 37.109375 3.90625 33.390625 2.53125 
Q 29.6875 1.171875 24.015625 1.171875 
Q 18.359375 1.171875 14.25 2.53125 
Q 10.15625 3.90625 7.421875 6.640625 
Q 4.6875 9.375 3.703125 13.078125 
Q 2.734375 16.796875 2.734375 26.171875 
z
M 10.9375 26.5625 
Q 10.546875 17.1875 12.296875 13.671875 
Q 14.0625 10.15625 18.75 9.171875 
Q 23.4375 8.203125 28.515625 9.375 
Q 33.59375 10.546875 35.546875 14.84375 
Q 37.5 19.140625 36.90625 23.4375 
Q 36.328125 27.734375 32.03125 30.65625 
Q 27.734375 33.59375 22.65625 33.203125 
Q 17.578125 32.8125 14.25 29.6875 
Q 10.9375 26.5625 10.546875 17.1875 
z
M 12.109375 56.25 
Q 12.109375 48.4375 14.84375 44.921875 
Q 17.578125 41.40625 23.4375 41.40625 
Q 29.296875 41.40625 32.21875 44.921875 
Q 35.15625 48.4375 34.953125 53.3125 
Q 34.765625 58.203125 31.4375 60.546875 
Q 28.125 62.890625 22.453125 62.5 
Q 16.796875 62.109375 14.453125 59.171875 
Q 12.109375 56.25 12.109375 48.4375 
z
" id="SimHei-38"/>
     </defs>
     <g transform="translate(248.271344 279.049324)scale(0.15 -0.15)">
      <use xlink:href="#SimHei-38"/>
     </g>
    </g>
   </g>
   <g id="xtick_6">
    <g id="line2d_7">
     <path d="M 221.652577 258.846394 
L 224.557878 260.198787 
" style="fill:none;stroke:#000000;stroke-linecap:square;stroke-width:0.8;"/>
    </g>
    <g id="text_7">
     <!-- 10 -->
     <defs>
      <path d="M 21.875 56.25 
Q 16.796875 51.171875 8.984375 46.484375 
L 8.984375 53.90625 
Q 18.75 60.546875 25 69.53125 
L 29.6875 69.53125 
L 29.6875 2.34375 
L 21.875 2.34375 
z
" id="SimHei-31"/>
     </defs>
     <g transform="translate(223.321939 283.957585)scale(0.15 -0.15)">
      <use xlink:href="#SimHei-31"/>
      <use x="50" xlink:href="#SimHei-30"/>
     </g>
    </g>
   </g>
   <g id="xtick_7">
    <g id="line2d_8">
     <path d="M 200.164153 263.699837 
L 203.047012 265.071778 
" style="fill:none;stroke:#000000;stroke-linecap:square;stroke-width:0.8;"/>
    </g>
    <g id="text_8">
     <!-- 12 -->
     <g transform="translate(201.816333 288.936741)scale(0.15 -0.15)">
      <use xlink:href="#SimHei-31"/>
      <use x="50" xlink:href="#SimHei-32"/>
     </g>
    </g>
   </g>
   <g id="xtick_8">
    <g id="line2d_9">
     <path d="M 178.364314 268.623617 
L 181.22377 270.015533 
" style="fill:none;stroke:#000000;stroke-linecap:square;stroke-width:0.8;"/>
    </g>
    <g id="text_9">
     <!-- 14 -->
     <g transform="translate(179.997844 293.988337)scale(0.15 -0.15)">
      <use xlink:href="#SimHei-31"/>
      <use x="50" xlink:href="#SimHei-34"/>
     </g>
    </g>
   </g>
  </g>
  <g id="axis3d_2">
   <g id="line2d_10">
    <path d="M 58.794045 217.8137 
L 168.062833 271.631196 
" style="fill:none;stroke:#000000;stroke-linecap:square;stroke-width:0.8;"/>
   </g>
   <g id="text_10">
    <!-- coins of 胖虎 -->
    <defs>
     <path d="M 21.484375 1.953125 
Q 25.78125 1.5625 28.515625 1.75 
Q 31.25 1.953125 31.640625 7.03125 
L 31.640625 26.171875 
L 18.359375 26.171875 
Q 16.796875 14.453125 14.453125 5.859375 
Q 12.109375 -2.734375 10.15625 -7.03125 
Q 6.640625 -3.90625 3.125 -2.734375 
Q 6.640625 2.734375 8.78125 10.34375 
Q 10.9375 17.96875 11.71875 30.859375 
L 11.71875 64.453125 
Q 11.71875 71.09375 11.328125 76.953125 
L 38.671875 76.953125 
Q 38.28125 69.140625 38.28125 61.328125 
L 38.28125 1.953125 
Q 38.28125 -6.25 23.4375 -7.03125 
Q 23.046875 -3.125 21.484375 1.953125 
z
M 64.453125 45.3125 
L 64.453125 69.140625 
Q 64.453125 73.828125 63.671875 79.296875 
L 72.265625 79.296875 
Q 71.875 74.21875 71.875 69.140625 
L 71.875 45.3125 
L 82.421875 45.3125 
Q 85.9375 45.3125 91.796875 45.703125 
L 91.796875 38.671875 
Q 88.28125 39.0625 82.421875 39.0625 
L 71.875 39.0625 
L 71.875 23.4375 
L 84.765625 23.4375 
Q 91.015625 23.4375 96.09375 23.828125 
L 96.09375 16.796875 
Q 90.234375 17.1875 84.765625 17.1875 
L 71.875 17.1875 
L 71.875 3.90625 
Q 71.875 -2.34375 72.265625 -8.984375 
L 64.0625 -8.984375 
Q 64.453125 -2.734375 64.453125 3.90625 
L 64.453125 17.1875 
L 53.90625 17.1875 
Q 48.4375 17.1875 42.578125 16.796875 
L 42.578125 23.828125 
Q 48.046875 23.4375 54.296875 23.4375 
L 64.453125 23.4375 
L 64.453125 39.0625 
L 53.90625 39.0625 
Q 48.4375 39.0625 43.359375 38.671875 
L 43.359375 45.703125 
Q 48.4375 45.3125 53.515625 45.3125 
z
M 31.640625 32.8125 
L 31.640625 48.828125 
L 18.75 48.828125 
L 18.75 32.8125 
z
M 31.640625 55.078125 
L 31.640625 70.703125 
L 18.75 70.703125 
L 18.75 55.078125 
z
M 51.5625 51.953125 
Q 50 58.984375 44.921875 71.09375 
L 51.171875 74.21875 
Q 55.859375 63.28125 58.59375 54.6875 
Q 54.296875 53.515625 51.5625 51.953125 
z
M 77.34375 53.90625 
Q 83.984375 67.96875 84.765625 73.4375 
Q 88.671875 71.875 92.578125 70.703125 
Q 90.625 67.96875 88.671875 62.890625 
Q 86.71875 57.8125 84.375 51.953125 
Q 80.859375 53.90625 77.34375 53.90625 
z
" id="SimHei-80d6"/>
     <path d="M 25.78125 45.703125 
Q 33.203125 46.09375 44.140625 46.875 
L 44.140625 56.640625 
L 20.703125 56.640625 
Q 20.703125 31.640625 20.109375 23.4375 
Q 19.53125 15.234375 17.578125 8 
Q 15.625 0.78125 10.9375 -7.8125 
Q 7.8125 -5.46875 3.125 -3.90625 
Q 7.03125 0.78125 9.171875 6.828125 
Q 11.328125 12.890625 12.109375 18.75 
Q 12.890625 24.609375 13.078125 30.265625 
Q 13.28125 35.9375 13.28125 42.96875 
Q 13.28125 50.390625 12.890625 62.5 
L 44.140625 62.5 
L 44.140625 74.609375 
Q 44.140625 77.34375 43.359375 82.421875 
L 51.953125 82.421875 
Q 51.5625 78.515625 51.5625 75.390625 
L 71.09375 75.390625 
Q 76.171875 75.390625 84.765625 76.171875 
L 84.765625 69.53125 
Q 76.171875 69.921875 70.703125 69.921875 
L 51.171875 69.921875 
L 51.171875 62.5 
L 93.75 62.5 
Q 92.1875 57.8125 89.84375 46.875 
Q 85.15625 48.046875 82.03125 48.4375 
Q 83.984375 52.734375 85.15625 56.640625 
L 51.171875 56.640625 
L 51.171875 47.65625 
Q 65.234375 49.21875 74.21875 50.78125 
L 75 44.140625 
Q 64.0625 42.96875 51.171875 41.40625 
L 51.171875 36.71875 
Q 51.171875 33.203125 57.421875 33.203125 
L 70.3125 33.203125 
Q 75 32.8125 76.359375 34.5625 
Q 77.734375 36.328125 78.515625 41.015625 
Q 81.640625 39.0625 86.71875 37.109375 
Q 84.765625 30.859375 82.03125 29.09375 
Q 79.296875 27.34375 73.828125 27.34375 
L 54.296875 27.34375 
Q 44.140625 27.34375 44.140625 33.59375 
L 44.140625 41.015625 
Q 36.328125 40.234375 27.34375 39.0625 
Q 26.5625 42.578125 25.78125 45.703125 
z
M 71.09375 22.265625 
Q 70.703125 16.796875 70.703125 10.9375 
L 70.703125 2.34375 
Q 70.703125 -1.953125 75 -1.953125 
L 81.25 -1.953125 
Q 85.9375 -1.953125 86.71875 0.78125 
Q 87.5 3.515625 87.5 7.421875 
Q 91.40625 5.078125 96.09375 4.296875 
Q 93.359375 -3.90625 91.59375 -5.859375 
Q 89.84375 -7.8125 85.15625 -7.8125 
L 72.65625 -7.8125 
Q 63.671875 -7.8125 63.671875 -1.171875 
L 63.671875 16.40625 
L 45.3125 16.40625 
Q 45.3125 4.6875 41.203125 -0.578125 
Q 37.109375 -5.859375 26.171875 -10.546875 
Q 25 -6.640625 21.484375 -3.515625 
Q 35.9375 0.78125 37.109375 7.421875 
Q 38.28125 14.0625 37.890625 22.265625 
L 71.09375 22.265625 
z
" id="SimHei-864e"/>
    </defs>
    <g style="fill:#800080;" transform="translate(49.092792 257.912399)rotate(-333.778649)scale(0.12 -0.12)">
     <use xlink:href="#SimHei-63"/>
     <use x="50" xlink:href="#SimHei-6f"/>
     <use x="100" xlink:href="#SimHei-69"/>
     <use x="150" xlink:href="#SimHei-6e"/>
     <use x="200" xlink:href="#SimHei-73"/>
     <use x="250" xlink:href="#SimHei-20"/>
     <use x="300" xlink:href="#SimHei-6f"/>
     <use x="350" xlink:href="#SimHei-66"/>
     <use x="400" xlink:href="#SimHei-20"/>
     <use x="450" xlink:href="#SimHei-80d6"/>
     <use x="550" xlink:href="#SimHei-864e"/>
    </g>
   </g>
   <g id="Line3DCollection_2">
    <path d="M 227.548604 43.791556 
L 226.494241 188.318329 
L 65.235235 220.98614 
" style="fill:none;stroke:#b0b0b0;stroke-width:0.8;"/>
    <path d="M 241.688876 48.257402 
L 240.154088 193.993191 
L 78.043534 227.294534 
" style="fill:none;stroke:#b0b0b0;stroke-width:0.8;"/>
    <path d="M 256.106644 52.810887 
L 254.072998 199.775679 
L 91.108144 233.729167 
" style="fill:none;stroke:#b0b0b0;stroke-width:0.8;"/>
    <path d="M 270.810156 57.454617 
L 268.25841 205.668883 
L 104.436836 240.293868 
" style="fill:none;stroke:#b0b0b0;stroke-width:0.8;"/>
    <path d="M 285.807992 62.191302 
L 282.718053 211.676014 
L 118.0377 246.992619 
" style="fill:none;stroke:#b0b0b0;stroke-width:0.8;"/>
    <path d="M 301.10908 67.023762 
L 297.459956 217.800407 
L 131.919157 253.829569 
" style="fill:none;stroke:#b0b0b0;stroke-width:0.8;"/>
    <path d="M 316.722709 71.95493 
L 312.492466 224.045531 
L 146.089982 260.80904 
" style="fill:none;stroke:#b0b0b0;stroke-width:0.8;"/>
    <path d="M 332.658556 76.987861 
L 327.824262 230.41499 
L 160.559317 267.935534 
" style="fill:none;stroke:#b0b0b0;stroke-width:0.8;"/>
   </g>
   <g id="xtick_9">
    <g id="line2d_11">
     <path d="M 66.594479 220.710784 
L 62.513215 221.537566 
" style="fill:none;stroke:#000000;stroke-linecap:square;stroke-width:0.8;"/>
    </g>
    <g id="text_11">
     <!-- 0 -->
     <g transform="translate(50.195232 243.623733)scale(0.15 -0.15)">
      <use xlink:href="#SimHei-30"/>
     </g>
    </g>
   </g>
   <g id="xtick_10">
    <g id="line2d_12">
     <path d="M 79.410645 227.013697 
L 75.305726 227.856945 
" style="fill:none;stroke:#000000;stroke-linecap:square;stroke-width:0.8;"/>
    </g>
    <g id="text_12">
     <!-- 2 -->
     <g transform="translate(62.908596 250.062791)scale(0.15 -0.15)">
      <use xlink:href="#SimHei-32"/>
     </g>
    </g>
   </g>
   <g id="xtick_11">
    <g id="line2d_13">
     <path d="M 92.483165 233.442684 
L 88.354458 234.302894 
" style="fill:none;stroke:#000000;stroke-linecap:square;stroke-width:0.8;"/>
    </g>
    <g id="text_13">
     <!-- 4 -->
     <g transform="translate(75.876714 256.630876)scale(0.15 -0.15)">
      <use xlink:href="#SimHei-34"/>
     </g>
    </g>
   </g>
   <g id="xtick_12">
    <g id="line2d_14">
     <path d="M 105.81981 240.001565 
L 101.667187 240.879255 
" style="fill:none;stroke:#000000;stroke-linecap:square;stroke-width:0.8;"/>
    </g>
    <g id="text_14">
     <!-- 6 -->
     <g transform="translate(89.10732 263.331906)scale(0.15 -0.15)">
      <use xlink:href="#SimHei-36"/>
     </g>
    </g>
   </g>
   <g id="xtick_13">
    <g id="line2d_15">
     <path d="M 119.428666 246.694319 
L 115.252006 247.590026 
" style="fill:none;stroke:#000000;stroke-linecap:square;stroke-width:0.8;"/>
    </g>
    <g id="text_15">
     <!-- 8 -->
     <g transform="translate(102.608465 270.169958)scale(0.15 -0.15)">
      <use xlink:href="#SimHei-38"/>
     </g>
    </g>
   </g>
   <g id="xtick_14">
    <g id="line2d_16">
     <path d="M 133.318153 253.525084 
L 129.117343 254.439371 
" style="fill:none;stroke:#000000;stroke-linecap:square;stroke-width:0.8;"/>
    </g>
    <g id="text_16">
     <!-- 10 -->
     <g transform="translate(112.638533 277.14928)scale(0.15 -0.15)">
      <use xlink:href="#SimHei-31"/>
      <use x="50" xlink:href="#SimHei-30"/>
     </g>
    </g>
   </g>
   <g id="xtick_15">
    <g id="line2d_17">
     <path d="M 147.497042 260.498176 
L 143.271977 261.431625 
" style="fill:none;stroke:#000000;stroke-linecap:square;stroke-width:0.8;"/>
    </g>
    <g id="text_17">
     <!-- 12 -->
     <g transform="translate(126.706257 284.274293)scale(0.15 -0.15)">
      <use xlink:href="#SimHei-31"/>
      <use x="50" xlink:href="#SimHei-32"/>
     </g>
    </g>
   </g>
   <g id="xtick_16">
    <g id="line2d_18">
     <path d="M 161.974472 267.618089 
L 157.725058 268.57131 
" style="fill:none;stroke:#000000;stroke-linecap:square;stroke-width:0.8;"/>
    </g>
    <g id="text_18">
     <!-- 14 -->
     <g transform="translate(141.07074 291.549608)scale(0.15 -0.15)">
      <use xlink:href="#SimHei-31"/>
      <use x="50" xlink:href="#SimHei-34"/>
     </g>
    </g>
   </g>
  </g>
  <g id="axis3d_3">
   <g id="line2d_19">
    <path d="M 58.794045 217.8137 
L 53.895826 67.034254 
" style="fill:none;stroke:#000000;stroke-linecap:square;stroke-width:0.8;"/>
   </g>
   <g id="text_19">
    <!-- coins of 静香 -->
    <defs>
     <path d="M 67.578125 78.90625 
Q 65.625 76.5625 64.640625 74.40625 
Q 63.671875 72.265625 62.890625 70.3125 
L 84.375 70.3125 
Q 82.03125 66.796875 80.078125 62.296875 
Q 78.125 57.8125 75.78125 52.734375 
L 90.234375 52.734375 
Q 89.84375 47.265625 89.84375 41.015625 
L 89.84375 36.71875 
Q 93.359375 36.71875 96.875 37.109375 
L 96.875 30.46875 
Q 94.140625 30.859375 89.84375 30.859375 
L 89.84375 25.390625 
Q 89.84375 17.578125 90.234375 10.546875 
L 83.203125 10.546875 
L 83.203125 14.84375 
L 72.265625 14.84375 
L 72.265625 0.390625 
Q 71.875 -4.6875 68.9375 -6.640625 
Q 66.015625 -8.59375 56.25 -9.375 
Q 56.25 -5.46875 53.90625 -1.171875 
Q 58.984375 -1.5625 62.296875 -1.171875 
Q 65.625 -0.78125 65.625 2.734375 
L 65.625 14.84375 
L 60.15625 14.84375 
Q 55.46875 14.84375 50.390625 14.453125 
L 50.390625 20.703125 
Q 55.078125 20.3125 60.15625 20.3125 
L 65.625 20.3125 
L 65.625 30.859375 
L 59.765625 30.859375 
Q 54.6875 30.859375 48.046875 30.46875 
L 48.046875 36.71875 
Q 53.515625 36.328125 60.15625 36.328125 
L 65.625 36.328125 
L 65.625 47.265625 
L 60.15625 47.265625 
Q 57.8125 47.265625 51.953125 46.875 
L 51.953125 51.953125 
Q 50.78125 50.78125 48.828125 48.4375 
Q 46.875 51.5625 44.140625 53.90625 
Q 50.390625 60.15625 53.703125 68.15625 
Q 57.03125 76.171875 58.984375 82.03125 
Q 62.890625 80.078125 67.578125 78.90625 
z
M 42.96875 36.328125 
Q 42.578125 30.859375 42.578125 25 
L 42.578125 1.171875 
Q 42.578125 -4.6875 39.453125 -6.25 
Q 36.328125 -7.8125 30.078125 -8.984375 
Q 29.6875 -5.46875 27.34375 -1.5625 
Q 36.328125 -1.5625 35.546875 1.953125 
L 35.546875 6.640625 
L 15.234375 6.640625 
L 15.234375 -8.203125 
L 8.203125 -8.203125 
Q 8.59375 -3.90625 8.59375 1.953125 
L 8.59375 25 
Q 8.59375 30.859375 8.203125 36.328125 
L 42.96875 36.328125 
z
M 21.875 71.09375 
Q 21.875 74.609375 21.484375 80.46875 
L 29.296875 80.46875 
Q 28.90625 74.609375 28.90625 71.09375 
L 33.984375 71.09375 
Q 39.453125 71.09375 46.875 71.484375 
L 46.875 65.234375 
Q 39.453125 65.625 33.984375 65.625 
L 28.90625 65.625 
L 28.90625 59.375 
L 33.984375 59.375 
Q 36.328125 59.375 42.578125 59.765625 
L 42.578125 53.515625 
Q 35.9375 53.90625 33.59375 53.90625 
L 28.90625 53.90625 
L 28.90625 47.65625 
L 35.15625 47.65625 
Q 40.625 47.65625 46.484375 48.046875 
L 46.484375 41.796875 
Q 40.234375 42.1875 35.15625 42.1875 
L 15.625 42.1875 
Q 9.375 42.1875 3.90625 41.796875 
L 3.90625 48.046875 
Q 9.375 47.65625 15.625 47.65625 
L 21.875 47.65625 
L 21.875 53.90625 
L 15.234375 53.90625 
Q 12.890625 53.90625 8.59375 53.515625 
L 8.59375 59.765625 
Q 12.890625 59.375 15.234375 59.375 
L 21.875 59.375 
L 21.875 65.625 
L 15.234375 65.625 
Q 10.15625 65.625 4.6875 65.234375 
L 4.6875 71.484375 
Q 10.15625 71.09375 15.234375 71.09375 
z
M 52.734375 53.515625 
Q 57.421875 53.125 64.453125 53.125 
L 68.359375 53.125 
Q 72.265625 61.328125 73.4375 64.84375 
L 60.15625 64.84375 
Q 55.078125 56.640625 52.734375 53.515625 
z
M 35.546875 12.109375 
L 35.546875 19.140625 
L 15.234375 19.140625 
L 15.234375 12.109375 
z
M 35.546875 24.609375 
L 35.546875 30.859375 
L 15.234375 30.859375 
L 15.234375 24.609375 
z
M 83.203125 36.328125 
L 83.203125 47.265625 
L 72.265625 47.265625 
L 72.265625 36.328125 
z
M 83.203125 20.3125 
L 83.203125 30.859375 
L 72.265625 30.859375 
L 72.265625 20.3125 
z
" id="SimHei-9759"/>
     <path d="M 45.703125 33.59375 
L 45.703125 53.90625 
Q 36.71875 44.140625 26.359375 38.28125 
Q 16.015625 32.421875 10.546875 30.078125 
Q 10.546875 33.203125 5.46875 36.71875 
Q 16.015625 39.453125 24.21875 44.53125 
Q 32.421875 49.609375 37.109375 54.296875 
L 21.484375 54.296875 
Q 14.84375 54.296875 7.8125 53.90625 
L 7.8125 60.15625 
Q 14.84375 59.765625 21.484375 59.765625 
L 45.703125 59.765625 
L 45.703125 69.921875 
Q 38.28125 69.140625 17.96875 67.578125 
Q 16.796875 71.09375 14.453125 74.609375 
Q 32.8125 74.609375 50.390625 76.953125 
Q 67.96875 79.296875 74.609375 82.03125 
Q 76.953125 78.125 81.25 73.828125 
Q 74.609375 73.4375 67.96875 72.65625 
Q 61.328125 71.875 52.34375 70.703125 
L 52.34375 59.765625 
L 78.125 59.765625 
Q 83.984375 59.765625 91.40625 60.15625 
L 91.40625 53.90625 
Q 84.375 54.296875 78.125 54.296875 
L 61.71875 54.296875 
Q 66.40625 48.4375 74.21875 43.15625 
Q 82.03125 37.890625 94.140625 34.765625 
Q 89.84375 31.640625 88.28125 26.953125 
Q 82.421875 29.296875 77.34375 32.03125 
Q 76.5625 25 76.5625 12.5 
Q 76.5625 -0.78125 76.953125 -8.984375 
L 69.53125 -8.984375 
L 69.53125 -3.125 
L 28.515625 -3.125 
L 28.515625 -9.375 
L 21.875 -9.375 
L 21.875 11.71875 
Q 21.875 25 21.484375 33.59375 
z
M 69.53125 17.96875 
L 69.53125 27.734375 
L 28.515625 27.734375 
L 28.515625 17.96875 
z
M 69.53125 2.734375 
L 69.53125 12.5 
L 28.515625 12.5 
L 28.515625 2.734375 
z
M 71.484375 35.9375 
Q 62.109375 42.578125 52.734375 54.296875 
L 52.34375 54.296875 
L 52.34375 33.59375 
L 75 33.59375 
z
" id="SimHei-9999"/>
    </defs>
    <g style="fill:#800080;" transform="translate(10.565293 102.842551)rotate(-271.860655)scale(0.12 -0.12)">
     <use xlink:href="#SimHei-63"/>
     <use x="50" xlink:href="#SimHei-6f"/>
     <use x="100" xlink:href="#SimHei-69"/>
     <use x="150" xlink:href="#SimHei-6e"/>
     <use x="200" xlink:href="#SimHei-73"/>
     <use x="250" xlink:href="#SimHei-20"/>
     <use x="300" xlink:href="#SimHei-6f"/>
     <use x="350" xlink:href="#SimHei-66"/>
     <use x="400" xlink:href="#SimHei-20"/>
     <use x="450" xlink:href="#SimHei-9759"/>
     <use x="550" xlink:href="#SimHei-9999"/>
    </g>
   </g>
   <g id="Line3DCollection_3">
    <path d="M 58.492454 208.529967 
L 219.669895 176.585888 
L 336.085066 224.233899 
" style="fill:none;stroke:#b0b0b0;stroke-width:0.8;"/>
    <path d="M 57.897709 190.222231 
L 219.769111 159.08724 
L 336.710174 205.533478 
" style="fill:none;stroke:#b0b0b0;stroke-width:0.8;"/>
    <path d="M 57.297781 171.754931 
L 219.869148 141.443949 
L 337.340869 186.665935 
" style="fill:none;stroke:#b0b0b0;stroke-width:0.8;"/>
    <path d="M 56.692601 153.125973 
L 219.970014 123.654212 
L 337.977226 167.629019 
" style="fill:none;stroke:#b0b0b0;stroke-width:0.8;"/>
    <path d="M 56.0821 134.333224 
L 220.071722 105.716199 
L 338.619321 148.42044 
" style="fill:none;stroke:#b0b0b0;stroke-width:0.8;"/>
    <path d="M 55.466207 115.374514 
L 220.17428 87.628049 
L 339.267233 129.037865 
" style="fill:none;stroke:#b0b0b0;stroke-width:0.8;"/>
    <path d="M 54.844852 96.247636 
L 220.277701 69.387869 
L 339.92104 109.478918 
" style="fill:none;stroke:#b0b0b0;stroke-width:0.8;"/>
    <path d="M 54.21796 76.950341 
L 220.381995 50.993734 
L 340.580823 89.741182 
" style="fill:none;stroke:#b0b0b0;stroke-width:0.8;"/>
   </g>
   <g id="xtick_17">
    <g id="line2d_20">
     <path d="M 59.850818 208.26075 
L 55.772207 209.069099 
" style="fill:none;stroke:#000000;stroke-linecap:square;stroke-width:0.8;"/>
    </g>
    <g id="text_20">
     <!-- 0 -->
     <g transform="translate(36.319991 217.800274)scale(0.15 -0.15)">
      <use xlink:href="#SimHei-30"/>
     </g>
    </g>
   </g>
   <g id="xtick_18">
    <g id="line2d_21">
     <path d="M 59.262222 189.959775 
L 55.165133 190.747826 
" style="fill:none;stroke:#000000;stroke-linecap:square;stroke-width:0.8;"/>
    </g>
    <g id="text_21">
     <!-- 2 -->
     <g transform="translate(35.646444 199.518717)scale(0.15 -0.15)">
      <use xlink:href="#SimHei-32"/>
     </g>
    </g>
   </g>
   <g id="xtick_19">
    <g id="line2d_22">
     <path d="M 58.668498 171.499365 
L 54.552763 172.266732 
" style="fill:none;stroke:#000000;stroke-linecap:square;stroke-width:0.8;"/>
    </g>
    <g id="text_22">
     <!-- 4 -->
     <g transform="translate(34.967036 181.078092)scale(0.15 -0.15)">
      <use xlink:href="#SimHei-34"/>
     </g>
    </g>
   </g>
   <g id="xtick_20">
    <g id="line2d_23">
     <path d="M 58.069579 152.877427 
L 53.935029 153.623718 
" style="fill:none;stroke:#000000;stroke-linecap:square;stroke-width:0.8;"/>
    </g>
    <g id="text_23">
     <!-- 6 -->
     <g transform="translate(34.281691 162.476316)scale(0.15 -0.15)">
      <use xlink:href="#SimHei-36"/>
     </g>
    </g>
   </g>
   <g id="xtick_21">
    <g id="line2d_24">
     <path d="M 57.465397 134.091831 
L 53.311858 134.816645 
" style="fill:none;stroke:#000000;stroke-linecap:square;stroke-width:0.8;"/>
    </g>
    <g id="text_24">
     <!-- 8 -->
     <g transform="translate(33.590331 143.711265)scale(0.15 -0.15)">
      <use xlink:href="#SimHei-38"/>
     </g>
    </g>
   </g>
   <g id="xtick_22">
    <g id="line2d_25">
     <path d="M 56.855881 115.140412 
L 52.683179 115.843338 
" style="fill:none;stroke:#000000;stroke-linecap:square;stroke-width:0.8;"/>
    </g>
    <g id="text_25">
     <!-- 10 -->
     <g transform="translate(29.142875 124.780781)scale(0.15 -0.15)">
      <use xlink:href="#SimHei-31"/>
      <use x="50" xlink:href="#SimHei-30"/>
     </g>
    </g>
   </g>
   <g id="xtick_23">
    <g id="line2d_26">
     <path d="M 56.240962 96.020962 
L 52.048919 96.701585 
" style="fill:none;stroke:#000000;stroke-linecap:square;stroke-width:0.8;"/>
    </g>
    <g id="text_26">
     <!-- 12 -->
     <g transform="translate(28.439244 105.682667)scale(0.15 -0.15)">
      <use xlink:href="#SimHei-31"/>
      <use x="50" xlink:href="#SimHei-32"/>
     </g>
    </g>
   </g>
   <g id="xtick_24">
    <g id="line2d_27">
     <path d="M 55.620566 76.731239 
L 51.409002 77.389131 
" style="fill:none;stroke:#000000;stroke-linecap:square;stroke-width:0.8;"/>
    </g>
    <g id="text_27">
     <!-- 14 -->
     <g transform="translate(27.729354 86.414686)scale(0.15 -0.15)">
      <use xlink:href="#SimHei-31"/>
      <use x="50" xlink:href="#SimHei-34"/>
     </g>
    </g>
   </g>
  </g>
  <g id="axes_1">
   <g id="Path3DCollection_1">
    <defs>
     <path d="M 0 5 
C 1.326016 5 2.597899 4.473168 3.535534 3.535534 
C 4.473168 2.597899 5 1.326016 5 0 
C 5 -1.326016 4.473168 -2.597899 3.535534 -3.535534 
C 2.597899 -4.473168 1.326016 -5 0 -5 
C -1.326016 -5 -2.597899 -4.473168 -3.535534 -3.535534 
C -4.473168 -2.597899 -5 -1.326016 -5 0 
C -5 1.326016 -4.473168 2.597899 -3.535534 3.535534 
C -2.597899 4.473168 -1.326016 5 0 5 
z
" id="m5f3f9210a8" style="stroke:#008000;"/>
    </defs>
    <g clip-path="url(#p364483d953)">
     <use style="fill:#008000;stroke:#008000;" x="223.190514" xlink:href="#m5f3f9210a8" y="196.641433"/>
    </g>
   </g>
   <g id="Path3DCollection_2">
    <path clip-path="url(#p364483d953)" d="M 224.398551 57.85269 
C 224.586078 57.85269 224.765949 57.778185 224.898551 57.645583 
C 225.031152 57.512981 225.105658 57.33311 225.105658 57.145583 
C 225.105658 56.958056 225.031152 56.778185 224.898551 56.645583 
C 224.765949 56.512981 224.586078 56.438476 224.398551 56.438476 
C 224.211024 56.438476 224.031152 56.512981 223.898551 56.645583 
C 223.765949 56.778185 223.691444 56.958056 223.691444 57.145583 
C 223.691444 57.33311 223.765949 57.512981 223.898551 57.645583 
C 224.031152 57.778185 224.211024 57.85269 224.398551 57.85269 
z
" style="fill:#ff0000;stroke:#ff0000;"/>
    <path clip-path="url(#p364483d953)" d="M 231.385035 69.811029 
C 231.650238 69.811029 231.904615 69.705663 232.092142 69.518136 
C 232.279668 69.330609 232.385035 69.076232 232.385035 68.811029 
C 232.385035 68.545826 232.279668 68.291449 232.092142 68.103922 
C 231.904615 67.916395 231.650238 67.811029 231.385035 67.811029 
C 231.119832 67.811029 230.865455 67.916395 230.677928 68.103922 
C 230.490401 68.291449 230.385035 68.545826 230.385035 68.811029 
C 230.385035 69.076232 230.490401 69.330609 230.677928 69.518136 
C 230.865455 69.705663 231.119832 69.811029 231.385035 69.811029 
z
" style="fill:#ff0000;stroke:#ff0000;"/>
    <path clip-path="url(#p364483d953)" d="M 238.409492 82.121018 
C 238.828814 82.121018 239.231019 81.954419 239.527526 81.657913 
C 239.824032 81.361407 239.99063 80.959202 239.99063 80.539879 
C 239.99063 80.120556 239.824032 79.718351 239.527526 79.421845 
C 239.231019 79.125339 238.828814 78.95874 238.409492 78.95874 
C 237.990169 78.95874 237.587964 79.125339 237.291458 79.421845 
C 236.994951 79.718351 236.828353 80.120556 236.828353 80.539879 
C 236.828353 80.959202 236.994951 81.361407 237.291458 81.657913 
C 237.587964 81.954419 237.990169 82.121018 238.409492 82.121018 
z
" style="fill:#ff0000;stroke:#ff0000;"/>
    <path clip-path="url(#p364483d953)" d="M 245.472232 94.112164 
C 245.944164 94.112164 246.396831 93.924663 246.730537 93.590957 
C 247.064244 93.25725 247.251745 92.804583 247.251745 92.332651 
C 247.251745 91.860719 247.064244 91.408052 246.730537 91.074345 
C 246.396831 90.740639 245.944164 90.553138 245.472232 90.553138 
C 245.000299 90.553138 244.547632 90.740639 244.213926 91.074345 
C 243.880219 91.408052 243.692719 91.860719 243.692719 92.332651 
C 243.692719 92.804583 243.880219 93.25725 244.213926 93.590957 
C 244.547632 93.924663 245.000299 94.112164 245.472232 94.112164 
z
" style="fill:#ff0000;stroke:#ff0000;"/>
    <path clip-path="url(#p364483d953)" d="M 252.573569 107.07662 
C 253.339144 107.07662 254.073467 106.772454 254.61481 106.231111 
C 255.156154 105.689767 255.46032 104.955444 255.46032 104.189869 
C 255.46032 103.424294 255.156154 102.689971 254.61481 102.148628 
C 254.073467 101.607284 253.339144 101.303118 252.573569 101.303118 
C 251.807993 101.303118 251.073671 101.607284 250.532327 102.148628 
C 249.990984 102.689971 249.686817 103.424294 249.686817 104.189869 
C 249.686817 104.955444 249.990984 105.689767 250.532327 106.231111 
C 251.073671 106.772454 251.807993 107.07662 252.573569 107.07662 
z
" style="fill:#ff0000;stroke:#ff0000;"/>
    <path clip-path="url(#p364483d953)" d="M 259.71382 119.352434 
C 260.573176 119.352434 261.397451 119.011008 262.005108 118.403351 
C 262.612765 117.795694 262.954191 116.971419 262.954191 116.112063 
C 262.954191 115.252707 262.612765 114.428432 262.005108 113.820775 
C 261.397451 113.213119 260.573176 112.871693 259.71382 112.871693 
C 258.854464 112.871693 258.030189 113.213119 257.422532 113.820775 
C 256.814876 114.428432 256.47345 115.252707 256.47345 116.112063 
C 256.47345 116.971419 256.814876 117.795694 257.422532 118.403351 
C 258.030189 119.011008 258.854464 119.352434 259.71382 119.352434 
z
" style="fill:#ff0000;stroke:#ff0000;"/>
    <path clip-path="url(#p364483d953)" d="M 266.893307 131.53973 
C 267.805595 131.53973 268.680641 131.177274 269.325727 130.532189 
C 269.970812 129.887103 270.333268 129.012057 270.333268 128.099769 
C 270.333268 127.18748 269.970812 126.312434 269.325727 125.667349 
C 268.680641 125.022264 267.805595 124.659807 266.893307 124.659807 
C 265.981018 124.659807 265.105972 125.022264 264.460887 125.667349 
C 263.815802 126.312434 263.453346 127.18748 263.453346 128.099769 
C 263.453346 129.012057 263.815802 129.887103 264.460887 130.532189 
C 265.105972 131.177274 265.981018 131.53973 266.893307 131.53973 
z
" style="fill:#ff0000;stroke:#ff0000;"/>
    <path clip-path="url(#p364483d953)" d="M 274.112353 143.939466 
C 275.116395 143.939466 276.07945 143.540556 276.789416 142.83059 
C 277.499381 142.120625 277.898292 141.15757 277.898292 140.153527 
C 277.898292 139.149484 277.499381 138.18643 276.789416 137.476464 
C 276.07945 136.766499 275.116395 136.367588 274.112353 136.367588 
C 273.10831 136.367588 272.145255 136.766499 271.43529 137.476464 
C 270.725324 138.18643 270.326414 139.149484 270.326414 140.153527 
C 270.326414 141.15757 270.725324 142.120625 271.43529 142.83059 
C 272.145255 143.540556 273.10831 143.939466 274.112353 143.939466 
z
" style="fill:#ff0000;stroke:#ff0000;"/>
    <path clip-path="url(#p364483d953)" d="M 281.371286 156.516527 
C 282.496447 156.516527 283.575677 156.069495 284.371286 155.273886 
C 285.166895 154.478277 285.613926 153.399047 285.613926 152.273886 
C 285.613926 151.148725 285.166895 150.069495 284.371286 149.273886 
C 283.575677 148.478277 282.496447 148.031245 281.371286 148.031245 
C 280.246124 148.031245 279.166895 148.478277 278.371286 149.273886 
C 277.575677 150.069495 277.128645 151.148725 277.128645 152.273886 
C 277.128645 153.399047 277.575677 154.478277 278.371286 155.273886 
C 279.166895 156.069495 280.246124 156.516527 281.371286 156.516527 
z
" style="fill:#ff0000;stroke:#ff0000;"/>
    <path clip-path="url(#p364483d953)" d="M 288.670438 169.007459 
C 289.876067 169.007459 291.032479 168.528458 291.884988 167.675949 
C 292.737497 166.82344 293.216498 165.667028 293.216498 164.461399 
C 293.216498 163.255769 292.737497 162.099357 291.884988 161.246848 
C 291.032479 160.39434 289.876067 159.915338 288.670438 159.915338 
C 287.464808 159.915338 286.308396 160.39434 285.455887 161.246848 
C 284.603379 162.099357 284.124377 163.255769 284.124377 164.461399 
C 284.124377 165.667028 284.603379 166.82344 285.455887 167.675949 
C 286.308396 168.528458 287.464808 169.007459 288.670438 169.007459 
z
" style="fill:#ff0000;stroke:#ff0000;"/>
    <path clip-path="url(#p364483d953)" d="M 296.010143 180.799108 
C 297.092831 180.799108 298.131319 180.368952 298.896895 179.603376 
C 299.66247 178.837801 300.092626 177.799312 300.092626 176.716625 
C 300.092626 175.633938 299.66247 174.595449 298.896895 173.829874 
C 298.131319 173.064298 297.092831 172.634142 296.010143 172.634142 
C 294.927456 172.634142 293.888968 173.064298 293.123392 173.829874 
C 292.357817 174.595449 291.927661 175.633938 291.927661 176.716625 
C 291.927661 177.799312 292.357817 178.837801 293.123392 179.603376 
C 293.888968 180.368952 294.927456 180.799108 296.010143 180.799108 
z
" style="fill:#ff0000;stroke:#ff0000;"/>
    <path clip-path="url(#p364483d953)" d="M 303.390742 192.781788 
C 304.383041 192.781788 305.334832 192.387543 306.036493 191.685882 
C 306.738155 190.98422 307.132399 190.03243 307.132399 189.04013 
C 307.132399 188.047831 306.738155 187.096041 306.036493 186.394379 
C 305.334832 185.692718 304.383041 185.298473 303.390742 185.298473 
C 302.398443 185.298473 301.446652 185.692718 300.744991 186.394379 
C 300.043329 187.096041 299.649085 188.047831 299.649085 189.04013 
C 299.649085 190.03243 300.043329 190.98422 300.744991 191.685882 
C 301.446652 192.387543 302.398443 192.781788 303.390742 192.781788 
z
" style="fill:#ff0000;stroke:#ff0000;"/>
    <path clip-path="url(#p364483d953)" d="M 310.812576 204.514695 
C 311.629987 204.514695 312.414029 204.189934 312.992026 203.611937 
C 313.570022 203.03394 313.894783 202.249899 313.894783 201.432488 
C 313.894783 200.615077 313.570022 199.831035 312.992026 199.253038 
C 312.414029 198.675042 311.629987 198.350281 310.812576 198.350281 
C 309.995165 198.350281 309.211123 198.675042 308.633127 199.253038 
C 308.05513 199.831035 307.730369 200.615077 307.730369 201.432488 
C 307.730369 202.249899 308.05513 203.03394 308.633127 203.611937 
C 309.211123 204.189934 309.995165 204.514695 310.812576 204.514695 
z
" style="fill:#ff0000;stroke:#ff0000;"/>
    <path clip-path="url(#p364483d953)" d="M 318.275992 215.809129 
C 318.783818 215.809129 319.270912 215.607368 319.629999 215.248282 
C 319.989085 214.889195 320.190847 214.402101 320.190847 213.894275 
C 320.190847 213.38645 319.989085 212.899356 319.629999 212.540269 
C 319.270912 212.181182 318.783818 211.979421 318.275992 211.979421 
C 317.768167 211.979421 317.281073 212.181182 316.921986 212.540269 
C 316.562899 212.899356 316.361138 213.38645 316.361138 213.894275 
C 316.361138 214.402101 316.562899 214.889195 316.921986 215.248282 
C 317.281073 215.607368 317.768167 215.809129 318.275992 215.809129 
z
" style="fill:#ff0000;stroke:#ff0000;"/>
    <path clip-path="url(#p364483d953)" d="M 207.466343 57.008055 
C 207.619458 57.008055 207.766322 56.947222 207.874591 56.838953 
C 207.98286 56.730684 208.043693 56.58382 208.043693 56.430705 
C 208.043693 56.27759 207.98286 56.130725 207.874591 56.022457 
C 207.766322 55.914188 207.619458 55.853355 207.466343 55.853355 
C 207.313228 55.853355 207.166363 55.914188 207.058095 56.022457 
C 206.949826 56.130725 206.888993 56.27759 206.888993 56.430705 
C 206.888993 56.58382 206.949826 56.730684 207.058095 56.838953 
C 207.166363 56.947222 207.313228 57.008055 207.466343 57.008055 
z
" style="fill:#ff0000;stroke:#ff0000;"/>
    <path clip-path="url(#p364483d953)" d="M 197.459219 68.758479 
C 197.834273 68.758479 198.194016 68.609469 198.459219 68.344266 
C 198.724422 68.079063 198.873432 67.71932 198.873432 67.344266 
C 198.873432 66.969212 198.724422 66.609469 198.459219 66.344266 
C 198.194016 66.079063 197.834273 65.930052 197.459219 65.930052 
C 197.084165 65.930052 196.724422 66.079063 196.459219 66.344266 
C 196.194016 66.609469 196.045005 66.969212 196.045005 67.344266 
C 196.045005 67.71932 196.194016 68.079063 196.459219 68.344266 
C 196.724422 68.609469 197.084165 68.758479 197.459219 68.758479 
z
" style="fill:#ff0000;stroke:#ff0000;"/>
    <path clip-path="url(#p364483d953)" d="M 187.428275 79.864943 
C 187.847598 79.864943 188.249803 79.698344 188.546309 79.401838 
C 188.842815 79.105332 189.009414 78.703127 189.009414 78.283804 
C 189.009414 77.864481 188.842815 77.462276 188.546309 77.16577 
C 188.249803 76.869264 187.847598 76.702665 187.428275 76.702665 
C 187.008952 76.702665 186.606747 76.869264 186.310241 77.16577 
C 186.013735 77.462276 185.847137 77.864481 185.847137 78.283804 
C 185.847137 78.703127 186.013735 79.105332 186.310241 79.401838 
C 186.606747 79.698344 187.008952 79.864943 187.428275 79.864943 
z
" style="fill:#ff0000;stroke:#ff0000;"/>
    <path clip-path="url(#p364483d953)" d="M 177.373428 91.207301 
C 177.892666 91.207301 178.390708 91.001006 178.757865 90.633848 
C 179.125022 90.266691 179.331318 89.76865 179.331318 89.249411 
C 179.331318 88.730173 179.125022 88.232131 178.757865 87.864974 
C 178.390708 87.497817 177.892666 87.291521 177.373428 87.291521 
C 176.854189 87.291521 176.356147 87.497817 175.98899 87.864974 
C 175.621833 88.232131 175.415538 88.730173 175.415538 89.249411 
C 175.415538 89.76865 175.621833 90.266691 175.98899 90.633848 
C 176.356147 91.001006 176.854189 91.207301 177.373428 91.207301 
z
" style="fill:#ff0000;stroke:#ff0000;"/>
    <path clip-path="url(#p364483d953)" d="M 167.29459 102.855246 
C 167.987848 102.855246 168.652805 102.579812 169.143013 102.089604 
C 169.63322 101.599397 169.908655 100.93444 169.908655 100.241182 
C 169.908655 99.547924 169.63322 98.882966 169.143013 98.392759 
C 168.652805 97.902551 167.987848 97.627117 167.29459 97.627117 
C 166.601332 97.627117 165.936375 97.902551 165.446167 98.392759 
C 164.95596 98.882966 164.680525 99.547924 164.680525 100.241182 
C 164.680525 100.93444 164.95596 101.599397 165.446167 102.089604 
C 165.936375 102.579812 166.601332 102.855246 167.29459 102.855246 
z
" style="fill:#ff0000;stroke:#ff0000;"/>
    <path clip-path="url(#p364483d953)" d="M 157.191676 113.56861 
C 157.804137 113.56861 158.391595 113.325277 158.82467 112.892202 
C 159.257744 112.459127 159.501078 111.871669 159.501078 111.259209 
C 159.501078 110.646748 159.257744 110.05929 158.82467 109.626215 
C 158.391595 109.193141 157.804137 108.949807 157.191676 108.949807 
C 156.579216 108.949807 155.991758 109.193141 155.558683 109.626215 
C 155.125608 110.05929 154.882275 110.646748 154.882275 111.259209 
C 154.882275 111.871669 155.125608 112.459127 155.558683 112.892202 
C 155.991758 113.325277 156.579216 113.56861 157.191676 113.56861 
z
" style="fill:#ff0000;stroke:#ff0000;"/>
    <path clip-path="url(#p364483d953)" d="M 147.064601 124.885575 
C 147.749352 124.885575 148.40615 124.613521 148.890343 124.129328 
C 149.374535 123.645136 149.64659 122.988338 149.64659 122.303586 
C 149.64659 121.618835 149.374535 120.962037 148.890343 120.477845 
C 148.40615 119.993652 147.749352 119.721597 147.064601 119.721597 
C 146.379849 119.721597 145.723051 119.993652 145.238859 120.477845 
C 144.754666 120.962037 144.482612 121.618835 144.482612 122.303586 
C 144.482612 122.988338 144.754666 123.645136 145.238859 124.129328 
C 145.723051 124.613521 146.379849 124.885575 147.064601 124.885575 
z
" style="fill:#ff0000;stroke:#ff0000;"/>
    <path clip-path="url(#p364483d953)" d="M 136.913276 136.289886 
C 137.686469 136.289886 138.428098 135.982693 138.974829 135.435963 
C 139.521559 134.889232 139.828752 134.147603 139.828752 133.37441 
C 139.828752 132.601216 139.521559 131.859587 138.974829 131.312857 
C 138.428098 130.766127 137.686469 130.458934 136.913276 130.458934 
C 136.140083 130.458934 135.398453 130.766127 134.851723 131.312857 
C 134.304993 131.859587 133.9978 132.601216 133.9978 133.37441 
C 133.9978 134.147603 134.304993 134.889232 134.851723 135.435963 
C 135.398453 135.982693 136.140083 136.289886 136.913276 136.289886 
z
" style="fill:#ff0000;stroke:#ff0000;"/>
    <path clip-path="url(#p364483d953)" d="M 126.737615 147.329512 
C 127.495496 147.329512 128.222438 147.028402 128.758341 146.4925 
C 129.294243 145.956597 129.595353 145.229655 129.595353 144.471774 
C 129.595353 143.713893 129.294243 142.986951 128.758341 142.451048 
C 128.222438 141.915145 127.495496 141.614036 126.737615 141.614036 
C 125.979734 141.614036 125.252792 141.915145 124.716889 142.451048 
C 124.180986 142.986951 123.879877 143.713893 123.879877 144.471774 
C 123.879877 145.229655 124.180986 145.956597 124.716889 146.4925 
C 125.252792 147.028402 125.979734 147.329512 126.737615 147.329512 
z
" style="fill:#ff0000;stroke:#ff0000;"/>
    <path clip-path="url(#p364483d953)" d="M 116.53753 158.209838 
C 117.230788 158.209838 117.895745 157.934404 118.385953 157.444197 
C 118.87616 156.953989 119.151594 156.289032 119.151594 155.595774 
C 119.151594 154.902516 118.87616 154.237558 118.385953 153.747351 
C 117.895745 153.257144 117.230788 152.981709 116.53753 152.981709 
C 115.844272 152.981709 115.179314 153.257144 114.689107 153.747351 
C 114.1989 154.237558 113.923465 154.902516 113.923465 155.595774 
C 113.923465 156.289032 114.1989 156.953989 114.689107 157.444197 
C 115.179314 157.934404 115.844272 158.209838 116.53753 158.209838 
z
" style="fill:#ff0000;stroke:#ff0000;"/>
    <path clip-path="url(#p364483d953)" d="M 106.312933 168.982574 
C 106.905945 168.982574 107.474749 168.746968 107.894072 168.327645 
C 108.313395 167.908322 108.549001 167.339518 108.549001 166.746506 
C 108.549001 166.153494 108.313395 165.58469 107.894072 165.165367 
C 107.474749 164.746044 106.905945 164.510438 106.312933 164.510438 
C 105.719921 164.510438 105.151117 164.746044 104.731794 165.165367 
C 104.312471 165.58469 104.076865 166.153494 104.076865 166.746506 
C 104.076865 167.339518 104.312471 167.908322 104.731794 168.327645 
C 105.151117 168.746968 105.719921 168.982574 106.312933 168.982574 
z
" style="fill:#ff0000;stroke:#ff0000;"/>
    <path clip-path="url(#p364483d953)" d="M 96.063736 179.838921 
C 96.571561 179.838921 97.058655 179.63716 97.417742 179.278073 
C 97.776829 178.918987 97.97859 178.431892 97.97859 177.924067 
C 97.97859 177.416242 97.776829 176.929147 97.417742 176.570061 
C 97.058655 176.210974 96.571561 176.009213 96.063736 176.009213 
C 95.55591 176.009213 95.068816 176.210974 94.709729 176.570061 
C 94.350643 176.929147 94.148882 177.416242 94.148882 177.924067 
C 94.148882 178.431892 94.350643 178.918987 94.709729 179.278073 
C 95.068816 179.63716 95.55591 179.838921 96.063736 179.838921 
z
" style="fill:#ff0000;stroke:#ff0000;"/>
    <path clip-path="url(#p364483d953)" d="M 85.789849 190.811804 
C 86.236253 190.811804 86.664433 190.634446 86.980087 190.318791 
C 87.295742 190.003137 87.4731 189.574957 87.4731 189.128553 
C 87.4731 188.68215 87.295742 188.25397 86.980087 187.938315 
C 86.664433 187.622661 86.236253 187.445303 85.789849 187.445303 
C 85.343446 187.445303 84.915266 187.622661 84.599611 187.938315 
C 84.283956 188.25397 84.106598 188.68215 84.106598 189.128553 
C 84.106598 189.574957 84.283956 190.003137 84.599611 190.318791 
C 84.915266 190.634446 85.343446 190.811804 85.789849 190.811804 
z
" style="fill:#ff0000;stroke:#ff0000;"/>
    <path clip-path="url(#p364483d953)" d="M 75.491184 201.514763 
C 75.797414 201.514763 76.091143 201.393097 76.307681 201.176559 
C 76.524218 200.960022 76.645885 200.666293 76.645885 200.360063 
C 76.645885 200.053833 76.524218 199.760104 76.307681 199.543566 
C 76.091143 199.327029 75.797414 199.205362 75.491184 199.205362 
C 75.184954 199.205362 74.891225 199.327029 74.674688 199.543566 
C 74.45815 199.760104 74.336484 200.053833 74.336484 200.360063 
C 74.336484 200.666293 74.45815 200.960022 74.674688 201.176559 
C 74.891225 201.393097 75.184954 201.514763 75.491184 201.514763 
z
" style="fill:#ff0000;stroke:#ff0000;"/>
    <path clip-path="url(#p364483d953)" d="M 308.024995 227.53853 
C 308.587575 227.53853 309.12719 227.315014 309.524995 226.917209 
C 309.922799 226.519405 310.146315 225.97979 310.146315 225.417209 
C 310.146315 224.854628 309.922799 224.315014 309.524995 223.917209 
C 309.12719 223.519405 308.587575 223.295889 308.024995 223.295889 
C 307.462414 223.295889 306.922799 223.519405 306.524995 223.917209 
C 306.12719 224.315014 305.903674 224.854628 305.903674 225.417209 
C 305.903674 225.97979 306.12719 226.519405 306.524995 226.917209 
C 306.922799 227.315014 307.462414 227.53853 308.024995 227.53853 
z
" style="fill:#ff0000;stroke:#ff0000;"/>
    <path clip-path="url(#p364483d953)" d="M 290.324347 227.993869 
C 291.274401 227.993869 292.185671 227.616409 292.857461 226.944619 
C 293.529251 226.272829 293.906711 225.361559 293.906711 224.411505 
C 293.906711 223.461451 293.529251 222.550181 292.857461 221.878391 
C 292.185671 221.206601 291.274401 220.829141 290.324347 220.829141 
C 289.374293 220.829141 288.463023 221.206601 287.791233 221.878391 
C 287.119443 222.550181 286.741983 223.461451 286.741983 224.411505 
C 286.741983 225.361559 287.119443 226.272829 287.791233 226.944619 
C 288.463023 227.616409 289.374293 227.993869 290.324347 227.993869 
z
" style="fill:#ff0000;stroke:#ff0000;"/>
    <path clip-path="url(#p364483d953)" d="M 272.679137 227.786926 
C 273.840189 227.786926 274.953844 227.325635 275.774833 226.504646 
C 276.595821 225.683658 277.057112 224.570003 277.057112 223.40895 
C 277.057112 222.247898 276.595821 221.134243 275.774833 220.313255 
C 274.953844 219.492266 273.840189 219.030975 272.679137 219.030975 
C 271.518084 219.030975 270.404429 219.492266 269.583441 220.313255 
C 268.762452 221.134243 268.301161 222.247898 268.301161 223.40895 
C 268.301161 224.570003 268.762452 225.683658 269.583441 226.504646 
C 270.404429 227.325635 271.518084 227.786926 272.679137 227.786926 
z
" style="fill:#ff0000;stroke:#ff0000;"/>
    <path clip-path="url(#p364483d953)" d="M 255.089103 228.168582 
C 256.616421 228.168582 258.08139 227.561772 259.161367 226.481795 
C 260.241344 225.401818 260.848154 223.936849 260.848154 222.409531 
C 260.848154 220.882213 260.241344 219.417244 259.161367 218.337267 
C 258.08139 217.25729 256.616421 216.65048 255.089103 216.65048 
C 253.561785 216.65048 252.096816 217.25729 251.016839 218.337267 
C 249.936862 219.417244 249.330052 220.882213 249.330052 222.409531 
C 249.330052 223.936849 249.936862 225.401818 251.016839 226.481795 
C 252.096816 227.561772 253.561785 228.168582 255.089103 228.168582 
z
" style="fill:#ff0000;stroke:#ff0000;"/>
    <path clip-path="url(#p364483d953)" d="M 237.553988 228.377426 
C 239.400914 228.377426 241.172443 227.643635 242.478417 226.337661 
C 243.784391 225.031687 244.518182 223.260158 244.518182 221.413232 
C 244.518182 219.566306 243.784391 217.794777 242.478417 216.488803 
C 241.172443 215.182829 239.400914 214.449038 237.553988 214.449038 
C 235.707062 214.449038 233.935533 215.182829 232.629559 216.488803 
C 231.323585 217.794777 230.589794 219.566306 230.589794 221.413232 
C 230.589794 223.260158 231.323585 225.031687 232.629559 226.337661 
C 233.935533 227.643635 235.707062 228.377426 237.553988 228.377426 
z
" style="fill:#ff0000;stroke:#ff0000;"/>
    <path clip-path="url(#p364483d953)" d="M 220.073535 227.892209 
C 222.055178 227.892209 223.955925 227.104894 225.357158 225.703661 
C 226.758391 224.302428 227.545706 222.401681 227.545706 220.420038 
C 227.545706 218.438396 226.758391 216.537649 225.357158 215.136416 
C 223.955925 213.735183 222.055178 212.947868 220.073535 212.947868 
C 218.091892 212.947868 216.191146 213.735183 214.789913 215.136416 
C 213.38868 216.537649 212.601365 218.438396 212.601365 220.420038 
C 212.601365 222.401681 213.38868 224.302428 214.789913 225.703661 
C 216.191146 227.104894 218.091892 227.892209 220.073535 227.892209 
z
" style="fill:#ff0000;stroke:#ff0000;"/>
    <path clip-path="url(#p364483d953)" d="M 202.647489 226.025389 
C 204.396623 226.025389 206.074353 225.330451 207.311178 224.093626 
C 208.548003 222.856801 209.242942 221.179071 209.242942 219.429936 
C 209.242942 217.680802 208.548003 216.003072 207.311178 214.766247 
C 206.074353 213.529422 204.396623 212.834483 202.647489 212.834483 
C 200.898354 212.834483 199.220624 213.529422 197.983799 214.766247 
C 196.746974 216.003072 196.052036 217.680802 196.052036 219.429936 
C 196.052036 221.179071 196.746974 222.856801 197.983799 224.093626 
C 199.220624 225.330451 200.898354 226.025389 202.647489 226.025389 
z
" style="fill:#ff0000;stroke:#ff0000;"/>
    <path clip-path="url(#p364483d953)" d="M 185.275595 224.172949 
C 186.795219 224.172949 188.252808 223.569196 189.327344 222.49466 
C 190.40188 221.420123 191.005633 219.962535 191.005633 218.442911 
C 191.005633 216.923287 190.40188 215.465699 189.327344 214.391162 
C 188.252808 213.316626 186.795219 212.712873 185.275595 212.712873 
C 183.755972 212.712873 182.298383 213.316626 181.223847 214.391162 
C 180.149311 215.465699 179.545558 216.923287 179.545558 218.442911 
C 179.545558 219.962535 180.149311 221.420123 181.223847 222.49466 
C 182.298383 223.569196 183.755972 224.172949 185.275595 224.172949 
z
" style="fill:#ff0000;stroke:#ff0000;"/>
    <path clip-path="url(#p364483d953)" d="M 167.957603 221.949679 
C 169.148559 221.949679 170.290897 221.476508 171.13303 220.634375 
C 171.975162 219.792242 172.448334 218.649904 172.448334 217.458948 
C 172.448334 216.267992 171.975162 215.125655 171.13303 214.283522 
C 170.290897 213.441389 169.148559 212.968217 167.957603 212.968217 
C 166.766647 212.968217 165.62431 213.441389 164.782177 214.283522 
C 163.940044 215.125655 163.466872 216.267992 163.466872 217.458948 
C 163.466872 218.649904 163.940044 219.792242 164.782177 220.634375 
C 165.62431 221.476508 166.766647 221.949679 167.957603 221.949679 
z
" style="fill:#ff0000;stroke:#ff0000;"/>
    <path clip-path="url(#p364483d953)" d="M 150.693261 220.351017 
C 151.720388 220.351017 152.705585 219.942935 153.431874 219.216646 
C 154.158163 218.490358 154.566245 217.505161 154.566245 216.478034 
C 154.566245 215.450906 154.158163 214.465709 153.431874 213.739421 
C 152.705585 213.013132 151.720388 212.60505 150.693261 212.60505 
C 149.666134 212.60505 148.680937 213.013132 147.954648 213.739421 
C 147.22836 214.465709 146.820278 215.450906 146.820278 216.478034 
C 146.820278 217.505161 147.22836 218.490358 147.954648 219.216646 
C 148.680937 219.942935 149.666134 220.351017 150.693261 220.351017 
z
" style="fill:#ff0000;stroke:#ff0000;"/>
    <path clip-path="url(#p364483d953)" d="M 133.482321 218.238766 
C 134.20861 218.238766 134.905249 217.950209 135.418813 217.436645 
C 135.932376 216.923081 136.220934 216.226442 136.220934 215.500153 
C 136.220934 214.773865 135.932376 214.077225 135.418813 213.563662 
C 134.905249 213.050098 134.20861 212.76154 133.482321 212.76154 
C 132.756032 212.76154 132.059393 213.050098 131.545829 213.563662 
C 131.032266 214.077225 130.743708 214.773865 130.743708 215.500153 
C 130.743708 216.226442 131.032266 216.923081 131.545829 217.436645 
C 132.059393 217.950209 132.756032 218.238766 133.482321 218.238766 
z
" style="fill:#ff0000;stroke:#ff0000;"/>
    <path clip-path="url(#p364483d953)" d="M 116.324535 216.68554 
C 116.897439 216.68554 117.446956 216.457923 117.85206 216.052818 
C 118.257165 215.647714 118.484782 215.098197 118.484782 214.525293 
C 118.484782 213.952389 118.257165 213.402872 117.85206 212.997768 
C 117.446956 212.592663 116.897439 212.365046 116.324535 212.365046 
C 115.751631 212.365046 115.202114 212.592663 114.79701 212.997768 
C 114.391905 213.402872 114.164288 213.952389 114.164288 214.525293 
C 114.164288 215.098197 114.391905 215.647714 114.79701 216.052818 
C 115.202114 216.457923 115.751631 216.68554 116.324535 216.68554 
z
" style="fill:#ff0000;stroke:#ff0000;"/>
    <path clip-path="url(#p364483d953)" d="M 99.219657 215.28549 
C 99.679002 215.28549 100.119596 215.10299 100.444402 214.778184 
C 100.769208 214.453377 100.951708 214.012784 100.951708 213.553439 
C 100.951708 213.094093 100.769208 212.6535 100.444402 212.328694 
C 100.119596 212.003888 99.679002 211.821388 99.219657 211.821388 
C 98.760312 211.821388 98.319718 212.003888 97.994912 212.328694 
C 97.670106 212.6535 97.487606 213.094093 97.487606 213.553439 
C 97.487606 214.012784 97.670106 214.453377 97.994912 214.778184 
C 98.319718 215.10299 98.760312 215.28549 99.219657 215.28549 
z
" style="fill:#ff0000;stroke:#ff0000;"/>
    <path clip-path="url(#p364483d953)" d="M 82.167443 213.497448 
C 82.40954 213.497448 82.641753 213.401262 82.812941 213.230074 
C 82.984129 213.058886 83.080314 212.826673 83.080314 212.584577 
C 83.080314 212.342481 82.984129 212.110267 82.812941 211.93908 
C 82.641753 211.767892 82.40954 211.671706 82.167443 211.671706 
C 81.925347 211.671706 81.693134 211.767892 81.521946 211.93908 
C 81.350758 212.110267 81.254573 212.342481 81.254573 212.584577 
C 81.254573 212.826673 81.350758 213.058886 81.521946 213.230074 
C 81.693134 213.401262 81.925347 213.497448 82.167443 213.497448 
z
" style="fill:#ff0000;stroke:#ff0000;"/>
   </g>
   <g id="legend_1">
    <g id="patch_6">
     <path d="M 21.2 291.2 
L 294.2 291.2 
Q 297.2 291.2 297.2 288.2 
L 297.2 249.95 
Q 297.2 246.95 294.2 246.95 
L 21.2 246.95 
Q 18.2 246.95 18.2 249.95 
L 18.2 288.2 
Q 18.2 291.2 21.2 291.2 
z
" style="fill:#ffffff;opacity:0.8;stroke:#cccccc;stroke-linejoin:miter;"/>
    </g>
    <g id="Path3DCollection_3">
     <defs>
      <path d="M 0 5.299371 
C 1.40541 5.299371 2.753447 4.740996 3.747221 3.747221 
C 4.740996 2.753447 5.299371 1.40541 5.299371 0 
C 5.299371 -1.40541 4.740996 -2.753447 3.747221 -3.747221 
C 2.753447 -4.740996 1.40541 -5.299371 0 -5.299371 
C -1.40541 -5.299371 -2.753447 -4.740996 -3.747221 -3.747221 
C -4.740996 -2.753447 -5.299371 -1.40541 -5.299371 0 
C -5.299371 1.40541 -4.740996 2.753447 -3.747221 3.747221 
C -2.753447 4.740996 -1.40541 5.299371 0 5.299371 
z
" id="m198f5059e1" style="stroke:#ff0000;"/>
     </defs>
     <g>
      <use style="fill:#ff0000;stroke:#ff0000;" x="39.2" xlink:href="#m198f5059e1" y="259.5125"/>
     </g>
    </g>
    <g id="text_28">
     <!-- probability of absorbing state -->
     <defs>
      <path d="M 44.140625 23.828125 
Q 44.140625 12.5 38.671875 6.640625 
Q 33.203125 0.78125 25.390625 0.78125 
Q 21.09375 0.78125 17.96875 2.53125 
Q 14.84375 4.296875 12.5 7.8125 
L 12.5 -12.5 
L 4.6875 -12.5 
L 4.6875 45.703125 
L 12.5 45.703125 
L 12.5 39.84375 
Q 14.84375 43.359375 17.96875 44.921875 
Q 21.09375 46.484375 25.390625 46.484375 
Q 33.203125 46.484375 38.671875 40.8125 
Q 44.140625 35.15625 44.140625 23.828125 
z
M 35.546875 23.828125 
Q 35.546875 31.25 32.609375 35.34375 
Q 29.6875 39.453125 23.828125 39.453125 
Q 19.140625 39.453125 15.8125 35.34375 
Q 12.5 31.25 12.5 23.828125 
Q 12.5 16.40625 15.8125 12.109375 
Q 19.140625 7.8125 23.828125 7.8125 
Q 29.6875 7.8125 32.609375 12.109375 
Q 35.546875 16.40625 35.546875 23.828125 
z
" id="SimHei-70"/>
      <path d="M 39.0625 37.890625 
Q 31.640625 39.0625 26.5625 35.734375 
Q 21.484375 32.421875 17.96875 24.21875 
L 17.96875 1.953125 
L 10.15625 1.953125 
L 10.15625 45.703125 
L 17.96875 45.703125 
L 17.96875 34.375 
Q 21.484375 40.625 26.75 43.546875 
Q 32.03125 46.484375 39.0625 46.484375 
z
" id="SimHei-72"/>
      <path d="M 44.140625 23.828125 
Q 44.140625 12.5 38.671875 6.828125 
Q 33.203125 1.171875 25.390625 1.171875 
Q 21.09375 1.171875 17.96875 2.734375 
Q 14.84375 4.296875 12.5 7.8125 
L 12.5 1.953125 
L 4.6875 1.953125 
L 4.6875 68.75 
L 12.5 68.75 
L 12.5 39.84375 
Q 14.84375 43.359375 17.96875 45.109375 
Q 21.09375 46.875 25.390625 46.875 
Q 33.203125 46.875 38.671875 41.015625 
Q 44.140625 35.15625 44.140625 23.828125 
z
M 35.546875 23.828125 
Q 35.546875 31.25 32.609375 35.546875 
Q 29.6875 39.84375 23.828125 39.84375 
Q 19.140625 39.84375 15.8125 35.546875 
Q 12.5 31.25 12.5 23.828125 
Q 12.5 16.40625 15.8125 12.296875 
Q 19.140625 8.203125 23.828125 8.203125 
Q 29.6875 8.203125 32.609375 12.296875 
Q 35.546875 16.40625 35.546875 23.828125 
z
" id="SimHei-62"/>
      <path d="M 44.921875 1.953125 
L 35.546875 1.953125 
Q 34.765625 2.734375 34.375 4.09375 
Q 33.984375 5.46875 33.984375 7.421875 
Q 31.25 4.296875 27.34375 2.734375 
Q 23.4375 1.171875 19.140625 1.171875 
Q 12.890625 1.171875 8.59375 4.296875 
Q 4.296875 7.421875 4.296875 13.28125 
Q 4.296875 19.140625 8.203125 22.65625 
Q 12.109375 26.171875 20.3125 27.34375 
Q 25.78125 28.125 29.875 29.296875 
Q 33.984375 30.46875 33.984375 32.421875 
Q 33.984375 34.765625 32.21875 37.109375 
Q 30.46875 39.453125 24.609375 39.453125 
Q 19.921875 39.453125 17.765625 37.6875 
Q 15.625 35.9375 14.84375 32.8125 
L 6.25 32.8125 
Q 7.03125 39.0625 11.90625 42.765625 
Q 16.796875 46.484375 24.609375 46.484375 
Q 33.203125 46.484375 37.5 42.578125 
Q 41.796875 38.671875 41.796875 31.640625 
L 41.796875 10.15625 
Q 41.796875 7.8125 42.578125 5.859375 
Q 43.359375 3.90625 44.921875 1.953125 
z
M 33.984375 16.40625 
L 33.984375 24.21875 
Q 31.640625 23.4375 29.484375 22.84375 
Q 27.34375 22.265625 22.265625 21.484375 
Q 16.40625 20.703125 14.640625 18.75 
Q 12.890625 16.796875 12.890625 14.0625 
Q 12.890625 11.71875 14.640625 9.953125 
Q 16.40625 8.203125 19.921875 8.203125 
Q 23.4375 8.203125 27.53125 10.15625 
Q 31.640625 12.109375 33.984375 16.40625 
z
" id="SimHei-61"/>
      <path d="M 28.515625 1.953125 
L 20.703125 1.953125 
L 20.703125 68.75 
L 28.515625 68.75 
z
" id="SimHei-6c"/>
      <path d="M 42.96875 3.125 
Q 41.015625 2.34375 38.46875 1.75 
Q 35.9375 1.171875 31.640625 1.171875 
Q 24.609375 1.171875 20.3125 5.078125 
Q 16.015625 8.984375 16.015625 16.015625 
L 16.015625 39.453125 
L 2.734375 39.453125 
L 2.734375 45.703125 
L 16.015625 45.703125 
L 16.015625 60.9375 
L 23.828125 60.9375 
L 23.828125 45.703125 
L 39.84375 45.703125 
L 39.84375 39.453125 
L 23.828125 39.453125 
L 23.828125 15.625 
Q 23.828125 12.5 25.390625 10.34375 
Q 26.953125 8.203125 31.25 8.203125 
Q 35.546875 8.203125 38.28125 8.984375 
Q 41.015625 9.765625 42.96875 10.9375 
z
" id="SimHei-74"/>
      <path d="M 45.3125 45.703125 
L 27.34375 -1.5625 
Q 25.78125 -7.03125 22.65625 -9.765625 
Q 19.53125 -12.5 14.84375 -12.5 
Q 12.890625 -12.5 11.125 -12.296875 
Q 9.375 -12.109375 7.8125 -11.328125 
L 7.8125 -3.515625 
Q 9.375 -4.296875 10.9375 -4.6875 
Q 12.5 -5.078125 13.671875 -5.078125 
Q 16.796875 -5.078125 17.96875 -4.09375 
Q 19.140625 -3.125 20.3125 0.390625 
L 3.125 45.703125 
L 11.71875 45.703125 
L 24.21875 11.328125 
L 24.609375 11.328125 
L 36.71875 45.703125 
z
" id="SimHei-79"/>
      <path d="M 46.484375 39.0625 
Q 43.75 39.84375 41.203125 40.03125 
Q 38.671875 40.234375 35.9375 39.453125 
Q 37.109375 38.28125 37.890625 36.515625 
Q 38.671875 34.765625 38.671875 31.25 
Q 38.671875 24.609375 34.171875 20.3125 
Q 29.6875 16.015625 23.046875 16.015625 
Q 21.484375 16.015625 18.9375 16.59375 
Q 16.40625 17.1875 14.84375 17.96875 
Q 13.671875 17.1875 13.28125 16.40625 
Q 12.890625 15.625 12.890625 14.453125 
Q 12.890625 12.5 15.625 11.515625 
Q 18.359375 10.546875 25.390625 10.546875 
Q 36.71875 10.546875 40.8125 7.421875 
Q 44.921875 4.296875 44.921875 -0.390625 
Q 44.921875 -6.640625 38.859375 -9.5625 
Q 32.8125 -12.5 24.609375 -12.5 
Q 14.0625 -12.5 8.984375 -9.765625 
Q 3.90625 -7.03125 3.90625 -2.34375 
Q 3.90625 0 5.859375 2.34375 
Q 7.8125 4.6875 10.9375 6.25 
Q 8.59375 7.421875 7.21875 9.171875 
Q 5.859375 10.9375 5.859375 13.671875 
Q 5.859375 16.015625 7.609375 17.765625 
Q 9.375 19.53125 11.71875 20.703125 
Q 9.765625 22.65625 8.59375 25.390625 
Q 7.421875 28.125 7.421875 31.25 
Q 7.421875 37.890625 11.90625 42.1875 
Q 16.40625 46.484375 23.046875 46.484375 
Q 26.5625 46.484375 29.09375 45.5 
Q 31.640625 44.53125 33.59375 42.578125 
Q 36.71875 44.921875 39.84375 45.890625 
Q 42.96875 46.875 46.484375 46.484375 
z
M 30.859375 31.25 
Q 30.859375 35.15625 28.90625 37.5 
Q 26.953125 39.84375 23.046875 39.84375 
Q 19.140625 39.84375 17.1875 37.5 
Q 15.234375 35.15625 15.234375 31.25 
Q 15.234375 27.34375 17.1875 25 
Q 19.140625 22.65625 23.046875 22.65625 
Q 26.953125 22.65625 28.90625 25 
Q 30.859375 27.34375 30.859375 31.25 
z
M 37.5 -1.171875 
Q 37.5 0.390625 35.734375 1.953125 
Q 33.984375 3.515625 26.953125 3.515625 
Q 25.390625 3.515625 22.65625 3.703125 
Q 19.921875 3.90625 16.40625 4.296875 
Q 13.28125 3.125 12.109375 1.5625 
Q 10.9375 0 10.9375 -1.5625 
Q 10.9375 -3.90625 14.0625 -5.46875 
Q 17.1875 -7.03125 25 -7.03125 
Q 31.640625 -7.03125 34.5625 -5.265625 
Q 37.5 -3.515625 37.5 -1.171875 
z
" id="SimHei-67"/>
      <path d="M 44.53125 16.796875 
Q 43.75 9.765625 38.28125 5.46875 
Q 32.8125 1.171875 25.390625 1.171875 
Q 16.015625 1.171875 9.953125 7.21875 
Q 3.90625 13.28125 3.90625 23.828125 
Q 3.90625 34.375 9.953125 40.421875 
Q 16.015625 46.484375 25.390625 46.484375 
Q 33.59375 46.484375 38.859375 41.203125 
Q 44.140625 35.9375 44.140625 23.828125 
L 12.5 23.828125 
Q 12.5 15.234375 16.203125 11.71875 
Q 19.921875 8.203125 25.390625 8.203125 
Q 29.6875 8.203125 32.421875 10.34375 
Q 35.15625 12.5 35.9375 16.796875 
z
M 35.15625 30.078125 
Q 34.375 35.546875 31.640625 37.6875 
Q 28.90625 39.84375 24.609375 39.84375 
Q 20.703125 39.84375 17.578125 37.6875 
Q 14.453125 35.546875 12.890625 30.078125 
z
" id="SimHei-65"/>
     </defs>
     <g transform="translate(66.2 263.45)scale(0.15 -0.15)">
      <use xlink:href="#SimHei-70"/>
      <use x="50" xlink:href="#SimHei-72"/>
      <use x="100" xlink:href="#SimHei-6f"/>
      <use x="150" xlink:href="#SimHei-62"/>
      <use x="200" xlink:href="#SimHei-61"/>
      <use x="250" xlink:href="#SimHei-62"/>
      <use x="300" xlink:href="#SimHei-69"/>
      <use x="350" xlink:href="#SimHei-6c"/>
      <use x="400" xlink:href="#SimHei-69"/>
      <use x="450" xlink:href="#SimHei-74"/>
      <use x="500" xlink:href="#SimHei-79"/>
      <use x="550" xlink:href="#SimHei-20"/>
      <use x="600" xlink:href="#SimHei-6f"/>
      <use x="650" xlink:href="#SimHei-66"/>
      <use x="700" xlink:href="#SimHei-20"/>
      <use x="750" xlink:href="#SimHei-61"/>
      <use x="800" xlink:href="#SimHei-62"/>
      <use x="850" xlink:href="#SimHei-73"/>
      <use x="900" xlink:href="#SimHei-6f"/>
      <use x="950" xlink:href="#SimHei-72"/>
      <use x="1000" xlink:href="#SimHei-62"/>
      <use x="1050" xlink:href="#SimHei-69"/>
      <use x="1100" xlink:href="#SimHei-6e"/>
      <use x="1150" xlink:href="#SimHei-67"/>
      <use x="1200" xlink:href="#SimHei-20"/>
      <use x="1250" xlink:href="#SimHei-73"/>
      <use x="1300" xlink:href="#SimHei-74"/>
      <use x="1350" xlink:href="#SimHei-61"/>
      <use x="1400" xlink:href="#SimHei-74"/>
      <use x="1450" xlink:href="#SimHei-65"/>
     </g>
    </g>
    <g id="Path3DCollection_4">
     <g>
      <use style="fill:#008000;stroke:#008000;" x="39.2" xlink:href="#m5f3f9210a8" y="279.3875"/>
     </g>
    </g>
    <g id="text_29">
     <!-- start state -->
     <g transform="translate(66.2 283.325)scale(0.15 -0.15)">
      <use xlink:href="#SimHei-73"/>
      <use x="50" xlink:href="#SimHei-74"/>
      <use x="100" xlink:href="#SimHei-61"/>
      <use x="150" xlink:href="#SimHei-72"/>
      <use x="200" xlink:href="#SimHei-74"/>
      <use x="250" xlink:href="#SimHei-20"/>
      <use x="300" xlink:href="#SimHei-73"/>
      <use x="350" xlink:href="#SimHei-74"/>
      <use x="400" xlink:href="#SimHei-61"/>
      <use x="450" xlink:href="#SimHei-74"/>
      <use x="500" xlink:href="#SimHei-65"/>
     </g>
    </g>
   </g>
  </g>
 </g>
 <defs>
  <clipPath id="p364483d953">
   <rect height="288" width="360" x="10.7" y="10.7"/>
  </clipPath>
 </defs>
</svg>
