<?xml version="1.0" encoding="utf-8" standalone="no"?>
<!DOCTYPE svg PUBLIC "-//W3C//DTD SVG 1.1//EN"
  "http://www.w3.org/Graphics/SVG/1.1/DTD/svg11.dtd">
<!-- Created with matplotlib (http://matplotlib.org/) -->
<svg height="309.4pt" version="1.1" viewBox="0 0 381.4 309.4" width="381.4pt" xmlns="http://www.w3.org/2000/svg" xmlns:xlink="http://www.w3.org/1999/xlink">
 <defs>
  <style type="text/css">
*{stroke-linecap:butt;stroke-linejoin:round;}
  </style>
 </defs>
 <g id="figure_1">
  <g id="patch_1">
   <path d="M 0 309.4 
L 381.4 309.4 
L 381.4 0 
L 0 0 
z
" style="fill:none;"/>
  </g>
  <g id="patch_2">
   <path d="M 10.7 298.7 
L 370.7 298.7 
L 370.7 10.7 
L 10.7 10.7 
z
" style="fill:#ffffff;"/>
  </g>
  <g id="pane3d_1">
   <g id="patch_3">
    <path d="M 219.619567 185.462306 
L 335.768129 233.715199 
L 340.919918 79.597002 
L 220.435568 41.545085 
" style="fill:#f2f2f2;opacity:0.5;stroke:#f2f2f2;stroke-linejoin:miter;"/>
   </g>
  </g>
  <g id="pane3d_2">
   <g id="patch_4">
    <path d="M 219.619567 185.462306 
L 58.794045 217.8137 
L 53.895826 67.034254 
L 220.435568 41.545085 
" style="fill:#e6e6e6;opacity:0.5;stroke:#e6e6e6;stroke-linejoin:miter;"/>
   </g>
  </g>
  <g id="pane3d_3">
   <g id="patch_5">
    <path d="M 219.619567 185.462306 
L 58.794045 217.8137 
L 168.062833 271.631196 
L 335.768129 233.715199 
" style="fill:#ececec;opacity:0.5;stroke:#ececec;stroke-linejoin:miter;"/>
   </g>
  </g>
  <g id="axis3d_1">
   <g id="line2d_1">
    <path d="M 335.768129 233.715199 
L 168.062833 271.631196 
" style="fill:none;stroke:#000000;stroke-linecap:square;stroke-width:0.8;"/>
   </g>
   <g id="text_1">
    <!-- coins of 大熊 -->
    <defs>
     <path d="M 44.53125 19.53125 
Q 44.53125 11.328125 38.859375 6.25 
Q 33.203125 1.171875 24.609375 1.171875 
Q 16.015625 1.171875 9.765625 7.21875 
Q 3.515625 13.28125 3.515625 23.828125 
Q 3.515625 34.375 9.765625 40.421875 
Q 16.015625 46.484375 24.609375 46.484375 
Q 33.203125 46.484375 38.28125 41.984375 
Q 43.359375 37.5 43.359375 31.25 
L 34.765625 31.25 
Q 34.375 35.9375 31.4375 37.6875 
Q 28.515625 39.453125 24.609375 39.453125 
Q 19.921875 39.453125 16.015625 35.734375 
Q 12.109375 32.03125 12.109375 23.828125 
Q 12.109375 15.625 16.015625 11.90625 
Q 19.921875 8.203125 24.609375 8.203125 
Q 29.6875 8.203125 32.8125 10.9375 
Q 35.9375 13.671875 35.9375 19.53125 
z
" id="SimHei-63"/>
     <path d="M 45.703125 23.828125 
Q 45.703125 13.671875 39.453125 7.421875 
Q 33.203125 1.171875 24.609375 1.171875 
Q 16.015625 1.171875 9.765625 7.421875 
Q 3.515625 13.671875 3.515625 23.828125 
Q 3.515625 33.984375 9.765625 40.234375 
Q 16.015625 46.484375 24.609375 46.484375 
Q 33.203125 46.484375 39.453125 40.234375 
Q 45.703125 33.984375 45.703125 23.828125 
z
M 37.109375 23.828125 
Q 37.109375 31.640625 33.203125 35.546875 
Q 29.296875 39.453125 24.609375 39.453125 
Q 19.921875 39.453125 16.015625 35.546875 
Q 12.109375 31.640625 12.109375 23.828125 
Q 12.109375 16.015625 16.015625 12.109375 
Q 19.921875 8.203125 24.609375 8.203125 
Q 29.296875 8.203125 33.203125 12.109375 
Q 37.109375 16.015625 37.109375 23.828125 
z
" id="SimHei-6f"/>
     <path d="M 28.125 58.203125 
L 20.3125 58.203125 
L 20.3125 68.359375 
L 28.125 68.359375 
z
M 28.125 1.953125 
L 20.3125 1.953125 
L 20.3125 45.703125 
L 28.125 45.703125 
z
" id="SimHei-69"/>
     <path d="M 43.75 1.953125 
L 35.9375 1.953125 
L 35.9375 30.078125 
Q 35.9375 34.765625 33.59375 37.5 
Q 31.25 40.234375 27.34375 40.234375 
Q 22.265625 40.234375 17.765625 34.953125 
Q 13.28125 29.6875 13.28125 21.875 
L 13.28125 1.953125 
L 5.46875 1.953125 
L 5.46875 45.703125 
L 13.28125 45.703125 
L 13.28125 37.5 
Q 16.40625 41.796875 20.109375 44.140625 
Q 23.828125 46.484375 29.6875 46.484375 
Q 36.71875 46.484375 40.234375 42.578125 
Q 43.75 38.671875 43.75 32.8125 
z
" id="SimHei-6e"/>
     <path d="M 42.96875 14.0625 
Q 42.96875 7.8125 38.078125 4.484375 
Q 33.203125 1.171875 25.78125 1.171875 
Q 16.40625 1.171875 11.328125 4.875 
Q 6.25 8.59375 6.25 15.625 
L 14.0625 15.625 
Q 14.0625 10.9375 17.375 9.375 
Q 20.703125 7.8125 25.390625 7.8125 
Q 30.078125 7.8125 32.421875 9.5625 
Q 34.765625 11.328125 34.765625 14.0625 
Q 34.765625 16.015625 32.8125 17.96875 
Q 30.859375 19.921875 23.046875 21.09375 
Q 14.0625 22.265625 10.734375 25.578125 
Q 7.421875 28.90625 7.421875 34.375 
Q 7.421875 39.0625 11.90625 42.765625 
Q 16.40625 46.484375 25 46.484375 
Q 32.8125 46.484375 37.296875 42.96875 
Q 41.796875 39.453125 41.796875 33.59375 
L 33.984375 33.59375 
Q 33.984375 37.109375 31.4375 38.46875 
Q 28.90625 39.84375 25 39.84375 
Q 19.921875 39.84375 17.765625 38.078125 
Q 15.625 36.328125 15.625 33.984375 
Q 15.625 31.25 17.578125 29.6875 
Q 19.53125 28.125 25.78125 27.34375 
Q 35.9375 25.78125 39.453125 22.453125 
Q 42.96875 19.140625 42.96875 14.0625 
z
" id="SimHei-73"/>
     <path id="SimHei-20"/>
     <path d="M 44.53125 59.765625 
Q 42.578125 60.9375 39.84375 61.71875 
Q 37.109375 62.5 32.8125 62.5 
Q 28.515625 62.5 26.953125 60.34375 
Q 25.390625 58.203125 25.390625 55.078125 
L 25.390625 45.703125 
L 41.40625 45.703125 
L 41.40625 39.453125 
L 25.390625 39.453125 
L 25.390625 1.953125 
L 17.578125 1.953125 
L 17.578125 39.453125 
L 4.296875 39.453125 
L 4.296875 45.703125 
L 17.578125 45.703125 
L 17.578125 54.6875 
Q 17.578125 61.71875 21.875 65.625 
Q 26.171875 69.53125 33.203125 69.53125 
Q 37.5 69.53125 40.03125 68.9375 
Q 42.578125 68.359375 44.53125 67.578125 
z
" id="SimHei-66"/>
     <path d="M 45.3125 53.125 
Q 45.703125 66.796875 45.5 71.484375 
Q 45.3125 76.171875 44.921875 80.46875 
Q 49.609375 79.6875 55.46875 79.296875 
Q 54.296875 75.390625 53.703125 67.96875 
Q 53.125 60.546875 53.125 53.125 
L 73.046875 53.125 
Q 83.59375 53.125 92.578125 53.90625 
L 92.578125 45.3125 
Q 84.765625 45.703125 76.5625 45.703125 
L 53.515625 45.703125 
Q 55.078125 39.0625 58.984375 32.21875 
Q 62.890625 25.390625 66.984375 20.109375 
Q 71.09375 14.84375 78.3125 8.984375 
Q 85.546875 3.125 94.140625 -0.78125 
Q 91.015625 -3.125 87.890625 -8.59375 
Q 80.859375 -4.6875 74.015625 1.171875 
Q 67.1875 7.03125 60.34375 16.59375 
Q 53.515625 26.171875 50 34.375 
Q 46.875 25.78125 43.359375 20.109375 
Q 39.84375 14.453125 35.734375 9.765625 
Q 31.640625 5.078125 25.1875 0.390625 
Q 18.75 -4.296875 10.546875 -8.984375 
Q 7.421875 -4.296875 3.515625 -0.78125 
Q 11.71875 1.953125 19.71875 7.03125 
Q 27.734375 12.109375 32.8125 18.546875 
Q 37.890625 25 41.015625 32.03125 
Q 44.140625 39.0625 44.921875 45.703125 
L 23.4375 45.703125 
Q 14.0625 45.703125 8.59375 45.3125 
L 8.59375 53.90625 
Q 14.0625 53.515625 23.4375 53.125 
z
" id="SimHei-5927"/>
     <path d="M 49.609375 52.34375 
Q 49.21875 46.484375 49.21875 40.625 
L 49.21875 19.53125 
Q 49.21875 15.234375 46.484375 13.859375 
Q 43.75 12.5 34.765625 11.328125 
Q 33.59375 14.84375 31.640625 18.359375 
Q 38.671875 18.75 40.421875 18.9375 
Q 42.1875 19.140625 41.796875 23.4375 
L 18.359375 23.4375 
L 18.359375 12.5 
L 10.15625 12.5 
Q 10.546875 25 10.546875 33.59375 
Q 10.546875 42.1875 10.15625 52.34375 
L 49.609375 52.34375 
z
M 65.625 45.3125 
Q 65.234375 41.015625 65.234375 34.375 
Q 81.640625 38.671875 88.28125 43.359375 
Q 90.234375 39.453125 93.359375 36.71875 
Q 85.9375 34.765625 65.625 28.125 
L 65.625 23.046875 
Q 65.625 19.53125 70.703125 19.53125 
L 80.46875 19.53125 
Q 83.59375 19.53125 85.15625 20.890625 
Q 86.71875 22.265625 88.28125 28.125 
Q 92.1875 26.171875 96.875 25.390625 
Q 93.359375 17.1875 91.40625 15.234375 
Q 89.453125 13.28125 83.984375 13.28125 
L 65.234375 13.28125 
Q 57.03125 13.28125 57.03125 19.53125 
L 57.03125 37.5 
Q 57.03125 40.625 56.640625 45.3125 
L 65.625 45.3125 
z
M 92.578125 69.140625 
Q 78.515625 65.234375 64.84375 61.328125 
Q 64.84375 54.6875 68.359375 54.6875 
L 80.46875 54.6875 
Q 83.203125 54.6875 84.765625 56.4375 
Q 86.328125 58.203125 86.71875 62.5 
Q 90.234375 60.9375 94.921875 59.765625 
Q 92.96875 51.5625 90.421875 50.1875 
Q 87.890625 48.828125 82.8125 48.828125 
L 64.84375 48.828125 
Q 57.03125 48.828125 57.03125 54.296875 
L 57.03125 71.09375 
Q 57.03125 75.78125 56.640625 80.46875 
L 65.625 80.46875 
Q 65.234375 75.390625 65.234375 67.1875 
Q 78.515625 70.3125 86.328125 76.171875 
Q 88.671875 72.65625 92.578125 69.140625 
z
M 32.03125 78.125 
Q 24.609375 71.484375 16.40625 62.890625 
Q 22.65625 63.28125 40.625 65.234375 
Q 38.671875 67.578125 35.546875 70.703125 
Q 39.0625 72.265625 42.96875 74.21875 
Q 51.171875 63.28125 55.078125 58.59375 
Q 51.171875 57.03125 48.046875 54.6875 
L 44.53125 59.765625 
Q 42.578125 59.375 33.203125 58.59375 
Q 23.828125 57.8125 9.375 55.859375 
Q 7.421875 59.375 6.25 62.890625 
Q 10.15625 64.84375 14.640625 69.53125 
Q 19.140625 74.21875 23.4375 82.03125 
Q 27.734375 79.6875 32.03125 78.125 
z
M 41.796875 28.90625 
L 41.796875 35.546875 
L 18.359375 35.546875 
L 18.359375 28.90625 
z
M 20.3125 6.640625 
Q 17.1875 3.125 11.71875 -9.765625 
Q 6.640625 -7.8125 3.90625 -7.03125 
Q 6.640625 -1.5625 11.71875 8.984375 
Q 15.625 7.8125 20.3125 6.640625 
z
M 85.9375 10.15625 
Q 92.578125 -1.953125 94.140625 -5.46875 
Q 89.84375 -6.640625 86.328125 -8.59375 
Q 83.984375 -2.34375 78.515625 7.03125 
Q 81.25 8.203125 85.9375 10.15625 
z
M 41.796875 41.015625 
L 41.796875 46.875 
L 18.359375 46.875 
L 18.359375 41.015625 
z
M 62.890625 8.59375 
Q 65.625 -1.953125 66.40625 -5.859375 
L 58.59375 -7.421875 
Q 57.421875 -3.90625 55.46875 7.421875 
Q 58.59375 8.203125 62.890625 8.59375 
z
M 39.84375 7.421875 
Q 40.234375 3.90625 42.578125 -6.640625 
Q 38.671875 -6.640625 34.375 -7.8125 
Q 33.59375 -3.125 32.03125 6.640625 
Q 35.15625 7.421875 39.84375 7.421875 
z
" id="SimHei-718a"/>
    </defs>
    <g style="fill:#800080;" transform="translate(235.061813 295.570823)rotate(-12.739652)scale(0.12 -0.12)">
     <use xlink:href="#SimHei-63"/>
     <use x="50" xlink:href="#SimHei-6f"/>
     <use x="100" xlink:href="#SimHei-69"/>
     <use x="150" xlink:href="#SimHei-6e"/>
     <use x="200" xlink:href="#SimHei-73"/>
     <use x="250" xlink:href="#SimHei-20"/>
     <use x="300" xlink:href="#SimHei-6f"/>
     <use x="350" xlink:href="#SimHei-66"/>
     <use x="400" xlink:href="#SimHei-20"/>
     <use x="450" xlink:href="#SimHei-5927"/>
     <use x="550" xlink:href="#SimHei-718a"/>
    </g>
   </g>
   <g id="Line3DCollection_1">
    <path d="M 325.649087 236.002984 
L 209.876104 187.422284 
L 210.363217 43.086674 
" style="fill:none;stroke:#b0b0b0;stroke-width:0.8;"/>
    <path d="M 305.615951 240.532216 
L 190.60155 191.299522 
L 190.43149 46.137256 
" style="fill:none;stroke:#b0b0b0;stroke-width:0.8;"/>
    <path d="M 285.302458 245.124834 
L 171.077619 195.226923 
L 170.232989 49.228668 
" style="fill:none;stroke:#b0b0b0;stroke-width:0.8;"/>
    <path d="M 264.70268 249.782177 
L 151.299439 199.205469 
L 149.762321 52.361736 
" style="fill:none;stroke:#b0b0b0;stroke-width:0.8;"/>
    <path d="M 243.810523 254.505623 
L 131.262013 203.236164 
L 129.013948 55.537307 
" style="fill:none;stroke:#b0b0b0;stroke-width:0.8;"/>
    <path d="M 222.619718 259.29659 
L 110.960209 207.320041 
L 107.982181 58.756252 
" style="fill:none;stroke:#b0b0b0;stroke-width:0.8;"/>
    <path d="M 201.123814 264.156536 
L 90.38876 211.458159 
L 86.661174 62.019466 
" style="fill:none;stroke:#b0b0b0;stroke-width:0.8;"/>
    <path d="M 179.316176 269.086961 
L 69.542258 215.651607 
L 65.044918 65.327868 
" style="fill:none;stroke:#b0b0b0;stroke-width:0.8;"/>
   </g>
   <g id="xtick_1">
    <g id="line2d_2">
     <path d="M 324.648958 235.583309 
L 327.653217 236.843957 
" style="fill:none;stroke:#000000;stroke-linecap:square;stroke-width:0.8;"/>
    </g>
    <g id="text_2">
     <!-- 0 -->
     <defs>
      <path d="M 3.125 29.296875 
Q 3.90625 50 6.4375 56.046875 
Q 8.984375 62.109375 13.671875 66.015625 
Q 18.359375 69.921875 25.1875 69.921875 
Q 32.03125 69.921875 37.109375 64.25 
Q 42.1875 58.59375 43.75 50 
Q 45.3125 41.40625 44.71875 30.265625 
Q 44.140625 19.140625 40.8125 12.109375 
Q 37.5 5.078125 30.859375 2.34375 
Q 24.21875 -0.390625 17.578125 2.921875 
Q 10.9375 6.25 8.203125 11.71875 
Q 5.46875 17.1875 4.296875 23.234375 
Q 3.125 29.296875 3.90625 50 
z
M 12.890625 52.734375 
Q 10.546875 31.25 12.5 22.84375 
Q 14.453125 14.453125 18.9375 10.9375 
Q 23.4375 7.421875 28.125 9.5625 
Q 32.8125 11.71875 34.953125 18.15625 
Q 37.109375 24.609375 37.109375 32.21875 
Q 37.109375 39.84375 36.515625 46.09375 
Q 35.9375 52.34375 33 57.421875 
Q 30.078125 62.5 25.1875 62.6875 
Q 20.3125 62.890625 16.59375 57.8125 
Q 12.890625 52.734375 10.546875 31.25 
z
" id="SimHei-30"/>
     </defs>
     <g transform="translate(330.134125 260.095778)scale(0.15 -0.15)">
      <use xlink:href="#SimHei-30"/>
     </g>
    </g>
   </g>
   <g id="xtick_2">
    <g id="line2d_3">
     <path d="M 304.621865 240.106691 
L 307.607998 241.384926 
" style="fill:none;stroke:#000000;stroke-linecap:square;stroke-width:0.8;"/>
    </g>
    <g id="text_3">
     <!-- 2 -->
     <defs>
      <path d="M 4.6875 3.90625 
Q 5.078125 9.765625 10.15625 14.453125 
Q 15.234375 19.140625 23.046875 29.09375 
Q 30.859375 39.0625 33.203125 44.53125 
Q 35.546875 50 34.953125 53.90625 
Q 34.375 57.8125 31.25 60.34375 
Q 28.125 62.890625 24.015625 62.5 
Q 19.921875 62.109375 16.203125 59.375 
Q 12.5 56.640625 10.546875 51.171875 
L 3.125 52.34375 
Q 6.25 61.328125 11.125 65.421875 
Q 16.015625 69.53125 22.65625 69.921875 
Q 26.5625 70.3125 29.6875 69.71875 
Q 32.8125 69.140625 36.125 66.984375 
Q 39.453125 64.84375 41.59375 60.546875 
Q 43.75 56.25 43.15625 50.1875 
Q 42.578125 44.140625 37.109375 35.734375 
Q 31.640625 27.34375 16.015625 9.375 
L 44.140625 9.375 
L 44.140625 2.34375 
L 4.6875 2.34375 
z
" id="SimHei-32"/>
     </defs>
     <g transform="translate(310.096382 264.735082)scale(0.15 -0.15)">
      <use xlink:href="#SimHei-32"/>
     </g>
    </g>
   </g>
   <g id="xtick_3">
    <g id="line2d_4">
     <path d="M 284.314682 244.693335 
L 287.281886 245.989527 
" style="fill:none;stroke:#000000;stroke-linecap:square;stroke-width:0.8;"/>
    </g>
    <g id="text_4">
     <!-- 4 -->
     <defs>
      <path d="M 31.25 17.1875 
L 1.171875 17.1875 
L 1.171875 23.828125 
L 32.8125 69.53125 
L 38.671875 69.53125 
L 38.671875 23.828125 
L 48.046875 23.828125 
L 48.046875 17.1875 
L 38.671875 17.1875 
L 38.671875 2.34375 
L 31.25 2.34375 
z
M 31.25 23.828125 
L 31.25 54.6875 
L 9.375 23.828125 
z
" id="SimHei-34"/>
     </defs>
     <g transform="translate(289.777342 269.439513)scale(0.15 -0.15)">
      <use xlink:href="#SimHei-34"/>
     </g>
    </g>
   </g>
   <g id="xtick_4">
    <g id="line2d_5">
     <path d="M 263.721492 249.344577 
L 266.668935 250.659107 
" style="fill:none;stroke:#000000;stroke-linecap:square;stroke-width:0.8;"/>
    </g>
    <g id="text_5">
     <!-- 6 -->
     <defs>
      <path d="M 3.515625 19.53125 
Q 4.296875 30.859375 6.046875 34.765625 
Q 7.8125 38.671875 11.328125 44.53125 
L 27.34375 69.53125 
L 36.328125 69.53125 
L 19.921875 43.75 
Q 30.46875 46.484375 36.71875 42.96875 
Q 42.96875 39.453125 45.109375 34.953125 
Q 47.265625 30.46875 47.453125 25.1875 
Q 47.65625 19.921875 45.890625 14.84375 
Q 44.140625 9.765625 39.640625 5.65625 
Q 35.15625 1.5625 27.140625 1.171875 
Q 19.140625 0.78125 13.46875 4.09375 
Q 7.8125 7.421875 5.65625 13.46875 
Q 3.515625 19.53125 4.296875 30.859375 
z
M 12.5 16.015625 
Q 19.53125 8.59375 25.390625 8.203125 
Q 31.25 7.8125 35.15625 12.109375 
Q 39.0625 16.40625 39.0625 24.609375 
Q 39.0625 32.8125 34.171875 35.9375 
Q 29.296875 39.0625 23.234375 38.28125 
Q 17.1875 37.5 14.453125 32.421875 
Q 11.71875 27.34375 12.109375 21.671875 
Q 12.5 16.015625 19.53125 8.59375 
z
" id="SimHei-36"/>
     </defs>
     <g transform="translate(269.171041 274.210454)scale(0.15 -0.15)">
      <use xlink:href="#SimHei-36"/>
     </g>
    </g>
   </g>
   <g id="xtick_5">
    <g id="line2d_6">
     <path d="M 242.83621 254.061792 
L 245.763028 255.395052 
" style="fill:none;stroke:#000000;stroke-linecap:square;stroke-width:0.8;"/>
    </g>
    <g id="text_6">
     <!-- 8 -->
     <defs>
      <path d="M 2.734375 16.796875 
Q 2.734375 26.171875 5.078125 30.65625 
Q 7.421875 35.15625 12.890625 37.890625 
Q 8.203125 40.625 6.640625 43.9375 
Q 5.078125 47.265625 4.875 51.5625 
Q 4.6875 55.859375 6.046875 58.984375 
Q 7.421875 62.109375 10.15625 64.84375 
Q 12.890625 67.578125 16.203125 68.546875 
Q 19.53125 69.53125 23.4375 69.53125 
Q 27.34375 69.53125 30.46875 68.75 
Q 33.59375 67.96875 37.109375 65.421875 
Q 40.625 62.890625 42.1875 58.203125 
Q 43.75 53.515625 41.984375 47.265625 
Q 40.234375 41.015625 32.8125 37.5 
Q 39.453125 35.546875 42.1875 31.4375 
Q 44.921875 27.34375 44.921875 21.484375 
Q 44.921875 15.625 43.15625 12.109375 
Q 41.40625 8.59375 39.25 6.25 
Q 37.109375 3.90625 33.390625 2.53125 
Q 29.6875 1.171875 24.015625 1.171875 
Q 18.359375 1.171875 14.25 2.53125 
Q 10.15625 3.90625 7.421875 6.640625 
Q 4.6875 9.375 3.703125 13.078125 
Q 2.734375 16.796875 2.734375 26.171875 
z
M 10.9375 26.5625 
Q 10.546875 17.1875 12.296875 13.671875 
Q 14.0625 10.15625 18.75 9.171875 
Q 23.4375 8.203125 28.515625 9.375 
Q 33.59375 10.546875 35.546875 14.84375 
Q 37.5 19.140625 36.90625 23.4375 
Q 36.328125 27.734375 32.03125 30.65625 
Q 27.734375 33.59375 22.65625 33.203125 
Q 17.578125 32.8125 14.25 29.6875 
Q 10.9375 26.5625 10.546875 17.1875 
z
M 12.109375 56.25 
Q 12.109375 48.4375 14.84375 44.921875 
Q 17.578125 41.40625 23.4375 41.40625 
Q 29.296875 41.40625 32.21875 44.921875 
Q 35.15625 48.4375 34.953125 53.3125 
Q 34.765625 58.203125 31.4375 60.546875 
Q 28.125 62.890625 22.453125 62.5 
Q 16.796875 62.109375 14.453125 59.171875 
Q 12.109375 56.25 12.109375 48.4375 
z
" id="SimHei-38"/>
     </defs>
     <g transform="translate(248.271344 279.049324)scale(0.15 -0.15)">
      <use xlink:href="#SimHei-38"/>
     </g>
    </g>
   </g>
   <g id="xtick_6">
    <g id="line2d_7">
     <path d="M 221.652577 258.846394 
L 224.557878 260.198787 
" style="fill:none;stroke:#000000;stroke-linecap:square;stroke-width:0.8;"/>
    </g>
    <g id="text_7">
     <!-- 10 -->
     <defs>
      <path d="M 21.875 56.25 
Q 16.796875 51.171875 8.984375 46.484375 
L 8.984375 53.90625 
Q 18.75 60.546875 25 69.53125 
L 29.6875 69.53125 
L 29.6875 2.34375 
L 21.875 2.34375 
z
" id="SimHei-31"/>
     </defs>
     <g transform="translate(223.321939 283.957585)scale(0.15 -0.15)">
      <use xlink:href="#SimHei-31"/>
      <use x="50" xlink:href="#SimHei-30"/>
     </g>
    </g>
   </g>
   <g id="xtick_7">
    <g id="line2d_8">
     <path d="M 200.164153 263.699837 
L 203.047012 265.071778 
" style="fill:none;stroke:#000000;stroke-linecap:square;stroke-width:0.8;"/>
    </g>
    <g id="text_8">
     <!-- 12 -->
     <g transform="translate(201.816333 288.936741)scale(0.15 -0.15)">
      <use xlink:href="#SimHei-31"/>
      <use x="50" xlink:href="#SimHei-32"/>
     </g>
    </g>
   </g>
   <g id="xtick_8">
    <g id="line2d_9">
     <path d="M 178.364314 268.623617 
L 181.22377 270.015533 
" style="fill:none;stroke:#000000;stroke-linecap:square;stroke-width:0.8;"/>
    </g>
    <g id="text_9">
     <!-- 14 -->
     <g transform="translate(179.997844 293.988337)scale(0.15 -0.15)">
      <use xlink:href="#SimHei-31"/>
      <use x="50" xlink:href="#SimHei-34"/>
     </g>
    </g>
   </g>
  </g>
  <g id="axis3d_2">
   <g id="line2d_10">
    <path d="M 58.794045 217.8137 
L 168.062833 271.631196 
" style="fill:none;stroke:#000000;stroke-linecap:square;stroke-width:0.8;"/>
   </g>
   <g id="text_10">
    <!-- coins of 胖虎 -->
    <defs>
     <path d="M 21.484375 1.953125 
Q 25.78125 1.5625 28.515625 1.75 
Q 31.25 1.953125 31.640625 7.03125 
L 31.640625 26.171875 
L 18.359375 26.171875 
Q 16.796875 14.453125 14.453125 5.859375 
Q 12.109375 -2.734375 10.15625 -7.03125 
Q 6.640625 -3.90625 3.125 -2.734375 
Q 6.640625 2.734375 8.78125 10.34375 
Q 10.9375 17.96875 11.71875 30.859375 
L 11.71875 64.453125 
Q 11.71875 71.09375 11.328125 76.953125 
L 38.671875 76.953125 
Q 38.28125 69.140625 38.28125 61.328125 
L 38.28125 1.953125 
Q 38.28125 -6.25 23.4375 -7.03125 
Q 23.046875 -3.125 21.484375 1.953125 
z
M 64.453125 45.3125 
L 64.453125 69.140625 
Q 64.453125 73.828125 63.671875 79.296875 
L 72.265625 79.296875 
Q 71.875 74.21875 71.875 69.140625 
L 71.875 45.3125 
L 82.421875 45.3125 
Q 85.9375 45.3125 91.796875 45.703125 
L 91.796875 38.671875 
Q 88.28125 39.0625 82.421875 39.0625 
L 71.875 39.0625 
L 71.875 23.4375 
L 84.765625 23.4375 
Q 91.015625 23.4375 96.09375 23.828125 
L 96.09375 16.796875 
Q 90.234375 17.1875 84.765625 17.1875 
L 71.875 17.1875 
L 71.875 3.90625 
Q 71.875 -2.34375 72.265625 -8.984375 
L 64.0625 -8.984375 
Q 64.453125 -2.734375 64.453125 3.90625 
L 64.453125 17.1875 
L 53.90625 17.1875 
Q 48.4375 17.1875 42.578125 16.796875 
L 42.578125 23.828125 
Q 48.046875 23.4375 54.296875 23.4375 
L 64.453125 23.4375 
L 64.453125 39.0625 
L 53.90625 39.0625 
Q 48.4375 39.0625 43.359375 38.671875 
L 43.359375 45.703125 
Q 48.4375 45.3125 53.515625 45.3125 
z
M 31.640625 32.8125 
L 31.640625 48.828125 
L 18.75 48.828125 
L 18.75 32.8125 
z
M 31.640625 55.078125 
L 31.640625 70.703125 
L 18.75 70.703125 
L 18.75 55.078125 
z
M 51.5625 51.953125 
Q 50 58.984375 44.921875 71.09375 
L 51.171875 74.21875 
Q 55.859375 63.28125 58.59375 54.6875 
Q 54.296875 53.515625 51.5625 51.953125 
z
M 77.34375 53.90625 
Q 83.984375 67.96875 84.765625 73.4375 
Q 88.671875 71.875 92.578125 70.703125 
Q 90.625 67.96875 88.671875 62.890625 
Q 86.71875 57.8125 84.375 51.953125 
Q 80.859375 53.90625 77.34375 53.90625 
z
" id="SimHei-80d6"/>
     <path d="M 25.78125 45.703125 
Q 33.203125 46.09375 44.140625 46.875 
L 44.140625 56.640625 
L 20.703125 56.640625 
Q 20.703125 31.640625 20.109375 23.4375 
Q 19.53125 15.234375 17.578125 8 
Q 15.625 0.78125 10.9375 -7.8125 
Q 7.8125 -5.46875 3.125 -3.90625 
Q 7.03125 0.78125 9.171875 6.828125 
Q 11.328125 12.890625 12.109375 18.75 
Q 12.890625 24.609375 13.078125 30.265625 
Q 13.28125 35.9375 13.28125 42.96875 
Q 13.28125 50.390625 12.890625 62.5 
L 44.140625 62.5 
L 44.140625 74.609375 
Q 44.140625 77.34375 43.359375 82.421875 
L 51.953125 82.421875 
Q 51.5625 78.515625 51.5625 75.390625 
L 71.09375 75.390625 
Q 76.171875 75.390625 84.765625 76.171875 
L 84.765625 69.53125 
Q 76.171875 69.921875 70.703125 69.921875 
L 51.171875 69.921875 
L 51.171875 62.5 
L 93.75 62.5 
Q 92.1875 57.8125 89.84375 46.875 
Q 85.15625 48.046875 82.03125 48.4375 
Q 83.984375 52.734375 85.15625 56.640625 
L 51.171875 56.640625 
L 51.171875 47.65625 
Q 65.234375 49.21875 74.21875 50.78125 
L 75 44.140625 
Q 64.0625 42.96875 51.171875 41.40625 
L 51.171875 36.71875 
Q 51.171875 33.203125 57.421875 33.203125 
L 70.3125 33.203125 
Q 75 32.8125 76.359375 34.5625 
Q 77.734375 36.328125 78.515625 41.015625 
Q 81.640625 39.0625 86.71875 37.109375 
Q 84.765625 30.859375 82.03125 29.09375 
Q 79.296875 27.34375 73.828125 27.34375 
L 54.296875 27.34375 
Q 44.140625 27.34375 44.140625 33.59375 
L 44.140625 41.015625 
Q 36.328125 40.234375 27.34375 39.0625 
Q 26.5625 42.578125 25.78125 45.703125 
z
M 71.09375 22.265625 
Q 70.703125 16.796875 70.703125 10.9375 
L 70.703125 2.34375 
Q 70.703125 -1.953125 75 -1.953125 
L 81.25 -1.953125 
Q 85.9375 -1.953125 86.71875 0.78125 
Q 87.5 3.515625 87.5 7.421875 
Q 91.40625 5.078125 96.09375 4.296875 
Q 93.359375 -3.90625 91.59375 -5.859375 
Q 89.84375 -7.8125 85.15625 -7.8125 
L 72.65625 -7.8125 
Q 63.671875 -7.8125 63.671875 -1.171875 
L 63.671875 16.40625 
L 45.3125 16.40625 
Q 45.3125 4.6875 41.203125 -0.578125 
Q 37.109375 -5.859375 26.171875 -10.546875 
Q 25 -6.640625 21.484375 -3.515625 
Q 35.9375 0.78125 37.109375 7.421875 
Q 38.28125 14.0625 37.890625 22.265625 
L 71.09375 22.265625 
z
" id="SimHei-864e"/>
    </defs>
    <g style="fill:#800080;" transform="translate(49.092792 257.912399)rotate(-333.778649)scale(0.12 -0.12)">
     <use xlink:href="#SimHei-63"/>
     <use x="50" xlink:href="#SimHei-6f"/>
     <use x="100" xlink:href="#SimHei-69"/>
     <use x="150" xlink:href="#SimHei-6e"/>
     <use x="200" xlink:href="#SimHei-73"/>
     <use x="250" xlink:href="#SimHei-20"/>
     <use x="300" xlink:href="#SimHei-6f"/>
     <use x="350" xlink:href="#SimHei-66"/>
     <use x="400" xlink:href="#SimHei-20"/>
     <use x="450" xlink:href="#SimHei-80d6"/>
     <use x="550" xlink:href="#SimHei-864e"/>
    </g>
   </g>
   <g id="Line3DCollection_2">
    <path d="M 227.548604 43.791556 
L 226.494241 188.318329 
L 65.235235 220.98614 
" style="fill:none;stroke:#b0b0b0;stroke-width:0.8;"/>
    <path d="M 241.688876 48.257402 
L 240.154088 193.993191 
L 78.043534 227.294534 
" style="fill:none;stroke:#b0b0b0;stroke-width:0.8;"/>
    <path d="M 256.106644 52.810887 
L 254.072998 199.775679 
L 91.108144 233.729167 
" style="fill:none;stroke:#b0b0b0;stroke-width:0.8;"/>
    <path d="M 270.810156 57.454617 
L 268.25841 205.668883 
L 104.436836 240.293868 
" style="fill:none;stroke:#b0b0b0;stroke-width:0.8;"/>
    <path d="M 285.807992 62.191302 
L 282.718053 211.676014 
L 118.0377 246.992619 
" style="fill:none;stroke:#b0b0b0;stroke-width:0.8;"/>
    <path d="M 301.10908 67.023762 
L 297.459956 217.800407 
L 131.919157 253.829569 
" style="fill:none;stroke:#b0b0b0;stroke-width:0.8;"/>
    <path d="M 316.722709 71.95493 
L 312.492466 224.045531 
L 146.089982 260.80904 
" style="fill:none;stroke:#b0b0b0;stroke-width:0.8;"/>
    <path d="M 332.658556 76.987861 
L 327.824262 230.41499 
L 160.559317 267.935534 
" style="fill:none;stroke:#b0b0b0;stroke-width:0.8;"/>
   </g>
   <g id="xtick_9">
    <g id="line2d_11">
     <path d="M 66.594479 220.710784 
L 62.513215 221.537566 
" style="fill:none;stroke:#000000;stroke-linecap:square;stroke-width:0.8;"/>
    </g>
    <g id="text_11">
     <!-- 0 -->
     <g transform="translate(50.195232 243.623733)scale(0.15 -0.15)">
      <use xlink:href="#SimHei-30"/>
     </g>
    </g>
   </g>
   <g id="xtick_10">
    <g id="line2d_12">
     <path d="M 79.410645 227.013697 
L 75.305726 227.856945 
" style="fill:none;stroke:#000000;stroke-linecap:square;stroke-width:0.8;"/>
    </g>
    <g id="text_12">
     <!-- 2 -->
     <g transform="translate(62.908596 250.062791)scale(0.15 -0.15)">
      <use xlink:href="#SimHei-32"/>
     </g>
    </g>
   </g>
   <g id="xtick_11">
    <g id="line2d_13">
     <path d="M 92.483165 233.442684 
L 88.354458 234.302894 
" style="fill:none;stroke:#000000;stroke-linecap:square;stroke-width:0.8;"/>
    </g>
    <g id="text_13">
     <!-- 4 -->
     <g transform="translate(75.876714 256.630876)scale(0.15 -0.15)">
      <use xlink:href="#SimHei-34"/>
     </g>
    </g>
   </g>
   <g id="xtick_12">
    <g id="line2d_14">
     <path d="M 105.81981 240.001565 
L 101.667187 240.879255 
" style="fill:none;stroke:#000000;stroke-linecap:square;stroke-width:0.8;"/>
    </g>
    <g id="text_14">
     <!-- 6 -->
     <g transform="translate(89.10732 263.331906)scale(0.15 -0.15)">
      <use xlink:href="#SimHei-36"/>
     </g>
    </g>
   </g>
   <g id="xtick_13">
    <g id="line2d_15">
     <path d="M 119.428666 246.694319 
L 115.252006 247.590026 
" style="fill:none;stroke:#000000;stroke-linecap:square;stroke-width:0.8;"/>
    </g>
    <g id="text_15">
     <!-- 8 -->
     <g transform="translate(102.608465 270.169958)scale(0.15 -0.15)">
      <use xlink:href="#SimHei-38"/>
     </g>
    </g>
   </g>
   <g id="xtick_14">
    <g id="line2d_16">
     <path d="M 133.318153 253.525084 
L 129.117343 254.439371 
" style="fill:none;stroke:#000000;stroke-linecap:square;stroke-width:0.8;"/>
    </g>
    <g id="text_16">
     <!-- 10 -->
     <g transform="translate(112.638533 277.14928)scale(0.15 -0.15)">
      <use xlink:href="#SimHei-31"/>
      <use x="50" xlink:href="#SimHei-30"/>
     </g>
    </g>
   </g>
   <g id="xtick_15">
    <g id="line2d_17">
     <path d="M 147.497042 260.498176 
L 143.271977 261.431625 
" style="fill:none;stroke:#000000;stroke-linecap:square;stroke-width:0.8;"/>
    </g>
    <g id="text_17">
     <!-- 12 -->
     <g transform="translate(126.706257 284.274293)scale(0.15 -0.15)">
      <use xlink:href="#SimHei-31"/>
      <use x="50" xlink:href="#SimHei-32"/>
     </g>
    </g>
   </g>
   <g id="xtick_16">
    <g id="line2d_18">
     <path d="M 161.974472 267.618089 
L 157.725058 268.57131 
" style="fill:none;stroke:#000000;stroke-linecap:square;stroke-width:0.8;"/>
    </g>
    <g id="text_18">
     <!-- 14 -->
     <g transform="translate(141.07074 291.549608)scale(0.15 -0.15)">
      <use xlink:href="#SimHei-31"/>
      <use x="50" xlink:href="#SimHei-34"/>
     </g>
    </g>
   </g>
  </g>
  <g id="axis3d_3">
   <g id="line2d_19">
    <path d="M 58.794045 217.8137 
L 53.895826 67.034254 
" style="fill:none;stroke:#000000;stroke-linecap:square;stroke-width:0.8;"/>
   </g>
   <g id="text_19">
    <!-- coins of 静香 -->
    <defs>
     <path d="M 67.578125 78.90625 
Q 65.625 76.5625 64.640625 74.40625 
Q 63.671875 72.265625 62.890625 70.3125 
L 84.375 70.3125 
Q 82.03125 66.796875 80.078125 62.296875 
Q 78.125 57.8125 75.78125 52.734375 
L 90.234375 52.734375 
Q 89.84375 47.265625 89.84375 41.015625 
L 89.84375 36.71875 
Q 93.359375 36.71875 96.875 37.109375 
L 96.875 30.46875 
Q 94.140625 30.859375 89.84375 30.859375 
L 89.84375 25.390625 
Q 89.84375 17.578125 90.234375 10.546875 
L 83.203125 10.546875 
L 83.203125 14.84375 
L 72.265625 14.84375 
L 72.265625 0.390625 
Q 71.875 -4.6875 68.9375 -6.640625 
Q 66.015625 -8.59375 56.25 -9.375 
Q 56.25 -5.46875 53.90625 -1.171875 
Q 58.984375 -1.5625 62.296875 -1.171875 
Q 65.625 -0.78125 65.625 2.734375 
L 65.625 14.84375 
L 60.15625 14.84375 
Q 55.46875 14.84375 50.390625 14.453125 
L 50.390625 20.703125 
Q 55.078125 20.3125 60.15625 20.3125 
L 65.625 20.3125 
L 65.625 30.859375 
L 59.765625 30.859375 
Q 54.6875 30.859375 48.046875 30.46875 
L 48.046875 36.71875 
Q 53.515625 36.328125 60.15625 36.328125 
L 65.625 36.328125 
L 65.625 47.265625 
L 60.15625 47.265625 
Q 57.8125 47.265625 51.953125 46.875 
L 51.953125 51.953125 
Q 50.78125 50.78125 48.828125 48.4375 
Q 46.875 51.5625 44.140625 53.90625 
Q 50.390625 60.15625 53.703125 68.15625 
Q 57.03125 76.171875 58.984375 82.03125 
Q 62.890625 80.078125 67.578125 78.90625 
z
M 42.96875 36.328125 
Q 42.578125 30.859375 42.578125 25 
L 42.578125 1.171875 
Q 42.578125 -4.6875 39.453125 -6.25 
Q 36.328125 -7.8125 30.078125 -8.984375 
Q 29.6875 -5.46875 27.34375 -1.5625 
Q 36.328125 -1.5625 35.546875 1.953125 
L 35.546875 6.640625 
L 15.234375 6.640625 
L 15.234375 -8.203125 
L 8.203125 -8.203125 
Q 8.59375 -3.90625 8.59375 1.953125 
L 8.59375 25 
Q 8.59375 30.859375 8.203125 36.328125 
L 42.96875 36.328125 
z
M 21.875 71.09375 
Q 21.875 74.609375 21.484375 80.46875 
L 29.296875 80.46875 
Q 28.90625 74.609375 28.90625 71.09375 
L 33.984375 71.09375 
Q 39.453125 71.09375 46.875 71.484375 
L 46.875 65.234375 
Q 39.453125 65.625 33.984375 65.625 
L 28.90625 65.625 
L 28.90625 59.375 
L 33.984375 59.375 
Q 36.328125 59.375 42.578125 59.765625 
L 42.578125 53.515625 
Q 35.9375 53.90625 33.59375 53.90625 
L 28.90625 53.90625 
L 28.90625 47.65625 
L 35.15625 47.65625 
Q 40.625 47.65625 46.484375 48.046875 
L 46.484375 41.796875 
Q 40.234375 42.1875 35.15625 42.1875 
L 15.625 42.1875 
Q 9.375 42.1875 3.90625 41.796875 
L 3.90625 48.046875 
Q 9.375 47.65625 15.625 47.65625 
L 21.875 47.65625 
L 21.875 53.90625 
L 15.234375 53.90625 
Q 12.890625 53.90625 8.59375 53.515625 
L 8.59375 59.765625 
Q 12.890625 59.375 15.234375 59.375 
L 21.875 59.375 
L 21.875 65.625 
L 15.234375 65.625 
Q 10.15625 65.625 4.6875 65.234375 
L 4.6875 71.484375 
Q 10.15625 71.09375 15.234375 71.09375 
z
M 52.734375 53.515625 
Q 57.421875 53.125 64.453125 53.125 
L 68.359375 53.125 
Q 72.265625 61.328125 73.4375 64.84375 
L 60.15625 64.84375 
Q 55.078125 56.640625 52.734375 53.515625 
z
M 35.546875 12.109375 
L 35.546875 19.140625 
L 15.234375 19.140625 
L 15.234375 12.109375 
z
M 35.546875 24.609375 
L 35.546875 30.859375 
L 15.234375 30.859375 
L 15.234375 24.609375 
z
M 83.203125 36.328125 
L 83.203125 47.265625 
L 72.265625 47.265625 
L 72.265625 36.328125 
z
M 83.203125 20.3125 
L 83.203125 30.859375 
L 72.265625 30.859375 
L 72.265625 20.3125 
z
" id="SimHei-9759"/>
     <path d="M 45.703125 33.59375 
L 45.703125 53.90625 
Q 36.71875 44.140625 26.359375 38.28125 
Q 16.015625 32.421875 10.546875 30.078125 
Q 10.546875 33.203125 5.46875 36.71875 
Q 16.015625 39.453125 24.21875 44.53125 
Q 32.421875 49.609375 37.109375 54.296875 
L 21.484375 54.296875 
Q 14.84375 54.296875 7.8125 53.90625 
L 7.8125 60.15625 
Q 14.84375 59.765625 21.484375 59.765625 
L 45.703125 59.765625 
L 45.703125 69.921875 
Q 38.28125 69.140625 17.96875 67.578125 
Q 16.796875 71.09375 14.453125 74.609375 
Q 32.8125 74.609375 50.390625 76.953125 
Q 67.96875 79.296875 74.609375 82.03125 
Q 76.953125 78.125 81.25 73.828125 
Q 74.609375 73.4375 67.96875 72.65625 
Q 61.328125 71.875 52.34375 70.703125 
L 52.34375 59.765625 
L 78.125 59.765625 
Q 83.984375 59.765625 91.40625 60.15625 
L 91.40625 53.90625 
Q 84.375 54.296875 78.125 54.296875 
L 61.71875 54.296875 
Q 66.40625 48.4375 74.21875 43.15625 
Q 82.03125 37.890625 94.140625 34.765625 
Q 89.84375 31.640625 88.28125 26.953125 
Q 82.421875 29.296875 77.34375 32.03125 
Q 76.5625 25 76.5625 12.5 
Q 76.5625 -0.78125 76.953125 -8.984375 
L 69.53125 -8.984375 
L 69.53125 -3.125 
L 28.515625 -3.125 
L 28.515625 -9.375 
L 21.875 -9.375 
L 21.875 11.71875 
Q 21.875 25 21.484375 33.59375 
z
M 69.53125 17.96875 
L 69.53125 27.734375 
L 28.515625 27.734375 
L 28.515625 17.96875 
z
M 69.53125 2.734375 
L 69.53125 12.5 
L 28.515625 12.5 
L 28.515625 2.734375 
z
M 71.484375 35.9375 
Q 62.109375 42.578125 52.734375 54.296875 
L 52.34375 54.296875 
L 52.34375 33.59375 
L 75 33.59375 
z
" id="SimHei-9999"/>
    </defs>
    <g style="fill:#800080;" transform="translate(10.565293 102.842551)rotate(-271.860655)scale(0.12 -0.12)">
     <use xlink:href="#SimHei-63"/>
     <use x="50" xlink:href="#SimHei-6f"/>
     <use x="100" xlink:href="#SimHei-69"/>
     <use x="150" xlink:href="#SimHei-6e"/>
     <use x="200" xlink:href="#SimHei-73"/>
     <use x="250" xlink:href="#SimHei-20"/>
     <use x="300" xlink:href="#SimHei-6f"/>
     <use x="350" xlink:href="#SimHei-66"/>
     <use x="400" xlink:href="#SimHei-20"/>
     <use x="450" xlink:href="#SimHei-9759"/>
     <use x="550" xlink:href="#SimHei-9999"/>
    </g>
   </g>
   <g id="Line3DCollection_3">
    <path d="M 58.492454 208.529967 
L 219.669895 176.585888 
L 336.085066 224.233899 
" style="fill:none;stroke:#b0b0b0;stroke-width:0.8;"/>
    <path d="M 57.897709 190.222231 
L 219.769111 159.08724 
L 336.710174 205.533478 
" style="fill:none;stroke:#b0b0b0;stroke-width:0.8;"/>
    <path d="M 57.297781 171.754931 
L 219.869148 141.443949 
L 337.340869 186.665935 
" style="fill:none;stroke:#b0b0b0;stroke-width:0.8;"/>
    <path d="M 56.692601 153.125973 
L 219.970014 123.654212 
L 337.977226 167.629019 
" style="fill:none;stroke:#b0b0b0;stroke-width:0.8;"/>
    <path d="M 56.0821 134.333224 
L 220.071722 105.716199 
L 338.619321 148.42044 
" style="fill:none;stroke:#b0b0b0;stroke-width:0.8;"/>
    <path d="M 55.466207 115.374514 
L 220.17428 87.628049 
L 339.267233 129.037865 
" style="fill:none;stroke:#b0b0b0;stroke-width:0.8;"/>
    <path d="M 54.844852 96.247636 
L 220.277701 69.387869 
L 339.92104 109.478918 
" style="fill:none;stroke:#b0b0b0;stroke-width:0.8;"/>
    <path d="M 54.21796 76.950341 
L 220.381995 50.993734 
L 340.580823 89.741182 
" style="fill:none;stroke:#b0b0b0;stroke-width:0.8;"/>
   </g>
   <g id="xtick_17">
    <g id="line2d_20">
     <path d="M 59.850818 208.26075 
L 55.772207 209.069099 
" style="fill:none;stroke:#000000;stroke-linecap:square;stroke-width:0.8;"/>
    </g>
    <g id="text_20">
     <!-- 0 -->
     <g transform="translate(36.319991 217.800274)scale(0.15 -0.15)">
      <use xlink:href="#SimHei-30"/>
     </g>
    </g>
   </g>
   <g id="xtick_18">
    <g id="line2d_21">
     <path d="M 59.262222 189.959775 
L 55.165133 190.747826 
" style="fill:none;stroke:#000000;stroke-linecap:square;stroke-width:0.8;"/>
    </g>
    <g id="text_21">
     <!-- 2 -->
     <g transform="translate(35.646444 199.518717)scale(0.15 -0.15)">
      <use xlink:href="#SimHei-32"/>
     </g>
    </g>
   </g>
   <g id="xtick_19">
    <g id="line2d_22">
     <path d="M 58.668498 171.499365 
L 54.552763 172.266732 
" style="fill:none;stroke:#000000;stroke-linecap:square;stroke-width:0.8;"/>
    </g>
    <g id="text_22">
     <!-- 4 -->
     <g transform="translate(34.967036 181.078092)scale(0.15 -0.15)">
      <use xlink:href="#SimHei-34"/>
     </g>
    </g>
   </g>
   <g id="xtick_20">
    <g id="line2d_23">
     <path d="M 58.069579 152.877427 
L 53.935029 153.623718 
" style="fill:none;stroke:#000000;stroke-linecap:square;stroke-width:0.8;"/>
    </g>
    <g id="text_23">
     <!-- 6 -->
     <g transform="translate(34.281691 162.476316)scale(0.15 -0.15)">
      <use xlink:href="#SimHei-36"/>
     </g>
    </g>
   </g>
   <g id="xtick_21">
    <g id="line2d_24">
     <path d="M 57.465397 134.091831 
L 53.311858 134.816645 
" style="fill:none;stroke:#000000;stroke-linecap:square;stroke-width:0.8;"/>
    </g>
    <g id="text_24">
     <!-- 8 -->
     <g transform="translate(33.590331 143.711265)scale(0.15 -0.15)">
      <use xlink:href="#SimHei-38"/>
     </g>
    </g>
   </g>
   <g id="xtick_22">
    <g id="line2d_25">
     <path d="M 56.855881 115.140412 
L 52.683179 115.843338 
" style="fill:none;stroke:#000000;stroke-linecap:square;stroke-width:0.8;"/>
    </g>
    <g id="text_25">
     <!-- 10 -->
     <g transform="translate(29.142875 124.780781)scale(0.15 -0.15)">
      <use xlink:href="#SimHei-31"/>
      <use x="50" xlink:href="#SimHei-30"/>
     </g>
    </g>
   </g>
   <g id="xtick_23">
    <g id="line2d_26">
     <path d="M 56.240962 96.020962 
L 52.048919 96.701585 
" style="fill:none;stroke:#000000;stroke-linecap:square;stroke-width:0.8;"/>
    </g>
    <g id="text_26">
     <!-- 12 -->
     <g transform="translate(28.439244 105.682667)scale(0.15 -0.15)">
      <use xlink:href="#SimHei-31"/>
      <use x="50" xlink:href="#SimHei-32"/>
     </g>
    </g>
   </g>
   <g id="xtick_24">
    <g id="line2d_27">
     <path d="M 55.620566 76.731239 
L 51.409002 77.389131 
" style="fill:none;stroke:#000000;stroke-linecap:square;stroke-width:0.8;"/>
    </g>
    <g id="text_27">
     <!-- 14 -->
     <g transform="translate(27.729354 86.414686)scale(0.15 -0.15)">
      <use xlink:href="#SimHei-31"/>
      <use x="50" xlink:href="#SimHei-34"/>
     </g>
    </g>
   </g>
  </g>
  <g id="axes_1">
   <g id="Path3DCollection_1">
    <defs>
     <path d="M 0 5 
C 1.326016 5 2.597899 4.473168 3.535534 3.535534 
C 4.473168 2.597899 5 1.326016 5 0 
C 5 -1.326016 4.473168 -2.597899 3.535534 -3.535534 
C 2.597899 -4.473168 1.326016 -5 0 -5 
C -1.326016 -5 -2.597899 -4.473168 -3.535534 -3.535534 
C -4.473168 -2.597899 -5 -1.326016 -5 0 
C -5 1.326016 -4.473168 2.597899 -3.535534 3.535534 
C -2.597899 4.473168 -1.326016 5 0 5 
z
" id="md810144488" style="stroke:#008000;"/>
    </defs>
    <g clip-path="url(#p81e26649c0)">
     <use style="fill:#008000;stroke:#008000;" x="212.931542" xlink:href="#md810144488" y="208.021774"/>
    </g>
   </g>
   <g id="Path3DCollection_2">
    <path clip-path="url(#p81e26649c0)" d="M 224.398551 57.722933 
C 224.551666 57.722933 224.69853 57.6621 224.806799 57.553831 
C 224.915068 57.445563 224.975901 57.298698 224.975901 57.145583 
C 224.975901 56.992468 224.915068 56.845603 224.806799 56.737335 
C 224.69853 56.629066 224.551666 56.568233 224.398551 56.568233 
C 224.245436 56.568233 224.098571 56.629066 223.990302 56.737335 
C 223.882034 56.845603 223.8212 56.992468 223.8212 57.145583 
C 223.8212 57.298698 223.882034 57.445563 223.990302 57.553831 
C 224.098571 57.6621 224.245436 57.722933 224.398551 57.722933 
z
" style="fill:#ff0000;stroke:#ff0000;"/>
    <path clip-path="url(#p81e26649c0)" d="M 231.385035 69.96573 
C 231.691265 69.96573 231.984994 69.844063 232.201531 69.627526 
C 232.418069 69.410988 232.539735 69.117259 232.539735 68.811029 
C 232.539735 68.504799 232.418069 68.21107 232.201531 67.994532 
C 231.984994 67.777995 231.691265 67.656328 231.385035 67.656328 
C 231.078805 67.656328 230.785076 67.777995 230.568538 67.994532 
C 230.352001 68.21107 230.230334 68.504799 230.230334 68.811029 
C 230.230334 69.117259 230.352001 69.410988 230.568538 69.627526 
C 230.785076 69.844063 231.078805 69.96573 231.385035 69.96573 
z
" style="fill:#ff0000;stroke:#ff0000;"/>
    <path clip-path="url(#p81e26649c0)" d="M 238.409492 81.954092 
C 238.784545 81.954092 239.144288 81.805082 239.409492 81.539879 
C 239.674695 81.274676 239.823705 80.914933 239.823705 80.539879 
C 239.823705 80.164825 239.674695 79.805082 239.409492 79.539879 
C 239.144288 79.274676 238.784545 79.125665 238.409492 79.125665 
C 238.034438 79.125665 237.674695 79.274676 237.409492 79.539879 
C 237.144288 79.805082 236.995278 80.164825 236.995278 80.539879 
C 236.995278 80.914933 237.144288 81.274676 237.409492 81.539879 
C 237.674695 81.805082 238.034438 81.954092 238.409492 81.954092 
z
" style="fill:#ff0000;stroke:#ff0000;"/>
    <path clip-path="url(#p81e26649c0)" d="M 245.472232 94.158393 
C 245.956424 94.158393 246.42085 93.966021 246.763226 93.623645 
C 247.105602 93.28127 247.297973 92.816843 247.297973 92.332651 
C 247.297973 91.848459 247.105602 91.384032 246.763226 91.041656 
C 246.42085 90.699281 245.956424 90.506909 245.472232 90.506909 
C 244.988039 90.506909 244.523613 90.699281 244.181237 91.041656 
C 243.838861 91.384032 243.64649 91.848459 243.64649 92.332651 
C 243.64649 92.816843 243.838861 93.28127 244.181237 93.623645 
C 244.523613 93.966021 244.988039 94.158393 245.472232 94.158393 
z
" style="fill:#ff0000;stroke:#ff0000;"/>
    <path clip-path="url(#p81e26649c0)" d="M 252.573569 106.570345 
C 253.204878 106.570345 253.810416 106.319523 254.25682 105.87312 
C 254.703223 105.426717 254.954045 104.821179 254.954045 104.189869 
C 254.954045 103.558559 254.703223 102.953022 254.25682 102.506618 
C 253.810416 102.060215 253.204878 101.809393 252.573569 101.809393 
C 251.942259 101.809393 251.336721 102.060215 250.890318 102.506618 
C 250.443915 102.953022 250.193093 103.558559 250.193093 104.189869 
C 250.193093 104.821179 250.443915 105.426717 250.890318 105.87312 
C 251.336721 106.319523 251.942259 106.570345 252.573569 106.570345 
z
" style="fill:#ff0000;stroke:#ff0000;"/>
    <path clip-path="url(#p81e26649c0)" d="M 259.71382 118.757814 
C 260.415482 118.757814 261.088499 118.479041 261.584649 117.982892 
C 262.080798 117.486742 262.359572 116.813725 262.359572 116.112063 
C 262.359572 115.410402 262.080798 114.737384 261.584649 114.241234 
C 261.088499 113.745085 260.415482 113.466312 259.71382 113.466312 
C 259.012159 113.466312 258.339141 113.745085 257.842991 114.241234 
C 257.346842 114.737384 257.068069 115.410402 257.068069 116.112063 
C 257.068069 116.813725 257.346842 117.486742 257.842991 117.982892 
C 258.339141 118.479041 259.012159 118.757814 259.71382 118.757814 
z
" style="fill:#ff0000;stroke:#ff0000;"/>
    <path clip-path="url(#p81e26649c0)" d="M 266.893307 131.071861 
C 267.681515 131.071861 268.437546 130.758703 268.994893 130.201355 
C 269.552241 129.644008 269.865399 128.887977 269.865399 128.099769 
C 269.865399 127.311561 269.552241 126.555529 268.994893 125.998182 
C 268.437546 125.440835 267.681515 125.127676 266.893307 125.127676 
C 266.105099 125.127676 265.349067 125.440835 264.79172 125.998182 
C 264.234373 126.555529 263.921214 127.311561 263.921214 128.099769 
C 263.921214 128.887977 264.234373 129.644008 264.79172 130.201355 
C 265.349067 130.758703 266.105099 131.071861 266.893307 131.071861 
z
" style="fill:#ff0000;stroke:#ff0000;"/>
    <path clip-path="url(#p81e26649c0)" d="M 274.112353 143.342048 
C 274.957958 143.342048 275.769044 143.006086 276.366978 142.408152 
C 276.964911 141.810219 277.300874 140.999133 277.300874 140.153527 
C 277.300874 139.307922 276.964911 138.496836 276.366978 137.898902 
C 275.769044 137.300969 274.957958 136.965006 274.112353 136.965006 
C 273.266747 136.965006 272.455661 137.300969 271.857728 137.898902 
C 271.259794 138.496836 270.923832 139.307922 270.923832 140.153527 
C 270.923832 140.999133 271.259794 141.810219 271.857728 142.408152 
C 272.455661 143.006086 273.266747 143.342048 274.112353 143.342048 
z
" style="fill:#ff0000;stroke:#ff0000;"/>
    <path clip-path="url(#p81e26649c0)" d="M 281.371286 155.761961 
C 282.296334 155.761961 283.183619 155.394435 283.837727 154.740327 
C 284.491835 154.08622 284.859361 153.198934 284.859361 152.273886 
C 284.859361 151.348838 284.491835 150.461552 283.837727 149.807445 
C 283.183619 149.153337 282.296334 148.785811 281.371286 148.785811 
C 280.446238 148.785811 279.558952 149.153337 278.904844 149.807445 
C 278.250736 150.461552 277.883211 151.348838 277.883211 152.273886 
C 277.883211 153.198934 278.250736 154.08622 278.904844 154.740327 
C 279.558952 155.394435 280.446238 155.761961 281.371286 155.761961 
z
" style="fill:#ff0000;stroke:#ff0000;"/>
    <path clip-path="url(#p81e26649c0)" d="M 288.670438 167.973283 
C 289.6018 167.973283 290.495142 167.603249 291.153715 166.944676 
C 291.812288 166.286103 292.182322 165.392761 292.182322 164.461399 
C 292.182322 163.530036 291.812288 162.636694 291.153715 161.978121 
C 290.495142 161.319548 289.6018 160.949514 288.670438 160.949514 
C 287.739075 160.949514 286.845733 161.319548 286.18716 161.978121 
C 285.528587 162.636694 285.158553 163.530036 285.158553 164.461399 
C 285.158553 165.392761 285.528587 166.286103 286.18716 166.944676 
C 286.845733 167.603249 287.739075 167.973283 288.670438 167.973283 
z
" style="fill:#ff0000;stroke:#ff0000;"/>
    <path clip-path="url(#p81e26649c0)" d="M 296.010143 179.199902 
C 296.668716 179.199902 297.300404 178.938249 297.766086 178.472567 
C 298.231767 178.006886 298.493421 177.375198 298.493421 176.716625 
C 298.493421 176.058052 298.231767 175.426364 297.766086 174.960683 
C 297.300404 174.495001 296.668716 174.233347 296.010143 174.233347 
C 295.351571 174.233347 294.719883 174.495001 294.254201 174.960683 
C 293.78852 175.426364 293.526866 176.058052 293.526866 176.716625 
C 293.526866 177.375198 293.78852 178.006886 294.254201 178.472567 
C 294.719883 178.938249 295.351571 179.199902 296.010143 179.199902 
z
" style="fill:#ff0000;stroke:#ff0000;"/>
    <path clip-path="url(#p81e26649c0)" d="M 303.390742 191.622119 
C 304.075494 191.622119 304.732292 191.350065 305.216484 190.865872 
C 305.700676 190.38168 305.972731 189.724882 305.972731 189.04013 
C 305.972731 188.355379 305.700676 187.698581 305.216484 187.214389 
C 304.732292 186.730196 304.075494 186.458142 303.390742 186.458142 
C 302.705991 186.458142 302.049193 186.730196 301.565 187.214389 
C 301.080808 187.698581 300.808753 188.355379 300.808753 189.04013 
C 300.808753 189.724882 301.080808 190.38168 301.565 190.865872 
C 302.049193 191.350065 302.705991 191.622119 303.390742 191.622119 
z
" style="fill:#ff0000;stroke:#ff0000;"/>
    <path clip-path="url(#p81e26649c0)" d="M 310.812576 203.592735 
C 311.38548 203.592735 311.934997 203.365117 312.340101 202.960013 
C 312.745206 202.554909 312.972823 202.005392 312.972823 201.432488 
C 312.972823 200.859584 312.745206 200.310067 312.340101 199.904963 
C 311.934997 199.499858 311.38548 199.272241 310.812576 199.272241 
C 310.239672 199.272241 309.690155 199.499858 309.285051 199.904963 
C 308.879947 200.310067 308.652329 200.859584 308.652329 201.432488 
C 308.652329 202.005392 308.879947 202.554909 309.285051 202.960013 
C 309.690155 203.365117 310.239672 203.592735 310.812576 203.592735 
z
" style="fill:#ff0000;stroke:#ff0000;"/>
    <path clip-path="url(#p81e26649c0)" d="M 318.275992 215.577526 
C 318.722396 215.577526 319.150576 215.400168 319.46623 215.084513 
C 319.781885 214.768858 319.959243 214.340679 319.959243 213.894275 
C 319.959243 213.447872 319.781885 213.019692 319.46623 212.704037 
C 319.150576 212.388382 318.722396 212.211024 318.275992 212.211024 
C 317.829589 212.211024 317.401409 212.388382 317.085754 212.704037 
C 316.770099 213.019692 316.592742 213.447872 316.592742 213.894275 
C 316.592742 214.340679 316.770099 214.768858 317.085754 215.084513 
C 317.401409 215.400168 317.829589 215.577526 318.275992 215.577526 
z
" style="fill:#ff0000;stroke:#ff0000;"/>
    <path clip-path="url(#p81e26649c0)" d="M 207.466343 57.137812 
C 207.65387 57.137812 207.833741 57.063306 207.966343 56.930705 
C 208.098944 56.798103 208.17345 56.618232 208.17345 56.430705 
C 208.17345 56.243178 208.098944 56.063306 207.966343 55.930705 
C 207.833741 55.798103 207.65387 55.723598 207.466343 55.723598 
C 207.278816 55.723598 207.098944 55.798103 206.966343 55.930705 
C 206.833741 56.063306 206.759236 56.243178 206.759236 56.430705 
C 206.759236 56.618232 206.833741 56.798103 206.966343 56.930705 
C 207.098944 57.063306 207.278816 57.137812 207.466343 57.137812 
z
" style="fill:#ff0000;stroke:#ff0000;"/>
    <path clip-path="url(#p81e26649c0)" d="M 197.459219 68.758479 
C 197.834273 68.758479 198.194016 68.609469 198.459219 68.344266 
C 198.724422 68.079063 198.873432 67.71932 198.873432 67.344266 
C 198.873432 66.969212 198.724422 66.609469 198.459219 66.344266 
C 198.194016 66.079063 197.834273 65.930052 197.459219 65.930052 
C 197.084165 65.930052 196.724422 66.079063 196.459219 66.344266 
C 196.194016 66.609469 196.045005 66.969212 196.045005 67.344266 
C 196.045005 67.71932 196.194016 68.079063 196.459219 68.344266 
C 196.724422 68.609469 197.084165 68.758479 197.459219 68.758479 
z
" style="fill:#ff0000;stroke:#ff0000;"/>
    <path clip-path="url(#p81e26649c0)" d="M 187.428275 79.698017 
C 187.803329 79.698017 188.163072 79.549007 188.428275 79.283804 
C 188.693479 79.018601 188.842489 78.658858 188.842489 78.283804 
C 188.842489 77.90875 188.693479 77.549007 188.428275 77.283804 
C 188.163072 77.018601 187.803329 76.86959 187.428275 76.86959 
C 187.053222 76.86959 186.693479 77.018601 186.428275 77.283804 
C 186.163072 77.549007 186.014062 77.90875 186.014062 78.283804 
C 186.014062 78.658858 186.163072 79.018601 186.428275 79.283804 
C 186.693479 79.549007 187.053222 79.698017 187.428275 79.698017 
z
" style="fill:#ff0000;stroke:#ff0000;"/>
    <path clip-path="url(#p81e26649c0)" d="M 177.373428 90.776936 
C 177.778532 90.776936 178.167099 90.615987 178.453551 90.329535 
C 178.740003 90.043083 178.900953 89.654516 178.900953 89.249411 
C 178.900953 88.844307 178.740003 88.45574 178.453551 88.169288 
C 178.167099 87.882836 177.778532 87.721886 177.373428 87.721886 
C 176.968323 87.721886 176.579756 87.882836 176.293304 88.169288 
C 176.006852 88.45574 175.845902 88.844307 175.845902 89.249411 
C 175.845902 89.654516 176.006852 90.043083 176.293304 90.329535 
C 176.579756 90.615987 176.968323 90.776936 177.373428 90.776936 
z
" style="fill:#ff0000;stroke:#ff0000;"/>
    <path clip-path="url(#p81e26649c0)" d="M 167.29459 102.199072 
C 167.813829 102.199072 168.31187 101.992776 168.679027 101.625619 
C 169.046184 101.258462 169.25248 100.76042 169.25248 100.241182 
C 169.25248 99.721943 169.046184 99.223901 168.679027 98.856744 
C 168.31187 98.489587 167.813829 98.283292 167.29459 98.283292 
C 166.775351 98.283292 166.27731 98.489587 165.910153 98.856744 
C 165.542996 99.223901 165.3367 99.721943 165.3367 100.241182 
C 165.3367 100.76042 165.542996 101.258462 165.910153 101.625619 
C 166.27731 101.992776 166.775351 102.199072 167.29459 102.199072 
z
" style="fill:#ff0000;stroke:#ff0000;"/>
    <path clip-path="url(#p81e26649c0)" d="M 157.191676 113.30045 
C 157.73302 113.30045 158.252264 113.085372 158.635052 112.702584 
C 159.01784 112.319796 159.232918 111.800552 159.232918 111.259209 
C 159.232918 110.717865 159.01784 110.198621 158.635052 109.815833 
C 158.252264 109.433045 157.73302 109.217967 157.191676 109.217967 
C 156.650333 109.217967 156.131088 109.433045 155.748301 109.815833 
C 155.365513 110.198621 155.150435 110.717865 155.150435 111.259209 
C 155.150435 111.800552 155.365513 112.319796 155.748301 112.702584 
C 156.131088 113.085372 156.650333 113.30045 157.191676 113.30045 
z
" style="fill:#ff0000;stroke:#ff0000;"/>
    <path clip-path="url(#p81e26649c0)" d="M 147.064601 124.684063 
C 147.69591 124.684063 148.301448 124.433241 148.747851 123.986837 
C 149.194255 123.540434 149.445077 122.934896 149.445077 122.303586 
C 149.445077 121.672277 149.194255 121.066739 148.747851 120.620336 
C 148.301448 120.173932 147.69591 119.92311 147.064601 119.92311 
C 146.433291 119.92311 145.827753 120.173932 145.38135 120.620336 
C 144.934946 121.066739 144.684125 121.672277 144.684125 122.303586 
C 144.684125 122.934896 144.934946 123.540434 145.38135 123.986837 
C 145.827753 124.433241 146.433291 124.684063 147.064601 124.684063 
z
" style="fill:#ff0000;stroke:#ff0000;"/>
    <path clip-path="url(#p81e26649c0)" d="M 136.913276 136.082423 
C 137.631449 136.082423 138.320305 135.797089 138.82813 135.289264 
C 139.335955 134.781439 139.621289 134.092583 139.621289 133.37441 
C 139.621289 132.656236 139.335955 131.967381 138.82813 131.459556 
C 138.320305 130.95173 137.631449 130.666397 136.913276 130.666397 
C 136.195102 130.666397 135.506247 130.95173 134.998422 131.459556 
C 134.490596 131.967381 134.205263 132.656236 134.205263 133.37441 
C 134.205263 134.092583 134.490596 134.781439 134.998422 135.289264 
C 135.506247 135.797089 136.195102 136.082423 136.913276 136.082423 
z
" style="fill:#ff0000;stroke:#ff0000;"/>
    <path clip-path="url(#p81e26649c0)" d="M 126.737615 147.053763 
C 127.422366 147.053763 128.079164 146.781708 128.563357 146.297516 
C 129.047549 145.813323 129.319604 145.156525 129.319604 144.471774 
C 129.319604 143.787022 129.047549 143.130224 128.563357 142.646032 
C 128.079164 142.161839 127.422366 141.889785 126.737615 141.889785 
C 126.052863 141.889785 125.396065 142.161839 124.911873 142.646032 
C 124.42768 143.130224 124.155626 143.787022 124.155626 144.471774 
C 124.155626 145.156525 124.42768 145.813323 124.911873 146.297516 
C 125.396065 146.781708 126.052863 147.053763 126.737615 147.053763 
z
" style="fill:#ff0000;stroke:#ff0000;"/>
    <path clip-path="url(#p81e26649c0)" d="M 116.53753 157.831842 
C 117.130542 157.831842 117.699346 157.596236 118.118669 157.176913 
C 118.537992 156.75759 118.773598 156.188786 118.773598 155.595774 
C 118.773598 155.002762 118.537992 154.433958 118.118669 154.014635 
C 117.699346 153.595312 117.130542 153.359706 116.53753 153.359706 
C 115.944518 153.359706 115.375714 153.595312 114.956391 154.014635 
C 114.537068 154.433958 114.301462 155.002762 114.301462 155.595774 
C 114.301462 156.188786 114.537068 156.75759 114.956391 157.176913 
C 115.375714 157.596236 115.944518 157.831842 116.53753 157.831842 
z
" style="fill:#ff0000;stroke:#ff0000;"/>
    <path clip-path="url(#p81e26649c0)" d="M 106.312933 168.828172 
C 106.864997 168.828172 107.394525 168.608835 107.784893 168.218466 
C 108.175261 167.828098 108.394599 167.29857 108.394599 166.746506 
C 108.394599 166.194442 108.175261 165.664914 107.784893 165.274546 
C 107.394525 164.884177 106.864997 164.66484 106.312933 164.66484 
C 105.760869 164.66484 105.231341 164.884177 104.840973 165.274546 
C 104.450604 165.664914 104.231267 166.194442 104.231267 166.746506 
C 104.231267 167.29857 104.450604 167.828098 104.840973 168.218466 
C 105.231341 168.608835 105.760869 168.828172 106.312933 168.828172 
z
" style="fill:#ff0000;stroke:#ff0000;"/>
    <path clip-path="url(#p81e26649c0)" d="M 96.063736 179.794896 
C 96.559885 179.794896 97.035781 179.597773 97.386611 179.246943 
C 97.737442 178.896112 97.934564 178.420217 97.934564 177.924067 
C 97.934564 177.427917 97.737442 176.952022 97.386611 176.601191 
C 97.035781 176.250361 96.559885 176.053238 96.063736 176.053238 
C 95.567586 176.053238 95.091691 176.250361 94.74086 176.601191 
C 94.390029 176.952022 94.192907 177.427917 94.192907 177.924067 
C 94.192907 178.420217 94.390029 178.896112 94.74086 179.246943 
C 95.091691 179.597773 95.567586 179.794896 96.063736 179.794896 
z
" style="fill:#ff0000;stroke:#ff0000;"/>
    <path clip-path="url(#p81e26649c0)" d="M 85.789849 190.542767 
C 86.164903 190.542767 86.524646 190.393757 86.789849 190.128553 
C 87.055052 189.86335 87.204063 189.503607 87.204063 189.128553 
C 87.204063 188.7535 87.055052 188.393757 86.789849 188.128553 
C 86.524646 187.86335 86.164903 187.71434 85.789849 187.71434 
C 85.414795 187.71434 85.055052 187.86335 84.789849 188.128553 
C 84.524646 188.393757 84.375636 188.7535 84.375636 189.128553 
C 84.375636 189.503607 84.524646 189.86335 84.789849 190.128553 
C 85.055052 190.393757 85.414795 190.542767 85.789849 190.542767 
z
" style="fill:#ff0000;stroke:#ff0000;"/>
    <path clip-path="url(#p81e26649c0)" d="M 75.491184 201.272934 
C 75.73328 201.272934 75.965494 201.176748 76.136681 201.00556 
C 76.307869 200.834372 76.404055 200.602159 76.404055 200.360063 
C 76.404055 200.117967 76.307869 199.885754 76.136681 199.714566 
C 75.965494 199.543378 75.73328 199.447192 75.491184 199.447192 
C 75.249088 199.447192 75.016875 199.543378 74.845687 199.714566 
C 74.674499 199.885754 74.578313 200.117967 74.578313 200.360063 
C 74.578313 200.602159 74.674499 200.834372 74.845687 201.00556 
C 75.016875 201.176748 75.249088 201.272934 75.491184 201.272934 
z
" style="fill:#ff0000;stroke:#ff0000;"/>
    <path clip-path="url(#p81e26649c0)" d="M 308.024995 226.641954 
C 308.349801 226.641954 308.661348 226.512907 308.89102 226.283235 
C 309.120693 226.053562 309.24974 225.742015 309.24974 225.417209 
C 309.24974 225.092403 309.120693 224.780856 308.89102 224.551184 
C 308.661348 224.321511 308.349801 224.192464 308.024995 224.192464 
C 307.700189 224.192464 307.388642 224.321511 307.158969 224.551184 
C 306.929297 224.780856 306.80025 225.092403 306.80025 225.417209 
C 306.80025 225.742015 306.929297 226.053562 307.158969 226.283235 
C 307.388642 226.512907 307.700189 226.641954 308.024995 226.641954 
z
" style="fill:#ff0000;stroke:#ff0000;"/>
    <path clip-path="url(#p81e26649c0)" d="M 290.324347 227.119518 
C 291.042521 227.119518 291.731376 226.834184 292.239201 226.326359 
C 292.747027 225.818534 293.03236 225.129678 293.03236 224.411505 
C 293.03236 223.693332 292.747027 223.004476 292.239201 222.496651 
C 291.731376 221.988825 291.042521 221.703492 290.324347 221.703492 
C 289.606174 221.703492 288.917318 221.988825 288.409493 222.496651 
C 287.901668 223.004476 287.616334 223.693332 287.616334 224.411505 
C 287.616334 225.129678 287.901668 225.818534 288.409493 226.326359 
C 288.917318 226.834184 289.606174 227.119518 290.324347 227.119518 
z
" style="fill:#ff0000;stroke:#ff0000;"/>
    <path clip-path="url(#p81e26649c0)" d="M 272.679137 227.060434 
C 273.647521 227.060434 274.576374 226.675691 275.261125 225.990939 
C 275.945877 225.306188 276.33062 224.377335 276.33062 223.40895 
C 276.33062 222.440566 275.945877 221.511713 275.261125 220.826962 
C 274.576374 220.14221 273.647521 219.757467 272.679137 219.757467 
C 271.710752 219.757467 270.781899 220.14221 270.097148 220.826962 
C 269.412396 221.511713 269.027653 222.440566 269.027653 223.40895 
C 269.027653 224.377335 269.412396 225.306188 270.097148 225.990939 
C 270.781899 226.675691 271.710752 227.060434 272.679137 227.060434 
z
" style="fill:#ff0000;stroke:#ff0000;"/>
    <path clip-path="url(#p81e26649c0)" d="M 255.089103 227.475759 
C 256.432682 227.475759 257.721413 226.941949 258.671467 225.991895 
C 259.621521 225.041841 260.155331 223.75311 260.155331 222.409531 
C 260.155331 221.065952 259.621521 219.777221 258.671467 218.827167 
C 257.721413 217.877113 256.432682 217.343303 255.089103 217.343303 
C 253.745524 217.343303 252.456793 217.877113 251.506739 218.827167 
C 250.556685 219.777221 250.022875 221.065952 250.022875 222.409531 
C 250.022875 223.75311 250.556685 225.041841 251.506739 225.991895 
C 252.456793 226.941949 253.745524 227.475759 255.089103 227.475759 
z
" style="fill:#ff0000;stroke:#ff0000;"/>
    <path clip-path="url(#p81e26649c0)" d="M 237.553988 228.146235 
C 239.339602 228.146235 241.052321 227.436803 242.31494 226.174184 
C 243.57756 224.911565 244.286992 223.198845 244.286992 221.413232 
C 244.286992 219.627618 243.57756 217.914899 242.31494 216.65228 
C 241.052321 215.38966 239.339602 214.680229 237.553988 214.680229 
C 235.768375 214.680229 234.055655 215.38966 232.793036 216.65228 
C 231.530417 217.914899 230.820985 219.627618 230.820985 221.413232 
C 230.820985 223.198845 231.530417 224.911565 232.793036 226.174184 
C 234.055655 227.436803 235.768375 228.146235 237.553988 228.146235 
z
" style="fill:#ff0000;stroke:#ff0000;"/>
    <path clip-path="url(#p81e26649c0)" d="M 220.073535 229.720576 
C 222.540067 229.720576 224.905907 228.740613 226.650008 226.996512 
C 228.394109 225.252411 229.374073 222.88657 229.374073 220.420038 
C 229.374073 217.953507 228.394109 215.587666 226.650008 213.843565 
C 224.905907 212.099464 222.540067 211.119501 220.073535 211.119501 
C 217.607004 211.119501 215.241163 212.099464 213.497062 213.843565 
C 211.752961 215.587666 210.772998 217.953507 210.772998 220.420038 
C 210.772998 222.88657 211.752961 225.252411 213.497062 226.996512 
C 215.241163 228.740613 217.607004 229.720576 220.073535 229.720576 
z
" style="fill:#ff0000;stroke:#ff0000;"/>
    <path clip-path="url(#p81e26649c0)" d="M 202.647489 228.585991 
C 205.075703 228.585991 207.40479 227.621251 209.121797 225.904244 
C 210.838804 224.187238 211.803543 221.85815 211.803543 219.429936 
C 211.803543 217.001722 210.838804 214.672635 209.121797 212.955628 
C 207.40479 211.238621 205.075703 210.273882 202.647489 210.273882 
C 200.219275 210.273882 197.890187 211.238621 196.173181 212.955628 
C 194.456174 214.672635 193.491434 217.001722 193.491434 219.429936 
C 193.491434 221.85815 194.456174 224.187238 196.173181 225.904244 
C 197.890187 227.621251 200.219275 228.585991 202.647489 228.585991 
z
" style="fill:#ff0000;stroke:#ff0000;"/>
    <path clip-path="url(#p81e26649c0)" d="M 185.275595 225.24977 
C 187.080796 225.24977 188.812302 224.532557 190.088772 223.256087 
C 191.365241 221.979618 192.082455 220.248111 192.082455 218.442911 
C 192.082455 216.637711 191.365241 214.906204 190.088772 213.629735 
C 188.812302 212.353265 187.080796 211.636052 185.275595 211.636052 
C 183.470395 211.636052 181.738888 212.353265 180.462419 213.629735 
C 179.18595 214.906204 178.468736 216.637711 178.468736 218.442911 
C 178.468736 220.248111 179.18595 221.979618 180.462419 223.256087 
C 181.738888 224.532557 183.470395 225.24977 185.275595 225.24977 
z
" style="fill:#ff0000;stroke:#ff0000;"/>
    <path clip-path="url(#p81e26649c0)" d="M 167.957603 222.289407 
C 169.238656 222.289407 170.467412 221.780439 171.373253 220.874598 
C 172.279094 219.968757 172.788062 218.740001 172.788062 217.458948 
C 172.788062 216.177895 172.279094 214.949139 171.373253 214.043298 
C 170.467412 213.137457 169.238656 212.628489 167.957603 212.628489 
C 166.67655 212.628489 165.447794 213.137457 164.541953 214.043298 
C 163.636112 214.949139 163.127144 216.177895 163.127144 217.458948 
C 163.127144 218.740001 163.636112 219.968757 164.541953 220.874598 
C 165.447794 221.780439 166.67655 222.289407 167.957603 222.289407 
z
" style="fill:#ff0000;stroke:#ff0000;"/>
    <path clip-path="url(#p81e26649c0)" d="M 150.693261 220.457146 
C 151.748534 220.457146 152.760728 220.037881 153.506918 219.291691 
C 154.253109 218.5455 154.672373 217.533306 154.672373 216.478034 
C 154.672373 215.422761 154.253109 214.410567 153.506918 213.664376 
C 152.760728 212.918186 151.748534 212.498921 150.693261 212.498921 
C 149.637988 212.498921 148.625795 212.918186 147.879604 213.664376 
C 147.133413 214.410567 146.714149 215.422761 146.714149 216.478034 
C 146.714149 217.533306 147.133413 218.5455 147.879604 219.291691 
C 148.625795 220.037881 149.637988 220.457146 150.693261 220.457146 
z
" style="fill:#ff0000;stroke:#ff0000;"/>
    <path clip-path="url(#p81e26649c0)" d="M 133.482321 218.58236 
C 134.299732 218.58236 135.083774 218.257599 135.66177 217.679603 
C 136.239767 217.101606 136.564528 216.317564 136.564528 215.500153 
C 136.564528 214.682742 136.239767 213.898701 135.66177 213.320704 
C 135.083774 212.742707 134.299732 212.417946 133.482321 212.417946 
C 132.66491 212.417946 131.880868 212.742707 131.302871 213.320704 
C 130.724875 213.898701 130.400114 214.682742 130.400114 215.500153 
C 130.400114 216.317564 130.724875 217.101606 131.302871 217.679603 
C 131.880868 218.257599 132.66491 218.58236 133.482321 218.58236 
z
" style="fill:#ff0000;stroke:#ff0000;"/>
    <path clip-path="url(#p81e26649c0)" d="M 116.324535 216.798323 
C 116.92735 216.798323 117.505556 216.558822 117.93181 216.132568 
C 118.358064 215.706314 118.597565 215.128108 118.597565 214.525293 
C 118.597565 213.922478 118.358064 213.344272 117.93181 212.918018 
C 117.505556 212.491763 116.92735 212.252263 116.324535 212.252263 
C 115.72172 212.252263 115.143514 212.491763 114.71726 212.918018 
C 114.291005 213.344272 114.051505 213.922478 114.051505 214.525293 
C 114.051505 215.128108 114.291005 215.706314 114.71726 216.132568 
C 115.143514 216.558822 115.72172 216.798323 116.324535 216.798323 
z
" style="fill:#ff0000;stroke:#ff0000;"/>
    <path clip-path="url(#p81e26649c0)" d="M 99.219657 214.967652 
C 99.594711 214.967652 99.954454 214.818642 100.219657 214.553439 
C 100.48486 214.288236 100.633871 213.928493 100.633871 213.553439 
C 100.633871 213.178385 100.48486 212.818642 100.219657 212.553439 
C 99.954454 212.288236 99.594711 212.139225 99.219657 212.139225 
C 98.844603 212.139225 98.48486 212.288236 98.219657 212.553439 
C 97.954454 212.818642 97.805444 213.178385 97.805444 213.553439 
C 97.805444 213.928493 97.954454 214.288236 98.219657 214.553439 
C 98.48486 214.818642 98.844603 214.967652 99.219657 214.967652 
z
" style="fill:#ff0000;stroke:#ff0000;"/>
    <path clip-path="url(#p81e26649c0)" d="M 82.167443 213.401073 
C 82.383981 213.401073 82.591679 213.315042 82.744794 213.161927 
C 82.897909 213.008812 82.98394 212.801114 82.98394 212.584577 
C 82.98394 212.368039 82.897909 212.160342 82.744794 212.007227 
C 82.591679 211.854111 82.383981 211.76808 82.167443 211.76808 
C 81.950906 211.76808 81.743208 211.854111 81.590093 212.007227 
C 81.436978 212.160342 81.350947 212.368039 81.350947 212.584577 
C 81.350947 212.801114 81.436978 213.008812 81.590093 213.161927 
C 81.743208 213.315042 81.950906 213.401073 82.167443 213.401073 
z
" style="fill:#ff0000;stroke:#ff0000;"/>
   </g>
   <g id="legend_1">
    <g id="patch_6">
     <path d="M 21.2 291.2 
L 294.2 291.2 
Q 297.2 291.2 297.2 288.2 
L 297.2 249.95 
Q 297.2 246.95 294.2 246.95 
L 21.2 246.95 
Q 18.2 246.95 18.2 249.95 
L 18.2 288.2 
Q 18.2 291.2 21.2 291.2 
z
" style="fill:#ffffff;opacity:0.8;stroke:#cccccc;stroke-linejoin:miter;"/>
    </g>
    <g id="Path3DCollection_3">
     <defs>
      <path d="M 0 6.589132 
C 1.747458 6.589132 3.423581 5.89486 4.65922 4.65922 
C 5.89486 3.423581 6.589132 1.747458 6.589132 0 
C 6.589132 -1.747458 5.89486 -3.423581 4.65922 -4.65922 
C 3.423581 -5.89486 1.747458 -6.589132 0 -6.589132 
C -1.747458 -6.589132 -3.423581 -5.89486 -4.65922 -4.65922 
C -5.89486 -3.423581 -6.589132 -1.747458 -6.589132 0 
C -6.589132 1.747458 -5.89486 3.423581 -4.65922 4.65922 
C -3.423581 5.89486 -1.747458 6.589132 0 6.589132 
z
" id="mba4f75f850" style="stroke:#ff0000;"/>
     </defs>
     <g>
      <use style="fill:#ff0000;stroke:#ff0000;" x="39.2" xlink:href="#mba4f75f850" y="259.5125"/>
     </g>
    </g>
    <g id="text_28">
     <!-- probability of absorbing state -->
     <defs>
      <path d="M 44.140625 23.828125 
Q 44.140625 12.5 38.671875 6.640625 
Q 33.203125 0.78125 25.390625 0.78125 
Q 21.09375 0.78125 17.96875 2.53125 
Q 14.84375 4.296875 12.5 7.8125 
L 12.5 -12.5 
L 4.6875 -12.5 
L 4.6875 45.703125 
L 12.5 45.703125 
L 12.5 39.84375 
Q 14.84375 43.359375 17.96875 44.921875 
Q 21.09375 46.484375 25.390625 46.484375 
Q 33.203125 46.484375 38.671875 40.8125 
Q 44.140625 35.15625 44.140625 23.828125 
z
M 35.546875 23.828125 
Q 35.546875 31.25 32.609375 35.34375 
Q 29.6875 39.453125 23.828125 39.453125 
Q 19.140625 39.453125 15.8125 35.34375 
Q 12.5 31.25 12.5 23.828125 
Q 12.5 16.40625 15.8125 12.109375 
Q 19.140625 7.8125 23.828125 7.8125 
Q 29.6875 7.8125 32.609375 12.109375 
Q 35.546875 16.40625 35.546875 23.828125 
z
" id="SimHei-70"/>
      <path d="M 39.0625 37.890625 
Q 31.640625 39.0625 26.5625 35.734375 
Q 21.484375 32.421875 17.96875 24.21875 
L 17.96875 1.953125 
L 10.15625 1.953125 
L 10.15625 45.703125 
L 17.96875 45.703125 
L 17.96875 34.375 
Q 21.484375 40.625 26.75 43.546875 
Q 32.03125 46.484375 39.0625 46.484375 
z
" id="SimHei-72"/>
      <path d="M 44.140625 23.828125 
Q 44.140625 12.5 38.671875 6.828125 
Q 33.203125 1.171875 25.390625 1.171875 
Q 21.09375 1.171875 17.96875 2.734375 
Q 14.84375 4.296875 12.5 7.8125 
L 12.5 1.953125 
L 4.6875 1.953125 
L 4.6875 68.75 
L 12.5 68.75 
L 12.5 39.84375 
Q 14.84375 43.359375 17.96875 45.109375 
Q 21.09375 46.875 25.390625 46.875 
Q 33.203125 46.875 38.671875 41.015625 
Q 44.140625 35.15625 44.140625 23.828125 
z
M 35.546875 23.828125 
Q 35.546875 31.25 32.609375 35.546875 
Q 29.6875 39.84375 23.828125 39.84375 
Q 19.140625 39.84375 15.8125 35.546875 
Q 12.5 31.25 12.5 23.828125 
Q 12.5 16.40625 15.8125 12.296875 
Q 19.140625 8.203125 23.828125 8.203125 
Q 29.6875 8.203125 32.609375 12.296875 
Q 35.546875 16.40625 35.546875 23.828125 
z
" id="SimHei-62"/>
      <path d="M 44.921875 1.953125 
L 35.546875 1.953125 
Q 34.765625 2.734375 34.375 4.09375 
Q 33.984375 5.46875 33.984375 7.421875 
Q 31.25 4.296875 27.34375 2.734375 
Q 23.4375 1.171875 19.140625 1.171875 
Q 12.890625 1.171875 8.59375 4.296875 
Q 4.296875 7.421875 4.296875 13.28125 
Q 4.296875 19.140625 8.203125 22.65625 
Q 12.109375 26.171875 20.3125 27.34375 
Q 25.78125 28.125 29.875 29.296875 
Q 33.984375 30.46875 33.984375 32.421875 
Q 33.984375 34.765625 32.21875 37.109375 
Q 30.46875 39.453125 24.609375 39.453125 
Q 19.921875 39.453125 17.765625 37.6875 
Q 15.625 35.9375 14.84375 32.8125 
L 6.25 32.8125 
Q 7.03125 39.0625 11.90625 42.765625 
Q 16.796875 46.484375 24.609375 46.484375 
Q 33.203125 46.484375 37.5 42.578125 
Q 41.796875 38.671875 41.796875 31.640625 
L 41.796875 10.15625 
Q 41.796875 7.8125 42.578125 5.859375 
Q 43.359375 3.90625 44.921875 1.953125 
z
M 33.984375 16.40625 
L 33.984375 24.21875 
Q 31.640625 23.4375 29.484375 22.84375 
Q 27.34375 22.265625 22.265625 21.484375 
Q 16.40625 20.703125 14.640625 18.75 
Q 12.890625 16.796875 12.890625 14.0625 
Q 12.890625 11.71875 14.640625 9.953125 
Q 16.40625 8.203125 19.921875 8.203125 
Q 23.4375 8.203125 27.53125 10.15625 
Q 31.640625 12.109375 33.984375 16.40625 
z
" id="SimHei-61"/>
      <path d="M 28.515625 1.953125 
L 20.703125 1.953125 
L 20.703125 68.75 
L 28.515625 68.75 
z
" id="SimHei-6c"/>
      <path d="M 42.96875 3.125 
Q 41.015625 2.34375 38.46875 1.75 
Q 35.9375 1.171875 31.640625 1.171875 
Q 24.609375 1.171875 20.3125 5.078125 
Q 16.015625 8.984375 16.015625 16.015625 
L 16.015625 39.453125 
L 2.734375 39.453125 
L 2.734375 45.703125 
L 16.015625 45.703125 
L 16.015625 60.9375 
L 23.828125 60.9375 
L 23.828125 45.703125 
L 39.84375 45.703125 
L 39.84375 39.453125 
L 23.828125 39.453125 
L 23.828125 15.625 
Q 23.828125 12.5 25.390625 10.34375 
Q 26.953125 8.203125 31.25 8.203125 
Q 35.546875 8.203125 38.28125 8.984375 
Q 41.015625 9.765625 42.96875 10.9375 
z
" id="SimHei-74"/>
      <path d="M 45.3125 45.703125 
L 27.34375 -1.5625 
Q 25.78125 -7.03125 22.65625 -9.765625 
Q 19.53125 -12.5 14.84375 -12.5 
Q 12.890625 -12.5 11.125 -12.296875 
Q 9.375 -12.109375 7.8125 -11.328125 
L 7.8125 -3.515625 
Q 9.375 -4.296875 10.9375 -4.6875 
Q 12.5 -5.078125 13.671875 -5.078125 
Q 16.796875 -5.078125 17.96875 -4.09375 
Q 19.140625 -3.125 20.3125 0.390625 
L 3.125 45.703125 
L 11.71875 45.703125 
L 24.21875 11.328125 
L 24.609375 11.328125 
L 36.71875 45.703125 
z
" id="SimHei-79"/>
      <path d="M 46.484375 39.0625 
Q 43.75 39.84375 41.203125 40.03125 
Q 38.671875 40.234375 35.9375 39.453125 
Q 37.109375 38.28125 37.890625 36.515625 
Q 38.671875 34.765625 38.671875 31.25 
Q 38.671875 24.609375 34.171875 20.3125 
Q 29.6875 16.015625 23.046875 16.015625 
Q 21.484375 16.015625 18.9375 16.59375 
Q 16.40625 17.1875 14.84375 17.96875 
Q 13.671875 17.1875 13.28125 16.40625 
Q 12.890625 15.625 12.890625 14.453125 
Q 12.890625 12.5 15.625 11.515625 
Q 18.359375 10.546875 25.390625 10.546875 
Q 36.71875 10.546875 40.8125 7.421875 
Q 44.921875 4.296875 44.921875 -0.390625 
Q 44.921875 -6.640625 38.859375 -9.5625 
Q 32.8125 -12.5 24.609375 -12.5 
Q 14.0625 -12.5 8.984375 -9.765625 
Q 3.90625 -7.03125 3.90625 -2.34375 
Q 3.90625 0 5.859375 2.34375 
Q 7.8125 4.6875 10.9375 6.25 
Q 8.59375 7.421875 7.21875 9.171875 
Q 5.859375 10.9375 5.859375 13.671875 
Q 5.859375 16.015625 7.609375 17.765625 
Q 9.375 19.53125 11.71875 20.703125 
Q 9.765625 22.65625 8.59375 25.390625 
Q 7.421875 28.125 7.421875 31.25 
Q 7.421875 37.890625 11.90625 42.1875 
Q 16.40625 46.484375 23.046875 46.484375 
Q 26.5625 46.484375 29.09375 45.5 
Q 31.640625 44.53125 33.59375 42.578125 
Q 36.71875 44.921875 39.84375 45.890625 
Q 42.96875 46.875 46.484375 46.484375 
z
M 30.859375 31.25 
Q 30.859375 35.15625 28.90625 37.5 
Q 26.953125 39.84375 23.046875 39.84375 
Q 19.140625 39.84375 17.1875 37.5 
Q 15.234375 35.15625 15.234375 31.25 
Q 15.234375 27.34375 17.1875 25 
Q 19.140625 22.65625 23.046875 22.65625 
Q 26.953125 22.65625 28.90625 25 
Q 30.859375 27.34375 30.859375 31.25 
z
M 37.5 -1.171875 
Q 37.5 0.390625 35.734375 1.953125 
Q 33.984375 3.515625 26.953125 3.515625 
Q 25.390625 3.515625 22.65625 3.703125 
Q 19.921875 3.90625 16.40625 4.296875 
Q 13.28125 3.125 12.109375 1.5625 
Q 10.9375 0 10.9375 -1.5625 
Q 10.9375 -3.90625 14.0625 -5.46875 
Q 17.1875 -7.03125 25 -7.03125 
Q 31.640625 -7.03125 34.5625 -5.265625 
Q 37.5 -3.515625 37.5 -1.171875 
z
" id="SimHei-67"/>
      <path d="M 44.53125 16.796875 
Q 43.75 9.765625 38.28125 5.46875 
Q 32.8125 1.171875 25.390625 1.171875 
Q 16.015625 1.171875 9.953125 7.21875 
Q 3.90625 13.28125 3.90625 23.828125 
Q 3.90625 34.375 9.953125 40.421875 
Q 16.015625 46.484375 25.390625 46.484375 
Q 33.59375 46.484375 38.859375 41.203125 
Q 44.140625 35.9375 44.140625 23.828125 
L 12.5 23.828125 
Q 12.5 15.234375 16.203125 11.71875 
Q 19.921875 8.203125 25.390625 8.203125 
Q 29.6875 8.203125 32.421875 10.34375 
Q 35.15625 12.5 35.9375 16.796875 
z
M 35.15625 30.078125 
Q 34.375 35.546875 31.640625 37.6875 
Q 28.90625 39.84375 24.609375 39.84375 
Q 20.703125 39.84375 17.578125 37.6875 
Q 14.453125 35.546875 12.890625 30.078125 
z
" id="SimHei-65"/>
     </defs>
     <g transform="translate(66.2 263.45)scale(0.15 -0.15)">
      <use xlink:href="#SimHei-70"/>
      <use x="50" xlink:href="#SimHei-72"/>
      <use x="100" xlink:href="#SimHei-6f"/>
      <use x="150" xlink:href="#SimHei-62"/>
      <use x="200" xlink:href="#SimHei-61"/>
      <use x="250" xlink:href="#SimHei-62"/>
      <use x="300" xlink:href="#SimHei-69"/>
      <use x="350" xlink:href="#SimHei-6c"/>
      <use x="400" xlink:href="#SimHei-69"/>
      <use x="450" xlink:href="#SimHei-74"/>
      <use x="500" xlink:href="#SimHei-79"/>
      <use x="550" xlink:href="#SimHei-20"/>
      <use x="600" xlink:href="#SimHei-6f"/>
      <use x="650" xlink:href="#SimHei-66"/>
      <use x="700" xlink:href="#SimHei-20"/>
      <use x="750" xlink:href="#SimHei-61"/>
      <use x="800" xlink:href="#SimHei-62"/>
      <use x="850" xlink:href="#SimHei-73"/>
      <use x="900" xlink:href="#SimHei-6f"/>
      <use x="950" xlink:href="#SimHei-72"/>
      <use x="1000" xlink:href="#SimHei-62"/>
      <use x="1050" xlink:href="#SimHei-69"/>
      <use x="1100" xlink:href="#SimHei-6e"/>
      <use x="1150" xlink:href="#SimHei-67"/>
      <use x="1200" xlink:href="#SimHei-20"/>
      <use x="1250" xlink:href="#SimHei-73"/>
      <use x="1300" xlink:href="#SimHei-74"/>
      <use x="1350" xlink:href="#SimHei-61"/>
      <use x="1400" xlink:href="#SimHei-74"/>
      <use x="1450" xlink:href="#SimHei-65"/>
     </g>
    </g>
    <g id="Path3DCollection_4">
     <g>
      <use style="fill:#008000;stroke:#008000;" x="39.2" xlink:href="#md810144488" y="279.3875"/>
     </g>
    </g>
    <g id="text_29">
     <!-- start state -->
     <g transform="translate(66.2 283.325)scale(0.15 -0.15)">
      <use xlink:href="#SimHei-73"/>
      <use x="50" xlink:href="#SimHei-74"/>
      <use x="100" xlink:href="#SimHei-61"/>
      <use x="150" xlink:href="#SimHei-72"/>
      <use x="200" xlink:href="#SimHei-74"/>
      <use x="250" xlink:href="#SimHei-20"/>
      <use x="300" xlink:href="#SimHei-73"/>
      <use x="350" xlink:href="#SimHei-74"/>
      <use x="400" xlink:href="#SimHei-61"/>
      <use x="450" xlink:href="#SimHei-74"/>
      <use x="500" xlink:href="#SimHei-65"/>
     </g>
    </g>
   </g>
  </g>
 </g>
 <defs>
  <clipPath id="p81e26649c0">
   <rect height="288" width="360" x="10.7" y="10.7"/>
  </clipPath>
 </defs>
</svg>
