<?xml version="1.0" encoding="utf-8" standalone="no"?>
<!DOCTYPE svg PUBLIC "-//W3C//DTD SVG 1.1//EN"
  "http://www.w3.org/Graphics/SVG/1.1/DTD/svg11.dtd">
<!-- Created with matplotlib (http://matplotlib.org/) -->
<svg height="309.4pt" version="1.1" viewBox="0 0 381.4 309.4" width="381.4pt" xmlns="http://www.w3.org/2000/svg" xmlns:xlink="http://www.w3.org/1999/xlink">
 <defs>
  <style type="text/css">
*{stroke-linecap:butt;stroke-linejoin:round;}
  </style>
 </defs>
 <g id="figure_1">
  <g id="patch_1">
   <path d="M 0 309.4 
L 381.4 309.4 
L 381.4 0 
L 0 0 
z
" style="fill:none;"/>
  </g>
  <g id="patch_2">
   <path d="M 10.7 298.7 
L 370.7 298.7 
L 370.7 10.7 
L 10.7 10.7 
z
" style="fill:#ffffff;"/>
  </g>
  <g id="pane3d_1">
   <g id="patch_3">
    <path d="M 219.619567 185.462306 
L 335.768129 233.715199 
L 340.919918 79.597002 
L 220.435568 41.545085 
" style="fill:#f2f2f2;opacity:0.5;stroke:#f2f2f2;stroke-linejoin:miter;"/>
   </g>
  </g>
  <g id="pane3d_2">
   <g id="patch_4">
    <path d="M 219.619567 185.462306 
L 58.794045 217.8137 
L 53.895826 67.034254 
L 220.435568 41.545085 
" style="fill:#e6e6e6;opacity:0.5;stroke:#e6e6e6;stroke-linejoin:miter;"/>
   </g>
  </g>
  <g id="pane3d_3">
   <g id="patch_5">
    <path d="M 219.619567 185.462306 
L 58.794045 217.8137 
L 168.062833 271.631196 
L 335.768129 233.715199 
" style="fill:#ececec;opacity:0.5;stroke:#ececec;stroke-linejoin:miter;"/>
   </g>
  </g>
  <g id="axis3d_1">
   <g id="line2d_1">
    <path d="M 335.768129 233.715199 
L 168.062833 271.631196 
" style="fill:none;stroke:#000000;stroke-linecap:square;stroke-width:0.8;"/>
   </g>
   <g id="text_1">
    <!-- coins of 大熊 -->
    <defs>
     <path d="M 44.53125 19.53125 
Q 44.53125 11.328125 38.859375 6.25 
Q 33.203125 1.171875 24.609375 1.171875 
Q 16.015625 1.171875 9.765625 7.21875 
Q 3.515625 13.28125 3.515625 23.828125 
Q 3.515625 34.375 9.765625 40.421875 
Q 16.015625 46.484375 24.609375 46.484375 
Q 33.203125 46.484375 38.28125 41.984375 
Q 43.359375 37.5 43.359375 31.25 
L 34.765625 31.25 
Q 34.375 35.9375 31.4375 37.6875 
Q 28.515625 39.453125 24.609375 39.453125 
Q 19.921875 39.453125 16.015625 35.734375 
Q 12.109375 32.03125 12.109375 23.828125 
Q 12.109375 15.625 16.015625 11.90625 
Q 19.921875 8.203125 24.609375 8.203125 
Q 29.6875 8.203125 32.8125 10.9375 
Q 35.9375 13.671875 35.9375 19.53125 
z
" id="SimHei-63"/>
     <path d="M 45.703125 23.828125 
Q 45.703125 13.671875 39.453125 7.421875 
Q 33.203125 1.171875 24.609375 1.171875 
Q 16.015625 1.171875 9.765625 7.421875 
Q 3.515625 13.671875 3.515625 23.828125 
Q 3.515625 33.984375 9.765625 40.234375 
Q 16.015625 46.484375 24.609375 46.484375 
Q 33.203125 46.484375 39.453125 40.234375 
Q 45.703125 33.984375 45.703125 23.828125 
z
M 37.109375 23.828125 
Q 37.109375 31.640625 33.203125 35.546875 
Q 29.296875 39.453125 24.609375 39.453125 
Q 19.921875 39.453125 16.015625 35.546875 
Q 12.109375 31.640625 12.109375 23.828125 
Q 12.109375 16.015625 16.015625 12.109375 
Q 19.921875 8.203125 24.609375 8.203125 
Q 29.296875 8.203125 33.203125 12.109375 
Q 37.109375 16.015625 37.109375 23.828125 
z
" id="SimHei-6f"/>
     <path d="M 28.125 58.203125 
L 20.3125 58.203125 
L 20.3125 68.359375 
L 28.125 68.359375 
z
M 28.125 1.953125 
L 20.3125 1.953125 
L 20.3125 45.703125 
L 28.125 45.703125 
z
" id="SimHei-69"/>
     <path d="M 43.75 1.953125 
L 35.9375 1.953125 
L 35.9375 30.078125 
Q 35.9375 34.765625 33.59375 37.5 
Q 31.25 40.234375 27.34375 40.234375 
Q 22.265625 40.234375 17.765625 34.953125 
Q 13.28125 29.6875 13.28125 21.875 
L 13.28125 1.953125 
L 5.46875 1.953125 
L 5.46875 45.703125 
L 13.28125 45.703125 
L 13.28125 37.5 
Q 16.40625 41.796875 20.109375 44.140625 
Q 23.828125 46.484375 29.6875 46.484375 
Q 36.71875 46.484375 40.234375 42.578125 
Q 43.75 38.671875 43.75 32.8125 
z
" id="SimHei-6e"/>
     <path d="M 42.96875 14.0625 
Q 42.96875 7.8125 38.078125 4.484375 
Q 33.203125 1.171875 25.78125 1.171875 
Q 16.40625 1.171875 11.328125 4.875 
Q 6.25 8.59375 6.25 15.625 
L 14.0625 15.625 
Q 14.0625 10.9375 17.375 9.375 
Q 20.703125 7.8125 25.390625 7.8125 
Q 30.078125 7.8125 32.421875 9.5625 
Q 34.765625 11.328125 34.765625 14.0625 
Q 34.765625 16.015625 32.8125 17.96875 
Q 30.859375 19.921875 23.046875 21.09375 
Q 14.0625 22.265625 10.734375 25.578125 
Q 7.421875 28.90625 7.421875 34.375 
Q 7.421875 39.0625 11.90625 42.765625 
Q 16.40625 46.484375 25 46.484375 
Q 32.8125 46.484375 37.296875 42.96875 
Q 41.796875 39.453125 41.796875 33.59375 
L 33.984375 33.59375 
Q 33.984375 37.109375 31.4375 38.46875 
Q 28.90625 39.84375 25 39.84375 
Q 19.921875 39.84375 17.765625 38.078125 
Q 15.625 36.328125 15.625 33.984375 
Q 15.625 31.25 17.578125 29.6875 
Q 19.53125 28.125 25.78125 27.34375 
Q 35.9375 25.78125 39.453125 22.453125 
Q 42.96875 19.140625 42.96875 14.0625 
z
" id="SimHei-73"/>
     <path id="SimHei-20"/>
     <path d="M 44.53125 59.765625 
Q 42.578125 60.9375 39.84375 61.71875 
Q 37.109375 62.5 32.8125 62.5 
Q 28.515625 62.5 26.953125 60.34375 
Q 25.390625 58.203125 25.390625 55.078125 
L 25.390625 45.703125 
L 41.40625 45.703125 
L 41.40625 39.453125 
L 25.390625 39.453125 
L 25.390625 1.953125 
L 17.578125 1.953125 
L 17.578125 39.453125 
L 4.296875 39.453125 
L 4.296875 45.703125 
L 17.578125 45.703125 
L 17.578125 54.6875 
Q 17.578125 61.71875 21.875 65.625 
Q 26.171875 69.53125 33.203125 69.53125 
Q 37.5 69.53125 40.03125 68.9375 
Q 42.578125 68.359375 44.53125 67.578125 
z
" id="SimHei-66"/>
     <path d="M 45.3125 53.125 
Q 45.703125 66.796875 45.5 71.484375 
Q 45.3125 76.171875 44.921875 80.46875 
Q 49.609375 79.6875 55.46875 79.296875 
Q 54.296875 75.390625 53.703125 67.96875 
Q 53.125 60.546875 53.125 53.125 
L 73.046875 53.125 
Q 83.59375 53.125 92.578125 53.90625 
L 92.578125 45.3125 
Q 84.765625 45.703125 76.5625 45.703125 
L 53.515625 45.703125 
Q 55.078125 39.0625 58.984375 32.21875 
Q 62.890625 25.390625 66.984375 20.109375 
Q 71.09375 14.84375 78.3125 8.984375 
Q 85.546875 3.125 94.140625 -0.78125 
Q 91.015625 -3.125 87.890625 -8.59375 
Q 80.859375 -4.6875 74.015625 1.171875 
Q 67.1875 7.03125 60.34375 16.59375 
Q 53.515625 26.171875 50 34.375 
Q 46.875 25.78125 43.359375 20.109375 
Q 39.84375 14.453125 35.734375 9.765625 
Q 31.640625 5.078125 25.1875 0.390625 
Q 18.75 -4.296875 10.546875 -8.984375 
Q 7.421875 -4.296875 3.515625 -0.78125 
Q 11.71875 1.953125 19.71875 7.03125 
Q 27.734375 12.109375 32.8125 18.546875 
Q 37.890625 25 41.015625 32.03125 
Q 44.140625 39.0625 44.921875 45.703125 
L 23.4375 45.703125 
Q 14.0625 45.703125 8.59375 45.3125 
L 8.59375 53.90625 
Q 14.0625 53.515625 23.4375 53.125 
z
" id="SimHei-5927"/>
     <path d="M 49.609375 52.34375 
Q 49.21875 46.484375 49.21875 40.625 
L 49.21875 19.53125 
Q 49.21875 15.234375 46.484375 13.859375 
Q 43.75 12.5 34.765625 11.328125 
Q 33.59375 14.84375 31.640625 18.359375 
Q 38.671875 18.75 40.421875 18.9375 
Q 42.1875 19.140625 41.796875 23.4375 
L 18.359375 23.4375 
L 18.359375 12.5 
L 10.15625 12.5 
Q 10.546875 25 10.546875 33.59375 
Q 10.546875 42.1875 10.15625 52.34375 
L 49.609375 52.34375 
z
M 65.625 45.3125 
Q 65.234375 41.015625 65.234375 34.375 
Q 81.640625 38.671875 88.28125 43.359375 
Q 90.234375 39.453125 93.359375 36.71875 
Q 85.9375 34.765625 65.625 28.125 
L 65.625 23.046875 
Q 65.625 19.53125 70.703125 19.53125 
L 80.46875 19.53125 
Q 83.59375 19.53125 85.15625 20.890625 
Q 86.71875 22.265625 88.28125 28.125 
Q 92.1875 26.171875 96.875 25.390625 
Q 93.359375 17.1875 91.40625 15.234375 
Q 89.453125 13.28125 83.984375 13.28125 
L 65.234375 13.28125 
Q 57.03125 13.28125 57.03125 19.53125 
L 57.03125 37.5 
Q 57.03125 40.625 56.640625 45.3125 
L 65.625 45.3125 
z
M 92.578125 69.140625 
Q 78.515625 65.234375 64.84375 61.328125 
Q 64.84375 54.6875 68.359375 54.6875 
L 80.46875 54.6875 
Q 83.203125 54.6875 84.765625 56.4375 
Q 86.328125 58.203125 86.71875 62.5 
Q 90.234375 60.9375 94.921875 59.765625 
Q 92.96875 51.5625 90.421875 50.1875 
Q 87.890625 48.828125 82.8125 48.828125 
L 64.84375 48.828125 
Q 57.03125 48.828125 57.03125 54.296875 
L 57.03125 71.09375 
Q 57.03125 75.78125 56.640625 80.46875 
L 65.625 80.46875 
Q 65.234375 75.390625 65.234375 67.1875 
Q 78.515625 70.3125 86.328125 76.171875 
Q 88.671875 72.65625 92.578125 69.140625 
z
M 32.03125 78.125 
Q 24.609375 71.484375 16.40625 62.890625 
Q 22.65625 63.28125 40.625 65.234375 
Q 38.671875 67.578125 35.546875 70.703125 
Q 39.0625 72.265625 42.96875 74.21875 
Q 51.171875 63.28125 55.078125 58.59375 
Q 51.171875 57.03125 48.046875 54.6875 
L 44.53125 59.765625 
Q 42.578125 59.375 33.203125 58.59375 
Q 23.828125 57.8125 9.375 55.859375 
Q 7.421875 59.375 6.25 62.890625 
Q 10.15625 64.84375 14.640625 69.53125 
Q 19.140625 74.21875 23.4375 82.03125 
Q 27.734375 79.6875 32.03125 78.125 
z
M 41.796875 28.90625 
L 41.796875 35.546875 
L 18.359375 35.546875 
L 18.359375 28.90625 
z
M 20.3125 6.640625 
Q 17.1875 3.125 11.71875 -9.765625 
Q 6.640625 -7.8125 3.90625 -7.03125 
Q 6.640625 -1.5625 11.71875 8.984375 
Q 15.625 7.8125 20.3125 6.640625 
z
M 85.9375 10.15625 
Q 92.578125 -1.953125 94.140625 -5.46875 
Q 89.84375 -6.640625 86.328125 -8.59375 
Q 83.984375 -2.34375 78.515625 7.03125 
Q 81.25 8.203125 85.9375 10.15625 
z
M 41.796875 41.015625 
L 41.796875 46.875 
L 18.359375 46.875 
L 18.359375 41.015625 
z
M 62.890625 8.59375 
Q 65.625 -1.953125 66.40625 -5.859375 
L 58.59375 -7.421875 
Q 57.421875 -3.90625 55.46875 7.421875 
Q 58.59375 8.203125 62.890625 8.59375 
z
M 39.84375 7.421875 
Q 40.234375 3.90625 42.578125 -6.640625 
Q 38.671875 -6.640625 34.375 -7.8125 
Q 33.59375 -3.125 32.03125 6.640625 
Q 35.15625 7.421875 39.84375 7.421875 
z
" id="SimHei-718a"/>
    </defs>
    <g style="fill:#800080;" transform="translate(235.061813 295.570823)rotate(-12.739652)scale(0.12 -0.12)">
     <use xlink:href="#SimHei-63"/>
     <use x="50" xlink:href="#SimHei-6f"/>
     <use x="100" xlink:href="#SimHei-69"/>
     <use x="150" xlink:href="#SimHei-6e"/>
     <use x="200" xlink:href="#SimHei-73"/>
     <use x="250" xlink:href="#SimHei-20"/>
     <use x="300" xlink:href="#SimHei-6f"/>
     <use x="350" xlink:href="#SimHei-66"/>
     <use x="400" xlink:href="#SimHei-20"/>
     <use x="450" xlink:href="#SimHei-5927"/>
     <use x="550" xlink:href="#SimHei-718a"/>
    </g>
   </g>
   <g id="Line3DCollection_1">
    <path d="M 325.649087 236.002984 
L 209.876104 187.422284 
L 210.363217 43.086674 
" style="fill:none;stroke:#b0b0b0;stroke-width:0.8;"/>
    <path d="M 305.615951 240.532216 
L 190.60155 191.299522 
L 190.43149 46.137256 
" style="fill:none;stroke:#b0b0b0;stroke-width:0.8;"/>
    <path d="M 285.302458 245.124834 
L 171.077619 195.226923 
L 170.232989 49.228668 
" style="fill:none;stroke:#b0b0b0;stroke-width:0.8;"/>
    <path d="M 264.70268 249.782177 
L 151.299439 199.205469 
L 149.762321 52.361736 
" style="fill:none;stroke:#b0b0b0;stroke-width:0.8;"/>
    <path d="M 243.810523 254.505623 
L 131.262013 203.236164 
L 129.013948 55.537307 
" style="fill:none;stroke:#b0b0b0;stroke-width:0.8;"/>
    <path d="M 222.619718 259.29659 
L 110.960209 207.320041 
L 107.982181 58.756252 
" style="fill:none;stroke:#b0b0b0;stroke-width:0.8;"/>
    <path d="M 201.123814 264.156536 
L 90.38876 211.458159 
L 86.661174 62.019466 
" style="fill:none;stroke:#b0b0b0;stroke-width:0.8;"/>
    <path d="M 179.316176 269.086961 
L 69.542258 215.651607 
L 65.044918 65.327868 
" style="fill:none;stroke:#b0b0b0;stroke-width:0.8;"/>
   </g>
   <g id="xtick_1">
    <g id="line2d_2">
     <path d="M 324.648958 235.583309 
L 327.653217 236.843957 
" style="fill:none;stroke:#000000;stroke-linecap:square;stroke-width:0.8;"/>
    </g>
    <g id="text_2">
     <!-- 0 -->
     <defs>
      <path d="M 3.125 29.296875 
Q 3.90625 50 6.4375 56.046875 
Q 8.984375 62.109375 13.671875 66.015625 
Q 18.359375 69.921875 25.1875 69.921875 
Q 32.03125 69.921875 37.109375 64.25 
Q 42.1875 58.59375 43.75 50 
Q 45.3125 41.40625 44.71875 30.265625 
Q 44.140625 19.140625 40.8125 12.109375 
Q 37.5 5.078125 30.859375 2.34375 
Q 24.21875 -0.390625 17.578125 2.921875 
Q 10.9375 6.25 8.203125 11.71875 
Q 5.46875 17.1875 4.296875 23.234375 
Q 3.125 29.296875 3.90625 50 
z
M 12.890625 52.734375 
Q 10.546875 31.25 12.5 22.84375 
Q 14.453125 14.453125 18.9375 10.9375 
Q 23.4375 7.421875 28.125 9.5625 
Q 32.8125 11.71875 34.953125 18.15625 
Q 37.109375 24.609375 37.109375 32.21875 
Q 37.109375 39.84375 36.515625 46.09375 
Q 35.9375 52.34375 33 57.421875 
Q 30.078125 62.5 25.1875 62.6875 
Q 20.3125 62.890625 16.59375 57.8125 
Q 12.890625 52.734375 10.546875 31.25 
z
" id="SimHei-30"/>
     </defs>
     <g transform="translate(330.134125 260.095778)scale(0.15 -0.15)">
      <use xlink:href="#SimHei-30"/>
     </g>
    </g>
   </g>
   <g id="xtick_2">
    <g id="line2d_3">
     <path d="M 304.621865 240.106691 
L 307.607998 241.384926 
" style="fill:none;stroke:#000000;stroke-linecap:square;stroke-width:0.8;"/>
    </g>
    <g id="text_3">
     <!-- 2 -->
     <defs>
      <path d="M 4.6875 3.90625 
Q 5.078125 9.765625 10.15625 14.453125 
Q 15.234375 19.140625 23.046875 29.09375 
Q 30.859375 39.0625 33.203125 44.53125 
Q 35.546875 50 34.953125 53.90625 
Q 34.375 57.8125 31.25 60.34375 
Q 28.125 62.890625 24.015625 62.5 
Q 19.921875 62.109375 16.203125 59.375 
Q 12.5 56.640625 10.546875 51.171875 
L 3.125 52.34375 
Q 6.25 61.328125 11.125 65.421875 
Q 16.015625 69.53125 22.65625 69.921875 
Q 26.5625 70.3125 29.6875 69.71875 
Q 32.8125 69.140625 36.125 66.984375 
Q 39.453125 64.84375 41.59375 60.546875 
Q 43.75 56.25 43.15625 50.1875 
Q 42.578125 44.140625 37.109375 35.734375 
Q 31.640625 27.34375 16.015625 9.375 
L 44.140625 9.375 
L 44.140625 2.34375 
L 4.6875 2.34375 
z
" id="SimHei-32"/>
     </defs>
     <g transform="translate(310.096382 264.735082)scale(0.15 -0.15)">
      <use xlink:href="#SimHei-32"/>
     </g>
    </g>
   </g>
   <g id="xtick_3">
    <g id="line2d_4">
     <path d="M 284.314682 244.693335 
L 287.281886 245.989527 
" style="fill:none;stroke:#000000;stroke-linecap:square;stroke-width:0.8;"/>
    </g>
    <g id="text_4">
     <!-- 4 -->
     <defs>
      <path d="M 31.25 17.1875 
L 1.171875 17.1875 
L 1.171875 23.828125 
L 32.8125 69.53125 
L 38.671875 69.53125 
L 38.671875 23.828125 
L 48.046875 23.828125 
L 48.046875 17.1875 
L 38.671875 17.1875 
L 38.671875 2.34375 
L 31.25 2.34375 
z
M 31.25 23.828125 
L 31.25 54.6875 
L 9.375 23.828125 
z
" id="SimHei-34"/>
     </defs>
     <g transform="translate(289.777342 269.439513)scale(0.15 -0.15)">
      <use xlink:href="#SimHei-34"/>
     </g>
    </g>
   </g>
   <g id="xtick_4">
    <g id="line2d_5">
     <path d="M 263.721492 249.344577 
L 266.668935 250.659107 
" style="fill:none;stroke:#000000;stroke-linecap:square;stroke-width:0.8;"/>
    </g>
    <g id="text_5">
     <!-- 6 -->
     <defs>
      <path d="M 3.515625 19.53125 
Q 4.296875 30.859375 6.046875 34.765625 
Q 7.8125 38.671875 11.328125 44.53125 
L 27.34375 69.53125 
L 36.328125 69.53125 
L 19.921875 43.75 
Q 30.46875 46.484375 36.71875 42.96875 
Q 42.96875 39.453125 45.109375 34.953125 
Q 47.265625 30.46875 47.453125 25.1875 
Q 47.65625 19.921875 45.890625 14.84375 
Q 44.140625 9.765625 39.640625 5.65625 
Q 35.15625 1.5625 27.140625 1.171875 
Q 19.140625 0.78125 13.46875 4.09375 
Q 7.8125 7.421875 5.65625 13.46875 
Q 3.515625 19.53125 4.296875 30.859375 
z
M 12.5 16.015625 
Q 19.53125 8.59375 25.390625 8.203125 
Q 31.25 7.8125 35.15625 12.109375 
Q 39.0625 16.40625 39.0625 24.609375 
Q 39.0625 32.8125 34.171875 35.9375 
Q 29.296875 39.0625 23.234375 38.28125 
Q 17.1875 37.5 14.453125 32.421875 
Q 11.71875 27.34375 12.109375 21.671875 
Q 12.5 16.015625 19.53125 8.59375 
z
" id="SimHei-36"/>
     </defs>
     <g transform="translate(269.171041 274.210454)scale(0.15 -0.15)">
      <use xlink:href="#SimHei-36"/>
     </g>
    </g>
   </g>
   <g id="xtick_5">
    <g id="line2d_6">
     <path d="M 242.83621 254.061792 
L 245.763028 255.395052 
" style="fill:none;stroke:#000000;stroke-linecap:square;stroke-width:0.8;"/>
    </g>
    <g id="text_6">
     <!-- 8 -->
     <defs>
      <path d="M 2.734375 16.796875 
Q 2.734375 26.171875 5.078125 30.65625 
Q 7.421875 35.15625 12.890625 37.890625 
Q 8.203125 40.625 6.640625 43.9375 
Q 5.078125 47.265625 4.875 51.5625 
Q 4.6875 55.859375 6.046875 58.984375 
Q 7.421875 62.109375 10.15625 64.84375 
Q 12.890625 67.578125 16.203125 68.546875 
Q 19.53125 69.53125 23.4375 69.53125 
Q 27.34375 69.53125 30.46875 68.75 
Q 33.59375 67.96875 37.109375 65.421875 
Q 40.625 62.890625 42.1875 58.203125 
Q 43.75 53.515625 41.984375 47.265625 
Q 40.234375 41.015625 32.8125 37.5 
Q 39.453125 35.546875 42.1875 31.4375 
Q 44.921875 27.34375 44.921875 21.484375 
Q 44.921875 15.625 43.15625 12.109375 
Q 41.40625 8.59375 39.25 6.25 
Q 37.109375 3.90625 33.390625 2.53125 
Q 29.6875 1.171875 24.015625 1.171875 
Q 18.359375 1.171875 14.25 2.53125 
Q 10.15625 3.90625 7.421875 6.640625 
Q 4.6875 9.375 3.703125 13.078125 
Q 2.734375 16.796875 2.734375 26.171875 
z
M 10.9375 26.5625 
Q 10.546875 17.1875 12.296875 13.671875 
Q 14.0625 10.15625 18.75 9.171875 
Q 23.4375 8.203125 28.515625 9.375 
Q 33.59375 10.546875 35.546875 14.84375 
Q 37.5 19.140625 36.90625 23.4375 
Q 36.328125 27.734375 32.03125 30.65625 
Q 27.734375 33.59375 22.65625 33.203125 
Q 17.578125 32.8125 14.25 29.6875 
Q 10.9375 26.5625 10.546875 17.1875 
z
M 12.109375 56.25 
Q 12.109375 48.4375 14.84375 44.921875 
Q 17.578125 41.40625 23.4375 41.40625 
Q 29.296875 41.40625 32.21875 44.921875 
Q 35.15625 48.4375 34.953125 53.3125 
Q 34.765625 58.203125 31.4375 60.546875 
Q 28.125 62.890625 22.453125 62.5 
Q 16.796875 62.109375 14.453125 59.171875 
Q 12.109375 56.25 12.109375 48.4375 
z
" id="SimHei-38"/>
     </defs>
     <g transform="translate(248.271344 279.049324)scale(0.15 -0.15)">
      <use xlink:href="#SimHei-38"/>
     </g>
    </g>
   </g>
   <g id="xtick_6">
    <g id="line2d_7">
     <path d="M 221.652577 258.846394 
L 224.557878 260.198787 
" style="fill:none;stroke:#000000;stroke-linecap:square;stroke-width:0.8;"/>
    </g>
    <g id="text_7">
     <!-- 10 -->
     <defs>
      <path d="M 21.875 56.25 
Q 16.796875 51.171875 8.984375 46.484375 
L 8.984375 53.90625 
Q 18.75 60.546875 25 69.53125 
L 29.6875 69.53125 
L 29.6875 2.34375 
L 21.875 2.34375 
z
" id="SimHei-31"/>
     </defs>
     <g transform="translate(223.321939 283.957585)scale(0.15 -0.15)">
      <use xlink:href="#SimHei-31"/>
      <use x="50" xlink:href="#SimHei-30"/>
     </g>
    </g>
   </g>
   <g id="xtick_7">
    <g id="line2d_8">
     <path d="M 200.164153 263.699837 
L 203.047012 265.071778 
" style="fill:none;stroke:#000000;stroke-linecap:square;stroke-width:0.8;"/>
    </g>
    <g id="text_8">
     <!-- 12 -->
     <g transform="translate(201.816333 288.936741)scale(0.15 -0.15)">
      <use xlink:href="#SimHei-31"/>
      <use x="50" xlink:href="#SimHei-32"/>
     </g>
    </g>
   </g>
   <g id="xtick_8">
    <g id="line2d_9">
     <path d="M 178.364314 268.623617 
L 181.22377 270.015533 
" style="fill:none;stroke:#000000;stroke-linecap:square;stroke-width:0.8;"/>
    </g>
    <g id="text_9">
     <!-- 14 -->
     <g transform="translate(179.997844 293.988337)scale(0.15 -0.15)">
      <use xlink:href="#SimHei-31"/>
      <use x="50" xlink:href="#SimHei-34"/>
     </g>
    </g>
   </g>
  </g>
  <g id="axis3d_2">
   <g id="line2d_10">
    <path d="M 58.794045 217.8137 
L 168.062833 271.631196 
" style="fill:none;stroke:#000000;stroke-linecap:square;stroke-width:0.8;"/>
   </g>
   <g id="text_10">
    <!-- coins of 胖虎 -->
    <defs>
     <path d="M 21.484375 1.953125 
Q 25.78125 1.5625 28.515625 1.75 
Q 31.25 1.953125 31.640625 7.03125 
L 31.640625 26.171875 
L 18.359375 26.171875 
Q 16.796875 14.453125 14.453125 5.859375 
Q 12.109375 -2.734375 10.15625 -7.03125 
Q 6.640625 -3.90625 3.125 -2.734375 
Q 6.640625 2.734375 8.78125 10.34375 
Q 10.9375 17.96875 11.71875 30.859375 
L 11.71875 64.453125 
Q 11.71875 71.09375 11.328125 76.953125 
L 38.671875 76.953125 
Q 38.28125 69.140625 38.28125 61.328125 
L 38.28125 1.953125 
Q 38.28125 -6.25 23.4375 -7.03125 
Q 23.046875 -3.125 21.484375 1.953125 
z
M 64.453125 45.3125 
L 64.453125 69.140625 
Q 64.453125 73.828125 63.671875 79.296875 
L 72.265625 79.296875 
Q 71.875 74.21875 71.875 69.140625 
L 71.875 45.3125 
L 82.421875 45.3125 
Q 85.9375 45.3125 91.796875 45.703125 
L 91.796875 38.671875 
Q 88.28125 39.0625 82.421875 39.0625 
L 71.875 39.0625 
L 71.875 23.4375 
L 84.765625 23.4375 
Q 91.015625 23.4375 96.09375 23.828125 
L 96.09375 16.796875 
Q 90.234375 17.1875 84.765625 17.1875 
L 71.875 17.1875 
L 71.875 3.90625 
Q 71.875 -2.34375 72.265625 -8.984375 
L 64.0625 -8.984375 
Q 64.453125 -2.734375 64.453125 3.90625 
L 64.453125 17.1875 
L 53.90625 17.1875 
Q 48.4375 17.1875 42.578125 16.796875 
L 42.578125 23.828125 
Q 48.046875 23.4375 54.296875 23.4375 
L 64.453125 23.4375 
L 64.453125 39.0625 
L 53.90625 39.0625 
Q 48.4375 39.0625 43.359375 38.671875 
L 43.359375 45.703125 
Q 48.4375 45.3125 53.515625 45.3125 
z
M 31.640625 32.8125 
L 31.640625 48.828125 
L 18.75 48.828125 
L 18.75 32.8125 
z
M 31.640625 55.078125 
L 31.640625 70.703125 
L 18.75 70.703125 
L 18.75 55.078125 
z
M 51.5625 51.953125 
Q 50 58.984375 44.921875 71.09375 
L 51.171875 74.21875 
Q 55.859375 63.28125 58.59375 54.6875 
Q 54.296875 53.515625 51.5625 51.953125 
z
M 77.34375 53.90625 
Q 83.984375 67.96875 84.765625 73.4375 
Q 88.671875 71.875 92.578125 70.703125 
Q 90.625 67.96875 88.671875 62.890625 
Q 86.71875 57.8125 84.375 51.953125 
Q 80.859375 53.90625 77.34375 53.90625 
z
" id="SimHei-80d6"/>
     <path d="M 25.78125 45.703125 
Q 33.203125 46.09375 44.140625 46.875 
L 44.140625 56.640625 
L 20.703125 56.640625 
Q 20.703125 31.640625 20.109375 23.4375 
Q 19.53125 15.234375 17.578125 8 
Q 15.625 0.78125 10.9375 -7.8125 
Q 7.8125 -5.46875 3.125 -3.90625 
Q 7.03125 0.78125 9.171875 6.828125 
Q 11.328125 12.890625 12.109375 18.75 
Q 12.890625 24.609375 13.078125 30.265625 
Q 13.28125 35.9375 13.28125 42.96875 
Q 13.28125 50.390625 12.890625 62.5 
L 44.140625 62.5 
L 44.140625 74.609375 
Q 44.140625 77.34375 43.359375 82.421875 
L 51.953125 82.421875 
Q 51.5625 78.515625 51.5625 75.390625 
L 71.09375 75.390625 
Q 76.171875 75.390625 84.765625 76.171875 
L 84.765625 69.53125 
Q 76.171875 69.921875 70.703125 69.921875 
L 51.171875 69.921875 
L 51.171875 62.5 
L 93.75 62.5 
Q 92.1875 57.8125 89.84375 46.875 
Q 85.15625 48.046875 82.03125 48.4375 
Q 83.984375 52.734375 85.15625 56.640625 
L 51.171875 56.640625 
L 51.171875 47.65625 
Q 65.234375 49.21875 74.21875 50.78125 
L 75 44.140625 
Q 64.0625 42.96875 51.171875 41.40625 
L 51.171875 36.71875 
Q 51.171875 33.203125 57.421875 33.203125 
L 70.3125 33.203125 
Q 75 32.8125 76.359375 34.5625 
Q 77.734375 36.328125 78.515625 41.015625 
Q 81.640625 39.0625 86.71875 37.109375 
Q 84.765625 30.859375 82.03125 29.09375 
Q 79.296875 27.34375 73.828125 27.34375 
L 54.296875 27.34375 
Q 44.140625 27.34375 44.140625 33.59375 
L 44.140625 41.015625 
Q 36.328125 40.234375 27.34375 39.0625 
Q 26.5625 42.578125 25.78125 45.703125 
z
M 71.09375 22.265625 
Q 70.703125 16.796875 70.703125 10.9375 
L 70.703125 2.34375 
Q 70.703125 -1.953125 75 -1.953125 
L 81.25 -1.953125 
Q 85.9375 -1.953125 86.71875 0.78125 
Q 87.5 3.515625 87.5 7.421875 
Q 91.40625 5.078125 96.09375 4.296875 
Q 93.359375 -3.90625 91.59375 -5.859375 
Q 89.84375 -7.8125 85.15625 -7.8125 
L 72.65625 -7.8125 
Q 63.671875 -7.8125 63.671875 -1.171875 
L 63.671875 16.40625 
L 45.3125 16.40625 
Q 45.3125 4.6875 41.203125 -0.578125 
Q 37.109375 -5.859375 26.171875 -10.546875 
Q 25 -6.640625 21.484375 -3.515625 
Q 35.9375 0.78125 37.109375 7.421875 
Q 38.28125 14.0625 37.890625 22.265625 
L 71.09375 22.265625 
z
" id="SimHei-864e"/>
    </defs>
    <g style="fill:#800080;" transform="translate(49.092792 257.912399)rotate(-333.778649)scale(0.12 -0.12)">
     <use xlink:href="#SimHei-63"/>
     <use x="50" xlink:href="#SimHei-6f"/>
     <use x="100" xlink:href="#SimHei-69"/>
     <use x="150" xlink:href="#SimHei-6e"/>
     <use x="200" xlink:href="#SimHei-73"/>
     <use x="250" xlink:href="#SimHei-20"/>
     <use x="300" xlink:href="#SimHei-6f"/>
     <use x="350" xlink:href="#SimHei-66"/>
     <use x="400" xlink:href="#SimHei-20"/>
     <use x="450" xlink:href="#SimHei-80d6"/>
     <use x="550" xlink:href="#SimHei-864e"/>
    </g>
   </g>
   <g id="Line3DCollection_2">
    <path d="M 227.548604 43.791556 
L 226.494241 188.318329 
L 65.235235 220.98614 
" style="fill:none;stroke:#b0b0b0;stroke-width:0.8;"/>
    <path d="M 241.688876 48.257402 
L 240.154088 193.993191 
L 78.043534 227.294534 
" style="fill:none;stroke:#b0b0b0;stroke-width:0.8;"/>
    <path d="M 256.106644 52.810887 
L 254.072998 199.775679 
L 91.108144 233.729167 
" style="fill:none;stroke:#b0b0b0;stroke-width:0.8;"/>
    <path d="M 270.810156 57.454617 
L 268.25841 205.668883 
L 104.436836 240.293868 
" style="fill:none;stroke:#b0b0b0;stroke-width:0.8;"/>
    <path d="M 285.807992 62.191302 
L 282.718053 211.676014 
L 118.0377 246.992619 
" style="fill:none;stroke:#b0b0b0;stroke-width:0.8;"/>
    <path d="M 301.10908 67.023762 
L 297.459956 217.800407 
L 131.919157 253.829569 
" style="fill:none;stroke:#b0b0b0;stroke-width:0.8;"/>
    <path d="M 316.722709 71.95493 
L 312.492466 224.045531 
L 146.089982 260.80904 
" style="fill:none;stroke:#b0b0b0;stroke-width:0.8;"/>
    <path d="M 332.658556 76.987861 
L 327.824262 230.41499 
L 160.559317 267.935534 
" style="fill:none;stroke:#b0b0b0;stroke-width:0.8;"/>
   </g>
   <g id="xtick_9">
    <g id="line2d_11">
     <path d="M 66.594479 220.710784 
L 62.513215 221.537566 
" style="fill:none;stroke:#000000;stroke-linecap:square;stroke-width:0.8;"/>
    </g>
    <g id="text_11">
     <!-- 0 -->
     <g transform="translate(50.195232 243.623733)scale(0.15 -0.15)">
      <use xlink:href="#SimHei-30"/>
     </g>
    </g>
   </g>
   <g id="xtick_10">
    <g id="line2d_12">
     <path d="M 79.410645 227.013697 
L 75.305726 227.856945 
" style="fill:none;stroke:#000000;stroke-linecap:square;stroke-width:0.8;"/>
    </g>
    <g id="text_12">
     <!-- 2 -->
     <g transform="translate(62.908596 250.062791)scale(0.15 -0.15)">
      <use xlink:href="#SimHei-32"/>
     </g>
    </g>
   </g>
   <g id="xtick_11">
    <g id="line2d_13">
     <path d="M 92.483165 233.442684 
L 88.354458 234.302894 
" style="fill:none;stroke:#000000;stroke-linecap:square;stroke-width:0.8;"/>
    </g>
    <g id="text_13">
     <!-- 4 -->
     <g transform="translate(75.876714 256.630876)scale(0.15 -0.15)">
      <use xlink:href="#SimHei-34"/>
     </g>
    </g>
   </g>
   <g id="xtick_12">
    <g id="line2d_14">
     <path d="M 105.81981 240.001565 
L 101.667187 240.879255 
" style="fill:none;stroke:#000000;stroke-linecap:square;stroke-width:0.8;"/>
    </g>
    <g id="text_14">
     <!-- 6 -->
     <g transform="translate(89.10732 263.331906)scale(0.15 -0.15)">
      <use xlink:href="#SimHei-36"/>
     </g>
    </g>
   </g>
   <g id="xtick_13">
    <g id="line2d_15">
     <path d="M 119.428666 246.694319 
L 115.252006 247.590026 
" style="fill:none;stroke:#000000;stroke-linecap:square;stroke-width:0.8;"/>
    </g>
    <g id="text_15">
     <!-- 8 -->
     <g transform="translate(102.608465 270.169958)scale(0.15 -0.15)">
      <use xlink:href="#SimHei-38"/>
     </g>
    </g>
   </g>
   <g id="xtick_14">
    <g id="line2d_16">
     <path d="M 133.318153 253.525084 
L 129.117343 254.439371 
" style="fill:none;stroke:#000000;stroke-linecap:square;stroke-width:0.8;"/>
    </g>
    <g id="text_16">
     <!-- 10 -->
     <g transform="translate(112.638533 277.14928)scale(0.15 -0.15)">
      <use xlink:href="#SimHei-31"/>
      <use x="50" xlink:href="#SimHei-30"/>
     </g>
    </g>
   </g>
   <g id="xtick_15">
    <g id="line2d_17">
     <path d="M 147.497042 260.498176 
L 143.271977 261.431625 
" style="fill:none;stroke:#000000;stroke-linecap:square;stroke-width:0.8;"/>
    </g>
    <g id="text_17">
     <!-- 12 -->
     <g transform="translate(126.706257 284.274293)scale(0.15 -0.15)">
      <use xlink:href="#SimHei-31"/>
      <use x="50" xlink:href="#SimHei-32"/>
     </g>
    </g>
   </g>
   <g id="xtick_16">
    <g id="line2d_18">
     <path d="M 161.974472 267.618089 
L 157.725058 268.57131 
" style="fill:none;stroke:#000000;stroke-linecap:square;stroke-width:0.8;"/>
    </g>
    <g id="text_18">
     <!-- 14 -->
     <g transform="translate(141.07074 291.549608)scale(0.15 -0.15)">
      <use xlink:href="#SimHei-31"/>
      <use x="50" xlink:href="#SimHei-34"/>
     </g>
    </g>
   </g>
  </g>
  <g id="axis3d_3">
   <g id="line2d_19">
    <path d="M 58.794045 217.8137 
L 53.895826 67.034254 
" style="fill:none;stroke:#000000;stroke-linecap:square;stroke-width:0.8;"/>
   </g>
   <g id="text_19">
    <!-- coins of 静香 -->
    <defs>
     <path d="M 67.578125 78.90625 
Q 65.625 76.5625 64.640625 74.40625 
Q 63.671875 72.265625 62.890625 70.3125 
L 84.375 70.3125 
Q 82.03125 66.796875 80.078125 62.296875 
Q 78.125 57.8125 75.78125 52.734375 
L 90.234375 52.734375 
Q 89.84375 47.265625 89.84375 41.015625 
L 89.84375 36.71875 
Q 93.359375 36.71875 96.875 37.109375 
L 96.875 30.46875 
Q 94.140625 30.859375 89.84375 30.859375 
L 89.84375 25.390625 
Q 89.84375 17.578125 90.234375 10.546875 
L 83.203125 10.546875 
L 83.203125 14.84375 
L 72.265625 14.84375 
L 72.265625 0.390625 
Q 71.875 -4.6875 68.9375 -6.640625 
Q 66.015625 -8.59375 56.25 -9.375 
Q 56.25 -5.46875 53.90625 -1.171875 
Q 58.984375 -1.5625 62.296875 -1.171875 
Q 65.625 -0.78125 65.625 2.734375 
L 65.625 14.84375 
L 60.15625 14.84375 
Q 55.46875 14.84375 50.390625 14.453125 
L 50.390625 20.703125 
Q 55.078125 20.3125 60.15625 20.3125 
L 65.625 20.3125 
L 65.625 30.859375 
L 59.765625 30.859375 
Q 54.6875 30.859375 48.046875 30.46875 
L 48.046875 36.71875 
Q 53.515625 36.328125 60.15625 36.328125 
L 65.625 36.328125 
L 65.625 47.265625 
L 60.15625 47.265625 
Q 57.8125 47.265625 51.953125 46.875 
L 51.953125 51.953125 
Q 50.78125 50.78125 48.828125 48.4375 
Q 46.875 51.5625 44.140625 53.90625 
Q 50.390625 60.15625 53.703125 68.15625 
Q 57.03125 76.171875 58.984375 82.03125 
Q 62.890625 80.078125 67.578125 78.90625 
z
M 42.96875 36.328125 
Q 42.578125 30.859375 42.578125 25 
L 42.578125 1.171875 
Q 42.578125 -4.6875 39.453125 -6.25 
Q 36.328125 -7.8125 30.078125 -8.984375 
Q 29.6875 -5.46875 27.34375 -1.5625 
Q 36.328125 -1.5625 35.546875 1.953125 
L 35.546875 6.640625 
L 15.234375 6.640625 
L 15.234375 -8.203125 
L 8.203125 -8.203125 
Q 8.59375 -3.90625 8.59375 1.953125 
L 8.59375 25 
Q 8.59375 30.859375 8.203125 36.328125 
L 42.96875 36.328125 
z
M 21.875 71.09375 
Q 21.875 74.609375 21.484375 80.46875 
L 29.296875 80.46875 
Q 28.90625 74.609375 28.90625 71.09375 
L 33.984375 71.09375 
Q 39.453125 71.09375 46.875 71.484375 
L 46.875 65.234375 
Q 39.453125 65.625 33.984375 65.625 
L 28.90625 65.625 
L 28.90625 59.375 
L 33.984375 59.375 
Q 36.328125 59.375 42.578125 59.765625 
L 42.578125 53.515625 
Q 35.9375 53.90625 33.59375 53.90625 
L 28.90625 53.90625 
L 28.90625 47.65625 
L 35.15625 47.65625 
Q 40.625 47.65625 46.484375 48.046875 
L 46.484375 41.796875 
Q 40.234375 42.1875 35.15625 42.1875 
L 15.625 42.1875 
Q 9.375 42.1875 3.90625 41.796875 
L 3.90625 48.046875 
Q 9.375 47.65625 15.625 47.65625 
L 21.875 47.65625 
L 21.875 53.90625 
L 15.234375 53.90625 
Q 12.890625 53.90625 8.59375 53.515625 
L 8.59375 59.765625 
Q 12.890625 59.375 15.234375 59.375 
L 21.875 59.375 
L 21.875 65.625 
L 15.234375 65.625 
Q 10.15625 65.625 4.6875 65.234375 
L 4.6875 71.484375 
Q 10.15625 71.09375 15.234375 71.09375 
z
M 52.734375 53.515625 
Q 57.421875 53.125 64.453125 53.125 
L 68.359375 53.125 
Q 72.265625 61.328125 73.4375 64.84375 
L 60.15625 64.84375 
Q 55.078125 56.640625 52.734375 53.515625 
z
M 35.546875 12.109375 
L 35.546875 19.140625 
L 15.234375 19.140625 
L 15.234375 12.109375 
z
M 35.546875 24.609375 
L 35.546875 30.859375 
L 15.234375 30.859375 
L 15.234375 24.609375 
z
M 83.203125 36.328125 
L 83.203125 47.265625 
L 72.265625 47.265625 
L 72.265625 36.328125 
z
M 83.203125 20.3125 
L 83.203125 30.859375 
L 72.265625 30.859375 
L 72.265625 20.3125 
z
" id="SimHei-9759"/>
     <path d="M 45.703125 33.59375 
L 45.703125 53.90625 
Q 36.71875 44.140625 26.359375 38.28125 
Q 16.015625 32.421875 10.546875 30.078125 
Q 10.546875 33.203125 5.46875 36.71875 
Q 16.015625 39.453125 24.21875 44.53125 
Q 32.421875 49.609375 37.109375 54.296875 
L 21.484375 54.296875 
Q 14.84375 54.296875 7.8125 53.90625 
L 7.8125 60.15625 
Q 14.84375 59.765625 21.484375 59.765625 
L 45.703125 59.765625 
L 45.703125 69.921875 
Q 38.28125 69.140625 17.96875 67.578125 
Q 16.796875 71.09375 14.453125 74.609375 
Q 32.8125 74.609375 50.390625 76.953125 
Q 67.96875 79.296875 74.609375 82.03125 
Q 76.953125 78.125 81.25 73.828125 
Q 74.609375 73.4375 67.96875 72.65625 
Q 61.328125 71.875 52.34375 70.703125 
L 52.34375 59.765625 
L 78.125 59.765625 
Q 83.984375 59.765625 91.40625 60.15625 
L 91.40625 53.90625 
Q 84.375 54.296875 78.125 54.296875 
L 61.71875 54.296875 
Q 66.40625 48.4375 74.21875 43.15625 
Q 82.03125 37.890625 94.140625 34.765625 
Q 89.84375 31.640625 88.28125 26.953125 
Q 82.421875 29.296875 77.34375 32.03125 
Q 76.5625 25 76.5625 12.5 
Q 76.5625 -0.78125 76.953125 -8.984375 
L 69.53125 -8.984375 
L 69.53125 -3.125 
L 28.515625 -3.125 
L 28.515625 -9.375 
L 21.875 -9.375 
L 21.875 11.71875 
Q 21.875 25 21.484375 33.59375 
z
M 69.53125 17.96875 
L 69.53125 27.734375 
L 28.515625 27.734375 
L 28.515625 17.96875 
z
M 69.53125 2.734375 
L 69.53125 12.5 
L 28.515625 12.5 
L 28.515625 2.734375 
z
M 71.484375 35.9375 
Q 62.109375 42.578125 52.734375 54.296875 
L 52.34375 54.296875 
L 52.34375 33.59375 
L 75 33.59375 
z
" id="SimHei-9999"/>
    </defs>
    <g style="fill:#800080;" transform="translate(10.565293 102.842551)rotate(-271.860655)scale(0.12 -0.12)">
     <use xlink:href="#SimHei-63"/>
     <use x="50" xlink:href="#SimHei-6f"/>
     <use x="100" xlink:href="#SimHei-69"/>
     <use x="150" xlink:href="#SimHei-6e"/>
     <use x="200" xlink:href="#SimHei-73"/>
     <use x="250" xlink:href="#SimHei-20"/>
     <use x="300" xlink:href="#SimHei-6f"/>
     <use x="350" xlink:href="#SimHei-66"/>
     <use x="400" xlink:href="#SimHei-20"/>
     <use x="450" xlink:href="#SimHei-9759"/>
     <use x="550" xlink:href="#SimHei-9999"/>
    </g>
   </g>
   <g id="Line3DCollection_3">
    <path d="M 58.492454 208.529967 
L 219.669895 176.585888 
L 336.085066 224.233899 
" style="fill:none;stroke:#b0b0b0;stroke-width:0.8;"/>
    <path d="M 57.897709 190.222231 
L 219.769111 159.08724 
L 336.710174 205.533478 
" style="fill:none;stroke:#b0b0b0;stroke-width:0.8;"/>
    <path d="M 57.297781 171.754931 
L 219.869148 141.443949 
L 337.340869 186.665935 
" style="fill:none;stroke:#b0b0b0;stroke-width:0.8;"/>
    <path d="M 56.692601 153.125973 
L 219.970014 123.654212 
L 337.977226 167.629019 
" style="fill:none;stroke:#b0b0b0;stroke-width:0.8;"/>
    <path d="M 56.0821 134.333224 
L 220.071722 105.716199 
L 338.619321 148.42044 
" style="fill:none;stroke:#b0b0b0;stroke-width:0.8;"/>
    <path d="M 55.466207 115.374514 
L 220.17428 87.628049 
L 339.267233 129.037865 
" style="fill:none;stroke:#b0b0b0;stroke-width:0.8;"/>
    <path d="M 54.844852 96.247636 
L 220.277701 69.387869 
L 339.92104 109.478918 
" style="fill:none;stroke:#b0b0b0;stroke-width:0.8;"/>
    <path d="M 54.21796 76.950341 
L 220.381995 50.993734 
L 340.580823 89.741182 
" style="fill:none;stroke:#b0b0b0;stroke-width:0.8;"/>
   </g>
   <g id="xtick_17">
    <g id="line2d_20">
     <path d="M 59.850818 208.26075 
L 55.772207 209.069099 
" style="fill:none;stroke:#000000;stroke-linecap:square;stroke-width:0.8;"/>
    </g>
    <g id="text_20">
     <!-- 0 -->
     <g transform="translate(36.319991 217.800274)scale(0.15 -0.15)">
      <use xlink:href="#SimHei-30"/>
     </g>
    </g>
   </g>
   <g id="xtick_18">
    <g id="line2d_21">
     <path d="M 59.262222 189.959775 
L 55.165133 190.747826 
" style="fill:none;stroke:#000000;stroke-linecap:square;stroke-width:0.8;"/>
    </g>
    <g id="text_21">
     <!-- 2 -->
     <g transform="translate(35.646444 199.518717)scale(0.15 -0.15)">
      <use xlink:href="#SimHei-32"/>
     </g>
    </g>
   </g>
   <g id="xtick_19">
    <g id="line2d_22">
     <path d="M 58.668498 171.499365 
L 54.552763 172.266732 
" style="fill:none;stroke:#000000;stroke-linecap:square;stroke-width:0.8;"/>
    </g>
    <g id="text_22">
     <!-- 4 -->
     <g transform="translate(34.967036 181.078092)scale(0.15 -0.15)">
      <use xlink:href="#SimHei-34"/>
     </g>
    </g>
   </g>
   <g id="xtick_20">
    <g id="line2d_23">
     <path d="M 58.069579 152.877427 
L 53.935029 153.623718 
" style="fill:none;stroke:#000000;stroke-linecap:square;stroke-width:0.8;"/>
    </g>
    <g id="text_23">
     <!-- 6 -->
     <g transform="translate(34.281691 162.476316)scale(0.15 -0.15)">
      <use xlink:href="#SimHei-36"/>
     </g>
    </g>
   </g>
   <g id="xtick_21">
    <g id="line2d_24">
     <path d="M 57.465397 134.091831 
L 53.311858 134.816645 
" style="fill:none;stroke:#000000;stroke-linecap:square;stroke-width:0.8;"/>
    </g>
    <g id="text_24">
     <!-- 8 -->
     <g transform="translate(33.590331 143.711265)scale(0.15 -0.15)">
      <use xlink:href="#SimHei-38"/>
     </g>
    </g>
   </g>
   <g id="xtick_22">
    <g id="line2d_25">
     <path d="M 56.855881 115.140412 
L 52.683179 115.843338 
" style="fill:none;stroke:#000000;stroke-linecap:square;stroke-width:0.8;"/>
    </g>
    <g id="text_25">
     <!-- 10 -->
     <g transform="translate(29.142875 124.780781)scale(0.15 -0.15)">
      <use xlink:href="#SimHei-31"/>
      <use x="50" xlink:href="#SimHei-30"/>
     </g>
    </g>
   </g>
   <g id="xtick_23">
    <g id="line2d_26">
     <path d="M 56.240962 96.020962 
L 52.048919 96.701585 
" style="fill:none;stroke:#000000;stroke-linecap:square;stroke-width:0.8;"/>
    </g>
    <g id="text_26">
     <!-- 12 -->
     <g transform="translate(28.439244 105.682667)scale(0.15 -0.15)">
      <use xlink:href="#SimHei-31"/>
      <use x="50" xlink:href="#SimHei-32"/>
     </g>
    </g>
   </g>
   <g id="xtick_24">
    <g id="line2d_27">
     <path d="M 55.620566 76.731239 
L 51.409002 77.389131 
" style="fill:none;stroke:#000000;stroke-linecap:square;stroke-width:0.8;"/>
    </g>
    <g id="text_27">
     <!-- 14 -->
     <g transform="translate(27.729354 86.414686)scale(0.15 -0.15)">
      <use xlink:href="#SimHei-31"/>
      <use x="50" xlink:href="#SimHei-34"/>
     </g>
    </g>
   </g>
  </g>
  <g id="axes_1">
   <g id="Path3DCollection_1">
    <defs>
     <path d="M 0 5 
C 1.326016 5 2.597899 4.473168 3.535534 3.535534 
C 4.473168 2.597899 5 1.326016 5 0 
C 5 -1.326016 4.473168 -2.597899 3.535534 -3.535534 
C 2.597899 -4.473168 1.326016 -5 0 -5 
C -1.326016 -5 -2.597899 -4.473168 -3.535534 -3.535534 
C -4.473168 -2.597899 -5 -1.326016 -5 0 
C -5 1.326016 -4.473168 2.597899 -3.535534 3.535534 
C -2.597899 4.473168 -1.326016 5 0 5 
z
" id="m61c2c81728" style="stroke:#008000;"/>
    </defs>
    <g clip-path="url(#p014aa19a7b)">
     <use style="fill:#008000;stroke:#008000;" x="218.305846" xlink:href="#m61c2c81728" y="102.603165"/>
    </g>
   </g>
   <g id="Path3DCollection_2">
    <path clip-path="url(#p014aa19a7b)" d="M 224.398551 60.173233 
C 225.201493 60.173233 225.971657 59.854221 226.539423 59.286455 
C 227.107189 58.718689 227.426201 57.948525 227.426201 57.145583 
C 227.426201 56.342641 227.107189 55.572477 226.539423 55.004711 
C 225.971657 54.436945 225.201493 54.117933 224.398551 54.117933 
C 223.595609 54.117933 222.825445 54.436945 222.257679 55.004711 
C 221.689913 55.572477 221.3709 56.342641 221.3709 57.145583 
C 221.3709 57.948525 221.689913 58.718689 222.257679 59.286455 
C 222.825445 59.854221 223.595609 60.173233 224.398551 60.173233 
z
" style="fill:#ff0000;stroke:#ff0000;"/>
    <path clip-path="url(#p014aa19a7b)" d="M 231.385035 73.975007 
C 232.754538 73.975007 234.068134 73.430898 235.036518 72.462513 
C 236.004903 71.494128 236.549013 70.180532 236.549013 68.811029 
C 236.549013 67.441526 236.004903 66.12793 235.036518 65.159545 
C 234.068134 64.191161 232.754538 63.647051 231.385035 63.647051 
C 230.015532 63.647051 228.701936 64.191161 227.733551 65.159545 
C 226.765166 66.12793 226.221057 67.441526 226.221057 68.811029 
C 226.221057 70.180532 226.765166 71.494128 227.733551 72.462513 
C 228.701936 73.430898 230.015532 73.975007 231.385035 73.975007 
z
" style="fill:#ff0000;stroke:#ff0000;"/>
    <path clip-path="url(#p014aa19a7b)" d="M 238.409492 87.395533 
C 240.227632 87.395533 241.971552 86.673178 243.257171 85.387559 
C 244.542791 84.101939 245.265146 82.35802 245.265146 80.539879 
C 245.265146 78.721738 244.542791 76.977819 243.257171 75.692199 
C 241.971552 74.406579 240.227632 73.684224 238.409492 73.684224 
C 236.591351 73.684224 234.847431 74.406579 233.561812 75.692199 
C 232.276192 76.977819 231.553837 78.721738 231.553837 80.539879 
C 231.553837 82.35802 232.276192 84.101939 233.561812 85.387559 
C 234.847431 86.673178 236.591351 87.395533 238.409492 87.395533 
z
" style="fill:#ff0000;stroke:#ff0000;"/>
    <path clip-path="url(#p014aa19a7b)" d="M 245.472232 99.578339 
C 247.393811 99.578339 249.236945 98.814888 250.595707 97.456126 
C 251.954469 96.097365 252.71792 94.25423 252.71792 92.332651 
C 252.71792 90.411072 251.954469 88.567937 250.595707 87.209176 
C 249.236945 85.850414 247.393811 85.086963 245.472232 85.086963 
C 243.550653 85.086963 241.707518 85.850414 240.348756 87.209176 
C 238.989995 88.567937 238.226543 90.411072 238.226543 92.332651 
C 238.226543 94.25423 238.989995 96.097365 240.348756 97.456126 
C 241.707518 98.814888 243.550653 99.578339 245.472232 99.578339 
z
" style="fill:#ff0000;stroke:#ff0000;"/>
    <path clip-path="url(#p014aa19a7b)" d="M 252.573569 111.118072 
C 254.41095 111.118072 256.173324 110.388073 257.472548 109.088849 
C 258.771773 107.789624 259.501772 106.02725 259.501772 104.189869 
C 259.501772 102.352488 258.771773 100.590114 257.472548 99.29089 
C 256.173324 97.991665 254.41095 97.261666 252.573569 97.261666 
C 250.736188 97.261666 248.973814 97.991665 247.674589 99.29089 
C 246.375365 100.590114 245.645365 102.352488 245.645365 104.189869 
C 245.645365 106.02725 246.375365 107.789624 247.674589 109.088849 
C 248.973814 110.388073 250.736188 111.118072 252.573569 111.118072 
z
" style="fill:#ff0000;stroke:#ff0000;"/>
    <path clip-path="url(#p014aa19a7b)" d="M 259.71382 121.928706 
C 261.256412 121.928706 262.736031 121.315828 263.826808 120.225051 
C 264.917585 119.134274 265.530463 117.654655 265.530463 116.112063 
C 265.530463 114.569471 264.917585 113.089853 263.826808 111.999076 
C 262.736031 110.908299 261.256412 110.29542 259.71382 110.29542 
C 258.171228 110.29542 256.69161 110.908299 255.600833 111.999076 
C 254.510056 113.089853 253.897177 114.569471 253.897177 116.112063 
C 253.897177 117.654655 254.510056 119.134274 255.600833 120.225051 
C 256.69161 121.315828 258.171228 121.928706 259.71382 121.928706 
z
" style="fill:#ff0000;stroke:#ff0000;"/>
    <path clip-path="url(#p014aa19a7b)" d="M 266.893307 132.400931 
C 268.033988 132.400931 269.128104 131.947734 269.934688 131.14115 
C 270.741272 130.334566 271.194469 129.24045 271.194469 128.099769 
C 271.194469 126.959087 270.741272 125.864971 269.934688 125.058387 
C 269.128104 124.251804 268.033988 123.798606 266.893307 123.798606 
C 265.752625 123.798606 264.658509 124.251804 263.851925 125.058387 
C 263.045342 125.864971 262.592144 126.959087 262.592144 128.099769 
C 262.592144 129.24045 263.045342 130.334566 263.851925 131.14115 
C 264.658509 131.947734 265.752625 132.400931 266.893307 132.400931 
z
" style="fill:#ff0000;stroke:#ff0000;"/>
    <path clip-path="url(#p014aa19a7b)" d="M 274.112353 143.569177 
C 275.018194 143.569177 275.887056 143.209283 276.527582 142.568757 
C 277.168108 141.92823 277.528003 141.059368 277.528003 140.153527 
C 277.528003 139.247686 277.168108 138.378824 276.527582 137.738298 
C 275.887056 137.097771 275.018194 136.737877 274.112353 136.737877 
C 273.206512 136.737877 272.33765 137.097771 271.697123 137.738298 
C 271.056597 138.378824 270.696702 139.247686 270.696702 140.153527 
C 270.696702 141.059368 271.056597 141.92823 271.697123 142.568757 
C 272.33765 143.209283 273.206512 143.569177 274.112353 143.569177 
z
" style="fill:#ff0000;stroke:#ff0000;"/>
    <path clip-path="url(#p014aa19a7b)" d="M 281.371286 155.189362 
C 282.144479 155.189362 282.886108 154.882169 283.432839 154.335439 
C 283.979569 153.788709 284.286762 153.047079 284.286762 152.273886 
C 284.286762 151.500693 283.979569 150.759063 283.432839 150.212333 
C 282.886108 149.665603 282.144479 149.35841 281.371286 149.35841 
C 280.598093 149.35841 279.856463 149.665603 279.309733 150.212333 
C 278.763003 150.759063 278.45581 151.500693 278.45581 152.273886 
C 278.45581 153.047079 278.763003 153.788709 279.309733 154.335439 
C 279.856463 154.882169 280.598093 155.189362 281.371286 155.189362 
z
" style="fill:#ff0000;stroke:#ff0000;"/>
    <path clip-path="url(#p014aa19a7b)" d="M 288.670438 166.944676 
C 289.329011 166.944676 289.960699 166.683022 290.42638 166.217341 
C 290.892061 165.75166 291.153715 165.119972 291.153715 164.461399 
C 291.153715 163.802826 290.892061 163.171138 290.42638 162.705456 
C 289.960699 162.239775 289.329011 161.978121 288.670438 161.978121 
C 288.011865 161.978121 287.380177 162.239775 286.914495 162.705456 
C 286.448814 163.171138 286.18716 163.802826 286.18716 164.461399 
C 286.18716 165.119972 286.448814 165.75166 286.914495 166.217341 
C 287.380177 166.683022 288.011865 166.944676 288.670438 166.944676 
z
" style="fill:#ff0000;stroke:#ff0000;"/>
    <path clip-path="url(#p014aa19a7b)" d="M 296.010143 178.915109 
C 296.593188 178.915109 297.152432 178.683463 297.564707 178.271188 
C 297.976982 177.858913 298.208628 177.29967 298.208628 176.716625 
C 298.208628 176.13358 297.976982 175.574337 297.564707 175.162062 
C 297.152432 174.749787 296.593188 174.518141 296.010143 174.518141 
C 295.427099 174.518141 294.867855 174.749787 294.45558 175.162062 
C 294.043305 175.574337 293.811659 176.13358 293.811659 176.716625 
C 293.811659 177.29967 294.043305 177.858913 294.45558 178.271188 
C 294.867855 178.683463 295.427099 178.915109 296.010143 178.915109 
z
" style="fill:#ff0000;stroke:#ff0000;"/>
    <path clip-path="url(#p014aa19a7b)" d="M 303.390742 190.120254 
C 303.677194 190.120254 303.951952 190.006445 304.154505 189.803893 
C 304.357057 189.601341 304.470866 189.326583 304.470866 189.04013 
C 304.470866 188.753678 304.357057 188.47892 304.154505 188.276368 
C 303.951952 188.073816 303.677194 187.960007 303.390742 187.960007 
C 303.10429 187.960007 302.829532 188.073816 302.626979 188.276368 
C 302.424427 188.47892 302.310619 188.753678 302.310619 189.04013 
C 302.310619 189.326583 302.424427 189.601341 302.626979 189.803893 
C 302.829532 190.006445 303.10429 190.120254 303.390742 190.120254 
z
" style="fill:#ff0000;stroke:#ff0000;"/>
    <path clip-path="url(#p014aa19a7b)" d="M 310.812576 202.786494 
C 311.171663 202.786494 311.516091 202.643827 311.770003 202.389915 
C 312.023916 202.136002 312.166583 201.791574 312.166583 201.432488 
C 312.166583 201.073401 312.023916 200.728973 311.770003 200.475061 
C 311.516091 200.221148 311.171663 200.078481 310.812576 200.078481 
C 310.453489 200.078481 310.109062 200.221148 309.855149 200.475061 
C 309.601236 200.728973 309.45857 201.073401 309.45857 201.432488 
C 309.45857 201.791574 309.601236 202.136002 309.855149 202.389915 
C 310.109062 202.643827 310.453489 202.786494 310.812576 202.786494 
z
" style="fill:#ff0000;stroke:#ff0000;"/>
    <path clip-path="url(#p014aa19a7b)" d="M 318.275992 214.471626 
C 318.429107 214.471626 318.575972 214.410792 318.684241 214.302524 
C 318.792509 214.194255 318.853343 214.04739 318.853343 213.894275 
C 318.853343 213.74116 318.792509 213.594296 318.684241 213.486027 
C 318.575972 213.377758 318.429107 213.316925 318.275992 213.316925 
C 318.122877 213.316925 317.976013 213.377758 317.867744 213.486027 
C 317.759475 213.594296 317.698642 213.74116 317.698642 213.894275 
C 317.698642 214.04739 317.759475 214.194255 317.867744 214.302524 
C 317.976013 214.410792 318.122877 214.471626 318.275992 214.471626 
z
" style="fill:#ff0000;stroke:#ff0000;"/>
    <path clip-path="url(#p014aa19a7b)" d="M 207.466343 59.539831 
C 208.290893 59.539831 209.081782 59.212234 209.664827 58.629189 
C 210.247872 58.046144 210.575469 57.255255 210.575469 56.430705 
C 210.575469 55.606155 210.247872 54.815265 209.664827 54.232221 
C 209.081782 53.649176 208.290893 53.321579 207.466343 53.321579 
C 206.641793 53.321579 205.850903 53.649176 205.267859 54.232221 
C 204.684814 54.815265 204.357217 55.606155 204.357217 56.430705 
C 204.357217 57.255255 204.684814 58.046144 205.267859 58.629189 
C 205.850903 59.212234 206.641793 59.539831 207.466343 59.539831 
z
" style="fill:#ff0000;stroke:#ff0000;"/>
    <path clip-path="url(#p014aa19a7b)" d="M 197.459219 72.243245 
C 198.758443 72.243245 200.00463 71.727058 200.92332 70.808368 
C 201.842011 69.889677 202.358198 68.64349 202.358198 67.344266 
C 202.358198 66.045041 201.842011 64.798855 200.92332 63.880164 
C 200.00463 62.961474 198.758443 62.445286 197.459219 62.445286 
C 196.159994 62.445286 194.913808 62.961474 193.995117 63.880164 
C 193.076427 64.798855 192.560239 66.045041 192.560239 67.344266 
C 192.560239 68.64349 193.076427 69.889677 193.995117 70.808368 
C 194.913808 71.727058 196.159994 72.243245 197.459219 72.243245 
z
" style="fill:#ff0000;stroke:#ff0000;"/>
    <path clip-path="url(#p014aa19a7b)" d="M 187.428275 83.911118 
C 188.920657 83.911118 190.352115 83.318189 191.407388 82.262916 
C 192.46266 81.207643 193.05559 79.776185 193.05559 78.283804 
C 193.05559 76.791423 192.46266 75.359964 191.407388 74.304692 
C 190.352115 73.249419 188.920657 72.656489 187.428275 72.656489 
C 185.935894 72.656489 184.504436 73.249419 183.449163 74.304692 
C 182.39389 75.359964 181.800961 76.791423 181.800961 78.283804 
C 181.800961 79.776185 182.39389 81.207643 183.449163 82.262916 
C 184.504436 83.318189 185.935894 83.911118 187.428275 83.911118 
z
" style="fill:#ff0000;stroke:#ff0000;"/>
    <path clip-path="url(#p014aa19a7b)" d="M 177.373428 94.993974 
C 178.896903 94.993974 180.358187 94.38869 181.435447 93.31143 
C 182.512707 92.23417 183.11799 90.772887 183.11799 89.249411 
C 183.11799 87.725935 182.512707 86.264652 181.435447 85.187392 
C 180.358187 84.110132 178.896903 83.504849 177.373428 83.504849 
C 175.849952 83.504849 174.388669 84.110132 173.311408 85.187392 
C 172.234148 86.264652 171.628865 87.725935 171.628865 89.249411 
C 171.628865 90.772887 172.234148 92.23417 173.311408 93.31143 
C 174.388669 94.38869 175.849952 94.993974 177.373428 94.993974 
z
" style="fill:#ff0000;stroke:#ff0000;"/>
    <path clip-path="url(#p014aa19a7b)" d="M 167.29459 105.985744 
C 168.818066 105.985744 170.279349 105.380461 171.356609 104.303201 
C 172.433869 103.225941 173.039153 101.764657 173.039153 100.241182 
C 173.039153 98.717706 172.433869 97.256422 171.356609 96.179162 
C 170.279349 95.101902 168.818066 94.496619 167.29459 94.496619 
C 165.771114 94.496619 164.309831 95.101902 163.232571 96.179162 
C 162.155311 97.256422 161.550027 98.717706 161.550027 100.241182 
C 161.550027 101.764657 162.155311 103.225941 163.232571 104.303201 
C 164.309831 105.380461 165.771114 105.985744 167.29459 105.985744 
z
" style="fill:#ff0000;stroke:#ff0000;"/>
    <path clip-path="url(#p014aa19a7b)" d="M 157.191676 116.158188 
C 158.490901 116.158188 159.737088 115.642001 160.655778 114.72331 
C 161.574469 113.80462 162.090656 112.558433 162.090656 111.259209 
C 162.090656 109.959984 161.574469 108.713797 160.655778 107.795107 
C 159.737088 106.876416 158.490901 106.360229 157.191676 106.360229 
C 155.892452 106.360229 154.646265 106.876416 153.727575 107.795107 
C 152.808884 108.713797 152.292697 109.959984 152.292697 111.259209 
C 152.292697 112.558433 152.808884 113.80462 153.727575 114.72331 
C 154.646265 115.642001 155.892452 116.158188 157.191676 116.158188 
z
" style="fill:#ff0000;stroke:#ff0000;"/>
    <path clip-path="url(#p014aa19a7b)" d="M 147.064601 126.303586 
C 148.125413 126.303586 149.14292 125.882121 149.893028 125.132014 
C 150.643135 124.381906 151.064601 123.364399 151.064601 122.303586 
C 151.064601 121.242774 150.643135 120.225267 149.893028 119.475159 
C 149.14292 118.725052 148.125413 118.303586 147.064601 118.303586 
C 146.003788 118.303586 144.986281 118.725052 144.236174 119.475159 
C 143.486066 120.225267 143.064601 121.242774 143.064601 122.303586 
C 143.064601 123.364399 143.486066 124.381906 144.236174 125.132014 
C 144.986281 125.882121 146.003788 126.303586 147.064601 126.303586 
z
" style="fill:#ff0000;stroke:#ff0000;"/>
    <path clip-path="url(#p014aa19a7b)" d="M 136.913276 136.346502 
C 137.701484 136.346502 138.457515 136.033344 139.014863 135.475996 
C 139.57221 134.918649 139.885368 134.162618 139.885368 133.37441 
C 139.885368 132.586202 139.57221 131.83017 139.014863 131.272823 
C 138.457515 130.715476 137.701484 130.402317 136.913276 130.402317 
C 136.125068 130.402317 135.369036 130.715476 134.811689 131.272823 
C 134.254342 131.83017 133.941183 132.586202 133.941183 133.37441 
C 133.941183 134.162618 134.254342 134.918649 134.811689 135.475996 
C 135.369036 136.033344 136.125068 136.346502 136.913276 136.346502 
z
" style="fill:#ff0000;stroke:#ff0000;"/>
    <path clip-path="url(#p014aa19a7b)" d="M 126.737615 146.887003 
C 127.378141 146.887003 127.992519 146.632519 128.44544 146.179599 
C 128.89836 145.726678 129.152844 145.1123 129.152844 144.471774 
C 129.152844 143.831247 128.89836 143.216869 128.44544 142.763949 
C 127.992519 142.311028 127.378141 142.056544 126.737615 142.056544 
C 126.097088 142.056544 125.48271 142.311028 125.02979 142.763949 
C 124.576869 143.216869 124.322385 143.831247 124.322385 144.471774 
C 124.322385 145.1123 124.576869 145.726678 125.02979 146.179599 
C 125.48271 146.632519 126.097088 146.887003 126.737615 146.887003 
z
" style="fill:#ff0000;stroke:#ff0000;"/>
    <path clip-path="url(#p014aa19a7b)" d="M 116.53753 158.112385 
C 117.204943 158.112385 117.84511 157.847219 118.317043 157.375287 
C 118.788975 156.903354 119.054141 156.263187 119.054141 155.595774 
C 119.054141 154.928361 118.788975 154.288193 118.317043 153.816261 
C 117.84511 153.344328 117.204943 153.079162 116.53753 153.079162 
C 115.870117 153.079162 115.229949 153.344328 114.758017 153.816261 
C 114.286084 154.288193 114.020918 154.928361 114.020918 155.595774 
C 114.020918 156.263187 114.286084 156.903354 114.758017 157.375287 
C 115.229949 157.847219 115.870117 158.112385 116.53753 158.112385 
z
" style="fill:#ff0000;stroke:#ff0000;"/>
    <path clip-path="url(#p014aa19a7b)" d="M 106.312933 168.429757 
C 106.759336 168.429757 107.187516 168.252399 107.503171 167.936744 
C 107.818826 167.621089 107.996184 167.192909 107.996184 166.746506 
C 107.996184 166.300103 107.818826 165.871923 107.503171 165.556268 
C 107.187516 165.240613 106.759336 165.063255 106.312933 165.063255 
C 105.86653 165.063255 105.43835 165.240613 105.122695 165.556268 
C 104.80704 165.871923 104.629682 166.300103 104.629682 166.746506 
C 104.629682 167.192909 104.80704 167.621089 105.122695 167.936744 
C 105.43835 168.252399 105.86653 168.429757 106.312933 168.429757 
z
" style="fill:#ff0000;stroke:#ff0000;"/>
    <path clip-path="url(#p014aa19a7b)" d="M 96.063736 179.215061 
C 96.406111 179.215061 96.73451 179.079034 96.976607 178.836938 
C 97.218703 178.594842 97.35473 178.266443 97.35473 177.924067 
C 97.35473 177.581691 97.218703 177.253292 96.976607 177.011196 
C 96.73451 176.7691 96.406111 176.633072 96.063736 176.633072 
C 95.72136 176.633072 95.392961 176.7691 95.150865 177.011196 
C 94.908769 177.253292 94.772741 177.581691 94.772741 177.924067 
C 94.772741 178.266443 94.908769 178.594842 95.150865 178.836938 
C 95.392961 179.079034 95.72136 179.215061 96.063736 179.215061 
z
" style="fill:#ff0000;stroke:#ff0000;"/>
    <path clip-path="url(#p014aa19a7b)" d="M 85.789849 190.208677 
C 86.076301 190.208677 86.35106 190.094868 86.553612 189.892316 
C 86.756164 189.689764 86.869973 189.415006 86.869973 189.128553 
C 86.869973 188.842101 86.756164 188.567343 86.553612 188.364791 
C 86.35106 188.162239 86.076301 188.04843 85.789849 188.04843 
C 85.503397 188.04843 85.228639 188.162239 85.026087 188.364791 
C 84.823534 188.567343 84.709726 188.842101 84.709726 189.128553 
C 84.709726 189.415006 84.823534 189.689764 85.026087 189.892316 
C 85.228639 190.094868 85.503397 190.208677 85.789849 190.208677 
z
" style="fill:#ff0000;stroke:#ff0000;"/>
    <path clip-path="url(#p014aa19a7b)" d="M 75.491184 200.768311 
C 75.599453 200.768311 75.703302 200.725296 75.779859 200.648738 
C 75.856417 200.57218 75.899433 200.468332 75.899433 200.360063 
C 75.899433 200.251794 75.856417 200.147945 75.779859 200.071388 
C 75.703302 199.99483 75.599453 199.951815 75.491184 199.951815 
C 75.382916 199.951815 75.279067 199.99483 75.202509 200.071388 
C 75.125952 200.147945 75.082936 200.251794 75.082936 200.360063 
C 75.082936 200.468332 75.125952 200.57218 75.202509 200.648738 
C 75.279067 200.725296 75.382916 200.768311 75.491184 200.768311 
z
" style="fill:#ff0000;stroke:#ff0000;"/>
    <path clip-path="url(#p014aa19a7b)" d="M 308.024995 225.994559 
C 308.17811 225.994559 308.324974 225.933726 308.433243 225.825458 
C 308.541512 225.717189 308.602345 225.570324 308.602345 225.417209 
C 308.602345 225.264094 308.541512 225.11723 308.433243 225.008961 
C 308.324974 224.900692 308.17811 224.839859 308.024995 224.839859 
C 307.87188 224.839859 307.725015 224.900692 307.616746 225.008961 
C 307.508478 225.11723 307.447644 225.264094 307.447644 225.417209 
C 307.447644 225.570324 307.508478 225.717189 307.616746 225.825458 
C 307.725015 225.933726 307.87188 225.994559 308.024995 225.994559 
z
" style="fill:#ff0000;stroke:#ff0000;"/>
    <path clip-path="url(#p014aa19a7b)" d="M 290.324347 225.411505 
C 290.58955 225.411505 290.843927 225.306139 291.031454 225.118612 
C 291.218981 224.931085 291.324347 224.676708 291.324347 224.411505 
C 291.324347 224.146302 291.218981 223.891925 291.031454 223.704398 
C 290.843927 223.516871 290.58955 223.411505 290.324347 223.411505 
C 290.059144 223.411505 289.804767 223.516871 289.61724 223.704398 
C 289.429713 223.891925 289.324347 224.146302 289.324347 224.411505 
C 289.324347 224.676708 289.429713 224.931085 289.61724 225.118612 
C 289.804767 225.306139 290.059144 225.411505 290.324347 225.411505 
z
" style="fill:#ff0000;stroke:#ff0000;"/>
    <path clip-path="url(#p014aa19a7b)" d="M 272.679137 224.823164 
C 273.05419 224.823164 273.413933 224.674154 273.679137 224.40895 
C 273.94434 224.143747 274.09335 223.784004 274.09335 223.40895 
C 274.09335 223.033897 273.94434 222.674154 273.679137 222.40895 
C 273.413933 222.143747 273.05419 221.994737 272.679137 221.994737 
C 272.304083 221.994737 271.94434 222.143747 271.679137 222.40895 
C 271.413933 222.674154 271.264923 223.033897 271.264923 223.40895 
C 271.264923 223.784004 271.413933 224.143747 271.679137 224.40895 
C 271.94434 224.674154 272.304083 224.823164 272.679137 224.823164 
z
" style="fill:#ff0000;stroke:#ff0000;"/>
    <path clip-path="url(#p014aa19a7b)" d="M 255.089103 223.881491 
C 255.479471 223.881491 255.853904 223.726396 256.129936 223.450364 
C 256.405968 223.174332 256.561063 222.799899 256.561063 222.409531 
C 256.561063 222.019163 256.405968 221.64473 256.129936 221.368698 
C 255.853904 221.092666 255.479471 220.937571 255.089103 220.937571 
C 254.698735 220.937571 254.324302 221.092666 254.04827 221.368698 
C 253.772238 221.64473 253.617143 222.019163 253.617143 222.409531 
C 253.617143 222.799899 253.772238 223.174332 254.04827 223.450364 
C 254.324302 223.726396 254.698735 223.881491 255.089103 223.881491 
z
" style="fill:#ff0000;stroke:#ff0000;"/>
    <path clip-path="url(#p014aa19a7b)" d="M 237.553988 223.046225 
C 237.987063 223.046225 238.402459 222.874163 238.708689 222.567932 
C 239.014919 222.261702 239.186981 221.846307 239.186981 221.413232 
C 239.186981 220.980157 239.014919 220.564761 238.708689 220.258531 
C 238.402459 219.952301 237.987063 219.780239 237.553988 219.780239 
C 237.120913 219.780239 236.705518 219.952301 236.399288 220.258531 
C 236.093058 220.564761 235.920995 220.980157 235.920995 221.413232 
C 235.920995 221.846307 236.093058 222.261702 236.399288 222.567932 
C 236.705518 222.874163 237.120913 223.046225 237.553988 223.046225 
z
" style="fill:#ff0000;stroke:#ff0000;"/>
    <path clip-path="url(#p014aa19a7b)" d="M 220.073535 222.656106 
C 220.666547 222.656106 221.235351 222.4205 221.654674 222.001177 
C 222.073997 221.581854 222.309603 221.013051 222.309603 220.420038 
C 222.309603 219.827026 222.073997 219.258223 221.654674 218.8389 
C 221.235351 218.419577 220.666547 218.18397 220.073535 218.18397 
C 219.480523 218.18397 218.911719 218.419577 218.492396 218.8389 
C 218.073073 219.258223 217.837467 219.827026 217.837467 220.420038 
C 217.837467 221.013051 218.073073 221.581854 218.492396 222.001177 
C 218.911719 222.4205 219.480523 222.656106 220.073535 222.656106 
z
" style="fill:#ff0000;stroke:#ff0000;"/>
    <path clip-path="url(#p014aa19a7b)" d="M 202.647489 221.344791 
C 203.155314 221.344791 203.642408 221.143029 204.001495 220.783943 
C 204.360582 220.424856 204.562343 219.937762 204.562343 219.429936 
C 204.562343 218.922111 204.360582 218.435017 204.001495 218.07593 
C 203.642408 217.716843 203.155314 217.515082 202.647489 217.515082 
C 202.139664 217.515082 201.652569 217.716843 201.293482 218.07593 
C 200.934396 218.435017 200.732635 218.922111 200.732635 219.429936 
C 200.732635 219.937762 200.934396 220.424856 201.293482 220.783943 
C 201.652569 221.143029 202.139664 221.344791 202.647489 221.344791 
z
" style="fill:#ff0000;stroke:#ff0000;"/>
    <path clip-path="url(#p014aa19a7b)" d="M 185.275595 220.524577 
C 185.82766 220.524577 186.357187 220.30524 186.747556 219.914871 
C 187.137924 219.524503 187.357261 218.994975 187.357261 218.442911 
C 187.357261 217.890847 187.137924 217.361319 186.747556 216.970951 
C 186.357187 216.580582 185.82766 216.361245 185.275595 216.361245 
C 184.723531 216.361245 184.194004 216.580582 183.803635 216.970951 
C 183.413267 217.361319 183.193929 217.890847 183.193929 218.442911 
C 183.193929 218.994975 183.413267 219.524503 183.803635 219.914871 
C 184.194004 220.30524 184.723531 220.524577 185.275595 220.524577 
z
" style="fill:#ff0000;stroke:#ff0000;"/>
    <path clip-path="url(#p014aa19a7b)" d="M 167.957603 218.812955 
C 168.31669 218.812955 168.661118 218.670288 168.91503 218.416375 
C 169.168943 218.162463 169.311609 217.818035 169.311609 217.458948 
C 169.311609 217.099861 169.168943 216.755434 168.91503 216.501521 
C 168.661118 216.247608 168.31669 216.104942 167.957603 216.104942 
C 167.598516 216.104942 167.254089 216.247608 167.000176 216.501521 
C 166.746263 216.755434 166.603597 217.099861 166.603597 217.458948 
C 166.603597 217.818035 166.746263 218.162463 167.000176 218.416375 
C 167.254089 218.670288 167.598516 218.812955 167.957603 218.812955 
z
" style="fill:#ff0000;stroke:#ff0000;"/>
    <path clip-path="url(#p014aa19a7b)" d="M 150.693261 218.257547 
C 151.165194 218.257547 151.61786 218.070046 151.951567 217.736339 
C 152.285274 217.402633 152.472774 216.949966 152.472774 216.478034 
C 152.472774 216.006101 152.285274 215.553434 151.951567 215.219728 
C 151.61786 214.886021 151.165194 214.698521 150.693261 214.698521 
C 150.221329 214.698521 149.768662 214.886021 149.434955 215.219728 
C 149.101249 215.553434 148.913748 216.006101 148.913748 216.478034 
C 148.913748 216.949966 149.101249 217.402633 149.434955 217.736339 
C 149.768662 218.070046 150.221329 218.257547 150.693261 218.257547 
z
" style="fill:#ff0000;stroke:#ff0000;"/>
    <path clip-path="url(#p014aa19a7b)" d="M 133.482321 216.914367 
C 133.857375 216.914367 134.217118 216.765356 134.482321 216.500153 
C 134.747524 216.23495 134.896535 215.875207 134.896535 215.500153 
C 134.896535 215.125099 134.747524 214.765356 134.482321 214.500153 
C 134.217118 214.23495 133.857375 214.08594 133.482321 214.08594 
C 133.107267 214.08594 132.747524 214.23495 132.482321 214.500153 
C 132.217118 214.765356 132.068107 215.125099 132.068107 215.500153 
C 132.068107 215.875207 132.217118 216.23495 132.482321 216.500153 
C 132.747524 216.765356 133.107267 216.914367 133.482321 216.914367 
z
" style="fill:#ff0000;stroke:#ff0000;"/>
    <path clip-path="url(#p014aa19a7b)" d="M 116.324535 216.052818 
C 116.729639 216.052818 117.118206 215.891868 117.404658 215.605416 
C 117.69111 215.318964 117.85206 214.930397 117.85206 214.525293 
C 117.85206 214.120189 117.69111 213.731622 117.404658 213.445169 
C 117.118206 213.158717 116.729639 212.997768 116.324535 212.997768 
C 115.91943 212.997768 115.530864 213.158717 115.244411 213.445169 
C 114.957959 213.731622 114.79701 214.120189 114.79701 214.525293 
C 114.79701 214.930397 114.957959 215.318964 115.244411 215.605416 
C 115.530864 215.891868 115.91943 216.052818 116.324535 216.052818 
z
" style="fill:#ff0000;stroke:#ff0000;"/>
    <path clip-path="url(#p014aa19a7b)" d="M 99.219657 214.369935 
C 99.436195 214.369935 99.643892 214.283904 99.797007 214.130789 
C 99.950123 213.977674 100.036154 213.769976 100.036154 213.553439 
C 100.036154 213.336901 99.950123 213.129204 99.797007 212.976088 
C 99.643892 212.822973 99.436195 212.736942 99.219657 212.736942 
C 99.00312 212.736942 98.795422 212.822973 98.642307 212.976088 
C 98.489192 213.129204 98.403161 213.336901 98.403161 213.553439 
C 98.403161 213.769976 98.489192 213.977674 98.642307 214.130789 
C 98.795422 214.283904 99.00312 214.369935 99.219657 214.369935 
z
" style="fill:#ff0000;stroke:#ff0000;"/>
    <path clip-path="url(#p014aa19a7b)" d="M 82.167443 213.291684 
C 82.35497 213.291684 82.534842 213.217178 82.667443 213.084577 
C 82.800045 212.951975 82.87455 212.772104 82.87455 212.584577 
C 82.87455 212.39705 82.800045 212.217178 82.667443 212.084577 
C 82.534842 211.951975 82.35497 211.87747 82.167443 211.87747 
C 81.979917 211.87747 81.800045 211.951975 81.667443 212.084577 
C 81.534842 212.217178 81.460337 212.39705 81.460337 212.584577 
C 81.460337 212.772104 81.534842 212.951975 81.667443 213.084577 
C 81.800045 213.217178 81.979917 213.291684 82.167443 213.291684 
z
" style="fill:#ff0000;stroke:#ff0000;"/>
   </g>
   <g id="legend_1">
    <g id="patch_6">
     <path d="M 21.2 291.2 
L 294.2 291.2 
Q 297.2 291.2 297.2 288.2 
L 297.2 249.95 
Q 297.2 246.95 294.2 246.95 
L 21.2 246.95 
Q 18.2 246.95 18.2 249.95 
L 18.2 288.2 
Q 18.2 291.2 21.2 291.2 
z
" style="fill:#ffffff;opacity:0.8;stroke:#cccccc;stroke-linejoin:miter;"/>
    </g>
    <g id="Path3DCollection_3">
     <defs>
      <path d="M 0 5.131601 
C 1.360917 5.131601 2.666277 4.590904 3.62859 3.62859 
C 4.590904 2.666277 5.131601 1.360917 5.131601 0 
C 5.131601 -1.360917 4.590904 -2.666277 3.62859 -3.62859 
C 2.666277 -4.590904 1.360917 -5.131601 0 -5.131601 
C -1.360917 -5.131601 -2.666277 -4.590904 -3.62859 -3.62859 
C -4.590904 -2.666277 -5.131601 -1.360917 -5.131601 0 
C -5.131601 1.360917 -4.590904 2.666277 -3.62859 3.62859 
C -2.666277 4.590904 -1.360917 5.131601 0 5.131601 
z
" id="m48128191fe" style="stroke:#ff0000;"/>
     </defs>
     <g>
      <use style="fill:#ff0000;stroke:#ff0000;" x="39.2" xlink:href="#m48128191fe" y="259.5125"/>
     </g>
    </g>
    <g id="text_28">
     <!-- probability of absorbing state -->
     <defs>
      <path d="M 44.140625 23.828125 
Q 44.140625 12.5 38.671875 6.640625 
Q 33.203125 0.78125 25.390625 0.78125 
Q 21.09375 0.78125 17.96875 2.53125 
Q 14.84375 4.296875 12.5 7.8125 
L 12.5 -12.5 
L 4.6875 -12.5 
L 4.6875 45.703125 
L 12.5 45.703125 
L 12.5 39.84375 
Q 14.84375 43.359375 17.96875 44.921875 
Q 21.09375 46.484375 25.390625 46.484375 
Q 33.203125 46.484375 38.671875 40.8125 
Q 44.140625 35.15625 44.140625 23.828125 
z
M 35.546875 23.828125 
Q 35.546875 31.25 32.609375 35.34375 
Q 29.6875 39.453125 23.828125 39.453125 
Q 19.140625 39.453125 15.8125 35.34375 
Q 12.5 31.25 12.5 23.828125 
Q 12.5 16.40625 15.8125 12.109375 
Q 19.140625 7.8125 23.828125 7.8125 
Q 29.6875 7.8125 32.609375 12.109375 
Q 35.546875 16.40625 35.546875 23.828125 
z
" id="SimHei-70"/>
      <path d="M 39.0625 37.890625 
Q 31.640625 39.0625 26.5625 35.734375 
Q 21.484375 32.421875 17.96875 24.21875 
L 17.96875 1.953125 
L 10.15625 1.953125 
L 10.15625 45.703125 
L 17.96875 45.703125 
L 17.96875 34.375 
Q 21.484375 40.625 26.75 43.546875 
Q 32.03125 46.484375 39.0625 46.484375 
z
" id="SimHei-72"/>
      <path d="M 44.140625 23.828125 
Q 44.140625 12.5 38.671875 6.828125 
Q 33.203125 1.171875 25.390625 1.171875 
Q 21.09375 1.171875 17.96875 2.734375 
Q 14.84375 4.296875 12.5 7.8125 
L 12.5 1.953125 
L 4.6875 1.953125 
L 4.6875 68.75 
L 12.5 68.75 
L 12.5 39.84375 
Q 14.84375 43.359375 17.96875 45.109375 
Q 21.09375 46.875 25.390625 46.875 
Q 33.203125 46.875 38.671875 41.015625 
Q 44.140625 35.15625 44.140625 23.828125 
z
M 35.546875 23.828125 
Q 35.546875 31.25 32.609375 35.546875 
Q 29.6875 39.84375 23.828125 39.84375 
Q 19.140625 39.84375 15.8125 35.546875 
Q 12.5 31.25 12.5 23.828125 
Q 12.5 16.40625 15.8125 12.296875 
Q 19.140625 8.203125 23.828125 8.203125 
Q 29.6875 8.203125 32.609375 12.296875 
Q 35.546875 16.40625 35.546875 23.828125 
z
" id="SimHei-62"/>
      <path d="M 44.921875 1.953125 
L 35.546875 1.953125 
Q 34.765625 2.734375 34.375 4.09375 
Q 33.984375 5.46875 33.984375 7.421875 
Q 31.25 4.296875 27.34375 2.734375 
Q 23.4375 1.171875 19.140625 1.171875 
Q 12.890625 1.171875 8.59375 4.296875 
Q 4.296875 7.421875 4.296875 13.28125 
Q 4.296875 19.140625 8.203125 22.65625 
Q 12.109375 26.171875 20.3125 27.34375 
Q 25.78125 28.125 29.875 29.296875 
Q 33.984375 30.46875 33.984375 32.421875 
Q 33.984375 34.765625 32.21875 37.109375 
Q 30.46875 39.453125 24.609375 39.453125 
Q 19.921875 39.453125 17.765625 37.6875 
Q 15.625 35.9375 14.84375 32.8125 
L 6.25 32.8125 
Q 7.03125 39.0625 11.90625 42.765625 
Q 16.796875 46.484375 24.609375 46.484375 
Q 33.203125 46.484375 37.5 42.578125 
Q 41.796875 38.671875 41.796875 31.640625 
L 41.796875 10.15625 
Q 41.796875 7.8125 42.578125 5.859375 
Q 43.359375 3.90625 44.921875 1.953125 
z
M 33.984375 16.40625 
L 33.984375 24.21875 
Q 31.640625 23.4375 29.484375 22.84375 
Q 27.34375 22.265625 22.265625 21.484375 
Q 16.40625 20.703125 14.640625 18.75 
Q 12.890625 16.796875 12.890625 14.0625 
Q 12.890625 11.71875 14.640625 9.953125 
Q 16.40625 8.203125 19.921875 8.203125 
Q 23.4375 8.203125 27.53125 10.15625 
Q 31.640625 12.109375 33.984375 16.40625 
z
" id="SimHei-61"/>
      <path d="M 28.515625 1.953125 
L 20.703125 1.953125 
L 20.703125 68.75 
L 28.515625 68.75 
z
" id="SimHei-6c"/>
      <path d="M 42.96875 3.125 
Q 41.015625 2.34375 38.46875 1.75 
Q 35.9375 1.171875 31.640625 1.171875 
Q 24.609375 1.171875 20.3125 5.078125 
Q 16.015625 8.984375 16.015625 16.015625 
L 16.015625 39.453125 
L 2.734375 39.453125 
L 2.734375 45.703125 
L 16.015625 45.703125 
L 16.015625 60.9375 
L 23.828125 60.9375 
L 23.828125 45.703125 
L 39.84375 45.703125 
L 39.84375 39.453125 
L 23.828125 39.453125 
L 23.828125 15.625 
Q 23.828125 12.5 25.390625 10.34375 
Q 26.953125 8.203125 31.25 8.203125 
Q 35.546875 8.203125 38.28125 8.984375 
Q 41.015625 9.765625 42.96875 10.9375 
z
" id="SimHei-74"/>
      <path d="M 45.3125 45.703125 
L 27.34375 -1.5625 
Q 25.78125 -7.03125 22.65625 -9.765625 
Q 19.53125 -12.5 14.84375 -12.5 
Q 12.890625 -12.5 11.125 -12.296875 
Q 9.375 -12.109375 7.8125 -11.328125 
L 7.8125 -3.515625 
Q 9.375 -4.296875 10.9375 -4.6875 
Q 12.5 -5.078125 13.671875 -5.078125 
Q 16.796875 -5.078125 17.96875 -4.09375 
Q 19.140625 -3.125 20.3125 0.390625 
L 3.125 45.703125 
L 11.71875 45.703125 
L 24.21875 11.328125 
L 24.609375 11.328125 
L 36.71875 45.703125 
z
" id="SimHei-79"/>
      <path d="M 46.484375 39.0625 
Q 43.75 39.84375 41.203125 40.03125 
Q 38.671875 40.234375 35.9375 39.453125 
Q 37.109375 38.28125 37.890625 36.515625 
Q 38.671875 34.765625 38.671875 31.25 
Q 38.671875 24.609375 34.171875 20.3125 
Q 29.6875 16.015625 23.046875 16.015625 
Q 21.484375 16.015625 18.9375 16.59375 
Q 16.40625 17.1875 14.84375 17.96875 
Q 13.671875 17.1875 13.28125 16.40625 
Q 12.890625 15.625 12.890625 14.453125 
Q 12.890625 12.5 15.625 11.515625 
Q 18.359375 10.546875 25.390625 10.546875 
Q 36.71875 10.546875 40.8125 7.421875 
Q 44.921875 4.296875 44.921875 -0.390625 
Q 44.921875 -6.640625 38.859375 -9.5625 
Q 32.8125 -12.5 24.609375 -12.5 
Q 14.0625 -12.5 8.984375 -9.765625 
Q 3.90625 -7.03125 3.90625 -2.34375 
Q 3.90625 0 5.859375 2.34375 
Q 7.8125 4.6875 10.9375 6.25 
Q 8.59375 7.421875 7.21875 9.171875 
Q 5.859375 10.9375 5.859375 13.671875 
Q 5.859375 16.015625 7.609375 17.765625 
Q 9.375 19.53125 11.71875 20.703125 
Q 9.765625 22.65625 8.59375 25.390625 
Q 7.421875 28.125 7.421875 31.25 
Q 7.421875 37.890625 11.90625 42.1875 
Q 16.40625 46.484375 23.046875 46.484375 
Q 26.5625 46.484375 29.09375 45.5 
Q 31.640625 44.53125 33.59375 42.578125 
Q 36.71875 44.921875 39.84375 45.890625 
Q 42.96875 46.875 46.484375 46.484375 
z
M 30.859375 31.25 
Q 30.859375 35.15625 28.90625 37.5 
Q 26.953125 39.84375 23.046875 39.84375 
Q 19.140625 39.84375 17.1875 37.5 
Q 15.234375 35.15625 15.234375 31.25 
Q 15.234375 27.34375 17.1875 25 
Q 19.140625 22.65625 23.046875 22.65625 
Q 26.953125 22.65625 28.90625 25 
Q 30.859375 27.34375 30.859375 31.25 
z
M 37.5 -1.171875 
Q 37.5 0.390625 35.734375 1.953125 
Q 33.984375 3.515625 26.953125 3.515625 
Q 25.390625 3.515625 22.65625 3.703125 
Q 19.921875 3.90625 16.40625 4.296875 
Q 13.28125 3.125 12.109375 1.5625 
Q 10.9375 0 10.9375 -1.5625 
Q 10.9375 -3.90625 14.0625 -5.46875 
Q 17.1875 -7.03125 25 -7.03125 
Q 31.640625 -7.03125 34.5625 -5.265625 
Q 37.5 -3.515625 37.5 -1.171875 
z
" id="SimHei-67"/>
      <path d="M 44.53125 16.796875 
Q 43.75 9.765625 38.28125 5.46875 
Q 32.8125 1.171875 25.390625 1.171875 
Q 16.015625 1.171875 9.953125 7.21875 
Q 3.90625 13.28125 3.90625 23.828125 
Q 3.90625 34.375 9.953125 40.421875 
Q 16.015625 46.484375 25.390625 46.484375 
Q 33.59375 46.484375 38.859375 41.203125 
Q 44.140625 35.9375 44.140625 23.828125 
L 12.5 23.828125 
Q 12.5 15.234375 16.203125 11.71875 
Q 19.921875 8.203125 25.390625 8.203125 
Q 29.6875 8.203125 32.421875 10.34375 
Q 35.15625 12.5 35.9375 16.796875 
z
M 35.15625 30.078125 
Q 34.375 35.546875 31.640625 37.6875 
Q 28.90625 39.84375 24.609375 39.84375 
Q 20.703125 39.84375 17.578125 37.6875 
Q 14.453125 35.546875 12.890625 30.078125 
z
" id="SimHei-65"/>
     </defs>
     <g transform="translate(66.2 263.45)scale(0.15 -0.15)">
      <use xlink:href="#SimHei-70"/>
      <use x="50" xlink:href="#SimHei-72"/>
      <use x="100" xlink:href="#SimHei-6f"/>
      <use x="150" xlink:href="#SimHei-62"/>
      <use x="200" xlink:href="#SimHei-61"/>
      <use x="250" xlink:href="#SimHei-62"/>
      <use x="300" xlink:href="#SimHei-69"/>
      <use x="350" xlink:href="#SimHei-6c"/>
      <use x="400" xlink:href="#SimHei-69"/>
      <use x="450" xlink:href="#SimHei-74"/>
      <use x="500" xlink:href="#SimHei-79"/>
      <use x="550" xlink:href="#SimHei-20"/>
      <use x="600" xlink:href="#SimHei-6f"/>
      <use x="650" xlink:href="#SimHei-66"/>
      <use x="700" xlink:href="#SimHei-20"/>
      <use x="750" xlink:href="#SimHei-61"/>
      <use x="800" xlink:href="#SimHei-62"/>
      <use x="850" xlink:href="#SimHei-73"/>
      <use x="900" xlink:href="#SimHei-6f"/>
      <use x="950" xlink:href="#SimHei-72"/>
      <use x="1000" xlink:href="#SimHei-62"/>
      <use x="1050" xlink:href="#SimHei-69"/>
      <use x="1100" xlink:href="#SimHei-6e"/>
      <use x="1150" xlink:href="#SimHei-67"/>
      <use x="1200" xlink:href="#SimHei-20"/>
      <use x="1250" xlink:href="#SimHei-73"/>
      <use x="1300" xlink:href="#SimHei-74"/>
      <use x="1350" xlink:href="#SimHei-61"/>
      <use x="1400" xlink:href="#SimHei-74"/>
      <use x="1450" xlink:href="#SimHei-65"/>
     </g>
    </g>
    <g id="Path3DCollection_4">
     <g>
      <use style="fill:#008000;stroke:#008000;" x="39.2" xlink:href="#m61c2c81728" y="279.3875"/>
     </g>
    </g>
    <g id="text_29">
     <!-- start state -->
     <g transform="translate(66.2 283.325)scale(0.15 -0.15)">
      <use xlink:href="#SimHei-73"/>
      <use x="50" xlink:href="#SimHei-74"/>
      <use x="100" xlink:href="#SimHei-61"/>
      <use x="150" xlink:href="#SimHei-72"/>
      <use x="200" xlink:href="#SimHei-74"/>
      <use x="250" xlink:href="#SimHei-20"/>
      <use x="300" xlink:href="#SimHei-73"/>
      <use x="350" xlink:href="#SimHei-74"/>
      <use x="400" xlink:href="#SimHei-61"/>
      <use x="450" xlink:href="#SimHei-74"/>
      <use x="500" xlink:href="#SimHei-65"/>
     </g>
    </g>
   </g>
  </g>
 </g>
 <defs>
  <clipPath id="p014aa19a7b">
   <rect height="288" width="360" x="10.7" y="10.7"/>
  </clipPath>
 </defs>
</svg>
