<?xml version="1.0" encoding="utf-8" standalone="no"?>
<!DOCTYPE svg PUBLIC "-//W3C//DTD SVG 1.1//EN"
  "http://www.w3.org/Graphics/SVG/1.1/DTD/svg11.dtd">
<!-- Created with matplotlib (http://matplotlib.org/) -->
<svg height="360pt" version="1.1" viewBox="0 0 1080 360" width="1080pt" xmlns="http://www.w3.org/2000/svg" xmlns:xlink="http://www.w3.org/1999/xlink">
 <defs>
  <style type="text/css">
*{stroke-linecap:butt;stroke-linejoin:round;}
  </style>
 </defs>
 <g id="figure_1">
  <g id="patch_1">
   <path d="M 0 360 
L 1080 360 
L 1080 0 
L 0 0 
z
" style="fill:#ffffff;"/>
  </g>
  <g id="axes_1">
   <g id="patch_2">
    <path d="M 135 315 
L 972 315 
L 972 43.2 
L 135 43.2 
z
" style="fill:#ffffff;"/>
   </g>
   <g id="matplotlib.axis_1">
    <g id="xtick_1">
     <g id="line2d_1">
      <defs>
       <path d="M 0 0 
L 0 3.5 
" id="m7a272ca486" style="stroke:#000000;stroke-width:0.8;"/>
      </defs>
      <g>
       <use style="stroke:#000000;stroke-width:0.8;" x="173.045455" xlink:href="#m7a272ca486" y="315"/>
      </g>
     </g>
     <g id="text_1">
      <!-- 0 -->
      <defs>
       <path d="M 3.125 29.296875 
Q 3.90625 50 6.4375 56.046875 
Q 8.984375 62.109375 13.671875 66.015625 
Q 18.359375 69.921875 25.1875 69.921875 
Q 32.03125 69.921875 37.109375 64.25 
Q 42.1875 58.59375 43.75 50 
Q 45.3125 41.40625 44.71875 30.265625 
Q 44.140625 19.140625 40.8125 12.109375 
Q 37.5 5.078125 30.859375 2.34375 
Q 24.21875 -0.390625 17.578125 2.921875 
Q 10.9375 6.25 8.203125 11.71875 
Q 5.46875 17.1875 4.296875 23.234375 
Q 3.125 29.296875 3.90625 50 
z
M 12.890625 52.734375 
Q 10.546875 31.25 12.5 22.84375 
Q 14.453125 14.453125 18.9375 10.9375 
Q 23.4375 7.421875 28.125 9.5625 
Q 32.8125 11.71875 34.953125 18.15625 
Q 37.109375 24.609375 37.109375 32.21875 
Q 37.109375 39.84375 36.515625 46.09375 
Q 35.9375 52.34375 33 57.421875 
Q 30.078125 62.5 25.1875 62.6875 
Q 20.3125 62.890625 16.59375 57.8125 
Q 12.890625 52.734375 10.546875 31.25 
z
" id="SimHei-30"/>
      </defs>
      <g transform="translate(169.295455 332.3125)scale(0.15 -0.15)">
       <use xlink:href="#SimHei-30"/>
      </g>
     </g>
    </g>
    <g id="xtick_2">
     <g id="line2d_2">
      <g>
       <use style="stroke:#000000;stroke-width:0.8;" x="342.136364" xlink:href="#m7a272ca486" y="315"/>
      </g>
     </g>
     <g id="text_2">
      <!-- 20 -->
      <defs>
       <path d="M 4.6875 3.90625 
Q 5.078125 9.765625 10.15625 14.453125 
Q 15.234375 19.140625 23.046875 29.09375 
Q 30.859375 39.0625 33.203125 44.53125 
Q 35.546875 50 34.953125 53.90625 
Q 34.375 57.8125 31.25 60.34375 
Q 28.125 62.890625 24.015625 62.5 
Q 19.921875 62.109375 16.203125 59.375 
Q 12.5 56.640625 10.546875 51.171875 
L 3.125 52.34375 
Q 6.25 61.328125 11.125 65.421875 
Q 16.015625 69.53125 22.65625 69.921875 
Q 26.5625 70.3125 29.6875 69.71875 
Q 32.8125 69.140625 36.125 66.984375 
Q 39.453125 64.84375 41.59375 60.546875 
Q 43.75 56.25 43.15625 50.1875 
Q 42.578125 44.140625 37.109375 35.734375 
Q 31.640625 27.34375 16.015625 9.375 
L 44.140625 9.375 
L 44.140625 2.34375 
L 4.6875 2.34375 
z
" id="SimHei-32"/>
      </defs>
      <g transform="translate(334.636364 332.3125)scale(0.15 -0.15)">
       <use xlink:href="#SimHei-32"/>
       <use x="50" xlink:href="#SimHei-30"/>
      </g>
     </g>
    </g>
    <g id="xtick_3">
     <g id="line2d_3">
      <g>
       <use style="stroke:#000000;stroke-width:0.8;" x="511.227273" xlink:href="#m7a272ca486" y="315"/>
      </g>
     </g>
     <g id="text_3">
      <!-- 40 -->
      <defs>
       <path d="M 31.25 17.1875 
L 1.171875 17.1875 
L 1.171875 23.828125 
L 32.8125 69.53125 
L 38.671875 69.53125 
L 38.671875 23.828125 
L 48.046875 23.828125 
L 48.046875 17.1875 
L 38.671875 17.1875 
L 38.671875 2.34375 
L 31.25 2.34375 
z
M 31.25 23.828125 
L 31.25 54.6875 
L 9.375 23.828125 
z
" id="SimHei-34"/>
      </defs>
      <g transform="translate(503.727273 332.3125)scale(0.15 -0.15)">
       <use xlink:href="#SimHei-34"/>
       <use x="50" xlink:href="#SimHei-30"/>
      </g>
     </g>
    </g>
    <g id="xtick_4">
     <g id="line2d_4">
      <g>
       <use style="stroke:#000000;stroke-width:0.8;" x="680.318182" xlink:href="#m7a272ca486" y="315"/>
      </g>
     </g>
     <g id="text_4">
      <!-- 60 -->
      <defs>
       <path d="M 3.515625 19.53125 
Q 4.296875 30.859375 6.046875 34.765625 
Q 7.8125 38.671875 11.328125 44.53125 
L 27.34375 69.53125 
L 36.328125 69.53125 
L 19.921875 43.75 
Q 30.46875 46.484375 36.71875 42.96875 
Q 42.96875 39.453125 45.109375 34.953125 
Q 47.265625 30.46875 47.453125 25.1875 
Q 47.65625 19.921875 45.890625 14.84375 
Q 44.140625 9.765625 39.640625 5.65625 
Q 35.15625 1.5625 27.140625 1.171875 
Q 19.140625 0.78125 13.46875 4.09375 
Q 7.8125 7.421875 5.65625 13.46875 
Q 3.515625 19.53125 4.296875 30.859375 
z
M 12.5 16.015625 
Q 19.53125 8.59375 25.390625 8.203125 
Q 31.25 7.8125 35.15625 12.109375 
Q 39.0625 16.40625 39.0625 24.609375 
Q 39.0625 32.8125 34.171875 35.9375 
Q 29.296875 39.0625 23.234375 38.28125 
Q 17.1875 37.5 14.453125 32.421875 
Q 11.71875 27.34375 12.109375 21.671875 
Q 12.5 16.015625 19.53125 8.59375 
z
" id="SimHei-36"/>
      </defs>
      <g transform="translate(672.818182 332.3125)scale(0.15 -0.15)">
       <use xlink:href="#SimHei-36"/>
       <use x="50" xlink:href="#SimHei-30"/>
      </g>
     </g>
    </g>
    <g id="xtick_5">
     <g id="line2d_5">
      <g>
       <use style="stroke:#000000;stroke-width:0.8;" x="849.409091" xlink:href="#m7a272ca486" y="315"/>
      </g>
     </g>
     <g id="text_5">
      <!-- 80 -->
      <defs>
       <path d="M 2.734375 16.796875 
Q 2.734375 26.171875 5.078125 30.65625 
Q 7.421875 35.15625 12.890625 37.890625 
Q 8.203125 40.625 6.640625 43.9375 
Q 5.078125 47.265625 4.875 51.5625 
Q 4.6875 55.859375 6.046875 58.984375 
Q 7.421875 62.109375 10.15625 64.84375 
Q 12.890625 67.578125 16.203125 68.546875 
Q 19.53125 69.53125 23.4375 69.53125 
Q 27.34375 69.53125 30.46875 68.75 
Q 33.59375 67.96875 37.109375 65.421875 
Q 40.625 62.890625 42.1875 58.203125 
Q 43.75 53.515625 41.984375 47.265625 
Q 40.234375 41.015625 32.8125 37.5 
Q 39.453125 35.546875 42.1875 31.4375 
Q 44.921875 27.34375 44.921875 21.484375 
Q 44.921875 15.625 43.15625 12.109375 
Q 41.40625 8.59375 39.25 6.25 
Q 37.109375 3.90625 33.390625 2.53125 
Q 29.6875 1.171875 24.015625 1.171875 
Q 18.359375 1.171875 14.25 2.53125 
Q 10.15625 3.90625 7.421875 6.640625 
Q 4.6875 9.375 3.703125 13.078125 
Q 2.734375 16.796875 2.734375 26.171875 
z
M 10.9375 26.5625 
Q 10.546875 17.1875 12.296875 13.671875 
Q 14.0625 10.15625 18.75 9.171875 
Q 23.4375 8.203125 28.515625 9.375 
Q 33.59375 10.546875 35.546875 14.84375 
Q 37.5 19.140625 36.90625 23.4375 
Q 36.328125 27.734375 32.03125 30.65625 
Q 27.734375 33.59375 22.65625 33.203125 
Q 17.578125 32.8125 14.25 29.6875 
Q 10.9375 26.5625 10.546875 17.1875 
z
M 12.109375 56.25 
Q 12.109375 48.4375 14.84375 44.921875 
Q 17.578125 41.40625 23.4375 41.40625 
Q 29.296875 41.40625 32.21875 44.921875 
Q 35.15625 48.4375 34.953125 53.3125 
Q 34.765625 58.203125 31.4375 60.546875 
Q 28.125 62.890625 22.453125 62.5 
Q 16.796875 62.109375 14.453125 59.171875 
Q 12.109375 56.25 12.109375 48.4375 
z
" id="SimHei-38"/>
      </defs>
      <g transform="translate(841.909091 332.3125)scale(0.15 -0.15)">
       <use xlink:href="#SimHei-38"/>
       <use x="50" xlink:href="#SimHei-30"/>
      </g>
     </g>
    </g>
    <g id="text_6">
     <!-- Index of non recurrent state -->
     <defs>
      <path d="M 28.90625 1.953125 
L 19.921875 1.953125 
L 19.921875 68.75 
L 28.90625 68.75 
z
" id="SimHei-49"/>
      <path d="M 43.75 1.953125 
L 35.9375 1.953125 
L 35.9375 30.078125 
Q 35.9375 34.765625 33.59375 37.5 
Q 31.25 40.234375 27.34375 40.234375 
Q 22.265625 40.234375 17.765625 34.953125 
Q 13.28125 29.6875 13.28125 21.875 
L 13.28125 1.953125 
L 5.46875 1.953125 
L 5.46875 45.703125 
L 13.28125 45.703125 
L 13.28125 37.5 
Q 16.40625 41.796875 20.109375 44.140625 
Q 23.828125 46.484375 29.6875 46.484375 
Q 36.71875 46.484375 40.234375 42.578125 
Q 43.75 38.671875 43.75 32.8125 
z
" id="SimHei-6e"/>
      <path d="M 42.96875 1.953125 
L 35.15625 1.953125 
L 35.15625 7.8125 
Q 32.8125 4.296875 29.6875 2.734375 
Q 26.5625 1.171875 22.265625 1.171875 
Q 14.453125 1.171875 8.984375 6.828125 
Q 3.515625 12.5 3.515625 23.828125 
Q 3.515625 35.15625 8.984375 41.015625 
Q 14.453125 46.875 22.265625 46.875 
Q 26.5625 46.875 29.6875 45.109375 
Q 32.8125 43.359375 35.15625 39.84375 
L 35.15625 68.75 
L 42.96875 68.75 
z
M 35.15625 23.828125 
Q 35.15625 31.25 31.828125 35.546875 
Q 28.515625 39.84375 23.828125 39.84375 
Q 17.96875 39.84375 15.03125 35.546875 
Q 12.109375 31.25 12.109375 23.828125 
Q 12.109375 16.40625 15.03125 12.296875 
Q 17.96875 8.203125 23.828125 8.203125 
Q 28.515625 8.203125 31.828125 12.296875 
Q 35.15625 16.40625 35.15625 23.828125 
z
" id="SimHei-64"/>
      <path d="M 44.53125 16.796875 
Q 43.75 9.765625 38.28125 5.46875 
Q 32.8125 1.171875 25.390625 1.171875 
Q 16.015625 1.171875 9.953125 7.21875 
Q 3.90625 13.28125 3.90625 23.828125 
Q 3.90625 34.375 9.953125 40.421875 
Q 16.015625 46.484375 25.390625 46.484375 
Q 33.59375 46.484375 38.859375 41.203125 
Q 44.140625 35.9375 44.140625 23.828125 
L 12.5 23.828125 
Q 12.5 15.234375 16.203125 11.71875 
Q 19.921875 8.203125 25.390625 8.203125 
Q 29.6875 8.203125 32.421875 10.34375 
Q 35.15625 12.5 35.9375 16.796875 
z
M 35.15625 30.078125 
Q 34.375 35.546875 31.640625 37.6875 
Q 28.90625 39.84375 24.609375 39.84375 
Q 20.703125 39.84375 17.578125 37.6875 
Q 14.453125 35.546875 12.890625 30.078125 
z
" id="SimHei-65"/>
      <path d="M 44.921875 1.953125 
L 35.546875 1.953125 
L 24.21875 18.75 
L 12.890625 1.953125 
L 3.515625 1.953125 
L 19.53125 24.21875 
L 4.6875 45.703125 
L 14.0625 45.703125 
L 24.21875 29.296875 
L 34.375 45.703125 
L 43.75 45.703125 
L 28.90625 24.21875 
z
" id="SimHei-78"/>
      <path id="SimHei-20"/>
      <path d="M 45.703125 23.828125 
Q 45.703125 13.671875 39.453125 7.421875 
Q 33.203125 1.171875 24.609375 1.171875 
Q 16.015625 1.171875 9.765625 7.421875 
Q 3.515625 13.671875 3.515625 23.828125 
Q 3.515625 33.984375 9.765625 40.234375 
Q 16.015625 46.484375 24.609375 46.484375 
Q 33.203125 46.484375 39.453125 40.234375 
Q 45.703125 33.984375 45.703125 23.828125 
z
M 37.109375 23.828125 
Q 37.109375 31.640625 33.203125 35.546875 
Q 29.296875 39.453125 24.609375 39.453125 
Q 19.921875 39.453125 16.015625 35.546875 
Q 12.109375 31.640625 12.109375 23.828125 
Q 12.109375 16.015625 16.015625 12.109375 
Q 19.921875 8.203125 24.609375 8.203125 
Q 29.296875 8.203125 33.203125 12.109375 
Q 37.109375 16.015625 37.109375 23.828125 
z
" id="SimHei-6f"/>
      <path d="M 44.53125 59.765625 
Q 42.578125 60.9375 39.84375 61.71875 
Q 37.109375 62.5 32.8125 62.5 
Q 28.515625 62.5 26.953125 60.34375 
Q 25.390625 58.203125 25.390625 55.078125 
L 25.390625 45.703125 
L 41.40625 45.703125 
L 41.40625 39.453125 
L 25.390625 39.453125 
L 25.390625 1.953125 
L 17.578125 1.953125 
L 17.578125 39.453125 
L 4.296875 39.453125 
L 4.296875 45.703125 
L 17.578125 45.703125 
L 17.578125 54.6875 
Q 17.578125 61.71875 21.875 65.625 
Q 26.171875 69.53125 33.203125 69.53125 
Q 37.5 69.53125 40.03125 68.9375 
Q 42.578125 68.359375 44.53125 67.578125 
z
" id="SimHei-66"/>
      <path d="M 39.0625 37.890625 
Q 31.640625 39.0625 26.5625 35.734375 
Q 21.484375 32.421875 17.96875 24.21875 
L 17.96875 1.953125 
L 10.15625 1.953125 
L 10.15625 45.703125 
L 17.96875 45.703125 
L 17.96875 34.375 
Q 21.484375 40.625 26.75 43.546875 
Q 32.03125 46.484375 39.0625 46.484375 
z
" id="SimHei-72"/>
      <path d="M 44.53125 19.53125 
Q 44.53125 11.328125 38.859375 6.25 
Q 33.203125 1.171875 24.609375 1.171875 
Q 16.015625 1.171875 9.765625 7.21875 
Q 3.515625 13.28125 3.515625 23.828125 
Q 3.515625 34.375 9.765625 40.421875 
Q 16.015625 46.484375 24.609375 46.484375 
Q 33.203125 46.484375 38.28125 41.984375 
Q 43.359375 37.5 43.359375 31.25 
L 34.765625 31.25 
Q 34.375 35.9375 31.4375 37.6875 
Q 28.515625 39.453125 24.609375 39.453125 
Q 19.921875 39.453125 16.015625 35.734375 
Q 12.109375 32.03125 12.109375 23.828125 
Q 12.109375 15.625 16.015625 11.90625 
Q 19.921875 8.203125 24.609375 8.203125 
Q 29.6875 8.203125 32.8125 10.9375 
Q 35.9375 13.671875 35.9375 19.53125 
z
" id="SimHei-63"/>
      <path d="M 43.75 1.953125 
L 35.9375 1.953125 
L 35.9375 10.15625 
Q 32.8125 5.859375 29.09375 3.515625 
Q 25.390625 1.171875 19.53125 1.171875 
Q 12.5 1.171875 8.984375 5.078125 
Q 5.46875 8.984375 5.46875 14.84375 
L 5.46875 45.703125 
L 13.28125 45.703125 
L 13.28125 17.578125 
Q 13.28125 12.890625 15.625 10.15625 
Q 17.96875 7.421875 21.875 7.421875 
Q 26.953125 7.421875 31.4375 12.6875 
Q 35.9375 17.96875 35.9375 25.78125 
L 35.9375 45.703125 
L 43.75 45.703125 
z
" id="SimHei-75"/>
      <path d="M 42.96875 3.125 
Q 41.015625 2.34375 38.46875 1.75 
Q 35.9375 1.171875 31.640625 1.171875 
Q 24.609375 1.171875 20.3125 5.078125 
Q 16.015625 8.984375 16.015625 16.015625 
L 16.015625 39.453125 
L 2.734375 39.453125 
L 2.734375 45.703125 
L 16.015625 45.703125 
L 16.015625 60.9375 
L 23.828125 60.9375 
L 23.828125 45.703125 
L 39.84375 45.703125 
L 39.84375 39.453125 
L 23.828125 39.453125 
L 23.828125 15.625 
Q 23.828125 12.5 25.390625 10.34375 
Q 26.953125 8.203125 31.25 8.203125 
Q 35.546875 8.203125 38.28125 8.984375 
Q 41.015625 9.765625 42.96875 10.9375 
z
" id="SimHei-74"/>
      <path d="M 42.96875 14.0625 
Q 42.96875 7.8125 38.078125 4.484375 
Q 33.203125 1.171875 25.78125 1.171875 
Q 16.40625 1.171875 11.328125 4.875 
Q 6.25 8.59375 6.25 15.625 
L 14.0625 15.625 
Q 14.0625 10.9375 17.375 9.375 
Q 20.703125 7.8125 25.390625 7.8125 
Q 30.078125 7.8125 32.421875 9.5625 
Q 34.765625 11.328125 34.765625 14.0625 
Q 34.765625 16.015625 32.8125 17.96875 
Q 30.859375 19.921875 23.046875 21.09375 
Q 14.0625 22.265625 10.734375 25.578125 
Q 7.421875 28.90625 7.421875 34.375 
Q 7.421875 39.0625 11.90625 42.765625 
Q 16.40625 46.484375 25 46.484375 
Q 32.8125 46.484375 37.296875 42.96875 
Q 41.796875 39.453125 41.796875 33.59375 
L 33.984375 33.59375 
Q 33.984375 37.109375 31.4375 38.46875 
Q 28.90625 39.84375 25 39.84375 
Q 19.921875 39.84375 17.765625 38.078125 
Q 15.625 36.328125 15.625 33.984375 
Q 15.625 31.25 17.578125 29.6875 
Q 19.53125 28.125 25.78125 27.34375 
Q 35.9375 25.78125 39.453125 22.453125 
Q 42.96875 19.140625 42.96875 14.0625 
z
" id="SimHei-73"/>
      <path d="M 44.921875 1.953125 
L 35.546875 1.953125 
Q 34.765625 2.734375 34.375 4.09375 
Q 33.984375 5.46875 33.984375 7.421875 
Q 31.25 4.296875 27.34375 2.734375 
Q 23.4375 1.171875 19.140625 1.171875 
Q 12.890625 1.171875 8.59375 4.296875 
Q 4.296875 7.421875 4.296875 13.28125 
Q 4.296875 19.140625 8.203125 22.65625 
Q 12.109375 26.171875 20.3125 27.34375 
Q 25.78125 28.125 29.875 29.296875 
Q 33.984375 30.46875 33.984375 32.421875 
Q 33.984375 34.765625 32.21875 37.109375 
Q 30.46875 39.453125 24.609375 39.453125 
Q 19.921875 39.453125 17.765625 37.6875 
Q 15.625 35.9375 14.84375 32.8125 
L 6.25 32.8125 
Q 7.03125 39.0625 11.90625 42.765625 
Q 16.796875 46.484375 24.609375 46.484375 
Q 33.203125 46.484375 37.5 42.578125 
Q 41.796875 38.671875 41.796875 31.640625 
L 41.796875 10.15625 
Q 41.796875 7.8125 42.578125 5.859375 
Q 43.359375 3.90625 44.921875 1.953125 
z
M 33.984375 16.40625 
L 33.984375 24.21875 
Q 31.640625 23.4375 29.484375 22.84375 
Q 27.34375 22.265625 22.265625 21.484375 
Q 16.40625 20.703125 14.640625 18.75 
Q 12.890625 16.796875 12.890625 14.0625 
Q 12.890625 11.71875 14.640625 9.953125 
Q 16.40625 8.203125 19.921875 8.203125 
Q 23.4375 8.203125 27.53125 10.15625 
Q 31.640625 12.109375 33.984375 16.40625 
z
" id="SimHei-61"/>
     </defs>
     <g transform="translate(448.5 348.5)scale(0.15 -0.15)">
      <use xlink:href="#SimHei-49"/>
      <use x="50" xlink:href="#SimHei-6e"/>
      <use x="100" xlink:href="#SimHei-64"/>
      <use x="150" xlink:href="#SimHei-65"/>
      <use x="200" xlink:href="#SimHei-78"/>
      <use x="250" xlink:href="#SimHei-20"/>
      <use x="300" xlink:href="#SimHei-6f"/>
      <use x="350" xlink:href="#SimHei-66"/>
      <use x="400" xlink:href="#SimHei-20"/>
      <use x="450" xlink:href="#SimHei-6e"/>
      <use x="500" xlink:href="#SimHei-6f"/>
      <use x="550" xlink:href="#SimHei-6e"/>
      <use x="600" xlink:href="#SimHei-20"/>
      <use x="650" xlink:href="#SimHei-72"/>
      <use x="700" xlink:href="#SimHei-65"/>
      <use x="750" xlink:href="#SimHei-63"/>
      <use x="800" xlink:href="#SimHei-75"/>
      <use x="850" xlink:href="#SimHei-72"/>
      <use x="900" xlink:href="#SimHei-72"/>
      <use x="950" xlink:href="#SimHei-65"/>
      <use x="1000" xlink:href="#SimHei-6e"/>
      <use x="1050" xlink:href="#SimHei-74"/>
      <use x="1100" xlink:href="#SimHei-20"/>
      <use x="1150" xlink:href="#SimHei-73"/>
      <use x="1200" xlink:href="#SimHei-74"/>
      <use x="1250" xlink:href="#SimHei-61"/>
      <use x="1300" xlink:href="#SimHei-74"/>
      <use x="1350" xlink:href="#SimHei-65"/>
     </g>
    </g>
   </g>
   <g id="matplotlib.axis_2">
    <g id="ytick_1">
     <g id="line2d_6">
      <defs>
       <path d="M 0 0 
L -3.5 0 
" id="me16285ebd4" style="stroke:#000000;stroke-width:0.8;"/>
      </defs>
      <g>
       <use style="stroke:#000000;stroke-width:0.8;" x="135" xlink:href="#me16285ebd4" y="312.120519"/>
      </g>
     </g>
     <g id="text_7">
      <!-- 0 -->
      <g transform="translate(120.5 317.276769)scale(0.15 -0.15)">
       <use xlink:href="#SimHei-30"/>
      </g>
     </g>
    </g>
    <g id="ytick_2">
     <g id="line2d_7">
      <g>
       <use style="stroke:#000000;stroke-width:0.8;" x="135" xlink:href="#me16285ebd4" y="275.343194"/>
      </g>
     </g>
     <g id="text_8">
      <!-- 10 -->
      <defs>
       <path d="M 21.875 56.25 
Q 16.796875 51.171875 8.984375 46.484375 
L 8.984375 53.90625 
Q 18.75 60.546875 25 69.53125 
L 29.6875 69.53125 
L 29.6875 2.34375 
L 21.875 2.34375 
z
" id="SimHei-31"/>
      </defs>
      <g transform="translate(113 280.499444)scale(0.15 -0.15)">
       <use xlink:href="#SimHei-31"/>
       <use x="50" xlink:href="#SimHei-30"/>
      </g>
     </g>
    </g>
    <g id="ytick_3">
     <g id="line2d_8">
      <g>
       <use style="stroke:#000000;stroke-width:0.8;" x="135" xlink:href="#me16285ebd4" y="238.56587"/>
      </g>
     </g>
     <g id="text_9">
      <!-- 20 -->
      <g transform="translate(113 243.72212)scale(0.15 -0.15)">
       <use xlink:href="#SimHei-32"/>
       <use x="50" xlink:href="#SimHei-30"/>
      </g>
     </g>
    </g>
    <g id="ytick_4">
     <g id="line2d_9">
      <g>
       <use style="stroke:#000000;stroke-width:0.8;" x="135" xlink:href="#me16285ebd4" y="201.788545"/>
      </g>
     </g>
     <g id="text_10">
      <!-- 30 -->
      <defs>
       <path d="M 3.90625 19.140625 
L 10.9375 20.3125 
Q 12.5 15.234375 16.015625 11.90625 
Q 19.53125 8.59375 24.796875 8.78125 
Q 30.078125 8.984375 33.203125 13.078125 
Q 36.328125 17.1875 35.9375 22.453125 
Q 35.546875 27.734375 31.828125 30.65625 
Q 28.125 33.59375 19.921875 34.765625 
L 19.921875 39.84375 
Q 28.125 40.625 31.828125 44.140625 
Q 35.546875 47.65625 35.15625 53.3125 
Q 34.765625 58.984375 30.078125 61.515625 
Q 25.390625 64.0625 20.109375 62.109375 
Q 14.84375 60.15625 11.71875 51.171875 
L 4.6875 52.34375 
Q 7.03125 59.375 11.125 64.0625 
Q 15.234375 68.75 22.265625 69.53125 
Q 29.296875 70.3125 34.5625 67.765625 
Q 39.84375 65.234375 41.984375 59.953125 
Q 44.140625 54.6875 42.578125 48.4375 
Q 41.015625 42.1875 33.59375 37.5 
Q 39.0625 35.15625 41.984375 30.46875 
Q 44.921875 25.78125 43.9375 18.15625 
Q 42.96875 10.546875 37.109375 5.859375 
Q 31.25 1.171875 23.828125 1.359375 
Q 16.40625 1.5625 10.9375 6.046875 
Q 5.46875 10.546875 3.90625 19.140625 
z
" id="SimHei-33"/>
      </defs>
      <g transform="translate(113 206.944795)scale(0.15 -0.15)">
       <use xlink:href="#SimHei-33"/>
       <use x="50" xlink:href="#SimHei-30"/>
      </g>
     </g>
    </g>
    <g id="ytick_5">
     <g id="line2d_10">
      <g>
       <use style="stroke:#000000;stroke-width:0.8;" x="135" xlink:href="#me16285ebd4" y="165.01122"/>
      </g>
     </g>
     <g id="text_11">
      <!-- 40 -->
      <g transform="translate(113 170.16747)scale(0.15 -0.15)">
       <use xlink:href="#SimHei-34"/>
       <use x="50" xlink:href="#SimHei-30"/>
      </g>
     </g>
    </g>
    <g id="ytick_6">
     <g id="line2d_11">
      <g>
       <use style="stroke:#000000;stroke-width:0.8;" x="135" xlink:href="#me16285ebd4" y="128.233895"/>
      </g>
     </g>
     <g id="text_12">
      <!-- 50 -->
      <defs>
       <path d="M 8.59375 20.703125 
Q 11.328125 10.15625 17.96875 8.984375 
Q 24.609375 7.8125 28.703125 10.34375 
Q 32.8125 12.890625 34.5625 16.984375 
Q 36.328125 21.09375 36.125 26.171875 
Q 35.9375 31.25 33.390625 34.765625 
Q 30.859375 38.28125 26.953125 39.453125 
Q 23.046875 40.625 18.15625 39.453125 
Q 13.28125 38.28125 10.15625 33.984375 
L 3.515625 34.765625 
Q 4.296875 37.109375 10.9375 68.359375 
L 41.796875 68.359375 
L 41.796875 61.328125 
L 16.796875 61.328125 
Q 14.84375 50.78125 12.890625 44.53125 
Q 18.75 47.265625 23.828125 47.0625 
Q 28.90625 46.875 33.59375 44.71875 
Q 38.28125 42.578125 40.421875 38.859375 
Q 42.578125 35.15625 43.546875 31.4375 
Q 44.53125 27.734375 44.328125 23.4375 
Q 44.140625 19.140625 42.578125 14.640625 
Q 41.015625 10.15625 37.890625 7.21875 
Q 34.765625 4.296875 30.265625 2.53125 
Q 25.78125 0.78125 19.921875 1.171875 
Q 14.0625 1.5625 8.78125 5.46875 
Q 3.515625 9.375 1.5625 18.75 
z
" id="SimHei-35"/>
      </defs>
      <g transform="translate(113 133.390145)scale(0.15 -0.15)">
       <use xlink:href="#SimHei-35"/>
       <use x="50" xlink:href="#SimHei-30"/>
      </g>
     </g>
    </g>
    <g id="ytick_7">
     <g id="line2d_12">
      <g>
       <use style="stroke:#000000;stroke-width:0.8;" x="135" xlink:href="#me16285ebd4" y="91.45657"/>
      </g>
     </g>
     <g id="text_13">
      <!-- 60 -->
      <g transform="translate(113 96.61282)scale(0.15 -0.15)">
       <use xlink:href="#SimHei-36"/>
       <use x="50" xlink:href="#SimHei-30"/>
      </g>
     </g>
    </g>
    <g id="ytick_8">
     <g id="line2d_13">
      <g>
       <use style="stroke:#000000;stroke-width:0.8;" x="135" xlink:href="#me16285ebd4" y="54.679245"/>
      </g>
     </g>
     <g id="text_14">
      <!-- 70 -->
      <defs>
       <path d="M 13.28125 2.34375 
Q 20.3125 32.03125 37.890625 61.328125 
L 4.296875 61.328125 
L 4.296875 68.359375 
L 46.09375 68.359375 
L 46.09375 61.71875 
Q 27.734375 32.03125 21.875 2.34375 
L 13.28125 2.34375 
z
" id="SimHei-37"/>
      </defs>
      <g transform="translate(113 59.835495)scale(0.15 -0.15)">
       <use xlink:href="#SimHei-37"/>
       <use x="50" xlink:href="#SimHei-30"/>
      </g>
     </g>
    </g>
    <g id="text_15">
     <!-- Number of competition -->
     <defs>
      <path d="M 44.53125 1.953125 
L 34.765625 1.953125 
L 13.28125 50.390625 
L 12.890625 50.390625 
L 12.890625 1.953125 
L 3.90625 1.953125 
L 3.90625 68.75 
L 13.671875 68.75 
L 35.15625 20.3125 
L 35.546875 20.3125 
L 35.546875 68.75 
L 44.53125 68.75 
z
" id="SimHei-4e"/>
      <path d="M 47.65625 1.953125 
L 39.84375 1.953125 
L 39.84375 33.59375 
Q 39.84375 35.9375 39.0625 37.5 
Q 38.28125 39.0625 35.9375 39.0625 
Q 33.203125 39.0625 30.859375 36.125 
Q 28.515625 33.203125 28.515625 28.515625 
L 28.515625 1.953125 
L 20.703125 1.953125 
L 20.703125 33.59375 
Q 20.703125 35.9375 19.921875 37.5 
Q 19.140625 39.0625 16.796875 39.0625 
Q 14.0625 39.0625 11.71875 36.125 
Q 9.375 33.203125 9.375 28.515625 
L 9.375 1.953125 
L 1.5625 1.953125 
L 1.5625 45.703125 
L 9.375 45.703125 
L 9.375 39.84375 
Q 11.328125 42.96875 14.0625 44.71875 
Q 16.796875 46.484375 19.921875 46.484375 
Q 23.046875 46.484375 25.1875 44.71875 
Q 27.34375 42.96875 28.125 39.84375 
Q 30.078125 42.96875 32.609375 44.71875 
Q 35.15625 46.484375 38.28125 46.484375 
Q 42.96875 46.484375 45.3125 43.9375 
Q 47.65625 41.40625 47.65625 36.71875 
z
" id="SimHei-6d"/>
      <path d="M 44.140625 23.828125 
Q 44.140625 12.5 38.671875 6.828125 
Q 33.203125 1.171875 25.390625 1.171875 
Q 21.09375 1.171875 17.96875 2.734375 
Q 14.84375 4.296875 12.5 7.8125 
L 12.5 1.953125 
L 4.6875 1.953125 
L 4.6875 68.75 
L 12.5 68.75 
L 12.5 39.84375 
Q 14.84375 43.359375 17.96875 45.109375 
Q 21.09375 46.875 25.390625 46.875 
Q 33.203125 46.875 38.671875 41.015625 
Q 44.140625 35.15625 44.140625 23.828125 
z
M 35.546875 23.828125 
Q 35.546875 31.25 32.609375 35.546875 
Q 29.6875 39.84375 23.828125 39.84375 
Q 19.140625 39.84375 15.8125 35.546875 
Q 12.5 31.25 12.5 23.828125 
Q 12.5 16.40625 15.8125 12.296875 
Q 19.140625 8.203125 23.828125 8.203125 
Q 29.6875 8.203125 32.609375 12.296875 
Q 35.546875 16.40625 35.546875 23.828125 
z
" id="SimHei-62"/>
      <path d="M 44.140625 23.828125 
Q 44.140625 12.5 38.671875 6.640625 
Q 33.203125 0.78125 25.390625 0.78125 
Q 21.09375 0.78125 17.96875 2.53125 
Q 14.84375 4.296875 12.5 7.8125 
L 12.5 -12.5 
L 4.6875 -12.5 
L 4.6875 45.703125 
L 12.5 45.703125 
L 12.5 39.84375 
Q 14.84375 43.359375 17.96875 44.921875 
Q 21.09375 46.484375 25.390625 46.484375 
Q 33.203125 46.484375 38.671875 40.8125 
Q 44.140625 35.15625 44.140625 23.828125 
z
M 35.546875 23.828125 
Q 35.546875 31.25 32.609375 35.34375 
Q 29.6875 39.453125 23.828125 39.453125 
Q 19.140625 39.453125 15.8125 35.34375 
Q 12.5 31.25 12.5 23.828125 
Q 12.5 16.40625 15.8125 12.109375 
Q 19.140625 7.8125 23.828125 7.8125 
Q 29.6875 7.8125 32.609375 12.109375 
Q 35.546875 16.40625 35.546875 23.828125 
z
" id="SimHei-70"/>
      <path d="M 28.125 58.203125 
L 20.3125 58.203125 
L 20.3125 68.359375 
L 28.125 68.359375 
z
M 28.125 1.953125 
L 20.3125 1.953125 
L 20.3125 45.703125 
L 28.125 45.703125 
z
" id="SimHei-69"/>
     </defs>
     <g transform="translate(107.125 257.85)rotate(-90)scale(0.15 -0.15)">
      <use xlink:href="#SimHei-4e"/>
      <use x="50" xlink:href="#SimHei-75"/>
      <use x="100" xlink:href="#SimHei-6d"/>
      <use x="150" xlink:href="#SimHei-62"/>
      <use x="200" xlink:href="#SimHei-65"/>
      <use x="250" xlink:href="#SimHei-72"/>
      <use x="300" xlink:href="#SimHei-20"/>
      <use x="350" xlink:href="#SimHei-6f"/>
      <use x="400" xlink:href="#SimHei-66"/>
      <use x="450" xlink:href="#SimHei-20"/>
      <use x="500" xlink:href="#SimHei-63"/>
      <use x="550" xlink:href="#SimHei-6f"/>
      <use x="600" xlink:href="#SimHei-6d"/>
      <use x="650" xlink:href="#SimHei-70"/>
      <use x="700" xlink:href="#SimHei-65"/>
      <use x="750" xlink:href="#SimHei-74"/>
      <use x="800" xlink:href="#SimHei-69"/>
      <use x="850" xlink:href="#SimHei-74"/>
      <use x="900" xlink:href="#SimHei-69"/>
      <use x="950" xlink:href="#SimHei-6f"/>
      <use x="1000" xlink:href="#SimHei-6e"/>
     </g>
    </g>
   </g>
   <g id="line2d_14">
    <path clip-path="url(#p0481fcb22e)" d="M 173.045455 190.213495 
L 181.5 169.393851 
L 189.954545 146.649527 
L 198.409091 125.357908 
L 206.863636 111.109147 
L 215.318182 106.394293 
L 223.772727 105.309362 
L 232.227273 111.311422 
L 240.681818 114.474272 
L 249.136364 124.329369 
L 257.590909 142.901918 
L 266.045455 173.34251 
L 274.5 192.439749 
L 282.954545 166.614711 
L 291.409091 143.080901 
L 299.863636 114.634866 
L 308.318182 98.709058 
L 316.772727 89.604219 
L 325.227273 84.038584 
L 333.681818 83.580093 
L 342.136364 89.914374 
L 350.590909 107.116355 
L 359.045455 114.281804 
L 367.5 139.187408 
L 375.954545 163.351337 
L 384.409091 145.198049 
L 392.863636 113.217713 
L 401.318182 91.318042 
L 409.772727 78.960861 
L 418.227273 70.764421 
L 426.681818 67.852883 
L 435.136364 70.536402 
L 443.590909 79.429159 
L 452.045455 96.204523 
L 460.5 123.306959 
L 468.954545 144.581416 
L 477.409091 126.247919 
L 485.863636 101.024804 
L 494.318182 85.18481 
L 502.772727 70.513109 
L 511.227273 57.866613 
L 519.681818 57.954879 
L 528.136364 70.332901 
L 536.590909 80.545964 
L 545.045455 102.663847 
L 553.5 125.837239 
L 561.954545 113.540128 
L 570.409091 92.776876 
L 578.863636 72.258806 
L 587.318182 61.518602 
L 595.772727 55.554545 
L 604.227273 59.638054 
L 612.681818 75.892406 
L 621.136364 95.796294 
L 629.590909 114.387232 
L 638.045455 107.620204 
L 646.5 88.141707 
L 654.954545 68.483001 
L 663.409091 62.643988 
L 671.863636 60.697241 
L 680.318182 67.870046 
L 688.772727 82.842095 
L 697.227273 104.728281 
L 705.681818 110.035249 
L 714.136364 86.739265 
L 722.590909 70.600149 
L 731.045455 68.429061 
L 739.5 68.38125 
L 747.954545 84.478686 
L 756.409091 107.379926 
L 764.863636 111.414398 
L 773.318182 87.93698 
L 781.772727 77.639329 
L 790.227273 85.219136 
L 798.681818 93.220656 
L 807.136364 105.718817 
L 815.590909 117.241152 
L 824.045455 99.318336 
L 832.5 94.875635 
L 840.954545 98.027452 
L 849.409091 116.987389 
L 857.863636 125.880146 
L 866.318182 120.82449 
L 874.772727 122.372815 
L 883.227273 127.103605 
L 891.681818 144.733429 
L 900.136364 136.978317 
L 908.590909 139.409298 
L 917.045455 162.862198 
L 925.5 164.207022 
L 933.954545 194.005237 
" style="fill:none;stroke:#ff0000;stroke-linecap:square;stroke-width:1.5;"/>
   </g>
   <g id="line2d_15">
    <path clip-path="url(#p0481fcb22e)" d="M 173.045455 302.07418 
L 181.5 294.417141 
L 189.954545 288.000724 
L 198.409091 283.113017 
L 206.863636 279.644916 
L 215.318182 277.148961 
L 223.772727 276.174362 
L 232.227273 276.623045 
L 240.681818 278.656831 
L 249.136364 283.500405 
L 257.590909 288.171125 
L 266.045455 294.333779 
L 274.5 302.617259 
L 282.954545 294.688067 
L 291.409091 279.187651 
L 299.863636 266.987386 
L 308.318182 258.897601 
L 316.772727 253.911821 
L 325.227273 247.046721 
L 333.681818 250.941439 
L 342.136364 250.886273 
L 350.590909 259.84523 
L 359.045455 269.212414 
L 367.5 280.509183 
L 375.954545 293.674239 
L 384.409091 287.279888 
L 392.863636 268.297885 
L 401.318182 252.211483 
L 409.772727 243.451124 
L 418.227273 234.611081 
L 426.681818 231.58063 
L 435.136364 234.535075 
L 443.590909 241.346235 
L 452.045455 252.569449 
L 460.5 268.919422 
L 468.954545 287.310536 
L 477.409091 281.732642 
L 485.863636 260.079379 
L 494.318182 240.192653 
L 502.772727 230.50428 
L 511.227273 225.324807 
L 519.681818 224.009404 
L 528.136364 231.367321 
L 536.590909 243.388603 
L 545.045455 257.191133 
L 553.5 283.554345 
L 561.954545 278.280477 
L 570.409091 253.96331 
L 578.863636 235.946098 
L 587.318182 225.5847 
L 595.772727 221.585779 
L 604.227273 223.917461 
L 612.681818 236.445044 
L 621.136364 251.643886 
L 629.590909 279.510065 
L 638.045455 275.49153 
L 646.5 250.253703 
L 654.954545 234.345059 
L 663.409091 224.417633 
L 671.863636 221.893482 
L 680.318182 230.032304 
L 688.772727 250.227959 
L 697.227273 275.92305 
L 705.681818 276.479614 
L 714.136364 250.796782 
L 722.590909 235.55871 
L 731.045455 230.843857 
L 739.5 231.561015 
L 747.954545 251.583817 
L 756.409091 275.827429 
L 764.863636 275.102916 
L 773.318182 251.871906 
L 781.772727 240.689147 
L 790.227273 242.743774 
L 798.681818 253.373646 
L 807.136364 277.32304 
L 815.590909 277.780305 
L 824.045455 260.491285 
L 832.5 251.766477 
L 840.954545 257.417926 
L 849.409091 278.794133 
L 857.863636 282.073445 
L 866.318182 269.214866 
L 874.772727 268.072317 
L 883.227273 283.940507 
L 891.681818 287.829096 
L 900.136364 279.132485 
L 908.590909 287.240659 
L 917.045455 294.293324 
L 925.5 294.216092 
L 933.954545 302.645455 
" style="fill:none;stroke:#0000ff;stroke-linecap:square;stroke-width:1.5;"/>
   </g>
   <g id="patch_3">
    <path d="M 135 315 
L 135 43.2 
" style="fill:none;stroke:#000000;stroke-linecap:square;stroke-linejoin:miter;stroke-width:0.8;"/>
   </g>
   <g id="patch_4">
    <path d="M 972 315 
L 972 43.2 
" style="fill:none;stroke:#000000;stroke-linecap:square;stroke-linejoin:miter;stroke-width:0.8;"/>
   </g>
   <g id="patch_5">
    <path d="M 135 315 
L 972 315 
" style="fill:none;stroke:#000000;stroke-linecap:square;stroke-linejoin:miter;stroke-width:0.8;"/>
   </g>
   <g id="patch_6">
    <path d="M 135 43.2 
L 972 43.2 
" style="fill:none;stroke:#000000;stroke-linecap:square;stroke-linejoin:miter;stroke-width:0.8;"/>
   </g>
   <g id="text_16">
    <!-- Analysis of competition times -->
    <defs>
     <path d="M 48.046875 1.953125 
L 38.671875 1.953125 
L 33.203125 22.65625 
L 16.015625 22.65625 
L 10.546875 1.953125 
L 1.171875 1.953125 
L 20.703125 69.53125 
L 28.515625 69.53125 
z
M 31.25 30.078125 
L 25 53.90625 
L 24.21875 53.90625 
L 17.96875 30.078125 
z
" id="SimHei-41"/>
     <path d="M 28.515625 1.953125 
L 20.703125 1.953125 
L 20.703125 68.75 
L 28.515625 68.75 
z
" id="SimHei-6c"/>
     <path d="M 45.3125 45.703125 
L 27.34375 -1.5625 
Q 25.78125 -7.03125 22.65625 -9.765625 
Q 19.53125 -12.5 14.84375 -12.5 
Q 12.890625 -12.5 11.125 -12.296875 
Q 9.375 -12.109375 7.8125 -11.328125 
L 7.8125 -3.515625 
Q 9.375 -4.296875 10.9375 -4.6875 
Q 12.5 -5.078125 13.671875 -5.078125 
Q 16.796875 -5.078125 17.96875 -4.09375 
Q 19.140625 -3.125 20.3125 0.390625 
L 3.125 45.703125 
L 11.71875 45.703125 
L 24.21875 11.328125 
L 24.609375 11.328125 
L 36.71875 45.703125 
z
" id="SimHei-79"/>
    </defs>
    <g transform="translate(423 37.2)scale(0.18 -0.18)">
     <use xlink:href="#SimHei-41"/>
     <use x="50" xlink:href="#SimHei-6e"/>
     <use x="100" xlink:href="#SimHei-61"/>
     <use x="150" xlink:href="#SimHei-6c"/>
     <use x="200" xlink:href="#SimHei-79"/>
     <use x="250" xlink:href="#SimHei-73"/>
     <use x="300" xlink:href="#SimHei-69"/>
     <use x="350" xlink:href="#SimHei-73"/>
     <use x="400" xlink:href="#SimHei-20"/>
     <use x="450" xlink:href="#SimHei-6f"/>
     <use x="500" xlink:href="#SimHei-66"/>
     <use x="550" xlink:href="#SimHei-20"/>
     <use x="600" xlink:href="#SimHei-63"/>
     <use x="650" xlink:href="#SimHei-6f"/>
     <use x="700" xlink:href="#SimHei-6d"/>
     <use x="750" xlink:href="#SimHei-70"/>
     <use x="800" xlink:href="#SimHei-65"/>
     <use x="850" xlink:href="#SimHei-74"/>
     <use x="900" xlink:href="#SimHei-69"/>
     <use x="950" xlink:href="#SimHei-74"/>
     <use x="1000" xlink:href="#SimHei-69"/>
     <use x="1050" xlink:href="#SimHei-6f"/>
     <use x="1100" xlink:href="#SimHei-6e"/>
     <use x="1150" xlink:href="#SimHei-20"/>
     <use x="1200" xlink:href="#SimHei-74"/>
     <use x="1250" xlink:href="#SimHei-69"/>
     <use x="1300" xlink:href="#SimHei-6d"/>
     <use x="1350" xlink:href="#SimHei-65"/>
     <use x="1400" xlink:href="#SimHei-73"/>
    </g>
   </g>
   <g id="legend_1">
    <g id="patch_7">
     <path d="M 383.25 201.225 
L 723.75 201.225 
Q 726.75 201.225 726.75 198.225 
L 726.75 159.975 
Q 726.75 156.975 723.75 156.975 
L 383.25 156.975 
Q 380.25 156.975 380.25 159.975 
L 380.25 198.225 
Q 380.25 201.225 383.25 201.225 
z
" style="fill:#ffffff;opacity:0.8;stroke:#cccccc;stroke-linejoin:miter;"/>
    </g>
    <g id="line2d_16">
     <path d="M 386.25 168.225 
L 416.25 168.225 
" style="fill:none;stroke:#ff0000;stroke-linecap:square;stroke-width:1.5;"/>
    </g>
    <g id="line2d_17"/>
    <g id="text_17">
     <!-- Program simulation with HP=5 -->
     <defs>
      <path d="M 46.09375 48.4375 
Q 46.09375 39.0625 40.625 33.59375 
Q 35.15625 28.125 25.390625 28.125 
L 14.0625 28.125 
L 14.0625 1.953125 
L 5.078125 1.953125 
L 5.078125 68.75 
L 25.390625 68.75 
Q 35.15625 68.75 40.625 63.28125 
Q 46.09375 57.8125 46.09375 48.4375 
z
M 37.109375 48.4375 
Q 37.109375 55.859375 33.59375 58.59375 
Q 30.078125 61.328125 23.046875 61.328125 
L 14.0625 61.328125 
L 14.0625 35.546875 
L 23.046875 35.546875 
Q 30.078125 35.546875 33.59375 38.28125 
Q 37.109375 41.015625 37.109375 48.4375 
z
" id="SimHei-50"/>
      <path d="M 46.484375 39.0625 
Q 43.75 39.84375 41.203125 40.03125 
Q 38.671875 40.234375 35.9375 39.453125 
Q 37.109375 38.28125 37.890625 36.515625 
Q 38.671875 34.765625 38.671875 31.25 
Q 38.671875 24.609375 34.171875 20.3125 
Q 29.6875 16.015625 23.046875 16.015625 
Q 21.484375 16.015625 18.9375 16.59375 
Q 16.40625 17.1875 14.84375 17.96875 
Q 13.671875 17.1875 13.28125 16.40625 
Q 12.890625 15.625 12.890625 14.453125 
Q 12.890625 12.5 15.625 11.515625 
Q 18.359375 10.546875 25.390625 10.546875 
Q 36.71875 10.546875 40.8125 7.421875 
Q 44.921875 4.296875 44.921875 -0.390625 
Q 44.921875 -6.640625 38.859375 -9.5625 
Q 32.8125 -12.5 24.609375 -12.5 
Q 14.0625 -12.5 8.984375 -9.765625 
Q 3.90625 -7.03125 3.90625 -2.34375 
Q 3.90625 0 5.859375 2.34375 
Q 7.8125 4.6875 10.9375 6.25 
Q 8.59375 7.421875 7.21875 9.171875 
Q 5.859375 10.9375 5.859375 13.671875 
Q 5.859375 16.015625 7.609375 17.765625 
Q 9.375 19.53125 11.71875 20.703125 
Q 9.765625 22.65625 8.59375 25.390625 
Q 7.421875 28.125 7.421875 31.25 
Q 7.421875 37.890625 11.90625 42.1875 
Q 16.40625 46.484375 23.046875 46.484375 
Q 26.5625 46.484375 29.09375 45.5 
Q 31.640625 44.53125 33.59375 42.578125 
Q 36.71875 44.921875 39.84375 45.890625 
Q 42.96875 46.875 46.484375 46.484375 
z
M 30.859375 31.25 
Q 30.859375 35.15625 28.90625 37.5 
Q 26.953125 39.84375 23.046875 39.84375 
Q 19.140625 39.84375 17.1875 37.5 
Q 15.234375 35.15625 15.234375 31.25 
Q 15.234375 27.34375 17.1875 25 
Q 19.140625 22.65625 23.046875 22.65625 
Q 26.953125 22.65625 28.90625 25 
Q 30.859375 27.34375 30.859375 31.25 
z
M 37.5 -1.171875 
Q 37.5 0.390625 35.734375 1.953125 
Q 33.984375 3.515625 26.953125 3.515625 
Q 25.390625 3.515625 22.65625 3.703125 
Q 19.921875 3.90625 16.40625 4.296875 
Q 13.28125 3.125 12.109375 1.5625 
Q 10.9375 0 10.9375 -1.5625 
Q 10.9375 -3.90625 14.0625 -5.46875 
Q 17.1875 -7.03125 25 -7.03125 
Q 31.640625 -7.03125 34.5625 -5.265625 
Q 37.5 -3.515625 37.5 -1.171875 
z
" id="SimHei-67"/>
      <path d="M 48.046875 45.703125 
L 38.28125 1.171875 
L 30.859375 1.171875 
L 24.609375 35.15625 
L 23.828125 35.15625 
L 17.578125 1.171875 
L 10.15625 1.171875 
L 0.390625 45.703125 
L 8.59375 45.703125 
L 13.671875 16.40625 
L 14.453125 16.40625 
L 19.921875 45.703125 
L 28.515625 45.703125 
L 33.984375 16.40625 
L 34.765625 16.40625 
L 39.84375 45.703125 
z
" id="SimHei-77"/>
      <path d="M 43.75 1.953125 
L 35.9375 1.953125 
L 35.9375 30.078125 
Q 35.9375 34.765625 33.59375 37.5 
Q 31.25 40.234375 27.34375 40.234375 
Q 22.265625 40.234375 17.765625 34.953125 
Q 13.28125 29.6875 13.28125 21.875 
L 13.28125 1.953125 
L 5.46875 1.953125 
L 5.46875 68.75 
L 13.28125 68.75 
L 13.28125 37.5 
Q 16.40625 41.796875 20.109375 44.140625 
Q 23.828125 46.484375 29.6875 46.484375 
Q 36.71875 46.484375 40.234375 42.578125 
Q 43.75 38.671875 43.75 32.8125 
z
" id="SimHei-68"/>
      <path d="M 44.53125 1.953125 
L 35.546875 1.953125 
L 35.546875 33.203125 
L 13.28125 33.203125 
L 13.28125 1.953125 
L 4.296875 1.953125 
L 4.296875 68.75 
L 13.28125 68.75 
L 13.28125 40.625 
L 35.546875 40.625 
L 35.546875 68.75 
L 44.53125 68.75 
z
" id="SimHei-48"/>
      <path d="M 46.484375 45.3125 
L 1.953125 45.3125 
L 1.953125 51.5625 
L 46.484375 51.5625 
z
M 46.484375 21.484375 
L 1.953125 21.484375 
L 1.953125 27.734375 
L 46.484375 27.734375 
z
" id="SimHei-3d"/>
     </defs>
     <g transform="translate(428.25 173.475)scale(0.15 -0.15)">
      <use xlink:href="#SimHei-50"/>
      <use x="50" xlink:href="#SimHei-72"/>
      <use x="100" xlink:href="#SimHei-6f"/>
      <use x="150" xlink:href="#SimHei-67"/>
      <use x="200" xlink:href="#SimHei-72"/>
      <use x="250" xlink:href="#SimHei-61"/>
      <use x="300" xlink:href="#SimHei-6d"/>
      <use x="350" xlink:href="#SimHei-20"/>
      <use x="400" xlink:href="#SimHei-73"/>
      <use x="450" xlink:href="#SimHei-69"/>
      <use x="500" xlink:href="#SimHei-6d"/>
      <use x="550" xlink:href="#SimHei-75"/>
      <use x="600" xlink:href="#SimHei-6c"/>
      <use x="650" xlink:href="#SimHei-61"/>
      <use x="700" xlink:href="#SimHei-74"/>
      <use x="750" xlink:href="#SimHei-69"/>
      <use x="800" xlink:href="#SimHei-6f"/>
      <use x="850" xlink:href="#SimHei-6e"/>
      <use x="900" xlink:href="#SimHei-20"/>
      <use x="950" xlink:href="#SimHei-77"/>
      <use x="1000" xlink:href="#SimHei-69"/>
      <use x="1050" xlink:href="#SimHei-74"/>
      <use x="1100" xlink:href="#SimHei-68"/>
      <use x="1150" xlink:href="#SimHei-20"/>
      <use x="1200" xlink:href="#SimHei-48"/>
      <use x="1250" xlink:href="#SimHei-50"/>
      <use x="1300" xlink:href="#SimHei-3d"/>
      <use x="1350" xlink:href="#SimHei-35"/>
     </g>
    </g>
    <g id="line2d_18">
     <path d="M 386.25 188.1 
L 416.25 188.1 
" style="fill:none;stroke:#0000ff;stroke-linecap:square;stroke-width:1.5;"/>
    </g>
    <g id="line2d_19"/>
    <g id="text_18">
     <!-- Program simulation without resurrection -->
     <g transform="translate(428.25 193.35)scale(0.15 -0.15)">
      <use xlink:href="#SimHei-50"/>
      <use x="50" xlink:href="#SimHei-72"/>
      <use x="100" xlink:href="#SimHei-6f"/>
      <use x="150" xlink:href="#SimHei-67"/>
      <use x="200" xlink:href="#SimHei-72"/>
      <use x="250" xlink:href="#SimHei-61"/>
      <use x="300" xlink:href="#SimHei-6d"/>
      <use x="350" xlink:href="#SimHei-20"/>
      <use x="400" xlink:href="#SimHei-73"/>
      <use x="450" xlink:href="#SimHei-69"/>
      <use x="500" xlink:href="#SimHei-6d"/>
      <use x="550" xlink:href="#SimHei-75"/>
      <use x="600" xlink:href="#SimHei-6c"/>
      <use x="650" xlink:href="#SimHei-61"/>
      <use x="700" xlink:href="#SimHei-74"/>
      <use x="750" xlink:href="#SimHei-69"/>
      <use x="800" xlink:href="#SimHei-6f"/>
      <use x="850" xlink:href="#SimHei-6e"/>
      <use x="900" xlink:href="#SimHei-20"/>
      <use x="950" xlink:href="#SimHei-77"/>
      <use x="1000" xlink:href="#SimHei-69"/>
      <use x="1050" xlink:href="#SimHei-74"/>
      <use x="1100" xlink:href="#SimHei-68"/>
      <use x="1150" xlink:href="#SimHei-6f"/>
      <use x="1200" xlink:href="#SimHei-75"/>
      <use x="1250" xlink:href="#SimHei-74"/>
      <use x="1300" xlink:href="#SimHei-20"/>
      <use x="1350" xlink:href="#SimHei-72"/>
      <use x="1400" xlink:href="#SimHei-65"/>
      <use x="1450" xlink:href="#SimHei-73"/>
      <use x="1500" xlink:href="#SimHei-75"/>
      <use x="1550" xlink:href="#SimHei-72"/>
      <use x="1600" xlink:href="#SimHei-72"/>
      <use x="1650" xlink:href="#SimHei-65"/>
      <use x="1700" xlink:href="#SimHei-63"/>
      <use x="1750" xlink:href="#SimHei-74"/>
      <use x="1800" xlink:href="#SimHei-69"/>
      <use x="1850" xlink:href="#SimHei-6f"/>
      <use x="1900" xlink:href="#SimHei-6e"/>
     </g>
    </g>
   </g>
  </g>
 </g>
 <defs>
  <clipPath id="p0481fcb22e">
   <rect height="271.8" width="837" x="135" y="43.2"/>
  </clipPath>
 </defs>
</svg>
