<?xml version="1.0" encoding="utf-8" standalone="no"?>
<!DOCTYPE svg PUBLIC "-//W3C//DTD SVG 1.1//EN"
  "http://www.w3.org/Graphics/SVG/1.1/DTD/svg11.dtd">
<!-- Created with matplotlib (http://matplotlib.org/) -->
<svg height="288pt" version="1.1" viewBox="0 0 360 288" width="360pt" xmlns="http://www.w3.org/2000/svg" xmlns:xlink="http://www.w3.org/1999/xlink">
 <defs>
  <style type="text/css">
*{stroke-linecap:butt;stroke-linejoin:round;}
  </style>
 </defs>
 <g id="figure_1">
  <g id="patch_1">
   <path d="M 0 288 
L 360 288 
L 360 0 
L 0 0 
z
" style="fill:#ffffff;"/>
  </g>
  <g id="patch_2">
   <path d="M 0 288 
L 360 288 
L 360 0 
L 0 0 
z
" style="fill:#ffffff;"/>
  </g>
  <g id="pane3d_1">
   <g id="patch_3">
    <path d="M 208.919567 174.762306 
L 325.068129 223.015199 
L 330.219918 68.897002 
L 209.735568 30.845085 
" style="fill:#f2f2f2;opacity:0.5;stroke:#f2f2f2;stroke-linejoin:miter;"/>
   </g>
  </g>
  <g id="pane3d_2">
   <g id="patch_4">
    <path d="M 208.919567 174.762306 
L 48.094045 207.1137 
L 43.195826 56.334254 
L 209.735568 30.845085 
" style="fill:#e6e6e6;opacity:0.5;stroke:#e6e6e6;stroke-linejoin:miter;"/>
   </g>
  </g>
  <g id="pane3d_3">
   <g id="patch_5">
    <path d="M 208.919567 174.762306 
L 48.094045 207.1137 
L 157.362833 260.931196 
L 325.068129 223.015199 
" style="fill:#ececec;opacity:0.5;stroke:#ececec;stroke-linejoin:miter;"/>
   </g>
  </g>
  <g id="axis3d_1">
   <g id="line2d_1">
    <path d="M 325.068129 223.015199 
L 157.362833 260.931196 
" style="fill:none;stroke:#000000;stroke-linecap:square;stroke-width:0.8;"/>
   </g>
   <g id="text_1">
    <!-- coins of 大熊 -->
    <defs>
     <path d="M 44.53125 19.53125 
Q 44.53125 11.328125 38.859375 6.25 
Q 33.203125 1.171875 24.609375 1.171875 
Q 16.015625 1.171875 9.765625 7.21875 
Q 3.515625 13.28125 3.515625 23.828125 
Q 3.515625 34.375 9.765625 40.421875 
Q 16.015625 46.484375 24.609375 46.484375 
Q 33.203125 46.484375 38.28125 41.984375 
Q 43.359375 37.5 43.359375 31.25 
L 34.765625 31.25 
Q 34.375 35.9375 31.4375 37.6875 
Q 28.515625 39.453125 24.609375 39.453125 
Q 19.921875 39.453125 16.015625 35.734375 
Q 12.109375 32.03125 12.109375 23.828125 
Q 12.109375 15.625 16.015625 11.90625 
Q 19.921875 8.203125 24.609375 8.203125 
Q 29.6875 8.203125 32.8125 10.9375 
Q 35.9375 13.671875 35.9375 19.53125 
z
" id="SimHei-63"/>
     <path d="M 45.703125 23.828125 
Q 45.703125 13.671875 39.453125 7.421875 
Q 33.203125 1.171875 24.609375 1.171875 
Q 16.015625 1.171875 9.765625 7.421875 
Q 3.515625 13.671875 3.515625 23.828125 
Q 3.515625 33.984375 9.765625 40.234375 
Q 16.015625 46.484375 24.609375 46.484375 
Q 33.203125 46.484375 39.453125 40.234375 
Q 45.703125 33.984375 45.703125 23.828125 
z
M 37.109375 23.828125 
Q 37.109375 31.640625 33.203125 35.546875 
Q 29.296875 39.453125 24.609375 39.453125 
Q 19.921875 39.453125 16.015625 35.546875 
Q 12.109375 31.640625 12.109375 23.828125 
Q 12.109375 16.015625 16.015625 12.109375 
Q 19.921875 8.203125 24.609375 8.203125 
Q 29.296875 8.203125 33.203125 12.109375 
Q 37.109375 16.015625 37.109375 23.828125 
z
" id="SimHei-6f"/>
     <path d="M 28.125 58.203125 
L 20.3125 58.203125 
L 20.3125 68.359375 
L 28.125 68.359375 
z
M 28.125 1.953125 
L 20.3125 1.953125 
L 20.3125 45.703125 
L 28.125 45.703125 
z
" id="SimHei-69"/>
     <path d="M 43.75 1.953125 
L 35.9375 1.953125 
L 35.9375 30.078125 
Q 35.9375 34.765625 33.59375 37.5 
Q 31.25 40.234375 27.34375 40.234375 
Q 22.265625 40.234375 17.765625 34.953125 
Q 13.28125 29.6875 13.28125 21.875 
L 13.28125 1.953125 
L 5.46875 1.953125 
L 5.46875 45.703125 
L 13.28125 45.703125 
L 13.28125 37.5 
Q 16.40625 41.796875 20.109375 44.140625 
Q 23.828125 46.484375 29.6875 46.484375 
Q 36.71875 46.484375 40.234375 42.578125 
Q 43.75 38.671875 43.75 32.8125 
z
" id="SimHei-6e"/>
     <path d="M 42.96875 14.0625 
Q 42.96875 7.8125 38.078125 4.484375 
Q 33.203125 1.171875 25.78125 1.171875 
Q 16.40625 1.171875 11.328125 4.875 
Q 6.25 8.59375 6.25 15.625 
L 14.0625 15.625 
Q 14.0625 10.9375 17.375 9.375 
Q 20.703125 7.8125 25.390625 7.8125 
Q 30.078125 7.8125 32.421875 9.5625 
Q 34.765625 11.328125 34.765625 14.0625 
Q 34.765625 16.015625 32.8125 17.96875 
Q 30.859375 19.921875 23.046875 21.09375 
Q 14.0625 22.265625 10.734375 25.578125 
Q 7.421875 28.90625 7.421875 34.375 
Q 7.421875 39.0625 11.90625 42.765625 
Q 16.40625 46.484375 25 46.484375 
Q 32.8125 46.484375 37.296875 42.96875 
Q 41.796875 39.453125 41.796875 33.59375 
L 33.984375 33.59375 
Q 33.984375 37.109375 31.4375 38.46875 
Q 28.90625 39.84375 25 39.84375 
Q 19.921875 39.84375 17.765625 38.078125 
Q 15.625 36.328125 15.625 33.984375 
Q 15.625 31.25 17.578125 29.6875 
Q 19.53125 28.125 25.78125 27.34375 
Q 35.9375 25.78125 39.453125 22.453125 
Q 42.96875 19.140625 42.96875 14.0625 
z
" id="SimHei-73"/>
     <path id="SimHei-20"/>
     <path d="M 44.53125 59.765625 
Q 42.578125 60.9375 39.84375 61.71875 
Q 37.109375 62.5 32.8125 62.5 
Q 28.515625 62.5 26.953125 60.34375 
Q 25.390625 58.203125 25.390625 55.078125 
L 25.390625 45.703125 
L 41.40625 45.703125 
L 41.40625 39.453125 
L 25.390625 39.453125 
L 25.390625 1.953125 
L 17.578125 1.953125 
L 17.578125 39.453125 
L 4.296875 39.453125 
L 4.296875 45.703125 
L 17.578125 45.703125 
L 17.578125 54.6875 
Q 17.578125 61.71875 21.875 65.625 
Q 26.171875 69.53125 33.203125 69.53125 
Q 37.5 69.53125 40.03125 68.9375 
Q 42.578125 68.359375 44.53125 67.578125 
z
" id="SimHei-66"/>
     <path d="M 45.3125 53.125 
Q 45.703125 66.796875 45.5 71.484375 
Q 45.3125 76.171875 44.921875 80.46875 
Q 49.609375 79.6875 55.46875 79.296875 
Q 54.296875 75.390625 53.703125 67.96875 
Q 53.125 60.546875 53.125 53.125 
L 73.046875 53.125 
Q 83.59375 53.125 92.578125 53.90625 
L 92.578125 45.3125 
Q 84.765625 45.703125 76.5625 45.703125 
L 53.515625 45.703125 
Q 55.078125 39.0625 58.984375 32.21875 
Q 62.890625 25.390625 66.984375 20.109375 
Q 71.09375 14.84375 78.3125 8.984375 
Q 85.546875 3.125 94.140625 -0.78125 
Q 91.015625 -3.125 87.890625 -8.59375 
Q 80.859375 -4.6875 74.015625 1.171875 
Q 67.1875 7.03125 60.34375 16.59375 
Q 53.515625 26.171875 50 34.375 
Q 46.875 25.78125 43.359375 20.109375 
Q 39.84375 14.453125 35.734375 9.765625 
Q 31.640625 5.078125 25.1875 0.390625 
Q 18.75 -4.296875 10.546875 -8.984375 
Q 7.421875 -4.296875 3.515625 -0.78125 
Q 11.71875 1.953125 19.71875 7.03125 
Q 27.734375 12.109375 32.8125 18.546875 
Q 37.890625 25 41.015625 32.03125 
Q 44.140625 39.0625 44.921875 45.703125 
L 23.4375 45.703125 
Q 14.0625 45.703125 8.59375 45.3125 
L 8.59375 53.90625 
Q 14.0625 53.515625 23.4375 53.125 
z
" id="SimHei-5927"/>
     <path d="M 49.609375 52.34375 
Q 49.21875 46.484375 49.21875 40.625 
L 49.21875 19.53125 
Q 49.21875 15.234375 46.484375 13.859375 
Q 43.75 12.5 34.765625 11.328125 
Q 33.59375 14.84375 31.640625 18.359375 
Q 38.671875 18.75 40.421875 18.9375 
Q 42.1875 19.140625 41.796875 23.4375 
L 18.359375 23.4375 
L 18.359375 12.5 
L 10.15625 12.5 
Q 10.546875 25 10.546875 33.59375 
Q 10.546875 42.1875 10.15625 52.34375 
L 49.609375 52.34375 
z
M 65.625 45.3125 
Q 65.234375 41.015625 65.234375 34.375 
Q 81.640625 38.671875 88.28125 43.359375 
Q 90.234375 39.453125 93.359375 36.71875 
Q 85.9375 34.765625 65.625 28.125 
L 65.625 23.046875 
Q 65.625 19.53125 70.703125 19.53125 
L 80.46875 19.53125 
Q 83.59375 19.53125 85.15625 20.890625 
Q 86.71875 22.265625 88.28125 28.125 
Q 92.1875 26.171875 96.875 25.390625 
Q 93.359375 17.1875 91.40625 15.234375 
Q 89.453125 13.28125 83.984375 13.28125 
L 65.234375 13.28125 
Q 57.03125 13.28125 57.03125 19.53125 
L 57.03125 37.5 
Q 57.03125 40.625 56.640625 45.3125 
L 65.625 45.3125 
z
M 92.578125 69.140625 
Q 78.515625 65.234375 64.84375 61.328125 
Q 64.84375 54.6875 68.359375 54.6875 
L 80.46875 54.6875 
Q 83.203125 54.6875 84.765625 56.4375 
Q 86.328125 58.203125 86.71875 62.5 
Q 90.234375 60.9375 94.921875 59.765625 
Q 92.96875 51.5625 90.421875 50.1875 
Q 87.890625 48.828125 82.8125 48.828125 
L 64.84375 48.828125 
Q 57.03125 48.828125 57.03125 54.296875 
L 57.03125 71.09375 
Q 57.03125 75.78125 56.640625 80.46875 
L 65.625 80.46875 
Q 65.234375 75.390625 65.234375 67.1875 
Q 78.515625 70.3125 86.328125 76.171875 
Q 88.671875 72.65625 92.578125 69.140625 
z
M 32.03125 78.125 
Q 24.609375 71.484375 16.40625 62.890625 
Q 22.65625 63.28125 40.625 65.234375 
Q 38.671875 67.578125 35.546875 70.703125 
Q 39.0625 72.265625 42.96875 74.21875 
Q 51.171875 63.28125 55.078125 58.59375 
Q 51.171875 57.03125 48.046875 54.6875 
L 44.53125 59.765625 
Q 42.578125 59.375 33.203125 58.59375 
Q 23.828125 57.8125 9.375 55.859375 
Q 7.421875 59.375 6.25 62.890625 
Q 10.15625 64.84375 14.640625 69.53125 
Q 19.140625 74.21875 23.4375 82.03125 
Q 27.734375 79.6875 32.03125 78.125 
z
M 41.796875 28.90625 
L 41.796875 35.546875 
L 18.359375 35.546875 
L 18.359375 28.90625 
z
M 20.3125 6.640625 
Q 17.1875 3.125 11.71875 -9.765625 
Q 6.640625 -7.8125 3.90625 -7.03125 
Q 6.640625 -1.5625 11.71875 8.984375 
Q 15.625 7.8125 20.3125 6.640625 
z
M 85.9375 10.15625 
Q 92.578125 -1.953125 94.140625 -5.46875 
Q 89.84375 -6.640625 86.328125 -8.59375 
Q 83.984375 -2.34375 78.515625 7.03125 
Q 81.25 8.203125 85.9375 10.15625 
z
M 41.796875 41.015625 
L 41.796875 46.875 
L 18.359375 46.875 
L 18.359375 41.015625 
z
M 62.890625 8.59375 
Q 65.625 -1.953125 66.40625 -5.859375 
L 58.59375 -7.421875 
Q 57.421875 -3.90625 55.46875 7.421875 
Q 58.59375 8.203125 62.890625 8.59375 
z
M 39.84375 7.421875 
Q 40.234375 3.90625 42.578125 -6.640625 
Q 38.671875 -6.640625 34.375 -7.8125 
Q 33.59375 -3.125 32.03125 6.640625 
Q 35.15625 7.421875 39.84375 7.421875 
z
" id="SimHei-718a"/>
    </defs>
    <g style="fill:#800080;" transform="translate(224.361813 284.870823)rotate(-12.739652)scale(0.12 -0.12)">
     <use xlink:href="#SimHei-63"/>
     <use x="50" xlink:href="#SimHei-6f"/>
     <use x="100" xlink:href="#SimHei-69"/>
     <use x="150" xlink:href="#SimHei-6e"/>
     <use x="200" xlink:href="#SimHei-73"/>
     <use x="250" xlink:href="#SimHei-20"/>
     <use x="300" xlink:href="#SimHei-6f"/>
     <use x="350" xlink:href="#SimHei-66"/>
     <use x="400" xlink:href="#SimHei-20"/>
     <use x="450" xlink:href="#SimHei-5927"/>
     <use x="550" xlink:href="#SimHei-718a"/>
    </g>
   </g>
   <g id="Line3DCollection_1">
    <path d="M 314.949087 225.302984 
L 199.176104 176.722284 
L 199.663217 32.386674 
" style="fill:none;stroke:#b0b0b0;stroke-width:0.8;"/>
    <path d="M 294.915951 229.832216 
L 179.90155 180.599522 
L 179.73149 35.437256 
" style="fill:none;stroke:#b0b0b0;stroke-width:0.8;"/>
    <path d="M 274.602458 234.424834 
L 160.377619 184.526923 
L 159.532989 38.528668 
" style="fill:none;stroke:#b0b0b0;stroke-width:0.8;"/>
    <path d="M 254.00268 239.082177 
L 140.599439 188.505469 
L 139.062321 41.661736 
" style="fill:none;stroke:#b0b0b0;stroke-width:0.8;"/>
    <path d="M 233.110523 243.805623 
L 120.562013 192.536164 
L 118.313948 44.837307 
" style="fill:none;stroke:#b0b0b0;stroke-width:0.8;"/>
    <path d="M 211.919718 248.59659 
L 100.260209 196.620041 
L 97.282181 48.056252 
" style="fill:none;stroke:#b0b0b0;stroke-width:0.8;"/>
    <path d="M 190.423814 253.456536 
L 79.68876 200.758159 
L 75.961174 51.319466 
" style="fill:none;stroke:#b0b0b0;stroke-width:0.8;"/>
    <path d="M 168.616176 258.386961 
L 58.842258 204.951607 
L 54.344918 54.627868 
" style="fill:none;stroke:#b0b0b0;stroke-width:0.8;"/>
   </g>
   <g id="xtick_1">
    <g id="line2d_2">
     <path d="M 313.948958 224.883309 
L 316.953217 226.143957 
" style="fill:none;stroke:#000000;stroke-linecap:square;stroke-width:0.8;"/>
    </g>
    <g id="text_2">
     <!-- 0 -->
     <defs>
      <path d="M 3.125 29.296875 
Q 3.90625 50 6.4375 56.046875 
Q 8.984375 62.109375 13.671875 66.015625 
Q 18.359375 69.921875 25.1875 69.921875 
Q 32.03125 69.921875 37.109375 64.25 
Q 42.1875 58.59375 43.75 50 
Q 45.3125 41.40625 44.71875 30.265625 
Q 44.140625 19.140625 40.8125 12.109375 
Q 37.5 5.078125 30.859375 2.34375 
Q 24.21875 -0.390625 17.578125 2.921875 
Q 10.9375 6.25 8.203125 11.71875 
Q 5.46875 17.1875 4.296875 23.234375 
Q 3.125 29.296875 3.90625 50 
z
M 12.890625 52.734375 
Q 10.546875 31.25 12.5 22.84375 
Q 14.453125 14.453125 18.9375 10.9375 
Q 23.4375 7.421875 28.125 9.5625 
Q 32.8125 11.71875 34.953125 18.15625 
Q 37.109375 24.609375 37.109375 32.21875 
Q 37.109375 39.84375 36.515625 46.09375 
Q 35.9375 52.34375 33 57.421875 
Q 30.078125 62.5 25.1875 62.6875 
Q 20.3125 62.890625 16.59375 57.8125 
Q 12.890625 52.734375 10.546875 31.25 
z
" id="SimHei-30"/>
     </defs>
     <g transform="translate(319.434125 249.395778)scale(0.15 -0.15)">
      <use xlink:href="#SimHei-30"/>
     </g>
    </g>
   </g>
   <g id="xtick_2">
    <g id="line2d_3">
     <path d="M 293.921865 229.406691 
L 296.907998 230.684926 
" style="fill:none;stroke:#000000;stroke-linecap:square;stroke-width:0.8;"/>
    </g>
    <g id="text_3">
     <!-- 2 -->
     <defs>
      <path d="M 4.6875 3.90625 
Q 5.078125 9.765625 10.15625 14.453125 
Q 15.234375 19.140625 23.046875 29.09375 
Q 30.859375 39.0625 33.203125 44.53125 
Q 35.546875 50 34.953125 53.90625 
Q 34.375 57.8125 31.25 60.34375 
Q 28.125 62.890625 24.015625 62.5 
Q 19.921875 62.109375 16.203125 59.375 
Q 12.5 56.640625 10.546875 51.171875 
L 3.125 52.34375 
Q 6.25 61.328125 11.125 65.421875 
Q 16.015625 69.53125 22.65625 69.921875 
Q 26.5625 70.3125 29.6875 69.71875 
Q 32.8125 69.140625 36.125 66.984375 
Q 39.453125 64.84375 41.59375 60.546875 
Q 43.75 56.25 43.15625 50.1875 
Q 42.578125 44.140625 37.109375 35.734375 
Q 31.640625 27.34375 16.015625 9.375 
L 44.140625 9.375 
L 44.140625 2.34375 
L 4.6875 2.34375 
z
" id="SimHei-32"/>
     </defs>
     <g transform="translate(299.396382 254.035082)scale(0.15 -0.15)">
      <use xlink:href="#SimHei-32"/>
     </g>
    </g>
   </g>
   <g id="xtick_3">
    <g id="line2d_4">
     <path d="M 273.614682 233.993335 
L 276.581886 235.289527 
" style="fill:none;stroke:#000000;stroke-linecap:square;stroke-width:0.8;"/>
    </g>
    <g id="text_4">
     <!-- 4 -->
     <defs>
      <path d="M 31.25 17.1875 
L 1.171875 17.1875 
L 1.171875 23.828125 
L 32.8125 69.53125 
L 38.671875 69.53125 
L 38.671875 23.828125 
L 48.046875 23.828125 
L 48.046875 17.1875 
L 38.671875 17.1875 
L 38.671875 2.34375 
L 31.25 2.34375 
z
M 31.25 23.828125 
L 31.25 54.6875 
L 9.375 23.828125 
z
" id="SimHei-34"/>
     </defs>
     <g transform="translate(279.077342 258.739513)scale(0.15 -0.15)">
      <use xlink:href="#SimHei-34"/>
     </g>
    </g>
   </g>
   <g id="xtick_4">
    <g id="line2d_5">
     <path d="M 253.021492 238.644577 
L 255.968935 239.959107 
" style="fill:none;stroke:#000000;stroke-linecap:square;stroke-width:0.8;"/>
    </g>
    <g id="text_5">
     <!-- 6 -->
     <defs>
      <path d="M 3.515625 19.53125 
Q 4.296875 30.859375 6.046875 34.765625 
Q 7.8125 38.671875 11.328125 44.53125 
L 27.34375 69.53125 
L 36.328125 69.53125 
L 19.921875 43.75 
Q 30.46875 46.484375 36.71875 42.96875 
Q 42.96875 39.453125 45.109375 34.953125 
Q 47.265625 30.46875 47.453125 25.1875 
Q 47.65625 19.921875 45.890625 14.84375 
Q 44.140625 9.765625 39.640625 5.65625 
Q 35.15625 1.5625 27.140625 1.171875 
Q 19.140625 0.78125 13.46875 4.09375 
Q 7.8125 7.421875 5.65625 13.46875 
Q 3.515625 19.53125 4.296875 30.859375 
z
M 12.5 16.015625 
Q 19.53125 8.59375 25.390625 8.203125 
Q 31.25 7.8125 35.15625 12.109375 
Q 39.0625 16.40625 39.0625 24.609375 
Q 39.0625 32.8125 34.171875 35.9375 
Q 29.296875 39.0625 23.234375 38.28125 
Q 17.1875 37.5 14.453125 32.421875 
Q 11.71875 27.34375 12.109375 21.671875 
Q 12.5 16.015625 19.53125 8.59375 
z
" id="SimHei-36"/>
     </defs>
     <g transform="translate(258.471041 263.510454)scale(0.15 -0.15)">
      <use xlink:href="#SimHei-36"/>
     </g>
    </g>
   </g>
   <g id="xtick_5">
    <g id="line2d_6">
     <path d="M 232.13621 243.361792 
L 235.063028 244.695052 
" style="fill:none;stroke:#000000;stroke-linecap:square;stroke-width:0.8;"/>
    </g>
    <g id="text_6">
     <!-- 8 -->
     <defs>
      <path d="M 2.734375 16.796875 
Q 2.734375 26.171875 5.078125 30.65625 
Q 7.421875 35.15625 12.890625 37.890625 
Q 8.203125 40.625 6.640625 43.9375 
Q 5.078125 47.265625 4.875 51.5625 
Q 4.6875 55.859375 6.046875 58.984375 
Q 7.421875 62.109375 10.15625 64.84375 
Q 12.890625 67.578125 16.203125 68.546875 
Q 19.53125 69.53125 23.4375 69.53125 
Q 27.34375 69.53125 30.46875 68.75 
Q 33.59375 67.96875 37.109375 65.421875 
Q 40.625 62.890625 42.1875 58.203125 
Q 43.75 53.515625 41.984375 47.265625 
Q 40.234375 41.015625 32.8125 37.5 
Q 39.453125 35.546875 42.1875 31.4375 
Q 44.921875 27.34375 44.921875 21.484375 
Q 44.921875 15.625 43.15625 12.109375 
Q 41.40625 8.59375 39.25 6.25 
Q 37.109375 3.90625 33.390625 2.53125 
Q 29.6875 1.171875 24.015625 1.171875 
Q 18.359375 1.171875 14.25 2.53125 
Q 10.15625 3.90625 7.421875 6.640625 
Q 4.6875 9.375 3.703125 13.078125 
Q 2.734375 16.796875 2.734375 26.171875 
z
M 10.9375 26.5625 
Q 10.546875 17.1875 12.296875 13.671875 
Q 14.0625 10.15625 18.75 9.171875 
Q 23.4375 8.203125 28.515625 9.375 
Q 33.59375 10.546875 35.546875 14.84375 
Q 37.5 19.140625 36.90625 23.4375 
Q 36.328125 27.734375 32.03125 30.65625 
Q 27.734375 33.59375 22.65625 33.203125 
Q 17.578125 32.8125 14.25 29.6875 
Q 10.9375 26.5625 10.546875 17.1875 
z
M 12.109375 56.25 
Q 12.109375 48.4375 14.84375 44.921875 
Q 17.578125 41.40625 23.4375 41.40625 
Q 29.296875 41.40625 32.21875 44.921875 
Q 35.15625 48.4375 34.953125 53.3125 
Q 34.765625 58.203125 31.4375 60.546875 
Q 28.125 62.890625 22.453125 62.5 
Q 16.796875 62.109375 14.453125 59.171875 
Q 12.109375 56.25 12.109375 48.4375 
z
" id="SimHei-38"/>
     </defs>
     <g transform="translate(237.571344 268.349324)scale(0.15 -0.15)">
      <use xlink:href="#SimHei-38"/>
     </g>
    </g>
   </g>
   <g id="xtick_6">
    <g id="line2d_7">
     <path d="M 210.952577 248.146394 
L 213.857878 249.498787 
" style="fill:none;stroke:#000000;stroke-linecap:square;stroke-width:0.8;"/>
    </g>
    <g id="text_7">
     <!-- 10 -->
     <defs>
      <path d="M 21.875 56.25 
Q 16.796875 51.171875 8.984375 46.484375 
L 8.984375 53.90625 
Q 18.75 60.546875 25 69.53125 
L 29.6875 69.53125 
L 29.6875 2.34375 
L 21.875 2.34375 
z
" id="SimHei-31"/>
     </defs>
     <g transform="translate(212.621939 273.257585)scale(0.15 -0.15)">
      <use xlink:href="#SimHei-31"/>
      <use x="50" xlink:href="#SimHei-30"/>
     </g>
    </g>
   </g>
   <g id="xtick_7">
    <g id="line2d_8">
     <path d="M 189.464153 252.999837 
L 192.347012 254.371778 
" style="fill:none;stroke:#000000;stroke-linecap:square;stroke-width:0.8;"/>
    </g>
    <g id="text_8">
     <!-- 12 -->
     <g transform="translate(191.116333 278.236741)scale(0.15 -0.15)">
      <use xlink:href="#SimHei-31"/>
      <use x="50" xlink:href="#SimHei-32"/>
     </g>
    </g>
   </g>
   <g id="xtick_8">
    <g id="line2d_9">
     <path d="M 167.664314 257.923617 
L 170.52377 259.315533 
" style="fill:none;stroke:#000000;stroke-linecap:square;stroke-width:0.8;"/>
    </g>
    <g id="text_9">
     <!-- 14 -->
     <g transform="translate(169.297844 283.288337)scale(0.15 -0.15)">
      <use xlink:href="#SimHei-31"/>
      <use x="50" xlink:href="#SimHei-34"/>
     </g>
    </g>
   </g>
  </g>
  <g id="axis3d_2">
   <g id="line2d_10">
    <path d="M 48.094045 207.1137 
L 157.362833 260.931196 
" style="fill:none;stroke:#000000;stroke-linecap:square;stroke-width:0.8;"/>
   </g>
   <g id="text_10">
    <!-- coins of 胖虎 -->
    <defs>
     <path d="M 21.484375 1.953125 
Q 25.78125 1.5625 28.515625 1.75 
Q 31.25 1.953125 31.640625 7.03125 
L 31.640625 26.171875 
L 18.359375 26.171875 
Q 16.796875 14.453125 14.453125 5.859375 
Q 12.109375 -2.734375 10.15625 -7.03125 
Q 6.640625 -3.90625 3.125 -2.734375 
Q 6.640625 2.734375 8.78125 10.34375 
Q 10.9375 17.96875 11.71875 30.859375 
L 11.71875 64.453125 
Q 11.71875 71.09375 11.328125 76.953125 
L 38.671875 76.953125 
Q 38.28125 69.140625 38.28125 61.328125 
L 38.28125 1.953125 
Q 38.28125 -6.25 23.4375 -7.03125 
Q 23.046875 -3.125 21.484375 1.953125 
z
M 64.453125 45.3125 
L 64.453125 69.140625 
Q 64.453125 73.828125 63.671875 79.296875 
L 72.265625 79.296875 
Q 71.875 74.21875 71.875 69.140625 
L 71.875 45.3125 
L 82.421875 45.3125 
Q 85.9375 45.3125 91.796875 45.703125 
L 91.796875 38.671875 
Q 88.28125 39.0625 82.421875 39.0625 
L 71.875 39.0625 
L 71.875 23.4375 
L 84.765625 23.4375 
Q 91.015625 23.4375 96.09375 23.828125 
L 96.09375 16.796875 
Q 90.234375 17.1875 84.765625 17.1875 
L 71.875 17.1875 
L 71.875 3.90625 
Q 71.875 -2.34375 72.265625 -8.984375 
L 64.0625 -8.984375 
Q 64.453125 -2.734375 64.453125 3.90625 
L 64.453125 17.1875 
L 53.90625 17.1875 
Q 48.4375 17.1875 42.578125 16.796875 
L 42.578125 23.828125 
Q 48.046875 23.4375 54.296875 23.4375 
L 64.453125 23.4375 
L 64.453125 39.0625 
L 53.90625 39.0625 
Q 48.4375 39.0625 43.359375 38.671875 
L 43.359375 45.703125 
Q 48.4375 45.3125 53.515625 45.3125 
z
M 31.640625 32.8125 
L 31.640625 48.828125 
L 18.75 48.828125 
L 18.75 32.8125 
z
M 31.640625 55.078125 
L 31.640625 70.703125 
L 18.75 70.703125 
L 18.75 55.078125 
z
M 51.5625 51.953125 
Q 50 58.984375 44.921875 71.09375 
L 51.171875 74.21875 
Q 55.859375 63.28125 58.59375 54.6875 
Q 54.296875 53.515625 51.5625 51.953125 
z
M 77.34375 53.90625 
Q 83.984375 67.96875 84.765625 73.4375 
Q 88.671875 71.875 92.578125 70.703125 
Q 90.625 67.96875 88.671875 62.890625 
Q 86.71875 57.8125 84.375 51.953125 
Q 80.859375 53.90625 77.34375 53.90625 
z
" id="SimHei-80d6"/>
     <path d="M 25.78125 45.703125 
Q 33.203125 46.09375 44.140625 46.875 
L 44.140625 56.640625 
L 20.703125 56.640625 
Q 20.703125 31.640625 20.109375 23.4375 
Q 19.53125 15.234375 17.578125 8 
Q 15.625 0.78125 10.9375 -7.8125 
Q 7.8125 -5.46875 3.125 -3.90625 
Q 7.03125 0.78125 9.171875 6.828125 
Q 11.328125 12.890625 12.109375 18.75 
Q 12.890625 24.609375 13.078125 30.265625 
Q 13.28125 35.9375 13.28125 42.96875 
Q 13.28125 50.390625 12.890625 62.5 
L 44.140625 62.5 
L 44.140625 74.609375 
Q 44.140625 77.34375 43.359375 82.421875 
L 51.953125 82.421875 
Q 51.5625 78.515625 51.5625 75.390625 
L 71.09375 75.390625 
Q 76.171875 75.390625 84.765625 76.171875 
L 84.765625 69.53125 
Q 76.171875 69.921875 70.703125 69.921875 
L 51.171875 69.921875 
L 51.171875 62.5 
L 93.75 62.5 
Q 92.1875 57.8125 89.84375 46.875 
Q 85.15625 48.046875 82.03125 48.4375 
Q 83.984375 52.734375 85.15625 56.640625 
L 51.171875 56.640625 
L 51.171875 47.65625 
Q 65.234375 49.21875 74.21875 50.78125 
L 75 44.140625 
Q 64.0625 42.96875 51.171875 41.40625 
L 51.171875 36.71875 
Q 51.171875 33.203125 57.421875 33.203125 
L 70.3125 33.203125 
Q 75 32.8125 76.359375 34.5625 
Q 77.734375 36.328125 78.515625 41.015625 
Q 81.640625 39.0625 86.71875 37.109375 
Q 84.765625 30.859375 82.03125 29.09375 
Q 79.296875 27.34375 73.828125 27.34375 
L 54.296875 27.34375 
Q 44.140625 27.34375 44.140625 33.59375 
L 44.140625 41.015625 
Q 36.328125 40.234375 27.34375 39.0625 
Q 26.5625 42.578125 25.78125 45.703125 
z
M 71.09375 22.265625 
Q 70.703125 16.796875 70.703125 10.9375 
L 70.703125 2.34375 
Q 70.703125 -1.953125 75 -1.953125 
L 81.25 -1.953125 
Q 85.9375 -1.953125 86.71875 0.78125 
Q 87.5 3.515625 87.5 7.421875 
Q 91.40625 5.078125 96.09375 4.296875 
Q 93.359375 -3.90625 91.59375 -5.859375 
Q 89.84375 -7.8125 85.15625 -7.8125 
L 72.65625 -7.8125 
Q 63.671875 -7.8125 63.671875 -1.171875 
L 63.671875 16.40625 
L 45.3125 16.40625 
Q 45.3125 4.6875 41.203125 -0.578125 
Q 37.109375 -5.859375 26.171875 -10.546875 
Q 25 -6.640625 21.484375 -3.515625 
Q 35.9375 0.78125 37.109375 7.421875 
Q 38.28125 14.0625 37.890625 22.265625 
L 71.09375 22.265625 
z
" id="SimHei-864e"/>
    </defs>
    <g style="fill:#800080;" transform="translate(38.392792 247.212399)rotate(-333.778649)scale(0.12 -0.12)">
     <use xlink:href="#SimHei-63"/>
     <use x="50" xlink:href="#SimHei-6f"/>
     <use x="100" xlink:href="#SimHei-69"/>
     <use x="150" xlink:href="#SimHei-6e"/>
     <use x="200" xlink:href="#SimHei-73"/>
     <use x="250" xlink:href="#SimHei-20"/>
     <use x="300" xlink:href="#SimHei-6f"/>
     <use x="350" xlink:href="#SimHei-66"/>
     <use x="400" xlink:href="#SimHei-20"/>
     <use x="450" xlink:href="#SimHei-80d6"/>
     <use x="550" xlink:href="#SimHei-864e"/>
    </g>
   </g>
   <g id="Line3DCollection_2">
    <path d="M 216.848604 33.091556 
L 215.794241 177.618329 
L 54.535235 210.28614 
" style="fill:none;stroke:#b0b0b0;stroke-width:0.8;"/>
    <path d="M 230.988876 37.557402 
L 229.454088 183.293191 
L 67.343534 216.594534 
" style="fill:none;stroke:#b0b0b0;stroke-width:0.8;"/>
    <path d="M 245.406644 42.110887 
L 243.372998 189.075679 
L 80.408144 223.029167 
" style="fill:none;stroke:#b0b0b0;stroke-width:0.8;"/>
    <path d="M 260.110156 46.754617 
L 257.55841 194.968883 
L 93.736836 229.593868 
" style="fill:none;stroke:#b0b0b0;stroke-width:0.8;"/>
    <path d="M 275.107992 51.491302 
L 272.018053 200.976014 
L 107.3377 236.292619 
" style="fill:none;stroke:#b0b0b0;stroke-width:0.8;"/>
    <path d="M 290.40908 56.323762 
L 286.759956 207.100407 
L 121.219157 243.129569 
" style="fill:none;stroke:#b0b0b0;stroke-width:0.8;"/>
    <path d="M 306.022709 61.25493 
L 301.792466 213.345531 
L 135.389982 250.10904 
" style="fill:none;stroke:#b0b0b0;stroke-width:0.8;"/>
    <path d="M 321.958556 66.287861 
L 317.124262 219.71499 
L 149.859317 257.235534 
" style="fill:none;stroke:#b0b0b0;stroke-width:0.8;"/>
   </g>
   <g id="xtick_9">
    <g id="line2d_11">
     <path d="M 55.894479 210.010784 
L 51.813215 210.837566 
" style="fill:none;stroke:#000000;stroke-linecap:square;stroke-width:0.8;"/>
    </g>
    <g id="text_11">
     <!-- 0 -->
     <g transform="translate(39.495232 232.923733)scale(0.15 -0.15)">
      <use xlink:href="#SimHei-30"/>
     </g>
    </g>
   </g>
   <g id="xtick_10">
    <g id="line2d_12">
     <path d="M 68.710645 216.313697 
L 64.605726 217.156945 
" style="fill:none;stroke:#000000;stroke-linecap:square;stroke-width:0.8;"/>
    </g>
    <g id="text_12">
     <!-- 2 -->
     <g transform="translate(52.208596 239.362791)scale(0.15 -0.15)">
      <use xlink:href="#SimHei-32"/>
     </g>
    </g>
   </g>
   <g id="xtick_11">
    <g id="line2d_13">
     <path d="M 81.783165 222.742684 
L 77.654458 223.602894 
" style="fill:none;stroke:#000000;stroke-linecap:square;stroke-width:0.8;"/>
    </g>
    <g id="text_13">
     <!-- 4 -->
     <g transform="translate(65.176714 245.930876)scale(0.15 -0.15)">
      <use xlink:href="#SimHei-34"/>
     </g>
    </g>
   </g>
   <g id="xtick_12">
    <g id="line2d_14">
     <path d="M 95.11981 229.301565 
L 90.967187 230.179255 
" style="fill:none;stroke:#000000;stroke-linecap:square;stroke-width:0.8;"/>
    </g>
    <g id="text_14">
     <!-- 6 -->
     <g transform="translate(78.40732 252.631906)scale(0.15 -0.15)">
      <use xlink:href="#SimHei-36"/>
     </g>
    </g>
   </g>
   <g id="xtick_13">
    <g id="line2d_15">
     <path d="M 108.728666 235.994319 
L 104.552006 236.890026 
" style="fill:none;stroke:#000000;stroke-linecap:square;stroke-width:0.8;"/>
    </g>
    <g id="text_15">
     <!-- 8 -->
     <g transform="translate(91.908465 259.469958)scale(0.15 -0.15)">
      <use xlink:href="#SimHei-38"/>
     </g>
    </g>
   </g>
   <g id="xtick_14">
    <g id="line2d_16">
     <path d="M 122.618153 242.825084 
L 118.417343 243.739371 
" style="fill:none;stroke:#000000;stroke-linecap:square;stroke-width:0.8;"/>
    </g>
    <g id="text_16">
     <!-- 10 -->
     <g transform="translate(101.938533 266.44928)scale(0.15 -0.15)">
      <use xlink:href="#SimHei-31"/>
      <use x="50" xlink:href="#SimHei-30"/>
     </g>
    </g>
   </g>
   <g id="xtick_15">
    <g id="line2d_17">
     <path d="M 136.797042 249.798176 
L 132.571977 250.731625 
" style="fill:none;stroke:#000000;stroke-linecap:square;stroke-width:0.8;"/>
    </g>
    <g id="text_17">
     <!-- 12 -->
     <g transform="translate(116.006257 273.574293)scale(0.15 -0.15)">
      <use xlink:href="#SimHei-31"/>
      <use x="50" xlink:href="#SimHei-32"/>
     </g>
    </g>
   </g>
   <g id="xtick_16">
    <g id="line2d_18">
     <path d="M 151.274472 256.918089 
L 147.025058 257.87131 
" style="fill:none;stroke:#000000;stroke-linecap:square;stroke-width:0.8;"/>
    </g>
    <g id="text_18">
     <!-- 14 -->
     <g transform="translate(130.37074 280.849608)scale(0.15 -0.15)">
      <use xlink:href="#SimHei-31"/>
      <use x="50" xlink:href="#SimHei-34"/>
     </g>
    </g>
   </g>
  </g>
  <g id="axis3d_3">
   <g id="line2d_19">
    <path d="M 48.094045 207.1137 
L 43.195826 56.334254 
" style="fill:none;stroke:#000000;stroke-linecap:square;stroke-width:0.8;"/>
   </g>
   <g id="text_19">
    <!-- coins of 静香 -->
    <defs>
     <path d="M 67.578125 78.90625 
Q 65.625 76.5625 64.640625 74.40625 
Q 63.671875 72.265625 62.890625 70.3125 
L 84.375 70.3125 
Q 82.03125 66.796875 80.078125 62.296875 
Q 78.125 57.8125 75.78125 52.734375 
L 90.234375 52.734375 
Q 89.84375 47.265625 89.84375 41.015625 
L 89.84375 36.71875 
Q 93.359375 36.71875 96.875 37.109375 
L 96.875 30.46875 
Q 94.140625 30.859375 89.84375 30.859375 
L 89.84375 25.390625 
Q 89.84375 17.578125 90.234375 10.546875 
L 83.203125 10.546875 
L 83.203125 14.84375 
L 72.265625 14.84375 
L 72.265625 0.390625 
Q 71.875 -4.6875 68.9375 -6.640625 
Q 66.015625 -8.59375 56.25 -9.375 
Q 56.25 -5.46875 53.90625 -1.171875 
Q 58.984375 -1.5625 62.296875 -1.171875 
Q 65.625 -0.78125 65.625 2.734375 
L 65.625 14.84375 
L 60.15625 14.84375 
Q 55.46875 14.84375 50.390625 14.453125 
L 50.390625 20.703125 
Q 55.078125 20.3125 60.15625 20.3125 
L 65.625 20.3125 
L 65.625 30.859375 
L 59.765625 30.859375 
Q 54.6875 30.859375 48.046875 30.46875 
L 48.046875 36.71875 
Q 53.515625 36.328125 60.15625 36.328125 
L 65.625 36.328125 
L 65.625 47.265625 
L 60.15625 47.265625 
Q 57.8125 47.265625 51.953125 46.875 
L 51.953125 51.953125 
Q 50.78125 50.78125 48.828125 48.4375 
Q 46.875 51.5625 44.140625 53.90625 
Q 50.390625 60.15625 53.703125 68.15625 
Q 57.03125 76.171875 58.984375 82.03125 
Q 62.890625 80.078125 67.578125 78.90625 
z
M 42.96875 36.328125 
Q 42.578125 30.859375 42.578125 25 
L 42.578125 1.171875 
Q 42.578125 -4.6875 39.453125 -6.25 
Q 36.328125 -7.8125 30.078125 -8.984375 
Q 29.6875 -5.46875 27.34375 -1.5625 
Q 36.328125 -1.5625 35.546875 1.953125 
L 35.546875 6.640625 
L 15.234375 6.640625 
L 15.234375 -8.203125 
L 8.203125 -8.203125 
Q 8.59375 -3.90625 8.59375 1.953125 
L 8.59375 25 
Q 8.59375 30.859375 8.203125 36.328125 
L 42.96875 36.328125 
z
M 21.875 71.09375 
Q 21.875 74.609375 21.484375 80.46875 
L 29.296875 80.46875 
Q 28.90625 74.609375 28.90625 71.09375 
L 33.984375 71.09375 
Q 39.453125 71.09375 46.875 71.484375 
L 46.875 65.234375 
Q 39.453125 65.625 33.984375 65.625 
L 28.90625 65.625 
L 28.90625 59.375 
L 33.984375 59.375 
Q 36.328125 59.375 42.578125 59.765625 
L 42.578125 53.515625 
Q 35.9375 53.90625 33.59375 53.90625 
L 28.90625 53.90625 
L 28.90625 47.65625 
L 35.15625 47.65625 
Q 40.625 47.65625 46.484375 48.046875 
L 46.484375 41.796875 
Q 40.234375 42.1875 35.15625 42.1875 
L 15.625 42.1875 
Q 9.375 42.1875 3.90625 41.796875 
L 3.90625 48.046875 
Q 9.375 47.65625 15.625 47.65625 
L 21.875 47.65625 
L 21.875 53.90625 
L 15.234375 53.90625 
Q 12.890625 53.90625 8.59375 53.515625 
L 8.59375 59.765625 
Q 12.890625 59.375 15.234375 59.375 
L 21.875 59.375 
L 21.875 65.625 
L 15.234375 65.625 
Q 10.15625 65.625 4.6875 65.234375 
L 4.6875 71.484375 
Q 10.15625 71.09375 15.234375 71.09375 
z
M 52.734375 53.515625 
Q 57.421875 53.125 64.453125 53.125 
L 68.359375 53.125 
Q 72.265625 61.328125 73.4375 64.84375 
L 60.15625 64.84375 
Q 55.078125 56.640625 52.734375 53.515625 
z
M 35.546875 12.109375 
L 35.546875 19.140625 
L 15.234375 19.140625 
L 15.234375 12.109375 
z
M 35.546875 24.609375 
L 35.546875 30.859375 
L 15.234375 30.859375 
L 15.234375 24.609375 
z
M 83.203125 36.328125 
L 83.203125 47.265625 
L 72.265625 47.265625 
L 72.265625 36.328125 
z
M 83.203125 20.3125 
L 83.203125 30.859375 
L 72.265625 30.859375 
L 72.265625 20.3125 
z
" id="SimHei-9759"/>
     <path d="M 45.703125 33.59375 
L 45.703125 53.90625 
Q 36.71875 44.140625 26.359375 38.28125 
Q 16.015625 32.421875 10.546875 30.078125 
Q 10.546875 33.203125 5.46875 36.71875 
Q 16.015625 39.453125 24.21875 44.53125 
Q 32.421875 49.609375 37.109375 54.296875 
L 21.484375 54.296875 
Q 14.84375 54.296875 7.8125 53.90625 
L 7.8125 60.15625 
Q 14.84375 59.765625 21.484375 59.765625 
L 45.703125 59.765625 
L 45.703125 69.921875 
Q 38.28125 69.140625 17.96875 67.578125 
Q 16.796875 71.09375 14.453125 74.609375 
Q 32.8125 74.609375 50.390625 76.953125 
Q 67.96875 79.296875 74.609375 82.03125 
Q 76.953125 78.125 81.25 73.828125 
Q 74.609375 73.4375 67.96875 72.65625 
Q 61.328125 71.875 52.34375 70.703125 
L 52.34375 59.765625 
L 78.125 59.765625 
Q 83.984375 59.765625 91.40625 60.15625 
L 91.40625 53.90625 
Q 84.375 54.296875 78.125 54.296875 
L 61.71875 54.296875 
Q 66.40625 48.4375 74.21875 43.15625 
Q 82.03125 37.890625 94.140625 34.765625 
Q 89.84375 31.640625 88.28125 26.953125 
Q 82.421875 29.296875 77.34375 32.03125 
Q 76.5625 25 76.5625 12.5 
Q 76.5625 -0.78125 76.953125 -8.984375 
L 69.53125 -8.984375 
L 69.53125 -3.125 
L 28.515625 -3.125 
L 28.515625 -9.375 
L 21.875 -9.375 
L 21.875 11.71875 
Q 21.875 25 21.484375 33.59375 
z
M 69.53125 17.96875 
L 69.53125 27.734375 
L 28.515625 27.734375 
L 28.515625 17.96875 
z
M 69.53125 2.734375 
L 69.53125 12.5 
L 28.515625 12.5 
L 28.515625 2.734375 
z
M 71.484375 35.9375 
Q 62.109375 42.578125 52.734375 54.296875 
L 52.34375 54.296875 
L 52.34375 33.59375 
L 75 33.59375 
z
" id="SimHei-9999"/>
    </defs>
    <g style="fill:#800080;" transform="translate(-0.134707 92.142551)rotate(-271.860655)scale(0.12 -0.12)">
     <use xlink:href="#SimHei-63"/>
     <use x="50" xlink:href="#SimHei-6f"/>
     <use x="100" xlink:href="#SimHei-69"/>
     <use x="150" xlink:href="#SimHei-6e"/>
     <use x="200" xlink:href="#SimHei-73"/>
     <use x="250" xlink:href="#SimHei-20"/>
     <use x="300" xlink:href="#SimHei-6f"/>
     <use x="350" xlink:href="#SimHei-66"/>
     <use x="400" xlink:href="#SimHei-20"/>
     <use x="450" xlink:href="#SimHei-9759"/>
     <use x="550" xlink:href="#SimHei-9999"/>
    </g>
   </g>
   <g id="Line3DCollection_3">
    <path d="M 47.792454 197.829967 
L 208.969895 165.885888 
L 325.385066 213.533899 
" style="fill:none;stroke:#b0b0b0;stroke-width:0.8;"/>
    <path d="M 47.197709 179.522231 
L 209.069111 148.38724 
L 326.010174 194.833478 
" style="fill:none;stroke:#b0b0b0;stroke-width:0.8;"/>
    <path d="M 46.597781 161.054931 
L 209.169148 130.743949 
L 326.640869 175.965935 
" style="fill:none;stroke:#b0b0b0;stroke-width:0.8;"/>
    <path d="M 45.992601 142.425973 
L 209.270014 112.954212 
L 327.277226 156.929019 
" style="fill:none;stroke:#b0b0b0;stroke-width:0.8;"/>
    <path d="M 45.3821 123.633224 
L 209.371722 95.016199 
L 327.919321 137.72044 
" style="fill:none;stroke:#b0b0b0;stroke-width:0.8;"/>
    <path d="M 44.766207 104.674514 
L 209.47428 76.928049 
L 328.567233 118.337865 
" style="fill:none;stroke:#b0b0b0;stroke-width:0.8;"/>
    <path d="M 44.144852 85.547636 
L 209.577701 58.687869 
L 329.22104 98.778918 
" style="fill:none;stroke:#b0b0b0;stroke-width:0.8;"/>
    <path d="M 43.51796 66.250341 
L 209.681995 40.293734 
L 329.880823 79.041182 
" style="fill:none;stroke:#b0b0b0;stroke-width:0.8;"/>
   </g>
   <g id="xtick_17">
    <g id="line2d_20">
     <path d="M 49.150818 197.56075 
L 45.072207 198.369099 
" style="fill:none;stroke:#000000;stroke-linecap:square;stroke-width:0.8;"/>
    </g>
    <g id="text_20">
     <!-- 0 -->
     <g transform="translate(25.619991 207.100274)scale(0.15 -0.15)">
      <use xlink:href="#SimHei-30"/>
     </g>
    </g>
   </g>
   <g id="xtick_18">
    <g id="line2d_21">
     <path d="M 48.562222 179.259775 
L 44.465133 180.047826 
" style="fill:none;stroke:#000000;stroke-linecap:square;stroke-width:0.8;"/>
    </g>
    <g id="text_21">
     <!-- 2 -->
     <g transform="translate(24.946444 188.818717)scale(0.15 -0.15)">
      <use xlink:href="#SimHei-32"/>
     </g>
    </g>
   </g>
   <g id="xtick_19">
    <g id="line2d_22">
     <path d="M 47.968498 160.799365 
L 43.852763 161.566732 
" style="fill:none;stroke:#000000;stroke-linecap:square;stroke-width:0.8;"/>
    </g>
    <g id="text_22">
     <!-- 4 -->
     <g transform="translate(24.267036 170.378092)scale(0.15 -0.15)">
      <use xlink:href="#SimHei-34"/>
     </g>
    </g>
   </g>
   <g id="xtick_20">
    <g id="line2d_23">
     <path d="M 47.369579 142.177427 
L 43.235029 142.923718 
" style="fill:none;stroke:#000000;stroke-linecap:square;stroke-width:0.8;"/>
    </g>
    <g id="text_23">
     <!-- 6 -->
     <g transform="translate(23.581691 151.776316)scale(0.15 -0.15)">
      <use xlink:href="#SimHei-36"/>
     </g>
    </g>
   </g>
   <g id="xtick_21">
    <g id="line2d_24">
     <path d="M 46.765397 123.391831 
L 42.611858 124.116645 
" style="fill:none;stroke:#000000;stroke-linecap:square;stroke-width:0.8;"/>
    </g>
    <g id="text_24">
     <!-- 8 -->
     <g transform="translate(22.890331 133.011265)scale(0.15 -0.15)">
      <use xlink:href="#SimHei-38"/>
     </g>
    </g>
   </g>
   <g id="xtick_22">
    <g id="line2d_25">
     <path d="M 46.155881 104.440412 
L 41.983179 105.143338 
" style="fill:none;stroke:#000000;stroke-linecap:square;stroke-width:0.8;"/>
    </g>
    <g id="text_25">
     <!-- 10 -->
     <g transform="translate(18.442875 114.080781)scale(0.15 -0.15)">
      <use xlink:href="#SimHei-31"/>
      <use x="50" xlink:href="#SimHei-30"/>
     </g>
    </g>
   </g>
   <g id="xtick_23">
    <g id="line2d_26">
     <path d="M 45.540962 85.320962 
L 41.348919 86.001585 
" style="fill:none;stroke:#000000;stroke-linecap:square;stroke-width:0.8;"/>
    </g>
    <g id="text_26">
     <!-- 12 -->
     <g transform="translate(17.739244 94.982667)scale(0.15 -0.15)">
      <use xlink:href="#SimHei-31"/>
      <use x="50" xlink:href="#SimHei-32"/>
     </g>
    </g>
   </g>
   <g id="xtick_24">
    <g id="line2d_27">
     <path d="M 44.920566 66.031239 
L 40.709002 66.689131 
" style="fill:none;stroke:#000000;stroke-linecap:square;stroke-width:0.8;"/>
    </g>
    <g id="text_27">
     <!-- 14 -->
     <g transform="translate(17.029354 75.714686)scale(0.15 -0.15)">
      <use xlink:href="#SimHei-31"/>
      <use x="50" xlink:href="#SimHei-34"/>
     </g>
    </g>
   </g>
  </g>
  <g id="axes_1">
   <g id="Path3DCollection_1">
    <defs>
     <path d="M 0 5 
C 1.326016 5 2.597899 4.473168 3.535534 3.535534 
C 4.473168 2.597899 5 1.326016 5 0 
C 5 -1.326016 4.473168 -2.597899 3.535534 -3.535534 
C 2.597899 -4.473168 1.326016 -5 0 -5 
C -1.326016 -5 -2.597899 -4.473168 -3.535534 -3.535534 
C -4.473168 -2.597899 -5 -1.326016 -5 0 
C -5 1.326016 -4.473168 2.597899 -3.535534 3.535534 
C -2.597899 4.473168 -1.326016 5 0 5 
z
" id="m87ecda7d51" style="stroke:#008000;"/>
    </defs>
    <g clip-path="url(#p603885af47)">
     <use style="fill:#008000;stroke:#008000;" x="191.241437" xlink:href="#m87ecda7d51" y="149.294462"/>
    </g>
   </g>
   <g id="Path3DCollection_2">
    <path clip-path="url(#p603885af47)" d="M 213.698551 47.859797 
C 214.073605 47.859797 214.433348 47.710786 214.698551 47.445583 
C 214.963754 47.18038 215.112764 46.820637 215.112764 46.445583 
C 215.112764 46.070529 214.963754 45.710786 214.698551 45.445583 
C 214.433348 45.18038 214.073605 45.031369 213.698551 45.031369 
C 213.323497 45.031369 212.963754 45.18038 212.698551 45.445583 
C 212.433348 45.710786 212.284337 46.070529 212.284337 46.445583 
C 212.284337 46.820637 212.433348 47.18038 212.698551 47.445583 
C 212.963754 47.710786 213.323497 47.859797 213.698551 47.859797 
z
" style="fill:#ff0000;stroke:#ff0000;"/>
    <path clip-path="url(#p603885af47)" d="M 220.685035 60.309513 
C 221.26808 60.309513 221.827323 60.077867 222.239598 59.665592 
C 222.651873 59.253317 222.883519 58.694074 222.883519 58.111029 
C 222.883519 57.527984 222.651873 56.968741 222.239598 56.556466 
C 221.827323 56.144191 221.26808 55.912545 220.685035 55.912545 
C 220.10199 55.912545 219.542747 56.144191 219.130472 56.556466 
C 218.718197 56.968741 218.48655 57.527984 218.48655 58.111029 
C 218.48655 58.694074 218.718197 59.253317 219.130472 59.665592 
C 219.542747 60.077867 220.10199 60.309513 220.685035 60.309513 
z
" style="fill:#ff0000;stroke:#ff0000;"/>
    <path clip-path="url(#p603885af47)" d="M 227.709492 72.35649 
C 228.376905 72.35649 229.017072 72.091324 229.489005 71.619392 
C 229.960937 71.14746 230.226103 70.507292 230.226103 69.839879 
C 230.226103 69.172466 229.960937 68.532298 229.489005 68.060366 
C 229.017072 67.588433 228.376905 67.323267 227.709492 67.323267 
C 227.042078 67.323267 226.401911 67.588433 225.929978 68.060366 
C 225.458046 68.532298 225.19288 69.172466 225.19288 69.839879 
C 225.19288 70.507292 225.458046 71.14746 225.929978 71.619392 
C 226.401911 72.091324 227.042078 72.35649 227.709492 72.35649 
z
" style="fill:#ff0000;stroke:#ff0000;"/>
    <path clip-path="url(#p603885af47)" d="M 234.772232 84.847201 
C 235.62474 84.847201 236.442447 84.508496 237.045262 83.905681 
C 237.648077 83.302867 237.986782 82.48516 237.986782 81.632651 
C 237.986782 80.780142 237.648077 79.962435 237.045262 79.359621 
C 236.442447 78.756806 235.62474 78.418101 234.772232 78.418101 
C 233.919723 78.418101 233.102016 78.756806 232.499201 79.359621 
C 231.896387 79.962435 231.557681 80.780142 231.557681 81.632651 
C 231.557681 82.48516 231.896387 83.302867 232.499201 83.905681 
C 233.102016 84.508496 233.919723 84.847201 234.772232 84.847201 
z
" style="fill:#ff0000;stroke:#ff0000;"/>
    <path clip-path="url(#p603885af47)" d="M 241.873569 97.362852 
C 242.900696 97.362852 243.885893 96.95477 244.612182 96.228482 
C 245.33847 95.502193 245.746552 94.516996 245.746552 93.489869 
C 245.746552 92.462742 245.33847 91.477545 244.612182 90.751256 
C 243.885893 90.024968 242.900696 89.616886 241.873569 89.616886 
C 240.846442 89.616886 239.861245 90.024968 239.134956 90.751256 
C 238.408667 91.477545 238.000585 92.462742 238.000585 93.489869 
C 238.000585 94.516996 238.408667 95.502193 239.134956 96.228482 
C 239.861245 96.95477 240.846442 97.362852 241.873569 97.362852 
z
" style="fill:#ff0000;stroke:#ff0000;"/>
    <path clip-path="url(#p603885af47)" d="M 249.01382 110.344946 
C 250.322036 110.344946 251.576847 109.825186 252.501895 108.900138 
C 253.426943 107.97509 253.946703 106.720279 253.946703 105.412063 
C 253.946703 104.103847 253.426943 102.849037 252.501895 101.923988 
C 251.576847 100.99894 250.322036 100.47918 249.01382 100.47918 
C 247.705604 100.47918 246.450794 100.99894 245.525745 101.923988 
C 244.600697 102.849037 244.080937 104.103847 244.080937 105.412063 
C 244.080937 106.720279 244.600697 107.97509 245.525745 108.900138 
C 246.450794 109.825186 247.705604 110.344946 249.01382 110.344946 
z
" style="fill:#ff0000;stroke:#ff0000;"/>
    <path clip-path="url(#p603885af47)" d="M 256.193307 121.871905 
C 257.379331 121.871905 258.516939 121.400692 259.355584 120.562046 
C 260.19423 119.723401 260.665443 118.585793 260.665443 117.399769 
C 260.665443 116.213744 260.19423 115.076137 259.355584 114.237491 
C 258.516939 113.398845 257.379331 112.927633 256.193307 112.927633 
C 255.007282 112.927633 253.869675 113.398845 253.031029 114.237491 
C 252.192383 115.076137 251.721171 116.213744 251.721171 117.399769 
C 251.721171 118.585793 252.192383 119.723401 253.031029 120.562046 
C 253.869675 121.400692 255.007282 121.871905 256.193307 121.871905 
z
" style="fill:#ff0000;stroke:#ff0000;"/>
    <path clip-path="url(#p603885af47)" d="M 263.412353 134.231951 
C 264.679605 134.231951 265.895125 133.728466 266.791208 132.832383 
C 267.687292 131.9363 268.190776 130.72078 268.190776 129.453527 
C 268.190776 128.186274 267.687292 126.970754 266.791208 126.074671 
C 265.895125 125.178588 264.679605 124.675103 263.412353 124.675103 
C 262.1451 124.675103 260.92958 125.178588 260.033497 126.074671 
C 259.137414 126.970754 258.633929 128.186274 258.633929 129.453527 
C 258.633929 130.72078 259.137414 131.9363 260.033497 132.832383 
C 260.92958 133.728466 262.1451 134.231951 263.412353 134.231951 
z
" style="fill:#ff0000;stroke:#ff0000;"/>
    <path clip-path="url(#p603885af47)" d="M 270.671286 146.317302 
C 271.929255 146.317302 273.13587 145.817506 274.025388 144.927988 
C 274.914906 144.03847 275.414702 142.831855 275.414702 141.573886 
C 275.414702 140.315917 274.914906 139.109302 274.025388 138.219784 
C 273.13587 137.330266 271.929255 136.83047 270.671286 136.83047 
C 269.413317 136.83047 268.206702 137.330266 267.317184 138.219784 
C 266.427666 139.109302 265.927869 140.315917 265.927869 141.573886 
C 265.927869 142.831855 266.427666 144.03847 267.317184 144.927988 
C 268.206702 145.817506 269.413317 146.317302 270.671286 146.317302 
z
" style="fill:#ff0000;stroke:#ff0000;"/>
    <path clip-path="url(#p603885af47)" d="M 277.970438 157.458244 
C 278.950853 157.458244 279.891244 157.068721 280.584502 156.375463 
C 281.27776 155.682205 281.667283 154.741814 281.667283 153.761399 
C 281.667283 152.780984 281.27776 151.840592 280.584502 151.147334 
C 279.891244 150.454076 278.950853 150.064553 277.970438 150.064553 
C 276.990023 150.064553 276.049631 150.454076 275.356373 151.147334 
C 274.663115 151.840592 274.273592 152.780984 274.273592 153.761399 
C 274.273592 154.741814 274.663115 155.682205 275.356373 156.375463 
C 276.049631 157.068721 276.990023 157.458244 277.970438 157.458244 
z
" style="fill:#ff0000;stroke:#ff0000;"/>
    <path clip-path="url(#p603885af47)" d="M 285.310143 169.098832 
C 286.127554 169.098832 286.911596 168.774071 287.489593 168.196074 
C 288.06759 167.618078 288.39235 166.834036 288.39235 166.016625 
C 288.39235 165.199214 288.06759 164.415172 287.489593 163.837175 
C 286.911596 163.259179 286.127554 162.934418 285.310143 162.934418 
C 284.492733 162.934418 283.708691 163.259179 283.130694 163.837175 
C 282.552697 164.415172 282.227936 165.199214 282.227936 166.016625 
C 282.227936 166.834036 282.552697 167.618078 283.130694 168.196074 
C 283.708691 168.774071 284.492733 169.098832 285.310143 169.098832 
z
" style="fill:#ff0000;stroke:#ff0000;"/>
    <path clip-path="url(#p603885af47)" d="M 292.690742 181.13894 
C 293.432995 181.13894 294.144947 180.84404 294.669799 180.319188 
C 295.194651 179.794335 295.489551 179.082383 295.489551 178.34013 
C 295.489551 177.597878 295.194651 176.885926 294.669799 176.361073 
C 294.144947 175.836221 293.432995 175.541321 292.690742 175.541321 
C 291.948489 175.541321 291.236537 175.836221 290.711685 176.361073 
C 290.186833 176.885926 289.891933 177.597878 289.891933 178.34013 
C 289.891933 179.082383 290.186833 179.794335 290.711685 180.319188 
C 291.236537 180.84404 291.948489 181.13894 292.690742 181.13894 
z
" style="fill:#ff0000;stroke:#ff0000;"/>
    <path clip-path="url(#p603885af47)" d="M 300.112576 192.853808 
C 300.675157 192.853808 301.214772 192.630292 301.612576 192.232488 
C 302.010381 191.834683 302.233897 191.295068 302.233897 190.732488 
C 302.233897 190.169907 302.010381 189.630292 301.612576 189.232488 
C 301.214772 188.834683 300.675157 188.611167 300.112576 188.611167 
C 299.549995 188.611167 299.010381 188.834683 298.612576 189.232488 
C 298.214772 189.630292 297.991256 190.169907 297.991256 190.732488 
C 297.991256 191.295068 298.214772 191.834683 298.612576 192.232488 
C 299.010381 192.630292 299.549995 192.853808 300.112576 192.853808 
z
" style="fill:#ff0000;stroke:#ff0000;"/>
    <path clip-path="url(#p603885af47)" d="M 307.575992 204.666235 
C 307.966361 204.666235 308.340793 204.51114 308.616825 204.235108 
C 308.892858 203.959076 309.047953 203.584644 309.047953 203.194275 
C 309.047953 202.803907 308.892858 202.429474 308.616825 202.153442 
C 308.340793 201.87741 307.966361 201.722315 307.575992 201.722315 
C 307.185624 201.722315 306.811192 201.87741 306.535159 202.153442 
C 306.259127 202.429474 306.104032 202.803907 306.104032 203.194275 
C 306.104032 203.584644 306.259127 203.959076 306.535159 204.235108 
C 306.811192 204.51114 307.185624 204.666235 307.575992 204.666235 
z
" style="fill:#ff0000;stroke:#ff0000;"/>
    <path clip-path="url(#p603885af47)" d="M 196.766343 47.25823 
C 197.171447 47.25823 197.560014 47.09728 197.846466 46.810828 
C 198.132918 46.524376 198.293868 46.135809 198.293868 45.730705 
C 198.293868 45.3256 198.132918 44.937034 197.846466 44.650581 
C 197.560014 44.364129 197.171447 44.20318 196.766343 44.20318 
C 196.361238 44.20318 195.972672 44.364129 195.686219 44.650581 
C 195.399767 44.937034 195.238818 45.3256 195.238818 45.730705 
C 195.238818 46.135809 195.399767 46.524376 195.686219 46.810828 
C 195.972672 47.09728 196.361238 47.25823 196.766343 47.25823 
z
" style="fill:#ff0000;stroke:#ff0000;"/>
    <path clip-path="url(#p603885af47)" d="M 186.759219 58.804513 
C 187.332123 58.804513 187.88164 58.576896 188.286744 58.171791 
C 188.691848 57.766687 188.919466 57.21717 188.919466 56.644266 
C 188.919466 56.071362 188.691848 55.521845 188.286744 55.116741 
C 187.88164 54.711636 187.332123 54.484019 186.759219 54.484019 
C 186.186315 54.484019 185.636798 54.711636 185.231694 55.116741 
C 184.826589 55.521845 184.598972 56.071362 184.598972 56.644266 
C 184.598972 57.21717 184.826589 57.766687 185.231694 58.171791 
C 185.636798 58.576896 186.186315 58.804513 186.759219 58.804513 
z
" style="fill:#ff0000;stroke:#ff0000;"/>
    <path clip-path="url(#p603885af47)" d="M 176.728275 70.229555 
C 177.429937 70.229555 178.102955 69.950782 178.599104 69.454632 
C 179.095254 68.958483 179.374027 68.285465 179.374027 67.583804 
C 179.374027 66.882142 179.095254 66.209125 178.599104 65.712975 
C 178.102955 65.216825 177.429937 64.938052 176.728275 64.938052 
C 176.026614 64.938052 175.353596 65.216825 174.857447 65.712975 
C 174.361297 66.209125 174.082524 66.882142 174.082524 67.583804 
C 174.082524 68.285465 174.361297 68.958483 174.857447 69.454632 
C 175.353596 69.950782 176.026614 70.229555 176.728275 70.229555 
z
" style="fill:#ff0000;stroke:#ff0000;"/>
    <path clip-path="url(#p603885af47)" d="M 166.673428 82.061296 
C 167.60479 82.061296 168.498132 81.691261 169.156705 81.032689 
C 169.815278 80.374116 170.185312 79.480774 170.185312 78.549411 
C 170.185312 77.618049 169.815278 76.724707 169.156705 76.066134 
C 168.498132 75.407561 167.60479 75.037527 166.673428 75.037527 
C 165.742065 75.037527 164.848723 75.407561 164.19015 76.066134 
C 163.531577 76.724707 163.161543 77.618049 163.161543 78.549411 
C 163.161543 79.480774 163.531577 80.374116 164.19015 81.032689 
C 164.848723 81.691261 165.742065 82.061296 166.673428 82.061296 
z
" style="fill:#ff0000;stroke:#ff0000;"/>
    <path clip-path="url(#p603885af47)" d="M 156.59459 93.704514 
C 157.698719 93.704514 158.757774 93.265839 159.53851 92.485102 
C 160.319247 91.704365 160.757922 90.64531 160.757922 89.541182 
C 160.757922 88.437053 160.319247 87.377998 159.53851 86.597261 
C 158.757774 85.816524 157.698719 85.37785 156.59459 85.37785 
C 155.490461 85.37785 154.431406 85.816524 153.65067 86.597261 
C 152.869933 87.377998 152.431258 88.437053 152.431258 89.541182 
C 152.431258 90.64531 152.869933 91.704365 153.65067 92.485102 
C 154.431406 93.265839 155.490461 93.704514 156.59459 93.704514 
z
" style="fill:#ff0000;stroke:#ff0000;"/>
    <path clip-path="url(#p603885af47)" d="M 146.491676 104.956177 
C 147.657766 104.956177 148.776253 104.492885 149.600803 103.668335 
C 150.425353 102.843785 150.888645 101.725298 150.888645 100.559209 
C 150.888645 99.393119 150.425353 98.274632 149.600803 97.450082 
C 148.776253 96.625532 147.657766 96.16224 146.491676 96.16224 
C 145.325587 96.16224 144.2071 96.625532 143.38255 97.450082 
C 142.558 98.274632 142.094708 99.393119 142.094708 100.559209 
C 142.094708 101.725298 142.558 102.843785 143.38255 103.668335 
C 144.2071 104.492885 145.325587 104.956177 146.491676 104.956177 
z
" style="fill:#ff0000;stroke:#ff0000;"/>
    <path clip-path="url(#p603885af47)" d="M 136.364601 116.347003 
C 137.622569 116.347003 138.829184 115.847207 139.718703 114.957688 
C 140.608221 114.06817 141.108017 112.861555 141.108017 111.603586 
C 141.108017 110.345618 140.608221 109.139003 139.718703 108.249484 
C 138.829184 107.359966 137.622569 106.86017 136.364601 106.86017 
C 135.106632 106.86017 133.900017 107.359966 133.010499 108.249484 
C 132.12098 109.139003 131.621184 110.345618 131.621184 111.603586 
C 131.621184 112.861555 132.12098 114.06817 133.010499 114.957688 
C 133.900017 115.847207 135.106632 116.347003 136.364601 116.347003 
z
" style="fill:#ff0000;stroke:#ff0000;"/>
    <path clip-path="url(#p603885af47)" d="M 126.213276 127.452833 
C 127.480529 127.452833 128.696049 126.949349 129.592132 126.053266 
C 130.488215 125.157183 130.9917 123.941663 130.9917 122.67441 
C 130.9917 121.407157 130.488215 120.191637 129.592132 119.295554 
C 128.696049 118.399471 127.480529 117.895986 126.213276 117.895986 
C 124.946023 117.895986 123.730503 118.399471 122.83442 119.295554 
C 121.938337 120.191637 121.434852 121.407157 121.434852 122.67441 
C 121.434852 123.941663 121.938337 125.157183 122.83442 126.053266 
C 123.730503 126.949349 124.946023 127.452833 126.213276 127.452833 
z
" style="fill:#ff0000;stroke:#ff0000;"/>
    <path clip-path="url(#p603885af47)" d="M 116.037615 138.372498 
C 117.257741 138.372498 118.428059 137.887737 119.290818 137.024977 
C 120.153578 136.162218 120.638339 134.9919 120.638339 133.771774 
C 120.638339 132.551647 120.153578 131.38133 119.290818 130.51857 
C 118.428059 129.65581 117.257741 129.171049 116.037615 129.171049 
C 114.817488 129.171049 113.647171 129.65581 112.784411 130.51857 
C 111.921652 131.38133 111.43689 132.551647 111.43689 133.771774 
C 111.43689 134.9919 111.921652 136.162218 112.784411 137.024977 
C 113.647171 137.887737 114.817488 138.372498 116.037615 138.372498 
z
" style="fill:#ff0000;stroke:#ff0000;"/>
    <path clip-path="url(#p603885af47)" d="M 105.83753 149.138414 
C 106.962691 149.138414 108.04192 148.691383 108.83753 147.895774 
C 109.633139 147.100164 110.08017 146.020935 110.08017 144.895774 
C 110.08017 143.770612 109.633139 142.691383 108.83753 141.895774 
C 108.04192 141.100164 106.962691 140.653133 105.83753 140.653133 
C 104.712368 140.653133 103.633139 141.100164 102.83753 141.895774 
C 102.04192 142.691383 101.594889 143.770612 101.594889 144.895774 
C 101.594889 146.020935 102.04192 147.100164 102.83753 147.895774 
C 103.633139 148.691383 104.712368 149.138414 105.83753 149.138414 
z
" style="fill:#ff0000;stroke:#ff0000;"/>
    <path clip-path="url(#p603885af47)" d="M 95.612933 158.785119 
C 96.339222 158.785119 97.035861 158.496561 97.549425 157.982998 
C 98.062988 157.469434 98.351546 156.772795 98.351546 156.046506 
C 98.351546 155.320217 98.062988 154.623578 97.549425 154.110014 
C 97.035861 153.596451 96.339222 153.307893 95.612933 153.307893 
C 94.886644 153.307893 94.190005 153.596451 93.676441 154.110014 
C 93.162878 154.623578 92.87432 155.320217 92.87432 156.046506 
C 92.87432 156.772795 93.162878 157.469434 93.676441 157.982998 
C 94.190005 158.496561 94.886644 158.785119 95.612933 158.785119 
z
" style="fill:#ff0000;stroke:#ff0000;"/>
    <path clip-path="url(#p603885af47)" d="M 85.363736 169.90113 
C 86.073701 169.90113 86.754684 169.619058 87.256705 169.117036 
C 87.758727 168.615015 88.040799 167.934032 88.040799 167.224067 
C 88.040799 166.514102 87.758727 165.833119 87.256705 165.331097 
C 86.754684 164.829076 86.073701 164.547004 85.363736 164.547004 
C 84.65377 164.547004 83.972788 164.829076 83.470766 165.331097 
C 82.968745 165.833119 82.686673 166.514102 82.686673 167.224067 
C 82.686673 167.934032 82.968745 168.615015 83.470766 169.117036 
C 83.972788 169.619058 84.65377 169.90113 85.363736 169.90113 
z
" style="fill:#ff0000;stroke:#ff0000;"/>
    <path clip-path="url(#p603885af47)" d="M 75.089849 180.627038 
C 75.672894 180.627038 76.232137 180.395392 76.644412 179.983117 
C 77.056687 179.570842 77.288334 179.011598 77.288334 178.428553 
C 77.288334 177.845509 77.056687 177.286265 76.644412 176.87399 
C 76.232137 176.461715 75.672894 176.230069 75.089849 176.230069 
C 74.506804 176.230069 73.947561 176.461715 73.535286 176.87399 
C 73.123011 177.286265 72.891365 177.845509 72.891365 178.428553 
C 72.891365 179.011598 73.123011 179.570842 73.535286 179.983117 
C 73.947561 180.395392 74.506804 180.627038 75.089849 180.627038 
z
" style="fill:#ff0000;stroke:#ff0000;"/>
    <path clip-path="url(#p603885af47)" d="M 64.791184 191.074276 
C 65.166238 191.074276 65.525981 190.925266 65.791184 190.660063 
C 66.056387 190.39486 66.205398 190.035117 66.205398 189.660063 
C 66.205398 189.285009 66.056387 188.925266 65.791184 188.660063 
C 65.525981 188.39486 65.166238 188.245849 64.791184 188.245849 
C 64.41613 188.245849 64.056387 188.39486 63.791184 188.660063 
C 63.525981 188.925266 63.376971 189.285009 63.376971 189.660063 
C 63.376971 190.035117 63.525981 190.39486 63.791184 190.660063 
C 64.056387 190.925266 64.41613 191.074276 64.791184 191.074276 
z
" style="fill:#ff0000;stroke:#ff0000;"/>
    <path clip-path="url(#p603885af47)" d="M 297.324995 216.071216 
C 297.684081 216.071216 298.028509 215.928549 298.282422 215.674636 
C 298.536334 215.420724 298.679001 215.076296 298.679001 214.717209 
C 298.679001 214.358123 298.536334 214.013695 298.282422 213.759782 
C 298.028509 213.505869 297.684081 213.363203 297.324995 213.363203 
C 296.965908 213.363203 296.62148 213.505869 296.367568 213.759782 
C 296.113655 214.013695 295.970988 214.358123 295.970988 214.717209 
C 295.970988 215.076296 296.113655 215.420724 296.367568 215.674636 
C 296.62148 215.928549 296.965908 216.071216 297.324995 216.071216 
z
" style="fill:#ff0000;stroke:#ff0000;"/>
    <path clip-path="url(#p603885af47)" d="M 279.624347 216.056713 
C 280.246304 216.056713 280.84287 215.809607 281.28266 215.369817 
C 281.722449 214.930028 281.969555 214.333461 281.969555 213.711505 
C 281.969555 213.089549 281.722449 212.492982 281.28266 212.053193 
C 280.84287 211.613403 280.246304 211.366297 279.624347 211.366297 
C 279.002391 211.366297 278.405824 211.613403 277.966035 212.053193 
C 277.526245 212.492982 277.279139 213.089549 277.279139 213.711505 
C 277.279139 214.333461 277.526245 214.930028 277.966035 215.369817 
C 278.405824 215.809607 279.002391 216.056713 279.624347 216.056713 
z
" style="fill:#ff0000;stroke:#ff0000;"/>
    <path clip-path="url(#p603885af47)" d="M 261.979137 215.477825 
C 262.713451 215.477825 263.417788 215.186079 263.937027 214.66684 
C 264.456265 214.147602 264.748011 213.443265 264.748011 212.70895 
C 264.748011 211.974636 264.456265 211.270299 263.937027 210.75106 
C 263.417788 210.231822 262.713451 209.940076 261.979137 209.940076 
C 261.244822 209.940076 260.540485 210.231822 260.021247 210.75106 
C 259.502008 211.270299 259.210262 211.974636 259.210262 212.70895 
C 259.210262 213.443265 259.502008 214.147602 260.021247 214.66684 
C 260.540485 215.186079 261.244822 215.477825 261.979137 215.477825 
z
" style="fill:#ff0000;stroke:#ff0000;"/>
    <path clip-path="url(#p603885af47)" d="M 244.389103 214.737181 
C 245.192045 214.737181 245.962209 214.418169 246.529975 213.850403 
C 247.097741 213.282637 247.416753 212.512473 247.416753 211.709531 
C 247.416753 210.906589 247.097741 210.136425 246.529975 209.568659 
C 245.962209 209.000893 245.192045 208.681881 244.389103 208.681881 
C 243.586161 208.681881 242.815997 209.000893 242.248231 209.568659 
C 241.680465 210.136425 241.361453 210.906589 241.361453 211.709531 
C 241.361453 212.512473 241.680465 213.282637 242.248231 213.850403 
C 242.815997 214.418169 243.586161 214.737181 244.389103 214.737181 
z
" style="fill:#ff0000;stroke:#ff0000;"/>
    <path clip-path="url(#p603885af47)" d="M 226.853988 214.499171 
C 227.858031 214.499171 228.821086 214.10026 229.531051 213.390295 
C 230.241017 212.680329 230.639927 211.717275 230.639927 210.713232 
C 230.639927 209.709189 230.241017 208.746134 229.531051 208.036169 
C 228.821086 207.326203 227.858031 206.927293 226.853988 206.927293 
C 225.849945 206.927293 224.886891 207.326203 224.176925 208.036169 
C 223.46696 208.746134 223.068049 209.709189 223.068049 210.713232 
C 223.068049 211.717275 223.46696 212.680329 224.176925 213.390295 
C 224.886891 214.10026 225.849945 214.499171 226.853988 214.499171 
z
" style="fill:#ff0000;stroke:#ff0000;"/>
    <path clip-path="url(#p603885af47)" d="M 209.373535 214.266099 
C 210.579165 214.266099 211.735577 213.787097 212.588085 212.934589 
C 213.440594 212.08208 213.919596 210.925668 213.919596 209.720038 
C 213.919596 208.514409 213.440594 207.357997 212.588085 206.505488 
C 211.735577 205.652979 210.579165 205.173978 209.373535 205.173978 
C 208.167906 205.173978 207.011494 205.652979 206.158985 206.505488 
C 205.306476 207.357997 204.827475 208.514409 204.827475 209.720038 
C 204.827475 210.925668 205.306476 212.08208 206.158985 212.934589 
C 207.011494 213.787097 208.167906 214.266099 209.373535 214.266099 
z
" style="fill:#ff0000;stroke:#ff0000;"/>
    <path clip-path="url(#p603885af47)" d="M 191.947489 213.525768 
C 193.219358 213.525768 194.439306 213.020449 195.338654 212.121101 
C 196.238001 211.221754 196.74332 210.001806 196.74332 208.729936 
C 196.74332 207.458067 196.238001 206.238119 195.338654 205.338771 
C 194.439306 204.439424 193.219358 203.934105 191.947489 203.934105 
C 190.675619 203.934105 189.455671 204.439424 188.556324 205.338771 
C 187.656976 206.238119 187.151657 207.458067 187.151657 208.729936 
C 187.151657 210.001806 187.656976 211.221754 188.556324 212.121101 
C 189.455671 213.020449 190.675619 213.525768 191.947489 213.525768 
z
" style="fill:#ff0000;stroke:#ff0000;"/>
    <path clip-path="url(#p603885af47)" d="M 174.575595 212.556087 
C 175.852065 212.556087 177.076425 212.048941 177.979025 211.146341 
C 178.881625 210.243741 179.388772 209.01938 179.388772 207.742911 
C 179.388772 206.466442 178.881625 205.242081 177.979025 204.339481 
C 177.076425 203.436881 175.852065 202.929735 174.575595 202.929735 
C 173.299126 202.929735 172.074766 203.436881 171.172166 204.339481 
C 170.269566 205.242081 169.762419 206.466442 169.762419 207.742911 
C 169.762419 209.01938 170.269566 210.243741 171.172166 211.146341 
C 172.074766 212.048941 173.299126 212.556087 174.575595 212.556087 
z
" style="fill:#ff0000;stroke:#ff0000;"/>
    <path clip-path="url(#p603885af47)" d="M 157.257603 211.305009 
C 158.463232 211.305009 159.619645 210.826007 160.472153 209.973498 
C 161.324662 209.12099 161.803664 207.964578 161.803664 206.758948 
C 161.803664 205.553319 161.324662 204.396907 160.472153 203.544398 
C 159.619645 202.691889 158.463232 202.212888 157.257603 202.212888 
C 156.051974 202.212888 154.895561 202.691889 154.043053 203.544398 
C 153.190544 204.396907 152.711542 205.553319 152.711542 206.758948 
C 152.711542 207.964578 153.190544 209.12099 154.043053 209.973498 
C 154.895561 210.826007 156.051974 211.305009 157.257603 211.305009 
z
" style="fill:#ff0000;stroke:#ff0000;"/>
    <path clip-path="url(#p603885af47)" d="M 139.993261 209.981207 
C 141.107956 209.981207 142.177145 209.538334 142.965354 208.750126 
C 143.753562 207.961918 144.196435 206.892728 144.196435 205.778034 
C 144.196435 204.663339 143.753562 203.594149 142.965354 202.805941 
C 142.177145 202.017733 141.107956 201.57486 139.993261 201.57486 
C 138.878567 201.57486 137.809377 202.017733 137.021169 202.805941 
C 136.232961 203.594149 135.790088 204.663339 135.790088 205.778034 
C 135.790088 206.892728 136.232961 207.961918 137.021169 208.750126 
C 137.809377 209.538334 138.878567 209.981207 139.993261 209.981207 
z
" style="fill:#ff0000;stroke:#ff0000;"/>
    <path clip-path="url(#p603885af47)" d="M 122.782321 207.508166 
C 123.500494 207.508166 124.18935 207.222833 124.697175 206.715007 
C 125.205 206.207182 125.490334 205.518327 125.490334 204.800153 
C 125.490334 204.08198 125.205 203.393124 124.697175 202.885299 
C 124.18935 202.377474 123.500494 202.09214 122.782321 202.09214 
C 122.064148 202.09214 121.375292 202.377474 120.867467 202.885299 
C 120.359641 203.393124 120.074308 204.08198 120.074308 204.800153 
C 120.074308 205.518327 120.359641 206.207182 120.867467 206.715007 
C 121.375292 207.222833 122.064148 207.508166 122.782321 207.508166 
z
" style="fill:#ff0000;stroke:#ff0000;"/>
    <path clip-path="url(#p603885af47)" d="M 105.624535 206.797385 
C 106.412743 206.797385 107.168774 206.484227 107.726122 205.92688 
C 108.283469 205.369532 108.596627 204.613501 108.596627 203.825293 
C 108.596627 203.037085 108.283469 202.281054 107.726122 201.723706 
C 107.168774 201.166359 106.412743 200.853201 105.624535 200.853201 
C 104.836327 200.853201 104.080296 201.166359 103.522948 201.723706 
C 102.965601 202.281054 102.652442 203.037085 102.652442 203.825293 
C 102.652442 204.613501 102.965601 205.369532 103.522948 205.92688 
C 104.080296 206.484227 104.836327 206.797385 105.624535 206.797385 
z
" style="fill:#ff0000;stroke:#ff0000;"/>
    <path clip-path="url(#p603885af47)" d="M 88.519657 204.811329 
C 89.038896 204.811329 89.536937 204.605033 89.904095 204.237876 
C 90.271252 203.870719 90.477547 203.372677 90.477547 202.853439 
C 90.477547 202.3342 90.271252 201.836158 89.904095 201.469001 
C 89.536937 201.101844 89.038896 200.895549 88.519657 200.895549 
C 88.000419 200.895549 87.502377 201.101844 87.13522 201.469001 
C 86.768063 201.836158 86.561767 202.3342 86.561767 202.853439 
C 86.561767 203.372677 86.768063 203.870719 87.13522 204.237876 
C 87.502377 204.605033 88.000419 204.811329 88.519657 204.811329 
z
" style="fill:#ff0000;stroke:#ff0000;"/>
    <path clip-path="url(#p603885af47)" d="M 71.467443 203.109322 
C 71.79225 203.109322 72.103796 202.980275 72.333469 202.750602 
C 72.563142 202.52093 72.692188 202.209383 72.692188 201.884577 
C 72.692188 201.559771 72.563142 201.248224 72.333469 201.018551 
C 72.103796 200.788879 71.79225 200.659832 71.467443 200.659832 
C 71.142637 200.659832 70.831091 200.788879 70.601418 201.018551 
C 70.371745 201.248224 70.242699 201.559771 70.242699 201.884577 
C 70.242699 202.209383 70.371745 202.52093 70.601418 202.750602 
C 70.831091 202.980275 71.142637 203.109322 71.467443 203.109322 
z
" style="fill:#ff0000;stroke:#ff0000;"/>
   </g>
   <g id="legend_1">
    <g id="patch_6">
     <path d="M 10.5 280.5 
L 283.5 280.5 
Q 286.5 280.5 286.5 277.5 
L 286.5 239.25 
Q 286.5 236.25 283.5 236.25 
L 10.5 236.25 
Q 7.5 236.25 7.5 239.25 
L 7.5 277.5 
Q 7.5 280.5 10.5 280.5 
z
" style="fill:#ffffff;opacity:0.8;stroke:#cccccc;stroke-linejoin:miter;"/>
    </g>
    <g id="Path3DCollection_3">
     <defs>
      <path d="M 0 3.593976 
C 0.953134 3.593976 1.867358 3.215292 2.541325 2.541325 
C 3.215292 1.867358 3.593976 0.953134 3.593976 0 
C 3.593976 -0.953134 3.215292 -1.867358 2.541325 -2.541325 
C 1.867358 -3.215292 0.953134 -3.593976 0 -3.593976 
C -0.953134 -3.593976 -1.867358 -3.215292 -2.541325 -2.541325 
C -3.215292 -1.867358 -3.593976 -0.953134 -3.593976 0 
C -3.593976 0.953134 -3.215292 1.867358 -2.541325 2.541325 
C -1.867358 3.215292 -0.953134 3.593976 0 3.593976 
z
" id="md8a19ea0aa" style="stroke:#ff0000;"/>
     </defs>
     <g>
      <use style="fill:#ff0000;stroke:#ff0000;" x="28.5" xlink:href="#md8a19ea0aa" y="248.8125"/>
     </g>
    </g>
    <g id="text_28">
     <!-- probability of absorbing state -->
     <defs>
      <path d="M 44.140625 23.828125 
Q 44.140625 12.5 38.671875 6.640625 
Q 33.203125 0.78125 25.390625 0.78125 
Q 21.09375 0.78125 17.96875 2.53125 
Q 14.84375 4.296875 12.5 7.8125 
L 12.5 -12.5 
L 4.6875 -12.5 
L 4.6875 45.703125 
L 12.5 45.703125 
L 12.5 39.84375 
Q 14.84375 43.359375 17.96875 44.921875 
Q 21.09375 46.484375 25.390625 46.484375 
Q 33.203125 46.484375 38.671875 40.8125 
Q 44.140625 35.15625 44.140625 23.828125 
z
M 35.546875 23.828125 
Q 35.546875 31.25 32.609375 35.34375 
Q 29.6875 39.453125 23.828125 39.453125 
Q 19.140625 39.453125 15.8125 35.34375 
Q 12.5 31.25 12.5 23.828125 
Q 12.5 16.40625 15.8125 12.109375 
Q 19.140625 7.8125 23.828125 7.8125 
Q 29.6875 7.8125 32.609375 12.109375 
Q 35.546875 16.40625 35.546875 23.828125 
z
" id="SimHei-70"/>
      <path d="M 39.0625 37.890625 
Q 31.640625 39.0625 26.5625 35.734375 
Q 21.484375 32.421875 17.96875 24.21875 
L 17.96875 1.953125 
L 10.15625 1.953125 
L 10.15625 45.703125 
L 17.96875 45.703125 
L 17.96875 34.375 
Q 21.484375 40.625 26.75 43.546875 
Q 32.03125 46.484375 39.0625 46.484375 
z
" id="SimHei-72"/>
      <path d="M 44.140625 23.828125 
Q 44.140625 12.5 38.671875 6.828125 
Q 33.203125 1.171875 25.390625 1.171875 
Q 21.09375 1.171875 17.96875 2.734375 
Q 14.84375 4.296875 12.5 7.8125 
L 12.5 1.953125 
L 4.6875 1.953125 
L 4.6875 68.75 
L 12.5 68.75 
L 12.5 39.84375 
Q 14.84375 43.359375 17.96875 45.109375 
Q 21.09375 46.875 25.390625 46.875 
Q 33.203125 46.875 38.671875 41.015625 
Q 44.140625 35.15625 44.140625 23.828125 
z
M 35.546875 23.828125 
Q 35.546875 31.25 32.609375 35.546875 
Q 29.6875 39.84375 23.828125 39.84375 
Q 19.140625 39.84375 15.8125 35.546875 
Q 12.5 31.25 12.5 23.828125 
Q 12.5 16.40625 15.8125 12.296875 
Q 19.140625 8.203125 23.828125 8.203125 
Q 29.6875 8.203125 32.609375 12.296875 
Q 35.546875 16.40625 35.546875 23.828125 
z
" id="SimHei-62"/>
      <path d="M 44.921875 1.953125 
L 35.546875 1.953125 
Q 34.765625 2.734375 34.375 4.09375 
Q 33.984375 5.46875 33.984375 7.421875 
Q 31.25 4.296875 27.34375 2.734375 
Q 23.4375 1.171875 19.140625 1.171875 
Q 12.890625 1.171875 8.59375 4.296875 
Q 4.296875 7.421875 4.296875 13.28125 
Q 4.296875 19.140625 8.203125 22.65625 
Q 12.109375 26.171875 20.3125 27.34375 
Q 25.78125 28.125 29.875 29.296875 
Q 33.984375 30.46875 33.984375 32.421875 
Q 33.984375 34.765625 32.21875 37.109375 
Q 30.46875 39.453125 24.609375 39.453125 
Q 19.921875 39.453125 17.765625 37.6875 
Q 15.625 35.9375 14.84375 32.8125 
L 6.25 32.8125 
Q 7.03125 39.0625 11.90625 42.765625 
Q 16.796875 46.484375 24.609375 46.484375 
Q 33.203125 46.484375 37.5 42.578125 
Q 41.796875 38.671875 41.796875 31.640625 
L 41.796875 10.15625 
Q 41.796875 7.8125 42.578125 5.859375 
Q 43.359375 3.90625 44.921875 1.953125 
z
M 33.984375 16.40625 
L 33.984375 24.21875 
Q 31.640625 23.4375 29.484375 22.84375 
Q 27.34375 22.265625 22.265625 21.484375 
Q 16.40625 20.703125 14.640625 18.75 
Q 12.890625 16.796875 12.890625 14.0625 
Q 12.890625 11.71875 14.640625 9.953125 
Q 16.40625 8.203125 19.921875 8.203125 
Q 23.4375 8.203125 27.53125 10.15625 
Q 31.640625 12.109375 33.984375 16.40625 
z
" id="SimHei-61"/>
      <path d="M 28.515625 1.953125 
L 20.703125 1.953125 
L 20.703125 68.75 
L 28.515625 68.75 
z
" id="SimHei-6c"/>
      <path d="M 42.96875 3.125 
Q 41.015625 2.34375 38.46875 1.75 
Q 35.9375 1.171875 31.640625 1.171875 
Q 24.609375 1.171875 20.3125 5.078125 
Q 16.015625 8.984375 16.015625 16.015625 
L 16.015625 39.453125 
L 2.734375 39.453125 
L 2.734375 45.703125 
L 16.015625 45.703125 
L 16.015625 60.9375 
L 23.828125 60.9375 
L 23.828125 45.703125 
L 39.84375 45.703125 
L 39.84375 39.453125 
L 23.828125 39.453125 
L 23.828125 15.625 
Q 23.828125 12.5 25.390625 10.34375 
Q 26.953125 8.203125 31.25 8.203125 
Q 35.546875 8.203125 38.28125 8.984375 
Q 41.015625 9.765625 42.96875 10.9375 
z
" id="SimHei-74"/>
      <path d="M 45.3125 45.703125 
L 27.34375 -1.5625 
Q 25.78125 -7.03125 22.65625 -9.765625 
Q 19.53125 -12.5 14.84375 -12.5 
Q 12.890625 -12.5 11.125 -12.296875 
Q 9.375 -12.109375 7.8125 -11.328125 
L 7.8125 -3.515625 
Q 9.375 -4.296875 10.9375 -4.6875 
Q 12.5 -5.078125 13.671875 -5.078125 
Q 16.796875 -5.078125 17.96875 -4.09375 
Q 19.140625 -3.125 20.3125 0.390625 
L 3.125 45.703125 
L 11.71875 45.703125 
L 24.21875 11.328125 
L 24.609375 11.328125 
L 36.71875 45.703125 
z
" id="SimHei-79"/>
      <path d="M 46.484375 39.0625 
Q 43.75 39.84375 41.203125 40.03125 
Q 38.671875 40.234375 35.9375 39.453125 
Q 37.109375 38.28125 37.890625 36.515625 
Q 38.671875 34.765625 38.671875 31.25 
Q 38.671875 24.609375 34.171875 20.3125 
Q 29.6875 16.015625 23.046875 16.015625 
Q 21.484375 16.015625 18.9375 16.59375 
Q 16.40625 17.1875 14.84375 17.96875 
Q 13.671875 17.1875 13.28125 16.40625 
Q 12.890625 15.625 12.890625 14.453125 
Q 12.890625 12.5 15.625 11.515625 
Q 18.359375 10.546875 25.390625 10.546875 
Q 36.71875 10.546875 40.8125 7.421875 
Q 44.921875 4.296875 44.921875 -0.390625 
Q 44.921875 -6.640625 38.859375 -9.5625 
Q 32.8125 -12.5 24.609375 -12.5 
Q 14.0625 -12.5 8.984375 -9.765625 
Q 3.90625 -7.03125 3.90625 -2.34375 
Q 3.90625 0 5.859375 2.34375 
Q 7.8125 4.6875 10.9375 6.25 
Q 8.59375 7.421875 7.21875 9.171875 
Q 5.859375 10.9375 5.859375 13.671875 
Q 5.859375 16.015625 7.609375 17.765625 
Q 9.375 19.53125 11.71875 20.703125 
Q 9.765625 22.65625 8.59375 25.390625 
Q 7.421875 28.125 7.421875 31.25 
Q 7.421875 37.890625 11.90625 42.1875 
Q 16.40625 46.484375 23.046875 46.484375 
Q 26.5625 46.484375 29.09375 45.5 
Q 31.640625 44.53125 33.59375 42.578125 
Q 36.71875 44.921875 39.84375 45.890625 
Q 42.96875 46.875 46.484375 46.484375 
z
M 30.859375 31.25 
Q 30.859375 35.15625 28.90625 37.5 
Q 26.953125 39.84375 23.046875 39.84375 
Q 19.140625 39.84375 17.1875 37.5 
Q 15.234375 35.15625 15.234375 31.25 
Q 15.234375 27.34375 17.1875 25 
Q 19.140625 22.65625 23.046875 22.65625 
Q 26.953125 22.65625 28.90625 25 
Q 30.859375 27.34375 30.859375 31.25 
z
M 37.5 -1.171875 
Q 37.5 0.390625 35.734375 1.953125 
Q 33.984375 3.515625 26.953125 3.515625 
Q 25.390625 3.515625 22.65625 3.703125 
Q 19.921875 3.90625 16.40625 4.296875 
Q 13.28125 3.125 12.109375 1.5625 
Q 10.9375 0 10.9375 -1.5625 
Q 10.9375 -3.90625 14.0625 -5.46875 
Q 17.1875 -7.03125 25 -7.03125 
Q 31.640625 -7.03125 34.5625 -5.265625 
Q 37.5 -3.515625 37.5 -1.171875 
z
" id="SimHei-67"/>
      <path d="M 44.53125 16.796875 
Q 43.75 9.765625 38.28125 5.46875 
Q 32.8125 1.171875 25.390625 1.171875 
Q 16.015625 1.171875 9.953125 7.21875 
Q 3.90625 13.28125 3.90625 23.828125 
Q 3.90625 34.375 9.953125 40.421875 
Q 16.015625 46.484375 25.390625 46.484375 
Q 33.59375 46.484375 38.859375 41.203125 
Q 44.140625 35.9375 44.140625 23.828125 
L 12.5 23.828125 
Q 12.5 15.234375 16.203125 11.71875 
Q 19.921875 8.203125 25.390625 8.203125 
Q 29.6875 8.203125 32.421875 10.34375 
Q 35.15625 12.5 35.9375 16.796875 
z
M 35.15625 30.078125 
Q 34.375 35.546875 31.640625 37.6875 
Q 28.90625 39.84375 24.609375 39.84375 
Q 20.703125 39.84375 17.578125 37.6875 
Q 14.453125 35.546875 12.890625 30.078125 
z
" id="SimHei-65"/>
     </defs>
     <g transform="translate(55.5 252.75)scale(0.15 -0.15)">
      <use xlink:href="#SimHei-70"/>
      <use x="50" xlink:href="#SimHei-72"/>
      <use x="100" xlink:href="#SimHei-6f"/>
      <use x="150" xlink:href="#SimHei-62"/>
      <use x="200" xlink:href="#SimHei-61"/>
      <use x="250" xlink:href="#SimHei-62"/>
      <use x="300" xlink:href="#SimHei-69"/>
      <use x="350" xlink:href="#SimHei-6c"/>
      <use x="400" xlink:href="#SimHei-69"/>
      <use x="450" xlink:href="#SimHei-74"/>
      <use x="500" xlink:href="#SimHei-79"/>
      <use x="550" xlink:href="#SimHei-20"/>
      <use x="600" xlink:href="#SimHei-6f"/>
      <use x="650" xlink:href="#SimHei-66"/>
      <use x="700" xlink:href="#SimHei-20"/>
      <use x="750" xlink:href="#SimHei-61"/>
      <use x="800" xlink:href="#SimHei-62"/>
      <use x="850" xlink:href="#SimHei-73"/>
      <use x="900" xlink:href="#SimHei-6f"/>
      <use x="950" xlink:href="#SimHei-72"/>
      <use x="1000" xlink:href="#SimHei-62"/>
      <use x="1050" xlink:href="#SimHei-69"/>
      <use x="1100" xlink:href="#SimHei-6e"/>
      <use x="1150" xlink:href="#SimHei-67"/>
      <use x="1200" xlink:href="#SimHei-20"/>
      <use x="1250" xlink:href="#SimHei-73"/>
      <use x="1300" xlink:href="#SimHei-74"/>
      <use x="1350" xlink:href="#SimHei-61"/>
      <use x="1400" xlink:href="#SimHei-74"/>
      <use x="1450" xlink:href="#SimHei-65"/>
     </g>
    </g>
    <g id="Path3DCollection_4">
     <g>
      <use style="fill:#008000;stroke:#008000;" x="28.5" xlink:href="#m87ecda7d51" y="268.6875"/>
     </g>
    </g>
    <g id="text_29">
     <!-- start state -->
     <g transform="translate(55.5 272.625)scale(0.15 -0.15)">
      <use xlink:href="#SimHei-73"/>
      <use x="50" xlink:href="#SimHei-74"/>
      <use x="100" xlink:href="#SimHei-61"/>
      <use x="150" xlink:href="#SimHei-72"/>
      <use x="200" xlink:href="#SimHei-74"/>
      <use x="250" xlink:href="#SimHei-20"/>
      <use x="300" xlink:href="#SimHei-73"/>
      <use x="350" xlink:href="#SimHei-74"/>
      <use x="400" xlink:href="#SimHei-61"/>
      <use x="450" xlink:href="#SimHei-74"/>
      <use x="500" xlink:href="#SimHei-65"/>
     </g>
    </g>
   </g>
  </g>
 </g>
 <defs>
  <clipPath id="p603885af47">
   <rect height="288" width="360" x="0" y="0"/>
  </clipPath>
 </defs>
</svg>
