<?xml version="1.0" encoding="utf-8" standalone="no"?>
<!DOCTYPE svg PUBLIC "-//W3C//DTD SVG 1.1//EN"
  "http://www.w3.org/Graphics/SVG/1.1/DTD/svg11.dtd">
<!-- Created with matplotlib (http://matplotlib.org/) -->
<svg height="288pt" version="1.1" viewBox="0 0 360 288" width="360pt" xmlns="http://www.w3.org/2000/svg" xmlns:xlink="http://www.w3.org/1999/xlink">
 <defs>
  <style type="text/css">
*{stroke-linecap:butt;stroke-linejoin:round;}
  </style>
 </defs>
 <g id="figure_1">
  <g id="patch_1">
   <path d="M 0 288 
L 360 288 
L 360 0 
L 0 0 
z
" style="fill:#ffffff;"/>
  </g>
  <g id="patch_2">
   <path d="M 0 288 
L 360 288 
L 360 0 
L 0 0 
z
" style="fill:#ffffff;"/>
  </g>
  <g id="pane3d_1">
   <g id="patch_3">
    <path d="M 208.919567 174.762306 
L 325.068129 223.015199 
L 330.219918 68.897002 
L 209.735568 30.845085 
" style="fill:#f2f2f2;opacity:0.5;stroke:#f2f2f2;stroke-linejoin:miter;"/>
   </g>
  </g>
  <g id="pane3d_2">
   <g id="patch_4">
    <path d="M 208.919567 174.762306 
L 48.094045 207.1137 
L 43.195826 56.334254 
L 209.735568 30.845085 
" style="fill:#e6e6e6;opacity:0.5;stroke:#e6e6e6;stroke-linejoin:miter;"/>
   </g>
  </g>
  <g id="pane3d_3">
   <g id="patch_5">
    <path d="M 208.919567 174.762306 
L 48.094045 207.1137 
L 157.362833 260.931196 
L 325.068129 223.015199 
" style="fill:#ececec;opacity:0.5;stroke:#ececec;stroke-linejoin:miter;"/>
   </g>
  </g>
  <g id="axis3d_1">
   <g id="line2d_1">
    <path d="M 325.068129 223.015199 
L 157.362833 260.931196 
" style="fill:none;stroke:#000000;stroke-linecap:square;stroke-width:0.8;"/>
   </g>
   <g id="text_1">
    <!-- coins of 大熊 -->
    <defs>
     <path d="M 44.53125 19.53125 
Q 44.53125 11.328125 38.859375 6.25 
Q 33.203125 1.171875 24.609375 1.171875 
Q 16.015625 1.171875 9.765625 7.21875 
Q 3.515625 13.28125 3.515625 23.828125 
Q 3.515625 34.375 9.765625 40.421875 
Q 16.015625 46.484375 24.609375 46.484375 
Q 33.203125 46.484375 38.28125 41.984375 
Q 43.359375 37.5 43.359375 31.25 
L 34.765625 31.25 
Q 34.375 35.9375 31.4375 37.6875 
Q 28.515625 39.453125 24.609375 39.453125 
Q 19.921875 39.453125 16.015625 35.734375 
Q 12.109375 32.03125 12.109375 23.828125 
Q 12.109375 15.625 16.015625 11.90625 
Q 19.921875 8.203125 24.609375 8.203125 
Q 29.6875 8.203125 32.8125 10.9375 
Q 35.9375 13.671875 35.9375 19.53125 
z
" id="SimHei-63"/>
     <path d="M 45.703125 23.828125 
Q 45.703125 13.671875 39.453125 7.421875 
Q 33.203125 1.171875 24.609375 1.171875 
Q 16.015625 1.171875 9.765625 7.421875 
Q 3.515625 13.671875 3.515625 23.828125 
Q 3.515625 33.984375 9.765625 40.234375 
Q 16.015625 46.484375 24.609375 46.484375 
Q 33.203125 46.484375 39.453125 40.234375 
Q 45.703125 33.984375 45.703125 23.828125 
z
M 37.109375 23.828125 
Q 37.109375 31.640625 33.203125 35.546875 
Q 29.296875 39.453125 24.609375 39.453125 
Q 19.921875 39.453125 16.015625 35.546875 
Q 12.109375 31.640625 12.109375 23.828125 
Q 12.109375 16.015625 16.015625 12.109375 
Q 19.921875 8.203125 24.609375 8.203125 
Q 29.296875 8.203125 33.203125 12.109375 
Q 37.109375 16.015625 37.109375 23.828125 
z
" id="SimHei-6f"/>
     <path d="M 28.125 58.203125 
L 20.3125 58.203125 
L 20.3125 68.359375 
L 28.125 68.359375 
z
M 28.125 1.953125 
L 20.3125 1.953125 
L 20.3125 45.703125 
L 28.125 45.703125 
z
" id="SimHei-69"/>
     <path d="M 43.75 1.953125 
L 35.9375 1.953125 
L 35.9375 30.078125 
Q 35.9375 34.765625 33.59375 37.5 
Q 31.25 40.234375 27.34375 40.234375 
Q 22.265625 40.234375 17.765625 34.953125 
Q 13.28125 29.6875 13.28125 21.875 
L 13.28125 1.953125 
L 5.46875 1.953125 
L 5.46875 45.703125 
L 13.28125 45.703125 
L 13.28125 37.5 
Q 16.40625 41.796875 20.109375 44.140625 
Q 23.828125 46.484375 29.6875 46.484375 
Q 36.71875 46.484375 40.234375 42.578125 
Q 43.75 38.671875 43.75 32.8125 
z
" id="SimHei-6e"/>
     <path d="M 42.96875 14.0625 
Q 42.96875 7.8125 38.078125 4.484375 
Q 33.203125 1.171875 25.78125 1.171875 
Q 16.40625 1.171875 11.328125 4.875 
Q 6.25 8.59375 6.25 15.625 
L 14.0625 15.625 
Q 14.0625 10.9375 17.375 9.375 
Q 20.703125 7.8125 25.390625 7.8125 
Q 30.078125 7.8125 32.421875 9.5625 
Q 34.765625 11.328125 34.765625 14.0625 
Q 34.765625 16.015625 32.8125 17.96875 
Q 30.859375 19.921875 23.046875 21.09375 
Q 14.0625 22.265625 10.734375 25.578125 
Q 7.421875 28.90625 7.421875 34.375 
Q 7.421875 39.0625 11.90625 42.765625 
Q 16.40625 46.484375 25 46.484375 
Q 32.8125 46.484375 37.296875 42.96875 
Q 41.796875 39.453125 41.796875 33.59375 
L 33.984375 33.59375 
Q 33.984375 37.109375 31.4375 38.46875 
Q 28.90625 39.84375 25 39.84375 
Q 19.921875 39.84375 17.765625 38.078125 
Q 15.625 36.328125 15.625 33.984375 
Q 15.625 31.25 17.578125 29.6875 
Q 19.53125 28.125 25.78125 27.34375 
Q 35.9375 25.78125 39.453125 22.453125 
Q 42.96875 19.140625 42.96875 14.0625 
z
" id="SimHei-73"/>
     <path id="SimHei-20"/>
     <path d="M 44.53125 59.765625 
Q 42.578125 60.9375 39.84375 61.71875 
Q 37.109375 62.5 32.8125 62.5 
Q 28.515625 62.5 26.953125 60.34375 
Q 25.390625 58.203125 25.390625 55.078125 
L 25.390625 45.703125 
L 41.40625 45.703125 
L 41.40625 39.453125 
L 25.390625 39.453125 
L 25.390625 1.953125 
L 17.578125 1.953125 
L 17.578125 39.453125 
L 4.296875 39.453125 
L 4.296875 45.703125 
L 17.578125 45.703125 
L 17.578125 54.6875 
Q 17.578125 61.71875 21.875 65.625 
Q 26.171875 69.53125 33.203125 69.53125 
Q 37.5 69.53125 40.03125 68.9375 
Q 42.578125 68.359375 44.53125 67.578125 
z
" id="SimHei-66"/>
     <path d="M 45.3125 53.125 
Q 45.703125 66.796875 45.5 71.484375 
Q 45.3125 76.171875 44.921875 80.46875 
Q 49.609375 79.6875 55.46875 79.296875 
Q 54.296875 75.390625 53.703125 67.96875 
Q 53.125 60.546875 53.125 53.125 
L 73.046875 53.125 
Q 83.59375 53.125 92.578125 53.90625 
L 92.578125 45.3125 
Q 84.765625 45.703125 76.5625 45.703125 
L 53.515625 45.703125 
Q 55.078125 39.0625 58.984375 32.21875 
Q 62.890625 25.390625 66.984375 20.109375 
Q 71.09375 14.84375 78.3125 8.984375 
Q 85.546875 3.125 94.140625 -0.78125 
Q 91.015625 -3.125 87.890625 -8.59375 
Q 80.859375 -4.6875 74.015625 1.171875 
Q 67.1875 7.03125 60.34375 16.59375 
Q 53.515625 26.171875 50 34.375 
Q 46.875 25.78125 43.359375 20.109375 
Q 39.84375 14.453125 35.734375 9.765625 
Q 31.640625 5.078125 25.1875 0.390625 
Q 18.75 -4.296875 10.546875 -8.984375 
Q 7.421875 -4.296875 3.515625 -0.78125 
Q 11.71875 1.953125 19.71875 7.03125 
Q 27.734375 12.109375 32.8125 18.546875 
Q 37.890625 25 41.015625 32.03125 
Q 44.140625 39.0625 44.921875 45.703125 
L 23.4375 45.703125 
Q 14.0625 45.703125 8.59375 45.3125 
L 8.59375 53.90625 
Q 14.0625 53.515625 23.4375 53.125 
z
" id="SimHei-5927"/>
     <path d="M 49.609375 52.34375 
Q 49.21875 46.484375 49.21875 40.625 
L 49.21875 19.53125 
Q 49.21875 15.234375 46.484375 13.859375 
Q 43.75 12.5 34.765625 11.328125 
Q 33.59375 14.84375 31.640625 18.359375 
Q 38.671875 18.75 40.421875 18.9375 
Q 42.1875 19.140625 41.796875 23.4375 
L 18.359375 23.4375 
L 18.359375 12.5 
L 10.15625 12.5 
Q 10.546875 25 10.546875 33.59375 
Q 10.546875 42.1875 10.15625 52.34375 
L 49.609375 52.34375 
z
M 65.625 45.3125 
Q 65.234375 41.015625 65.234375 34.375 
Q 81.640625 38.671875 88.28125 43.359375 
Q 90.234375 39.453125 93.359375 36.71875 
Q 85.9375 34.765625 65.625 28.125 
L 65.625 23.046875 
Q 65.625 19.53125 70.703125 19.53125 
L 80.46875 19.53125 
Q 83.59375 19.53125 85.15625 20.890625 
Q 86.71875 22.265625 88.28125 28.125 
Q 92.1875 26.171875 96.875 25.390625 
Q 93.359375 17.1875 91.40625 15.234375 
Q 89.453125 13.28125 83.984375 13.28125 
L 65.234375 13.28125 
Q 57.03125 13.28125 57.03125 19.53125 
L 57.03125 37.5 
Q 57.03125 40.625 56.640625 45.3125 
L 65.625 45.3125 
z
M 92.578125 69.140625 
Q 78.515625 65.234375 64.84375 61.328125 
Q 64.84375 54.6875 68.359375 54.6875 
L 80.46875 54.6875 
Q 83.203125 54.6875 84.765625 56.4375 
Q 86.328125 58.203125 86.71875 62.5 
Q 90.234375 60.9375 94.921875 59.765625 
Q 92.96875 51.5625 90.421875 50.1875 
Q 87.890625 48.828125 82.8125 48.828125 
L 64.84375 48.828125 
Q 57.03125 48.828125 57.03125 54.296875 
L 57.03125 71.09375 
Q 57.03125 75.78125 56.640625 80.46875 
L 65.625 80.46875 
Q 65.234375 75.390625 65.234375 67.1875 
Q 78.515625 70.3125 86.328125 76.171875 
Q 88.671875 72.65625 92.578125 69.140625 
z
M 32.03125 78.125 
Q 24.609375 71.484375 16.40625 62.890625 
Q 22.65625 63.28125 40.625 65.234375 
Q 38.671875 67.578125 35.546875 70.703125 
Q 39.0625 72.265625 42.96875 74.21875 
Q 51.171875 63.28125 55.078125 58.59375 
Q 51.171875 57.03125 48.046875 54.6875 
L 44.53125 59.765625 
Q 42.578125 59.375 33.203125 58.59375 
Q 23.828125 57.8125 9.375 55.859375 
Q 7.421875 59.375 6.25 62.890625 
Q 10.15625 64.84375 14.640625 69.53125 
Q 19.140625 74.21875 23.4375 82.03125 
Q 27.734375 79.6875 32.03125 78.125 
z
M 41.796875 28.90625 
L 41.796875 35.546875 
L 18.359375 35.546875 
L 18.359375 28.90625 
z
M 20.3125 6.640625 
Q 17.1875 3.125 11.71875 -9.765625 
Q 6.640625 -7.8125 3.90625 -7.03125 
Q 6.640625 -1.5625 11.71875 8.984375 
Q 15.625 7.8125 20.3125 6.640625 
z
M 85.9375 10.15625 
Q 92.578125 -1.953125 94.140625 -5.46875 
Q 89.84375 -6.640625 86.328125 -8.59375 
Q 83.984375 -2.34375 78.515625 7.03125 
Q 81.25 8.203125 85.9375 10.15625 
z
M 41.796875 41.015625 
L 41.796875 46.875 
L 18.359375 46.875 
L 18.359375 41.015625 
z
M 62.890625 8.59375 
Q 65.625 -1.953125 66.40625 -5.859375 
L 58.59375 -7.421875 
Q 57.421875 -3.90625 55.46875 7.421875 
Q 58.59375 8.203125 62.890625 8.59375 
z
M 39.84375 7.421875 
Q 40.234375 3.90625 42.578125 -6.640625 
Q 38.671875 -6.640625 34.375 -7.8125 
Q 33.59375 -3.125 32.03125 6.640625 
Q 35.15625 7.421875 39.84375 7.421875 
z
" id="SimHei-718a"/>
    </defs>
    <g style="fill:#800080;" transform="translate(224.361813 284.870823)rotate(-12.739652)scale(0.12 -0.12)">
     <use xlink:href="#SimHei-63"/>
     <use x="50" xlink:href="#SimHei-6f"/>
     <use x="100" xlink:href="#SimHei-69"/>
     <use x="150" xlink:href="#SimHei-6e"/>
     <use x="200" xlink:href="#SimHei-73"/>
     <use x="250" xlink:href="#SimHei-20"/>
     <use x="300" xlink:href="#SimHei-6f"/>
     <use x="350" xlink:href="#SimHei-66"/>
     <use x="400" xlink:href="#SimHei-20"/>
     <use x="450" xlink:href="#SimHei-5927"/>
     <use x="550" xlink:href="#SimHei-718a"/>
    </g>
   </g>
   <g id="Line3DCollection_1">
    <path d="M 314.949087 225.302984 
L 199.176104 176.722284 
L 199.663217 32.386674 
" style="fill:none;stroke:#b0b0b0;stroke-width:0.8;"/>
    <path d="M 294.915951 229.832216 
L 179.90155 180.599522 
L 179.73149 35.437256 
" style="fill:none;stroke:#b0b0b0;stroke-width:0.8;"/>
    <path d="M 274.602458 234.424834 
L 160.377619 184.526923 
L 159.532989 38.528668 
" style="fill:none;stroke:#b0b0b0;stroke-width:0.8;"/>
    <path d="M 254.00268 239.082177 
L 140.599439 188.505469 
L 139.062321 41.661736 
" style="fill:none;stroke:#b0b0b0;stroke-width:0.8;"/>
    <path d="M 233.110523 243.805623 
L 120.562013 192.536164 
L 118.313948 44.837307 
" style="fill:none;stroke:#b0b0b0;stroke-width:0.8;"/>
    <path d="M 211.919718 248.59659 
L 100.260209 196.620041 
L 97.282181 48.056252 
" style="fill:none;stroke:#b0b0b0;stroke-width:0.8;"/>
    <path d="M 190.423814 253.456536 
L 79.68876 200.758159 
L 75.961174 51.319466 
" style="fill:none;stroke:#b0b0b0;stroke-width:0.8;"/>
    <path d="M 168.616176 258.386961 
L 58.842258 204.951607 
L 54.344918 54.627868 
" style="fill:none;stroke:#b0b0b0;stroke-width:0.8;"/>
   </g>
   <g id="xtick_1">
    <g id="line2d_2">
     <path d="M 313.948958 224.883309 
L 316.953217 226.143957 
" style="fill:none;stroke:#000000;stroke-linecap:square;stroke-width:0.8;"/>
    </g>
    <g id="text_2">
     <!-- 0 -->
     <defs>
      <path d="M 3.125 29.296875 
Q 3.90625 50 6.4375 56.046875 
Q 8.984375 62.109375 13.671875 66.015625 
Q 18.359375 69.921875 25.1875 69.921875 
Q 32.03125 69.921875 37.109375 64.25 
Q 42.1875 58.59375 43.75 50 
Q 45.3125 41.40625 44.71875 30.265625 
Q 44.140625 19.140625 40.8125 12.109375 
Q 37.5 5.078125 30.859375 2.34375 
Q 24.21875 -0.390625 17.578125 2.921875 
Q 10.9375 6.25 8.203125 11.71875 
Q 5.46875 17.1875 4.296875 23.234375 
Q 3.125 29.296875 3.90625 50 
z
M 12.890625 52.734375 
Q 10.546875 31.25 12.5 22.84375 
Q 14.453125 14.453125 18.9375 10.9375 
Q 23.4375 7.421875 28.125 9.5625 
Q 32.8125 11.71875 34.953125 18.15625 
Q 37.109375 24.609375 37.109375 32.21875 
Q 37.109375 39.84375 36.515625 46.09375 
Q 35.9375 52.34375 33 57.421875 
Q 30.078125 62.5 25.1875 62.6875 
Q 20.3125 62.890625 16.59375 57.8125 
Q 12.890625 52.734375 10.546875 31.25 
z
" id="SimHei-30"/>
     </defs>
     <g transform="translate(319.434125 249.395778)scale(0.15 -0.15)">
      <use xlink:href="#SimHei-30"/>
     </g>
    </g>
   </g>
   <g id="xtick_2">
    <g id="line2d_3">
     <path d="M 293.921865 229.406691 
L 296.907998 230.684926 
" style="fill:none;stroke:#000000;stroke-linecap:square;stroke-width:0.8;"/>
    </g>
    <g id="text_3">
     <!-- 2 -->
     <defs>
      <path d="M 4.6875 3.90625 
Q 5.078125 9.765625 10.15625 14.453125 
Q 15.234375 19.140625 23.046875 29.09375 
Q 30.859375 39.0625 33.203125 44.53125 
Q 35.546875 50 34.953125 53.90625 
Q 34.375 57.8125 31.25 60.34375 
Q 28.125 62.890625 24.015625 62.5 
Q 19.921875 62.109375 16.203125 59.375 
Q 12.5 56.640625 10.546875 51.171875 
L 3.125 52.34375 
Q 6.25 61.328125 11.125 65.421875 
Q 16.015625 69.53125 22.65625 69.921875 
Q 26.5625 70.3125 29.6875 69.71875 
Q 32.8125 69.140625 36.125 66.984375 
Q 39.453125 64.84375 41.59375 60.546875 
Q 43.75 56.25 43.15625 50.1875 
Q 42.578125 44.140625 37.109375 35.734375 
Q 31.640625 27.34375 16.015625 9.375 
L 44.140625 9.375 
L 44.140625 2.34375 
L 4.6875 2.34375 
z
" id="SimHei-32"/>
     </defs>
     <g transform="translate(299.396382 254.035082)scale(0.15 -0.15)">
      <use xlink:href="#SimHei-32"/>
     </g>
    </g>
   </g>
   <g id="xtick_3">
    <g id="line2d_4">
     <path d="M 273.614682 233.993335 
L 276.581886 235.289527 
" style="fill:none;stroke:#000000;stroke-linecap:square;stroke-width:0.8;"/>
    </g>
    <g id="text_4">
     <!-- 4 -->
     <defs>
      <path d="M 31.25 17.1875 
L 1.171875 17.1875 
L 1.171875 23.828125 
L 32.8125 69.53125 
L 38.671875 69.53125 
L 38.671875 23.828125 
L 48.046875 23.828125 
L 48.046875 17.1875 
L 38.671875 17.1875 
L 38.671875 2.34375 
L 31.25 2.34375 
z
M 31.25 23.828125 
L 31.25 54.6875 
L 9.375 23.828125 
z
" id="SimHei-34"/>
     </defs>
     <g transform="translate(279.077342 258.739513)scale(0.15 -0.15)">
      <use xlink:href="#SimHei-34"/>
     </g>
    </g>
   </g>
   <g id="xtick_4">
    <g id="line2d_5">
     <path d="M 253.021492 238.644577 
L 255.968935 239.959107 
" style="fill:none;stroke:#000000;stroke-linecap:square;stroke-width:0.8;"/>
    </g>
    <g id="text_5">
     <!-- 6 -->
     <defs>
      <path d="M 3.515625 19.53125 
Q 4.296875 30.859375 6.046875 34.765625 
Q 7.8125 38.671875 11.328125 44.53125 
L 27.34375 69.53125 
L 36.328125 69.53125 
L 19.921875 43.75 
Q 30.46875 46.484375 36.71875 42.96875 
Q 42.96875 39.453125 45.109375 34.953125 
Q 47.265625 30.46875 47.453125 25.1875 
Q 47.65625 19.921875 45.890625 14.84375 
Q 44.140625 9.765625 39.640625 5.65625 
Q 35.15625 1.5625 27.140625 1.171875 
Q 19.140625 0.78125 13.46875 4.09375 
Q 7.8125 7.421875 5.65625 13.46875 
Q 3.515625 19.53125 4.296875 30.859375 
z
M 12.5 16.015625 
Q 19.53125 8.59375 25.390625 8.203125 
Q 31.25 7.8125 35.15625 12.109375 
Q 39.0625 16.40625 39.0625 24.609375 
Q 39.0625 32.8125 34.171875 35.9375 
Q 29.296875 39.0625 23.234375 38.28125 
Q 17.1875 37.5 14.453125 32.421875 
Q 11.71875 27.34375 12.109375 21.671875 
Q 12.5 16.015625 19.53125 8.59375 
z
" id="SimHei-36"/>
     </defs>
     <g transform="translate(258.471041 263.510454)scale(0.15 -0.15)">
      <use xlink:href="#SimHei-36"/>
     </g>
    </g>
   </g>
   <g id="xtick_5">
    <g id="line2d_6">
     <path d="M 232.13621 243.361792 
L 235.063028 244.695052 
" style="fill:none;stroke:#000000;stroke-linecap:square;stroke-width:0.8;"/>
    </g>
    <g id="text_6">
     <!-- 8 -->
     <defs>
      <path d="M 2.734375 16.796875 
Q 2.734375 26.171875 5.078125 30.65625 
Q 7.421875 35.15625 12.890625 37.890625 
Q 8.203125 40.625 6.640625 43.9375 
Q 5.078125 47.265625 4.875 51.5625 
Q 4.6875 55.859375 6.046875 58.984375 
Q 7.421875 62.109375 10.15625 64.84375 
Q 12.890625 67.578125 16.203125 68.546875 
Q 19.53125 69.53125 23.4375 69.53125 
Q 27.34375 69.53125 30.46875 68.75 
Q 33.59375 67.96875 37.109375 65.421875 
Q 40.625 62.890625 42.1875 58.203125 
Q 43.75 53.515625 41.984375 47.265625 
Q 40.234375 41.015625 32.8125 37.5 
Q 39.453125 35.546875 42.1875 31.4375 
Q 44.921875 27.34375 44.921875 21.484375 
Q 44.921875 15.625 43.15625 12.109375 
Q 41.40625 8.59375 39.25 6.25 
Q 37.109375 3.90625 33.390625 2.53125 
Q 29.6875 1.171875 24.015625 1.171875 
Q 18.359375 1.171875 14.25 2.53125 
Q 10.15625 3.90625 7.421875 6.640625 
Q 4.6875 9.375 3.703125 13.078125 
Q 2.734375 16.796875 2.734375 26.171875 
z
M 10.9375 26.5625 
Q 10.546875 17.1875 12.296875 13.671875 
Q 14.0625 10.15625 18.75 9.171875 
Q 23.4375 8.203125 28.515625 9.375 
Q 33.59375 10.546875 35.546875 14.84375 
Q 37.5 19.140625 36.90625 23.4375 
Q 36.328125 27.734375 32.03125 30.65625 
Q 27.734375 33.59375 22.65625 33.203125 
Q 17.578125 32.8125 14.25 29.6875 
Q 10.9375 26.5625 10.546875 17.1875 
z
M 12.109375 56.25 
Q 12.109375 48.4375 14.84375 44.921875 
Q 17.578125 41.40625 23.4375 41.40625 
Q 29.296875 41.40625 32.21875 44.921875 
Q 35.15625 48.4375 34.953125 53.3125 
Q 34.765625 58.203125 31.4375 60.546875 
Q 28.125 62.890625 22.453125 62.5 
Q 16.796875 62.109375 14.453125 59.171875 
Q 12.109375 56.25 12.109375 48.4375 
z
" id="SimHei-38"/>
     </defs>
     <g transform="translate(237.571344 268.349324)scale(0.15 -0.15)">
      <use xlink:href="#SimHei-38"/>
     </g>
    </g>
   </g>
   <g id="xtick_6">
    <g id="line2d_7">
     <path d="M 210.952577 248.146394 
L 213.857878 249.498787 
" style="fill:none;stroke:#000000;stroke-linecap:square;stroke-width:0.8;"/>
    </g>
    <g id="text_7">
     <!-- 10 -->
     <defs>
      <path d="M 21.875 56.25 
Q 16.796875 51.171875 8.984375 46.484375 
L 8.984375 53.90625 
Q 18.75 60.546875 25 69.53125 
L 29.6875 69.53125 
L 29.6875 2.34375 
L 21.875 2.34375 
z
" id="SimHei-31"/>
     </defs>
     <g transform="translate(212.621939 273.257585)scale(0.15 -0.15)">
      <use xlink:href="#SimHei-31"/>
      <use x="50" xlink:href="#SimHei-30"/>
     </g>
    </g>
   </g>
   <g id="xtick_7">
    <g id="line2d_8">
     <path d="M 189.464153 252.999837 
L 192.347012 254.371778 
" style="fill:none;stroke:#000000;stroke-linecap:square;stroke-width:0.8;"/>
    </g>
    <g id="text_8">
     <!-- 12 -->
     <g transform="translate(191.116333 278.236741)scale(0.15 -0.15)">
      <use xlink:href="#SimHei-31"/>
      <use x="50" xlink:href="#SimHei-32"/>
     </g>
    </g>
   </g>
   <g id="xtick_8">
    <g id="line2d_9">
     <path d="M 167.664314 257.923617 
L 170.52377 259.315533 
" style="fill:none;stroke:#000000;stroke-linecap:square;stroke-width:0.8;"/>
    </g>
    <g id="text_9">
     <!-- 14 -->
     <g transform="translate(169.297844 283.288337)scale(0.15 -0.15)">
      <use xlink:href="#SimHei-31"/>
      <use x="50" xlink:href="#SimHei-34"/>
     </g>
    </g>
   </g>
  </g>
  <g id="axis3d_2">
   <g id="line2d_10">
    <path d="M 48.094045 207.1137 
L 157.362833 260.931196 
" style="fill:none;stroke:#000000;stroke-linecap:square;stroke-width:0.8;"/>
   </g>
   <g id="text_10">
    <!-- coins of 胖虎 -->
    <defs>
     <path d="M 21.484375 1.953125 
Q 25.78125 1.5625 28.515625 1.75 
Q 31.25 1.953125 31.640625 7.03125 
L 31.640625 26.171875 
L 18.359375 26.171875 
Q 16.796875 14.453125 14.453125 5.859375 
Q 12.109375 -2.734375 10.15625 -7.03125 
Q 6.640625 -3.90625 3.125 -2.734375 
Q 6.640625 2.734375 8.78125 10.34375 
Q 10.9375 17.96875 11.71875 30.859375 
L 11.71875 64.453125 
Q 11.71875 71.09375 11.328125 76.953125 
L 38.671875 76.953125 
Q 38.28125 69.140625 38.28125 61.328125 
L 38.28125 1.953125 
Q 38.28125 -6.25 23.4375 -7.03125 
Q 23.046875 -3.125 21.484375 1.953125 
z
M 64.453125 45.3125 
L 64.453125 69.140625 
Q 64.453125 73.828125 63.671875 79.296875 
L 72.265625 79.296875 
Q 71.875 74.21875 71.875 69.140625 
L 71.875 45.3125 
L 82.421875 45.3125 
Q 85.9375 45.3125 91.796875 45.703125 
L 91.796875 38.671875 
Q 88.28125 39.0625 82.421875 39.0625 
L 71.875 39.0625 
L 71.875 23.4375 
L 84.765625 23.4375 
Q 91.015625 23.4375 96.09375 23.828125 
L 96.09375 16.796875 
Q 90.234375 17.1875 84.765625 17.1875 
L 71.875 17.1875 
L 71.875 3.90625 
Q 71.875 -2.34375 72.265625 -8.984375 
L 64.0625 -8.984375 
Q 64.453125 -2.734375 64.453125 3.90625 
L 64.453125 17.1875 
L 53.90625 17.1875 
Q 48.4375 17.1875 42.578125 16.796875 
L 42.578125 23.828125 
Q 48.046875 23.4375 54.296875 23.4375 
L 64.453125 23.4375 
L 64.453125 39.0625 
L 53.90625 39.0625 
Q 48.4375 39.0625 43.359375 38.671875 
L 43.359375 45.703125 
Q 48.4375 45.3125 53.515625 45.3125 
z
M 31.640625 32.8125 
L 31.640625 48.828125 
L 18.75 48.828125 
L 18.75 32.8125 
z
M 31.640625 55.078125 
L 31.640625 70.703125 
L 18.75 70.703125 
L 18.75 55.078125 
z
M 51.5625 51.953125 
Q 50 58.984375 44.921875 71.09375 
L 51.171875 74.21875 
Q 55.859375 63.28125 58.59375 54.6875 
Q 54.296875 53.515625 51.5625 51.953125 
z
M 77.34375 53.90625 
Q 83.984375 67.96875 84.765625 73.4375 
Q 88.671875 71.875 92.578125 70.703125 
Q 90.625 67.96875 88.671875 62.890625 
Q 86.71875 57.8125 84.375 51.953125 
Q 80.859375 53.90625 77.34375 53.90625 
z
" id="SimHei-80d6"/>
     <path d="M 25.78125 45.703125 
Q 33.203125 46.09375 44.140625 46.875 
L 44.140625 56.640625 
L 20.703125 56.640625 
Q 20.703125 31.640625 20.109375 23.4375 
Q 19.53125 15.234375 17.578125 8 
Q 15.625 0.78125 10.9375 -7.8125 
Q 7.8125 -5.46875 3.125 -3.90625 
Q 7.03125 0.78125 9.171875 6.828125 
Q 11.328125 12.890625 12.109375 18.75 
Q 12.890625 24.609375 13.078125 30.265625 
Q 13.28125 35.9375 13.28125 42.96875 
Q 13.28125 50.390625 12.890625 62.5 
L 44.140625 62.5 
L 44.140625 74.609375 
Q 44.140625 77.34375 43.359375 82.421875 
L 51.953125 82.421875 
Q 51.5625 78.515625 51.5625 75.390625 
L 71.09375 75.390625 
Q 76.171875 75.390625 84.765625 76.171875 
L 84.765625 69.53125 
Q 76.171875 69.921875 70.703125 69.921875 
L 51.171875 69.921875 
L 51.171875 62.5 
L 93.75 62.5 
Q 92.1875 57.8125 89.84375 46.875 
Q 85.15625 48.046875 82.03125 48.4375 
Q 83.984375 52.734375 85.15625 56.640625 
L 51.171875 56.640625 
L 51.171875 47.65625 
Q 65.234375 49.21875 74.21875 50.78125 
L 75 44.140625 
Q 64.0625 42.96875 51.171875 41.40625 
L 51.171875 36.71875 
Q 51.171875 33.203125 57.421875 33.203125 
L 70.3125 33.203125 
Q 75 32.8125 76.359375 34.5625 
Q 77.734375 36.328125 78.515625 41.015625 
Q 81.640625 39.0625 86.71875 37.109375 
Q 84.765625 30.859375 82.03125 29.09375 
Q 79.296875 27.34375 73.828125 27.34375 
L 54.296875 27.34375 
Q 44.140625 27.34375 44.140625 33.59375 
L 44.140625 41.015625 
Q 36.328125 40.234375 27.34375 39.0625 
Q 26.5625 42.578125 25.78125 45.703125 
z
M 71.09375 22.265625 
Q 70.703125 16.796875 70.703125 10.9375 
L 70.703125 2.34375 
Q 70.703125 -1.953125 75 -1.953125 
L 81.25 -1.953125 
Q 85.9375 -1.953125 86.71875 0.78125 
Q 87.5 3.515625 87.5 7.421875 
Q 91.40625 5.078125 96.09375 4.296875 
Q 93.359375 -3.90625 91.59375 -5.859375 
Q 89.84375 -7.8125 85.15625 -7.8125 
L 72.65625 -7.8125 
Q 63.671875 -7.8125 63.671875 -1.171875 
L 63.671875 16.40625 
L 45.3125 16.40625 
Q 45.3125 4.6875 41.203125 -0.578125 
Q 37.109375 -5.859375 26.171875 -10.546875 
Q 25 -6.640625 21.484375 -3.515625 
Q 35.9375 0.78125 37.109375 7.421875 
Q 38.28125 14.0625 37.890625 22.265625 
L 71.09375 22.265625 
z
" id="SimHei-864e"/>
    </defs>
    <g style="fill:#800080;" transform="translate(38.392792 247.212399)rotate(-333.778649)scale(0.12 -0.12)">
     <use xlink:href="#SimHei-63"/>
     <use x="50" xlink:href="#SimHei-6f"/>
     <use x="100" xlink:href="#SimHei-69"/>
     <use x="150" xlink:href="#SimHei-6e"/>
     <use x="200" xlink:href="#SimHei-73"/>
     <use x="250" xlink:href="#SimHei-20"/>
     <use x="300" xlink:href="#SimHei-6f"/>
     <use x="350" xlink:href="#SimHei-66"/>
     <use x="400" xlink:href="#SimHei-20"/>
     <use x="450" xlink:href="#SimHei-80d6"/>
     <use x="550" xlink:href="#SimHei-864e"/>
    </g>
   </g>
   <g id="Line3DCollection_2">
    <path d="M 216.848604 33.091556 
L 215.794241 177.618329 
L 54.535235 210.28614 
" style="fill:none;stroke:#b0b0b0;stroke-width:0.8;"/>
    <path d="M 230.988876 37.557402 
L 229.454088 183.293191 
L 67.343534 216.594534 
" style="fill:none;stroke:#b0b0b0;stroke-width:0.8;"/>
    <path d="M 245.406644 42.110887 
L 243.372998 189.075679 
L 80.408144 223.029167 
" style="fill:none;stroke:#b0b0b0;stroke-width:0.8;"/>
    <path d="M 260.110156 46.754617 
L 257.55841 194.968883 
L 93.736836 229.593868 
" style="fill:none;stroke:#b0b0b0;stroke-width:0.8;"/>
    <path d="M 275.107992 51.491302 
L 272.018053 200.976014 
L 107.3377 236.292619 
" style="fill:none;stroke:#b0b0b0;stroke-width:0.8;"/>
    <path d="M 290.40908 56.323762 
L 286.759956 207.100407 
L 121.219157 243.129569 
" style="fill:none;stroke:#b0b0b0;stroke-width:0.8;"/>
    <path d="M 306.022709 61.25493 
L 301.792466 213.345531 
L 135.389982 250.10904 
" style="fill:none;stroke:#b0b0b0;stroke-width:0.8;"/>
    <path d="M 321.958556 66.287861 
L 317.124262 219.71499 
L 149.859317 257.235534 
" style="fill:none;stroke:#b0b0b0;stroke-width:0.8;"/>
   </g>
   <g id="xtick_9">
    <g id="line2d_11">
     <path d="M 55.894479 210.010784 
L 51.813215 210.837566 
" style="fill:none;stroke:#000000;stroke-linecap:square;stroke-width:0.8;"/>
    </g>
    <g id="text_11">
     <!-- 0 -->
     <g transform="translate(39.495232 232.923733)scale(0.15 -0.15)">
      <use xlink:href="#SimHei-30"/>
     </g>
    </g>
   </g>
   <g id="xtick_10">
    <g id="line2d_12">
     <path d="M 68.710645 216.313697 
L 64.605726 217.156945 
" style="fill:none;stroke:#000000;stroke-linecap:square;stroke-width:0.8;"/>
    </g>
    <g id="text_12">
     <!-- 2 -->
     <g transform="translate(52.208596 239.362791)scale(0.15 -0.15)">
      <use xlink:href="#SimHei-32"/>
     </g>
    </g>
   </g>
   <g id="xtick_11">
    <g id="line2d_13">
     <path d="M 81.783165 222.742684 
L 77.654458 223.602894 
" style="fill:none;stroke:#000000;stroke-linecap:square;stroke-width:0.8;"/>
    </g>
    <g id="text_13">
     <!-- 4 -->
     <g transform="translate(65.176714 245.930876)scale(0.15 -0.15)">
      <use xlink:href="#SimHei-34"/>
     </g>
    </g>
   </g>
   <g id="xtick_12">
    <g id="line2d_14">
     <path d="M 95.11981 229.301565 
L 90.967187 230.179255 
" style="fill:none;stroke:#000000;stroke-linecap:square;stroke-width:0.8;"/>
    </g>
    <g id="text_14">
     <!-- 6 -->
     <g transform="translate(78.40732 252.631906)scale(0.15 -0.15)">
      <use xlink:href="#SimHei-36"/>
     </g>
    </g>
   </g>
   <g id="xtick_13">
    <g id="line2d_15">
     <path d="M 108.728666 235.994319 
L 104.552006 236.890026 
" style="fill:none;stroke:#000000;stroke-linecap:square;stroke-width:0.8;"/>
    </g>
    <g id="text_15">
     <!-- 8 -->
     <g transform="translate(91.908465 259.469958)scale(0.15 -0.15)">
      <use xlink:href="#SimHei-38"/>
     </g>
    </g>
   </g>
   <g id="xtick_14">
    <g id="line2d_16">
     <path d="M 122.618153 242.825084 
L 118.417343 243.739371 
" style="fill:none;stroke:#000000;stroke-linecap:square;stroke-width:0.8;"/>
    </g>
    <g id="text_16">
     <!-- 10 -->
     <g transform="translate(101.938533 266.44928)scale(0.15 -0.15)">
      <use xlink:href="#SimHei-31"/>
      <use x="50" xlink:href="#SimHei-30"/>
     </g>
    </g>
   </g>
   <g id="xtick_15">
    <g id="line2d_17">
     <path d="M 136.797042 249.798176 
L 132.571977 250.731625 
" style="fill:none;stroke:#000000;stroke-linecap:square;stroke-width:0.8;"/>
    </g>
    <g id="text_17">
     <!-- 12 -->
     <g transform="translate(116.006257 273.574293)scale(0.15 -0.15)">
      <use xlink:href="#SimHei-31"/>
      <use x="50" xlink:href="#SimHei-32"/>
     </g>
    </g>
   </g>
   <g id="xtick_16">
    <g id="line2d_18">
     <path d="M 151.274472 256.918089 
L 147.025058 257.87131 
" style="fill:none;stroke:#000000;stroke-linecap:square;stroke-width:0.8;"/>
    </g>
    <g id="text_18">
     <!-- 14 -->
     <g transform="translate(130.37074 280.849608)scale(0.15 -0.15)">
      <use xlink:href="#SimHei-31"/>
      <use x="50" xlink:href="#SimHei-34"/>
     </g>
    </g>
   </g>
  </g>
  <g id="axis3d_3">
   <g id="line2d_19">
    <path d="M 48.094045 207.1137 
L 43.195826 56.334254 
" style="fill:none;stroke:#000000;stroke-linecap:square;stroke-width:0.8;"/>
   </g>
   <g id="text_19">
    <!-- coins of 静香 -->
    <defs>
     <path d="M 67.578125 78.90625 
Q 65.625 76.5625 64.640625 74.40625 
Q 63.671875 72.265625 62.890625 70.3125 
L 84.375 70.3125 
Q 82.03125 66.796875 80.078125 62.296875 
Q 78.125 57.8125 75.78125 52.734375 
L 90.234375 52.734375 
Q 89.84375 47.265625 89.84375 41.015625 
L 89.84375 36.71875 
Q 93.359375 36.71875 96.875 37.109375 
L 96.875 30.46875 
Q 94.140625 30.859375 89.84375 30.859375 
L 89.84375 25.390625 
Q 89.84375 17.578125 90.234375 10.546875 
L 83.203125 10.546875 
L 83.203125 14.84375 
L 72.265625 14.84375 
L 72.265625 0.390625 
Q 71.875 -4.6875 68.9375 -6.640625 
Q 66.015625 -8.59375 56.25 -9.375 
Q 56.25 -5.46875 53.90625 -1.171875 
Q 58.984375 -1.5625 62.296875 -1.171875 
Q 65.625 -0.78125 65.625 2.734375 
L 65.625 14.84375 
L 60.15625 14.84375 
Q 55.46875 14.84375 50.390625 14.453125 
L 50.390625 20.703125 
Q 55.078125 20.3125 60.15625 20.3125 
L 65.625 20.3125 
L 65.625 30.859375 
L 59.765625 30.859375 
Q 54.6875 30.859375 48.046875 30.46875 
L 48.046875 36.71875 
Q 53.515625 36.328125 60.15625 36.328125 
L 65.625 36.328125 
L 65.625 47.265625 
L 60.15625 47.265625 
Q 57.8125 47.265625 51.953125 46.875 
L 51.953125 51.953125 
Q 50.78125 50.78125 48.828125 48.4375 
Q 46.875 51.5625 44.140625 53.90625 
Q 50.390625 60.15625 53.703125 68.15625 
Q 57.03125 76.171875 58.984375 82.03125 
Q 62.890625 80.078125 67.578125 78.90625 
z
M 42.96875 36.328125 
Q 42.578125 30.859375 42.578125 25 
L 42.578125 1.171875 
Q 42.578125 -4.6875 39.453125 -6.25 
Q 36.328125 -7.8125 30.078125 -8.984375 
Q 29.6875 -5.46875 27.34375 -1.5625 
Q 36.328125 -1.5625 35.546875 1.953125 
L 35.546875 6.640625 
L 15.234375 6.640625 
L 15.234375 -8.203125 
L 8.203125 -8.203125 
Q 8.59375 -3.90625 8.59375 1.953125 
L 8.59375 25 
Q 8.59375 30.859375 8.203125 36.328125 
L 42.96875 36.328125 
z
M 21.875 71.09375 
Q 21.875 74.609375 21.484375 80.46875 
L 29.296875 80.46875 
Q 28.90625 74.609375 28.90625 71.09375 
L 33.984375 71.09375 
Q 39.453125 71.09375 46.875 71.484375 
L 46.875 65.234375 
Q 39.453125 65.625 33.984375 65.625 
L 28.90625 65.625 
L 28.90625 59.375 
L 33.984375 59.375 
Q 36.328125 59.375 42.578125 59.765625 
L 42.578125 53.515625 
Q 35.9375 53.90625 33.59375 53.90625 
L 28.90625 53.90625 
L 28.90625 47.65625 
L 35.15625 47.65625 
Q 40.625 47.65625 46.484375 48.046875 
L 46.484375 41.796875 
Q 40.234375 42.1875 35.15625 42.1875 
L 15.625 42.1875 
Q 9.375 42.1875 3.90625 41.796875 
L 3.90625 48.046875 
Q 9.375 47.65625 15.625 47.65625 
L 21.875 47.65625 
L 21.875 53.90625 
L 15.234375 53.90625 
Q 12.890625 53.90625 8.59375 53.515625 
L 8.59375 59.765625 
Q 12.890625 59.375 15.234375 59.375 
L 21.875 59.375 
L 21.875 65.625 
L 15.234375 65.625 
Q 10.15625 65.625 4.6875 65.234375 
L 4.6875 71.484375 
Q 10.15625 71.09375 15.234375 71.09375 
z
M 52.734375 53.515625 
Q 57.421875 53.125 64.453125 53.125 
L 68.359375 53.125 
Q 72.265625 61.328125 73.4375 64.84375 
L 60.15625 64.84375 
Q 55.078125 56.640625 52.734375 53.515625 
z
M 35.546875 12.109375 
L 35.546875 19.140625 
L 15.234375 19.140625 
L 15.234375 12.109375 
z
M 35.546875 24.609375 
L 35.546875 30.859375 
L 15.234375 30.859375 
L 15.234375 24.609375 
z
M 83.203125 36.328125 
L 83.203125 47.265625 
L 72.265625 47.265625 
L 72.265625 36.328125 
z
M 83.203125 20.3125 
L 83.203125 30.859375 
L 72.265625 30.859375 
L 72.265625 20.3125 
z
" id="SimHei-9759"/>
     <path d="M 45.703125 33.59375 
L 45.703125 53.90625 
Q 36.71875 44.140625 26.359375 38.28125 
Q 16.015625 32.421875 10.546875 30.078125 
Q 10.546875 33.203125 5.46875 36.71875 
Q 16.015625 39.453125 24.21875 44.53125 
Q 32.421875 49.609375 37.109375 54.296875 
L 21.484375 54.296875 
Q 14.84375 54.296875 7.8125 53.90625 
L 7.8125 60.15625 
Q 14.84375 59.765625 21.484375 59.765625 
L 45.703125 59.765625 
L 45.703125 69.921875 
Q 38.28125 69.140625 17.96875 67.578125 
Q 16.796875 71.09375 14.453125 74.609375 
Q 32.8125 74.609375 50.390625 76.953125 
Q 67.96875 79.296875 74.609375 82.03125 
Q 76.953125 78.125 81.25 73.828125 
Q 74.609375 73.4375 67.96875 72.65625 
Q 61.328125 71.875 52.34375 70.703125 
L 52.34375 59.765625 
L 78.125 59.765625 
Q 83.984375 59.765625 91.40625 60.15625 
L 91.40625 53.90625 
Q 84.375 54.296875 78.125 54.296875 
L 61.71875 54.296875 
Q 66.40625 48.4375 74.21875 43.15625 
Q 82.03125 37.890625 94.140625 34.765625 
Q 89.84375 31.640625 88.28125 26.953125 
Q 82.421875 29.296875 77.34375 32.03125 
Q 76.5625 25 76.5625 12.5 
Q 76.5625 -0.78125 76.953125 -8.984375 
L 69.53125 -8.984375 
L 69.53125 -3.125 
L 28.515625 -3.125 
L 28.515625 -9.375 
L 21.875 -9.375 
L 21.875 11.71875 
Q 21.875 25 21.484375 33.59375 
z
M 69.53125 17.96875 
L 69.53125 27.734375 
L 28.515625 27.734375 
L 28.515625 17.96875 
z
M 69.53125 2.734375 
L 69.53125 12.5 
L 28.515625 12.5 
L 28.515625 2.734375 
z
M 71.484375 35.9375 
Q 62.109375 42.578125 52.734375 54.296875 
L 52.34375 54.296875 
L 52.34375 33.59375 
L 75 33.59375 
z
" id="SimHei-9999"/>
    </defs>
    <g style="fill:#800080;" transform="translate(-0.134707 92.142551)rotate(-271.860655)scale(0.12 -0.12)">
     <use xlink:href="#SimHei-63"/>
     <use x="50" xlink:href="#SimHei-6f"/>
     <use x="100" xlink:href="#SimHei-69"/>
     <use x="150" xlink:href="#SimHei-6e"/>
     <use x="200" xlink:href="#SimHei-73"/>
     <use x="250" xlink:href="#SimHei-20"/>
     <use x="300" xlink:href="#SimHei-6f"/>
     <use x="350" xlink:href="#SimHei-66"/>
     <use x="400" xlink:href="#SimHei-20"/>
     <use x="450" xlink:href="#SimHei-9759"/>
     <use x="550" xlink:href="#SimHei-9999"/>
    </g>
   </g>
   <g id="Line3DCollection_3">
    <path d="M 47.792454 197.829967 
L 208.969895 165.885888 
L 325.385066 213.533899 
" style="fill:none;stroke:#b0b0b0;stroke-width:0.8;"/>
    <path d="M 47.197709 179.522231 
L 209.069111 148.38724 
L 326.010174 194.833478 
" style="fill:none;stroke:#b0b0b0;stroke-width:0.8;"/>
    <path d="M 46.597781 161.054931 
L 209.169148 130.743949 
L 326.640869 175.965935 
" style="fill:none;stroke:#b0b0b0;stroke-width:0.8;"/>
    <path d="M 45.992601 142.425973 
L 209.270014 112.954212 
L 327.277226 156.929019 
" style="fill:none;stroke:#b0b0b0;stroke-width:0.8;"/>
    <path d="M 45.3821 123.633224 
L 209.371722 95.016199 
L 327.919321 137.72044 
" style="fill:none;stroke:#b0b0b0;stroke-width:0.8;"/>
    <path d="M 44.766207 104.674514 
L 209.47428 76.928049 
L 328.567233 118.337865 
" style="fill:none;stroke:#b0b0b0;stroke-width:0.8;"/>
    <path d="M 44.144852 85.547636 
L 209.577701 58.687869 
L 329.22104 98.778918 
" style="fill:none;stroke:#b0b0b0;stroke-width:0.8;"/>
    <path d="M 43.51796 66.250341 
L 209.681995 40.293734 
L 329.880823 79.041182 
" style="fill:none;stroke:#b0b0b0;stroke-width:0.8;"/>
   </g>
   <g id="xtick_17">
    <g id="line2d_20">
     <path d="M 49.150818 197.56075 
L 45.072207 198.369099 
" style="fill:none;stroke:#000000;stroke-linecap:square;stroke-width:0.8;"/>
    </g>
    <g id="text_20">
     <!-- 0 -->
     <g transform="translate(25.619991 207.100274)scale(0.15 -0.15)">
      <use xlink:href="#SimHei-30"/>
     </g>
    </g>
   </g>
   <g id="xtick_18">
    <g id="line2d_21">
     <path d="M 48.562222 179.259775 
L 44.465133 180.047826 
" style="fill:none;stroke:#000000;stroke-linecap:square;stroke-width:0.8;"/>
    </g>
    <g id="text_21">
     <!-- 2 -->
     <g transform="translate(24.946444 188.818717)scale(0.15 -0.15)">
      <use xlink:href="#SimHei-32"/>
     </g>
    </g>
   </g>
   <g id="xtick_19">
    <g id="line2d_22">
     <path d="M 47.968498 160.799365 
L 43.852763 161.566732 
" style="fill:none;stroke:#000000;stroke-linecap:square;stroke-width:0.8;"/>
    </g>
    <g id="text_22">
     <!-- 4 -->
     <g transform="translate(24.267036 170.378092)scale(0.15 -0.15)">
      <use xlink:href="#SimHei-34"/>
     </g>
    </g>
   </g>
   <g id="xtick_20">
    <g id="line2d_23">
     <path d="M 47.369579 142.177427 
L 43.235029 142.923718 
" style="fill:none;stroke:#000000;stroke-linecap:square;stroke-width:0.8;"/>
    </g>
    <g id="text_23">
     <!-- 6 -->
     <g transform="translate(23.581691 151.776316)scale(0.15 -0.15)">
      <use xlink:href="#SimHei-36"/>
     </g>
    </g>
   </g>
   <g id="xtick_21">
    <g id="line2d_24">
     <path d="M 46.765397 123.391831 
L 42.611858 124.116645 
" style="fill:none;stroke:#000000;stroke-linecap:square;stroke-width:0.8;"/>
    </g>
    <g id="text_24">
     <!-- 8 -->
     <g transform="translate(22.890331 133.011265)scale(0.15 -0.15)">
      <use xlink:href="#SimHei-38"/>
     </g>
    </g>
   </g>
   <g id="xtick_22">
    <g id="line2d_25">
     <path d="M 46.155881 104.440412 
L 41.983179 105.143338 
" style="fill:none;stroke:#000000;stroke-linecap:square;stroke-width:0.8;"/>
    </g>
    <g id="text_25">
     <!-- 10 -->
     <g transform="translate(18.442875 114.080781)scale(0.15 -0.15)">
      <use xlink:href="#SimHei-31"/>
      <use x="50" xlink:href="#SimHei-30"/>
     </g>
    </g>
   </g>
   <g id="xtick_23">
    <g id="line2d_26">
     <path d="M 45.540962 85.320962 
L 41.348919 86.001585 
" style="fill:none;stroke:#000000;stroke-linecap:square;stroke-width:0.8;"/>
    </g>
    <g id="text_26">
     <!-- 12 -->
     <g transform="translate(17.739244 94.982667)scale(0.15 -0.15)">
      <use xlink:href="#SimHei-31"/>
      <use x="50" xlink:href="#SimHei-32"/>
     </g>
    </g>
   </g>
   <g id="xtick_24">
    <g id="line2d_27">
     <path d="M 44.920566 66.031239 
L 40.709002 66.689131 
" style="fill:none;stroke:#000000;stroke-linecap:square;stroke-width:0.8;"/>
    </g>
    <g id="text_27">
     <!-- 14 -->
     <g transform="translate(17.029354 75.714686)scale(0.15 -0.15)">
      <use xlink:href="#SimHei-31"/>
      <use x="50" xlink:href="#SimHei-34"/>
     </g>
    </g>
   </g>
  </g>
  <g id="axes_1">
   <g id="Path3DCollection_1">
    <defs>
     <path d="M 0 5 
C 1.326016 5 2.597899 4.473168 3.535534 3.535534 
C 4.473168 2.597899 5 1.326016 5 0 
C 5 -1.326016 4.473168 -2.597899 3.535534 -3.535534 
C 2.597899 -4.473168 1.326016 -5 0 -5 
C -1.326016 -5 -2.597899 -4.473168 -3.535534 -3.535534 
C -4.473168 -2.597899 -5 -1.326016 -5 0 
C -5 1.326016 -4.473168 2.597899 -3.535534 3.535534 
C -2.597899 4.473168 -1.326016 5 0 5 
z
" id="m79216ddd46" style="stroke:#008000;"/>
    </defs>
    <g clip-path="url(#p3173e0d41b)">
     <use style="fill:#008000;stroke:#008000;" x="191.241437" xlink:href="#m79216ddd46" y="149.294462"/>
    </g>
   </g>
   <g id="Path3DCollection_2">
    <path clip-path="url(#p3173e0d41b)" d="M 213.698551 47.917543 
C 214.088919 47.917543 214.463352 47.762448 214.739384 47.486416 
C 215.015416 47.210384 215.170511 46.835951 215.170511 46.445583 
C 215.170511 46.055215 215.015416 45.680782 214.739384 45.40475 
C 214.463352 45.128718 214.088919 44.973623 213.698551 44.973623 
C 213.308182 44.973623 212.93375 45.128718 212.657718 45.40475 
C 212.381686 45.680782 212.226591 46.055215 212.226591 46.445583 
C 212.226591 46.835951 212.381686 47.210384 212.657718 47.486416 
C 212.93375 47.762448 213.308182 47.917543 213.698551 47.917543 
z
" style="fill:#ff0000;stroke:#ff0000;"/>
    <path clip-path="url(#p3173e0d41b)" d="M 220.685035 60.594306 
C 221.343608 60.594306 221.975296 60.332653 222.440977 59.866971 
C 222.906658 59.40129 223.168312 58.769602 223.168312 58.111029 
C 223.168312 57.452456 222.906658 56.820768 222.440977 56.355087 
C 221.975296 55.889405 221.343608 55.627752 220.685035 55.627752 
C 220.026462 55.627752 219.394774 55.889405 218.929092 56.355087 
C 218.463411 56.820768 218.201757 57.452456 218.201757 58.111029 
C 218.201757 58.769602 218.463411 59.40129 218.929092 59.866971 
C 219.394774 60.332653 220.026462 60.594306 220.685035 60.594306 
z
" style="fill:#ff0000;stroke:#ff0000;"/>
    <path clip-path="url(#p3173e0d41b)" d="M 227.709492 72.697617 
C 228.467373 72.697617 229.194315 72.396508 229.730217 71.860605 
C 230.26612 71.324702 230.56723 70.59776 230.56723 69.839879 
C 230.56723 69.081998 230.26612 68.355056 229.730217 67.819153 
C 229.194315 67.28325 228.467373 66.982141 227.709492 66.982141 
C 226.951611 66.982141 226.224668 67.28325 225.688766 67.819153 
C 225.152863 68.355056 224.851754 69.081998 224.851754 69.839879 
C 224.851754 70.59776 225.152863 71.324702 225.688766 71.860605 
C 226.224668 72.396508 226.951611 72.697617 227.709492 72.697617 
z
" style="fill:#ff0000;stroke:#ff0000;"/>
    <path clip-path="url(#p3173e0d41b)" d="M 234.772232 85.120726 
C 235.69728 85.120726 236.584565 84.7532 237.238673 84.099092 
C 237.892781 83.444984 238.260307 82.557699 238.260307 81.632651 
C 238.260307 80.707603 237.892781 79.820317 237.238673 79.166209 
C 236.584565 78.512102 235.69728 78.144576 234.772232 78.144576 
C 233.847183 78.144576 232.959898 78.512102 232.30579 79.166209 
C 231.651682 79.820317 231.284157 80.707603 231.284157 81.632651 
C 231.284157 82.557699 231.651682 83.444984 232.30579 84.099092 
C 232.959898 84.7532 233.847183 85.120726 234.772232 85.120726 
z
" style="fill:#ff0000;stroke:#ff0000;"/>
    <path clip-path="url(#p3173e0d41b)" d="M 241.873569 97.341276 
C 242.894974 97.341276 243.874682 96.935467 244.596924 96.213225 
C 245.319167 95.490982 245.724975 94.511274 245.724975 93.489869 
C 245.724975 92.468464 245.319167 91.488756 244.596924 90.766513 
C 243.874682 90.044271 242.894974 89.638462 241.873569 89.638462 
C 240.852164 89.638462 239.872455 90.044271 239.150213 90.766513 
C 238.427971 91.488756 238.022162 92.468464 238.022162 93.489869 
C 238.022162 94.511274 238.427971 95.490982 239.150213 96.213225 
C 239.872455 96.935467 240.852164 97.341276 241.873569 97.341276 
z
" style="fill:#ff0000;stroke:#ff0000;"/>
    <path clip-path="url(#p3173e0d41b)" d="M 249.01382 109.615237 
C 250.128515 109.615237 251.197704 109.172364 251.985913 108.384156 
C 252.774121 107.595947 253.216994 106.526758 253.216994 105.412063 
C 253.216994 104.297369 252.774121 103.228179 251.985913 102.439971 
C 251.197704 101.651763 250.128515 101.20889 249.01382 101.20889 
C 247.899126 101.20889 246.829936 101.651763 246.041728 102.439971 
C 245.25352 103.228179 244.810647 104.297369 244.810647 105.412063 
C 244.810647 106.526758 245.25352 107.595947 246.041728 108.384156 
C 246.829936 109.172364 247.899126 109.615237 249.01382 109.615237 
z
" style="fill:#ff0000;stroke:#ff0000;"/>
    <path clip-path="url(#p3173e0d41b)" d="M 256.193307 122.178192 
C 257.46056 122.178192 258.67608 121.674708 259.572163 120.778625 
C 260.468246 119.882542 260.97173 118.667022 260.97173 117.399769 
C 260.97173 116.132516 260.468246 114.916996 259.572163 114.020913 
C 258.67608 113.12483 257.46056 112.621345 256.193307 112.621345 
C 254.926054 112.621345 253.710534 113.12483 252.814451 114.020913 
C 251.918368 114.916996 251.414883 116.132516 251.414883 117.399769 
C 251.414883 118.667022 251.918368 119.882542 252.814451 120.778625 
C 253.710534 121.674708 254.926054 122.178192 256.193307 122.178192 
z
" style="fill:#ff0000;stroke:#ff0000;"/>
    <path clip-path="url(#p3173e0d41b)" d="M 263.412353 134.090336 
C 264.642049 134.090336 265.821545 133.601773 266.691072 132.732246 
C 267.560598 131.86272 268.049162 130.683223 268.049162 129.453527 
C 268.049162 128.223831 267.560598 127.044334 266.691072 126.174808 
C 265.821545 125.305281 264.642049 124.816718 263.412353 124.816718 
C 262.182656 124.816718 261.00316 125.305281 260.133633 126.174808 
C 259.264107 127.044334 258.775543 128.223831 258.775543 129.453527 
C 258.775543 130.683223 259.264107 131.86272 260.133633 132.732246 
C 261.00316 133.601773 262.182656 134.090336 263.412353 134.090336 
z
" style="fill:#ff0000;stroke:#ff0000;"/>
    <path clip-path="url(#p3173e0d41b)" d="M 270.671286 146.119947 
C 271.876915 146.119947 273.033327 145.640945 273.885836 144.788436 
C 274.738345 143.935928 275.217346 142.779515 275.217346 141.573886 
C 275.217346 140.368257 274.738345 139.211844 273.885836 138.359336 
C 273.033327 137.506827 271.876915 137.027825 270.671286 137.027825 
C 269.465656 137.027825 268.309244 137.506827 267.456736 138.359336 
C 266.604227 139.211844 266.125225 140.368257 266.125225 141.573886 
C 266.125225 142.779515 266.604227 143.935928 267.456736 144.788436 
C 268.309244 145.640945 269.465656 146.119947 270.671286 146.119947 
z
" style="fill:#ff0000;stroke:#ff0000;"/>
    <path clip-path="url(#p3173e0d41b)" d="M 277.970438 157.761399 
C 279.03125 157.761399 280.048757 157.339933 280.798865 156.589826 
C 281.548972 155.839718 281.970438 154.822211 281.970438 153.761399 
C 281.970438 152.700586 281.548972 151.683079 280.798865 150.932972 
C 280.048757 150.182864 279.03125 149.761399 277.970438 149.761399 
C 276.909625 149.761399 275.892118 150.182864 275.142011 150.932972 
C 274.391903 151.683079 273.970438 152.700586 273.970438 153.761399 
C 273.970438 154.822211 274.391903 155.839718 275.142011 156.589826 
C 275.892118 157.339933 276.909625 157.761399 277.970438 157.761399 
z
" style="fill:#ff0000;stroke:#ff0000;"/>
    <path clip-path="url(#p3173e0d41b)" d="M 285.310143 169.846333 
C 286.325794 169.846333 287.299983 169.442811 288.018156 168.724638 
C 288.73633 168.006464 289.139852 167.032275 289.139852 166.016625 
C 289.139852 165.000974 288.73633 164.026785 288.018156 163.308612 
C 287.299983 162.590439 286.325794 162.186916 285.310143 162.186916 
C 284.294493 162.186916 283.320304 162.590439 282.602131 163.308612 
C 281.883957 164.026785 281.480435 165.000974 281.480435 166.016625 
C 281.480435 167.032275 281.883957 168.006464 282.602131 168.724638 
C 283.320304 169.442811 284.294493 169.846333 285.310143 169.846333 
z
" style="fill:#ff0000;stroke:#ff0000;"/>
    <path clip-path="url(#p3173e0d41b)" d="M 292.690742 181.367781 
C 293.493684 181.367781 294.263848 181.048769 294.831614 180.481003 
C 295.39938 179.913237 295.718392 179.143073 295.718392 178.34013 
C 295.718392 177.537188 295.39938 176.767024 294.831614 176.199258 
C 294.263848 175.631492 293.493684 175.31248 292.690742 175.31248 
C 291.8878 175.31248 291.117636 175.631492 290.54987 176.199258 
C 289.982104 176.767024 289.663092 177.537188 289.663092 178.34013 
C 289.663092 179.143073 289.982104 179.913237 290.54987 180.481003 
C 291.117636 181.048769 291.8878 181.367781 292.690742 181.367781 
z
" style="fill:#ff0000;stroke:#ff0000;"/>
    <path clip-path="url(#p3173e0d41b)" d="M 300.112576 193.281997 
C 300.788714 193.281997 301.43725 193.013365 301.915352 192.535263 
C 302.393454 192.057162 302.662086 191.408626 302.662086 190.732488 
C 302.662086 190.05635 302.393454 189.407814 301.915352 188.929712 
C 301.43725 188.45161 300.788714 188.182978 300.112576 188.182978 
C 299.436438 188.182978 298.787902 188.45161 298.309801 188.929712 
C 297.831699 189.407814 297.563066 190.05635 297.563066 190.732488 
C 297.563066 191.408626 297.831699 192.057162 298.309801 192.535263 
C 298.787902 193.013365 299.436438 193.281997 300.112576 193.281997 
z
" style="fill:#ff0000;stroke:#ff0000;"/>
    <path clip-path="url(#p3173e0d41b)" d="M 307.575992 204.877526 
C 308.022396 204.877526 308.450576 204.700168 308.76623 204.384513 
C 309.081885 204.068858 309.259243 203.640679 309.259243 203.194275 
C 309.259243 202.747872 309.081885 202.319692 308.76623 202.004037 
C 308.450576 201.688382 308.022396 201.511024 307.575992 201.511024 
C 307.129589 201.511024 306.701409 201.688382 306.385754 202.004037 
C 306.070099 202.319692 305.892742 202.747872 305.892742 203.194275 
C 305.892742 203.640679 306.070099 204.068858 306.385754 204.384513 
C 306.701409 204.700168 307.129589 204.877526 307.575992 204.877526 
z
" style="fill:#ff0000;stroke:#ff0000;"/>
    <path clip-path="url(#p3173e0d41b)" d="M 196.766343 47.202665 
C 197.156711 47.202665 197.531144 47.04757 197.807176 46.771538 
C 198.083208 46.495506 198.238303 46.121073 198.238303 45.730705 
C 198.238303 45.340336 198.083208 44.965904 197.807176 44.689872 
C 197.531144 44.41384 197.156711 44.258745 196.766343 44.258745 
C 196.375975 44.258745 196.001542 44.41384 195.72551 44.689872 
C 195.449478 44.965904 195.294383 45.340336 195.294383 45.730705 
C 195.294383 46.121073 195.449478 46.495506 195.72551 46.771538 
C 196.001542 47.04757 196.375975 47.202665 196.766343 47.202665 
z
" style="fill:#ff0000;stroke:#ff0000;"/>
    <path clip-path="url(#p3173e0d41b)" d="M 186.759219 59.024742 
C 187.390528 59.024742 187.996066 58.77392 188.44247 58.327517 
C 188.888873 57.881113 189.139695 57.275576 189.139695 56.644266 
C 189.139695 56.012956 188.888873 55.407418 188.44247 54.961015 
C 187.996066 54.514612 187.390528 54.26379 186.759219 54.26379 
C 186.127909 54.26379 185.522371 54.514612 185.075968 54.961015 
C 184.629565 55.407418 184.378743 56.012956 184.378743 56.644266 
C 184.378743 57.275576 184.629565 57.881113 185.075968 58.327517 
C 185.522371 58.77392 186.127909 59.024742 186.759219 59.024742 
z
" style="fill:#ff0000;stroke:#ff0000;"/>
    <path clip-path="url(#p3173e0d41b)" d="M 176.728275 70.611454 
C 177.531218 70.611454 178.301382 70.292442 178.869147 69.724676 
C 179.436913 69.15691 179.755926 68.386746 179.755926 67.583804 
C 179.755926 66.780861 179.436913 66.010698 178.869147 65.442932 
C 178.301382 64.875166 177.531218 64.556153 176.728275 64.556153 
C 175.925333 64.556153 175.155169 64.875166 174.587403 65.442932 
C 174.019637 66.010698 173.700625 66.780861 173.700625 67.583804 
C 173.700625 68.386746 174.019637 69.15691 174.587403 69.724676 
C 175.155169 70.292442 175.925333 70.611454 176.728275 70.611454 
z
" style="fill:#ff0000;stroke:#ff0000;"/>
    <path clip-path="url(#p3173e0d41b)" d="M 166.673428 81.891067 
C 167.559645 81.891067 168.409685 81.538969 169.036335 80.912319 
C 169.662986 80.285669 170.015084 79.435629 170.015084 78.549411 
C 170.015084 77.663194 169.662986 76.813154 169.036335 76.186503 
C 168.409685 75.559853 167.559645 75.207755 166.673428 75.207755 
C 165.78721 75.207755 164.93717 75.559853 164.31052 76.186503 
C 163.683869 76.813154 163.331771 77.663194 163.331771 78.549411 
C 163.331771 79.435629 163.683869 80.285669 164.31052 80.912319 
C 164.93717 81.538969 165.78721 81.891067 166.673428 81.891067 
z
" style="fill:#ff0000;stroke:#ff0000;"/>
    <path clip-path="url(#p3173e0d41b)" d="M 156.59459 93.520294 
C 157.649863 93.520294 158.662057 93.101029 159.408247 92.354839 
C 160.154438 91.608648 160.573702 90.596454 160.573702 89.541182 
C 160.573702 88.485909 160.154438 87.473715 159.408247 86.727524 
C 158.662057 85.981334 157.649863 85.562069 156.59459 85.562069 
C 155.539317 85.562069 154.527123 85.981334 153.780933 86.727524 
C 153.034742 87.473715 152.615478 88.485909 152.615478 89.541182 
C 152.615478 90.596454 153.034742 91.608648 153.780933 92.354839 
C 154.527123 93.101029 155.539317 93.520294 156.59459 93.520294 
z
" style="fill:#ff0000;stroke:#ff0000;"/>
    <path clip-path="url(#p3173e0d41b)" d="M 146.491676 104.742509 
C 147.601101 104.742509 148.665235 104.30173 149.449716 103.517248 
C 150.234198 102.732767 150.674977 101.668633 150.674977 100.559209 
C 150.674977 99.449784 150.234198 98.38565 149.449716 97.601169 
C 148.665235 96.816687 147.601101 96.375908 146.491676 96.375908 
C 145.382252 96.375908 144.318118 96.816687 143.533637 97.601169 
C 142.749155 98.38565 142.308376 99.449784 142.308376 100.559209 
C 142.308376 101.668633 142.749155 102.732767 143.533637 103.517248 
C 144.318118 104.30173 145.382252 104.742509 146.491676 104.742509 
z
" style="fill:#ff0000;stroke:#ff0000;"/>
    <path clip-path="url(#p3173e0d41b)" d="M 136.364601 116.038298 
C 137.5407 116.038298 138.668788 115.571029 139.500415 114.739401 
C 140.332043 113.907773 140.799312 112.779686 140.799312 111.603586 
C 140.799312 110.427487 140.332043 109.2994 139.500415 108.467772 
C 138.668788 107.636144 137.5407 107.168875 136.364601 107.168875 
C 135.188501 107.168875 134.060414 107.636144 133.228786 108.467772 
C 132.397158 109.2994 131.929889 110.427487 131.929889 111.603586 
C 131.929889 112.779686 132.397158 113.907773 133.228786 114.739401 
C 134.060414 115.571029 135.188501 116.038298 136.364601 116.038298 
z
" style="fill:#ff0000;stroke:#ff0000;"/>
    <path clip-path="url(#p3173e0d41b)" d="M 126.213276 127.146546 
C 127.3993 127.146546 128.536908 126.675333 129.375553 125.836687 
C 130.214199 124.998042 130.685412 123.860434 130.685412 122.67441 
C 130.685412 121.488385 130.214199 120.350778 129.375553 119.512132 
C 128.536908 118.673486 127.3993 118.202274 126.213276 118.202274 
C 125.027251 118.202274 123.889644 118.673486 123.050998 119.512132 
C 122.212352 120.350778 121.74114 121.488385 121.74114 122.67441 
C 121.74114 123.860434 122.212352 124.998042 123.050998 125.836687 
C 123.889644 126.675333 125.027251 127.146546 126.213276 127.146546 
z
" style="fill:#ff0000;stroke:#ff0000;"/>
    <path clip-path="url(#p3173e0d41b)" d="M 116.037615 137.792553 
C 117.103938 137.792553 118.126731 137.368898 118.880735 136.614894 
C 119.634739 135.86089 120.058394 134.838097 120.058394 133.771774 
C 120.058394 132.705451 119.634739 131.682658 118.880735 130.928653 
C 118.126731 130.174649 117.103938 129.750994 116.037615 129.750994 
C 114.971292 129.750994 113.948499 130.174649 113.194494 130.928653 
C 112.44049 131.682658 112.016835 132.705451 112.016835 133.771774 
C 112.016835 134.838097 112.44049 135.86089 113.194494 136.614894 
C 113.948499 137.368898 114.971292 137.792553 116.037615 137.792553 
z
" style="fill:#ff0000;stroke:#ff0000;"/>
    <path clip-path="url(#p3173e0d41b)" d="M 105.83753 148.547257 
C 106.805915 148.547257 107.734767 148.162514 108.419519 147.477763 
C 109.10427 146.793011 109.489013 145.864159 109.489013 144.895774 
C 109.489013 143.927389 109.10427 142.998536 108.419519 142.313785 
C 107.734767 141.629033 106.805915 141.24429 105.83753 141.24429 
C 104.869145 141.24429 103.940292 141.629033 103.255541 142.313785 
C 102.570789 142.998536 102.186046 143.927389 102.186046 144.895774 
C 102.186046 145.864159 102.570789 146.793011 103.255541 147.477763 
C 103.940292 148.162514 104.869145 148.547257 105.83753 148.547257 
z
" style="fill:#ff0000;stroke:#ff0000;"/>
    <path clip-path="url(#p3173e0d41b)" d="M 95.612933 159.58204 
C 96.550567 159.58204 97.449925 159.209514 98.112933 158.546506 
C 98.775941 157.883498 99.148467 156.984141 99.148467 156.046506 
C 99.148467 155.108871 98.775941 154.209514 98.112933 153.546506 
C 97.449925 152.883498 96.550567 152.510972 95.612933 152.510972 
C 94.675298 152.510972 93.775941 152.883498 93.112933 153.546506 
C 92.449925 154.209514 92.077399 155.108871 92.077399 156.046506 
C 92.077399 156.984141 92.449925 157.883498 93.112933 158.546506 
C 93.775941 159.209514 94.675298 159.58204 95.612933 159.58204 
z
" style="fill:#ff0000;stroke:#ff0000;"/>
    <path clip-path="url(#p3173e0d41b)" d="M 85.363736 170.167987 
C 86.144473 170.167987 86.893337 169.857797 87.445402 169.305733 
C 87.997466 168.753669 88.307656 168.004804 88.307656 167.224067 
C 88.307656 166.44333 87.997466 165.694465 87.445402 165.142401 
C 86.893337 164.590337 86.144473 164.280147 85.363736 164.280147 
C 84.582999 164.280147 83.834134 164.590337 83.28207 165.142401 
C 82.730005 165.694465 82.419815 166.44333 82.419815 167.224067 
C 82.419815 168.004804 82.730005 168.753669 83.28207 169.305733 
C 83.834134 169.857797 84.582999 170.167987 85.363736 170.167987 
z
" style="fill:#ff0000;stroke:#ff0000;"/>
    <path clip-path="url(#p3173e0d41b)" d="M 75.089849 180.843783 
C 75.730376 180.843783 76.344754 180.589299 76.797674 180.136379 
C 77.250595 179.683458 77.505079 179.06908 77.505079 178.428553 
C 77.505079 177.788027 77.250595 177.173649 76.797674 176.720728 
C 76.344754 176.267808 75.730376 176.013324 75.089849 176.013324 
C 74.449323 176.013324 73.834945 176.267808 73.382024 176.720728 
C 72.929104 177.173649 72.67462 177.788027 72.67462 178.428553 
C 72.67462 179.06908 72.929104 179.683458 73.382024 180.136379 
C 73.834945 180.589299 74.449323 180.843783 75.089849 180.843783 
z
" style="fill:#ff0000;stroke:#ff0000;"/>
    <path clip-path="url(#p3173e0d41b)" d="M 64.791184 191.187588 
C 65.196289 191.187588 65.584856 191.026638 65.871308 190.740186 
C 66.15776 190.453734 66.31871 190.065167 66.31871 189.660063 
C 66.31871 189.254958 66.15776 188.866392 65.871308 188.579939 
C 65.584856 188.293487 65.196289 188.132538 64.791184 188.132538 
C 64.38608 188.132538 63.997513 188.293487 63.711061 188.579939 
C 63.424609 188.866392 63.263659 189.254958 63.263659 189.660063 
C 63.263659 190.065167 63.424609 190.453734 63.711061 190.740186 
C 63.997513 191.026638 64.38608 191.187588 64.791184 191.187588 
z
" style="fill:#ff0000;stroke:#ff0000;"/>
    <path clip-path="url(#p3173e0d41b)" d="M 297.324995 216.588038 
C 297.821144 216.588038 298.29704 216.390916 298.64787 216.040085 
C 298.998701 215.689254 299.195823 215.213359 299.195823 214.717209 
C 299.195823 214.22106 298.998701 213.745164 298.64787 213.394334 
C 298.29704 213.043503 297.821144 212.846381 297.324995 212.846381 
C 296.828845 212.846381 296.35295 213.043503 296.002119 213.394334 
C 295.651288 213.745164 295.454166 214.22106 295.454166 214.717209 
C 295.454166 215.213359 295.651288 215.689254 296.002119 216.040085 
C 296.35295 216.390916 296.828845 216.588038 297.324995 216.588038 
z
" style="fill:#ff0000;stroke:#ff0000;"/>
    <path clip-path="url(#p3173e0d41b)" d="M 279.624347 216.293494 
C 280.309099 216.293494 280.965897 216.021439 281.450089 215.537247 
C 281.934281 215.053054 282.206336 214.396256 282.206336 213.711505 
C 282.206336 213.026753 281.934281 212.369955 281.450089 211.885763 
C 280.965897 211.401571 280.309099 211.129516 279.624347 211.129516 
C 278.939596 211.129516 278.282798 211.401571 277.798605 211.885763 
C 277.314413 212.369955 277.042358 213.026753 277.042358 213.711505 
C 277.042358 214.396256 277.314413 215.053054 277.798605 215.537247 
C 278.282798 216.021439 278.939596 216.293494 279.624347 216.293494 
z
" style="fill:#ff0000;stroke:#ff0000;"/>
    <path clip-path="url(#p3173e0d41b)" d="M 261.979137 215.736601 
C 262.782079 215.736601 263.552243 215.417588 264.120009 214.849823 
C 264.687775 214.282057 265.006787 213.511893 265.006787 212.70895 
C 265.006787 211.906008 264.687775 211.135844 264.120009 210.568078 
C 263.552243 210.000312 262.782079 209.6813 261.979137 209.6813 
C 261.176194 209.6813 260.40603 210.000312 259.838264 210.568078 
C 259.270499 211.135844 258.951486 211.906008 258.951486 212.70895 
C 258.951486 213.511893 259.270499 214.282057 259.838264 214.849823 
C 260.40603 215.417588 261.176194 215.736601 261.979137 215.736601 
z
" style="fill:#ff0000;stroke:#ff0000;"/>
    <path clip-path="url(#p3173e0d41b)" d="M 244.389103 215.383766 
C 245.363521 215.383766 246.298161 214.996625 246.987179 214.307607 
C 247.676197 213.618589 248.063338 212.683949 248.063338 211.709531 
C 248.063338 210.735113 247.676197 209.800473 246.987179 209.111455 
C 246.298161 208.422437 245.363521 208.035296 244.389103 208.035296 
C 243.414685 208.035296 242.480045 208.422437 241.791027 209.111455 
C 241.102009 209.800473 240.714868 210.735113 240.714868 211.709531 
C 240.714868 212.683949 241.102009 213.618589 241.791027 214.307607 
C 242.480045 214.996625 243.414685 215.383766 244.389103 215.383766 
z
" style="fill:#ff0000;stroke:#ff0000;"/>
    <path clip-path="url(#p3173e0d41b)" d="M 226.853988 214.477095 
C 227.852176 214.477095 228.809616 214.080511 229.515441 213.374685 
C 230.221267 212.668859 230.617851 211.71142 230.617851 210.713232 
C 230.617851 209.715044 230.221267 208.757604 229.515441 208.051779 
C 228.809616 207.345953 227.852176 206.949369 226.853988 206.949369 
C 225.8558 206.949369 224.898361 207.345953 224.192535 208.051779 
C 223.486709 208.757604 223.090125 209.715044 223.090125 210.713232 
C 223.090125 211.71142 223.486709 212.668859 224.192535 213.374685 
C 224.898361 214.080511 225.8558 214.477095 226.853988 214.477095 
z
" style="fill:#ff0000;stroke:#ff0000;"/>
    <path clip-path="url(#p3173e0d41b)" d="M 209.373535 213.982276 
C 210.503894 213.982276 211.588108 213.53318 212.387392 212.733895 
C 213.186676 211.934611 213.635772 210.850397 213.635772 209.720038 
C 213.635772 208.58968 213.186676 207.505466 212.387392 206.706182 
C 211.588108 205.906897 210.503894 205.457801 209.373535 205.457801 
C 208.243177 205.457801 207.158962 205.906897 206.359678 206.706182 
C 205.560394 207.505466 205.111298 208.58968 205.111298 209.720038 
C 205.111298 210.850397 205.560394 211.934611 206.359678 212.733895 
C 207.158962 213.53318 208.243177 213.982276 209.373535 213.982276 
z
" style="fill:#ff0000;stroke:#ff0000;"/>
    <path clip-path="url(#p3173e0d41b)" d="M 191.947489 213.220667 
C 193.138445 213.220667 194.280782 212.747496 195.122915 211.905363 
C 195.965048 211.06323 196.43822 209.920892 196.43822 208.729936 
C 196.43822 207.53898 195.965048 206.396643 195.122915 205.55451 
C 194.280782 204.712377 193.138445 204.239205 191.947489 204.239205 
C 190.756533 204.239205 189.614195 204.712377 188.772062 205.55451 
C 187.929929 206.396643 187.456758 207.53898 187.456758 208.729936 
C 187.456758 209.920892 187.929929 211.06323 188.772062 211.905363 
C 189.614195 212.747496 190.756533 213.220667 191.947489 213.220667 
z
" style="fill:#ff0000;stroke:#ff0000;"/>
    <path clip-path="url(#p3173e0d41b)" d="M 174.575595 211.946084 
C 175.69029 211.946084 176.75948 211.503212 177.547688 210.715003 
C 178.335896 209.926795 178.778769 208.857606 178.778769 207.742911 
C 178.778769 206.628216 178.335896 205.559027 177.547688 204.770819 
C 176.75948 203.98261 175.69029 203.539738 174.575595 203.539738 
C 173.460901 203.539738 172.391711 203.98261 171.603503 204.770819 
C 170.815295 205.559027 170.372422 206.628216 170.372422 207.742911 
C 170.372422 208.857606 170.815295 209.926795 171.603503 210.715003 
C 172.391711 211.503212 173.460901 211.946084 174.575595 211.946084 
z
" style="fill:#ff0000;stroke:#ff0000;"/>
    <path clip-path="url(#p3173e0d41b)" d="M 157.257603 210.902216 
C 158.35641 210.902216 159.410362 210.465655 160.187336 209.688681 
C 160.96431 208.911707 161.400871 207.857756 161.400871 206.758948 
C 161.400871 205.660141 160.96431 204.60619 160.187336 203.829216 
C 159.410362 203.052241 158.35641 202.615681 157.257603 202.615681 
C 156.158796 202.615681 155.104845 203.052241 154.32787 203.829216 
C 153.550896 204.60619 153.114335 205.660141 153.114335 206.758948 
C 153.114335 207.857756 153.550896 208.911707 154.32787 209.688681 
C 155.104845 210.465655 156.158796 210.902216 157.257603 210.902216 
z
" style="fill:#ff0000;stroke:#ff0000;"/>
    <path clip-path="url(#p3173e0d41b)" d="M 139.993261 209.58592 
C 141.003125 209.58592 141.971762 209.184697 142.685844 208.470616 
C 143.399925 207.756535 143.801148 206.787897 143.801148 205.778034 
C 143.801148 204.76817 143.399925 203.799532 142.685844 203.085451 
C 141.971762 202.37137 141.003125 201.970147 139.993261 201.970147 
C 138.983398 201.970147 138.01476 202.37137 137.300679 203.085451 
C 136.586598 203.799532 136.185375 204.76817 136.185375 205.778034 
C 136.185375 206.787897 136.586598 207.756535 137.300679 208.470616 
C 138.01476 209.184697 138.983398 209.58592 139.993261 209.58592 
z
" style="fill:#ff0000;stroke:#ff0000;"/>
    <path clip-path="url(#p3173e0d41b)" d="M 122.782321 208.428743 
C 123.744634 208.428743 124.667663 208.046412 125.348122 207.365954 
C 126.02858 206.685496 126.410911 205.762467 126.410911 204.800153 
C 126.410911 203.83784 126.02858 202.914811 125.348122 202.234353 
C 124.667663 201.553894 123.744634 201.171563 122.782321 201.171563 
C 121.820008 201.171563 120.896979 201.553894 120.21652 202.234353 
C 119.536062 202.914811 119.153731 203.83784 119.153731 204.800153 
C 119.153731 205.762467 119.536062 206.685496 120.21652 207.365954 
C 120.896979 208.046412 121.820008 208.428743 122.782321 208.428743 
z
" style="fill:#ff0000;stroke:#ff0000;"/>
    <path clip-path="url(#p3173e0d41b)" d="M 105.624535 206.740769 
C 106.397728 206.740769 107.139358 206.433576 107.686088 205.886846 
C 108.232818 205.340116 108.540011 204.598486 108.540011 203.825293 
C 108.540011 203.0521 108.232818 202.31047 107.686088 201.76374 
C 107.139358 201.21701 106.397728 200.909817 105.624535 200.909817 
C 104.851342 200.909817 104.109712 201.21701 103.562982 201.76374 
C 103.016252 202.31047 102.709059 203.0521 102.709059 203.825293 
C 102.709059 204.598486 103.016252 205.340116 103.562982 205.886846 
C 104.109712 206.433576 104.851342 206.740769 105.624535 206.740769 
z
" style="fill:#ff0000;stroke:#ff0000;"/>
    <path clip-path="url(#p3173e0d41b)" d="M 88.519657 204.974759 
C 89.082238 204.974759 89.621853 204.751243 90.019657 204.353439 
C 90.417462 203.955634 90.640978 203.416019 90.640978 202.853439 
C 90.640978 202.290858 90.417462 201.751243 90.019657 201.353439 
C 89.621853 200.955634 89.082238 200.732118 88.519657 200.732118 
C 87.957076 200.732118 87.417462 200.955634 87.019657 201.353439 
C 86.621853 201.751243 86.398337 202.290858 86.398337 202.853439 
C 86.398337 203.416019 86.621853 203.955634 87.019657 204.353439 
C 87.417462 204.751243 87.957076 204.974759 88.519657 204.974759 
z
" style="fill:#ff0000;stroke:#ff0000;"/>
    <path clip-path="url(#p3173e0d41b)" d="M 71.467443 203.842467 
C 71.986682 203.842467 72.484724 203.636171 72.851881 203.269014 
C 73.219038 202.901857 73.425334 202.403815 73.425334 201.884577 
C 73.425334 201.365338 73.219038 200.867297 72.851881 200.500139 
C 72.484724 200.132982 71.986682 199.926687 71.467443 199.926687 
C 70.948205 199.926687 70.450163 200.132982 70.083006 200.500139 
C 69.715849 200.867297 69.509553 201.365338 69.509553 201.884577 
C 69.509553 202.403815 69.715849 202.901857 70.083006 203.269014 
C 70.450163 203.636171 70.948205 203.842467 71.467443 203.842467 
z
" style="fill:#ff0000;stroke:#ff0000;"/>
   </g>
   <g id="legend_1">
    <g id="patch_6">
     <path d="M 10.5 280.5 
L 283.5 280.5 
Q 286.5 280.5 286.5 277.5 
L 286.5 239.25 
Q 286.5 236.25 283.5 236.25 
L 10.5 236.25 
Q 7.5 236.25 7.5 239.25 
L 7.5 277.5 
Q 7.5 280.5 10.5 280.5 
z
" style="fill:#ffffff;opacity:0.8;stroke:#cccccc;stroke-linejoin:miter;"/>
    </g>
    <g id="Path3DCollection_3">
     <defs>
      <path d="M 0 3.535534 
C 0.937635 3.535534 1.836992 3.163008 2.5 2.5 
C 3.163008 1.836992 3.535534 0.937635 3.535534 0 
C 3.535534 -0.937635 3.163008 -1.836992 2.5 -2.5 
C 1.836992 -3.163008 0.937635 -3.535534 0 -3.535534 
C -0.937635 -3.535534 -1.836992 -3.163008 -2.5 -2.5 
C -3.163008 -1.836992 -3.535534 -0.937635 -3.535534 0 
C -3.535534 0.937635 -3.163008 1.836992 -2.5 2.5 
C -1.836992 3.163008 -0.937635 3.535534 0 3.535534 
z
" id="maaffcd0f03" style="stroke:#ff0000;"/>
     </defs>
     <g>
      <use style="fill:#ff0000;stroke:#ff0000;" x="28.5" xlink:href="#maaffcd0f03" y="248.8125"/>
     </g>
    </g>
    <g id="text_28">
     <!-- probability of absorbing state -->
     <defs>
      <path d="M 44.140625 23.828125 
Q 44.140625 12.5 38.671875 6.640625 
Q 33.203125 0.78125 25.390625 0.78125 
Q 21.09375 0.78125 17.96875 2.53125 
Q 14.84375 4.296875 12.5 7.8125 
L 12.5 -12.5 
L 4.6875 -12.5 
L 4.6875 45.703125 
L 12.5 45.703125 
L 12.5 39.84375 
Q 14.84375 43.359375 17.96875 44.921875 
Q 21.09375 46.484375 25.390625 46.484375 
Q 33.203125 46.484375 38.671875 40.8125 
Q 44.140625 35.15625 44.140625 23.828125 
z
M 35.546875 23.828125 
Q 35.546875 31.25 32.609375 35.34375 
Q 29.6875 39.453125 23.828125 39.453125 
Q 19.140625 39.453125 15.8125 35.34375 
Q 12.5 31.25 12.5 23.828125 
Q 12.5 16.40625 15.8125 12.109375 
Q 19.140625 7.8125 23.828125 7.8125 
Q 29.6875 7.8125 32.609375 12.109375 
Q 35.546875 16.40625 35.546875 23.828125 
z
" id="SimHei-70"/>
      <path d="M 39.0625 37.890625 
Q 31.640625 39.0625 26.5625 35.734375 
Q 21.484375 32.421875 17.96875 24.21875 
L 17.96875 1.953125 
L 10.15625 1.953125 
L 10.15625 45.703125 
L 17.96875 45.703125 
L 17.96875 34.375 
Q 21.484375 40.625 26.75 43.546875 
Q 32.03125 46.484375 39.0625 46.484375 
z
" id="SimHei-72"/>
      <path d="M 44.140625 23.828125 
Q 44.140625 12.5 38.671875 6.828125 
Q 33.203125 1.171875 25.390625 1.171875 
Q 21.09375 1.171875 17.96875 2.734375 
Q 14.84375 4.296875 12.5 7.8125 
L 12.5 1.953125 
L 4.6875 1.953125 
L 4.6875 68.75 
L 12.5 68.75 
L 12.5 39.84375 
Q 14.84375 43.359375 17.96875 45.109375 
Q 21.09375 46.875 25.390625 46.875 
Q 33.203125 46.875 38.671875 41.015625 
Q 44.140625 35.15625 44.140625 23.828125 
z
M 35.546875 23.828125 
Q 35.546875 31.25 32.609375 35.546875 
Q 29.6875 39.84375 23.828125 39.84375 
Q 19.140625 39.84375 15.8125 35.546875 
Q 12.5 31.25 12.5 23.828125 
Q 12.5 16.40625 15.8125 12.296875 
Q 19.140625 8.203125 23.828125 8.203125 
Q 29.6875 8.203125 32.609375 12.296875 
Q 35.546875 16.40625 35.546875 23.828125 
z
" id="SimHei-62"/>
      <path d="M 44.921875 1.953125 
L 35.546875 1.953125 
Q 34.765625 2.734375 34.375 4.09375 
Q 33.984375 5.46875 33.984375 7.421875 
Q 31.25 4.296875 27.34375 2.734375 
Q 23.4375 1.171875 19.140625 1.171875 
Q 12.890625 1.171875 8.59375 4.296875 
Q 4.296875 7.421875 4.296875 13.28125 
Q 4.296875 19.140625 8.203125 22.65625 
Q 12.109375 26.171875 20.3125 27.34375 
Q 25.78125 28.125 29.875 29.296875 
Q 33.984375 30.46875 33.984375 32.421875 
Q 33.984375 34.765625 32.21875 37.109375 
Q 30.46875 39.453125 24.609375 39.453125 
Q 19.921875 39.453125 17.765625 37.6875 
Q 15.625 35.9375 14.84375 32.8125 
L 6.25 32.8125 
Q 7.03125 39.0625 11.90625 42.765625 
Q 16.796875 46.484375 24.609375 46.484375 
Q 33.203125 46.484375 37.5 42.578125 
Q 41.796875 38.671875 41.796875 31.640625 
L 41.796875 10.15625 
Q 41.796875 7.8125 42.578125 5.859375 
Q 43.359375 3.90625 44.921875 1.953125 
z
M 33.984375 16.40625 
L 33.984375 24.21875 
Q 31.640625 23.4375 29.484375 22.84375 
Q 27.34375 22.265625 22.265625 21.484375 
Q 16.40625 20.703125 14.640625 18.75 
Q 12.890625 16.796875 12.890625 14.0625 
Q 12.890625 11.71875 14.640625 9.953125 
Q 16.40625 8.203125 19.921875 8.203125 
Q 23.4375 8.203125 27.53125 10.15625 
Q 31.640625 12.109375 33.984375 16.40625 
z
" id="SimHei-61"/>
      <path d="M 28.515625 1.953125 
L 20.703125 1.953125 
L 20.703125 68.75 
L 28.515625 68.75 
z
" id="SimHei-6c"/>
      <path d="M 42.96875 3.125 
Q 41.015625 2.34375 38.46875 1.75 
Q 35.9375 1.171875 31.640625 1.171875 
Q 24.609375 1.171875 20.3125 5.078125 
Q 16.015625 8.984375 16.015625 16.015625 
L 16.015625 39.453125 
L 2.734375 39.453125 
L 2.734375 45.703125 
L 16.015625 45.703125 
L 16.015625 60.9375 
L 23.828125 60.9375 
L 23.828125 45.703125 
L 39.84375 45.703125 
L 39.84375 39.453125 
L 23.828125 39.453125 
L 23.828125 15.625 
Q 23.828125 12.5 25.390625 10.34375 
Q 26.953125 8.203125 31.25 8.203125 
Q 35.546875 8.203125 38.28125 8.984375 
Q 41.015625 9.765625 42.96875 10.9375 
z
" id="SimHei-74"/>
      <path d="M 45.3125 45.703125 
L 27.34375 -1.5625 
Q 25.78125 -7.03125 22.65625 -9.765625 
Q 19.53125 -12.5 14.84375 -12.5 
Q 12.890625 -12.5 11.125 -12.296875 
Q 9.375 -12.109375 7.8125 -11.328125 
L 7.8125 -3.515625 
Q 9.375 -4.296875 10.9375 -4.6875 
Q 12.5 -5.078125 13.671875 -5.078125 
Q 16.796875 -5.078125 17.96875 -4.09375 
Q 19.140625 -3.125 20.3125 0.390625 
L 3.125 45.703125 
L 11.71875 45.703125 
L 24.21875 11.328125 
L 24.609375 11.328125 
L 36.71875 45.703125 
z
" id="SimHei-79"/>
      <path d="M 46.484375 39.0625 
Q 43.75 39.84375 41.203125 40.03125 
Q 38.671875 40.234375 35.9375 39.453125 
Q 37.109375 38.28125 37.890625 36.515625 
Q 38.671875 34.765625 38.671875 31.25 
Q 38.671875 24.609375 34.171875 20.3125 
Q 29.6875 16.015625 23.046875 16.015625 
Q 21.484375 16.015625 18.9375 16.59375 
Q 16.40625 17.1875 14.84375 17.96875 
Q 13.671875 17.1875 13.28125 16.40625 
Q 12.890625 15.625 12.890625 14.453125 
Q 12.890625 12.5 15.625 11.515625 
Q 18.359375 10.546875 25.390625 10.546875 
Q 36.71875 10.546875 40.8125 7.421875 
Q 44.921875 4.296875 44.921875 -0.390625 
Q 44.921875 -6.640625 38.859375 -9.5625 
Q 32.8125 -12.5 24.609375 -12.5 
Q 14.0625 -12.5 8.984375 -9.765625 
Q 3.90625 -7.03125 3.90625 -2.34375 
Q 3.90625 0 5.859375 2.34375 
Q 7.8125 4.6875 10.9375 6.25 
Q 8.59375 7.421875 7.21875 9.171875 
Q 5.859375 10.9375 5.859375 13.671875 
Q 5.859375 16.015625 7.609375 17.765625 
Q 9.375 19.53125 11.71875 20.703125 
Q 9.765625 22.65625 8.59375 25.390625 
Q 7.421875 28.125 7.421875 31.25 
Q 7.421875 37.890625 11.90625 42.1875 
Q 16.40625 46.484375 23.046875 46.484375 
Q 26.5625 46.484375 29.09375 45.5 
Q 31.640625 44.53125 33.59375 42.578125 
Q 36.71875 44.921875 39.84375 45.890625 
Q 42.96875 46.875 46.484375 46.484375 
z
M 30.859375 31.25 
Q 30.859375 35.15625 28.90625 37.5 
Q 26.953125 39.84375 23.046875 39.84375 
Q 19.140625 39.84375 17.1875 37.5 
Q 15.234375 35.15625 15.234375 31.25 
Q 15.234375 27.34375 17.1875 25 
Q 19.140625 22.65625 23.046875 22.65625 
Q 26.953125 22.65625 28.90625 25 
Q 30.859375 27.34375 30.859375 31.25 
z
M 37.5 -1.171875 
Q 37.5 0.390625 35.734375 1.953125 
Q 33.984375 3.515625 26.953125 3.515625 
Q 25.390625 3.515625 22.65625 3.703125 
Q 19.921875 3.90625 16.40625 4.296875 
Q 13.28125 3.125 12.109375 1.5625 
Q 10.9375 0 10.9375 -1.5625 
Q 10.9375 -3.90625 14.0625 -5.46875 
Q 17.1875 -7.03125 25 -7.03125 
Q 31.640625 -7.03125 34.5625 -5.265625 
Q 37.5 -3.515625 37.5 -1.171875 
z
" id="SimHei-67"/>
      <path d="M 44.53125 16.796875 
Q 43.75 9.765625 38.28125 5.46875 
Q 32.8125 1.171875 25.390625 1.171875 
Q 16.015625 1.171875 9.953125 7.21875 
Q 3.90625 13.28125 3.90625 23.828125 
Q 3.90625 34.375 9.953125 40.421875 
Q 16.015625 46.484375 25.390625 46.484375 
Q 33.59375 46.484375 38.859375 41.203125 
Q 44.140625 35.9375 44.140625 23.828125 
L 12.5 23.828125 
Q 12.5 15.234375 16.203125 11.71875 
Q 19.921875 8.203125 25.390625 8.203125 
Q 29.6875 8.203125 32.421875 10.34375 
Q 35.15625 12.5 35.9375 16.796875 
z
M 35.15625 30.078125 
Q 34.375 35.546875 31.640625 37.6875 
Q 28.90625 39.84375 24.609375 39.84375 
Q 20.703125 39.84375 17.578125 37.6875 
Q 14.453125 35.546875 12.890625 30.078125 
z
" id="SimHei-65"/>
     </defs>
     <g transform="translate(55.5 252.75)scale(0.15 -0.15)">
      <use xlink:href="#SimHei-70"/>
      <use x="50" xlink:href="#SimHei-72"/>
      <use x="100" xlink:href="#SimHei-6f"/>
      <use x="150" xlink:href="#SimHei-62"/>
      <use x="200" xlink:href="#SimHei-61"/>
      <use x="250" xlink:href="#SimHei-62"/>
      <use x="300" xlink:href="#SimHei-69"/>
      <use x="350" xlink:href="#SimHei-6c"/>
      <use x="400" xlink:href="#SimHei-69"/>
      <use x="450" xlink:href="#SimHei-74"/>
      <use x="500" xlink:href="#SimHei-79"/>
      <use x="550" xlink:href="#SimHei-20"/>
      <use x="600" xlink:href="#SimHei-6f"/>
      <use x="650" xlink:href="#SimHei-66"/>
      <use x="700" xlink:href="#SimHei-20"/>
      <use x="750" xlink:href="#SimHei-61"/>
      <use x="800" xlink:href="#SimHei-62"/>
      <use x="850" xlink:href="#SimHei-73"/>
      <use x="900" xlink:href="#SimHei-6f"/>
      <use x="950" xlink:href="#SimHei-72"/>
      <use x="1000" xlink:href="#SimHei-62"/>
      <use x="1050" xlink:href="#SimHei-69"/>
      <use x="1100" xlink:href="#SimHei-6e"/>
      <use x="1150" xlink:href="#SimHei-67"/>
      <use x="1200" xlink:href="#SimHei-20"/>
      <use x="1250" xlink:href="#SimHei-73"/>
      <use x="1300" xlink:href="#SimHei-74"/>
      <use x="1350" xlink:href="#SimHei-61"/>
      <use x="1400" xlink:href="#SimHei-74"/>
      <use x="1450" xlink:href="#SimHei-65"/>
     </g>
    </g>
    <g id="Path3DCollection_4">
     <g>
      <use style="fill:#008000;stroke:#008000;" x="28.5" xlink:href="#m79216ddd46" y="268.6875"/>
     </g>
    </g>
    <g id="text_29">
     <!-- start state -->
     <g transform="translate(55.5 272.625)scale(0.15 -0.15)">
      <use xlink:href="#SimHei-73"/>
      <use x="50" xlink:href="#SimHei-74"/>
      <use x="100" xlink:href="#SimHei-61"/>
      <use x="150" xlink:href="#SimHei-72"/>
      <use x="200" xlink:href="#SimHei-74"/>
      <use x="250" xlink:href="#SimHei-20"/>
      <use x="300" xlink:href="#SimHei-73"/>
      <use x="350" xlink:href="#SimHei-74"/>
      <use x="400" xlink:href="#SimHei-61"/>
      <use x="450" xlink:href="#SimHei-74"/>
      <use x="500" xlink:href="#SimHei-65"/>
     </g>
    </g>
   </g>
  </g>
 </g>
 <defs>
  <clipPath id="p3173e0d41b">
   <rect height="288" width="360" x="0" y="0"/>
  </clipPath>
 </defs>
</svg>
