<?xml version="1.0" encoding="utf-8" standalone="no"?>
<!DOCTYPE svg PUBLIC "-//W3C//DTD SVG 1.1//EN"
  "http://www.w3.org/Graphics/SVG/1.1/DTD/svg11.dtd">
<!-- Created with matplotlib (http://matplotlib.org/) -->
<svg height="309.4pt" version="1.1" viewBox="0 0 381.4 309.4" width="381.4pt" xmlns="http://www.w3.org/2000/svg" xmlns:xlink="http://www.w3.org/1999/xlink">
 <defs>
  <style type="text/css">
*{stroke-linecap:butt;stroke-linejoin:round;}
  </style>
 </defs>
 <g id="figure_1">
  <g id="patch_1">
   <path d="M 0 309.4 
L 381.4 309.4 
L 381.4 0 
L 0 0 
z
" style="fill:none;"/>
  </g>
  <g id="patch_2">
   <path d="M 10.7 298.7 
L 370.7 298.7 
L 370.7 10.7 
L 10.7 10.7 
z
" style="fill:#ffffff;"/>
  </g>
  <g id="pane3d_1">
   <g id="patch_3">
    <path d="M 219.619567 185.462306 
L 335.768129 233.715199 
L 340.919918 79.597002 
L 220.435568 41.545085 
" style="fill:#f2f2f2;opacity:0.5;stroke:#f2f2f2;stroke-linejoin:miter;"/>
   </g>
  </g>
  <g id="pane3d_2">
   <g id="patch_4">
    <path d="M 219.619567 185.462306 
L 58.794045 217.8137 
L 53.895826 67.034254 
L 220.435568 41.545085 
" style="fill:#e6e6e6;opacity:0.5;stroke:#e6e6e6;stroke-linejoin:miter;"/>
   </g>
  </g>
  <g id="pane3d_3">
   <g id="patch_5">
    <path d="M 219.619567 185.462306 
L 58.794045 217.8137 
L 168.062833 271.631196 
L 335.768129 233.715199 
" style="fill:#ececec;opacity:0.5;stroke:#ececec;stroke-linejoin:miter;"/>
   </g>
  </g>
  <g id="axis3d_1">
   <g id="line2d_1">
    <path d="M 335.768129 233.715199 
L 168.062833 271.631196 
" style="fill:none;stroke:#000000;stroke-linecap:square;stroke-width:0.8;"/>
   </g>
   <g id="text_1">
    <!-- coins of 大熊 -->
    <defs>
     <path d="M 44.53125 19.53125 
Q 44.53125 11.328125 38.859375 6.25 
Q 33.203125 1.171875 24.609375 1.171875 
Q 16.015625 1.171875 9.765625 7.21875 
Q 3.515625 13.28125 3.515625 23.828125 
Q 3.515625 34.375 9.765625 40.421875 
Q 16.015625 46.484375 24.609375 46.484375 
Q 33.203125 46.484375 38.28125 41.984375 
Q 43.359375 37.5 43.359375 31.25 
L 34.765625 31.25 
Q 34.375 35.9375 31.4375 37.6875 
Q 28.515625 39.453125 24.609375 39.453125 
Q 19.921875 39.453125 16.015625 35.734375 
Q 12.109375 32.03125 12.109375 23.828125 
Q 12.109375 15.625 16.015625 11.90625 
Q 19.921875 8.203125 24.609375 8.203125 
Q 29.6875 8.203125 32.8125 10.9375 
Q 35.9375 13.671875 35.9375 19.53125 
z
" id="SimHei-63"/>
     <path d="M 45.703125 23.828125 
Q 45.703125 13.671875 39.453125 7.421875 
Q 33.203125 1.171875 24.609375 1.171875 
Q 16.015625 1.171875 9.765625 7.421875 
Q 3.515625 13.671875 3.515625 23.828125 
Q 3.515625 33.984375 9.765625 40.234375 
Q 16.015625 46.484375 24.609375 46.484375 
Q 33.203125 46.484375 39.453125 40.234375 
Q 45.703125 33.984375 45.703125 23.828125 
z
M 37.109375 23.828125 
Q 37.109375 31.640625 33.203125 35.546875 
Q 29.296875 39.453125 24.609375 39.453125 
Q 19.921875 39.453125 16.015625 35.546875 
Q 12.109375 31.640625 12.109375 23.828125 
Q 12.109375 16.015625 16.015625 12.109375 
Q 19.921875 8.203125 24.609375 8.203125 
Q 29.296875 8.203125 33.203125 12.109375 
Q 37.109375 16.015625 37.109375 23.828125 
z
" id="SimHei-6f"/>
     <path d="M 28.125 58.203125 
L 20.3125 58.203125 
L 20.3125 68.359375 
L 28.125 68.359375 
z
M 28.125 1.953125 
L 20.3125 1.953125 
L 20.3125 45.703125 
L 28.125 45.703125 
z
" id="SimHei-69"/>
     <path d="M 43.75 1.953125 
L 35.9375 1.953125 
L 35.9375 30.078125 
Q 35.9375 34.765625 33.59375 37.5 
Q 31.25 40.234375 27.34375 40.234375 
Q 22.265625 40.234375 17.765625 34.953125 
Q 13.28125 29.6875 13.28125 21.875 
L 13.28125 1.953125 
L 5.46875 1.953125 
L 5.46875 45.703125 
L 13.28125 45.703125 
L 13.28125 37.5 
Q 16.40625 41.796875 20.109375 44.140625 
Q 23.828125 46.484375 29.6875 46.484375 
Q 36.71875 46.484375 40.234375 42.578125 
Q 43.75 38.671875 43.75 32.8125 
z
" id="SimHei-6e"/>
     <path d="M 42.96875 14.0625 
Q 42.96875 7.8125 38.078125 4.484375 
Q 33.203125 1.171875 25.78125 1.171875 
Q 16.40625 1.171875 11.328125 4.875 
Q 6.25 8.59375 6.25 15.625 
L 14.0625 15.625 
Q 14.0625 10.9375 17.375 9.375 
Q 20.703125 7.8125 25.390625 7.8125 
Q 30.078125 7.8125 32.421875 9.5625 
Q 34.765625 11.328125 34.765625 14.0625 
Q 34.765625 16.015625 32.8125 17.96875 
Q 30.859375 19.921875 23.046875 21.09375 
Q 14.0625 22.265625 10.734375 25.578125 
Q 7.421875 28.90625 7.421875 34.375 
Q 7.421875 39.0625 11.90625 42.765625 
Q 16.40625 46.484375 25 46.484375 
Q 32.8125 46.484375 37.296875 42.96875 
Q 41.796875 39.453125 41.796875 33.59375 
L 33.984375 33.59375 
Q 33.984375 37.109375 31.4375 38.46875 
Q 28.90625 39.84375 25 39.84375 
Q 19.921875 39.84375 17.765625 38.078125 
Q 15.625 36.328125 15.625 33.984375 
Q 15.625 31.25 17.578125 29.6875 
Q 19.53125 28.125 25.78125 27.34375 
Q 35.9375 25.78125 39.453125 22.453125 
Q 42.96875 19.140625 42.96875 14.0625 
z
" id="SimHei-73"/>
     <path id="SimHei-20"/>
     <path d="M 44.53125 59.765625 
Q 42.578125 60.9375 39.84375 61.71875 
Q 37.109375 62.5 32.8125 62.5 
Q 28.515625 62.5 26.953125 60.34375 
Q 25.390625 58.203125 25.390625 55.078125 
L 25.390625 45.703125 
L 41.40625 45.703125 
L 41.40625 39.453125 
L 25.390625 39.453125 
L 25.390625 1.953125 
L 17.578125 1.953125 
L 17.578125 39.453125 
L 4.296875 39.453125 
L 4.296875 45.703125 
L 17.578125 45.703125 
L 17.578125 54.6875 
Q 17.578125 61.71875 21.875 65.625 
Q 26.171875 69.53125 33.203125 69.53125 
Q 37.5 69.53125 40.03125 68.9375 
Q 42.578125 68.359375 44.53125 67.578125 
z
" id="SimHei-66"/>
     <path d="M 45.3125 53.125 
Q 45.703125 66.796875 45.5 71.484375 
Q 45.3125 76.171875 44.921875 80.46875 
Q 49.609375 79.6875 55.46875 79.296875 
Q 54.296875 75.390625 53.703125 67.96875 
Q 53.125 60.546875 53.125 53.125 
L 73.046875 53.125 
Q 83.59375 53.125 92.578125 53.90625 
L 92.578125 45.3125 
Q 84.765625 45.703125 76.5625 45.703125 
L 53.515625 45.703125 
Q 55.078125 39.0625 58.984375 32.21875 
Q 62.890625 25.390625 66.984375 20.109375 
Q 71.09375 14.84375 78.3125 8.984375 
Q 85.546875 3.125 94.140625 -0.78125 
Q 91.015625 -3.125 87.890625 -8.59375 
Q 80.859375 -4.6875 74.015625 1.171875 
Q 67.1875 7.03125 60.34375 16.59375 
Q 53.515625 26.171875 50 34.375 
Q 46.875 25.78125 43.359375 20.109375 
Q 39.84375 14.453125 35.734375 9.765625 
Q 31.640625 5.078125 25.1875 0.390625 
Q 18.75 -4.296875 10.546875 -8.984375 
Q 7.421875 -4.296875 3.515625 -0.78125 
Q 11.71875 1.953125 19.71875 7.03125 
Q 27.734375 12.109375 32.8125 18.546875 
Q 37.890625 25 41.015625 32.03125 
Q 44.140625 39.0625 44.921875 45.703125 
L 23.4375 45.703125 
Q 14.0625 45.703125 8.59375 45.3125 
L 8.59375 53.90625 
Q 14.0625 53.515625 23.4375 53.125 
z
" id="SimHei-5927"/>
     <path d="M 49.609375 52.34375 
Q 49.21875 46.484375 49.21875 40.625 
L 49.21875 19.53125 
Q 49.21875 15.234375 46.484375 13.859375 
Q 43.75 12.5 34.765625 11.328125 
Q 33.59375 14.84375 31.640625 18.359375 
Q 38.671875 18.75 40.421875 18.9375 
Q 42.1875 19.140625 41.796875 23.4375 
L 18.359375 23.4375 
L 18.359375 12.5 
L 10.15625 12.5 
Q 10.546875 25 10.546875 33.59375 
Q 10.546875 42.1875 10.15625 52.34375 
L 49.609375 52.34375 
z
M 65.625 45.3125 
Q 65.234375 41.015625 65.234375 34.375 
Q 81.640625 38.671875 88.28125 43.359375 
Q 90.234375 39.453125 93.359375 36.71875 
Q 85.9375 34.765625 65.625 28.125 
L 65.625 23.046875 
Q 65.625 19.53125 70.703125 19.53125 
L 80.46875 19.53125 
Q 83.59375 19.53125 85.15625 20.890625 
Q 86.71875 22.265625 88.28125 28.125 
Q 92.1875 26.171875 96.875 25.390625 
Q 93.359375 17.1875 91.40625 15.234375 
Q 89.453125 13.28125 83.984375 13.28125 
L 65.234375 13.28125 
Q 57.03125 13.28125 57.03125 19.53125 
L 57.03125 37.5 
Q 57.03125 40.625 56.640625 45.3125 
L 65.625 45.3125 
z
M 92.578125 69.140625 
Q 78.515625 65.234375 64.84375 61.328125 
Q 64.84375 54.6875 68.359375 54.6875 
L 80.46875 54.6875 
Q 83.203125 54.6875 84.765625 56.4375 
Q 86.328125 58.203125 86.71875 62.5 
Q 90.234375 60.9375 94.921875 59.765625 
Q 92.96875 51.5625 90.421875 50.1875 
Q 87.890625 48.828125 82.8125 48.828125 
L 64.84375 48.828125 
Q 57.03125 48.828125 57.03125 54.296875 
L 57.03125 71.09375 
Q 57.03125 75.78125 56.640625 80.46875 
L 65.625 80.46875 
Q 65.234375 75.390625 65.234375 67.1875 
Q 78.515625 70.3125 86.328125 76.171875 
Q 88.671875 72.65625 92.578125 69.140625 
z
M 32.03125 78.125 
Q 24.609375 71.484375 16.40625 62.890625 
Q 22.65625 63.28125 40.625 65.234375 
Q 38.671875 67.578125 35.546875 70.703125 
Q 39.0625 72.265625 42.96875 74.21875 
Q 51.171875 63.28125 55.078125 58.59375 
Q 51.171875 57.03125 48.046875 54.6875 
L 44.53125 59.765625 
Q 42.578125 59.375 33.203125 58.59375 
Q 23.828125 57.8125 9.375 55.859375 
Q 7.421875 59.375 6.25 62.890625 
Q 10.15625 64.84375 14.640625 69.53125 
Q 19.140625 74.21875 23.4375 82.03125 
Q 27.734375 79.6875 32.03125 78.125 
z
M 41.796875 28.90625 
L 41.796875 35.546875 
L 18.359375 35.546875 
L 18.359375 28.90625 
z
M 20.3125 6.640625 
Q 17.1875 3.125 11.71875 -9.765625 
Q 6.640625 -7.8125 3.90625 -7.03125 
Q 6.640625 -1.5625 11.71875 8.984375 
Q 15.625 7.8125 20.3125 6.640625 
z
M 85.9375 10.15625 
Q 92.578125 -1.953125 94.140625 -5.46875 
Q 89.84375 -6.640625 86.328125 -8.59375 
Q 83.984375 -2.34375 78.515625 7.03125 
Q 81.25 8.203125 85.9375 10.15625 
z
M 41.796875 41.015625 
L 41.796875 46.875 
L 18.359375 46.875 
L 18.359375 41.015625 
z
M 62.890625 8.59375 
Q 65.625 -1.953125 66.40625 -5.859375 
L 58.59375 -7.421875 
Q 57.421875 -3.90625 55.46875 7.421875 
Q 58.59375 8.203125 62.890625 8.59375 
z
M 39.84375 7.421875 
Q 40.234375 3.90625 42.578125 -6.640625 
Q 38.671875 -6.640625 34.375 -7.8125 
Q 33.59375 -3.125 32.03125 6.640625 
Q 35.15625 7.421875 39.84375 7.421875 
z
" id="SimHei-718a"/>
    </defs>
    <g style="fill:#800080;" transform="translate(235.061813 295.570823)rotate(-12.739652)scale(0.12 -0.12)">
     <use xlink:href="#SimHei-63"/>
     <use x="50" xlink:href="#SimHei-6f"/>
     <use x="100" xlink:href="#SimHei-69"/>
     <use x="150" xlink:href="#SimHei-6e"/>
     <use x="200" xlink:href="#SimHei-73"/>
     <use x="250" xlink:href="#SimHei-20"/>
     <use x="300" xlink:href="#SimHei-6f"/>
     <use x="350" xlink:href="#SimHei-66"/>
     <use x="400" xlink:href="#SimHei-20"/>
     <use x="450" xlink:href="#SimHei-5927"/>
     <use x="550" xlink:href="#SimHei-718a"/>
    </g>
   </g>
   <g id="Line3DCollection_1">
    <path d="M 325.649087 236.002984 
L 209.876104 187.422284 
L 210.363217 43.086674 
" style="fill:none;stroke:#b0b0b0;stroke-width:0.8;"/>
    <path d="M 305.615951 240.532216 
L 190.60155 191.299522 
L 190.43149 46.137256 
" style="fill:none;stroke:#b0b0b0;stroke-width:0.8;"/>
    <path d="M 285.302458 245.124834 
L 171.077619 195.226923 
L 170.232989 49.228668 
" style="fill:none;stroke:#b0b0b0;stroke-width:0.8;"/>
    <path d="M 264.70268 249.782177 
L 151.299439 199.205469 
L 149.762321 52.361736 
" style="fill:none;stroke:#b0b0b0;stroke-width:0.8;"/>
    <path d="M 243.810523 254.505623 
L 131.262013 203.236164 
L 129.013948 55.537307 
" style="fill:none;stroke:#b0b0b0;stroke-width:0.8;"/>
    <path d="M 222.619718 259.29659 
L 110.960209 207.320041 
L 107.982181 58.756252 
" style="fill:none;stroke:#b0b0b0;stroke-width:0.8;"/>
    <path d="M 201.123814 264.156536 
L 90.38876 211.458159 
L 86.661174 62.019466 
" style="fill:none;stroke:#b0b0b0;stroke-width:0.8;"/>
    <path d="M 179.316176 269.086961 
L 69.542258 215.651607 
L 65.044918 65.327868 
" style="fill:none;stroke:#b0b0b0;stroke-width:0.8;"/>
   </g>
   <g id="xtick_1">
    <g id="line2d_2">
     <path d="M 324.648958 235.583309 
L 327.653217 236.843957 
" style="fill:none;stroke:#000000;stroke-linecap:square;stroke-width:0.8;"/>
    </g>
    <g id="text_2">
     <!-- 0 -->
     <defs>
      <path d="M 3.125 29.296875 
Q 3.90625 50 6.4375 56.046875 
Q 8.984375 62.109375 13.671875 66.015625 
Q 18.359375 69.921875 25.1875 69.921875 
Q 32.03125 69.921875 37.109375 64.25 
Q 42.1875 58.59375 43.75 50 
Q 45.3125 41.40625 44.71875 30.265625 
Q 44.140625 19.140625 40.8125 12.109375 
Q 37.5 5.078125 30.859375 2.34375 
Q 24.21875 -0.390625 17.578125 2.921875 
Q 10.9375 6.25 8.203125 11.71875 
Q 5.46875 17.1875 4.296875 23.234375 
Q 3.125 29.296875 3.90625 50 
z
M 12.890625 52.734375 
Q 10.546875 31.25 12.5 22.84375 
Q 14.453125 14.453125 18.9375 10.9375 
Q 23.4375 7.421875 28.125 9.5625 
Q 32.8125 11.71875 34.953125 18.15625 
Q 37.109375 24.609375 37.109375 32.21875 
Q 37.109375 39.84375 36.515625 46.09375 
Q 35.9375 52.34375 33 57.421875 
Q 30.078125 62.5 25.1875 62.6875 
Q 20.3125 62.890625 16.59375 57.8125 
Q 12.890625 52.734375 10.546875 31.25 
z
" id="SimHei-30"/>
     </defs>
     <g transform="translate(330.134125 260.095778)scale(0.15 -0.15)">
      <use xlink:href="#SimHei-30"/>
     </g>
    </g>
   </g>
   <g id="xtick_2">
    <g id="line2d_3">
     <path d="M 304.621865 240.106691 
L 307.607998 241.384926 
" style="fill:none;stroke:#000000;stroke-linecap:square;stroke-width:0.8;"/>
    </g>
    <g id="text_3">
     <!-- 2 -->
     <defs>
      <path d="M 4.6875 3.90625 
Q 5.078125 9.765625 10.15625 14.453125 
Q 15.234375 19.140625 23.046875 29.09375 
Q 30.859375 39.0625 33.203125 44.53125 
Q 35.546875 50 34.953125 53.90625 
Q 34.375 57.8125 31.25 60.34375 
Q 28.125 62.890625 24.015625 62.5 
Q 19.921875 62.109375 16.203125 59.375 
Q 12.5 56.640625 10.546875 51.171875 
L 3.125 52.34375 
Q 6.25 61.328125 11.125 65.421875 
Q 16.015625 69.53125 22.65625 69.921875 
Q 26.5625 70.3125 29.6875 69.71875 
Q 32.8125 69.140625 36.125 66.984375 
Q 39.453125 64.84375 41.59375 60.546875 
Q 43.75 56.25 43.15625 50.1875 
Q 42.578125 44.140625 37.109375 35.734375 
Q 31.640625 27.34375 16.015625 9.375 
L 44.140625 9.375 
L 44.140625 2.34375 
L 4.6875 2.34375 
z
" id="SimHei-32"/>
     </defs>
     <g transform="translate(310.096382 264.735082)scale(0.15 -0.15)">
      <use xlink:href="#SimHei-32"/>
     </g>
    </g>
   </g>
   <g id="xtick_3">
    <g id="line2d_4">
     <path d="M 284.314682 244.693335 
L 287.281886 245.989527 
" style="fill:none;stroke:#000000;stroke-linecap:square;stroke-width:0.8;"/>
    </g>
    <g id="text_4">
     <!-- 4 -->
     <defs>
      <path d="M 31.25 17.1875 
L 1.171875 17.1875 
L 1.171875 23.828125 
L 32.8125 69.53125 
L 38.671875 69.53125 
L 38.671875 23.828125 
L 48.046875 23.828125 
L 48.046875 17.1875 
L 38.671875 17.1875 
L 38.671875 2.34375 
L 31.25 2.34375 
z
M 31.25 23.828125 
L 31.25 54.6875 
L 9.375 23.828125 
z
" id="SimHei-34"/>
     </defs>
     <g transform="translate(289.777342 269.439513)scale(0.15 -0.15)">
      <use xlink:href="#SimHei-34"/>
     </g>
    </g>
   </g>
   <g id="xtick_4">
    <g id="line2d_5">
     <path d="M 263.721492 249.344577 
L 266.668935 250.659107 
" style="fill:none;stroke:#000000;stroke-linecap:square;stroke-width:0.8;"/>
    </g>
    <g id="text_5">
     <!-- 6 -->
     <defs>
      <path d="M 3.515625 19.53125 
Q 4.296875 30.859375 6.046875 34.765625 
Q 7.8125 38.671875 11.328125 44.53125 
L 27.34375 69.53125 
L 36.328125 69.53125 
L 19.921875 43.75 
Q 30.46875 46.484375 36.71875 42.96875 
Q 42.96875 39.453125 45.109375 34.953125 
Q 47.265625 30.46875 47.453125 25.1875 
Q 47.65625 19.921875 45.890625 14.84375 
Q 44.140625 9.765625 39.640625 5.65625 
Q 35.15625 1.5625 27.140625 1.171875 
Q 19.140625 0.78125 13.46875 4.09375 
Q 7.8125 7.421875 5.65625 13.46875 
Q 3.515625 19.53125 4.296875 30.859375 
z
M 12.5 16.015625 
Q 19.53125 8.59375 25.390625 8.203125 
Q 31.25 7.8125 35.15625 12.109375 
Q 39.0625 16.40625 39.0625 24.609375 
Q 39.0625 32.8125 34.171875 35.9375 
Q 29.296875 39.0625 23.234375 38.28125 
Q 17.1875 37.5 14.453125 32.421875 
Q 11.71875 27.34375 12.109375 21.671875 
Q 12.5 16.015625 19.53125 8.59375 
z
" id="SimHei-36"/>
     </defs>
     <g transform="translate(269.171041 274.210454)scale(0.15 -0.15)">
      <use xlink:href="#SimHei-36"/>
     </g>
    </g>
   </g>
   <g id="xtick_5">
    <g id="line2d_6">
     <path d="M 242.83621 254.061792 
L 245.763028 255.395052 
" style="fill:none;stroke:#000000;stroke-linecap:square;stroke-width:0.8;"/>
    </g>
    <g id="text_6">
     <!-- 8 -->
     <defs>
      <path d="M 2.734375 16.796875 
Q 2.734375 26.171875 5.078125 30.65625 
Q 7.421875 35.15625 12.890625 37.890625 
Q 8.203125 40.625 6.640625 43.9375 
Q 5.078125 47.265625 4.875 51.5625 
Q 4.6875 55.859375 6.046875 58.984375 
Q 7.421875 62.109375 10.15625 64.84375 
Q 12.890625 67.578125 16.203125 68.546875 
Q 19.53125 69.53125 23.4375 69.53125 
Q 27.34375 69.53125 30.46875 68.75 
Q 33.59375 67.96875 37.109375 65.421875 
Q 40.625 62.890625 42.1875 58.203125 
Q 43.75 53.515625 41.984375 47.265625 
Q 40.234375 41.015625 32.8125 37.5 
Q 39.453125 35.546875 42.1875 31.4375 
Q 44.921875 27.34375 44.921875 21.484375 
Q 44.921875 15.625 43.15625 12.109375 
Q 41.40625 8.59375 39.25 6.25 
Q 37.109375 3.90625 33.390625 2.53125 
Q 29.6875 1.171875 24.015625 1.171875 
Q 18.359375 1.171875 14.25 2.53125 
Q 10.15625 3.90625 7.421875 6.640625 
Q 4.6875 9.375 3.703125 13.078125 
Q 2.734375 16.796875 2.734375 26.171875 
z
M 10.9375 26.5625 
Q 10.546875 17.1875 12.296875 13.671875 
Q 14.0625 10.15625 18.75 9.171875 
Q 23.4375 8.203125 28.515625 9.375 
Q 33.59375 10.546875 35.546875 14.84375 
Q 37.5 19.140625 36.90625 23.4375 
Q 36.328125 27.734375 32.03125 30.65625 
Q 27.734375 33.59375 22.65625 33.203125 
Q 17.578125 32.8125 14.25 29.6875 
Q 10.9375 26.5625 10.546875 17.1875 
z
M 12.109375 56.25 
Q 12.109375 48.4375 14.84375 44.921875 
Q 17.578125 41.40625 23.4375 41.40625 
Q 29.296875 41.40625 32.21875 44.921875 
Q 35.15625 48.4375 34.953125 53.3125 
Q 34.765625 58.203125 31.4375 60.546875 
Q 28.125 62.890625 22.453125 62.5 
Q 16.796875 62.109375 14.453125 59.171875 
Q 12.109375 56.25 12.109375 48.4375 
z
" id="SimHei-38"/>
     </defs>
     <g transform="translate(248.271344 279.049324)scale(0.15 -0.15)">
      <use xlink:href="#SimHei-38"/>
     </g>
    </g>
   </g>
   <g id="xtick_6">
    <g id="line2d_7">
     <path d="M 221.652577 258.846394 
L 224.557878 260.198787 
" style="fill:none;stroke:#000000;stroke-linecap:square;stroke-width:0.8;"/>
    </g>
    <g id="text_7">
     <!-- 10 -->
     <defs>
      <path d="M 21.875 56.25 
Q 16.796875 51.171875 8.984375 46.484375 
L 8.984375 53.90625 
Q 18.75 60.546875 25 69.53125 
L 29.6875 69.53125 
L 29.6875 2.34375 
L 21.875 2.34375 
z
" id="SimHei-31"/>
     </defs>
     <g transform="translate(223.321939 283.957585)scale(0.15 -0.15)">
      <use xlink:href="#SimHei-31"/>
      <use x="50" xlink:href="#SimHei-30"/>
     </g>
    </g>
   </g>
   <g id="xtick_7">
    <g id="line2d_8">
     <path d="M 200.164153 263.699837 
L 203.047012 265.071778 
" style="fill:none;stroke:#000000;stroke-linecap:square;stroke-width:0.8;"/>
    </g>
    <g id="text_8">
     <!-- 12 -->
     <g transform="translate(201.816333 288.936741)scale(0.15 -0.15)">
      <use xlink:href="#SimHei-31"/>
      <use x="50" xlink:href="#SimHei-32"/>
     </g>
    </g>
   </g>
   <g id="xtick_8">
    <g id="line2d_9">
     <path d="M 178.364314 268.623617 
L 181.22377 270.015533 
" style="fill:none;stroke:#000000;stroke-linecap:square;stroke-width:0.8;"/>
    </g>
    <g id="text_9">
     <!-- 14 -->
     <g transform="translate(179.997844 293.988337)scale(0.15 -0.15)">
      <use xlink:href="#SimHei-31"/>
      <use x="50" xlink:href="#SimHei-34"/>
     </g>
    </g>
   </g>
  </g>
  <g id="axis3d_2">
   <g id="line2d_10">
    <path d="M 58.794045 217.8137 
L 168.062833 271.631196 
" style="fill:none;stroke:#000000;stroke-linecap:square;stroke-width:0.8;"/>
   </g>
   <g id="text_10">
    <!-- coins of 胖虎 -->
    <defs>
     <path d="M 21.484375 1.953125 
Q 25.78125 1.5625 28.515625 1.75 
Q 31.25 1.953125 31.640625 7.03125 
L 31.640625 26.171875 
L 18.359375 26.171875 
Q 16.796875 14.453125 14.453125 5.859375 
Q 12.109375 -2.734375 10.15625 -7.03125 
Q 6.640625 -3.90625 3.125 -2.734375 
Q 6.640625 2.734375 8.78125 10.34375 
Q 10.9375 17.96875 11.71875 30.859375 
L 11.71875 64.453125 
Q 11.71875 71.09375 11.328125 76.953125 
L 38.671875 76.953125 
Q 38.28125 69.140625 38.28125 61.328125 
L 38.28125 1.953125 
Q 38.28125 -6.25 23.4375 -7.03125 
Q 23.046875 -3.125 21.484375 1.953125 
z
M 64.453125 45.3125 
L 64.453125 69.140625 
Q 64.453125 73.828125 63.671875 79.296875 
L 72.265625 79.296875 
Q 71.875 74.21875 71.875 69.140625 
L 71.875 45.3125 
L 82.421875 45.3125 
Q 85.9375 45.3125 91.796875 45.703125 
L 91.796875 38.671875 
Q 88.28125 39.0625 82.421875 39.0625 
L 71.875 39.0625 
L 71.875 23.4375 
L 84.765625 23.4375 
Q 91.015625 23.4375 96.09375 23.828125 
L 96.09375 16.796875 
Q 90.234375 17.1875 84.765625 17.1875 
L 71.875 17.1875 
L 71.875 3.90625 
Q 71.875 -2.34375 72.265625 -8.984375 
L 64.0625 -8.984375 
Q 64.453125 -2.734375 64.453125 3.90625 
L 64.453125 17.1875 
L 53.90625 17.1875 
Q 48.4375 17.1875 42.578125 16.796875 
L 42.578125 23.828125 
Q 48.046875 23.4375 54.296875 23.4375 
L 64.453125 23.4375 
L 64.453125 39.0625 
L 53.90625 39.0625 
Q 48.4375 39.0625 43.359375 38.671875 
L 43.359375 45.703125 
Q 48.4375 45.3125 53.515625 45.3125 
z
M 31.640625 32.8125 
L 31.640625 48.828125 
L 18.75 48.828125 
L 18.75 32.8125 
z
M 31.640625 55.078125 
L 31.640625 70.703125 
L 18.75 70.703125 
L 18.75 55.078125 
z
M 51.5625 51.953125 
Q 50 58.984375 44.921875 71.09375 
L 51.171875 74.21875 
Q 55.859375 63.28125 58.59375 54.6875 
Q 54.296875 53.515625 51.5625 51.953125 
z
M 77.34375 53.90625 
Q 83.984375 67.96875 84.765625 73.4375 
Q 88.671875 71.875 92.578125 70.703125 
Q 90.625 67.96875 88.671875 62.890625 
Q 86.71875 57.8125 84.375 51.953125 
Q 80.859375 53.90625 77.34375 53.90625 
z
" id="SimHei-80d6"/>
     <path d="M 25.78125 45.703125 
Q 33.203125 46.09375 44.140625 46.875 
L 44.140625 56.640625 
L 20.703125 56.640625 
Q 20.703125 31.640625 20.109375 23.4375 
Q 19.53125 15.234375 17.578125 8 
Q 15.625 0.78125 10.9375 -7.8125 
Q 7.8125 -5.46875 3.125 -3.90625 
Q 7.03125 0.78125 9.171875 6.828125 
Q 11.328125 12.890625 12.109375 18.75 
Q 12.890625 24.609375 13.078125 30.265625 
Q 13.28125 35.9375 13.28125 42.96875 
Q 13.28125 50.390625 12.890625 62.5 
L 44.140625 62.5 
L 44.140625 74.609375 
Q 44.140625 77.34375 43.359375 82.421875 
L 51.953125 82.421875 
Q 51.5625 78.515625 51.5625 75.390625 
L 71.09375 75.390625 
Q 76.171875 75.390625 84.765625 76.171875 
L 84.765625 69.53125 
Q 76.171875 69.921875 70.703125 69.921875 
L 51.171875 69.921875 
L 51.171875 62.5 
L 93.75 62.5 
Q 92.1875 57.8125 89.84375 46.875 
Q 85.15625 48.046875 82.03125 48.4375 
Q 83.984375 52.734375 85.15625 56.640625 
L 51.171875 56.640625 
L 51.171875 47.65625 
Q 65.234375 49.21875 74.21875 50.78125 
L 75 44.140625 
Q 64.0625 42.96875 51.171875 41.40625 
L 51.171875 36.71875 
Q 51.171875 33.203125 57.421875 33.203125 
L 70.3125 33.203125 
Q 75 32.8125 76.359375 34.5625 
Q 77.734375 36.328125 78.515625 41.015625 
Q 81.640625 39.0625 86.71875 37.109375 
Q 84.765625 30.859375 82.03125 29.09375 
Q 79.296875 27.34375 73.828125 27.34375 
L 54.296875 27.34375 
Q 44.140625 27.34375 44.140625 33.59375 
L 44.140625 41.015625 
Q 36.328125 40.234375 27.34375 39.0625 
Q 26.5625 42.578125 25.78125 45.703125 
z
M 71.09375 22.265625 
Q 70.703125 16.796875 70.703125 10.9375 
L 70.703125 2.34375 
Q 70.703125 -1.953125 75 -1.953125 
L 81.25 -1.953125 
Q 85.9375 -1.953125 86.71875 0.78125 
Q 87.5 3.515625 87.5 7.421875 
Q 91.40625 5.078125 96.09375 4.296875 
Q 93.359375 -3.90625 91.59375 -5.859375 
Q 89.84375 -7.8125 85.15625 -7.8125 
L 72.65625 -7.8125 
Q 63.671875 -7.8125 63.671875 -1.171875 
L 63.671875 16.40625 
L 45.3125 16.40625 
Q 45.3125 4.6875 41.203125 -0.578125 
Q 37.109375 -5.859375 26.171875 -10.546875 
Q 25 -6.640625 21.484375 -3.515625 
Q 35.9375 0.78125 37.109375 7.421875 
Q 38.28125 14.0625 37.890625 22.265625 
L 71.09375 22.265625 
z
" id="SimHei-864e"/>
    </defs>
    <g style="fill:#800080;" transform="translate(49.092792 257.912399)rotate(-333.778649)scale(0.12 -0.12)">
     <use xlink:href="#SimHei-63"/>
     <use x="50" xlink:href="#SimHei-6f"/>
     <use x="100" xlink:href="#SimHei-69"/>
     <use x="150" xlink:href="#SimHei-6e"/>
     <use x="200" xlink:href="#SimHei-73"/>
     <use x="250" xlink:href="#SimHei-20"/>
     <use x="300" xlink:href="#SimHei-6f"/>
     <use x="350" xlink:href="#SimHei-66"/>
     <use x="400" xlink:href="#SimHei-20"/>
     <use x="450" xlink:href="#SimHei-80d6"/>
     <use x="550" xlink:href="#SimHei-864e"/>
    </g>
   </g>
   <g id="Line3DCollection_2">
    <path d="M 227.548604 43.791556 
L 226.494241 188.318329 
L 65.235235 220.98614 
" style="fill:none;stroke:#b0b0b0;stroke-width:0.8;"/>
    <path d="M 241.688876 48.257402 
L 240.154088 193.993191 
L 78.043534 227.294534 
" style="fill:none;stroke:#b0b0b0;stroke-width:0.8;"/>
    <path d="M 256.106644 52.810887 
L 254.072998 199.775679 
L 91.108144 233.729167 
" style="fill:none;stroke:#b0b0b0;stroke-width:0.8;"/>
    <path d="M 270.810156 57.454617 
L 268.25841 205.668883 
L 104.436836 240.293868 
" style="fill:none;stroke:#b0b0b0;stroke-width:0.8;"/>
    <path d="M 285.807992 62.191302 
L 282.718053 211.676014 
L 118.0377 246.992619 
" style="fill:none;stroke:#b0b0b0;stroke-width:0.8;"/>
    <path d="M 301.10908 67.023762 
L 297.459956 217.800407 
L 131.919157 253.829569 
" style="fill:none;stroke:#b0b0b0;stroke-width:0.8;"/>
    <path d="M 316.722709 71.95493 
L 312.492466 224.045531 
L 146.089982 260.80904 
" style="fill:none;stroke:#b0b0b0;stroke-width:0.8;"/>
    <path d="M 332.658556 76.987861 
L 327.824262 230.41499 
L 160.559317 267.935534 
" style="fill:none;stroke:#b0b0b0;stroke-width:0.8;"/>
   </g>
   <g id="xtick_9">
    <g id="line2d_11">
     <path d="M 66.594479 220.710784 
L 62.513215 221.537566 
" style="fill:none;stroke:#000000;stroke-linecap:square;stroke-width:0.8;"/>
    </g>
    <g id="text_11">
     <!-- 0 -->
     <g transform="translate(50.195232 243.623733)scale(0.15 -0.15)">
      <use xlink:href="#SimHei-30"/>
     </g>
    </g>
   </g>
   <g id="xtick_10">
    <g id="line2d_12">
     <path d="M 79.410645 227.013697 
L 75.305726 227.856945 
" style="fill:none;stroke:#000000;stroke-linecap:square;stroke-width:0.8;"/>
    </g>
    <g id="text_12">
     <!-- 2 -->
     <g transform="translate(62.908596 250.062791)scale(0.15 -0.15)">
      <use xlink:href="#SimHei-32"/>
     </g>
    </g>
   </g>
   <g id="xtick_11">
    <g id="line2d_13">
     <path d="M 92.483165 233.442684 
L 88.354458 234.302894 
" style="fill:none;stroke:#000000;stroke-linecap:square;stroke-width:0.8;"/>
    </g>
    <g id="text_13">
     <!-- 4 -->
     <g transform="translate(75.876714 256.630876)scale(0.15 -0.15)">
      <use xlink:href="#SimHei-34"/>
     </g>
    </g>
   </g>
   <g id="xtick_12">
    <g id="line2d_14">
     <path d="M 105.81981 240.001565 
L 101.667187 240.879255 
" style="fill:none;stroke:#000000;stroke-linecap:square;stroke-width:0.8;"/>
    </g>
    <g id="text_14">
     <!-- 6 -->
     <g transform="translate(89.10732 263.331906)scale(0.15 -0.15)">
      <use xlink:href="#SimHei-36"/>
     </g>
    </g>
   </g>
   <g id="xtick_13">
    <g id="line2d_15">
     <path d="M 119.428666 246.694319 
L 115.252006 247.590026 
" style="fill:none;stroke:#000000;stroke-linecap:square;stroke-width:0.8;"/>
    </g>
    <g id="text_15">
     <!-- 8 -->
     <g transform="translate(102.608465 270.169958)scale(0.15 -0.15)">
      <use xlink:href="#SimHei-38"/>
     </g>
    </g>
   </g>
   <g id="xtick_14">
    <g id="line2d_16">
     <path d="M 133.318153 253.525084 
L 129.117343 254.439371 
" style="fill:none;stroke:#000000;stroke-linecap:square;stroke-width:0.8;"/>
    </g>
    <g id="text_16">
     <!-- 10 -->
     <g transform="translate(112.638533 277.14928)scale(0.15 -0.15)">
      <use xlink:href="#SimHei-31"/>
      <use x="50" xlink:href="#SimHei-30"/>
     </g>
    </g>
   </g>
   <g id="xtick_15">
    <g id="line2d_17">
     <path d="M 147.497042 260.498176 
L 143.271977 261.431625 
" style="fill:none;stroke:#000000;stroke-linecap:square;stroke-width:0.8;"/>
    </g>
    <g id="text_17">
     <!-- 12 -->
     <g transform="translate(126.706257 284.274293)scale(0.15 -0.15)">
      <use xlink:href="#SimHei-31"/>
      <use x="50" xlink:href="#SimHei-32"/>
     </g>
    </g>
   </g>
   <g id="xtick_16">
    <g id="line2d_18">
     <path d="M 161.974472 267.618089 
L 157.725058 268.57131 
" style="fill:none;stroke:#000000;stroke-linecap:square;stroke-width:0.8;"/>
    </g>
    <g id="text_18">
     <!-- 14 -->
     <g transform="translate(141.07074 291.549608)scale(0.15 -0.15)">
      <use xlink:href="#SimHei-31"/>
      <use x="50" xlink:href="#SimHei-34"/>
     </g>
    </g>
   </g>
  </g>
  <g id="axis3d_3">
   <g id="line2d_19">
    <path d="M 58.794045 217.8137 
L 53.895826 67.034254 
" style="fill:none;stroke:#000000;stroke-linecap:square;stroke-width:0.8;"/>
   </g>
   <g id="text_19">
    <!-- coins of 静香 -->
    <defs>
     <path d="M 67.578125 78.90625 
Q 65.625 76.5625 64.640625 74.40625 
Q 63.671875 72.265625 62.890625 70.3125 
L 84.375 70.3125 
Q 82.03125 66.796875 80.078125 62.296875 
Q 78.125 57.8125 75.78125 52.734375 
L 90.234375 52.734375 
Q 89.84375 47.265625 89.84375 41.015625 
L 89.84375 36.71875 
Q 93.359375 36.71875 96.875 37.109375 
L 96.875 30.46875 
Q 94.140625 30.859375 89.84375 30.859375 
L 89.84375 25.390625 
Q 89.84375 17.578125 90.234375 10.546875 
L 83.203125 10.546875 
L 83.203125 14.84375 
L 72.265625 14.84375 
L 72.265625 0.390625 
Q 71.875 -4.6875 68.9375 -6.640625 
Q 66.015625 -8.59375 56.25 -9.375 
Q 56.25 -5.46875 53.90625 -1.171875 
Q 58.984375 -1.5625 62.296875 -1.171875 
Q 65.625 -0.78125 65.625 2.734375 
L 65.625 14.84375 
L 60.15625 14.84375 
Q 55.46875 14.84375 50.390625 14.453125 
L 50.390625 20.703125 
Q 55.078125 20.3125 60.15625 20.3125 
L 65.625 20.3125 
L 65.625 30.859375 
L 59.765625 30.859375 
Q 54.6875 30.859375 48.046875 30.46875 
L 48.046875 36.71875 
Q 53.515625 36.328125 60.15625 36.328125 
L 65.625 36.328125 
L 65.625 47.265625 
L 60.15625 47.265625 
Q 57.8125 47.265625 51.953125 46.875 
L 51.953125 51.953125 
Q 50.78125 50.78125 48.828125 48.4375 
Q 46.875 51.5625 44.140625 53.90625 
Q 50.390625 60.15625 53.703125 68.15625 
Q 57.03125 76.171875 58.984375 82.03125 
Q 62.890625 80.078125 67.578125 78.90625 
z
M 42.96875 36.328125 
Q 42.578125 30.859375 42.578125 25 
L 42.578125 1.171875 
Q 42.578125 -4.6875 39.453125 -6.25 
Q 36.328125 -7.8125 30.078125 -8.984375 
Q 29.6875 -5.46875 27.34375 -1.5625 
Q 36.328125 -1.5625 35.546875 1.953125 
L 35.546875 6.640625 
L 15.234375 6.640625 
L 15.234375 -8.203125 
L 8.203125 -8.203125 
Q 8.59375 -3.90625 8.59375 1.953125 
L 8.59375 25 
Q 8.59375 30.859375 8.203125 36.328125 
L 42.96875 36.328125 
z
M 21.875 71.09375 
Q 21.875 74.609375 21.484375 80.46875 
L 29.296875 80.46875 
Q 28.90625 74.609375 28.90625 71.09375 
L 33.984375 71.09375 
Q 39.453125 71.09375 46.875 71.484375 
L 46.875 65.234375 
Q 39.453125 65.625 33.984375 65.625 
L 28.90625 65.625 
L 28.90625 59.375 
L 33.984375 59.375 
Q 36.328125 59.375 42.578125 59.765625 
L 42.578125 53.515625 
Q 35.9375 53.90625 33.59375 53.90625 
L 28.90625 53.90625 
L 28.90625 47.65625 
L 35.15625 47.65625 
Q 40.625 47.65625 46.484375 48.046875 
L 46.484375 41.796875 
Q 40.234375 42.1875 35.15625 42.1875 
L 15.625 42.1875 
Q 9.375 42.1875 3.90625 41.796875 
L 3.90625 48.046875 
Q 9.375 47.65625 15.625 47.65625 
L 21.875 47.65625 
L 21.875 53.90625 
L 15.234375 53.90625 
Q 12.890625 53.90625 8.59375 53.515625 
L 8.59375 59.765625 
Q 12.890625 59.375 15.234375 59.375 
L 21.875 59.375 
L 21.875 65.625 
L 15.234375 65.625 
Q 10.15625 65.625 4.6875 65.234375 
L 4.6875 71.484375 
Q 10.15625 71.09375 15.234375 71.09375 
z
M 52.734375 53.515625 
Q 57.421875 53.125 64.453125 53.125 
L 68.359375 53.125 
Q 72.265625 61.328125 73.4375 64.84375 
L 60.15625 64.84375 
Q 55.078125 56.640625 52.734375 53.515625 
z
M 35.546875 12.109375 
L 35.546875 19.140625 
L 15.234375 19.140625 
L 15.234375 12.109375 
z
M 35.546875 24.609375 
L 35.546875 30.859375 
L 15.234375 30.859375 
L 15.234375 24.609375 
z
M 83.203125 36.328125 
L 83.203125 47.265625 
L 72.265625 47.265625 
L 72.265625 36.328125 
z
M 83.203125 20.3125 
L 83.203125 30.859375 
L 72.265625 30.859375 
L 72.265625 20.3125 
z
" id="SimHei-9759"/>
     <path d="M 45.703125 33.59375 
L 45.703125 53.90625 
Q 36.71875 44.140625 26.359375 38.28125 
Q 16.015625 32.421875 10.546875 30.078125 
Q 10.546875 33.203125 5.46875 36.71875 
Q 16.015625 39.453125 24.21875 44.53125 
Q 32.421875 49.609375 37.109375 54.296875 
L 21.484375 54.296875 
Q 14.84375 54.296875 7.8125 53.90625 
L 7.8125 60.15625 
Q 14.84375 59.765625 21.484375 59.765625 
L 45.703125 59.765625 
L 45.703125 69.921875 
Q 38.28125 69.140625 17.96875 67.578125 
Q 16.796875 71.09375 14.453125 74.609375 
Q 32.8125 74.609375 50.390625 76.953125 
Q 67.96875 79.296875 74.609375 82.03125 
Q 76.953125 78.125 81.25 73.828125 
Q 74.609375 73.4375 67.96875 72.65625 
Q 61.328125 71.875 52.34375 70.703125 
L 52.34375 59.765625 
L 78.125 59.765625 
Q 83.984375 59.765625 91.40625 60.15625 
L 91.40625 53.90625 
Q 84.375 54.296875 78.125 54.296875 
L 61.71875 54.296875 
Q 66.40625 48.4375 74.21875 43.15625 
Q 82.03125 37.890625 94.140625 34.765625 
Q 89.84375 31.640625 88.28125 26.953125 
Q 82.421875 29.296875 77.34375 32.03125 
Q 76.5625 25 76.5625 12.5 
Q 76.5625 -0.78125 76.953125 -8.984375 
L 69.53125 -8.984375 
L 69.53125 -3.125 
L 28.515625 -3.125 
L 28.515625 -9.375 
L 21.875 -9.375 
L 21.875 11.71875 
Q 21.875 25 21.484375 33.59375 
z
M 69.53125 17.96875 
L 69.53125 27.734375 
L 28.515625 27.734375 
L 28.515625 17.96875 
z
M 69.53125 2.734375 
L 69.53125 12.5 
L 28.515625 12.5 
L 28.515625 2.734375 
z
M 71.484375 35.9375 
Q 62.109375 42.578125 52.734375 54.296875 
L 52.34375 54.296875 
L 52.34375 33.59375 
L 75 33.59375 
z
" id="SimHei-9999"/>
    </defs>
    <g style="fill:#800080;" transform="translate(10.565293 102.842551)rotate(-271.860655)scale(0.12 -0.12)">
     <use xlink:href="#SimHei-63"/>
     <use x="50" xlink:href="#SimHei-6f"/>
     <use x="100" xlink:href="#SimHei-69"/>
     <use x="150" xlink:href="#SimHei-6e"/>
     <use x="200" xlink:href="#SimHei-73"/>
     <use x="250" xlink:href="#SimHei-20"/>
     <use x="300" xlink:href="#SimHei-6f"/>
     <use x="350" xlink:href="#SimHei-66"/>
     <use x="400" xlink:href="#SimHei-20"/>
     <use x="450" xlink:href="#SimHei-9759"/>
     <use x="550" xlink:href="#SimHei-9999"/>
    </g>
   </g>
   <g id="Line3DCollection_3">
    <path d="M 58.492454 208.529967 
L 219.669895 176.585888 
L 336.085066 224.233899 
" style="fill:none;stroke:#b0b0b0;stroke-width:0.8;"/>
    <path d="M 57.897709 190.222231 
L 219.769111 159.08724 
L 336.710174 205.533478 
" style="fill:none;stroke:#b0b0b0;stroke-width:0.8;"/>
    <path d="M 57.297781 171.754931 
L 219.869148 141.443949 
L 337.340869 186.665935 
" style="fill:none;stroke:#b0b0b0;stroke-width:0.8;"/>
    <path d="M 56.692601 153.125973 
L 219.970014 123.654212 
L 337.977226 167.629019 
" style="fill:none;stroke:#b0b0b0;stroke-width:0.8;"/>
    <path d="M 56.0821 134.333224 
L 220.071722 105.716199 
L 338.619321 148.42044 
" style="fill:none;stroke:#b0b0b0;stroke-width:0.8;"/>
    <path d="M 55.466207 115.374514 
L 220.17428 87.628049 
L 339.267233 129.037865 
" style="fill:none;stroke:#b0b0b0;stroke-width:0.8;"/>
    <path d="M 54.844852 96.247636 
L 220.277701 69.387869 
L 339.92104 109.478918 
" style="fill:none;stroke:#b0b0b0;stroke-width:0.8;"/>
    <path d="M 54.21796 76.950341 
L 220.381995 50.993734 
L 340.580823 89.741182 
" style="fill:none;stroke:#b0b0b0;stroke-width:0.8;"/>
   </g>
   <g id="xtick_17">
    <g id="line2d_20">
     <path d="M 59.850818 208.26075 
L 55.772207 209.069099 
" style="fill:none;stroke:#000000;stroke-linecap:square;stroke-width:0.8;"/>
    </g>
    <g id="text_20">
     <!-- 0 -->
     <g transform="translate(36.319991 217.800274)scale(0.15 -0.15)">
      <use xlink:href="#SimHei-30"/>
     </g>
    </g>
   </g>
   <g id="xtick_18">
    <g id="line2d_21">
     <path d="M 59.262222 189.959775 
L 55.165133 190.747826 
" style="fill:none;stroke:#000000;stroke-linecap:square;stroke-width:0.8;"/>
    </g>
    <g id="text_21">
     <!-- 2 -->
     <g transform="translate(35.646444 199.518717)scale(0.15 -0.15)">
      <use xlink:href="#SimHei-32"/>
     </g>
    </g>
   </g>
   <g id="xtick_19">
    <g id="line2d_22">
     <path d="M 58.668498 171.499365 
L 54.552763 172.266732 
" style="fill:none;stroke:#000000;stroke-linecap:square;stroke-width:0.8;"/>
    </g>
    <g id="text_22">
     <!-- 4 -->
     <g transform="translate(34.967036 181.078092)scale(0.15 -0.15)">
      <use xlink:href="#SimHei-34"/>
     </g>
    </g>
   </g>
   <g id="xtick_20">
    <g id="line2d_23">
     <path d="M 58.069579 152.877427 
L 53.935029 153.623718 
" style="fill:none;stroke:#000000;stroke-linecap:square;stroke-width:0.8;"/>
    </g>
    <g id="text_23">
     <!-- 6 -->
     <g transform="translate(34.281691 162.476316)scale(0.15 -0.15)">
      <use xlink:href="#SimHei-36"/>
     </g>
    </g>
   </g>
   <g id="xtick_21">
    <g id="line2d_24">
     <path d="M 57.465397 134.091831 
L 53.311858 134.816645 
" style="fill:none;stroke:#000000;stroke-linecap:square;stroke-width:0.8;"/>
    </g>
    <g id="text_24">
     <!-- 8 -->
     <g transform="translate(33.590331 143.711265)scale(0.15 -0.15)">
      <use xlink:href="#SimHei-38"/>
     </g>
    </g>
   </g>
   <g id="xtick_22">
    <g id="line2d_25">
     <path d="M 56.855881 115.140412 
L 52.683179 115.843338 
" style="fill:none;stroke:#000000;stroke-linecap:square;stroke-width:0.8;"/>
    </g>
    <g id="text_25">
     <!-- 10 -->
     <g transform="translate(29.142875 124.780781)scale(0.15 -0.15)">
      <use xlink:href="#SimHei-31"/>
      <use x="50" xlink:href="#SimHei-30"/>
     </g>
    </g>
   </g>
   <g id="xtick_23">
    <g id="line2d_26">
     <path d="M 56.240962 96.020962 
L 52.048919 96.701585 
" style="fill:none;stroke:#000000;stroke-linecap:square;stroke-width:0.8;"/>
    </g>
    <g id="text_26">
     <!-- 12 -->
     <g transform="translate(28.439244 105.682667)scale(0.15 -0.15)">
      <use xlink:href="#SimHei-31"/>
      <use x="50" xlink:href="#SimHei-32"/>
     </g>
    </g>
   </g>
   <g id="xtick_24">
    <g id="line2d_27">
     <path d="M 55.620566 76.731239 
L 51.409002 77.389131 
" style="fill:none;stroke:#000000;stroke-linecap:square;stroke-width:0.8;"/>
    </g>
    <g id="text_27">
     <!-- 14 -->
     <g transform="translate(27.729354 86.414686)scale(0.15 -0.15)">
      <use xlink:href="#SimHei-31"/>
      <use x="50" xlink:href="#SimHei-34"/>
     </g>
    </g>
   </g>
  </g>
  <g id="axes_1">
   <g id="Path3DCollection_1">
    <defs>
     <path d="M 0 5 
C 1.326016 5 2.597899 4.473168 3.535534 3.535534 
C 4.473168 2.597899 5 1.326016 5 0 
C 5 -1.326016 4.473168 -2.597899 3.535534 -3.535534 
C 2.597899 -4.473168 1.326016 -5 0 -5 
C -1.326016 -5 -2.597899 -4.473168 -3.535534 -3.535534 
C -4.473168 -2.597899 -5 -1.326016 -5 0 
C -5 1.326016 -4.473168 2.597899 -3.535534 3.535534 
C -2.597899 4.473168 -1.326016 5 0 5 
z
" id="m7a29dfab9b" style="stroke:#008000;"/>
    </defs>
    <g clip-path="url(#p78dc7da4ec)">
     <use style="fill:#008000;stroke:#008000;" x="198.765822" xlink:href="#m7a29dfab9b" y="183.430551"/>
    </g>
   </g>
   <g id="Path3DCollection_2">
    <path clip-path="url(#p78dc7da4ec)" d="M 224.398551 57.645583 
C 224.531152 57.645583 224.658341 57.5929 224.752104 57.499136 
C 224.845868 57.405373 224.898551 57.278185 224.898551 57.145583 
C 224.898551 57.012981 224.845868 56.885793 224.752104 56.79203 
C 224.658341 56.698266 224.531152 56.645583 224.398551 56.645583 
C 224.265949 56.645583 224.138761 56.698266 224.044997 56.79203 
C 223.951234 56.885793 223.898551 57.012981 223.898551 57.145583 
C 223.898551 57.278185 223.951234 57.405373 224.044997 57.499136 
C 224.138761 57.5929 224.265949 57.645583 224.398551 57.645583 
z
" style="fill:#ff0000;stroke:#ff0000;"/>
    <path clip-path="url(#p78dc7da4ec)" d="M 231.385035 69.983633 
C 231.696013 69.983633 231.994296 69.86008 232.214191 69.640185 
C 232.434086 69.42029 232.557639 69.122007 232.557639 68.811029 
C 232.557639 68.500051 232.434086 68.201768 232.214191 67.981873 
C 231.994296 67.761978 231.696013 67.638425 231.385035 67.638425 
C 231.074057 67.638425 230.775773 67.761978 230.555879 67.981873 
C 230.335984 68.201768 230.212431 68.500051 230.212431 68.811029 
C 230.212431 69.122007 230.335984 69.42029 230.555879 69.640185 
C 230.775773 69.86008 231.074057 69.983633 231.385035 69.983633 
z
" style="fill:#ff0000;stroke:#ff0000;"/>
    <path clip-path="url(#p78dc7da4ec)" d="M 238.409492 81.764624 
C 238.734298 81.764624 239.045844 81.635577 239.275517 81.405904 
C 239.50519 81.176232 239.634236 80.864685 239.634236 80.539879 
C 239.634236 80.215073 239.50519 79.903526 239.275517 79.673853 
C 239.045844 79.444181 238.734298 79.315134 238.409492 79.315134 
C 238.084685 79.315134 237.773139 79.444181 237.543466 79.673853 
C 237.313794 79.903526 237.184747 80.215073 237.184747 80.539879 
C 237.184747 80.864685 237.313794 81.176232 237.543466 81.405904 
C 237.773139 81.635577 238.084685 81.764624 238.409492 81.764624 
z
" style="fill:#ff0000;stroke:#ff0000;"/>
    <path clip-path="url(#p78dc7da4ec)" d="M 245.472232 94.424301 
C 246.026944 94.424301 246.559011 94.203912 246.951252 93.811671 
C 247.343492 93.41943 247.563882 92.887363 247.563882 92.332651 
C 247.563882 91.777939 247.343492 91.245872 246.951252 90.853631 
C 246.559011 90.46139 246.026944 90.241001 245.472232 90.241001 
C 244.91752 90.241001 244.385452 90.46139 243.993212 90.853631 
C 243.600971 91.245872 243.380582 91.777939 243.380582 92.332651 
C 243.380582 92.887363 243.600971 93.41943 243.993212 93.811671 
C 244.385452 94.203912 244.91752 94.424301 245.472232 94.424301 
z
" style="fill:#ff0000;stroke:#ff0000;"/>
    <path clip-path="url(#p78dc7da4ec)" d="M 252.573569 106.587785 
C 253.209503 106.587785 253.819477 106.335125 254.269151 105.885452 
C 254.718825 105.435778 254.971484 104.825804 254.971484 104.189869 
C 254.971484 103.553934 254.718825 102.94396 254.269151 102.494287 
C 253.819477 102.044613 253.209503 101.791953 252.573569 101.791953 
C 251.937634 101.791953 251.32766 102.044613 250.877986 102.494287 
C 250.428312 102.94396 250.175653 103.553934 250.175653 104.189869 
C 250.175653 104.825804 250.428312 105.435778 250.877986 105.885452 
C 251.32766 106.335125 251.937634 106.587785 252.573569 106.587785 
z
" style="fill:#ff0000;stroke:#ff0000;"/>
    <path clip-path="url(#p78dc7da4ec)" d="M 259.71382 119.006022 
C 260.481307 119.006022 261.217463 118.701097 261.760158 118.158401 
C 262.302854 117.615706 262.607779 116.87955 262.607779 116.112063 
C 262.607779 115.344576 262.302854 114.60842 261.760158 114.065725 
C 261.217463 113.52303 260.481307 113.218104 259.71382 113.218104 
C 258.946333 113.218104 258.210177 113.52303 257.667482 114.065725 
C 257.124787 114.60842 256.819861 115.344576 256.819861 116.112063 
C 256.819861 116.87955 257.124787 117.615706 257.667482 118.158401 
C 258.210177 118.701097 258.946333 119.006022 259.71382 119.006022 
z
" style="fill:#ff0000;stroke:#ff0000;"/>
    <path clip-path="url(#p78dc7da4ec)" d="M 266.893307 131.416394 
C 267.772886 131.416394 268.616558 131.066933 269.238515 130.444977 
C 269.860471 129.82302 270.209932 128.979348 270.209932 128.099769 
C 270.209932 127.22019 269.860471 126.376517 269.238515 125.754561 
C 268.616558 125.132604 267.772886 124.783144 266.893307 124.783144 
C 266.013728 124.783144 265.170055 125.132604 264.548099 125.754561 
C 263.926142 126.376517 263.576682 127.22019 263.576682 128.099769 
C 263.576682 128.979348 263.926142 129.82302 264.548099 130.444977 
C 265.170055 131.066933 266.013728 131.416394 266.893307 131.416394 
z
" style="fill:#ff0000;stroke:#ff0000;"/>
    <path clip-path="url(#p78dc7da4ec)" d="M 274.112353 143.599539 
C 275.026246 143.599539 275.902831 143.236446 276.549051 142.590226 
C 277.195271 141.944006 277.558365 141.06742 277.558365 140.153527 
C 277.558365 139.239634 277.195271 138.363049 276.549051 137.716829 
C 275.902831 137.070609 275.026246 136.707515 274.112353 136.707515 
C 273.19846 136.707515 272.321874 137.070609 271.675654 137.716829 
C 271.029434 138.363049 270.66634 139.239634 270.66634 140.153527 
C 270.66634 141.06742 271.029434 141.944006 271.675654 142.590226 
C 272.321874 143.236446 273.19846 143.599539 274.112353 143.599539 
z
" style="fill:#ff0000;stroke:#ff0000;"/>
    <path clip-path="url(#p78dc7da4ec)" d="M 281.371286 155.701713 
C 282.280356 155.701713 283.152316 155.340536 283.795126 154.697726 
C 284.437936 154.054916 284.799113 153.182956 284.799113 152.273886 
C 284.799113 151.364816 284.437936 150.492856 283.795126 149.850046 
C 283.152316 149.207236 282.280356 148.846059 281.371286 148.846059 
C 280.462215 148.846059 279.590256 149.207236 278.947446 149.850046 
C 278.304636 150.492856 277.943459 151.364816 277.943459 152.273886 
C 277.943459 153.182956 278.304636 154.054916 278.947446 154.697726 
C 279.590256 155.340536 280.462215 155.701713 281.371286 155.701713 
z
" style="fill:#ff0000;stroke:#ff0000;"/>
    <path clip-path="url(#p78dc7da4ec)" d="M 288.670438 167.834083 
C 289.564884 167.834083 290.422817 167.478716 291.055286 166.846247 
C 291.687755 166.213778 292.043122 165.355845 292.043122 164.461399 
C 292.043122 163.566952 291.687755 162.70902 291.055286 162.076551 
C 290.422817 161.444082 289.564884 161.088714 288.670438 161.088714 
C 287.775991 161.088714 286.918059 161.444082 286.28559 162.076551 
C 285.653121 162.70902 285.297753 163.566952 285.297753 164.461399 
C 285.297753 165.355845 285.653121 166.213778 286.28559 166.846247 
C 286.918059 167.478716 287.775991 167.834083 288.670438 167.834083 
z
" style="fill:#ff0000;stroke:#ff0000;"/>
    <path clip-path="url(#p78dc7da4ec)" d="M 296.010143 179.500507 
C 296.748438 179.500507 297.456593 179.20718 297.978645 178.685127 
C 298.500698 178.163074 298.794026 177.454919 298.794026 176.716625 
C 298.794026 175.978331 298.500698 175.270176 297.978645 174.748123 
C 297.456593 174.22607 296.748438 173.932743 296.010143 173.932743 
C 295.271849 173.932743 294.563694 174.22607 294.041641 174.748123 
C 293.519589 175.270176 293.226261 175.978331 293.226261 176.716625 
C 293.226261 177.454919 293.519589 178.163074 294.041641 178.685127 
C 294.563694 179.20718 295.271849 179.500507 296.010143 179.500507 
z
" style="fill:#ff0000;stroke:#ff0000;"/>
    <path clip-path="url(#p78dc7da4ec)" d="M 303.390742 191.190712 
C 303.961083 191.190712 304.508141 190.964113 304.911433 190.560821 
C 305.314725 190.157529 305.541323 189.610471 305.541323 189.04013 
C 305.541323 188.46979 305.314725 187.922732 304.911433 187.51944 
C 304.508141 187.116148 303.961083 186.889549 303.390742 186.889549 
C 302.820401 186.889549 302.273343 187.116148 301.870051 187.51944 
C 301.46676 187.922732 301.240161 188.46979 301.240161 189.04013 
C 301.240161 189.610471 301.46676 190.157529 301.870051 190.560821 
C 302.273343 190.964113 302.820401 191.190712 303.390742 191.190712 
z
" style="fill:#ff0000;stroke:#ff0000;"/>
    <path clip-path="url(#p78dc7da4ec)" d="M 310.812576 202.973591 
C 311.221282 202.973591 311.613303 202.811211 311.902301 202.522212 
C 312.191299 202.233214 312.35368 201.841193 312.35368 201.432488 
C 312.35368 201.023782 312.191299 200.631761 311.902301 200.342763 
C 311.613303 200.053765 311.221282 199.891384 310.812576 199.891384 
C 310.403871 199.891384 310.01185 200.053765 309.722851 200.342763 
C 309.433853 200.631761 309.271473 201.023782 309.271473 201.432488 
C 309.271473 201.841193 309.433853 202.233214 309.722851 202.522212 
C 310.01185 202.811211 310.403871 202.973591 310.812576 202.973591 
z
" style="fill:#ff0000;stroke:#ff0000;"/>
    <path clip-path="url(#p78dc7da4ec)" d="M 318.275992 214.601382 
C 318.463519 214.601382 318.643391 214.526877 318.775992 214.394275 
C 318.908594 214.261674 318.983099 214.081802 318.983099 213.894275 
C 318.983099 213.706748 318.908594 213.526877 318.775992 213.394275 
C 318.643391 213.261674 318.463519 213.187168 318.275992 213.187168 
C 318.088465 213.187168 317.908594 213.261674 317.775992 213.394275 
C 317.643391 213.526877 317.568886 213.706748 317.568886 213.894275 
C 317.568886 214.081802 317.643391 214.261674 317.775992 214.394275 
C 317.908594 214.526877 318.088465 214.601382 318.275992 214.601382 
z
" style="fill:#ff0000;stroke:#ff0000;"/>
    <path clip-path="url(#p78dc7da4ec)" d="M 207.466343 57.137812 
C 207.65387 57.137812 207.833741 57.063306 207.966343 56.930705 
C 208.098944 56.798103 208.17345 56.618232 208.17345 56.430705 
C 208.17345 56.243178 208.098944 56.063306 207.966343 55.930705 
C 207.833741 55.798103 207.65387 55.723598 207.466343 55.723598 
C 207.278816 55.723598 207.098944 55.798103 206.966343 55.930705 
C 206.833741 56.063306 206.759236 56.243178 206.759236 56.430705 
C 206.759236 56.618232 206.833741 56.798103 206.966343 56.930705 
C 207.098944 57.063306 207.278816 57.137812 207.466343 57.137812 
z
" style="fill:#ff0000;stroke:#ff0000;"/>
    <path clip-path="url(#p78dc7da4ec)" d="M 197.459219 68.344266 
C 197.724422 68.344266 197.978799 68.2389 198.166326 68.051373 
C 198.353852 67.863846 198.459219 67.609469 198.459219 67.344266 
C 198.459219 67.079063 198.353852 66.824686 198.166326 66.637159 
C 197.978799 66.449632 197.724422 66.344266 197.459219 66.344266 
C 197.194016 66.344266 196.939639 66.449632 196.752112 66.637159 
C 196.564585 66.824686 196.459219 67.079063 196.459219 67.344266 
C 196.459219 67.609469 196.564585 67.863846 196.752112 68.051373 
C 196.939639 68.2389 197.194016 68.344266 197.459219 68.344266 
z
" style="fill:#ff0000;stroke:#ff0000;"/>
    <path clip-path="url(#p78dc7da4ec)" d="M 187.428275 79.741542 
C 187.814872 79.741542 188.185687 79.587945 188.459052 79.31458 
C 188.732417 79.041215 188.886013 78.6704 188.886013 78.283804 
C 188.886013 77.897207 188.732417 77.526392 188.459052 77.253027 
C 188.185687 76.979662 187.814872 76.826066 187.428275 76.826066 
C 187.041679 76.826066 186.670864 76.979662 186.397499 77.253027 
C 186.124134 77.526392 185.970537 77.897207 185.970537 78.283804 
C 185.970537 78.6704 186.124134 79.041215 186.397499 79.31458 
C 186.670864 79.587945 187.041679 79.741542 187.428275 79.741542 
z
" style="fill:#ff0000;stroke:#ff0000;"/>
    <path clip-path="url(#p78dc7da4ec)" d="M 177.373428 90.981462 
C 177.832773 90.981462 178.273366 90.798962 178.598173 90.474156 
C 178.922979 90.14935 179.105478 89.708756 179.105478 89.249411 
C 179.105478 88.790066 178.922979 88.349472 178.598173 88.024666 
C 178.273366 87.69986 177.832773 87.51736 177.373428 87.51736 
C 176.914082 87.51736 176.473489 87.69986 176.148683 88.024666 
C 175.823877 88.349472 175.641377 88.790066 175.641377 89.249411 
C 175.641377 89.708756 175.823877 90.14935 176.148683 90.474156 
C 176.473489 90.798962 176.914082 90.981462 177.373428 90.981462 
z
" style="fill:#ff0000;stroke:#ff0000;"/>
    <path clip-path="url(#p78dc7da4ec)" d="M 167.29459 102.741182 
C 167.957598 102.741182 168.59354 102.477766 169.062357 102.008948 
C 169.531174 101.540131 169.79459 100.904189 169.79459 100.241182 
C 169.79459 99.578174 169.531174 98.942232 169.062357 98.473415 
C 168.59354 98.004597 167.957598 97.741182 167.29459 97.741182 
C 166.631582 97.741182 165.99564 98.004597 165.526823 98.473415 
C 165.058006 98.942232 164.79459 99.578174 164.79459 100.241182 
C 164.79459 100.904189 165.058006 101.540131 165.526823 102.008948 
C 165.99564 102.477766 166.631582 102.741182 167.29459 102.741182 
z
" style="fill:#ff0000;stroke:#ff0000;"/>
    <path clip-path="url(#p78dc7da4ec)" d="M 157.191676 114.087636 
C 157.941784 114.087636 158.66127 113.789615 159.191676 113.259209 
C 159.722083 112.728802 160.020104 112.009316 160.020104 111.259209 
C 160.020104 110.509101 159.722083 109.789615 159.191676 109.259209 
C 158.66127 108.728802 157.941784 108.430781 157.191676 108.430781 
C 156.441569 108.430781 155.722083 108.728802 155.191676 109.259209 
C 154.66127 109.789615 154.363249 110.509101 154.363249 111.259209 
C 154.363249 112.009316 154.66127 112.728802 155.191676 113.259209 
C 155.722083 113.789615 156.441569 114.087636 157.191676 114.087636 
z
" style="fill:#ff0000;stroke:#ff0000;"/>
    <path clip-path="url(#p78dc7da4ec)" d="M 147.064601 125.713132 
C 147.968823 125.713132 148.836132 125.353881 149.475513 124.714499 
C 150.114895 124.075118 150.474146 123.207808 150.474146 122.303586 
C 150.474146 121.399364 150.114895 120.532055 149.475513 119.892674 
C 148.836132 119.253292 147.968823 118.894041 147.064601 118.894041 
C 146.160379 118.894041 145.293069 119.253292 144.653688 119.892674 
C 144.014306 120.532055 143.655055 121.399364 143.655055 122.303586 
C 143.655055 123.207808 144.014306 124.075118 144.653688 124.714499 
C 145.293069 125.353881 146.160379 125.713132 147.064601 125.713132 
z
" style="fill:#ff0000;stroke:#ff0000;"/>
    <path clip-path="url(#p78dc7da4ec)" d="M 136.913276 136.927577 
C 137.855587 136.927577 138.75943 136.553193 139.425745 135.886879 
C 140.092059 135.220564 140.466443 134.316721 140.466443 133.37441 
C 140.466443 132.432099 140.092059 131.528255 139.425745 130.861941 
C 138.75943 130.195626 137.855587 129.821242 136.913276 129.821242 
C 135.970965 129.821242 135.067121 130.195626 134.400807 130.861941 
C 133.734492 131.528255 133.360108 132.432099 133.360108 133.37441 
C 133.360108 134.316721 133.734492 135.220564 134.400807 135.886879 
C 135.067121 136.553193 135.970965 136.927577 136.913276 136.927577 
z
" style="fill:#ff0000;stroke:#ff0000;"/>
    <path clip-path="url(#p78dc7da4ec)" d="M 126.737615 147.673336 
C 127.586679 147.673336 128.401082 147.335999 129.001461 146.73562 
C 129.60184 146.135241 129.939177 145.320838 129.939177 144.471774 
C 129.939177 143.622709 129.60184 142.808306 129.001461 142.207927 
C 128.401082 141.607548 127.586679 141.270212 126.737615 141.270212 
C 125.888551 141.270212 125.074147 141.607548 124.473768 142.207927 
C 123.873389 142.808306 123.536053 143.622709 123.536053 144.471774 
C 123.536053 145.320838 123.873389 146.135241 124.473768 146.73562 
C 125.074147 147.335999 125.888551 147.673336 126.737615 147.673336 
z
" style="fill:#ff0000;stroke:#ff0000;"/>
    <path clip-path="url(#p78dc7da4ec)" d="M 116.53753 158.797336 
C 117.386594 158.797336 118.200997 158.459999 118.801376 157.85962 
C 119.401755 157.259241 119.739092 156.444838 119.739092 155.595774 
C 119.739092 154.74671 119.401755 153.932307 118.801376 153.331927 
C 118.200997 152.731548 117.386594 152.394212 116.53753 152.394212 
C 115.688466 152.394212 114.874063 152.731548 114.273683 153.331927 
C 113.673304 153.932307 113.335968 154.74671 113.335968 155.595774 
C 113.335968 156.444838 113.673304 157.259241 114.273683 157.85962 
C 114.874063 158.459999 115.688466 158.797336 116.53753 158.797336 
z
" style="fill:#ff0000;stroke:#ff0000;"/>
    <path clip-path="url(#p78dc7da4ec)" d="M 106.312933 169.848924 
C 107.135704 169.848924 107.924887 169.522034 108.506674 168.940247 
C 109.088461 168.35846 109.415351 167.569277 109.415351 166.746506 
C 109.415351 165.923735 109.088461 165.134552 108.506674 164.552765 
C 107.924887 163.970978 107.135704 163.644088 106.312933 163.644088 
C 105.490162 163.644088 104.700979 163.970978 104.119192 164.552765 
C 103.537405 165.134552 103.210515 165.923735 103.210515 166.746506 
C 103.210515 167.569277 103.537405 168.35846 104.119192 168.940247 
C 104.700979 169.522034 105.490162 169.848924 106.312933 169.848924 
z
" style="fill:#ff0000;stroke:#ff0000;"/>
    <path clip-path="url(#p78dc7da4ec)" d="M 96.063736 180.074648 
C 96.634077 180.074648 97.181135 179.848049 97.584426 179.444758 
C 97.987718 179.041466 98.214317 178.494408 98.214317 177.924067 
C 98.214317 177.353726 97.987718 176.806668 97.584426 176.403376 
C 97.181135 176.000084 96.634077 175.773486 96.063736 175.773486 
C 95.493395 175.773486 94.946337 176.000084 94.543045 176.403376 
C 94.139753 176.806668 93.913154 177.353726 93.913154 177.924067 
C 93.913154 178.494408 94.139753 179.041466 94.543045 179.444758 
C 94.946337 179.848049 95.493395 180.074648 96.063736 180.074648 
z
" style="fill:#ff0000;stroke:#ff0000;"/>
    <path clip-path="url(#p78dc7da4ec)" d="M 85.789849 190.860604 
C 86.249195 190.860604 86.689788 190.678104 87.014594 190.353298 
C 87.3394 190.028492 87.5219 189.587899 87.5219 189.128553 
C 87.5219 188.669208 87.3394 188.228615 87.014594 187.903809 
C 86.689788 187.579002 86.249195 187.396503 85.789849 187.396503 
C 85.330504 187.396503 84.889911 187.579002 84.565104 187.903809 
C 84.240298 188.228615 84.057798 188.669208 84.057798 189.128553 
C 84.057798 189.587899 84.240298 190.028492 84.565104 190.353298 
C 84.889911 190.678104 85.330504 190.860604 85.789849 190.860604 
z
" style="fill:#ff0000;stroke:#ff0000;"/>
    <path clip-path="url(#p78dc7da4ec)" d="M 75.491184 201.295477 
C 75.739259 201.295477 75.977207 201.196916 76.152622 201.021501 
C 76.328037 200.846085 76.426599 200.608138 76.426599 200.360063 
C 76.426599 200.111988 76.328037 199.87404 76.152622 199.698625 
C 75.977207 199.52321 75.739259 199.424649 75.491184 199.424649 
C 75.243109 199.424649 75.005162 199.52321 74.829746 199.698625 
C 74.654331 199.87404 74.55577 200.111988 74.55577 200.360063 
C 74.55577 200.608138 74.654331 200.846085 74.829746 201.021501 
C 75.005162 201.196916 75.243109 201.295477 75.491184 201.295477 
z
" style="fill:#ff0000;stroke:#ff0000;"/>
    <path clip-path="url(#p78dc7da4ec)" d="M 308.024995 225.917209 
C 308.157596 225.917209 308.284785 225.864526 308.378548 225.770763 
C 308.472312 225.676999 308.524995 225.549811 308.524995 225.417209 
C 308.524995 225.284608 308.472312 225.157419 308.378548 225.063656 
C 308.284785 224.969892 308.157596 224.917209 308.024995 224.917209 
C 307.892393 224.917209 307.765205 224.969892 307.671441 225.063656 
C 307.577678 225.157419 307.524995 225.284608 307.524995 225.417209 
C 307.524995 225.549811 307.577678 225.676999 307.671441 225.770763 
C 307.765205 225.864526 307.892393 225.917209 308.024995 225.917209 
z
" style="fill:#ff0000;stroke:#ff0000;"/>
    <path clip-path="url(#p78dc7da4ec)" d="M 290.324347 225.734381 
C 290.675178 225.734381 291.011687 225.594994 291.259761 225.346919 
C 291.507836 225.098844 291.647223 224.762336 291.647223 224.411505 
C 291.647223 224.060674 291.507836 223.724165 291.259761 223.476091 
C 291.011687 223.228016 290.675178 223.088629 290.324347 223.088629 
C 289.973516 223.088629 289.637008 223.228016 289.388933 223.476091 
C 289.140858 223.724165 289.001471 224.060674 289.001471 224.411505 
C 289.001471 224.762336 289.140858 225.098844 289.388933 225.346919 
C 289.637008 225.594994 289.973516 225.734381 290.324347 225.734381 
z
" style="fill:#ff0000;stroke:#ff0000;"/>
    <path clip-path="url(#p78dc7da4ec)" d="M 272.679137 225.780659 
C 273.308121 225.780659 273.911428 225.530761 274.356188 225.086001 
C 274.800947 224.641242 275.050845 224.037935 275.050845 223.40895 
C 275.050845 222.779966 274.800947 222.176659 274.356188 221.731899 
C 273.911428 221.28714 273.308121 221.037242 272.679137 221.037242 
C 272.050152 221.037242 271.446845 221.28714 271.002086 221.731899 
C 270.557326 222.176659 270.307428 222.779966 270.307428 223.40895 
C 270.307428 224.037935 270.557326 224.641242 271.002086 225.086001 
C 271.446845 225.530761 272.050152 225.780659 272.679137 225.780659 
z
" style="fill:#ff0000;stroke:#ff0000;"/>
    <path clip-path="url(#p78dc7da4ec)" d="M 255.089103 225.945065 
C 256.026738 225.945065 256.926095 225.572539 257.589103 224.909531 
C 258.252111 224.246523 258.624637 223.347166 258.624637 222.409531 
C 258.624637 221.471896 258.252111 220.572539 257.589103 219.909531 
C 256.926095 219.246523 256.026738 218.873997 255.089103 218.873997 
C 254.151469 218.873997 253.252111 219.246523 252.589103 219.909531 
C 251.926095 220.572539 251.553569 221.471896 251.553569 222.409531 
C 251.553569 223.347166 251.926095 224.246523 252.589103 224.909531 
C 253.252111 225.572539 254.151469 225.945065 255.089103 225.945065 
z
" style="fill:#ff0000;stroke:#ff0000;"/>
    <path clip-path="url(#p78dc7da4ec)" d="M 237.553988 225.814936 
C 238.721334 225.814936 239.841025 225.351145 240.666463 224.525707 
C 241.491901 223.700269 241.955692 222.580577 241.955692 221.413232 
C 241.955692 220.245886 241.491901 219.126195 240.666463 218.300757 
C 239.841025 217.475319 238.721334 217.011528 237.553988 217.011528 
C 236.386643 217.011528 235.266951 217.475319 234.441513 218.300757 
C 233.616075 219.126195 233.152284 220.245886 233.152284 221.413232 
C 233.152284 222.580577 233.616075 223.700269 234.441513 224.525707 
C 235.266951 225.351145 236.386643 225.814936 237.553988 225.814936 
z
" style="fill:#ff0000;stroke:#ff0000;"/>
    <path clip-path="url(#p78dc7da4ec)" d="M 220.073535 225.897264 
C 221.526112 225.897264 222.919391 225.320149 223.946519 224.293022 
C 224.973646 223.265895 225.550761 221.872616 225.550761 220.420038 
C 225.550761 218.967461 224.973646 217.574182 223.946519 216.547055 
C 222.919391 215.519928 221.526112 214.942813 220.073535 214.942813 
C 218.620958 214.942813 217.227679 215.519928 216.200552 216.547055 
C 215.173425 217.574182 214.59631 218.967461 214.59631 220.420038 
C 214.59631 221.872616 215.173425 223.265895 216.200552 224.293022 
C 217.227679 225.320149 218.620958 225.897264 220.073535 225.897264 
z
" style="fill:#ff0000;stroke:#ff0000;"/>
    <path clip-path="url(#p78dc7da4ec)" d="M 202.647489 225.335442 
C 204.213647 225.335442 205.715871 224.713201 206.823312 223.60576 
C 207.930753 222.498318 208.552995 220.996095 208.552995 219.429936 
C 208.552995 217.863778 207.930753 216.361554 206.823312 215.254113 
C 205.715871 214.146672 204.213647 213.52443 202.647489 213.52443 
C 201.08133 213.52443 199.579107 214.146672 198.471666 215.254113 
C 197.364224 216.361554 196.741983 217.863778 196.741983 219.429936 
C 196.741983 220.996095 197.364224 222.498318 198.471666 223.60576 
C 199.579107 224.713201 201.08133 225.335442 202.647489 225.335442 
z
" style="fill:#ff0000;stroke:#ff0000;"/>
    <path clip-path="url(#p78dc7da4ec)" d="M 185.275595 224.432485 
C 186.864049 224.432485 188.387658 223.801386 189.510864 222.67818 
C 190.63407 221.554973 191.26517 220.031365 191.26517 218.442911 
C 191.26517 216.854457 190.63407 215.330849 189.510864 214.207642 
C 188.387658 213.084436 186.864049 212.453337 185.275595 212.453337 
C 183.687142 212.453337 182.163533 213.084436 181.040327 214.207642 
C 179.91712 215.330849 179.286021 216.854457 179.286021 218.442911 
C 179.286021 220.031365 179.91712 221.554973 181.040327 222.67818 
C 182.163533 223.801386 183.687142 224.432485 185.275595 224.432485 
z
" style="fill:#ff0000;stroke:#ff0000;"/>
    <path clip-path="url(#p78dc7da4ec)" d="M 167.957603 222.738626 
C 169.35779 222.738626 170.700817 222.182326 171.690899 221.192244 
C 172.680981 220.202163 173.237281 218.859135 173.237281 217.458948 
C 173.237281 216.058761 172.680981 214.715734 171.690899 213.725652 
C 170.700817 212.73557 169.35779 212.17927 167.957603 212.17927 
C 166.557416 212.17927 165.214389 212.73557 164.224307 213.725652 
C 163.234225 214.715734 162.677925 216.058761 162.677925 217.458948 
C 162.677925 218.859135 163.234225 220.202163 164.224307 221.192244 
C 165.214389 222.182326 166.557416 222.738626 167.957603 222.738626 
z
" style="fill:#ff0000;stroke:#ff0000;"/>
    <path clip-path="url(#p78dc7da4ec)" d="M 150.693261 220.908045 
C 151.868114 220.908045 152.995006 220.441271 153.825752 219.610525 
C 154.656499 218.779778 155.123272 217.652886 155.123272 216.478034 
C 155.123272 215.303181 154.656499 214.176289 153.825752 213.345543 
C 152.995006 212.514796 151.868114 212.048022 150.693261 212.048022 
C 149.518408 212.048022 148.391517 212.514796 147.56077 213.345543 
C 146.730024 214.176289 146.26325 215.303181 146.26325 216.478034 
C 146.26325 217.652886 146.730024 218.779778 147.56077 219.610525 
C 148.391517 220.441271 149.518408 220.908045 150.693261 220.908045 
z
" style="fill:#ff0000;stroke:#ff0000;"/>
    <path clip-path="url(#p78dc7da4ec)" d="M 133.482321 218.816778 
C 134.3619 218.816778 135.205572 218.467318 135.827529 217.845361 
C 136.449485 217.223405 136.798946 216.379732 136.798946 215.500153 
C 136.798946 214.620574 136.449485 213.776902 135.827529 213.154945 
C 135.205572 212.532989 134.3619 212.183528 133.482321 212.183528 
C 132.602742 212.183528 131.759069 212.532989 131.137113 213.154945 
C 130.515157 213.776902 130.165696 214.620574 130.165696 215.500153 
C 130.165696 216.379732 130.515157 217.223405 131.137113 217.845361 
C 131.759069 218.467318 132.602742 218.816778 133.482321 218.816778 
z
" style="fill:#ff0000;stroke:#ff0000;"/>
    <path clip-path="url(#p78dc7da4ec)" d="M 116.324535 217.025293 
C 116.987543 217.025293 117.623485 216.761877 118.092302 216.29306 
C 118.561119 215.824243 118.824535 215.188301 118.824535 214.525293 
C 118.824535 213.862285 118.561119 213.226343 118.092302 212.757526 
C 117.623485 212.288709 116.987543 212.025293 116.324535 212.025293 
C 115.661527 212.025293 115.025585 212.288709 114.556768 212.757526 
C 114.087951 213.226343 113.824535 213.862285 113.824535 214.525293 
C 113.824535 215.188301 114.087951 215.824243 114.556768 216.29306 
C 115.025585 216.761877 115.661527 217.025293 116.324535 217.025293 
z
" style="fill:#ff0000;stroke:#ff0000;"/>
    <path clip-path="url(#p78dc7da4ec)" d="M 99.219657 215.249021 
C 99.669331 215.249021 100.100648 215.070364 100.418615 214.752397 
C 100.736582 214.434429 100.91524 214.003112 100.91524 213.553439 
C 100.91524 213.103765 100.736582 212.672448 100.418615 212.354481 
C 100.100648 212.036514 99.669331 211.857856 99.219657 211.857856 
C 98.769983 211.857856 98.338667 212.036514 98.020699 212.354481 
C 97.702732 212.672448 97.524075 213.103765 97.524075 213.553439 
C 97.524075 214.003112 97.702732 214.434429 98.020699 214.752397 
C 98.338667 215.070364 98.769983 215.249021 99.219657 215.249021 
z
" style="fill:#ff0000;stroke:#ff0000;"/>
    <path clip-path="url(#p78dc7da4ec)" d="M 82.167443 213.291684 
C 82.35497 213.291684 82.534842 213.217178 82.667443 213.084577 
C 82.800045 212.951975 82.87455 212.772104 82.87455 212.584577 
C 82.87455 212.39705 82.800045 212.217178 82.667443 212.084577 
C 82.534842 211.951975 82.35497 211.87747 82.167443 211.87747 
C 81.979917 211.87747 81.800045 211.951975 81.667443 212.084577 
C 81.534842 212.217178 81.460337 212.39705 81.460337 212.584577 
C 81.460337 212.772104 81.534842 212.951975 81.667443 213.084577 
C 81.800045 213.217178 81.979917 213.291684 82.167443 213.291684 
z
" style="fill:#ff0000;stroke:#ff0000;"/>
   </g>
   <g id="legend_1">
    <g id="patch_6">
     <path d="M 21.2 291.2 
L 294.2 291.2 
Q 297.2 291.2 297.2 288.2 
L 297.2 249.95 
Q 297.2 246.95 294.2 246.95 
L 21.2 246.95 
Q 18.2 246.95 18.2 249.95 
L 18.2 288.2 
Q 18.2 291.2 21.2 291.2 
z
" style="fill:#ffffff;opacity:0.8;stroke:#cccccc;stroke-linejoin:miter;"/>
    </g>
    <g id="Path3DCollection_3">
     <defs>
      <path d="M 0 4.25 
C 1.127113 4.25 2.208214 3.802193 3.005204 3.005204 
C 3.802193 2.208214 4.25 1.127113 4.25 0 
C 4.25 -1.127113 3.802193 -2.208214 3.005204 -3.005204 
C 2.208214 -3.802193 1.127113 -4.25 0 -4.25 
C -1.127113 -4.25 -2.208214 -3.802193 -3.005204 -3.005204 
C -3.802193 -2.208214 -4.25 -1.127113 -4.25 0 
C -4.25 1.127113 -3.802193 2.208214 -3.005204 3.005204 
C -2.208214 3.802193 -1.127113 4.25 0 4.25 
z
" id="mdea732e333" style="stroke:#ff0000;"/>
     </defs>
     <g>
      <use style="fill:#ff0000;stroke:#ff0000;" x="39.2" xlink:href="#mdea732e333" y="259.5125"/>
     </g>
    </g>
    <g id="text_28">
     <!-- probability of absorbing state -->
     <defs>
      <path d="M 44.140625 23.828125 
Q 44.140625 12.5 38.671875 6.640625 
Q 33.203125 0.78125 25.390625 0.78125 
Q 21.09375 0.78125 17.96875 2.53125 
Q 14.84375 4.296875 12.5 7.8125 
L 12.5 -12.5 
L 4.6875 -12.5 
L 4.6875 45.703125 
L 12.5 45.703125 
L 12.5 39.84375 
Q 14.84375 43.359375 17.96875 44.921875 
Q 21.09375 46.484375 25.390625 46.484375 
Q 33.203125 46.484375 38.671875 40.8125 
Q 44.140625 35.15625 44.140625 23.828125 
z
M 35.546875 23.828125 
Q 35.546875 31.25 32.609375 35.34375 
Q 29.6875 39.453125 23.828125 39.453125 
Q 19.140625 39.453125 15.8125 35.34375 
Q 12.5 31.25 12.5 23.828125 
Q 12.5 16.40625 15.8125 12.109375 
Q 19.140625 7.8125 23.828125 7.8125 
Q 29.6875 7.8125 32.609375 12.109375 
Q 35.546875 16.40625 35.546875 23.828125 
z
" id="SimHei-70"/>
      <path d="M 39.0625 37.890625 
Q 31.640625 39.0625 26.5625 35.734375 
Q 21.484375 32.421875 17.96875 24.21875 
L 17.96875 1.953125 
L 10.15625 1.953125 
L 10.15625 45.703125 
L 17.96875 45.703125 
L 17.96875 34.375 
Q 21.484375 40.625 26.75 43.546875 
Q 32.03125 46.484375 39.0625 46.484375 
z
" id="SimHei-72"/>
      <path d="M 44.140625 23.828125 
Q 44.140625 12.5 38.671875 6.828125 
Q 33.203125 1.171875 25.390625 1.171875 
Q 21.09375 1.171875 17.96875 2.734375 
Q 14.84375 4.296875 12.5 7.8125 
L 12.5 1.953125 
L 4.6875 1.953125 
L 4.6875 68.75 
L 12.5 68.75 
L 12.5 39.84375 
Q 14.84375 43.359375 17.96875 45.109375 
Q 21.09375 46.875 25.390625 46.875 
Q 33.203125 46.875 38.671875 41.015625 
Q 44.140625 35.15625 44.140625 23.828125 
z
M 35.546875 23.828125 
Q 35.546875 31.25 32.609375 35.546875 
Q 29.6875 39.84375 23.828125 39.84375 
Q 19.140625 39.84375 15.8125 35.546875 
Q 12.5 31.25 12.5 23.828125 
Q 12.5 16.40625 15.8125 12.296875 
Q 19.140625 8.203125 23.828125 8.203125 
Q 29.6875 8.203125 32.609375 12.296875 
Q 35.546875 16.40625 35.546875 23.828125 
z
" id="SimHei-62"/>
      <path d="M 44.921875 1.953125 
L 35.546875 1.953125 
Q 34.765625 2.734375 34.375 4.09375 
Q 33.984375 5.46875 33.984375 7.421875 
Q 31.25 4.296875 27.34375 2.734375 
Q 23.4375 1.171875 19.140625 1.171875 
Q 12.890625 1.171875 8.59375 4.296875 
Q 4.296875 7.421875 4.296875 13.28125 
Q 4.296875 19.140625 8.203125 22.65625 
Q 12.109375 26.171875 20.3125 27.34375 
Q 25.78125 28.125 29.875 29.296875 
Q 33.984375 30.46875 33.984375 32.421875 
Q 33.984375 34.765625 32.21875 37.109375 
Q 30.46875 39.453125 24.609375 39.453125 
Q 19.921875 39.453125 17.765625 37.6875 
Q 15.625 35.9375 14.84375 32.8125 
L 6.25 32.8125 
Q 7.03125 39.0625 11.90625 42.765625 
Q 16.796875 46.484375 24.609375 46.484375 
Q 33.203125 46.484375 37.5 42.578125 
Q 41.796875 38.671875 41.796875 31.640625 
L 41.796875 10.15625 
Q 41.796875 7.8125 42.578125 5.859375 
Q 43.359375 3.90625 44.921875 1.953125 
z
M 33.984375 16.40625 
L 33.984375 24.21875 
Q 31.640625 23.4375 29.484375 22.84375 
Q 27.34375 22.265625 22.265625 21.484375 
Q 16.40625 20.703125 14.640625 18.75 
Q 12.890625 16.796875 12.890625 14.0625 
Q 12.890625 11.71875 14.640625 9.953125 
Q 16.40625 8.203125 19.921875 8.203125 
Q 23.4375 8.203125 27.53125 10.15625 
Q 31.640625 12.109375 33.984375 16.40625 
z
" id="SimHei-61"/>
      <path d="M 28.515625 1.953125 
L 20.703125 1.953125 
L 20.703125 68.75 
L 28.515625 68.75 
z
" id="SimHei-6c"/>
      <path d="M 42.96875 3.125 
Q 41.015625 2.34375 38.46875 1.75 
Q 35.9375 1.171875 31.640625 1.171875 
Q 24.609375 1.171875 20.3125 5.078125 
Q 16.015625 8.984375 16.015625 16.015625 
L 16.015625 39.453125 
L 2.734375 39.453125 
L 2.734375 45.703125 
L 16.015625 45.703125 
L 16.015625 60.9375 
L 23.828125 60.9375 
L 23.828125 45.703125 
L 39.84375 45.703125 
L 39.84375 39.453125 
L 23.828125 39.453125 
L 23.828125 15.625 
Q 23.828125 12.5 25.390625 10.34375 
Q 26.953125 8.203125 31.25 8.203125 
Q 35.546875 8.203125 38.28125 8.984375 
Q 41.015625 9.765625 42.96875 10.9375 
z
" id="SimHei-74"/>
      <path d="M 45.3125 45.703125 
L 27.34375 -1.5625 
Q 25.78125 -7.03125 22.65625 -9.765625 
Q 19.53125 -12.5 14.84375 -12.5 
Q 12.890625 -12.5 11.125 -12.296875 
Q 9.375 -12.109375 7.8125 -11.328125 
L 7.8125 -3.515625 
Q 9.375 -4.296875 10.9375 -4.6875 
Q 12.5 -5.078125 13.671875 -5.078125 
Q 16.796875 -5.078125 17.96875 -4.09375 
Q 19.140625 -3.125 20.3125 0.390625 
L 3.125 45.703125 
L 11.71875 45.703125 
L 24.21875 11.328125 
L 24.609375 11.328125 
L 36.71875 45.703125 
z
" id="SimHei-79"/>
      <path d="M 46.484375 39.0625 
Q 43.75 39.84375 41.203125 40.03125 
Q 38.671875 40.234375 35.9375 39.453125 
Q 37.109375 38.28125 37.890625 36.515625 
Q 38.671875 34.765625 38.671875 31.25 
Q 38.671875 24.609375 34.171875 20.3125 
Q 29.6875 16.015625 23.046875 16.015625 
Q 21.484375 16.015625 18.9375 16.59375 
Q 16.40625 17.1875 14.84375 17.96875 
Q 13.671875 17.1875 13.28125 16.40625 
Q 12.890625 15.625 12.890625 14.453125 
Q 12.890625 12.5 15.625 11.515625 
Q 18.359375 10.546875 25.390625 10.546875 
Q 36.71875 10.546875 40.8125 7.421875 
Q 44.921875 4.296875 44.921875 -0.390625 
Q 44.921875 -6.640625 38.859375 -9.5625 
Q 32.8125 -12.5 24.609375 -12.5 
Q 14.0625 -12.5 8.984375 -9.765625 
Q 3.90625 -7.03125 3.90625 -2.34375 
Q 3.90625 0 5.859375 2.34375 
Q 7.8125 4.6875 10.9375 6.25 
Q 8.59375 7.421875 7.21875 9.171875 
Q 5.859375 10.9375 5.859375 13.671875 
Q 5.859375 16.015625 7.609375 17.765625 
Q 9.375 19.53125 11.71875 20.703125 
Q 9.765625 22.65625 8.59375 25.390625 
Q 7.421875 28.125 7.421875 31.25 
Q 7.421875 37.890625 11.90625 42.1875 
Q 16.40625 46.484375 23.046875 46.484375 
Q 26.5625 46.484375 29.09375 45.5 
Q 31.640625 44.53125 33.59375 42.578125 
Q 36.71875 44.921875 39.84375 45.890625 
Q 42.96875 46.875 46.484375 46.484375 
z
M 30.859375 31.25 
Q 30.859375 35.15625 28.90625 37.5 
Q 26.953125 39.84375 23.046875 39.84375 
Q 19.140625 39.84375 17.1875 37.5 
Q 15.234375 35.15625 15.234375 31.25 
Q 15.234375 27.34375 17.1875 25 
Q 19.140625 22.65625 23.046875 22.65625 
Q 26.953125 22.65625 28.90625 25 
Q 30.859375 27.34375 30.859375 31.25 
z
M 37.5 -1.171875 
Q 37.5 0.390625 35.734375 1.953125 
Q 33.984375 3.515625 26.953125 3.515625 
Q 25.390625 3.515625 22.65625 3.703125 
Q 19.921875 3.90625 16.40625 4.296875 
Q 13.28125 3.125 12.109375 1.5625 
Q 10.9375 0 10.9375 -1.5625 
Q 10.9375 -3.90625 14.0625 -5.46875 
Q 17.1875 -7.03125 25 -7.03125 
Q 31.640625 -7.03125 34.5625 -5.265625 
Q 37.5 -3.515625 37.5 -1.171875 
z
" id="SimHei-67"/>
      <path d="M 44.53125 16.796875 
Q 43.75 9.765625 38.28125 5.46875 
Q 32.8125 1.171875 25.390625 1.171875 
Q 16.015625 1.171875 9.953125 7.21875 
Q 3.90625 13.28125 3.90625 23.828125 
Q 3.90625 34.375 9.953125 40.421875 
Q 16.015625 46.484375 25.390625 46.484375 
Q 33.59375 46.484375 38.859375 41.203125 
Q 44.140625 35.9375 44.140625 23.828125 
L 12.5 23.828125 
Q 12.5 15.234375 16.203125 11.71875 
Q 19.921875 8.203125 25.390625 8.203125 
Q 29.6875 8.203125 32.421875 10.34375 
Q 35.15625 12.5 35.9375 16.796875 
z
M 35.15625 30.078125 
Q 34.375 35.546875 31.640625 37.6875 
Q 28.90625 39.84375 24.609375 39.84375 
Q 20.703125 39.84375 17.578125 37.6875 
Q 14.453125 35.546875 12.890625 30.078125 
z
" id="SimHei-65"/>
     </defs>
     <g transform="translate(66.2 263.45)scale(0.15 -0.15)">
      <use xlink:href="#SimHei-70"/>
      <use x="50" xlink:href="#SimHei-72"/>
      <use x="100" xlink:href="#SimHei-6f"/>
      <use x="150" xlink:href="#SimHei-62"/>
      <use x="200" xlink:href="#SimHei-61"/>
      <use x="250" xlink:href="#SimHei-62"/>
      <use x="300" xlink:href="#SimHei-69"/>
      <use x="350" xlink:href="#SimHei-6c"/>
      <use x="400" xlink:href="#SimHei-69"/>
      <use x="450" xlink:href="#SimHei-74"/>
      <use x="500" xlink:href="#SimHei-79"/>
      <use x="550" xlink:href="#SimHei-20"/>
      <use x="600" xlink:href="#SimHei-6f"/>
      <use x="650" xlink:href="#SimHei-66"/>
      <use x="700" xlink:href="#SimHei-20"/>
      <use x="750" xlink:href="#SimHei-61"/>
      <use x="800" xlink:href="#SimHei-62"/>
      <use x="850" xlink:href="#SimHei-73"/>
      <use x="900" xlink:href="#SimHei-6f"/>
      <use x="950" xlink:href="#SimHei-72"/>
      <use x="1000" xlink:href="#SimHei-62"/>
      <use x="1050" xlink:href="#SimHei-69"/>
      <use x="1100" xlink:href="#SimHei-6e"/>
      <use x="1150" xlink:href="#SimHei-67"/>
      <use x="1200" xlink:href="#SimHei-20"/>
      <use x="1250" xlink:href="#SimHei-73"/>
      <use x="1300" xlink:href="#SimHei-74"/>
      <use x="1350" xlink:href="#SimHei-61"/>
      <use x="1400" xlink:href="#SimHei-74"/>
      <use x="1450" xlink:href="#SimHei-65"/>
     </g>
    </g>
    <g id="Path3DCollection_4">
     <g>
      <use style="fill:#008000;stroke:#008000;" x="39.2" xlink:href="#m7a29dfab9b" y="279.3875"/>
     </g>
    </g>
    <g id="text_29">
     <!-- start state -->
     <g transform="translate(66.2 283.325)scale(0.15 -0.15)">
      <use xlink:href="#SimHei-73"/>
      <use x="50" xlink:href="#SimHei-74"/>
      <use x="100" xlink:href="#SimHei-61"/>
      <use x="150" xlink:href="#SimHei-72"/>
      <use x="200" xlink:href="#SimHei-74"/>
      <use x="250" xlink:href="#SimHei-20"/>
      <use x="300" xlink:href="#SimHei-73"/>
      <use x="350" xlink:href="#SimHei-74"/>
      <use x="400" xlink:href="#SimHei-61"/>
      <use x="450" xlink:href="#SimHei-74"/>
      <use x="500" xlink:href="#SimHei-65"/>
     </g>
    </g>
   </g>
  </g>
 </g>
 <defs>
  <clipPath id="p78dc7da4ec">
   <rect height="288" width="360" x="10.7" y="10.7"/>
  </clipPath>
 </defs>
</svg>
