<?xml version="1.0" encoding="utf-8" standalone="no"?>
<!DOCTYPE svg PUBLIC "-//W3C//DTD SVG 1.1//EN"
  "http://www.w3.org/Graphics/SVG/1.1/DTD/svg11.dtd">
<!-- Created with matplotlib (http://matplotlib.org/) -->
<svg height="309.4pt" version="1.1" viewBox="0 0 381.4 309.4" width="381.4pt" xmlns="http://www.w3.org/2000/svg" xmlns:xlink="http://www.w3.org/1999/xlink">
 <defs>
  <style type="text/css">
*{stroke-linecap:butt;stroke-linejoin:round;}
  </style>
 </defs>
 <g id="figure_1">
  <g id="patch_1">
   <path d="M 0 309.4 
L 381.4 309.4 
L 381.4 0 
L 0 0 
z
" style="fill:none;"/>
  </g>
  <g id="patch_2">
   <path d="M 10.7 298.7 
L 370.7 298.7 
L 370.7 10.7 
L 10.7 10.7 
z
" style="fill:#ffffff;"/>
  </g>
  <g id="pane3d_1">
   <g id="patch_3">
    <path d="M 219.619567 185.462306 
L 335.768129 233.715199 
L 340.919918 79.597002 
L 220.435568 41.545085 
" style="fill:#f2f2f2;opacity:0.5;stroke:#f2f2f2;stroke-linejoin:miter;"/>
   </g>
  </g>
  <g id="pane3d_2">
   <g id="patch_4">
    <path d="M 219.619567 185.462306 
L 58.794045 217.8137 
L 53.895826 67.034254 
L 220.435568 41.545085 
" style="fill:#e6e6e6;opacity:0.5;stroke:#e6e6e6;stroke-linejoin:miter;"/>
   </g>
  </g>
  <g id="pane3d_3">
   <g id="patch_5">
    <path d="M 219.619567 185.462306 
L 58.794045 217.8137 
L 168.062833 271.631196 
L 335.768129 233.715199 
" style="fill:#ececec;opacity:0.5;stroke:#ececec;stroke-linejoin:miter;"/>
   </g>
  </g>
  <g id="axis3d_1">
   <g id="line2d_1">
    <path d="M 335.768129 233.715199 
L 168.062833 271.631196 
" style="fill:none;stroke:#000000;stroke-linecap:square;stroke-width:0.8;"/>
   </g>
   <g id="text_1">
    <!-- coins of 大熊 -->
    <defs>
     <path d="M 44.53125 19.53125 
Q 44.53125 11.328125 38.859375 6.25 
Q 33.203125 1.171875 24.609375 1.171875 
Q 16.015625 1.171875 9.765625 7.21875 
Q 3.515625 13.28125 3.515625 23.828125 
Q 3.515625 34.375 9.765625 40.421875 
Q 16.015625 46.484375 24.609375 46.484375 
Q 33.203125 46.484375 38.28125 41.984375 
Q 43.359375 37.5 43.359375 31.25 
L 34.765625 31.25 
Q 34.375 35.9375 31.4375 37.6875 
Q 28.515625 39.453125 24.609375 39.453125 
Q 19.921875 39.453125 16.015625 35.734375 
Q 12.109375 32.03125 12.109375 23.828125 
Q 12.109375 15.625 16.015625 11.90625 
Q 19.921875 8.203125 24.609375 8.203125 
Q 29.6875 8.203125 32.8125 10.9375 
Q 35.9375 13.671875 35.9375 19.53125 
z
" id="SimHei-63"/>
     <path d="M 45.703125 23.828125 
Q 45.703125 13.671875 39.453125 7.421875 
Q 33.203125 1.171875 24.609375 1.171875 
Q 16.015625 1.171875 9.765625 7.421875 
Q 3.515625 13.671875 3.515625 23.828125 
Q 3.515625 33.984375 9.765625 40.234375 
Q 16.015625 46.484375 24.609375 46.484375 
Q 33.203125 46.484375 39.453125 40.234375 
Q 45.703125 33.984375 45.703125 23.828125 
z
M 37.109375 23.828125 
Q 37.109375 31.640625 33.203125 35.546875 
Q 29.296875 39.453125 24.609375 39.453125 
Q 19.921875 39.453125 16.015625 35.546875 
Q 12.109375 31.640625 12.109375 23.828125 
Q 12.109375 16.015625 16.015625 12.109375 
Q 19.921875 8.203125 24.609375 8.203125 
Q 29.296875 8.203125 33.203125 12.109375 
Q 37.109375 16.015625 37.109375 23.828125 
z
" id="SimHei-6f"/>
     <path d="M 28.125 58.203125 
L 20.3125 58.203125 
L 20.3125 68.359375 
L 28.125 68.359375 
z
M 28.125 1.953125 
L 20.3125 1.953125 
L 20.3125 45.703125 
L 28.125 45.703125 
z
" id="SimHei-69"/>
     <path d="M 43.75 1.953125 
L 35.9375 1.953125 
L 35.9375 30.078125 
Q 35.9375 34.765625 33.59375 37.5 
Q 31.25 40.234375 27.34375 40.234375 
Q 22.265625 40.234375 17.765625 34.953125 
Q 13.28125 29.6875 13.28125 21.875 
L 13.28125 1.953125 
L 5.46875 1.953125 
L 5.46875 45.703125 
L 13.28125 45.703125 
L 13.28125 37.5 
Q 16.40625 41.796875 20.109375 44.140625 
Q 23.828125 46.484375 29.6875 46.484375 
Q 36.71875 46.484375 40.234375 42.578125 
Q 43.75 38.671875 43.75 32.8125 
z
" id="SimHei-6e"/>
     <path d="M 42.96875 14.0625 
Q 42.96875 7.8125 38.078125 4.484375 
Q 33.203125 1.171875 25.78125 1.171875 
Q 16.40625 1.171875 11.328125 4.875 
Q 6.25 8.59375 6.25 15.625 
L 14.0625 15.625 
Q 14.0625 10.9375 17.375 9.375 
Q 20.703125 7.8125 25.390625 7.8125 
Q 30.078125 7.8125 32.421875 9.5625 
Q 34.765625 11.328125 34.765625 14.0625 
Q 34.765625 16.015625 32.8125 17.96875 
Q 30.859375 19.921875 23.046875 21.09375 
Q 14.0625 22.265625 10.734375 25.578125 
Q 7.421875 28.90625 7.421875 34.375 
Q 7.421875 39.0625 11.90625 42.765625 
Q 16.40625 46.484375 25 46.484375 
Q 32.8125 46.484375 37.296875 42.96875 
Q 41.796875 39.453125 41.796875 33.59375 
L 33.984375 33.59375 
Q 33.984375 37.109375 31.4375 38.46875 
Q 28.90625 39.84375 25 39.84375 
Q 19.921875 39.84375 17.765625 38.078125 
Q 15.625 36.328125 15.625 33.984375 
Q 15.625 31.25 17.578125 29.6875 
Q 19.53125 28.125 25.78125 27.34375 
Q 35.9375 25.78125 39.453125 22.453125 
Q 42.96875 19.140625 42.96875 14.0625 
z
" id="SimHei-73"/>
     <path id="SimHei-20"/>
     <path d="M 44.53125 59.765625 
Q 42.578125 60.9375 39.84375 61.71875 
Q 37.109375 62.5 32.8125 62.5 
Q 28.515625 62.5 26.953125 60.34375 
Q 25.390625 58.203125 25.390625 55.078125 
L 25.390625 45.703125 
L 41.40625 45.703125 
L 41.40625 39.453125 
L 25.390625 39.453125 
L 25.390625 1.953125 
L 17.578125 1.953125 
L 17.578125 39.453125 
L 4.296875 39.453125 
L 4.296875 45.703125 
L 17.578125 45.703125 
L 17.578125 54.6875 
Q 17.578125 61.71875 21.875 65.625 
Q 26.171875 69.53125 33.203125 69.53125 
Q 37.5 69.53125 40.03125 68.9375 
Q 42.578125 68.359375 44.53125 67.578125 
z
" id="SimHei-66"/>
     <path d="M 45.3125 53.125 
Q 45.703125 66.796875 45.5 71.484375 
Q 45.3125 76.171875 44.921875 80.46875 
Q 49.609375 79.6875 55.46875 79.296875 
Q 54.296875 75.390625 53.703125 67.96875 
Q 53.125 60.546875 53.125 53.125 
L 73.046875 53.125 
Q 83.59375 53.125 92.578125 53.90625 
L 92.578125 45.3125 
Q 84.765625 45.703125 76.5625 45.703125 
L 53.515625 45.703125 
Q 55.078125 39.0625 58.984375 32.21875 
Q 62.890625 25.390625 66.984375 20.109375 
Q 71.09375 14.84375 78.3125 8.984375 
Q 85.546875 3.125 94.140625 -0.78125 
Q 91.015625 -3.125 87.890625 -8.59375 
Q 80.859375 -4.6875 74.015625 1.171875 
Q 67.1875 7.03125 60.34375 16.59375 
Q 53.515625 26.171875 50 34.375 
Q 46.875 25.78125 43.359375 20.109375 
Q 39.84375 14.453125 35.734375 9.765625 
Q 31.640625 5.078125 25.1875 0.390625 
Q 18.75 -4.296875 10.546875 -8.984375 
Q 7.421875 -4.296875 3.515625 -0.78125 
Q 11.71875 1.953125 19.71875 7.03125 
Q 27.734375 12.109375 32.8125 18.546875 
Q 37.890625 25 41.015625 32.03125 
Q 44.140625 39.0625 44.921875 45.703125 
L 23.4375 45.703125 
Q 14.0625 45.703125 8.59375 45.3125 
L 8.59375 53.90625 
Q 14.0625 53.515625 23.4375 53.125 
z
" id="SimHei-5927"/>
     <path d="M 49.609375 52.34375 
Q 49.21875 46.484375 49.21875 40.625 
L 49.21875 19.53125 
Q 49.21875 15.234375 46.484375 13.859375 
Q 43.75 12.5 34.765625 11.328125 
Q 33.59375 14.84375 31.640625 18.359375 
Q 38.671875 18.75 40.421875 18.9375 
Q 42.1875 19.140625 41.796875 23.4375 
L 18.359375 23.4375 
L 18.359375 12.5 
L 10.15625 12.5 
Q 10.546875 25 10.546875 33.59375 
Q 10.546875 42.1875 10.15625 52.34375 
L 49.609375 52.34375 
z
M 65.625 45.3125 
Q 65.234375 41.015625 65.234375 34.375 
Q 81.640625 38.671875 88.28125 43.359375 
Q 90.234375 39.453125 93.359375 36.71875 
Q 85.9375 34.765625 65.625 28.125 
L 65.625 23.046875 
Q 65.625 19.53125 70.703125 19.53125 
L 80.46875 19.53125 
Q 83.59375 19.53125 85.15625 20.890625 
Q 86.71875 22.265625 88.28125 28.125 
Q 92.1875 26.171875 96.875 25.390625 
Q 93.359375 17.1875 91.40625 15.234375 
Q 89.453125 13.28125 83.984375 13.28125 
L 65.234375 13.28125 
Q 57.03125 13.28125 57.03125 19.53125 
L 57.03125 37.5 
Q 57.03125 40.625 56.640625 45.3125 
L 65.625 45.3125 
z
M 92.578125 69.140625 
Q 78.515625 65.234375 64.84375 61.328125 
Q 64.84375 54.6875 68.359375 54.6875 
L 80.46875 54.6875 
Q 83.203125 54.6875 84.765625 56.4375 
Q 86.328125 58.203125 86.71875 62.5 
Q 90.234375 60.9375 94.921875 59.765625 
Q 92.96875 51.5625 90.421875 50.1875 
Q 87.890625 48.828125 82.8125 48.828125 
L 64.84375 48.828125 
Q 57.03125 48.828125 57.03125 54.296875 
L 57.03125 71.09375 
Q 57.03125 75.78125 56.640625 80.46875 
L 65.625 80.46875 
Q 65.234375 75.390625 65.234375 67.1875 
Q 78.515625 70.3125 86.328125 76.171875 
Q 88.671875 72.65625 92.578125 69.140625 
z
M 32.03125 78.125 
Q 24.609375 71.484375 16.40625 62.890625 
Q 22.65625 63.28125 40.625 65.234375 
Q 38.671875 67.578125 35.546875 70.703125 
Q 39.0625 72.265625 42.96875 74.21875 
Q 51.171875 63.28125 55.078125 58.59375 
Q 51.171875 57.03125 48.046875 54.6875 
L 44.53125 59.765625 
Q 42.578125 59.375 33.203125 58.59375 
Q 23.828125 57.8125 9.375 55.859375 
Q 7.421875 59.375 6.25 62.890625 
Q 10.15625 64.84375 14.640625 69.53125 
Q 19.140625 74.21875 23.4375 82.03125 
Q 27.734375 79.6875 32.03125 78.125 
z
M 41.796875 28.90625 
L 41.796875 35.546875 
L 18.359375 35.546875 
L 18.359375 28.90625 
z
M 20.3125 6.640625 
Q 17.1875 3.125 11.71875 -9.765625 
Q 6.640625 -7.8125 3.90625 -7.03125 
Q 6.640625 -1.5625 11.71875 8.984375 
Q 15.625 7.8125 20.3125 6.640625 
z
M 85.9375 10.15625 
Q 92.578125 -1.953125 94.140625 -5.46875 
Q 89.84375 -6.640625 86.328125 -8.59375 
Q 83.984375 -2.34375 78.515625 7.03125 
Q 81.25 8.203125 85.9375 10.15625 
z
M 41.796875 41.015625 
L 41.796875 46.875 
L 18.359375 46.875 
L 18.359375 41.015625 
z
M 62.890625 8.59375 
Q 65.625 -1.953125 66.40625 -5.859375 
L 58.59375 -7.421875 
Q 57.421875 -3.90625 55.46875 7.421875 
Q 58.59375 8.203125 62.890625 8.59375 
z
M 39.84375 7.421875 
Q 40.234375 3.90625 42.578125 -6.640625 
Q 38.671875 -6.640625 34.375 -7.8125 
Q 33.59375 -3.125 32.03125 6.640625 
Q 35.15625 7.421875 39.84375 7.421875 
z
" id="SimHei-718a"/>
    </defs>
    <g style="fill:#800080;" transform="translate(235.061813 295.570823)rotate(-12.739652)scale(0.12 -0.12)">
     <use xlink:href="#SimHei-63"/>
     <use x="50" xlink:href="#SimHei-6f"/>
     <use x="100" xlink:href="#SimHei-69"/>
     <use x="150" xlink:href="#SimHei-6e"/>
     <use x="200" xlink:href="#SimHei-73"/>
     <use x="250" xlink:href="#SimHei-20"/>
     <use x="300" xlink:href="#SimHei-6f"/>
     <use x="350" xlink:href="#SimHei-66"/>
     <use x="400" xlink:href="#SimHei-20"/>
     <use x="450" xlink:href="#SimHei-5927"/>
     <use x="550" xlink:href="#SimHei-718a"/>
    </g>
   </g>
   <g id="Line3DCollection_1">
    <path d="M 325.649087 236.002984 
L 209.876104 187.422284 
L 210.363217 43.086674 
" style="fill:none;stroke:#b0b0b0;stroke-width:0.8;"/>
    <path d="M 305.615951 240.532216 
L 190.60155 191.299522 
L 190.43149 46.137256 
" style="fill:none;stroke:#b0b0b0;stroke-width:0.8;"/>
    <path d="M 285.302458 245.124834 
L 171.077619 195.226923 
L 170.232989 49.228668 
" style="fill:none;stroke:#b0b0b0;stroke-width:0.8;"/>
    <path d="M 264.70268 249.782177 
L 151.299439 199.205469 
L 149.762321 52.361736 
" style="fill:none;stroke:#b0b0b0;stroke-width:0.8;"/>
    <path d="M 243.810523 254.505623 
L 131.262013 203.236164 
L 129.013948 55.537307 
" style="fill:none;stroke:#b0b0b0;stroke-width:0.8;"/>
    <path d="M 222.619718 259.29659 
L 110.960209 207.320041 
L 107.982181 58.756252 
" style="fill:none;stroke:#b0b0b0;stroke-width:0.8;"/>
    <path d="M 201.123814 264.156536 
L 90.38876 211.458159 
L 86.661174 62.019466 
" style="fill:none;stroke:#b0b0b0;stroke-width:0.8;"/>
    <path d="M 179.316176 269.086961 
L 69.542258 215.651607 
L 65.044918 65.327868 
" style="fill:none;stroke:#b0b0b0;stroke-width:0.8;"/>
   </g>
   <g id="xtick_1">
    <g id="line2d_2">
     <path d="M 324.648958 235.583309 
L 327.653217 236.843957 
" style="fill:none;stroke:#000000;stroke-linecap:square;stroke-width:0.8;"/>
    </g>
    <g id="text_2">
     <!-- 0 -->
     <defs>
      <path d="M 3.125 29.296875 
Q 3.90625 50 6.4375 56.046875 
Q 8.984375 62.109375 13.671875 66.015625 
Q 18.359375 69.921875 25.1875 69.921875 
Q 32.03125 69.921875 37.109375 64.25 
Q 42.1875 58.59375 43.75 50 
Q 45.3125 41.40625 44.71875 30.265625 
Q 44.140625 19.140625 40.8125 12.109375 
Q 37.5 5.078125 30.859375 2.34375 
Q 24.21875 -0.390625 17.578125 2.921875 
Q 10.9375 6.25 8.203125 11.71875 
Q 5.46875 17.1875 4.296875 23.234375 
Q 3.125 29.296875 3.90625 50 
z
M 12.890625 52.734375 
Q 10.546875 31.25 12.5 22.84375 
Q 14.453125 14.453125 18.9375 10.9375 
Q 23.4375 7.421875 28.125 9.5625 
Q 32.8125 11.71875 34.953125 18.15625 
Q 37.109375 24.609375 37.109375 32.21875 
Q 37.109375 39.84375 36.515625 46.09375 
Q 35.9375 52.34375 33 57.421875 
Q 30.078125 62.5 25.1875 62.6875 
Q 20.3125 62.890625 16.59375 57.8125 
Q 12.890625 52.734375 10.546875 31.25 
z
" id="SimHei-30"/>
     </defs>
     <g transform="translate(330.134125 260.095778)scale(0.15 -0.15)">
      <use xlink:href="#SimHei-30"/>
     </g>
    </g>
   </g>
   <g id="xtick_2">
    <g id="line2d_3">
     <path d="M 304.621865 240.106691 
L 307.607998 241.384926 
" style="fill:none;stroke:#000000;stroke-linecap:square;stroke-width:0.8;"/>
    </g>
    <g id="text_3">
     <!-- 2 -->
     <defs>
      <path d="M 4.6875 3.90625 
Q 5.078125 9.765625 10.15625 14.453125 
Q 15.234375 19.140625 23.046875 29.09375 
Q 30.859375 39.0625 33.203125 44.53125 
Q 35.546875 50 34.953125 53.90625 
Q 34.375 57.8125 31.25 60.34375 
Q 28.125 62.890625 24.015625 62.5 
Q 19.921875 62.109375 16.203125 59.375 
Q 12.5 56.640625 10.546875 51.171875 
L 3.125 52.34375 
Q 6.25 61.328125 11.125 65.421875 
Q 16.015625 69.53125 22.65625 69.921875 
Q 26.5625 70.3125 29.6875 69.71875 
Q 32.8125 69.140625 36.125 66.984375 
Q 39.453125 64.84375 41.59375 60.546875 
Q 43.75 56.25 43.15625 50.1875 
Q 42.578125 44.140625 37.109375 35.734375 
Q 31.640625 27.34375 16.015625 9.375 
L 44.140625 9.375 
L 44.140625 2.34375 
L 4.6875 2.34375 
z
" id="SimHei-32"/>
     </defs>
     <g transform="translate(310.096382 264.735082)scale(0.15 -0.15)">
      <use xlink:href="#SimHei-32"/>
     </g>
    </g>
   </g>
   <g id="xtick_3">
    <g id="line2d_4">
     <path d="M 284.314682 244.693335 
L 287.281886 245.989527 
" style="fill:none;stroke:#000000;stroke-linecap:square;stroke-width:0.8;"/>
    </g>
    <g id="text_4">
     <!-- 4 -->
     <defs>
      <path d="M 31.25 17.1875 
L 1.171875 17.1875 
L 1.171875 23.828125 
L 32.8125 69.53125 
L 38.671875 69.53125 
L 38.671875 23.828125 
L 48.046875 23.828125 
L 48.046875 17.1875 
L 38.671875 17.1875 
L 38.671875 2.34375 
L 31.25 2.34375 
z
M 31.25 23.828125 
L 31.25 54.6875 
L 9.375 23.828125 
z
" id="SimHei-34"/>
     </defs>
     <g transform="translate(289.777342 269.439513)scale(0.15 -0.15)">
      <use xlink:href="#SimHei-34"/>
     </g>
    </g>
   </g>
   <g id="xtick_4">
    <g id="line2d_5">
     <path d="M 263.721492 249.344577 
L 266.668935 250.659107 
" style="fill:none;stroke:#000000;stroke-linecap:square;stroke-width:0.8;"/>
    </g>
    <g id="text_5">
     <!-- 6 -->
     <defs>
      <path d="M 3.515625 19.53125 
Q 4.296875 30.859375 6.046875 34.765625 
Q 7.8125 38.671875 11.328125 44.53125 
L 27.34375 69.53125 
L 36.328125 69.53125 
L 19.921875 43.75 
Q 30.46875 46.484375 36.71875 42.96875 
Q 42.96875 39.453125 45.109375 34.953125 
Q 47.265625 30.46875 47.453125 25.1875 
Q 47.65625 19.921875 45.890625 14.84375 
Q 44.140625 9.765625 39.640625 5.65625 
Q 35.15625 1.5625 27.140625 1.171875 
Q 19.140625 0.78125 13.46875 4.09375 
Q 7.8125 7.421875 5.65625 13.46875 
Q 3.515625 19.53125 4.296875 30.859375 
z
M 12.5 16.015625 
Q 19.53125 8.59375 25.390625 8.203125 
Q 31.25 7.8125 35.15625 12.109375 
Q 39.0625 16.40625 39.0625 24.609375 
Q 39.0625 32.8125 34.171875 35.9375 
Q 29.296875 39.0625 23.234375 38.28125 
Q 17.1875 37.5 14.453125 32.421875 
Q 11.71875 27.34375 12.109375 21.671875 
Q 12.5 16.015625 19.53125 8.59375 
z
" id="SimHei-36"/>
     </defs>
     <g transform="translate(269.171041 274.210454)scale(0.15 -0.15)">
      <use xlink:href="#SimHei-36"/>
     </g>
    </g>
   </g>
   <g id="xtick_5">
    <g id="line2d_6">
     <path d="M 242.83621 254.061792 
L 245.763028 255.395052 
" style="fill:none;stroke:#000000;stroke-linecap:square;stroke-width:0.8;"/>
    </g>
    <g id="text_6">
     <!-- 8 -->
     <defs>
      <path d="M 2.734375 16.796875 
Q 2.734375 26.171875 5.078125 30.65625 
Q 7.421875 35.15625 12.890625 37.890625 
Q 8.203125 40.625 6.640625 43.9375 
Q 5.078125 47.265625 4.875 51.5625 
Q 4.6875 55.859375 6.046875 58.984375 
Q 7.421875 62.109375 10.15625 64.84375 
Q 12.890625 67.578125 16.203125 68.546875 
Q 19.53125 69.53125 23.4375 69.53125 
Q 27.34375 69.53125 30.46875 68.75 
Q 33.59375 67.96875 37.109375 65.421875 
Q 40.625 62.890625 42.1875 58.203125 
Q 43.75 53.515625 41.984375 47.265625 
Q 40.234375 41.015625 32.8125 37.5 
Q 39.453125 35.546875 42.1875 31.4375 
Q 44.921875 27.34375 44.921875 21.484375 
Q 44.921875 15.625 43.15625 12.109375 
Q 41.40625 8.59375 39.25 6.25 
Q 37.109375 3.90625 33.390625 2.53125 
Q 29.6875 1.171875 24.015625 1.171875 
Q 18.359375 1.171875 14.25 2.53125 
Q 10.15625 3.90625 7.421875 6.640625 
Q 4.6875 9.375 3.703125 13.078125 
Q 2.734375 16.796875 2.734375 26.171875 
z
M 10.9375 26.5625 
Q 10.546875 17.1875 12.296875 13.671875 
Q 14.0625 10.15625 18.75 9.171875 
Q 23.4375 8.203125 28.515625 9.375 
Q 33.59375 10.546875 35.546875 14.84375 
Q 37.5 19.140625 36.90625 23.4375 
Q 36.328125 27.734375 32.03125 30.65625 
Q 27.734375 33.59375 22.65625 33.203125 
Q 17.578125 32.8125 14.25 29.6875 
Q 10.9375 26.5625 10.546875 17.1875 
z
M 12.109375 56.25 
Q 12.109375 48.4375 14.84375 44.921875 
Q 17.578125 41.40625 23.4375 41.40625 
Q 29.296875 41.40625 32.21875 44.921875 
Q 35.15625 48.4375 34.953125 53.3125 
Q 34.765625 58.203125 31.4375 60.546875 
Q 28.125 62.890625 22.453125 62.5 
Q 16.796875 62.109375 14.453125 59.171875 
Q 12.109375 56.25 12.109375 48.4375 
z
" id="SimHei-38"/>
     </defs>
     <g transform="translate(248.271344 279.049324)scale(0.15 -0.15)">
      <use xlink:href="#SimHei-38"/>
     </g>
    </g>
   </g>
   <g id="xtick_6">
    <g id="line2d_7">
     <path d="M 221.652577 258.846394 
L 224.557878 260.198787 
" style="fill:none;stroke:#000000;stroke-linecap:square;stroke-width:0.8;"/>
    </g>
    <g id="text_7">
     <!-- 10 -->
     <defs>
      <path d="M 21.875 56.25 
Q 16.796875 51.171875 8.984375 46.484375 
L 8.984375 53.90625 
Q 18.75 60.546875 25 69.53125 
L 29.6875 69.53125 
L 29.6875 2.34375 
L 21.875 2.34375 
z
" id="SimHei-31"/>
     </defs>
     <g transform="translate(223.321939 283.957585)scale(0.15 -0.15)">
      <use xlink:href="#SimHei-31"/>
      <use x="50" xlink:href="#SimHei-30"/>
     </g>
    </g>
   </g>
   <g id="xtick_7">
    <g id="line2d_8">
     <path d="M 200.164153 263.699837 
L 203.047012 265.071778 
" style="fill:none;stroke:#000000;stroke-linecap:square;stroke-width:0.8;"/>
    </g>
    <g id="text_8">
     <!-- 12 -->
     <g transform="translate(201.816333 288.936741)scale(0.15 -0.15)">
      <use xlink:href="#SimHei-31"/>
      <use x="50" xlink:href="#SimHei-32"/>
     </g>
    </g>
   </g>
   <g id="xtick_8">
    <g id="line2d_9">
     <path d="M 178.364314 268.623617 
L 181.22377 270.015533 
" style="fill:none;stroke:#000000;stroke-linecap:square;stroke-width:0.8;"/>
    </g>
    <g id="text_9">
     <!-- 14 -->
     <g transform="translate(179.997844 293.988337)scale(0.15 -0.15)">
      <use xlink:href="#SimHei-31"/>
      <use x="50" xlink:href="#SimHei-34"/>
     </g>
    </g>
   </g>
  </g>
  <g id="axis3d_2">
   <g id="line2d_10">
    <path d="M 58.794045 217.8137 
L 168.062833 271.631196 
" style="fill:none;stroke:#000000;stroke-linecap:square;stroke-width:0.8;"/>
   </g>
   <g id="text_10">
    <!-- coins of 胖虎 -->
    <defs>
     <path d="M 21.484375 1.953125 
Q 25.78125 1.5625 28.515625 1.75 
Q 31.25 1.953125 31.640625 7.03125 
L 31.640625 26.171875 
L 18.359375 26.171875 
Q 16.796875 14.453125 14.453125 5.859375 
Q 12.109375 -2.734375 10.15625 -7.03125 
Q 6.640625 -3.90625 3.125 -2.734375 
Q 6.640625 2.734375 8.78125 10.34375 
Q 10.9375 17.96875 11.71875 30.859375 
L 11.71875 64.453125 
Q 11.71875 71.09375 11.328125 76.953125 
L 38.671875 76.953125 
Q 38.28125 69.140625 38.28125 61.328125 
L 38.28125 1.953125 
Q 38.28125 -6.25 23.4375 -7.03125 
Q 23.046875 -3.125 21.484375 1.953125 
z
M 64.453125 45.3125 
L 64.453125 69.140625 
Q 64.453125 73.828125 63.671875 79.296875 
L 72.265625 79.296875 
Q 71.875 74.21875 71.875 69.140625 
L 71.875 45.3125 
L 82.421875 45.3125 
Q 85.9375 45.3125 91.796875 45.703125 
L 91.796875 38.671875 
Q 88.28125 39.0625 82.421875 39.0625 
L 71.875 39.0625 
L 71.875 23.4375 
L 84.765625 23.4375 
Q 91.015625 23.4375 96.09375 23.828125 
L 96.09375 16.796875 
Q 90.234375 17.1875 84.765625 17.1875 
L 71.875 17.1875 
L 71.875 3.90625 
Q 71.875 -2.34375 72.265625 -8.984375 
L 64.0625 -8.984375 
Q 64.453125 -2.734375 64.453125 3.90625 
L 64.453125 17.1875 
L 53.90625 17.1875 
Q 48.4375 17.1875 42.578125 16.796875 
L 42.578125 23.828125 
Q 48.046875 23.4375 54.296875 23.4375 
L 64.453125 23.4375 
L 64.453125 39.0625 
L 53.90625 39.0625 
Q 48.4375 39.0625 43.359375 38.671875 
L 43.359375 45.703125 
Q 48.4375 45.3125 53.515625 45.3125 
z
M 31.640625 32.8125 
L 31.640625 48.828125 
L 18.75 48.828125 
L 18.75 32.8125 
z
M 31.640625 55.078125 
L 31.640625 70.703125 
L 18.75 70.703125 
L 18.75 55.078125 
z
M 51.5625 51.953125 
Q 50 58.984375 44.921875 71.09375 
L 51.171875 74.21875 
Q 55.859375 63.28125 58.59375 54.6875 
Q 54.296875 53.515625 51.5625 51.953125 
z
M 77.34375 53.90625 
Q 83.984375 67.96875 84.765625 73.4375 
Q 88.671875 71.875 92.578125 70.703125 
Q 90.625 67.96875 88.671875 62.890625 
Q 86.71875 57.8125 84.375 51.953125 
Q 80.859375 53.90625 77.34375 53.90625 
z
" id="SimHei-80d6"/>
     <path d="M 25.78125 45.703125 
Q 33.203125 46.09375 44.140625 46.875 
L 44.140625 56.640625 
L 20.703125 56.640625 
Q 20.703125 31.640625 20.109375 23.4375 
Q 19.53125 15.234375 17.578125 8 
Q 15.625 0.78125 10.9375 -7.8125 
Q 7.8125 -5.46875 3.125 -3.90625 
Q 7.03125 0.78125 9.171875 6.828125 
Q 11.328125 12.890625 12.109375 18.75 
Q 12.890625 24.609375 13.078125 30.265625 
Q 13.28125 35.9375 13.28125 42.96875 
Q 13.28125 50.390625 12.890625 62.5 
L 44.140625 62.5 
L 44.140625 74.609375 
Q 44.140625 77.34375 43.359375 82.421875 
L 51.953125 82.421875 
Q 51.5625 78.515625 51.5625 75.390625 
L 71.09375 75.390625 
Q 76.171875 75.390625 84.765625 76.171875 
L 84.765625 69.53125 
Q 76.171875 69.921875 70.703125 69.921875 
L 51.171875 69.921875 
L 51.171875 62.5 
L 93.75 62.5 
Q 92.1875 57.8125 89.84375 46.875 
Q 85.15625 48.046875 82.03125 48.4375 
Q 83.984375 52.734375 85.15625 56.640625 
L 51.171875 56.640625 
L 51.171875 47.65625 
Q 65.234375 49.21875 74.21875 50.78125 
L 75 44.140625 
Q 64.0625 42.96875 51.171875 41.40625 
L 51.171875 36.71875 
Q 51.171875 33.203125 57.421875 33.203125 
L 70.3125 33.203125 
Q 75 32.8125 76.359375 34.5625 
Q 77.734375 36.328125 78.515625 41.015625 
Q 81.640625 39.0625 86.71875 37.109375 
Q 84.765625 30.859375 82.03125 29.09375 
Q 79.296875 27.34375 73.828125 27.34375 
L 54.296875 27.34375 
Q 44.140625 27.34375 44.140625 33.59375 
L 44.140625 41.015625 
Q 36.328125 40.234375 27.34375 39.0625 
Q 26.5625 42.578125 25.78125 45.703125 
z
M 71.09375 22.265625 
Q 70.703125 16.796875 70.703125 10.9375 
L 70.703125 2.34375 
Q 70.703125 -1.953125 75 -1.953125 
L 81.25 -1.953125 
Q 85.9375 -1.953125 86.71875 0.78125 
Q 87.5 3.515625 87.5 7.421875 
Q 91.40625 5.078125 96.09375 4.296875 
Q 93.359375 -3.90625 91.59375 -5.859375 
Q 89.84375 -7.8125 85.15625 -7.8125 
L 72.65625 -7.8125 
Q 63.671875 -7.8125 63.671875 -1.171875 
L 63.671875 16.40625 
L 45.3125 16.40625 
Q 45.3125 4.6875 41.203125 -0.578125 
Q 37.109375 -5.859375 26.171875 -10.546875 
Q 25 -6.640625 21.484375 -3.515625 
Q 35.9375 0.78125 37.109375 7.421875 
Q 38.28125 14.0625 37.890625 22.265625 
L 71.09375 22.265625 
z
" id="SimHei-864e"/>
    </defs>
    <g style="fill:#800080;" transform="translate(49.092792 257.912399)rotate(-333.778649)scale(0.12 -0.12)">
     <use xlink:href="#SimHei-63"/>
     <use x="50" xlink:href="#SimHei-6f"/>
     <use x="100" xlink:href="#SimHei-69"/>
     <use x="150" xlink:href="#SimHei-6e"/>
     <use x="200" xlink:href="#SimHei-73"/>
     <use x="250" xlink:href="#SimHei-20"/>
     <use x="300" xlink:href="#SimHei-6f"/>
     <use x="350" xlink:href="#SimHei-66"/>
     <use x="400" xlink:href="#SimHei-20"/>
     <use x="450" xlink:href="#SimHei-80d6"/>
     <use x="550" xlink:href="#SimHei-864e"/>
    </g>
   </g>
   <g id="Line3DCollection_2">
    <path d="M 227.548604 43.791556 
L 226.494241 188.318329 
L 65.235235 220.98614 
" style="fill:none;stroke:#b0b0b0;stroke-width:0.8;"/>
    <path d="M 241.688876 48.257402 
L 240.154088 193.993191 
L 78.043534 227.294534 
" style="fill:none;stroke:#b0b0b0;stroke-width:0.8;"/>
    <path d="M 256.106644 52.810887 
L 254.072998 199.775679 
L 91.108144 233.729167 
" style="fill:none;stroke:#b0b0b0;stroke-width:0.8;"/>
    <path d="M 270.810156 57.454617 
L 268.25841 205.668883 
L 104.436836 240.293868 
" style="fill:none;stroke:#b0b0b0;stroke-width:0.8;"/>
    <path d="M 285.807992 62.191302 
L 282.718053 211.676014 
L 118.0377 246.992619 
" style="fill:none;stroke:#b0b0b0;stroke-width:0.8;"/>
    <path d="M 301.10908 67.023762 
L 297.459956 217.800407 
L 131.919157 253.829569 
" style="fill:none;stroke:#b0b0b0;stroke-width:0.8;"/>
    <path d="M 316.722709 71.95493 
L 312.492466 224.045531 
L 146.089982 260.80904 
" style="fill:none;stroke:#b0b0b0;stroke-width:0.8;"/>
    <path d="M 332.658556 76.987861 
L 327.824262 230.41499 
L 160.559317 267.935534 
" style="fill:none;stroke:#b0b0b0;stroke-width:0.8;"/>
   </g>
   <g id="xtick_9">
    <g id="line2d_11">
     <path d="M 66.594479 220.710784 
L 62.513215 221.537566 
" style="fill:none;stroke:#000000;stroke-linecap:square;stroke-width:0.8;"/>
    </g>
    <g id="text_11">
     <!-- 0 -->
     <g transform="translate(50.195232 243.623733)scale(0.15 -0.15)">
      <use xlink:href="#SimHei-30"/>
     </g>
    </g>
   </g>
   <g id="xtick_10">
    <g id="line2d_12">
     <path d="M 79.410645 227.013697 
L 75.305726 227.856945 
" style="fill:none;stroke:#000000;stroke-linecap:square;stroke-width:0.8;"/>
    </g>
    <g id="text_12">
     <!-- 2 -->
     <g transform="translate(62.908596 250.062791)scale(0.15 -0.15)">
      <use xlink:href="#SimHei-32"/>
     </g>
    </g>
   </g>
   <g id="xtick_11">
    <g id="line2d_13">
     <path d="M 92.483165 233.442684 
L 88.354458 234.302894 
" style="fill:none;stroke:#000000;stroke-linecap:square;stroke-width:0.8;"/>
    </g>
    <g id="text_13">
     <!-- 4 -->
     <g transform="translate(75.876714 256.630876)scale(0.15 -0.15)">
      <use xlink:href="#SimHei-34"/>
     </g>
    </g>
   </g>
   <g id="xtick_12">
    <g id="line2d_14">
     <path d="M 105.81981 240.001565 
L 101.667187 240.879255 
" style="fill:none;stroke:#000000;stroke-linecap:square;stroke-width:0.8;"/>
    </g>
    <g id="text_14">
     <!-- 6 -->
     <g transform="translate(89.10732 263.331906)scale(0.15 -0.15)">
      <use xlink:href="#SimHei-36"/>
     </g>
    </g>
   </g>
   <g id="xtick_13">
    <g id="line2d_15">
     <path d="M 119.428666 246.694319 
L 115.252006 247.590026 
" style="fill:none;stroke:#000000;stroke-linecap:square;stroke-width:0.8;"/>
    </g>
    <g id="text_15">
     <!-- 8 -->
     <g transform="translate(102.608465 270.169958)scale(0.15 -0.15)">
      <use xlink:href="#SimHei-38"/>
     </g>
    </g>
   </g>
   <g id="xtick_14">
    <g id="line2d_16">
     <path d="M 133.318153 253.525084 
L 129.117343 254.439371 
" style="fill:none;stroke:#000000;stroke-linecap:square;stroke-width:0.8;"/>
    </g>
    <g id="text_16">
     <!-- 10 -->
     <g transform="translate(112.638533 277.14928)scale(0.15 -0.15)">
      <use xlink:href="#SimHei-31"/>
      <use x="50" xlink:href="#SimHei-30"/>
     </g>
    </g>
   </g>
   <g id="xtick_15">
    <g id="line2d_17">
     <path d="M 147.497042 260.498176 
L 143.271977 261.431625 
" style="fill:none;stroke:#000000;stroke-linecap:square;stroke-width:0.8;"/>
    </g>
    <g id="text_17">
     <!-- 12 -->
     <g transform="translate(126.706257 284.274293)scale(0.15 -0.15)">
      <use xlink:href="#SimHei-31"/>
      <use x="50" xlink:href="#SimHei-32"/>
     </g>
    </g>
   </g>
   <g id="xtick_16">
    <g id="line2d_18">
     <path d="M 161.974472 267.618089 
L 157.725058 268.57131 
" style="fill:none;stroke:#000000;stroke-linecap:square;stroke-width:0.8;"/>
    </g>
    <g id="text_18">
     <!-- 14 -->
     <g transform="translate(141.07074 291.549608)scale(0.15 -0.15)">
      <use xlink:href="#SimHei-31"/>
      <use x="50" xlink:href="#SimHei-34"/>
     </g>
    </g>
   </g>
  </g>
  <g id="axis3d_3">
   <g id="line2d_19">
    <path d="M 58.794045 217.8137 
L 53.895826 67.034254 
" style="fill:none;stroke:#000000;stroke-linecap:square;stroke-width:0.8;"/>
   </g>
   <g id="text_19">
    <!-- coins of 静香 -->
    <defs>
     <path d="M 67.578125 78.90625 
Q 65.625 76.5625 64.640625 74.40625 
Q 63.671875 72.265625 62.890625 70.3125 
L 84.375 70.3125 
Q 82.03125 66.796875 80.078125 62.296875 
Q 78.125 57.8125 75.78125 52.734375 
L 90.234375 52.734375 
Q 89.84375 47.265625 89.84375 41.015625 
L 89.84375 36.71875 
Q 93.359375 36.71875 96.875 37.109375 
L 96.875 30.46875 
Q 94.140625 30.859375 89.84375 30.859375 
L 89.84375 25.390625 
Q 89.84375 17.578125 90.234375 10.546875 
L 83.203125 10.546875 
L 83.203125 14.84375 
L 72.265625 14.84375 
L 72.265625 0.390625 
Q 71.875 -4.6875 68.9375 -6.640625 
Q 66.015625 -8.59375 56.25 -9.375 
Q 56.25 -5.46875 53.90625 -1.171875 
Q 58.984375 -1.5625 62.296875 -1.171875 
Q 65.625 -0.78125 65.625 2.734375 
L 65.625 14.84375 
L 60.15625 14.84375 
Q 55.46875 14.84375 50.390625 14.453125 
L 50.390625 20.703125 
Q 55.078125 20.3125 60.15625 20.3125 
L 65.625 20.3125 
L 65.625 30.859375 
L 59.765625 30.859375 
Q 54.6875 30.859375 48.046875 30.46875 
L 48.046875 36.71875 
Q 53.515625 36.328125 60.15625 36.328125 
L 65.625 36.328125 
L 65.625 47.265625 
L 60.15625 47.265625 
Q 57.8125 47.265625 51.953125 46.875 
L 51.953125 51.953125 
Q 50.78125 50.78125 48.828125 48.4375 
Q 46.875 51.5625 44.140625 53.90625 
Q 50.390625 60.15625 53.703125 68.15625 
Q 57.03125 76.171875 58.984375 82.03125 
Q 62.890625 80.078125 67.578125 78.90625 
z
M 42.96875 36.328125 
Q 42.578125 30.859375 42.578125 25 
L 42.578125 1.171875 
Q 42.578125 -4.6875 39.453125 -6.25 
Q 36.328125 -7.8125 30.078125 -8.984375 
Q 29.6875 -5.46875 27.34375 -1.5625 
Q 36.328125 -1.5625 35.546875 1.953125 
L 35.546875 6.640625 
L 15.234375 6.640625 
L 15.234375 -8.203125 
L 8.203125 -8.203125 
Q 8.59375 -3.90625 8.59375 1.953125 
L 8.59375 25 
Q 8.59375 30.859375 8.203125 36.328125 
L 42.96875 36.328125 
z
M 21.875 71.09375 
Q 21.875 74.609375 21.484375 80.46875 
L 29.296875 80.46875 
Q 28.90625 74.609375 28.90625 71.09375 
L 33.984375 71.09375 
Q 39.453125 71.09375 46.875 71.484375 
L 46.875 65.234375 
Q 39.453125 65.625 33.984375 65.625 
L 28.90625 65.625 
L 28.90625 59.375 
L 33.984375 59.375 
Q 36.328125 59.375 42.578125 59.765625 
L 42.578125 53.515625 
Q 35.9375 53.90625 33.59375 53.90625 
L 28.90625 53.90625 
L 28.90625 47.65625 
L 35.15625 47.65625 
Q 40.625 47.65625 46.484375 48.046875 
L 46.484375 41.796875 
Q 40.234375 42.1875 35.15625 42.1875 
L 15.625 42.1875 
Q 9.375 42.1875 3.90625 41.796875 
L 3.90625 48.046875 
Q 9.375 47.65625 15.625 47.65625 
L 21.875 47.65625 
L 21.875 53.90625 
L 15.234375 53.90625 
Q 12.890625 53.90625 8.59375 53.515625 
L 8.59375 59.765625 
Q 12.890625 59.375 15.234375 59.375 
L 21.875 59.375 
L 21.875 65.625 
L 15.234375 65.625 
Q 10.15625 65.625 4.6875 65.234375 
L 4.6875 71.484375 
Q 10.15625 71.09375 15.234375 71.09375 
z
M 52.734375 53.515625 
Q 57.421875 53.125 64.453125 53.125 
L 68.359375 53.125 
Q 72.265625 61.328125 73.4375 64.84375 
L 60.15625 64.84375 
Q 55.078125 56.640625 52.734375 53.515625 
z
M 35.546875 12.109375 
L 35.546875 19.140625 
L 15.234375 19.140625 
L 15.234375 12.109375 
z
M 35.546875 24.609375 
L 35.546875 30.859375 
L 15.234375 30.859375 
L 15.234375 24.609375 
z
M 83.203125 36.328125 
L 83.203125 47.265625 
L 72.265625 47.265625 
L 72.265625 36.328125 
z
M 83.203125 20.3125 
L 83.203125 30.859375 
L 72.265625 30.859375 
L 72.265625 20.3125 
z
" id="SimHei-9759"/>
     <path d="M 45.703125 33.59375 
L 45.703125 53.90625 
Q 36.71875 44.140625 26.359375 38.28125 
Q 16.015625 32.421875 10.546875 30.078125 
Q 10.546875 33.203125 5.46875 36.71875 
Q 16.015625 39.453125 24.21875 44.53125 
Q 32.421875 49.609375 37.109375 54.296875 
L 21.484375 54.296875 
Q 14.84375 54.296875 7.8125 53.90625 
L 7.8125 60.15625 
Q 14.84375 59.765625 21.484375 59.765625 
L 45.703125 59.765625 
L 45.703125 69.921875 
Q 38.28125 69.140625 17.96875 67.578125 
Q 16.796875 71.09375 14.453125 74.609375 
Q 32.8125 74.609375 50.390625 76.953125 
Q 67.96875 79.296875 74.609375 82.03125 
Q 76.953125 78.125 81.25 73.828125 
Q 74.609375 73.4375 67.96875 72.65625 
Q 61.328125 71.875 52.34375 70.703125 
L 52.34375 59.765625 
L 78.125 59.765625 
Q 83.984375 59.765625 91.40625 60.15625 
L 91.40625 53.90625 
Q 84.375 54.296875 78.125 54.296875 
L 61.71875 54.296875 
Q 66.40625 48.4375 74.21875 43.15625 
Q 82.03125 37.890625 94.140625 34.765625 
Q 89.84375 31.640625 88.28125 26.953125 
Q 82.421875 29.296875 77.34375 32.03125 
Q 76.5625 25 76.5625 12.5 
Q 76.5625 -0.78125 76.953125 -8.984375 
L 69.53125 -8.984375 
L 69.53125 -3.125 
L 28.515625 -3.125 
L 28.515625 -9.375 
L 21.875 -9.375 
L 21.875 11.71875 
Q 21.875 25 21.484375 33.59375 
z
M 69.53125 17.96875 
L 69.53125 27.734375 
L 28.515625 27.734375 
L 28.515625 17.96875 
z
M 69.53125 2.734375 
L 69.53125 12.5 
L 28.515625 12.5 
L 28.515625 2.734375 
z
M 71.484375 35.9375 
Q 62.109375 42.578125 52.734375 54.296875 
L 52.34375 54.296875 
L 52.34375 33.59375 
L 75 33.59375 
z
" id="SimHei-9999"/>
    </defs>
    <g style="fill:#800080;" transform="translate(10.565293 102.842551)rotate(-271.860655)scale(0.12 -0.12)">
     <use xlink:href="#SimHei-63"/>
     <use x="50" xlink:href="#SimHei-6f"/>
     <use x="100" xlink:href="#SimHei-69"/>
     <use x="150" xlink:href="#SimHei-6e"/>
     <use x="200" xlink:href="#SimHei-73"/>
     <use x="250" xlink:href="#SimHei-20"/>
     <use x="300" xlink:href="#SimHei-6f"/>
     <use x="350" xlink:href="#SimHei-66"/>
     <use x="400" xlink:href="#SimHei-20"/>
     <use x="450" xlink:href="#SimHei-9759"/>
     <use x="550" xlink:href="#SimHei-9999"/>
    </g>
   </g>
   <g id="Line3DCollection_3">
    <path d="M 58.492454 208.529967 
L 219.669895 176.585888 
L 336.085066 224.233899 
" style="fill:none;stroke:#b0b0b0;stroke-width:0.8;"/>
    <path d="M 57.897709 190.222231 
L 219.769111 159.08724 
L 336.710174 205.533478 
" style="fill:none;stroke:#b0b0b0;stroke-width:0.8;"/>
    <path d="M 57.297781 171.754931 
L 219.869148 141.443949 
L 337.340869 186.665935 
" style="fill:none;stroke:#b0b0b0;stroke-width:0.8;"/>
    <path d="M 56.692601 153.125973 
L 219.970014 123.654212 
L 337.977226 167.629019 
" style="fill:none;stroke:#b0b0b0;stroke-width:0.8;"/>
    <path d="M 56.0821 134.333224 
L 220.071722 105.716199 
L 338.619321 148.42044 
" style="fill:none;stroke:#b0b0b0;stroke-width:0.8;"/>
    <path d="M 55.466207 115.374514 
L 220.17428 87.628049 
L 339.267233 129.037865 
" style="fill:none;stroke:#b0b0b0;stroke-width:0.8;"/>
    <path d="M 54.844852 96.247636 
L 220.277701 69.387869 
L 339.92104 109.478918 
" style="fill:none;stroke:#b0b0b0;stroke-width:0.8;"/>
    <path d="M 54.21796 76.950341 
L 220.381995 50.993734 
L 340.580823 89.741182 
" style="fill:none;stroke:#b0b0b0;stroke-width:0.8;"/>
   </g>
   <g id="xtick_17">
    <g id="line2d_20">
     <path d="M 59.850818 208.26075 
L 55.772207 209.069099 
" style="fill:none;stroke:#000000;stroke-linecap:square;stroke-width:0.8;"/>
    </g>
    <g id="text_20">
     <!-- 0 -->
     <g transform="translate(36.319991 217.800274)scale(0.15 -0.15)">
      <use xlink:href="#SimHei-30"/>
     </g>
    </g>
   </g>
   <g id="xtick_18">
    <g id="line2d_21">
     <path d="M 59.262222 189.959775 
L 55.165133 190.747826 
" style="fill:none;stroke:#000000;stroke-linecap:square;stroke-width:0.8;"/>
    </g>
    <g id="text_21">
     <!-- 2 -->
     <g transform="translate(35.646444 199.518717)scale(0.15 -0.15)">
      <use xlink:href="#SimHei-32"/>
     </g>
    </g>
   </g>
   <g id="xtick_19">
    <g id="line2d_22">
     <path d="M 58.668498 171.499365 
L 54.552763 172.266732 
" style="fill:none;stroke:#000000;stroke-linecap:square;stroke-width:0.8;"/>
    </g>
    <g id="text_22">
     <!-- 4 -->
     <g transform="translate(34.967036 181.078092)scale(0.15 -0.15)">
      <use xlink:href="#SimHei-34"/>
     </g>
    </g>
   </g>
   <g id="xtick_20">
    <g id="line2d_23">
     <path d="M 58.069579 152.877427 
L 53.935029 153.623718 
" style="fill:none;stroke:#000000;stroke-linecap:square;stroke-width:0.8;"/>
    </g>
    <g id="text_23">
     <!-- 6 -->
     <g transform="translate(34.281691 162.476316)scale(0.15 -0.15)">
      <use xlink:href="#SimHei-36"/>
     </g>
    </g>
   </g>
   <g id="xtick_21">
    <g id="line2d_24">
     <path d="M 57.465397 134.091831 
L 53.311858 134.816645 
" style="fill:none;stroke:#000000;stroke-linecap:square;stroke-width:0.8;"/>
    </g>
    <g id="text_24">
     <!-- 8 -->
     <g transform="translate(33.590331 143.711265)scale(0.15 -0.15)">
      <use xlink:href="#SimHei-38"/>
     </g>
    </g>
   </g>
   <g id="xtick_22">
    <g id="line2d_25">
     <path d="M 56.855881 115.140412 
L 52.683179 115.843338 
" style="fill:none;stroke:#000000;stroke-linecap:square;stroke-width:0.8;"/>
    </g>
    <g id="text_25">
     <!-- 10 -->
     <g transform="translate(29.142875 124.780781)scale(0.15 -0.15)">
      <use xlink:href="#SimHei-31"/>
      <use x="50" xlink:href="#SimHei-30"/>
     </g>
    </g>
   </g>
   <g id="xtick_23">
    <g id="line2d_26">
     <path d="M 56.240962 96.020962 
L 52.048919 96.701585 
" style="fill:none;stroke:#000000;stroke-linecap:square;stroke-width:0.8;"/>
    </g>
    <g id="text_26">
     <!-- 12 -->
     <g transform="translate(28.439244 105.682667)scale(0.15 -0.15)">
      <use xlink:href="#SimHei-31"/>
      <use x="50" xlink:href="#SimHei-32"/>
     </g>
    </g>
   </g>
   <g id="xtick_24">
    <g id="line2d_27">
     <path d="M 55.620566 76.731239 
L 51.409002 77.389131 
" style="fill:none;stroke:#000000;stroke-linecap:square;stroke-width:0.8;"/>
    </g>
    <g id="text_27">
     <!-- 14 -->
     <g transform="translate(27.729354 86.414686)scale(0.15 -0.15)">
      <use xlink:href="#SimHei-31"/>
      <use x="50" xlink:href="#SimHei-34"/>
     </g>
    </g>
   </g>
  </g>
  <g id="axes_1">
   <g id="Path3DCollection_1">
    <defs>
     <path d="M 0 5 
C 1.326016 5 2.597899 4.473168 3.535534 3.535534 
C 4.473168 2.597899 5 1.326016 5 0 
C 5 -1.326016 4.473168 -2.597899 3.535534 -3.535534 
C 2.597899 -4.473168 1.326016 -5 0 -5 
C -1.326016 -5 -2.597899 -4.473168 -3.535534 -3.535534 
C -4.473168 -2.597899 -5 -1.326016 -5 0 
C -5 1.326016 -4.473168 2.597899 -3.535534 3.535534 
C -2.597899 4.473168 -1.326016 5 0 5 
z
" id="m4d9089194e" style="stroke:#008000;"/>
    </defs>
    <g clip-path="url(#p009f39fc5f)">
     <use style="fill:#008000;stroke:#008000;" x="236.472307" xlink:href="#m4d9089194e" y="161.772958"/>
    </g>
   </g>
   <g id="Path3DCollection_2">
    <path clip-path="url(#p009f39fc5f)" d="M 224.398551 57.645583 
C 224.531152 57.645583 224.658341 57.5929 224.752104 57.499136 
C 224.845868 57.405373 224.898551 57.278185 224.898551 57.145583 
C 224.898551 57.012981 224.845868 56.885793 224.752104 56.79203 
C 224.658341 56.698266 224.531152 56.645583 224.398551 56.645583 
C 224.265949 56.645583 224.138761 56.698266 224.044997 56.79203 
C 223.951234 56.885793 223.898551 57.012981 223.898551 57.145583 
C 223.898551 57.278185 223.951234 57.405373 224.044997 57.499136 
C 224.138761 57.5929 224.265949 57.645583 224.398551 57.645583 
z
" style="fill:#ff0000;stroke:#ff0000;"/>
    <path clip-path="url(#p009f39fc5f)" d="M 231.385035 70.268767 
C 231.771631 70.268767 232.142446 70.115171 232.415811 69.841805 
C 232.689176 69.56844 232.842773 69.197626 232.842773 68.811029 
C 232.842773 68.424432 232.689176 68.053618 232.415811 67.780253 
C 232.142446 67.506888 231.771631 67.353291 231.385035 67.353291 
C 230.998438 67.353291 230.627623 67.506888 230.354258 67.780253 
C 230.080893 68.053618 229.927297 68.424432 229.927297 68.811029 
C 229.927297 69.197626 230.080893 69.56844 230.354258 69.841805 
C 230.627623 70.115171 230.998438 70.268767 231.385035 70.268767 
z
" style="fill:#ff0000;stroke:#ff0000;"/>
    <path clip-path="url(#p009f39fc5f)" d="M 238.409492 82.376996 
C 238.896701 82.376996 239.364021 82.183426 239.70853 81.838917 
C 240.053039 81.494408 240.246609 81.027088 240.246609 80.539879 
C 240.246609 80.05267 240.053039 79.58535 239.70853 79.240841 
C 239.364021 78.896332 238.896701 78.702762 238.409492 78.702762 
C 237.922282 78.702762 237.454962 78.896332 237.110453 79.240841 
C 236.765944 79.58535 236.572374 80.05267 236.572374 80.539879 
C 236.572374 81.027088 236.765944 81.494408 237.110453 81.838917 
C 237.454962 82.183426 237.922282 82.376996 238.409492 82.376996 
z
" style="fill:#ff0000;stroke:#ff0000;"/>
    <path clip-path="url(#p009f39fc5f)" d="M 245.472232 95.048346 
C 246.192442 95.048346 246.883252 94.762203 247.392518 94.252937 
C 247.901784 93.743671 248.187927 93.052862 248.187927 92.332651 
C 248.187927 91.61244 247.901784 90.92163 247.392518 90.412364 
C 246.883252 89.903099 246.192442 89.616956 245.472232 89.616956 
C 244.752021 89.616956 244.061211 89.903099 243.551945 90.412364 
C 243.042679 90.92163 242.756536 91.61244 242.756536 92.332651 
C 242.756536 93.052862 243.042679 93.743671 243.551945 94.252937 
C 244.061211 94.762203 244.752021 95.048346 245.472232 95.048346 
z
" style="fill:#ff0000;stroke:#ff0000;"/>
    <path clip-path="url(#p009f39fc5f)" d="M 252.573569 107.617696 
C 253.482639 107.617696 254.354599 107.256519 254.997409 106.613709 
C 255.640219 105.970899 256.001396 105.09894 256.001396 104.189869 
C 256.001396 103.280799 255.640219 102.408839 254.997409 101.766029 
C 254.354599 101.123219 253.482639 100.762042 252.573569 100.762042 
C 251.664498 100.762042 250.792539 101.123219 250.149729 101.766029 
C 249.506919 102.408839 249.145741 103.280799 249.145741 104.189869 
C 249.145741 105.09894 249.506919 105.970899 250.149729 106.613709 
C 250.792539 107.256519 251.664498 107.617696 252.573569 107.617696 
z
" style="fill:#ff0000;stroke:#ff0000;"/>
    <path clip-path="url(#p009f39fc5f)" d="M 259.71382 120.427732 
C 260.858349 120.427732 261.956155 119.973006 262.765459 119.163702 
C 263.574763 118.354398 264.029489 117.256592 264.029489 116.112063 
C 264.029489 114.967534 263.574763 113.869728 262.765459 113.060424 
C 261.956155 112.25112 260.858349 111.796394 259.71382 111.796394 
C 258.569291 111.796394 257.471485 112.25112 256.662181 113.060424 
C 255.852877 113.869728 255.398151 114.967534 255.398151 116.112063 
C 255.398151 117.256592 255.852877 118.354398 256.662181 119.163702 
C 257.471485 119.973006 258.569291 120.427732 259.71382 120.427732 
z
" style="fill:#ff0000;stroke:#ff0000;"/>
    <path clip-path="url(#p009f39fc5f)" d="M 266.893307 133.645037 
C 268.363929 133.645037 269.774517 133.060753 270.814404 132.020866 
C 271.854291 130.980978 272.438575 129.570391 272.438575 128.099769 
C 272.438575 126.629146 271.854291 125.218559 270.814404 124.178672 
C 269.774517 123.138785 268.363929 122.5545 266.893307 122.5545 
C 265.422684 122.5545 264.012097 123.138785 262.97221 124.178672 
C 261.932323 125.218559 261.348038 126.629146 261.348038 128.099769 
C 261.348038 129.570391 261.932323 130.980978 262.97221 132.020866 
C 264.012097 133.060753 265.422684 133.645037 266.893307 133.645037 
z
" style="fill:#ff0000;stroke:#ff0000;"/>
    <path clip-path="url(#p009f39fc5f)" d="M 274.112353 146.378477 
C 275.763229 146.378477 277.346711 145.722577 278.514057 144.555231 
C 279.681402 143.387886 280.337302 141.804403 280.337302 140.153527 
C 280.337302 138.502651 279.681402 136.919169 278.514057 135.751823 
C 277.346711 134.584477 275.763229 133.928577 274.112353 133.928577 
C 272.461477 133.928577 270.877994 134.584477 269.710648 135.751823 
C 268.543303 136.919169 267.887403 138.502651 267.887403 140.153527 
C 267.887403 141.804403 268.543303 143.387886 269.710648 144.555231 
C 270.877994 145.722577 272.461477 146.378477 274.112353 146.378477 
z
" style="fill:#ff0000;stroke:#ff0000;"/>
    <path clip-path="url(#p009f39fc5f)" d="M 281.371286 158.200521 
C 282.943048 158.200521 284.450646 157.576053 285.562049 156.46465 
C 286.673453 155.353246 287.297921 153.845648 287.297921 152.273886 
C 287.297921 150.702124 286.673453 149.194526 285.562049 148.083122 
C 284.450646 146.971719 282.943048 146.347251 281.371286 146.347251 
C 279.799524 146.347251 278.291926 146.971719 277.180522 148.083122 
C 276.069119 149.194526 275.444651 150.702124 275.444651 152.273886 
C 275.444651 153.845648 276.069119 155.353246 277.180522 156.46465 
C 278.291926 157.576053 279.799524 158.200521 281.371286 158.200521 
z
" style="fill:#ff0000;stroke:#ff0000;"/>
    <path clip-path="url(#p009f39fc5f)" d="M 288.670438 169.597058 
C 290.032431 169.597058 291.338823 169.055933 292.301897 168.092858 
C 293.264972 167.129784 293.806097 165.823392 293.806097 164.461399 
C 293.806097 163.099406 293.264972 161.793013 292.301897 160.829939 
C 291.338823 159.866865 290.032431 159.325739 288.670438 159.325739 
C 287.308445 159.325739 286.002052 159.866865 285.038978 160.829939 
C 284.075904 161.793013 283.534778 163.099406 283.534778 164.461399 
C 283.534778 165.823392 284.075904 167.129784 285.038978 168.092858 
C 286.002052 169.055933 287.308445 169.597058 288.670438 169.597058 
z
" style="fill:#ff0000;stroke:#ff0000;"/>
    <path clip-path="url(#p009f39fc5f)" d="M 296.010143 180.778644 
C 297.087404 180.778644 298.120687 180.350644 298.882425 179.588906 
C 299.644163 178.827168 300.072163 177.793885 300.072163 176.716625 
C 300.072163 175.639365 299.644163 174.606081 298.882425 173.844344 
C 298.120687 173.082606 297.087404 172.654606 296.010143 172.654606 
C 294.932883 172.654606 293.8996 173.082606 293.137862 173.844344 
C 292.376124 174.606081 291.948124 175.639365 291.948124 176.716625 
C 291.948124 177.793885 292.376124 178.827168 293.137862 179.588906 
C 293.8996 180.350644 294.932883 180.778644 296.010143 180.778644 
z
" style="fill:#ff0000;stroke:#ff0000;"/>
    <path clip-path="url(#p009f39fc5f)" d="M 303.390742 191.93409 
C 304.158229 191.93409 304.894385 191.629164 305.43708 191.086469 
C 305.979775 190.543773 306.284701 189.807617 306.284701 189.04013 
C 306.284701 188.272644 305.979775 187.536488 305.43708 186.993792 
C 304.894385 186.451097 304.158229 186.146171 303.390742 186.146171 
C 302.623255 186.146171 301.887099 186.451097 301.344404 186.993792 
C 300.801709 187.536488 300.496783 188.272644 300.496783 189.04013 
C 300.496783 189.807617 300.801709 190.543773 301.344404 191.086469 
C 301.887099 191.629164 302.623255 191.93409 303.390742 191.93409 
z
" style="fill:#ff0000;stroke:#ff0000;"/>
    <path clip-path="url(#p009f39fc5f)" d="M 310.812576 203.432488 
C 311.342982 203.432488 311.851736 203.221755 312.22679 202.846701 
C 312.601844 202.471647 312.812576 201.962894 312.812576 201.432488 
C 312.812576 200.902082 312.601844 200.393328 312.22679 200.018274 
C 311.851736 199.64322 311.342982 199.432488 310.812576 199.432488 
C 310.28217 199.432488 309.773416 199.64322 309.398363 200.018274 
C 309.023309 200.393328 308.812576 200.902082 308.812576 201.432488 
C 308.812576 201.962894 309.023309 202.471647 309.398363 202.846701 
C 309.773416 203.221755 310.28217 203.432488 310.812576 203.432488 
z
" style="fill:#ff0000;stroke:#ff0000;"/>
    <path clip-path="url(#p009f39fc5f)" d="M 318.275992 214.954935 
C 318.557283 214.954935 318.82709 214.843178 319.025992 214.644275 
C 319.224895 214.445373 319.336653 214.175566 319.336653 213.894275 
C 319.336653 213.612985 319.224895 213.343178 319.025992 213.144275 
C 318.82709 212.945373 318.557283 212.833615 318.275992 212.833615 
C 317.994702 212.833615 317.724895 212.945373 317.525992 213.144275 
C 317.32709 213.343178 317.215332 213.612985 317.215332 213.894275 
C 317.215332 214.175566 317.32709 214.445373 317.525992 214.644275 
C 317.724895 214.843178 317.994702 214.954935 318.275992 214.954935 
z
" style="fill:#ff0000;stroke:#ff0000;"/>
    <path clip-path="url(#p009f39fc5f)" d="M 207.466343 56.784258 
C 207.560106 56.784258 207.650042 56.747006 207.716343 56.680705 
C 207.782644 56.614404 207.819896 56.524468 207.819896 56.430705 
C 207.819896 56.336941 207.782644 56.247006 207.716343 56.180705 
C 207.650042 56.114404 207.560106 56.077151 207.466343 56.077151 
C 207.372579 56.077151 207.282644 56.114404 207.216343 56.180705 
C 207.150042 56.247006 207.11279 56.336941 207.11279 56.430705 
C 207.11279 56.524468 207.150042 56.614404 207.216343 56.680705 
C 207.282644 56.747006 207.372579 56.784258 207.466343 56.784258 
z
" style="fill:#ff0000;stroke:#ff0000;"/>
    <path clip-path="url(#p009f39fc5f)" d="M 197.459219 68.4623 
C 197.755725 68.4623 198.040127 68.344497 198.249788 68.134835 
C 198.45945 67.925174 198.577253 67.640772 198.577253 67.344266 
C 198.577253 67.04776 198.45945 66.763358 198.249788 66.553697 
C 198.040127 66.344035 197.755725 66.226232 197.459219 66.226232 
C 197.162713 66.226232 196.878311 66.344035 196.668649 66.553697 
C 196.458988 66.763358 196.341185 67.04776 196.341185 67.344266 
C 196.341185 67.640772 196.458988 67.925174 196.668649 68.134835 
C 196.878311 68.344497 197.162713 68.4623 197.459219 68.4623 
z
" style="fill:#ff0000;stroke:#ff0000;"/>
    <path clip-path="url(#p009f39fc5f)" d="M 187.428275 79.903989 
C 187.857954 79.903989 188.270091 79.733276 188.573919 79.429448 
C 188.877748 79.125619 189.048461 78.713482 189.048461 78.283804 
C 189.048461 77.854126 188.877748 77.441988 188.573919 77.13816 
C 188.270091 76.834332 187.857954 76.663619 187.428275 76.663619 
C 186.998597 76.663619 186.58646 76.834332 186.282631 77.13816 
C 185.978803 77.441988 185.80809 77.854126 185.80809 78.283804 
C 185.80809 78.713482 185.978803 79.125619 186.282631 79.429448 
C 186.58646 79.733276 186.998597 79.903989 187.428275 79.903989 
z
" style="fill:#ff0000;stroke:#ff0000;"/>
    <path clip-path="url(#p009f39fc5f)" d="M 177.373428 91.621119 
C 178.002412 91.621119 178.60572 91.371221 179.050479 90.926462 
C 179.495238 90.481703 179.745136 89.878396 179.745136 89.249411 
C 179.745136 88.620427 179.495238 88.017119 179.050479 87.57236 
C 178.60572 87.127601 178.002412 86.877703 177.373428 86.877703 
C 176.744443 86.877703 176.141136 87.127601 175.696377 87.57236 
C 175.251618 88.017119 175.001719 88.620427 175.001719 89.249411 
C 175.001719 89.878396 175.251618 90.481703 175.696377 90.926462 
C 176.141136 91.371221 176.744443 91.621119 177.373428 91.621119 
z
" style="fill:#ff0000;stroke:#ff0000;"/>
    <path clip-path="url(#p009f39fc5f)" d="M 167.29459 102.61289 
C 167.923574 102.61289 168.526882 102.362992 168.971641 101.918233 
C 169.4164 101.473473 169.666298 100.870166 169.666298 100.241182 
C 169.666298 99.612197 169.4164 99.00889 168.971641 98.564131 
C 168.526882 98.119371 167.923574 97.869473 167.29459 97.869473 
C 166.665606 97.869473 166.062298 98.119371 165.617539 98.564131 
C 165.17278 99.00889 164.922882 99.612197 164.922882 100.241182 
C 164.922882 100.870166 165.17278 101.473473 165.617539 101.918233 
C 166.062298 102.362992 166.665606 102.61289 167.29459 102.61289 
z
" style="fill:#ff0000;stroke:#ff0000;"/>
    <path clip-path="url(#p009f39fc5f)" d="M 157.191676 114.259209 
C 157.987286 114.259209 158.750416 113.94311 159.312997 113.380529 
C 159.875578 112.817948 160.191676 112.054818 160.191676 111.259209 
C 160.191676 110.463599 159.875578 109.700469 159.312997 109.137888 
C 158.750416 108.575307 157.987286 108.259209 157.191676 108.259209 
C 156.396067 108.259209 155.632937 108.575307 155.070356 109.137888 
C 154.507775 109.700469 154.191676 110.463599 154.191676 111.259209 
C 154.191676 112.054818 154.507775 112.817948 155.070356 113.380529 
C 155.632937 113.94311 156.396067 114.259209 157.191676 114.259209 
z
" style="fill:#ff0000;stroke:#ff0000;"/>
    <path clip-path="url(#p009f39fc5f)" d="M 147.064601 125.344968 
C 147.871184 125.344968 148.644841 125.024509 149.215182 124.454168 
C 149.785523 123.883827 150.105982 123.11017 150.105982 122.303586 
C 150.105982 121.497003 149.785523 120.723346 149.215182 120.153005 
C 148.644841 119.582664 147.871184 119.262205 147.064601 119.262205 
C 146.258017 119.262205 145.48436 119.582664 144.914019 120.153005 
C 144.343678 120.723346 144.023219 121.497003 144.023219 122.303586 
C 144.023219 123.11017 144.343678 123.883827 144.914019 124.454168 
C 145.48436 125.024509 146.258017 125.344968 147.064601 125.344968 
z
" style="fill:#ff0000;stroke:#ff0000;"/>
    <path clip-path="url(#p009f39fc5f)" d="M 136.913276 136.246691 
C 137.675014 136.246691 138.405655 135.944049 138.944285 135.405419 
C 139.482915 134.866789 139.785557 134.136148 139.785557 133.37441 
C 139.785557 132.612672 139.482915 131.88203 138.944285 131.3434 
C 138.405655 130.80477 137.675014 130.502128 136.913276 130.502128 
C 136.151538 130.502128 135.420896 130.80477 134.882266 131.3434 
C 134.343636 131.88203 134.040994 132.612672 134.040994 133.37441 
C 134.040994 134.136148 134.343636 134.866789 134.882266 135.405419 
C 135.420896 135.944049 136.151538 136.246691 136.913276 136.246691 
z
" style="fill:#ff0000;stroke:#ff0000;"/>
    <path clip-path="url(#p009f39fc5f)" d="M 126.737615 147.408609 
C 127.516472 147.408609 128.263535 147.099165 128.814271 146.54843 
C 129.365006 145.997694 129.67445 145.250631 129.67445 144.471774 
C 129.67445 143.692916 129.365006 142.945853 128.814271 142.395118 
C 128.263535 141.844382 127.516472 141.534939 126.737615 141.534939 
C 125.958757 141.534939 125.211694 141.844382 124.660959 142.395118 
C 124.110223 142.945853 123.80078 143.692916 123.80078 144.471774 
C 123.80078 145.250631 124.110223 145.997694 124.660959 146.54843 
C 125.211694 147.099165 125.958757 147.408609 126.737615 147.408609 
z
" style="fill:#ff0000;stroke:#ff0000;"/>
    <path clip-path="url(#p009f39fc5f)" d="M 116.53753 158.019614 
C 117.18034 158.019614 117.796908 157.764223 118.251443 157.309687 
C 118.705979 156.855152 118.96137 156.238584 118.96137 155.595774 
C 118.96137 154.952964 118.705979 154.336395 118.251443 153.88186 
C 117.796908 153.427325 117.18034 153.171934 116.53753 153.171934 
C 115.89472 153.171934 115.278151 153.427325 114.823616 153.88186 
C 114.369081 154.336395 114.11369 154.952964 114.11369 155.595774 
C 114.11369 156.238584 114.369081 156.855152 114.823616 157.309687 
C 115.278151 157.764223 115.89472 158.019614 116.53753 158.019614 
z
" style="fill:#ff0000;stroke:#ff0000;"/>
    <path clip-path="url(#p009f39fc5f)" d="M 106.312933 168.514273 
C 106.78175 168.514273 107.231429 168.32801 107.562933 167.996506 
C 107.894437 167.665002 108.0807 167.215323 108.0807 166.746506 
C 108.0807 166.277689 107.894437 165.82801 107.562933 165.496506 
C 107.231429 165.165002 106.78175 164.978739 106.312933 164.978739 
C 105.844116 164.978739 105.394437 165.165002 105.062933 165.496506 
C 104.731429 165.82801 104.545166 166.277689 104.545166 166.746506 
C 104.545166 167.215323 104.731429 167.665002 105.062933 167.996506 
C 105.394437 168.32801 105.844116 168.514273 106.312933 168.514273 
z
" style="fill:#ff0000;stroke:#ff0000;"/>
    <path clip-path="url(#p009f39fc5f)" d="M 96.063736 179.293373 
C 96.42688 179.293373 96.7752 179.149095 97.031982 178.892313 
C 97.288763 178.635531 97.433042 178.287211 97.433042 177.924067 
C 97.433042 177.560923 97.288763 177.212603 97.031982 176.955821 
C 96.7752 176.699039 96.42688 176.554761 96.063736 176.554761 
C 95.700591 176.554761 95.352272 176.699039 95.09549 176.955821 
C 94.838708 177.212603 94.694429 177.560923 94.694429 177.924067 
C 94.694429 178.287211 94.838708 178.635531 95.09549 178.892313 
C 95.352272 179.149095 95.700591 179.293373 96.063736 179.293373 
z
" style="fill:#ff0000;stroke:#ff0000;"/>
    <path clip-path="url(#p009f39fc5f)" d="M 85.789849 190.128553 
C 86.055052 190.128553 86.309429 190.023187 86.496956 189.83566 
C 86.684483 189.648133 86.789849 189.393757 86.789849 189.128553 
C 86.789849 188.86335 86.684483 188.608974 86.496956 188.421447 
C 86.309429 188.23392 86.055052 188.128553 85.789849 188.128553 
C 85.524646 188.128553 85.270269 188.23392 85.082743 188.421447 
C 84.895216 188.608974 84.789849 188.86335 84.789849 189.128553 
C 84.789849 189.393757 84.895216 189.648133 85.082743 189.83566 
C 85.270269 190.023187 85.524646 190.128553 85.789849 190.128553 
z
" style="fill:#ff0000;stroke:#ff0000;"/>
    <path clip-path="url(#p009f39fc5f)" d="M 75.491184 201.06717 
C 75.678711 201.06717 75.858583 200.992664 75.991184 200.860063 
C 76.123786 200.727461 76.198291 200.54759 76.198291 200.360063 
C 76.198291 200.172536 76.123786 199.992664 75.991184 199.860063 
C 75.858583 199.727461 75.678711 199.652956 75.491184 199.652956 
C 75.303657 199.652956 75.123786 199.727461 74.991184 199.860063 
C 74.858583 199.992664 74.784077 200.172536 74.784077 200.360063 
C 74.784077 200.54759 74.858583 200.727461 74.991184 200.860063 
C 75.123786 200.992664 75.303657 201.06717 75.491184 201.06717 
z
" style="fill:#ff0000;stroke:#ff0000;"/>
    <path clip-path="url(#p009f39fc5f)" d="M 308.024995 226.417209 
C 308.290198 226.417209 308.544575 226.311843 308.732102 226.124316 
C 308.919628 225.936789 309.024995 225.682412 309.024995 225.417209 
C 309.024995 225.152006 308.919628 224.897629 308.732102 224.710102 
C 308.544575 224.522576 308.290198 224.417209 308.024995 224.417209 
C 307.759792 224.417209 307.505415 224.522576 307.317888 224.710102 
C 307.130361 224.897629 307.024995 225.152006 307.024995 225.417209 
C 307.024995 225.682412 307.130361 225.936789 307.317888 226.124316 
C 307.505415 226.311843 307.759792 226.417209 308.024995 226.417209 
z
" style="fill:#ff0000;stroke:#ff0000;"/>
    <path clip-path="url(#p009f39fc5f)" d="M 290.324347 226.411505 
C 290.854753 226.411505 291.363507 226.200772 291.738561 225.825718 
C 292.113615 225.450665 292.324347 224.941911 292.324347 224.411505 
C 292.324347 223.881099 292.113615 223.372345 291.738561 222.997291 
C 291.363507 222.622238 290.854753 222.411505 290.324347 222.411505 
C 289.793941 222.411505 289.285187 222.622238 288.910134 222.997291 
C 288.53508 223.372345 288.324347 223.881099 288.324347 224.411505 
C 288.324347 224.941911 288.53508 225.450665 288.910134 225.825718 
C 289.285187 226.200772 289.793941 226.411505 290.324347 226.411505 
z
" style="fill:#ff0000;stroke:#ff0000;"/>
    <path clip-path="url(#p009f39fc5f)" d="M 272.679137 226.531449 
C 273.507233 226.531449 274.301524 226.202443 274.887077 225.616891 
C 275.472629 225.031338 275.801636 224.237047 275.801636 223.40895 
C 275.801636 222.580854 275.472629 221.786563 274.887077 221.20101 
C 274.301524 220.615458 273.507233 220.286451 272.679137 220.286451 
C 271.85104 220.286451 271.056749 220.615458 270.471196 221.20101 
C 269.885644 221.786563 269.556638 222.580854 269.556638 223.40895 
C 269.556638 224.237047 269.885644 225.031338 270.471196 225.616891 
C 271.056749 226.202443 271.85104 226.531449 272.679137 226.531449 
z
" style="fill:#ff0000;stroke:#ff0000;"/>
    <path clip-path="url(#p009f39fc5f)" d="M 255.089103 225.909531 
C 256.017314 225.909531 256.907633 225.540749 257.563977 224.884405 
C 258.220321 224.228061 258.589103 223.337742 258.589103 222.409531 
C 258.589103 221.48132 258.220321 220.591001 257.563977 219.934657 
C 256.907633 219.278313 256.017314 218.909531 255.089103 218.909531 
C 254.160892 218.909531 253.270574 219.278313 252.614229 219.934657 
C 251.957885 220.591001 251.589103 221.48132 251.589103 222.409531 
C 251.589103 223.337742 251.957885 224.228061 252.614229 224.884405 
C 253.270574 225.540749 254.160892 225.909531 255.089103 225.909531 
z
" style="fill:#ff0000;stroke:#ff0000;"/>
    <path clip-path="url(#p009f39fc5f)" d="M 237.553988 225.253805 
C 238.57252 225.253805 239.549473 224.849138 240.269683 224.128927 
C 240.989894 223.408716 241.394561 222.431764 241.394561 221.413232 
C 241.394561 220.3947 240.989894 219.417747 240.269683 218.697537 
C 239.549473 217.977326 238.57252 217.572659 237.553988 217.572659 
C 236.535456 217.572659 235.558504 217.977326 234.838293 218.697537 
C 234.118082 219.417747 233.713415 220.3947 233.713415 221.413232 
C 233.713415 222.431764 234.118082 223.408716 234.838293 224.128927 
C 235.558504 224.849138 236.535456 225.253805 237.553988 225.253805 
z
" style="fill:#ff0000;stroke:#ff0000;"/>
    <path clip-path="url(#p009f39fc5f)" d="M 220.073535 224.618252 
C 221.186915 224.618252 222.254843 224.175902 223.042121 223.388624 
C 223.829399 222.601346 224.271749 221.533418 224.271749 220.420038 
C 224.271749 219.306659 223.829399 218.238731 223.042121 217.451453 
C 222.254843 216.664175 221.186915 216.221825 220.073535 216.221825 
C 218.960156 216.221825 217.892228 216.664175 217.10495 217.451453 
C 216.317672 218.238731 215.875321 219.306659 215.875321 220.420038 
C 215.875321 221.533418 216.317672 222.601346 217.10495 223.388624 
C 217.892228 224.175902 218.960156 224.618252 220.073535 224.618252 
z
" style="fill:#ff0000;stroke:#ff0000;"/>
    <path clip-path="url(#p009f39fc5f)" d="M 202.647489 223.414281 
C 203.704149 223.414281 204.717674 222.994465 205.464846 222.247293 
C 206.212017 221.500121 206.631833 220.486597 206.631833 219.429936 
C 206.631833 218.373276 206.212017 217.359751 205.464846 216.612579 
C 204.717674 215.865408 203.704149 215.445592 202.647489 215.445592 
C 201.590828 215.445592 200.577304 215.865408 199.830132 216.612579 
C 199.08296 217.359751 198.663144 218.373276 198.663144 219.429936 
C 198.663144 220.486597 199.08296 221.500121 199.830132 222.247293 
C 200.577304 222.994465 201.590828 223.414281 202.647489 223.414281 
z
" style="fill:#ff0000;stroke:#ff0000;"/>
    <path clip-path="url(#p009f39fc5f)" d="M 185.275595 221.702512 
C 186.140052 221.702512 186.969219 221.35906 187.580482 220.747797 
C 188.191744 220.136534 188.535197 219.307367 188.535197 218.442911 
C 188.535197 217.578455 188.191744 216.749288 187.580482 216.138025 
C 186.969219 215.526762 186.140052 215.18331 185.275595 215.18331 
C 184.411139 215.18331 183.581972 215.526762 182.970709 216.138025 
C 182.359446 216.749288 182.015994 217.578455 182.015994 218.442911 
C 182.015994 219.307367 182.359446 220.136534 182.970709 220.747797 
C 183.581972 221.35906 184.411139 221.702512 185.275595 221.702512 
z
" style="fill:#ff0000;stroke:#ff0000;"/>
    <path clip-path="url(#p009f39fc5f)" d="M 167.957603 220.458948 
C 168.753212 220.458948 169.516343 220.142849 170.078923 219.580268 
C 170.641504 219.017688 170.957603 218.254557 170.957603 217.458948 
C 170.957603 216.663339 170.641504 215.900209 170.078923 215.337628 
C 169.516343 214.775047 168.753212 214.458948 167.957603 214.458948 
C 167.161994 214.458948 166.398863 214.775047 165.836283 215.337628 
C 165.273702 215.900209 164.957603 216.663339 164.957603 217.458948 
C 164.957603 218.254557 165.273702 219.017688 165.836283 219.580268 
C 166.398863 220.142849 167.161994 220.458948 167.957603 220.458948 
z
" style="fill:#ff0000;stroke:#ff0000;"/>
    <path clip-path="url(#p009f39fc5f)" d="M 150.693261 218.952907 
C 151.349605 218.952907 151.979156 218.692139 152.443261 218.228034 
C 152.907367 217.763928 153.168135 217.134378 153.168135 216.478034 
C 153.168135 215.821689 152.907367 215.192139 152.443261 214.728034 
C 151.979156 214.263928 151.349605 214.00316 150.693261 214.00316 
C 150.036917 214.00316 149.407367 214.263928 148.943261 214.728034 
C 148.479156 215.192139 148.218387 215.821689 148.218387 216.478034 
C 148.218387 217.134378 148.479156 217.763928 148.943261 218.228034 
C 149.407367 218.692139 150.036917 218.952907 150.693261 218.952907 
z
" style="fill:#ff0000;stroke:#ff0000;"/>
    <path clip-path="url(#p009f39fc5f)" d="M 133.482321 217.531163 
C 134.020951 217.531163 134.537593 217.317163 134.918462 216.936294 
C 135.299331 216.555425 135.513331 216.038783 135.513331 215.500153 
C 135.513331 214.961523 135.299331 214.444882 134.918462 214.064013 
C 134.537593 213.683144 134.020951 213.469144 133.482321 213.469144 
C 132.943691 213.469144 132.427049 213.683144 132.04618 214.064013 
C 131.665311 214.444882 131.451311 214.961523 131.451311 215.500153 
C 131.451311 216.038783 131.665311 216.555425 132.04618 216.936294 
C 132.427049 217.317163 132.943691 217.531163 133.482321 217.531163 
z
" style="fill:#ff0000;stroke:#ff0000;"/>
    <path clip-path="url(#p009f39fc5f)" d="M 116.324535 215.983031 
C 116.711132 215.983031 117.081946 215.829434 117.355311 215.556069 
C 117.628676 215.282704 117.782273 214.91189 117.782273 214.525293 
C 117.782273 214.138696 117.628676 213.767882 117.355311 213.494517 
C 117.081946 213.221151 116.711132 213.067555 116.324535 213.067555 
C 115.937938 213.067555 115.567124 213.221151 115.293758 213.494517 
C 115.020393 213.767882 114.866797 214.138696 114.866797 214.525293 
C 114.866797 214.91189 115.020393 215.282704 115.293758 215.556069 
C 115.567124 215.829434 115.937938 215.983031 116.324535 215.983031 
z
" style="fill:#ff0000;stroke:#ff0000;"/>
    <path clip-path="url(#p009f39fc5f)" d="M 99.219657 214.165811 
C 99.38206 214.165811 99.537834 214.101288 99.65267 213.986451 
C 99.767506 213.871615 99.83203 213.715842 99.83203 213.553439 
C 99.83203 213.391036 99.767506 213.235262 99.65267 213.120426 
C 99.537834 213.00559 99.38206 212.941066 99.219657 212.941066 
C 99.057254 212.941066 98.901481 213.00559 98.786644 213.120426 
C 98.671808 213.235262 98.607285 213.391036 98.607285 213.553439 
C 98.607285 213.715842 98.671808 213.871615 98.786644 213.986451 
C 98.901481 214.101288 99.057254 214.165811 99.219657 214.165811 
z
" style="fill:#ff0000;stroke:#ff0000;"/>
    <path clip-path="url(#p009f39fc5f)" d="M 82.167443 212.93813 
C 82.261207 212.93813 82.351143 212.900878 82.417443 212.834577 
C 82.483744 212.768276 82.520997 212.67834 82.520997 212.584577 
C 82.520997 212.490813 82.483744 212.400878 82.417443 212.334577 
C 82.351143 212.268276 82.261207 212.231023 82.167443 212.231023 
C 82.07368 212.231023 81.983744 212.268276 81.917443 212.334577 
C 81.851143 212.400878 81.81389 212.490813 81.81389 212.584577 
C 81.81389 212.67834 81.851143 212.768276 81.917443 212.834577 
C 81.983744 212.900878 82.07368 212.93813 82.167443 212.93813 
z
" style="fill:#ff0000;stroke:#ff0000;"/>
   </g>
   <g id="legend_1">
    <g id="patch_6">
     <path d="M 21.2 291.2 
L 294.2 291.2 
Q 297.2 291.2 297.2 288.2 
L 297.2 249.95 
Q 297.2 246.95 294.2 246.95 
L 21.2 246.95 
Q 18.2 246.95 18.2 249.95 
L 18.2 288.2 
Q 18.2 291.2 21.2 291.2 
z
" style="fill:#ffffff;opacity:0.8;stroke:#cccccc;stroke-linejoin:miter;"/>
    </g>
    <g id="Path3DCollection_3">
     <defs>
      <path d="M 0 4.408798 
C 1.169227 4.408798 2.290723 3.944259 3.117491 3.117491 
C 3.944259 2.290723 4.408798 1.169227 4.408798 0 
C 4.408798 -1.169227 3.944259 -2.290723 3.117491 -3.117491 
C 2.290723 -3.944259 1.169227 -4.408798 0 -4.408798 
C -1.169227 -4.408798 -2.290723 -3.944259 -3.117491 -3.117491 
C -3.944259 -2.290723 -4.408798 -1.169227 -4.408798 0 
C -4.408798 1.169227 -3.944259 2.290723 -3.117491 3.117491 
C -2.290723 3.944259 -1.169227 4.408798 0 4.408798 
z
" id="ma5539080dc" style="stroke:#ff0000;"/>
     </defs>
     <g>
      <use style="fill:#ff0000;stroke:#ff0000;" x="39.2" xlink:href="#ma5539080dc" y="259.5125"/>
     </g>
    </g>
    <g id="text_28">
     <!-- probability of absorbing state -->
     <defs>
      <path d="M 44.140625 23.828125 
Q 44.140625 12.5 38.671875 6.640625 
Q 33.203125 0.78125 25.390625 0.78125 
Q 21.09375 0.78125 17.96875 2.53125 
Q 14.84375 4.296875 12.5 7.8125 
L 12.5 -12.5 
L 4.6875 -12.5 
L 4.6875 45.703125 
L 12.5 45.703125 
L 12.5 39.84375 
Q 14.84375 43.359375 17.96875 44.921875 
Q 21.09375 46.484375 25.390625 46.484375 
Q 33.203125 46.484375 38.671875 40.8125 
Q 44.140625 35.15625 44.140625 23.828125 
z
M 35.546875 23.828125 
Q 35.546875 31.25 32.609375 35.34375 
Q 29.6875 39.453125 23.828125 39.453125 
Q 19.140625 39.453125 15.8125 35.34375 
Q 12.5 31.25 12.5 23.828125 
Q 12.5 16.40625 15.8125 12.109375 
Q 19.140625 7.8125 23.828125 7.8125 
Q 29.6875 7.8125 32.609375 12.109375 
Q 35.546875 16.40625 35.546875 23.828125 
z
" id="SimHei-70"/>
      <path d="M 39.0625 37.890625 
Q 31.640625 39.0625 26.5625 35.734375 
Q 21.484375 32.421875 17.96875 24.21875 
L 17.96875 1.953125 
L 10.15625 1.953125 
L 10.15625 45.703125 
L 17.96875 45.703125 
L 17.96875 34.375 
Q 21.484375 40.625 26.75 43.546875 
Q 32.03125 46.484375 39.0625 46.484375 
z
" id="SimHei-72"/>
      <path d="M 44.140625 23.828125 
Q 44.140625 12.5 38.671875 6.828125 
Q 33.203125 1.171875 25.390625 1.171875 
Q 21.09375 1.171875 17.96875 2.734375 
Q 14.84375 4.296875 12.5 7.8125 
L 12.5 1.953125 
L 4.6875 1.953125 
L 4.6875 68.75 
L 12.5 68.75 
L 12.5 39.84375 
Q 14.84375 43.359375 17.96875 45.109375 
Q 21.09375 46.875 25.390625 46.875 
Q 33.203125 46.875 38.671875 41.015625 
Q 44.140625 35.15625 44.140625 23.828125 
z
M 35.546875 23.828125 
Q 35.546875 31.25 32.609375 35.546875 
Q 29.6875 39.84375 23.828125 39.84375 
Q 19.140625 39.84375 15.8125 35.546875 
Q 12.5 31.25 12.5 23.828125 
Q 12.5 16.40625 15.8125 12.296875 
Q 19.140625 8.203125 23.828125 8.203125 
Q 29.6875 8.203125 32.609375 12.296875 
Q 35.546875 16.40625 35.546875 23.828125 
z
" id="SimHei-62"/>
      <path d="M 44.921875 1.953125 
L 35.546875 1.953125 
Q 34.765625 2.734375 34.375 4.09375 
Q 33.984375 5.46875 33.984375 7.421875 
Q 31.25 4.296875 27.34375 2.734375 
Q 23.4375 1.171875 19.140625 1.171875 
Q 12.890625 1.171875 8.59375 4.296875 
Q 4.296875 7.421875 4.296875 13.28125 
Q 4.296875 19.140625 8.203125 22.65625 
Q 12.109375 26.171875 20.3125 27.34375 
Q 25.78125 28.125 29.875 29.296875 
Q 33.984375 30.46875 33.984375 32.421875 
Q 33.984375 34.765625 32.21875 37.109375 
Q 30.46875 39.453125 24.609375 39.453125 
Q 19.921875 39.453125 17.765625 37.6875 
Q 15.625 35.9375 14.84375 32.8125 
L 6.25 32.8125 
Q 7.03125 39.0625 11.90625 42.765625 
Q 16.796875 46.484375 24.609375 46.484375 
Q 33.203125 46.484375 37.5 42.578125 
Q 41.796875 38.671875 41.796875 31.640625 
L 41.796875 10.15625 
Q 41.796875 7.8125 42.578125 5.859375 
Q 43.359375 3.90625 44.921875 1.953125 
z
M 33.984375 16.40625 
L 33.984375 24.21875 
Q 31.640625 23.4375 29.484375 22.84375 
Q 27.34375 22.265625 22.265625 21.484375 
Q 16.40625 20.703125 14.640625 18.75 
Q 12.890625 16.796875 12.890625 14.0625 
Q 12.890625 11.71875 14.640625 9.953125 
Q 16.40625 8.203125 19.921875 8.203125 
Q 23.4375 8.203125 27.53125 10.15625 
Q 31.640625 12.109375 33.984375 16.40625 
z
" id="SimHei-61"/>
      <path d="M 28.515625 1.953125 
L 20.703125 1.953125 
L 20.703125 68.75 
L 28.515625 68.75 
z
" id="SimHei-6c"/>
      <path d="M 42.96875 3.125 
Q 41.015625 2.34375 38.46875 1.75 
Q 35.9375 1.171875 31.640625 1.171875 
Q 24.609375 1.171875 20.3125 5.078125 
Q 16.015625 8.984375 16.015625 16.015625 
L 16.015625 39.453125 
L 2.734375 39.453125 
L 2.734375 45.703125 
L 16.015625 45.703125 
L 16.015625 60.9375 
L 23.828125 60.9375 
L 23.828125 45.703125 
L 39.84375 45.703125 
L 39.84375 39.453125 
L 23.828125 39.453125 
L 23.828125 15.625 
Q 23.828125 12.5 25.390625 10.34375 
Q 26.953125 8.203125 31.25 8.203125 
Q 35.546875 8.203125 38.28125 8.984375 
Q 41.015625 9.765625 42.96875 10.9375 
z
" id="SimHei-74"/>
      <path d="M 45.3125 45.703125 
L 27.34375 -1.5625 
Q 25.78125 -7.03125 22.65625 -9.765625 
Q 19.53125 -12.5 14.84375 -12.5 
Q 12.890625 -12.5 11.125 -12.296875 
Q 9.375 -12.109375 7.8125 -11.328125 
L 7.8125 -3.515625 
Q 9.375 -4.296875 10.9375 -4.6875 
Q 12.5 -5.078125 13.671875 -5.078125 
Q 16.796875 -5.078125 17.96875 -4.09375 
Q 19.140625 -3.125 20.3125 0.390625 
L 3.125 45.703125 
L 11.71875 45.703125 
L 24.21875 11.328125 
L 24.609375 11.328125 
L 36.71875 45.703125 
z
" id="SimHei-79"/>
      <path d="M 46.484375 39.0625 
Q 43.75 39.84375 41.203125 40.03125 
Q 38.671875 40.234375 35.9375 39.453125 
Q 37.109375 38.28125 37.890625 36.515625 
Q 38.671875 34.765625 38.671875 31.25 
Q 38.671875 24.609375 34.171875 20.3125 
Q 29.6875 16.015625 23.046875 16.015625 
Q 21.484375 16.015625 18.9375 16.59375 
Q 16.40625 17.1875 14.84375 17.96875 
Q 13.671875 17.1875 13.28125 16.40625 
Q 12.890625 15.625 12.890625 14.453125 
Q 12.890625 12.5 15.625 11.515625 
Q 18.359375 10.546875 25.390625 10.546875 
Q 36.71875 10.546875 40.8125 7.421875 
Q 44.921875 4.296875 44.921875 -0.390625 
Q 44.921875 -6.640625 38.859375 -9.5625 
Q 32.8125 -12.5 24.609375 -12.5 
Q 14.0625 -12.5 8.984375 -9.765625 
Q 3.90625 -7.03125 3.90625 -2.34375 
Q 3.90625 0 5.859375 2.34375 
Q 7.8125 4.6875 10.9375 6.25 
Q 8.59375 7.421875 7.21875 9.171875 
Q 5.859375 10.9375 5.859375 13.671875 
Q 5.859375 16.015625 7.609375 17.765625 
Q 9.375 19.53125 11.71875 20.703125 
Q 9.765625 22.65625 8.59375 25.390625 
Q 7.421875 28.125 7.421875 31.25 
Q 7.421875 37.890625 11.90625 42.1875 
Q 16.40625 46.484375 23.046875 46.484375 
Q 26.5625 46.484375 29.09375 45.5 
Q 31.640625 44.53125 33.59375 42.578125 
Q 36.71875 44.921875 39.84375 45.890625 
Q 42.96875 46.875 46.484375 46.484375 
z
M 30.859375 31.25 
Q 30.859375 35.15625 28.90625 37.5 
Q 26.953125 39.84375 23.046875 39.84375 
Q 19.140625 39.84375 17.1875 37.5 
Q 15.234375 35.15625 15.234375 31.25 
Q 15.234375 27.34375 17.1875 25 
Q 19.140625 22.65625 23.046875 22.65625 
Q 26.953125 22.65625 28.90625 25 
Q 30.859375 27.34375 30.859375 31.25 
z
M 37.5 -1.171875 
Q 37.5 0.390625 35.734375 1.953125 
Q 33.984375 3.515625 26.953125 3.515625 
Q 25.390625 3.515625 22.65625 3.703125 
Q 19.921875 3.90625 16.40625 4.296875 
Q 13.28125 3.125 12.109375 1.5625 
Q 10.9375 0 10.9375 -1.5625 
Q 10.9375 -3.90625 14.0625 -5.46875 
Q 17.1875 -7.03125 25 -7.03125 
Q 31.640625 -7.03125 34.5625 -5.265625 
Q 37.5 -3.515625 37.5 -1.171875 
z
" id="SimHei-67"/>
      <path d="M 44.53125 16.796875 
Q 43.75 9.765625 38.28125 5.46875 
Q 32.8125 1.171875 25.390625 1.171875 
Q 16.015625 1.171875 9.953125 7.21875 
Q 3.90625 13.28125 3.90625 23.828125 
Q 3.90625 34.375 9.953125 40.421875 
Q 16.015625 46.484375 25.390625 46.484375 
Q 33.59375 46.484375 38.859375 41.203125 
Q 44.140625 35.9375 44.140625 23.828125 
L 12.5 23.828125 
Q 12.5 15.234375 16.203125 11.71875 
Q 19.921875 8.203125 25.390625 8.203125 
Q 29.6875 8.203125 32.421875 10.34375 
Q 35.15625 12.5 35.9375 16.796875 
z
M 35.15625 30.078125 
Q 34.375 35.546875 31.640625 37.6875 
Q 28.90625 39.84375 24.609375 39.84375 
Q 20.703125 39.84375 17.578125 37.6875 
Q 14.453125 35.546875 12.890625 30.078125 
z
" id="SimHei-65"/>
     </defs>
     <g transform="translate(66.2 263.45)scale(0.15 -0.15)">
      <use xlink:href="#SimHei-70"/>
      <use x="50" xlink:href="#SimHei-72"/>
      <use x="100" xlink:href="#SimHei-6f"/>
      <use x="150" xlink:href="#SimHei-62"/>
      <use x="200" xlink:href="#SimHei-61"/>
      <use x="250" xlink:href="#SimHei-62"/>
      <use x="300" xlink:href="#SimHei-69"/>
      <use x="350" xlink:href="#SimHei-6c"/>
      <use x="400" xlink:href="#SimHei-69"/>
      <use x="450" xlink:href="#SimHei-74"/>
      <use x="500" xlink:href="#SimHei-79"/>
      <use x="550" xlink:href="#SimHei-20"/>
      <use x="600" xlink:href="#SimHei-6f"/>
      <use x="650" xlink:href="#SimHei-66"/>
      <use x="700" xlink:href="#SimHei-20"/>
      <use x="750" xlink:href="#SimHei-61"/>
      <use x="800" xlink:href="#SimHei-62"/>
      <use x="850" xlink:href="#SimHei-73"/>
      <use x="900" xlink:href="#SimHei-6f"/>
      <use x="950" xlink:href="#SimHei-72"/>
      <use x="1000" xlink:href="#SimHei-62"/>
      <use x="1050" xlink:href="#SimHei-69"/>
      <use x="1100" xlink:href="#SimHei-6e"/>
      <use x="1150" xlink:href="#SimHei-67"/>
      <use x="1200" xlink:href="#SimHei-20"/>
      <use x="1250" xlink:href="#SimHei-73"/>
      <use x="1300" xlink:href="#SimHei-74"/>
      <use x="1350" xlink:href="#SimHei-61"/>
      <use x="1400" xlink:href="#SimHei-74"/>
      <use x="1450" xlink:href="#SimHei-65"/>
     </g>
    </g>
    <g id="Path3DCollection_4">
     <g>
      <use style="fill:#008000;stroke:#008000;" x="39.2" xlink:href="#m4d9089194e" y="279.3875"/>
     </g>
    </g>
    <g id="text_29">
     <!-- start state -->
     <g transform="translate(66.2 283.325)scale(0.15 -0.15)">
      <use xlink:href="#SimHei-73"/>
      <use x="50" xlink:href="#SimHei-74"/>
      <use x="100" xlink:href="#SimHei-61"/>
      <use x="150" xlink:href="#SimHei-72"/>
      <use x="200" xlink:href="#SimHei-74"/>
      <use x="250" xlink:href="#SimHei-20"/>
      <use x="300" xlink:href="#SimHei-73"/>
      <use x="350" xlink:href="#SimHei-74"/>
      <use x="400" xlink:href="#SimHei-61"/>
      <use x="450" xlink:href="#SimHei-74"/>
      <use x="500" xlink:href="#SimHei-65"/>
     </g>
    </g>
   </g>
  </g>
 </g>
 <defs>
  <clipPath id="p009f39fc5f">
   <rect height="288" width="360" x="10.7" y="10.7"/>
  </clipPath>
 </defs>
</svg>
