<?xml version="1.0" encoding="utf-8" standalone="no"?>
<!DOCTYPE svg PUBLIC "-//W3C//DTD SVG 1.1//EN"
  "http://www.w3.org/Graphics/SVG/1.1/DTD/svg11.dtd">
<!-- Created with matplotlib (http://matplotlib.org/) -->
<svg height="309.4pt" version="1.1" viewBox="0 0 381.4 309.4" width="381.4pt" xmlns="http://www.w3.org/2000/svg" xmlns:xlink="http://www.w3.org/1999/xlink">
 <defs>
  <style type="text/css">
*{stroke-linecap:butt;stroke-linejoin:round;}
  </style>
 </defs>
 <g id="figure_1">
  <g id="patch_1">
   <path d="M 0 309.4 
L 381.4 309.4 
L 381.4 0 
L 0 0 
z
" style="fill:none;"/>
  </g>
  <g id="patch_2">
   <path d="M 10.7 298.7 
L 370.7 298.7 
L 370.7 10.7 
L 10.7 10.7 
z
" style="fill:#ffffff;"/>
  </g>
  <g id="pane3d_1">
   <g id="patch_3">
    <path d="M 219.619567 185.462306 
L 335.768129 233.715199 
L 340.919918 79.597002 
L 220.435568 41.545085 
" style="fill:#f2f2f2;opacity:0.5;stroke:#f2f2f2;stroke-linejoin:miter;"/>
   </g>
  </g>
  <g id="pane3d_2">
   <g id="patch_4">
    <path d="M 219.619567 185.462306 
L 58.794045 217.8137 
L 53.895826 67.034254 
L 220.435568 41.545085 
" style="fill:#e6e6e6;opacity:0.5;stroke:#e6e6e6;stroke-linejoin:miter;"/>
   </g>
  </g>
  <g id="pane3d_3">
   <g id="patch_5">
    <path d="M 219.619567 185.462306 
L 58.794045 217.8137 
L 168.062833 271.631196 
L 335.768129 233.715199 
" style="fill:#ececec;opacity:0.5;stroke:#ececec;stroke-linejoin:miter;"/>
   </g>
  </g>
  <g id="axis3d_1">
   <g id="line2d_1">
    <path d="M 335.768129 233.715199 
L 168.062833 271.631196 
" style="fill:none;stroke:#000000;stroke-linecap:square;stroke-width:0.8;"/>
   </g>
   <g id="text_1">
    <!-- coins of 大熊 -->
    <defs>
     <path d="M 44.53125 19.53125 
Q 44.53125 11.328125 38.859375 6.25 
Q 33.203125 1.171875 24.609375 1.171875 
Q 16.015625 1.171875 9.765625 7.21875 
Q 3.515625 13.28125 3.515625 23.828125 
Q 3.515625 34.375 9.765625 40.421875 
Q 16.015625 46.484375 24.609375 46.484375 
Q 33.203125 46.484375 38.28125 41.984375 
Q 43.359375 37.5 43.359375 31.25 
L 34.765625 31.25 
Q 34.375 35.9375 31.4375 37.6875 
Q 28.515625 39.453125 24.609375 39.453125 
Q 19.921875 39.453125 16.015625 35.734375 
Q 12.109375 32.03125 12.109375 23.828125 
Q 12.109375 15.625 16.015625 11.90625 
Q 19.921875 8.203125 24.609375 8.203125 
Q 29.6875 8.203125 32.8125 10.9375 
Q 35.9375 13.671875 35.9375 19.53125 
z
" id="SimHei-63"/>
     <path d="M 45.703125 23.828125 
Q 45.703125 13.671875 39.453125 7.421875 
Q 33.203125 1.171875 24.609375 1.171875 
Q 16.015625 1.171875 9.765625 7.421875 
Q 3.515625 13.671875 3.515625 23.828125 
Q 3.515625 33.984375 9.765625 40.234375 
Q 16.015625 46.484375 24.609375 46.484375 
Q 33.203125 46.484375 39.453125 40.234375 
Q 45.703125 33.984375 45.703125 23.828125 
z
M 37.109375 23.828125 
Q 37.109375 31.640625 33.203125 35.546875 
Q 29.296875 39.453125 24.609375 39.453125 
Q 19.921875 39.453125 16.015625 35.546875 
Q 12.109375 31.640625 12.109375 23.828125 
Q 12.109375 16.015625 16.015625 12.109375 
Q 19.921875 8.203125 24.609375 8.203125 
Q 29.296875 8.203125 33.203125 12.109375 
Q 37.109375 16.015625 37.109375 23.828125 
z
" id="SimHei-6f"/>
     <path d="M 28.125 58.203125 
L 20.3125 58.203125 
L 20.3125 68.359375 
L 28.125 68.359375 
z
M 28.125 1.953125 
L 20.3125 1.953125 
L 20.3125 45.703125 
L 28.125 45.703125 
z
" id="SimHei-69"/>
     <path d="M 43.75 1.953125 
L 35.9375 1.953125 
L 35.9375 30.078125 
Q 35.9375 34.765625 33.59375 37.5 
Q 31.25 40.234375 27.34375 40.234375 
Q 22.265625 40.234375 17.765625 34.953125 
Q 13.28125 29.6875 13.28125 21.875 
L 13.28125 1.953125 
L 5.46875 1.953125 
L 5.46875 45.703125 
L 13.28125 45.703125 
L 13.28125 37.5 
Q 16.40625 41.796875 20.109375 44.140625 
Q 23.828125 46.484375 29.6875 46.484375 
Q 36.71875 46.484375 40.234375 42.578125 
Q 43.75 38.671875 43.75 32.8125 
z
" id="SimHei-6e"/>
     <path d="M 42.96875 14.0625 
Q 42.96875 7.8125 38.078125 4.484375 
Q 33.203125 1.171875 25.78125 1.171875 
Q 16.40625 1.171875 11.328125 4.875 
Q 6.25 8.59375 6.25 15.625 
L 14.0625 15.625 
Q 14.0625 10.9375 17.375 9.375 
Q 20.703125 7.8125 25.390625 7.8125 
Q 30.078125 7.8125 32.421875 9.5625 
Q 34.765625 11.328125 34.765625 14.0625 
Q 34.765625 16.015625 32.8125 17.96875 
Q 30.859375 19.921875 23.046875 21.09375 
Q 14.0625 22.265625 10.734375 25.578125 
Q 7.421875 28.90625 7.421875 34.375 
Q 7.421875 39.0625 11.90625 42.765625 
Q 16.40625 46.484375 25 46.484375 
Q 32.8125 46.484375 37.296875 42.96875 
Q 41.796875 39.453125 41.796875 33.59375 
L 33.984375 33.59375 
Q 33.984375 37.109375 31.4375 38.46875 
Q 28.90625 39.84375 25 39.84375 
Q 19.921875 39.84375 17.765625 38.078125 
Q 15.625 36.328125 15.625 33.984375 
Q 15.625 31.25 17.578125 29.6875 
Q 19.53125 28.125 25.78125 27.34375 
Q 35.9375 25.78125 39.453125 22.453125 
Q 42.96875 19.140625 42.96875 14.0625 
z
" id="SimHei-73"/>
     <path id="SimHei-20"/>
     <path d="M 44.53125 59.765625 
Q 42.578125 60.9375 39.84375 61.71875 
Q 37.109375 62.5 32.8125 62.5 
Q 28.515625 62.5 26.953125 60.34375 
Q 25.390625 58.203125 25.390625 55.078125 
L 25.390625 45.703125 
L 41.40625 45.703125 
L 41.40625 39.453125 
L 25.390625 39.453125 
L 25.390625 1.953125 
L 17.578125 1.953125 
L 17.578125 39.453125 
L 4.296875 39.453125 
L 4.296875 45.703125 
L 17.578125 45.703125 
L 17.578125 54.6875 
Q 17.578125 61.71875 21.875 65.625 
Q 26.171875 69.53125 33.203125 69.53125 
Q 37.5 69.53125 40.03125 68.9375 
Q 42.578125 68.359375 44.53125 67.578125 
z
" id="SimHei-66"/>
     <path d="M 45.3125 53.125 
Q 45.703125 66.796875 45.5 71.484375 
Q 45.3125 76.171875 44.921875 80.46875 
Q 49.609375 79.6875 55.46875 79.296875 
Q 54.296875 75.390625 53.703125 67.96875 
Q 53.125 60.546875 53.125 53.125 
L 73.046875 53.125 
Q 83.59375 53.125 92.578125 53.90625 
L 92.578125 45.3125 
Q 84.765625 45.703125 76.5625 45.703125 
L 53.515625 45.703125 
Q 55.078125 39.0625 58.984375 32.21875 
Q 62.890625 25.390625 66.984375 20.109375 
Q 71.09375 14.84375 78.3125 8.984375 
Q 85.546875 3.125 94.140625 -0.78125 
Q 91.015625 -3.125 87.890625 -8.59375 
Q 80.859375 -4.6875 74.015625 1.171875 
Q 67.1875 7.03125 60.34375 16.59375 
Q 53.515625 26.171875 50 34.375 
Q 46.875 25.78125 43.359375 20.109375 
Q 39.84375 14.453125 35.734375 9.765625 
Q 31.640625 5.078125 25.1875 0.390625 
Q 18.75 -4.296875 10.546875 -8.984375 
Q 7.421875 -4.296875 3.515625 -0.78125 
Q 11.71875 1.953125 19.71875 7.03125 
Q 27.734375 12.109375 32.8125 18.546875 
Q 37.890625 25 41.015625 32.03125 
Q 44.140625 39.0625 44.921875 45.703125 
L 23.4375 45.703125 
Q 14.0625 45.703125 8.59375 45.3125 
L 8.59375 53.90625 
Q 14.0625 53.515625 23.4375 53.125 
z
" id="SimHei-5927"/>
     <path d="M 49.609375 52.34375 
Q 49.21875 46.484375 49.21875 40.625 
L 49.21875 19.53125 
Q 49.21875 15.234375 46.484375 13.859375 
Q 43.75 12.5 34.765625 11.328125 
Q 33.59375 14.84375 31.640625 18.359375 
Q 38.671875 18.75 40.421875 18.9375 
Q 42.1875 19.140625 41.796875 23.4375 
L 18.359375 23.4375 
L 18.359375 12.5 
L 10.15625 12.5 
Q 10.546875 25 10.546875 33.59375 
Q 10.546875 42.1875 10.15625 52.34375 
L 49.609375 52.34375 
z
M 65.625 45.3125 
Q 65.234375 41.015625 65.234375 34.375 
Q 81.640625 38.671875 88.28125 43.359375 
Q 90.234375 39.453125 93.359375 36.71875 
Q 85.9375 34.765625 65.625 28.125 
L 65.625 23.046875 
Q 65.625 19.53125 70.703125 19.53125 
L 80.46875 19.53125 
Q 83.59375 19.53125 85.15625 20.890625 
Q 86.71875 22.265625 88.28125 28.125 
Q 92.1875 26.171875 96.875 25.390625 
Q 93.359375 17.1875 91.40625 15.234375 
Q 89.453125 13.28125 83.984375 13.28125 
L 65.234375 13.28125 
Q 57.03125 13.28125 57.03125 19.53125 
L 57.03125 37.5 
Q 57.03125 40.625 56.640625 45.3125 
L 65.625 45.3125 
z
M 92.578125 69.140625 
Q 78.515625 65.234375 64.84375 61.328125 
Q 64.84375 54.6875 68.359375 54.6875 
L 80.46875 54.6875 
Q 83.203125 54.6875 84.765625 56.4375 
Q 86.328125 58.203125 86.71875 62.5 
Q 90.234375 60.9375 94.921875 59.765625 
Q 92.96875 51.5625 90.421875 50.1875 
Q 87.890625 48.828125 82.8125 48.828125 
L 64.84375 48.828125 
Q 57.03125 48.828125 57.03125 54.296875 
L 57.03125 71.09375 
Q 57.03125 75.78125 56.640625 80.46875 
L 65.625 80.46875 
Q 65.234375 75.390625 65.234375 67.1875 
Q 78.515625 70.3125 86.328125 76.171875 
Q 88.671875 72.65625 92.578125 69.140625 
z
M 32.03125 78.125 
Q 24.609375 71.484375 16.40625 62.890625 
Q 22.65625 63.28125 40.625 65.234375 
Q 38.671875 67.578125 35.546875 70.703125 
Q 39.0625 72.265625 42.96875 74.21875 
Q 51.171875 63.28125 55.078125 58.59375 
Q 51.171875 57.03125 48.046875 54.6875 
L 44.53125 59.765625 
Q 42.578125 59.375 33.203125 58.59375 
Q 23.828125 57.8125 9.375 55.859375 
Q 7.421875 59.375 6.25 62.890625 
Q 10.15625 64.84375 14.640625 69.53125 
Q 19.140625 74.21875 23.4375 82.03125 
Q 27.734375 79.6875 32.03125 78.125 
z
M 41.796875 28.90625 
L 41.796875 35.546875 
L 18.359375 35.546875 
L 18.359375 28.90625 
z
M 20.3125 6.640625 
Q 17.1875 3.125 11.71875 -9.765625 
Q 6.640625 -7.8125 3.90625 -7.03125 
Q 6.640625 -1.5625 11.71875 8.984375 
Q 15.625 7.8125 20.3125 6.640625 
z
M 85.9375 10.15625 
Q 92.578125 -1.953125 94.140625 -5.46875 
Q 89.84375 -6.640625 86.328125 -8.59375 
Q 83.984375 -2.34375 78.515625 7.03125 
Q 81.25 8.203125 85.9375 10.15625 
z
M 41.796875 41.015625 
L 41.796875 46.875 
L 18.359375 46.875 
L 18.359375 41.015625 
z
M 62.890625 8.59375 
Q 65.625 -1.953125 66.40625 -5.859375 
L 58.59375 -7.421875 
Q 57.421875 -3.90625 55.46875 7.421875 
Q 58.59375 8.203125 62.890625 8.59375 
z
M 39.84375 7.421875 
Q 40.234375 3.90625 42.578125 -6.640625 
Q 38.671875 -6.640625 34.375 -7.8125 
Q 33.59375 -3.125 32.03125 6.640625 
Q 35.15625 7.421875 39.84375 7.421875 
z
" id="SimHei-718a"/>
    </defs>
    <g style="fill:#800080;" transform="translate(235.061813 295.570823)rotate(-12.739652)scale(0.12 -0.12)">
     <use xlink:href="#SimHei-63"/>
     <use x="50" xlink:href="#SimHei-6f"/>
     <use x="100" xlink:href="#SimHei-69"/>
     <use x="150" xlink:href="#SimHei-6e"/>
     <use x="200" xlink:href="#SimHei-73"/>
     <use x="250" xlink:href="#SimHei-20"/>
     <use x="300" xlink:href="#SimHei-6f"/>
     <use x="350" xlink:href="#SimHei-66"/>
     <use x="400" xlink:href="#SimHei-20"/>
     <use x="450" xlink:href="#SimHei-5927"/>
     <use x="550" xlink:href="#SimHei-718a"/>
    </g>
   </g>
   <g id="Line3DCollection_1">
    <path d="M 325.649087 236.002984 
L 209.876104 187.422284 
L 210.363217 43.086674 
" style="fill:none;stroke:#b0b0b0;stroke-width:0.8;"/>
    <path d="M 305.615951 240.532216 
L 190.60155 191.299522 
L 190.43149 46.137256 
" style="fill:none;stroke:#b0b0b0;stroke-width:0.8;"/>
    <path d="M 285.302458 245.124834 
L 171.077619 195.226923 
L 170.232989 49.228668 
" style="fill:none;stroke:#b0b0b0;stroke-width:0.8;"/>
    <path d="M 264.70268 249.782177 
L 151.299439 199.205469 
L 149.762321 52.361736 
" style="fill:none;stroke:#b0b0b0;stroke-width:0.8;"/>
    <path d="M 243.810523 254.505623 
L 131.262013 203.236164 
L 129.013948 55.537307 
" style="fill:none;stroke:#b0b0b0;stroke-width:0.8;"/>
    <path d="M 222.619718 259.29659 
L 110.960209 207.320041 
L 107.982181 58.756252 
" style="fill:none;stroke:#b0b0b0;stroke-width:0.8;"/>
    <path d="M 201.123814 264.156536 
L 90.38876 211.458159 
L 86.661174 62.019466 
" style="fill:none;stroke:#b0b0b0;stroke-width:0.8;"/>
    <path d="M 179.316176 269.086961 
L 69.542258 215.651607 
L 65.044918 65.327868 
" style="fill:none;stroke:#b0b0b0;stroke-width:0.8;"/>
   </g>
   <g id="xtick_1">
    <g id="line2d_2">
     <path d="M 324.648958 235.583309 
L 327.653217 236.843957 
" style="fill:none;stroke:#000000;stroke-linecap:square;stroke-width:0.8;"/>
    </g>
    <g id="text_2">
     <!-- 0 -->
     <defs>
      <path d="M 3.125 29.296875 
Q 3.90625 50 6.4375 56.046875 
Q 8.984375 62.109375 13.671875 66.015625 
Q 18.359375 69.921875 25.1875 69.921875 
Q 32.03125 69.921875 37.109375 64.25 
Q 42.1875 58.59375 43.75 50 
Q 45.3125 41.40625 44.71875 30.265625 
Q 44.140625 19.140625 40.8125 12.109375 
Q 37.5 5.078125 30.859375 2.34375 
Q 24.21875 -0.390625 17.578125 2.921875 
Q 10.9375 6.25 8.203125 11.71875 
Q 5.46875 17.1875 4.296875 23.234375 
Q 3.125 29.296875 3.90625 50 
z
M 12.890625 52.734375 
Q 10.546875 31.25 12.5 22.84375 
Q 14.453125 14.453125 18.9375 10.9375 
Q 23.4375 7.421875 28.125 9.5625 
Q 32.8125 11.71875 34.953125 18.15625 
Q 37.109375 24.609375 37.109375 32.21875 
Q 37.109375 39.84375 36.515625 46.09375 
Q 35.9375 52.34375 33 57.421875 
Q 30.078125 62.5 25.1875 62.6875 
Q 20.3125 62.890625 16.59375 57.8125 
Q 12.890625 52.734375 10.546875 31.25 
z
" id="SimHei-30"/>
     </defs>
     <g transform="translate(330.134125 260.095778)scale(0.15 -0.15)">
      <use xlink:href="#SimHei-30"/>
     </g>
    </g>
   </g>
   <g id="xtick_2">
    <g id="line2d_3">
     <path d="M 304.621865 240.106691 
L 307.607998 241.384926 
" style="fill:none;stroke:#000000;stroke-linecap:square;stroke-width:0.8;"/>
    </g>
    <g id="text_3">
     <!-- 2 -->
     <defs>
      <path d="M 4.6875 3.90625 
Q 5.078125 9.765625 10.15625 14.453125 
Q 15.234375 19.140625 23.046875 29.09375 
Q 30.859375 39.0625 33.203125 44.53125 
Q 35.546875 50 34.953125 53.90625 
Q 34.375 57.8125 31.25 60.34375 
Q 28.125 62.890625 24.015625 62.5 
Q 19.921875 62.109375 16.203125 59.375 
Q 12.5 56.640625 10.546875 51.171875 
L 3.125 52.34375 
Q 6.25 61.328125 11.125 65.421875 
Q 16.015625 69.53125 22.65625 69.921875 
Q 26.5625 70.3125 29.6875 69.71875 
Q 32.8125 69.140625 36.125 66.984375 
Q 39.453125 64.84375 41.59375 60.546875 
Q 43.75 56.25 43.15625 50.1875 
Q 42.578125 44.140625 37.109375 35.734375 
Q 31.640625 27.34375 16.015625 9.375 
L 44.140625 9.375 
L 44.140625 2.34375 
L 4.6875 2.34375 
z
" id="SimHei-32"/>
     </defs>
     <g transform="translate(310.096382 264.735082)scale(0.15 -0.15)">
      <use xlink:href="#SimHei-32"/>
     </g>
    </g>
   </g>
   <g id="xtick_3">
    <g id="line2d_4">
     <path d="M 284.314682 244.693335 
L 287.281886 245.989527 
" style="fill:none;stroke:#000000;stroke-linecap:square;stroke-width:0.8;"/>
    </g>
    <g id="text_4">
     <!-- 4 -->
     <defs>
      <path d="M 31.25 17.1875 
L 1.171875 17.1875 
L 1.171875 23.828125 
L 32.8125 69.53125 
L 38.671875 69.53125 
L 38.671875 23.828125 
L 48.046875 23.828125 
L 48.046875 17.1875 
L 38.671875 17.1875 
L 38.671875 2.34375 
L 31.25 2.34375 
z
M 31.25 23.828125 
L 31.25 54.6875 
L 9.375 23.828125 
z
" id="SimHei-34"/>
     </defs>
     <g transform="translate(289.777342 269.439513)scale(0.15 -0.15)">
      <use xlink:href="#SimHei-34"/>
     </g>
    </g>
   </g>
   <g id="xtick_4">
    <g id="line2d_5">
     <path d="M 263.721492 249.344577 
L 266.668935 250.659107 
" style="fill:none;stroke:#000000;stroke-linecap:square;stroke-width:0.8;"/>
    </g>
    <g id="text_5">
     <!-- 6 -->
     <defs>
      <path d="M 3.515625 19.53125 
Q 4.296875 30.859375 6.046875 34.765625 
Q 7.8125 38.671875 11.328125 44.53125 
L 27.34375 69.53125 
L 36.328125 69.53125 
L 19.921875 43.75 
Q 30.46875 46.484375 36.71875 42.96875 
Q 42.96875 39.453125 45.109375 34.953125 
Q 47.265625 30.46875 47.453125 25.1875 
Q 47.65625 19.921875 45.890625 14.84375 
Q 44.140625 9.765625 39.640625 5.65625 
Q 35.15625 1.5625 27.140625 1.171875 
Q 19.140625 0.78125 13.46875 4.09375 
Q 7.8125 7.421875 5.65625 13.46875 
Q 3.515625 19.53125 4.296875 30.859375 
z
M 12.5 16.015625 
Q 19.53125 8.59375 25.390625 8.203125 
Q 31.25 7.8125 35.15625 12.109375 
Q 39.0625 16.40625 39.0625 24.609375 
Q 39.0625 32.8125 34.171875 35.9375 
Q 29.296875 39.0625 23.234375 38.28125 
Q 17.1875 37.5 14.453125 32.421875 
Q 11.71875 27.34375 12.109375 21.671875 
Q 12.5 16.015625 19.53125 8.59375 
z
" id="SimHei-36"/>
     </defs>
     <g transform="translate(269.171041 274.210454)scale(0.15 -0.15)">
      <use xlink:href="#SimHei-36"/>
     </g>
    </g>
   </g>
   <g id="xtick_5">
    <g id="line2d_6">
     <path d="M 242.83621 254.061792 
L 245.763028 255.395052 
" style="fill:none;stroke:#000000;stroke-linecap:square;stroke-width:0.8;"/>
    </g>
    <g id="text_6">
     <!-- 8 -->
     <defs>
      <path d="M 2.734375 16.796875 
Q 2.734375 26.171875 5.078125 30.65625 
Q 7.421875 35.15625 12.890625 37.890625 
Q 8.203125 40.625 6.640625 43.9375 
Q 5.078125 47.265625 4.875 51.5625 
Q 4.6875 55.859375 6.046875 58.984375 
Q 7.421875 62.109375 10.15625 64.84375 
Q 12.890625 67.578125 16.203125 68.546875 
Q 19.53125 69.53125 23.4375 69.53125 
Q 27.34375 69.53125 30.46875 68.75 
Q 33.59375 67.96875 37.109375 65.421875 
Q 40.625 62.890625 42.1875 58.203125 
Q 43.75 53.515625 41.984375 47.265625 
Q 40.234375 41.015625 32.8125 37.5 
Q 39.453125 35.546875 42.1875 31.4375 
Q 44.921875 27.34375 44.921875 21.484375 
Q 44.921875 15.625 43.15625 12.109375 
Q 41.40625 8.59375 39.25 6.25 
Q 37.109375 3.90625 33.390625 2.53125 
Q 29.6875 1.171875 24.015625 1.171875 
Q 18.359375 1.171875 14.25 2.53125 
Q 10.15625 3.90625 7.421875 6.640625 
Q 4.6875 9.375 3.703125 13.078125 
Q 2.734375 16.796875 2.734375 26.171875 
z
M 10.9375 26.5625 
Q 10.546875 17.1875 12.296875 13.671875 
Q 14.0625 10.15625 18.75 9.171875 
Q 23.4375 8.203125 28.515625 9.375 
Q 33.59375 10.546875 35.546875 14.84375 
Q 37.5 19.140625 36.90625 23.4375 
Q 36.328125 27.734375 32.03125 30.65625 
Q 27.734375 33.59375 22.65625 33.203125 
Q 17.578125 32.8125 14.25 29.6875 
Q 10.9375 26.5625 10.546875 17.1875 
z
M 12.109375 56.25 
Q 12.109375 48.4375 14.84375 44.921875 
Q 17.578125 41.40625 23.4375 41.40625 
Q 29.296875 41.40625 32.21875 44.921875 
Q 35.15625 48.4375 34.953125 53.3125 
Q 34.765625 58.203125 31.4375 60.546875 
Q 28.125 62.890625 22.453125 62.5 
Q 16.796875 62.109375 14.453125 59.171875 
Q 12.109375 56.25 12.109375 48.4375 
z
" id="SimHei-38"/>
     </defs>
     <g transform="translate(248.271344 279.049324)scale(0.15 -0.15)">
      <use xlink:href="#SimHei-38"/>
     </g>
    </g>
   </g>
   <g id="xtick_6">
    <g id="line2d_7">
     <path d="M 221.652577 258.846394 
L 224.557878 260.198787 
" style="fill:none;stroke:#000000;stroke-linecap:square;stroke-width:0.8;"/>
    </g>
    <g id="text_7">
     <!-- 10 -->
     <defs>
      <path d="M 21.875 56.25 
Q 16.796875 51.171875 8.984375 46.484375 
L 8.984375 53.90625 
Q 18.75 60.546875 25 69.53125 
L 29.6875 69.53125 
L 29.6875 2.34375 
L 21.875 2.34375 
z
" id="SimHei-31"/>
     </defs>
     <g transform="translate(223.321939 283.957585)scale(0.15 -0.15)">
      <use xlink:href="#SimHei-31"/>
      <use x="50" xlink:href="#SimHei-30"/>
     </g>
    </g>
   </g>
   <g id="xtick_7">
    <g id="line2d_8">
     <path d="M 200.164153 263.699837 
L 203.047012 265.071778 
" style="fill:none;stroke:#000000;stroke-linecap:square;stroke-width:0.8;"/>
    </g>
    <g id="text_8">
     <!-- 12 -->
     <g transform="translate(201.816333 288.936741)scale(0.15 -0.15)">
      <use xlink:href="#SimHei-31"/>
      <use x="50" xlink:href="#SimHei-32"/>
     </g>
    </g>
   </g>
   <g id="xtick_8">
    <g id="line2d_9">
     <path d="M 178.364314 268.623617 
L 181.22377 270.015533 
" style="fill:none;stroke:#000000;stroke-linecap:square;stroke-width:0.8;"/>
    </g>
    <g id="text_9">
     <!-- 14 -->
     <g transform="translate(179.997844 293.988337)scale(0.15 -0.15)">
      <use xlink:href="#SimHei-31"/>
      <use x="50" xlink:href="#SimHei-34"/>
     </g>
    </g>
   </g>
  </g>
  <g id="axis3d_2">
   <g id="line2d_10">
    <path d="M 58.794045 217.8137 
L 168.062833 271.631196 
" style="fill:none;stroke:#000000;stroke-linecap:square;stroke-width:0.8;"/>
   </g>
   <g id="text_10">
    <!-- coins of 胖虎 -->
    <defs>
     <path d="M 21.484375 1.953125 
Q 25.78125 1.5625 28.515625 1.75 
Q 31.25 1.953125 31.640625 7.03125 
L 31.640625 26.171875 
L 18.359375 26.171875 
Q 16.796875 14.453125 14.453125 5.859375 
Q 12.109375 -2.734375 10.15625 -7.03125 
Q 6.640625 -3.90625 3.125 -2.734375 
Q 6.640625 2.734375 8.78125 10.34375 
Q 10.9375 17.96875 11.71875 30.859375 
L 11.71875 64.453125 
Q 11.71875 71.09375 11.328125 76.953125 
L 38.671875 76.953125 
Q 38.28125 69.140625 38.28125 61.328125 
L 38.28125 1.953125 
Q 38.28125 -6.25 23.4375 -7.03125 
Q 23.046875 -3.125 21.484375 1.953125 
z
M 64.453125 45.3125 
L 64.453125 69.140625 
Q 64.453125 73.828125 63.671875 79.296875 
L 72.265625 79.296875 
Q 71.875 74.21875 71.875 69.140625 
L 71.875 45.3125 
L 82.421875 45.3125 
Q 85.9375 45.3125 91.796875 45.703125 
L 91.796875 38.671875 
Q 88.28125 39.0625 82.421875 39.0625 
L 71.875 39.0625 
L 71.875 23.4375 
L 84.765625 23.4375 
Q 91.015625 23.4375 96.09375 23.828125 
L 96.09375 16.796875 
Q 90.234375 17.1875 84.765625 17.1875 
L 71.875 17.1875 
L 71.875 3.90625 
Q 71.875 -2.34375 72.265625 -8.984375 
L 64.0625 -8.984375 
Q 64.453125 -2.734375 64.453125 3.90625 
L 64.453125 17.1875 
L 53.90625 17.1875 
Q 48.4375 17.1875 42.578125 16.796875 
L 42.578125 23.828125 
Q 48.046875 23.4375 54.296875 23.4375 
L 64.453125 23.4375 
L 64.453125 39.0625 
L 53.90625 39.0625 
Q 48.4375 39.0625 43.359375 38.671875 
L 43.359375 45.703125 
Q 48.4375 45.3125 53.515625 45.3125 
z
M 31.640625 32.8125 
L 31.640625 48.828125 
L 18.75 48.828125 
L 18.75 32.8125 
z
M 31.640625 55.078125 
L 31.640625 70.703125 
L 18.75 70.703125 
L 18.75 55.078125 
z
M 51.5625 51.953125 
Q 50 58.984375 44.921875 71.09375 
L 51.171875 74.21875 
Q 55.859375 63.28125 58.59375 54.6875 
Q 54.296875 53.515625 51.5625 51.953125 
z
M 77.34375 53.90625 
Q 83.984375 67.96875 84.765625 73.4375 
Q 88.671875 71.875 92.578125 70.703125 
Q 90.625 67.96875 88.671875 62.890625 
Q 86.71875 57.8125 84.375 51.953125 
Q 80.859375 53.90625 77.34375 53.90625 
z
" id="SimHei-80d6"/>
     <path d="M 25.78125 45.703125 
Q 33.203125 46.09375 44.140625 46.875 
L 44.140625 56.640625 
L 20.703125 56.640625 
Q 20.703125 31.640625 20.109375 23.4375 
Q 19.53125 15.234375 17.578125 8 
Q 15.625 0.78125 10.9375 -7.8125 
Q 7.8125 -5.46875 3.125 -3.90625 
Q 7.03125 0.78125 9.171875 6.828125 
Q 11.328125 12.890625 12.109375 18.75 
Q 12.890625 24.609375 13.078125 30.265625 
Q 13.28125 35.9375 13.28125 42.96875 
Q 13.28125 50.390625 12.890625 62.5 
L 44.140625 62.5 
L 44.140625 74.609375 
Q 44.140625 77.34375 43.359375 82.421875 
L 51.953125 82.421875 
Q 51.5625 78.515625 51.5625 75.390625 
L 71.09375 75.390625 
Q 76.171875 75.390625 84.765625 76.171875 
L 84.765625 69.53125 
Q 76.171875 69.921875 70.703125 69.921875 
L 51.171875 69.921875 
L 51.171875 62.5 
L 93.75 62.5 
Q 92.1875 57.8125 89.84375 46.875 
Q 85.15625 48.046875 82.03125 48.4375 
Q 83.984375 52.734375 85.15625 56.640625 
L 51.171875 56.640625 
L 51.171875 47.65625 
Q 65.234375 49.21875 74.21875 50.78125 
L 75 44.140625 
Q 64.0625 42.96875 51.171875 41.40625 
L 51.171875 36.71875 
Q 51.171875 33.203125 57.421875 33.203125 
L 70.3125 33.203125 
Q 75 32.8125 76.359375 34.5625 
Q 77.734375 36.328125 78.515625 41.015625 
Q 81.640625 39.0625 86.71875 37.109375 
Q 84.765625 30.859375 82.03125 29.09375 
Q 79.296875 27.34375 73.828125 27.34375 
L 54.296875 27.34375 
Q 44.140625 27.34375 44.140625 33.59375 
L 44.140625 41.015625 
Q 36.328125 40.234375 27.34375 39.0625 
Q 26.5625 42.578125 25.78125 45.703125 
z
M 71.09375 22.265625 
Q 70.703125 16.796875 70.703125 10.9375 
L 70.703125 2.34375 
Q 70.703125 -1.953125 75 -1.953125 
L 81.25 -1.953125 
Q 85.9375 -1.953125 86.71875 0.78125 
Q 87.5 3.515625 87.5 7.421875 
Q 91.40625 5.078125 96.09375 4.296875 
Q 93.359375 -3.90625 91.59375 -5.859375 
Q 89.84375 -7.8125 85.15625 -7.8125 
L 72.65625 -7.8125 
Q 63.671875 -7.8125 63.671875 -1.171875 
L 63.671875 16.40625 
L 45.3125 16.40625 
Q 45.3125 4.6875 41.203125 -0.578125 
Q 37.109375 -5.859375 26.171875 -10.546875 
Q 25 -6.640625 21.484375 -3.515625 
Q 35.9375 0.78125 37.109375 7.421875 
Q 38.28125 14.0625 37.890625 22.265625 
L 71.09375 22.265625 
z
" id="SimHei-864e"/>
    </defs>
    <g style="fill:#800080;" transform="translate(49.092792 257.912399)rotate(-333.778649)scale(0.12 -0.12)">
     <use xlink:href="#SimHei-63"/>
     <use x="50" xlink:href="#SimHei-6f"/>
     <use x="100" xlink:href="#SimHei-69"/>
     <use x="150" xlink:href="#SimHei-6e"/>
     <use x="200" xlink:href="#SimHei-73"/>
     <use x="250" xlink:href="#SimHei-20"/>
     <use x="300" xlink:href="#SimHei-6f"/>
     <use x="350" xlink:href="#SimHei-66"/>
     <use x="400" xlink:href="#SimHei-20"/>
     <use x="450" xlink:href="#SimHei-80d6"/>
     <use x="550" xlink:href="#SimHei-864e"/>
    </g>
   </g>
   <g id="Line3DCollection_2">
    <path d="M 227.548604 43.791556 
L 226.494241 188.318329 
L 65.235235 220.98614 
" style="fill:none;stroke:#b0b0b0;stroke-width:0.8;"/>
    <path d="M 241.688876 48.257402 
L 240.154088 193.993191 
L 78.043534 227.294534 
" style="fill:none;stroke:#b0b0b0;stroke-width:0.8;"/>
    <path d="M 256.106644 52.810887 
L 254.072998 199.775679 
L 91.108144 233.729167 
" style="fill:none;stroke:#b0b0b0;stroke-width:0.8;"/>
    <path d="M 270.810156 57.454617 
L 268.25841 205.668883 
L 104.436836 240.293868 
" style="fill:none;stroke:#b0b0b0;stroke-width:0.8;"/>
    <path d="M 285.807992 62.191302 
L 282.718053 211.676014 
L 118.0377 246.992619 
" style="fill:none;stroke:#b0b0b0;stroke-width:0.8;"/>
    <path d="M 301.10908 67.023762 
L 297.459956 217.800407 
L 131.919157 253.829569 
" style="fill:none;stroke:#b0b0b0;stroke-width:0.8;"/>
    <path d="M 316.722709 71.95493 
L 312.492466 224.045531 
L 146.089982 260.80904 
" style="fill:none;stroke:#b0b0b0;stroke-width:0.8;"/>
    <path d="M 332.658556 76.987861 
L 327.824262 230.41499 
L 160.559317 267.935534 
" style="fill:none;stroke:#b0b0b0;stroke-width:0.8;"/>
   </g>
   <g id="xtick_9">
    <g id="line2d_11">
     <path d="M 66.594479 220.710784 
L 62.513215 221.537566 
" style="fill:none;stroke:#000000;stroke-linecap:square;stroke-width:0.8;"/>
    </g>
    <g id="text_11">
     <!-- 0 -->
     <g transform="translate(50.195232 243.623733)scale(0.15 -0.15)">
      <use xlink:href="#SimHei-30"/>
     </g>
    </g>
   </g>
   <g id="xtick_10">
    <g id="line2d_12">
     <path d="M 79.410645 227.013697 
L 75.305726 227.856945 
" style="fill:none;stroke:#000000;stroke-linecap:square;stroke-width:0.8;"/>
    </g>
    <g id="text_12">
     <!-- 2 -->
     <g transform="translate(62.908596 250.062791)scale(0.15 -0.15)">
      <use xlink:href="#SimHei-32"/>
     </g>
    </g>
   </g>
   <g id="xtick_11">
    <g id="line2d_13">
     <path d="M 92.483165 233.442684 
L 88.354458 234.302894 
" style="fill:none;stroke:#000000;stroke-linecap:square;stroke-width:0.8;"/>
    </g>
    <g id="text_13">
     <!-- 4 -->
     <g transform="translate(75.876714 256.630876)scale(0.15 -0.15)">
      <use xlink:href="#SimHei-34"/>
     </g>
    </g>
   </g>
   <g id="xtick_12">
    <g id="line2d_14">
     <path d="M 105.81981 240.001565 
L 101.667187 240.879255 
" style="fill:none;stroke:#000000;stroke-linecap:square;stroke-width:0.8;"/>
    </g>
    <g id="text_14">
     <!-- 6 -->
     <g transform="translate(89.10732 263.331906)scale(0.15 -0.15)">
      <use xlink:href="#SimHei-36"/>
     </g>
    </g>
   </g>
   <g id="xtick_13">
    <g id="line2d_15">
     <path d="M 119.428666 246.694319 
L 115.252006 247.590026 
" style="fill:none;stroke:#000000;stroke-linecap:square;stroke-width:0.8;"/>
    </g>
    <g id="text_15">
     <!-- 8 -->
     <g transform="translate(102.608465 270.169958)scale(0.15 -0.15)">
      <use xlink:href="#SimHei-38"/>
     </g>
    </g>
   </g>
   <g id="xtick_14">
    <g id="line2d_16">
     <path d="M 133.318153 253.525084 
L 129.117343 254.439371 
" style="fill:none;stroke:#000000;stroke-linecap:square;stroke-width:0.8;"/>
    </g>
    <g id="text_16">
     <!-- 10 -->
     <g transform="translate(112.638533 277.14928)scale(0.15 -0.15)">
      <use xlink:href="#SimHei-31"/>
      <use x="50" xlink:href="#SimHei-30"/>
     </g>
    </g>
   </g>
   <g id="xtick_15">
    <g id="line2d_17">
     <path d="M 147.497042 260.498176 
L 143.271977 261.431625 
" style="fill:none;stroke:#000000;stroke-linecap:square;stroke-width:0.8;"/>
    </g>
    <g id="text_17">
     <!-- 12 -->
     <g transform="translate(126.706257 284.274293)scale(0.15 -0.15)">
      <use xlink:href="#SimHei-31"/>
      <use x="50" xlink:href="#SimHei-32"/>
     </g>
    </g>
   </g>
   <g id="xtick_16">
    <g id="line2d_18">
     <path d="M 161.974472 267.618089 
L 157.725058 268.57131 
" style="fill:none;stroke:#000000;stroke-linecap:square;stroke-width:0.8;"/>
    </g>
    <g id="text_18">
     <!-- 14 -->
     <g transform="translate(141.07074 291.549608)scale(0.15 -0.15)">
      <use xlink:href="#SimHei-31"/>
      <use x="50" xlink:href="#SimHei-34"/>
     </g>
    </g>
   </g>
  </g>
  <g id="axis3d_3">
   <g id="line2d_19">
    <path d="M 58.794045 217.8137 
L 53.895826 67.034254 
" style="fill:none;stroke:#000000;stroke-linecap:square;stroke-width:0.8;"/>
   </g>
   <g id="text_19">
    <!-- coins of 静香 -->
    <defs>
     <path d="M 67.578125 78.90625 
Q 65.625 76.5625 64.640625 74.40625 
Q 63.671875 72.265625 62.890625 70.3125 
L 84.375 70.3125 
Q 82.03125 66.796875 80.078125 62.296875 
Q 78.125 57.8125 75.78125 52.734375 
L 90.234375 52.734375 
Q 89.84375 47.265625 89.84375 41.015625 
L 89.84375 36.71875 
Q 93.359375 36.71875 96.875 37.109375 
L 96.875 30.46875 
Q 94.140625 30.859375 89.84375 30.859375 
L 89.84375 25.390625 
Q 89.84375 17.578125 90.234375 10.546875 
L 83.203125 10.546875 
L 83.203125 14.84375 
L 72.265625 14.84375 
L 72.265625 0.390625 
Q 71.875 -4.6875 68.9375 -6.640625 
Q 66.015625 -8.59375 56.25 -9.375 
Q 56.25 -5.46875 53.90625 -1.171875 
Q 58.984375 -1.5625 62.296875 -1.171875 
Q 65.625 -0.78125 65.625 2.734375 
L 65.625 14.84375 
L 60.15625 14.84375 
Q 55.46875 14.84375 50.390625 14.453125 
L 50.390625 20.703125 
Q 55.078125 20.3125 60.15625 20.3125 
L 65.625 20.3125 
L 65.625 30.859375 
L 59.765625 30.859375 
Q 54.6875 30.859375 48.046875 30.46875 
L 48.046875 36.71875 
Q 53.515625 36.328125 60.15625 36.328125 
L 65.625 36.328125 
L 65.625 47.265625 
L 60.15625 47.265625 
Q 57.8125 47.265625 51.953125 46.875 
L 51.953125 51.953125 
Q 50.78125 50.78125 48.828125 48.4375 
Q 46.875 51.5625 44.140625 53.90625 
Q 50.390625 60.15625 53.703125 68.15625 
Q 57.03125 76.171875 58.984375 82.03125 
Q 62.890625 80.078125 67.578125 78.90625 
z
M 42.96875 36.328125 
Q 42.578125 30.859375 42.578125 25 
L 42.578125 1.171875 
Q 42.578125 -4.6875 39.453125 -6.25 
Q 36.328125 -7.8125 30.078125 -8.984375 
Q 29.6875 -5.46875 27.34375 -1.5625 
Q 36.328125 -1.5625 35.546875 1.953125 
L 35.546875 6.640625 
L 15.234375 6.640625 
L 15.234375 -8.203125 
L 8.203125 -8.203125 
Q 8.59375 -3.90625 8.59375 1.953125 
L 8.59375 25 
Q 8.59375 30.859375 8.203125 36.328125 
L 42.96875 36.328125 
z
M 21.875 71.09375 
Q 21.875 74.609375 21.484375 80.46875 
L 29.296875 80.46875 
Q 28.90625 74.609375 28.90625 71.09375 
L 33.984375 71.09375 
Q 39.453125 71.09375 46.875 71.484375 
L 46.875 65.234375 
Q 39.453125 65.625 33.984375 65.625 
L 28.90625 65.625 
L 28.90625 59.375 
L 33.984375 59.375 
Q 36.328125 59.375 42.578125 59.765625 
L 42.578125 53.515625 
Q 35.9375 53.90625 33.59375 53.90625 
L 28.90625 53.90625 
L 28.90625 47.65625 
L 35.15625 47.65625 
Q 40.625 47.65625 46.484375 48.046875 
L 46.484375 41.796875 
Q 40.234375 42.1875 35.15625 42.1875 
L 15.625 42.1875 
Q 9.375 42.1875 3.90625 41.796875 
L 3.90625 48.046875 
Q 9.375 47.65625 15.625 47.65625 
L 21.875 47.65625 
L 21.875 53.90625 
L 15.234375 53.90625 
Q 12.890625 53.90625 8.59375 53.515625 
L 8.59375 59.765625 
Q 12.890625 59.375 15.234375 59.375 
L 21.875 59.375 
L 21.875 65.625 
L 15.234375 65.625 
Q 10.15625 65.625 4.6875 65.234375 
L 4.6875 71.484375 
Q 10.15625 71.09375 15.234375 71.09375 
z
M 52.734375 53.515625 
Q 57.421875 53.125 64.453125 53.125 
L 68.359375 53.125 
Q 72.265625 61.328125 73.4375 64.84375 
L 60.15625 64.84375 
Q 55.078125 56.640625 52.734375 53.515625 
z
M 35.546875 12.109375 
L 35.546875 19.140625 
L 15.234375 19.140625 
L 15.234375 12.109375 
z
M 35.546875 24.609375 
L 35.546875 30.859375 
L 15.234375 30.859375 
L 15.234375 24.609375 
z
M 83.203125 36.328125 
L 83.203125 47.265625 
L 72.265625 47.265625 
L 72.265625 36.328125 
z
M 83.203125 20.3125 
L 83.203125 30.859375 
L 72.265625 30.859375 
L 72.265625 20.3125 
z
" id="SimHei-9759"/>
     <path d="M 45.703125 33.59375 
L 45.703125 53.90625 
Q 36.71875 44.140625 26.359375 38.28125 
Q 16.015625 32.421875 10.546875 30.078125 
Q 10.546875 33.203125 5.46875 36.71875 
Q 16.015625 39.453125 24.21875 44.53125 
Q 32.421875 49.609375 37.109375 54.296875 
L 21.484375 54.296875 
Q 14.84375 54.296875 7.8125 53.90625 
L 7.8125 60.15625 
Q 14.84375 59.765625 21.484375 59.765625 
L 45.703125 59.765625 
L 45.703125 69.921875 
Q 38.28125 69.140625 17.96875 67.578125 
Q 16.796875 71.09375 14.453125 74.609375 
Q 32.8125 74.609375 50.390625 76.953125 
Q 67.96875 79.296875 74.609375 82.03125 
Q 76.953125 78.125 81.25 73.828125 
Q 74.609375 73.4375 67.96875 72.65625 
Q 61.328125 71.875 52.34375 70.703125 
L 52.34375 59.765625 
L 78.125 59.765625 
Q 83.984375 59.765625 91.40625 60.15625 
L 91.40625 53.90625 
Q 84.375 54.296875 78.125 54.296875 
L 61.71875 54.296875 
Q 66.40625 48.4375 74.21875 43.15625 
Q 82.03125 37.890625 94.140625 34.765625 
Q 89.84375 31.640625 88.28125 26.953125 
Q 82.421875 29.296875 77.34375 32.03125 
Q 76.5625 25 76.5625 12.5 
Q 76.5625 -0.78125 76.953125 -8.984375 
L 69.53125 -8.984375 
L 69.53125 -3.125 
L 28.515625 -3.125 
L 28.515625 -9.375 
L 21.875 -9.375 
L 21.875 11.71875 
Q 21.875 25 21.484375 33.59375 
z
M 69.53125 17.96875 
L 69.53125 27.734375 
L 28.515625 27.734375 
L 28.515625 17.96875 
z
M 69.53125 2.734375 
L 69.53125 12.5 
L 28.515625 12.5 
L 28.515625 2.734375 
z
M 71.484375 35.9375 
Q 62.109375 42.578125 52.734375 54.296875 
L 52.34375 54.296875 
L 52.34375 33.59375 
L 75 33.59375 
z
" id="SimHei-9999"/>
    </defs>
    <g style="fill:#800080;" transform="translate(10.565293 102.842551)rotate(-271.860655)scale(0.12 -0.12)">
     <use xlink:href="#SimHei-63"/>
     <use x="50" xlink:href="#SimHei-6f"/>
     <use x="100" xlink:href="#SimHei-69"/>
     <use x="150" xlink:href="#SimHei-6e"/>
     <use x="200" xlink:href="#SimHei-73"/>
     <use x="250" xlink:href="#SimHei-20"/>
     <use x="300" xlink:href="#SimHei-6f"/>
     <use x="350" xlink:href="#SimHei-66"/>
     <use x="400" xlink:href="#SimHei-20"/>
     <use x="450" xlink:href="#SimHei-9759"/>
     <use x="550" xlink:href="#SimHei-9999"/>
    </g>
   </g>
   <g id="Line3DCollection_3">
    <path d="M 58.492454 208.529967 
L 219.669895 176.585888 
L 336.085066 224.233899 
" style="fill:none;stroke:#b0b0b0;stroke-width:0.8;"/>
    <path d="M 57.897709 190.222231 
L 219.769111 159.08724 
L 336.710174 205.533478 
" style="fill:none;stroke:#b0b0b0;stroke-width:0.8;"/>
    <path d="M 57.297781 171.754931 
L 219.869148 141.443949 
L 337.340869 186.665935 
" style="fill:none;stroke:#b0b0b0;stroke-width:0.8;"/>
    <path d="M 56.692601 153.125973 
L 219.970014 123.654212 
L 337.977226 167.629019 
" style="fill:none;stroke:#b0b0b0;stroke-width:0.8;"/>
    <path d="M 56.0821 134.333224 
L 220.071722 105.716199 
L 338.619321 148.42044 
" style="fill:none;stroke:#b0b0b0;stroke-width:0.8;"/>
    <path d="M 55.466207 115.374514 
L 220.17428 87.628049 
L 339.267233 129.037865 
" style="fill:none;stroke:#b0b0b0;stroke-width:0.8;"/>
    <path d="M 54.844852 96.247636 
L 220.277701 69.387869 
L 339.92104 109.478918 
" style="fill:none;stroke:#b0b0b0;stroke-width:0.8;"/>
    <path d="M 54.21796 76.950341 
L 220.381995 50.993734 
L 340.580823 89.741182 
" style="fill:none;stroke:#b0b0b0;stroke-width:0.8;"/>
   </g>
   <g id="xtick_17">
    <g id="line2d_20">
     <path d="M 59.850818 208.26075 
L 55.772207 209.069099 
" style="fill:none;stroke:#000000;stroke-linecap:square;stroke-width:0.8;"/>
    </g>
    <g id="text_20">
     <!-- 0 -->
     <g transform="translate(36.319991 217.800274)scale(0.15 -0.15)">
      <use xlink:href="#SimHei-30"/>
     </g>
    </g>
   </g>
   <g id="xtick_18">
    <g id="line2d_21">
     <path d="M 59.262222 189.959775 
L 55.165133 190.747826 
" style="fill:none;stroke:#000000;stroke-linecap:square;stroke-width:0.8;"/>
    </g>
    <g id="text_21">
     <!-- 2 -->
     <g transform="translate(35.646444 199.518717)scale(0.15 -0.15)">
      <use xlink:href="#SimHei-32"/>
     </g>
    </g>
   </g>
   <g id="xtick_19">
    <g id="line2d_22">
     <path d="M 58.668498 171.499365 
L 54.552763 172.266732 
" style="fill:none;stroke:#000000;stroke-linecap:square;stroke-width:0.8;"/>
    </g>
    <g id="text_22">
     <!-- 4 -->
     <g transform="translate(34.967036 181.078092)scale(0.15 -0.15)">
      <use xlink:href="#SimHei-34"/>
     </g>
    </g>
   </g>
   <g id="xtick_20">
    <g id="line2d_23">
     <path d="M 58.069579 152.877427 
L 53.935029 153.623718 
" style="fill:none;stroke:#000000;stroke-linecap:square;stroke-width:0.8;"/>
    </g>
    <g id="text_23">
     <!-- 6 -->
     <g transform="translate(34.281691 162.476316)scale(0.15 -0.15)">
      <use xlink:href="#SimHei-36"/>
     </g>
    </g>
   </g>
   <g id="xtick_21">
    <g id="line2d_24">
     <path d="M 57.465397 134.091831 
L 53.311858 134.816645 
" style="fill:none;stroke:#000000;stroke-linecap:square;stroke-width:0.8;"/>
    </g>
    <g id="text_24">
     <!-- 8 -->
     <g transform="translate(33.590331 143.711265)scale(0.15 -0.15)">
      <use xlink:href="#SimHei-38"/>
     </g>
    </g>
   </g>
   <g id="xtick_22">
    <g id="line2d_25">
     <path d="M 56.855881 115.140412 
L 52.683179 115.843338 
" style="fill:none;stroke:#000000;stroke-linecap:square;stroke-width:0.8;"/>
    </g>
    <g id="text_25">
     <!-- 10 -->
     <g transform="translate(29.142875 124.780781)scale(0.15 -0.15)">
      <use xlink:href="#SimHei-31"/>
      <use x="50" xlink:href="#SimHei-30"/>
     </g>
    </g>
   </g>
   <g id="xtick_23">
    <g id="line2d_26">
     <path d="M 56.240962 96.020962 
L 52.048919 96.701585 
" style="fill:none;stroke:#000000;stroke-linecap:square;stroke-width:0.8;"/>
    </g>
    <g id="text_26">
     <!-- 12 -->
     <g transform="translate(28.439244 105.682667)scale(0.15 -0.15)">
      <use xlink:href="#SimHei-31"/>
      <use x="50" xlink:href="#SimHei-32"/>
     </g>
    </g>
   </g>
   <g id="xtick_24">
    <g id="line2d_27">
     <path d="M 55.620566 76.731239 
L 51.409002 77.389131 
" style="fill:none;stroke:#000000;stroke-linecap:square;stroke-width:0.8;"/>
    </g>
    <g id="text_27">
     <!-- 14 -->
     <g transform="translate(27.729354 86.414686)scale(0.15 -0.15)">
      <use xlink:href="#SimHei-31"/>
      <use x="50" xlink:href="#SimHei-34"/>
     </g>
    </g>
   </g>
  </g>
  <g id="axes_1">
   <g id="Path3DCollection_1">
    <defs>
     <path d="M 0 5 
C 1.326016 5 2.597899 4.473168 3.535534 3.535534 
C 4.473168 2.597899 5 1.326016 5 0 
C 5 -1.326016 4.473168 -2.597899 3.535534 -3.535534 
C 2.597899 -4.473168 1.326016 -5 0 -5 
C -1.326016 -5 -2.597899 -4.473168 -3.535534 -3.535534 
C -4.473168 -2.597899 -5 -1.326016 -5 0 
C -5 1.326016 -4.473168 2.597899 -3.535534 3.535534 
C -2.597899 4.473168 -1.326016 5 0 5 
z
" id="mae45cf6aca" style="stroke:#008000;"/>
    </defs>
    <g clip-path="url(#pf08d3dde06)">
     <use style="fill:#008000;stroke:#008000;" x="222.267591" xlink:href="#mae45cf6aca" y="137.591836"/>
    </g>
   </g>
   <g id="Path3DCollection_2">
    <path clip-path="url(#pf08d3dde06)" d="M 224.398551 57.85269 
C 224.586078 57.85269 224.765949 57.778185 224.898551 57.645583 
C 225.031152 57.512981 225.105658 57.33311 225.105658 57.145583 
C 225.105658 56.958056 225.031152 56.778185 224.898551 56.645583 
C 224.765949 56.512981 224.586078 56.438476 224.398551 56.438476 
C 224.211024 56.438476 224.031152 56.512981 223.898551 56.645583 
C 223.765949 56.778185 223.691444 56.958056 223.691444 57.145583 
C 223.691444 57.33311 223.765949 57.512981 223.898551 57.645583 
C 224.031152 57.778185 224.211024 57.85269 224.398551 57.85269 
z
" style="fill:#ff0000;stroke:#ff0000;"/>
    <path clip-path="url(#pf08d3dde06)" d="M 231.385035 70.681858 
C 231.881184 70.681858 232.35708 70.484735 232.70791 70.133905 
C 233.058741 69.783074 233.255863 69.307179 233.255863 68.811029 
C 233.255863 68.314879 233.058741 67.838984 232.70791 67.488153 
C 232.35708 67.137323 231.881184 66.9402 231.385035 66.9402 
C 230.888885 66.9402 230.41299 67.137323 230.062159 67.488153 
C 229.711328 67.838984 229.514206 68.314879 229.514206 68.811029 
C 229.514206 69.307179 229.711328 69.783074 230.062159 70.133905 
C 230.41299 70.484735 230.888885 70.681858 231.385035 70.681858 
z
" style="fill:#ff0000;stroke:#ff0000;"/>
    <path clip-path="url(#pf08d3dde06)" d="M 238.409492 83.18563 
C 239.111153 83.18563 239.784171 82.906857 240.28032 82.410708 
C 240.77647 81.914558 241.055243 81.24154 241.055243 80.539879 
C 241.055243 79.838217 240.77647 79.1652 240.28032 78.66905 
C 239.784171 78.172901 239.111153 77.894128 238.409492 77.894128 
C 237.70783 77.894128 237.034812 78.172901 236.538663 78.66905 
C 236.042513 79.1652 235.76374 79.838217 235.76374 80.539879 
C 235.76374 81.24154 236.042513 81.914558 236.538663 82.410708 
C 237.034812 82.906857 237.70783 83.18563 238.409492 83.18563 
z
" style="fill:#ff0000;stroke:#ff0000;"/>
    <path clip-path="url(#pf08d3dde06)" d="M 245.472232 96.156916 
C 246.486438 96.156916 247.459243 95.753967 248.176395 95.036814 
C 248.893548 94.319662 249.296496 93.346858 249.296496 92.332651 
C 249.296496 91.318444 248.893548 90.34564 248.176395 89.628487 
C 247.459243 88.911335 246.486438 88.508386 245.472232 88.508386 
C 244.458025 88.508386 243.485221 88.911335 242.768068 89.628487 
C 242.050916 90.34564 241.647967 91.318444 241.647967 92.332651 
C 241.647967 93.346858 242.050916 94.319662 242.768068 95.036814 
C 243.485221 95.753967 244.458025 96.156916 245.472232 96.156916 
z
" style="fill:#ff0000;stroke:#ff0000;"/>
    <path clip-path="url(#pf08d3dde06)" d="M 252.573569 109.469547 
C 253.973756 109.469547 255.316783 108.913247 256.306865 107.923165 
C 257.296947 106.933084 257.853247 105.590056 257.853247 104.189869 
C 257.853247 102.789682 257.296947 101.446655 256.306865 100.456573 
C 255.316783 99.466491 253.973756 98.910191 252.573569 98.910191 
C 251.173382 98.910191 249.830354 99.466491 248.840273 100.456573 
C 247.850191 101.446655 247.293891 102.789682 247.293891 104.189869 
C 247.293891 105.590056 247.850191 106.933084 248.840273 107.923165 
C 249.830354 108.913247 251.173382 109.469547 252.573569 109.469547 
z
" style="fill:#ff0000;stroke:#ff0000;"/>
    <path clip-path="url(#pf08d3dde06)" d="M 259.71382 122.276477 
C 261.348642 122.276477 262.916726 121.626956 264.072719 120.470962 
C 265.228713 119.314969 265.878234 117.746885 265.878234 116.112063 
C 265.878234 114.477241 265.228713 112.909158 264.072719 111.753164 
C 262.916726 110.597171 261.348642 109.947649 259.71382 109.947649 
C 258.078998 109.947649 256.510915 110.597171 255.354921 111.753164 
C 254.198928 112.909158 253.549406 114.477241 253.549406 116.112063 
C 253.549406 117.746885 254.198928 119.314969 255.354921 120.470962 
C 256.510915 121.626956 258.078998 122.276477 259.71382 122.276477 
z
" style="fill:#ff0000;stroke:#ff0000;"/>
    <path clip-path="url(#pf08d3dde06)" d="M 266.893307 134.233691 
C 268.520042 134.233691 270.080369 133.587382 271.230645 132.437107 
C 272.38092 131.286831 273.027229 129.726504 273.027229 128.099769 
C 273.027229 126.473034 272.38092 124.912706 271.230645 123.762431 
C 270.080369 122.612155 268.520042 121.965847 266.893307 121.965847 
C 265.266572 121.965847 263.706244 122.612155 262.555969 123.762431 
C 261.405693 124.912706 260.759385 126.473034 260.759385 128.099769 
C 260.759385 129.726504 261.405693 131.286831 262.555969 132.437107 
C 263.706244 133.587382 265.266572 134.233691 266.893307 134.233691 
z
" style="fill:#ff0000;stroke:#ff0000;"/>
    <path clip-path="url(#pf08d3dde06)" d="M 274.112353 145.653527 
C 275.57097 145.653527 276.970042 145.074012 278.00144 144.042614 
C 279.032838 143.011216 279.612353 141.612144 279.612353 140.153527 
C 279.612353 138.69491 279.032838 137.295838 278.00144 136.26444 
C 276.970042 135.233042 275.57097 134.653527 274.112353 134.653527 
C 272.653736 134.653527 271.254663 135.233042 270.223265 136.26444 
C 269.191867 137.295838 268.612353 138.69491 268.612353 140.153527 
C 268.612353 141.612144 269.191867 143.011216 270.223265 144.042614 
C 271.254663 145.074012 272.653736 145.653527 274.112353 145.653527 
z
" style="fill:#ff0000;stroke:#ff0000;"/>
    <path clip-path="url(#pf08d3dde06)" d="M 281.371286 156.457186 
C 282.48071 156.457186 283.544844 156.016407 284.329326 155.231926 
C 285.113807 154.447445 285.554586 153.38331 285.554586 152.273886 
C 285.554586 151.164462 285.113807 150.100327 284.329326 149.315846 
C 283.544844 148.531365 282.48071 148.090586 281.371286 148.090586 
C 280.261862 148.090586 279.197727 148.531365 278.413246 149.315846 
C 277.628765 150.100327 277.187986 151.164462 277.187986 152.273886 
C 277.187986 153.38331 277.628765 154.447445 278.413246 155.231926 
C 279.197727 156.016407 280.261862 156.457186 281.371286 156.457186 
z
" style="fill:#ff0000;stroke:#ff0000;"/>
    <path clip-path="url(#pf08d3dde06)" d="M 288.670438 168.014566 
C 289.612749 168.014566 290.516592 167.640182 291.182907 166.973868 
C 291.849221 166.307553 292.223605 165.40371 292.223605 164.461399 
C 292.223605 163.519088 291.849221 162.615244 291.182907 161.94893 
C 290.516592 161.282615 289.612749 160.908231 288.670438 160.908231 
C 287.728127 160.908231 286.824283 161.282615 286.157969 161.94893 
C 285.491654 162.615244 285.11727 163.519088 285.11727 164.461399 
C 285.11727 165.40371 285.491654 166.307553 286.157969 166.973868 
C 286.824283 167.640182 287.728127 168.014566 288.670438 168.014566 
z
" style="fill:#ff0000;stroke:#ff0000;"/>
    <path clip-path="url(#pf08d3dde06)" d="M 296.010143 179.314701 
C 296.699161 179.314701 297.360052 179.040951 297.847261 178.553742 
C 298.33447 178.066533 298.60822 177.405643 298.60822 176.716625 
C 298.60822 176.027607 298.33447 175.366717 297.847261 174.879508 
C 297.360052 174.392298 296.699161 174.118549 296.010143 174.118549 
C 295.321126 174.118549 294.660235 174.392298 294.173026 174.879508 
C 293.685817 175.366717 293.412067 176.027607 293.412067 176.716625 
C 293.412067 177.405643 293.685817 178.066533 294.173026 178.553742 
C 294.660235 179.040951 295.321126 179.314701 296.010143 179.314701 
z
" style="fill:#ff0000;stroke:#ff0000;"/>
    <path clip-path="url(#pf08d3dde06)" d="M 303.390742 191.161451 
C 303.953323 191.161451 304.492937 190.937935 304.890742 190.54013 
C 305.288547 190.142326 305.512062 189.602711 305.512062 189.04013 
C 305.512062 188.47755 305.288547 187.937935 304.890742 187.54013 
C 304.492937 187.142326 303.953323 186.91881 303.390742 186.91881 
C 302.828161 186.91881 302.288547 187.142326 301.890742 187.54013 
C 301.492937 187.937935 301.269422 188.47755 301.269422 189.04013 
C 301.269422 189.602711 301.492937 190.142326 301.890742 190.54013 
C 302.288547 190.937935 302.828161 191.161451 303.390742 191.161451 
z
" style="fill:#ff0000;stroke:#ff0000;"/>
    <path clip-path="url(#pf08d3dde06)" d="M 310.812576 202.755363 
C 311.163407 202.755363 311.499916 202.615977 311.747991 202.367902 
C 311.996065 202.119827 312.135452 201.783318 312.135452 201.432488 
C 312.135452 201.081657 311.996065 200.745148 311.747991 200.497073 
C 311.499916 200.248999 311.163407 200.109612 310.812576 200.109612 
C 310.461745 200.109612 310.125237 200.248999 309.877162 200.497073 
C 309.629087 200.745148 309.489701 201.081657 309.489701 201.432488 
C 309.489701 201.783318 309.629087 202.119827 309.877162 202.367902 
C 310.125237 202.615977 310.461745 202.755363 310.812576 202.755363 
z
" style="fill:#ff0000;stroke:#ff0000;"/>
    <path clip-path="url(#pf08d3dde06)" d="M 318.275992 214.247829 
C 318.369756 214.247829 318.459692 214.210576 318.525992 214.144275 
C 318.592293 214.077974 318.629546 213.988039 318.629546 213.894275 
C 318.629546 213.800512 318.592293 213.710576 318.525992 213.644275 
C 318.459692 213.577974 318.369756 213.540722 318.275992 213.540722 
C 318.182229 213.540722 318.092293 213.577974 318.025992 213.644275 
C 317.959692 213.710576 317.922439 213.800512 317.922439 213.894275 
C 317.922439 213.988039 317.959692 214.077974 318.025992 214.144275 
C 318.092293 214.210576 318.182229 214.247829 318.275992 214.247829 
z
" style="fill:#ff0000;stroke:#ff0000;"/>
    <path clip-path="url(#pf08d3dde06)" d="M 207.466343 57.366119 
C 207.714418 57.366119 207.952365 57.267558 208.127781 57.092143 
C 208.303196 56.916727 208.401757 56.67878 208.401757 56.430705 
C 208.401757 56.18263 208.303196 55.944682 208.127781 55.769267 
C 207.952365 55.593852 207.714418 55.495291 207.466343 55.495291 
C 207.218268 55.495291 206.98032 55.593852 206.804905 55.769267 
C 206.62949 55.944682 206.530929 56.18263 206.530929 56.430705 
C 206.530929 56.67878 206.62949 56.916727 206.804905 57.092143 
C 206.98032 57.267558 207.218268 57.366119 207.466343 57.366119 
z
" style="fill:#ff0000;stroke:#ff0000;"/>
    <path clip-path="url(#pf08d3dde06)" d="M 197.459219 69.344266 
C 197.989625 69.344266 198.498379 69.133533 198.873432 68.758479 
C 199.248486 68.383426 199.459219 67.874672 199.459219 67.344266 
C 199.459219 66.81386 199.248486 66.305106 198.873432 65.930052 
C 198.498379 65.554999 197.989625 65.344266 197.459219 65.344266 
C 196.928813 65.344266 196.420059 65.554999 196.045005 65.930052 
C 195.669951 66.305106 195.459219 66.81386 195.459219 67.344266 
C 195.459219 67.874672 195.669951 68.383426 196.045005 68.758479 
C 196.420059 69.133533 196.928813 69.344266 197.459219 69.344266 
z
" style="fill:#ff0000;stroke:#ff0000;"/>
    <path clip-path="url(#pf08d3dde06)" d="M 187.428275 81.19928 
C 188.201469 81.19928 188.943098 80.892087 189.489828 80.345357 
C 190.036558 79.798626 190.343751 79.056997 190.343751 78.283804 
C 190.343751 77.51061 190.036558 76.768981 189.489828 76.222251 
C 188.943098 75.675521 188.201469 75.368328 187.428275 75.368328 
C 186.655082 75.368328 185.913453 75.675521 185.366723 76.222251 
C 184.819992 76.768981 184.512799 77.51061 184.512799 78.283804 
C 184.512799 79.056997 184.819992 79.798626 185.366723 80.345357 
C 185.913453 80.892087 186.655082 81.19928 187.428275 81.19928 
z
" style="fill:#ff0000;stroke:#ff0000;"/>
    <path clip-path="url(#pf08d3dde06)" d="M 177.373428 93.007735 
C 178.370147 93.007735 179.326177 92.611735 180.030964 91.906948 
C 180.735751 91.202161 181.131752 90.24613 181.131752 89.249411 
C 181.131752 88.252692 180.735751 87.296662 180.030964 86.591875 
C 179.326177 85.887088 178.370147 85.491087 177.373428 85.491087 
C 176.376708 85.491087 175.420678 85.887088 174.715891 86.591875 
C 174.011104 87.296662 173.615104 88.252692 173.615104 89.249411 
C 173.615104 90.24613 174.011104 91.202161 174.715891 91.906948 
C 175.420678 92.611735 176.376708 93.007735 177.373428 93.007735 
z
" style="fill:#ff0000;stroke:#ff0000;"/>
    <path clip-path="url(#pf08d3dde06)" d="M 167.29459 104.439395 
C 168.407969 104.439395 169.475897 103.997045 170.263176 103.209767 
C 171.050454 102.422489 171.492804 101.354561 171.492804 100.241182 
C 171.492804 99.127802 171.050454 98.059874 170.263176 97.272596 
C 169.475897 96.485318 168.407969 96.042968 167.29459 96.042968 
C 166.181211 96.042968 165.113283 96.485318 164.326004 97.272596 
C 163.538726 98.059874 163.096376 99.127802 163.096376 100.241182 
C 163.096376 101.354561 163.538726 102.422489 164.326004 103.209767 
C 165.113283 103.997045 166.181211 104.439395 167.29459 104.439395 
z
" style="fill:#ff0000;stroke:#ff0000;"/>
    <path clip-path="url(#pf08d3dde06)" d="M 157.191676 115.305812 
C 158.264848 115.305812 159.29421 114.879436 160.053057 114.120589 
C 160.811904 113.361742 161.23828 112.33238 161.23828 111.259209 
C 161.23828 110.186037 160.811904 109.156675 160.053057 108.397828 
C 159.29421 107.638981 158.264848 107.212605 157.191676 107.212605 
C 156.118505 107.212605 155.089143 107.638981 154.330296 108.397828 
C 153.571449 109.156675 153.145073 110.186037 153.145073 111.259209 
C 153.145073 112.33238 153.571449 113.361742 154.330296 114.120589 
C 155.089143 114.879436 156.118505 115.305812 157.191676 115.305812 
z
" style="fill:#ff0000;stroke:#ff0000;"/>
    <path clip-path="url(#pf08d3dde06)" d="M 147.064601 126.380963 
C 148.145934 126.380963 149.183123 125.951345 149.947741 125.186727 
C 150.712359 124.422109 151.141977 123.384919 151.141977 122.303586 
C 151.141977 121.222253 150.712359 120.185064 149.947741 119.420446 
C 149.183123 118.655828 148.145934 118.22621 147.064601 118.22621 
C 145.983268 118.22621 144.946078 118.655828 144.18146 119.420446 
C 143.416842 120.185064 142.987224 121.222253 142.987224 122.303586 
C 142.987224 123.384919 143.416842 124.422109 144.18146 125.186727 
C 144.946078 125.951345 145.983268 126.380963 147.064601 126.380963 
z
" style="fill:#ff0000;stroke:#ff0000;"/>
    <path clip-path="url(#pf08d3dde06)" d="M 136.913276 136.765575 
C 137.812623 136.765575 138.675257 136.40826 139.311192 135.772325 
C 139.947126 135.136391 140.304441 134.273757 140.304441 133.37441 
C 140.304441 132.475062 139.947126 131.612429 139.311192 130.976494 
C 138.675257 130.340559 137.812623 129.983245 136.913276 129.983245 
C 136.013928 129.983245 135.151295 130.340559 134.51536 130.976494 
C 133.879425 131.612429 133.522111 132.475062 133.522111 133.37441 
C 133.522111 134.273757 133.879425 135.136391 134.51536 135.772325 
C 135.151295 136.40826 136.013928 136.765575 136.913276 136.765575 
z
" style="fill:#ff0000;stroke:#ff0000;"/>
    <path clip-path="url(#pf08d3dde06)" d="M 126.737615 147.471774 
C 127.533224 147.471774 128.296354 147.155675 128.858935 146.593094 
C 129.421516 146.030513 129.737615 145.267383 129.737615 144.471774 
C 129.737615 143.676164 129.421516 142.913034 128.858935 142.350453 
C 128.296354 141.787873 127.533224 141.471774 126.737615 141.471774 
C 125.942005 141.471774 125.178875 141.787873 124.616294 142.350453 
C 124.053714 142.913034 123.737615 143.676164 123.737615 144.471774 
C 123.737615 145.267383 124.053714 146.030513 124.616294 146.593094 
C 125.178875 147.155675 125.942005 147.471774 126.737615 147.471774 
z
" style="fill:#ff0000;stroke:#ff0000;"/>
    <path clip-path="url(#pf08d3dde06)" d="M 116.53753 158.045264 
C 117.187142 158.045264 117.810235 157.78717 118.269581 157.327825 
C 118.728926 156.868479 118.98702 156.245386 118.98702 155.595774 
C 118.98702 154.946161 118.728926 154.323068 118.269581 153.863723 
C 117.810235 153.404378 117.187142 153.146284 116.53753 153.146284 
C 115.887918 153.146284 115.264824 153.404378 114.805479 153.863723 
C 114.346134 154.323068 114.08804 154.946161 114.08804 155.595774 
C 114.08804 156.245386 114.346134 156.868479 114.805479 157.327825 
C 115.264824 157.78717 115.887918 158.045264 116.53753 158.045264 
z
" style="fill:#ff0000;stroke:#ff0000;"/>
    <path clip-path="url(#pf08d3dde06)" d="M 106.312933 168.617335 
C 106.809083 168.617335 107.284978 168.420212 107.635809 168.069382 
C 107.986639 167.718551 108.183762 167.242656 108.183762 166.746506 
C 108.183762 166.250356 107.986639 165.774461 107.635809 165.42363 
C 107.284978 165.0728 106.809083 164.875677 106.312933 164.875677 
C 105.816783 164.875677 105.340888 165.0728 104.990057 165.42363 
C 104.639227 165.774461 104.442104 166.250356 104.442104 166.746506 
C 104.442104 167.242656 104.639227 167.718551 104.990057 168.069382 
C 105.340888 168.420212 105.816783 168.617335 106.312933 168.617335 
z
" style="fill:#ff0000;stroke:#ff0000;"/>
    <path clip-path="url(#pf08d3dde06)" d="M 96.063736 179.293373 
C 96.42688 179.293373 96.7752 179.149095 97.031982 178.892313 
C 97.288763 178.635531 97.433042 178.287211 97.433042 177.924067 
C 97.433042 177.560923 97.288763 177.212603 97.031982 176.955821 
C 96.7752 176.699039 96.42688 176.554761 96.063736 176.554761 
C 95.700591 176.554761 95.352272 176.699039 95.09549 176.955821 
C 94.838708 177.212603 94.694429 177.560923 94.694429 177.924067 
C 94.694429 178.287211 94.838708 178.635531 95.09549 178.892313 
C 95.352272 179.149095 95.700591 179.293373 96.063736 179.293373 
z
" style="fill:#ff0000;stroke:#ff0000;"/>
    <path clip-path="url(#pf08d3dde06)" d="M 85.789849 190.246587 
C 86.086355 190.246587 86.370757 190.128784 86.580419 189.919123 
C 86.79008 189.709461 86.907883 189.425059 86.907883 189.128553 
C 86.907883 188.832047 86.79008 188.547645 86.580419 188.337984 
C 86.370757 188.128323 86.086355 188.010519 85.789849 188.010519 
C 85.493343 188.010519 85.208941 188.128323 84.99928 188.337984 
C 84.789618 188.547645 84.671815 188.832047 84.671815 189.128553 
C 84.671815 189.425059 84.789618 189.709461 84.99928 189.919123 
C 85.208941 190.128784 85.493343 190.246587 85.789849 190.246587 
z
" style="fill:#ff0000;stroke:#ff0000;"/>
    <path clip-path="url(#pf08d3dde06)" d="M 75.491184 200.860063 
C 75.623786 200.860063 75.750974 200.80738 75.844738 200.713616 
C 75.938501 200.619853 75.991184 200.492664 75.991184 200.360063 
C 75.991184 200.227461 75.938501 200.100273 75.844738 200.00651 
C 75.750974 199.912746 75.623786 199.860063 75.491184 199.860063 
C 75.358583 199.860063 75.231394 199.912746 75.137631 200.00651 
C 75.043867 200.100273 74.991184 200.227461 74.991184 200.360063 
C 74.991184 200.492664 75.043867 200.619853 75.137631 200.713616 
C 75.231394 200.80738 75.358583 200.860063 75.491184 200.860063 
z
" style="fill:#ff0000;stroke:#ff0000;"/>
    <path clip-path="url(#pf08d3dde06)" d="M 308.024995 226.029582 
C 308.187398 226.029582 308.343171 225.965058 308.458007 225.850222 
C 308.572844 225.735386 308.637367 225.579612 308.637367 225.417209 
C 308.637367 225.254806 308.572844 225.099033 308.458007 224.984197 
C 308.343171 224.86936 308.187398 224.804837 308.024995 224.804837 
C 307.862592 224.804837 307.706818 224.86936 307.591982 224.984197 
C 307.477146 225.099033 307.412622 225.254806 307.412622 225.417209 
C 307.412622 225.579612 307.477146 225.735386 307.591982 225.850222 
C 307.706818 225.965058 307.862592 226.029582 308.024995 226.029582 
z
" style="fill:#ff0000;stroke:#ff0000;"/>
    <path clip-path="url(#pf08d3dde06)" d="M 290.324347 225.780811 
C 290.687491 225.780811 291.035811 225.636533 291.292593 225.379751 
C 291.549375 225.122969 291.693654 224.774649 291.693654 224.411505 
C 291.693654 224.048361 291.549375 223.700041 291.292593 223.443259 
C 291.035811 223.186477 290.687491 223.042199 290.324347 223.042199 
C 289.961203 223.042199 289.612883 223.186477 289.356101 223.443259 
C 289.09932 223.700041 288.955041 224.048361 288.955041 224.411505 
C 288.955041 224.774649 289.09932 225.122969 289.356101 225.379751 
C 289.612883 225.636533 289.961203 225.780811 290.324347 225.780811 
z
" style="fill:#ff0000;stroke:#ff0000;"/>
    <path clip-path="url(#pf08d3dde06)" d="M 272.679137 224.778257 
C 273.042281 224.778257 273.390601 224.633978 273.647382 224.377196 
C 273.904164 224.120414 274.048443 223.772095 274.048443 223.40895 
C 274.048443 223.045806 273.904164 222.697486 273.647382 222.440705 
C 273.390601 222.183923 273.042281 222.039644 272.679137 222.039644 
C 272.315992 222.039644 271.967673 222.183923 271.710891 222.440705 
C 271.454109 222.697486 271.30983 223.045806 271.30983 223.40895 
C 271.30983 223.772095 271.454109 224.120414 271.710891 224.377196 
C 271.967673 224.633978 272.315992 224.778257 272.679137 224.778257 
z
" style="fill:#ff0000;stroke:#ff0000;"/>
    <path clip-path="url(#pf08d3dde06)" d="M 255.089103 224.959041 
C 255.765241 224.959041 256.413777 224.690408 256.891879 224.212307 
C 257.36998 223.734205 257.638613 223.085669 257.638613 222.409531 
C 257.638613 221.733393 257.36998 221.084857 256.891879 220.606755 
C 256.413777 220.128654 255.765241 219.860021 255.089103 219.860021 
C 254.412965 219.860021 253.764429 220.128654 253.286327 220.606755 
C 252.808226 221.084857 252.539593 221.733393 252.539593 222.409531 
C 252.539593 223.085669 252.808226 223.734205 253.286327 224.212307 
C 253.764429 224.690408 254.412965 224.959041 255.089103 224.959041 
z
" style="fill:#ff0000;stroke:#ff0000;"/>
    <path clip-path="url(#pf08d3dde06)" d="M 237.553988 223.913232 
C 238.216996 223.913232 238.852938 223.649816 239.321755 223.180999 
C 239.790572 222.712182 240.053988 222.07624 240.053988 221.413232 
C 240.053988 220.750224 239.790572 220.114282 239.321755 219.645465 
C 238.852938 219.176648 238.216996 218.913232 237.553988 218.913232 
C 236.89098 218.913232 236.255039 219.176648 235.786221 219.645465 
C 235.317404 220.114282 235.053988 220.750224 235.053988 221.413232 
C 235.053988 222.07624 235.317404 222.712182 235.786221 223.180999 
C 236.255039 223.649816 236.89098 223.913232 237.553988 223.913232 
z
" style="fill:#ff0000;stroke:#ff0000;"/>
    <path clip-path="url(#pf08d3dde06)" d="M 220.073535 223.313998 
C 220.841022 223.313998 221.577178 223.009072 222.119873 222.466377 
C 222.662569 221.923681 222.967494 221.187525 222.967494 220.420038 
C 222.967494 219.652551 222.662569 218.916395 222.119873 218.3737 
C 221.577178 217.831005 220.841022 217.526079 220.073535 217.526079 
C 219.306048 217.526079 218.569892 217.831005 218.027197 218.3737 
C 217.484502 218.916395 217.179576 219.652551 217.179576 220.420038 
C 217.179576 221.187525 217.484502 221.923681 218.027197 222.466377 
C 218.569892 223.009072 219.306048 223.313998 220.073535 223.313998 
z
" style="fill:#ff0000;stroke:#ff0000;"/>
    <path clip-path="url(#pf08d3dde06)" d="M 202.647489 222.122519 
C 203.36157 222.122519 204.0465 221.838811 204.551432 221.33388 
C 205.056364 220.828948 205.340071 220.144017 205.340071 219.429936 
C 205.340071 218.715855 205.056364 218.030925 204.551432 217.525993 
C 204.0465 217.021061 203.36157 216.737354 202.647489 216.737354 
C 201.933408 216.737354 201.248477 217.021061 200.743546 217.525993 
C 200.238614 218.030925 199.954906 218.715855 199.954906 219.429936 
C 199.954906 220.144017 200.238614 220.828948 200.743546 221.33388 
C 201.248477 221.838811 201.933408 222.122519 202.647489 222.122519 
z
" style="fill:#ff0000;stroke:#ff0000;"/>
    <path clip-path="url(#pf08d3dde06)" d="M 185.275595 221.249154 
C 186.01982 221.249154 186.733663 220.953471 187.259909 220.427224 
C 187.786155 219.900978 188.081838 219.187135 188.081838 218.442911 
C 188.081838 217.698687 187.786155 216.984844 187.259909 216.458597 
C 186.733663 215.932351 186.01982 215.636668 185.275595 215.636668 
C 184.531371 215.636668 183.817528 215.932351 183.291282 216.458597 
C 182.765036 216.984844 182.469352 217.698687 182.469352 218.442911 
C 182.469352 219.187135 182.765036 219.900978 183.291282 220.427224 
C 183.817528 220.953471 184.531371 221.249154 185.275595 221.249154 
z
" style="fill:#ff0000;stroke:#ff0000;"/>
    <path clip-path="url(#pf08d3dde06)" d="M 167.957603 220.151531 
C 168.671684 220.151531 169.356615 219.867823 169.861546 219.362891 
C 170.366478 218.85796 170.650185 218.173029 170.650185 217.458948 
C 170.650185 216.744867 170.366478 216.059937 169.861546 215.555005 
C 169.356615 215.050073 168.671684 214.766366 167.957603 214.766366 
C 167.243522 214.766366 166.558591 215.050073 166.05366 215.555005 
C 165.548728 216.059937 165.265021 216.744867 165.265021 217.458948 
C 165.265021 218.173029 165.548728 218.85796 166.05366 219.362891 
C 166.558591 219.867823 167.243522 220.151531 167.957603 220.151531 
z
" style="fill:#ff0000;stroke:#ff0000;"/>
    <path clip-path="url(#pf08d3dde06)" d="M 150.693261 218.849742 
C 151.322246 218.849742 151.925553 218.599844 152.370312 218.155085 
C 152.815071 217.710325 153.064969 217.107018 153.064969 216.478034 
C 153.064969 215.849049 152.815071 215.245742 152.370312 214.800983 
C 151.925553 214.356224 151.322246 214.106325 150.693261 214.106325 
C 150.064277 214.106325 149.460969 214.356224 149.01621 214.800983 
C 148.571451 215.245742 148.321553 215.849049 148.321553 216.478034 
C 148.321553 217.107018 148.571451 217.710325 149.01621 218.155085 
C 149.460969 218.599844 150.064277 218.849742 150.693261 218.849742 
z
" style="fill:#ff0000;stroke:#ff0000;"/>
    <path clip-path="url(#pf08d3dde06)" d="M 133.482321 217.818558 
C 134.097169 217.818558 134.686917 217.574276 135.121681 217.139513 
C 135.556444 216.70475 135.800726 216.115001 135.800726 215.500153 
C 135.800726 214.885305 135.556444 214.295557 135.121681 213.860794 
C 134.686917 213.42603 134.097169 213.181749 133.482321 213.181749 
C 132.867473 213.181749 132.277725 213.42603 131.842961 213.860794 
C 131.408198 214.295557 131.163916 214.885305 131.163916 215.500153 
C 131.163916 216.115001 131.408198 216.70475 131.842961 217.139513 
C 132.277725 217.574276 132.867473 217.818558 133.482321 217.818558 
z
" style="fill:#ff0000;stroke:#ff0000;"/>
    <path clip-path="url(#pf08d3dde06)" d="M 116.324535 215.848169 
C 116.675366 215.848169 117.011874 215.708782 117.259949 215.460707 
C 117.508024 215.212632 117.647411 214.876124 117.647411 214.525293 
C 117.647411 214.174462 117.508024 213.837953 117.259949 213.589879 
C 117.011874 213.341804 116.675366 213.202417 116.324535 213.202417 
C 115.973704 213.202417 115.637195 213.341804 115.389121 213.589879 
C 115.141046 213.837953 115.001659 214.174462 115.001659 214.525293 
C 115.001659 214.876124 115.141046 215.212632 115.389121 215.460707 
C 115.637195 215.708782 115.973704 215.848169 116.324535 215.848169 
z
" style="fill:#ff0000;stroke:#ff0000;"/>
    <path clip-path="url(#pf08d3dde06)" d="M 99.219657 214.165811 
C 99.38206 214.165811 99.537834 214.101288 99.65267 213.986451 
C 99.767506 213.871615 99.83203 213.715842 99.83203 213.553439 
C 99.83203 213.391036 99.767506 213.235262 99.65267 213.120426 
C 99.537834 213.00559 99.38206 212.941066 99.219657 212.941066 
C 99.057254 212.941066 98.901481 213.00559 98.786644 213.120426 
C 98.671808 213.235262 98.607285 213.391036 98.607285 213.553439 
C 98.607285 213.715842 98.671808 213.871615 98.786644 213.986451 
C 98.901481 214.101288 99.057254 214.165811 99.219657 214.165811 
z
" style="fill:#ff0000;stroke:#ff0000;"/>
    <path clip-path="url(#pf08d3dde06)" d="M 82.167443 212.93813 
C 82.261207 212.93813 82.351143 212.900878 82.417443 212.834577 
C 82.483744 212.768276 82.520997 212.67834 82.520997 212.584577 
C 82.520997 212.490813 82.483744 212.400878 82.417443 212.334577 
C 82.351143 212.268276 82.261207 212.231023 82.167443 212.231023 
C 82.07368 212.231023 81.983744 212.268276 81.917443 212.334577 
C 81.851143 212.400878 81.81389 212.490813 81.81389 212.584577 
C 81.81389 212.67834 81.851143 212.768276 81.917443 212.834577 
C 81.983744 212.900878 82.07368 212.93813 82.167443 212.93813 
z
" style="fill:#ff0000;stroke:#ff0000;"/>
   </g>
   <g id="legend_1">
    <g id="patch_6">
     <path d="M 21.2 291.2 
L 294.2 291.2 
Q 297.2 291.2 297.2 288.2 
L 297.2 249.95 
Q 297.2 246.95 294.2 246.95 
L 21.2 246.95 
Q 18.2 246.95 18.2 249.95 
L 18.2 288.2 
Q 18.2 291.2 21.2 291.2 
z
" style="fill:#ffffff;opacity:0.8;stroke:#cccccc;stroke-linejoin:miter;"/>
    </g>
    <g id="Path3DCollection_3">
     <defs>
      <path d="M 0 4.366062 
C 1.157893 4.366062 2.268518 3.906026 3.087272 3.087272 
C 3.906026 2.268518 4.366062 1.157893 4.366062 0 
C 4.366062 -1.157893 3.906026 -2.268518 3.087272 -3.087272 
C 2.268518 -3.906026 1.157893 -4.366062 0 -4.366062 
C -1.157893 -4.366062 -2.268518 -3.906026 -3.087272 -3.087272 
C -3.906026 -2.268518 -4.366062 -1.157893 -4.366062 0 
C -4.366062 1.157893 -3.906026 2.268518 -3.087272 3.087272 
C -2.268518 3.906026 -1.157893 4.366062 0 4.366062 
z
" id="m4a8b929ba9" style="stroke:#ff0000;"/>
     </defs>
     <g>
      <use style="fill:#ff0000;stroke:#ff0000;" x="39.2" xlink:href="#m4a8b929ba9" y="259.5125"/>
     </g>
    </g>
    <g id="text_28">
     <!-- probability of absorbing state -->
     <defs>
      <path d="M 44.140625 23.828125 
Q 44.140625 12.5 38.671875 6.640625 
Q 33.203125 0.78125 25.390625 0.78125 
Q 21.09375 0.78125 17.96875 2.53125 
Q 14.84375 4.296875 12.5 7.8125 
L 12.5 -12.5 
L 4.6875 -12.5 
L 4.6875 45.703125 
L 12.5 45.703125 
L 12.5 39.84375 
Q 14.84375 43.359375 17.96875 44.921875 
Q 21.09375 46.484375 25.390625 46.484375 
Q 33.203125 46.484375 38.671875 40.8125 
Q 44.140625 35.15625 44.140625 23.828125 
z
M 35.546875 23.828125 
Q 35.546875 31.25 32.609375 35.34375 
Q 29.6875 39.453125 23.828125 39.453125 
Q 19.140625 39.453125 15.8125 35.34375 
Q 12.5 31.25 12.5 23.828125 
Q 12.5 16.40625 15.8125 12.109375 
Q 19.140625 7.8125 23.828125 7.8125 
Q 29.6875 7.8125 32.609375 12.109375 
Q 35.546875 16.40625 35.546875 23.828125 
z
" id="SimHei-70"/>
      <path d="M 39.0625 37.890625 
Q 31.640625 39.0625 26.5625 35.734375 
Q 21.484375 32.421875 17.96875 24.21875 
L 17.96875 1.953125 
L 10.15625 1.953125 
L 10.15625 45.703125 
L 17.96875 45.703125 
L 17.96875 34.375 
Q 21.484375 40.625 26.75 43.546875 
Q 32.03125 46.484375 39.0625 46.484375 
z
" id="SimHei-72"/>
      <path d="M 44.140625 23.828125 
Q 44.140625 12.5 38.671875 6.828125 
Q 33.203125 1.171875 25.390625 1.171875 
Q 21.09375 1.171875 17.96875 2.734375 
Q 14.84375 4.296875 12.5 7.8125 
L 12.5 1.953125 
L 4.6875 1.953125 
L 4.6875 68.75 
L 12.5 68.75 
L 12.5 39.84375 
Q 14.84375 43.359375 17.96875 45.109375 
Q 21.09375 46.875 25.390625 46.875 
Q 33.203125 46.875 38.671875 41.015625 
Q 44.140625 35.15625 44.140625 23.828125 
z
M 35.546875 23.828125 
Q 35.546875 31.25 32.609375 35.546875 
Q 29.6875 39.84375 23.828125 39.84375 
Q 19.140625 39.84375 15.8125 35.546875 
Q 12.5 31.25 12.5 23.828125 
Q 12.5 16.40625 15.8125 12.296875 
Q 19.140625 8.203125 23.828125 8.203125 
Q 29.6875 8.203125 32.609375 12.296875 
Q 35.546875 16.40625 35.546875 23.828125 
z
" id="SimHei-62"/>
      <path d="M 44.921875 1.953125 
L 35.546875 1.953125 
Q 34.765625 2.734375 34.375 4.09375 
Q 33.984375 5.46875 33.984375 7.421875 
Q 31.25 4.296875 27.34375 2.734375 
Q 23.4375 1.171875 19.140625 1.171875 
Q 12.890625 1.171875 8.59375 4.296875 
Q 4.296875 7.421875 4.296875 13.28125 
Q 4.296875 19.140625 8.203125 22.65625 
Q 12.109375 26.171875 20.3125 27.34375 
Q 25.78125 28.125 29.875 29.296875 
Q 33.984375 30.46875 33.984375 32.421875 
Q 33.984375 34.765625 32.21875 37.109375 
Q 30.46875 39.453125 24.609375 39.453125 
Q 19.921875 39.453125 17.765625 37.6875 
Q 15.625 35.9375 14.84375 32.8125 
L 6.25 32.8125 
Q 7.03125 39.0625 11.90625 42.765625 
Q 16.796875 46.484375 24.609375 46.484375 
Q 33.203125 46.484375 37.5 42.578125 
Q 41.796875 38.671875 41.796875 31.640625 
L 41.796875 10.15625 
Q 41.796875 7.8125 42.578125 5.859375 
Q 43.359375 3.90625 44.921875 1.953125 
z
M 33.984375 16.40625 
L 33.984375 24.21875 
Q 31.640625 23.4375 29.484375 22.84375 
Q 27.34375 22.265625 22.265625 21.484375 
Q 16.40625 20.703125 14.640625 18.75 
Q 12.890625 16.796875 12.890625 14.0625 
Q 12.890625 11.71875 14.640625 9.953125 
Q 16.40625 8.203125 19.921875 8.203125 
Q 23.4375 8.203125 27.53125 10.15625 
Q 31.640625 12.109375 33.984375 16.40625 
z
" id="SimHei-61"/>
      <path d="M 28.515625 1.953125 
L 20.703125 1.953125 
L 20.703125 68.75 
L 28.515625 68.75 
z
" id="SimHei-6c"/>
      <path d="M 42.96875 3.125 
Q 41.015625 2.34375 38.46875 1.75 
Q 35.9375 1.171875 31.640625 1.171875 
Q 24.609375 1.171875 20.3125 5.078125 
Q 16.015625 8.984375 16.015625 16.015625 
L 16.015625 39.453125 
L 2.734375 39.453125 
L 2.734375 45.703125 
L 16.015625 45.703125 
L 16.015625 60.9375 
L 23.828125 60.9375 
L 23.828125 45.703125 
L 39.84375 45.703125 
L 39.84375 39.453125 
L 23.828125 39.453125 
L 23.828125 15.625 
Q 23.828125 12.5 25.390625 10.34375 
Q 26.953125 8.203125 31.25 8.203125 
Q 35.546875 8.203125 38.28125 8.984375 
Q 41.015625 9.765625 42.96875 10.9375 
z
" id="SimHei-74"/>
      <path d="M 45.3125 45.703125 
L 27.34375 -1.5625 
Q 25.78125 -7.03125 22.65625 -9.765625 
Q 19.53125 -12.5 14.84375 -12.5 
Q 12.890625 -12.5 11.125 -12.296875 
Q 9.375 -12.109375 7.8125 -11.328125 
L 7.8125 -3.515625 
Q 9.375 -4.296875 10.9375 -4.6875 
Q 12.5 -5.078125 13.671875 -5.078125 
Q 16.796875 -5.078125 17.96875 -4.09375 
Q 19.140625 -3.125 20.3125 0.390625 
L 3.125 45.703125 
L 11.71875 45.703125 
L 24.21875 11.328125 
L 24.609375 11.328125 
L 36.71875 45.703125 
z
" id="SimHei-79"/>
      <path d="M 46.484375 39.0625 
Q 43.75 39.84375 41.203125 40.03125 
Q 38.671875 40.234375 35.9375 39.453125 
Q 37.109375 38.28125 37.890625 36.515625 
Q 38.671875 34.765625 38.671875 31.25 
Q 38.671875 24.609375 34.171875 20.3125 
Q 29.6875 16.015625 23.046875 16.015625 
Q 21.484375 16.015625 18.9375 16.59375 
Q 16.40625 17.1875 14.84375 17.96875 
Q 13.671875 17.1875 13.28125 16.40625 
Q 12.890625 15.625 12.890625 14.453125 
Q 12.890625 12.5 15.625 11.515625 
Q 18.359375 10.546875 25.390625 10.546875 
Q 36.71875 10.546875 40.8125 7.421875 
Q 44.921875 4.296875 44.921875 -0.390625 
Q 44.921875 -6.640625 38.859375 -9.5625 
Q 32.8125 -12.5 24.609375 -12.5 
Q 14.0625 -12.5 8.984375 -9.765625 
Q 3.90625 -7.03125 3.90625 -2.34375 
Q 3.90625 0 5.859375 2.34375 
Q 7.8125 4.6875 10.9375 6.25 
Q 8.59375 7.421875 7.21875 9.171875 
Q 5.859375 10.9375 5.859375 13.671875 
Q 5.859375 16.015625 7.609375 17.765625 
Q 9.375 19.53125 11.71875 20.703125 
Q 9.765625 22.65625 8.59375 25.390625 
Q 7.421875 28.125 7.421875 31.25 
Q 7.421875 37.890625 11.90625 42.1875 
Q 16.40625 46.484375 23.046875 46.484375 
Q 26.5625 46.484375 29.09375 45.5 
Q 31.640625 44.53125 33.59375 42.578125 
Q 36.71875 44.921875 39.84375 45.890625 
Q 42.96875 46.875 46.484375 46.484375 
z
M 30.859375 31.25 
Q 30.859375 35.15625 28.90625 37.5 
Q 26.953125 39.84375 23.046875 39.84375 
Q 19.140625 39.84375 17.1875 37.5 
Q 15.234375 35.15625 15.234375 31.25 
Q 15.234375 27.34375 17.1875 25 
Q 19.140625 22.65625 23.046875 22.65625 
Q 26.953125 22.65625 28.90625 25 
Q 30.859375 27.34375 30.859375 31.25 
z
M 37.5 -1.171875 
Q 37.5 0.390625 35.734375 1.953125 
Q 33.984375 3.515625 26.953125 3.515625 
Q 25.390625 3.515625 22.65625 3.703125 
Q 19.921875 3.90625 16.40625 4.296875 
Q 13.28125 3.125 12.109375 1.5625 
Q 10.9375 0 10.9375 -1.5625 
Q 10.9375 -3.90625 14.0625 -5.46875 
Q 17.1875 -7.03125 25 -7.03125 
Q 31.640625 -7.03125 34.5625 -5.265625 
Q 37.5 -3.515625 37.5 -1.171875 
z
" id="SimHei-67"/>
      <path d="M 44.53125 16.796875 
Q 43.75 9.765625 38.28125 5.46875 
Q 32.8125 1.171875 25.390625 1.171875 
Q 16.015625 1.171875 9.953125 7.21875 
Q 3.90625 13.28125 3.90625 23.828125 
Q 3.90625 34.375 9.953125 40.421875 
Q 16.015625 46.484375 25.390625 46.484375 
Q 33.59375 46.484375 38.859375 41.203125 
Q 44.140625 35.9375 44.140625 23.828125 
L 12.5 23.828125 
Q 12.5 15.234375 16.203125 11.71875 
Q 19.921875 8.203125 25.390625 8.203125 
Q 29.6875 8.203125 32.421875 10.34375 
Q 35.15625 12.5 35.9375 16.796875 
z
M 35.15625 30.078125 
Q 34.375 35.546875 31.640625 37.6875 
Q 28.90625 39.84375 24.609375 39.84375 
Q 20.703125 39.84375 17.578125 37.6875 
Q 14.453125 35.546875 12.890625 30.078125 
z
" id="SimHei-65"/>
     </defs>
     <g transform="translate(66.2 263.45)scale(0.15 -0.15)">
      <use xlink:href="#SimHei-70"/>
      <use x="50" xlink:href="#SimHei-72"/>
      <use x="100" xlink:href="#SimHei-6f"/>
      <use x="150" xlink:href="#SimHei-62"/>
      <use x="200" xlink:href="#SimHei-61"/>
      <use x="250" xlink:href="#SimHei-62"/>
      <use x="300" xlink:href="#SimHei-69"/>
      <use x="350" xlink:href="#SimHei-6c"/>
      <use x="400" xlink:href="#SimHei-69"/>
      <use x="450" xlink:href="#SimHei-74"/>
      <use x="500" xlink:href="#SimHei-79"/>
      <use x="550" xlink:href="#SimHei-20"/>
      <use x="600" xlink:href="#SimHei-6f"/>
      <use x="650" xlink:href="#SimHei-66"/>
      <use x="700" xlink:href="#SimHei-20"/>
      <use x="750" xlink:href="#SimHei-61"/>
      <use x="800" xlink:href="#SimHei-62"/>
      <use x="850" xlink:href="#SimHei-73"/>
      <use x="900" xlink:href="#SimHei-6f"/>
      <use x="950" xlink:href="#SimHei-72"/>
      <use x="1000" xlink:href="#SimHei-62"/>
      <use x="1050" xlink:href="#SimHei-69"/>
      <use x="1100" xlink:href="#SimHei-6e"/>
      <use x="1150" xlink:href="#SimHei-67"/>
      <use x="1200" xlink:href="#SimHei-20"/>
      <use x="1250" xlink:href="#SimHei-73"/>
      <use x="1300" xlink:href="#SimHei-74"/>
      <use x="1350" xlink:href="#SimHei-61"/>
      <use x="1400" xlink:href="#SimHei-74"/>
      <use x="1450" xlink:href="#SimHei-65"/>
     </g>
    </g>
    <g id="Path3DCollection_4">
     <g>
      <use style="fill:#008000;stroke:#008000;" x="39.2" xlink:href="#mae45cf6aca" y="279.3875"/>
     </g>
    </g>
    <g id="text_29">
     <!-- start state -->
     <g transform="translate(66.2 283.325)scale(0.15 -0.15)">
      <use xlink:href="#SimHei-73"/>
      <use x="50" xlink:href="#SimHei-74"/>
      <use x="100" xlink:href="#SimHei-61"/>
      <use x="150" xlink:href="#SimHei-72"/>
      <use x="200" xlink:href="#SimHei-74"/>
      <use x="250" xlink:href="#SimHei-20"/>
      <use x="300" xlink:href="#SimHei-73"/>
      <use x="350" xlink:href="#SimHei-74"/>
      <use x="400" xlink:href="#SimHei-61"/>
      <use x="450" xlink:href="#SimHei-74"/>
      <use x="500" xlink:href="#SimHei-65"/>
     </g>
    </g>
   </g>
  </g>
 </g>
 <defs>
  <clipPath id="pf08d3dde06">
   <rect height="288" width="360" x="10.7" y="10.7"/>
  </clipPath>
 </defs>
</svg>
