<?xml version="1.0" encoding="utf-8" standalone="no"?>
<!DOCTYPE svg PUBLIC "-//W3C//DTD SVG 1.1//EN"
  "http://www.w3.org/Graphics/SVG/1.1/DTD/svg11.dtd">
<!-- Created with matplotlib (http://matplotlib.org/) -->
<svg height="309.4pt" version="1.1" viewBox="0 0 381.4 309.4" width="381.4pt" xmlns="http://www.w3.org/2000/svg" xmlns:xlink="http://www.w3.org/1999/xlink">
 <defs>
  <style type="text/css">
*{stroke-linecap:butt;stroke-linejoin:round;}
  </style>
 </defs>
 <g id="figure_1">
  <g id="patch_1">
   <path d="M 0 309.4 
L 381.4 309.4 
L 381.4 0 
L 0 0 
z
" style="fill:none;"/>
  </g>
  <g id="patch_2">
   <path d="M 10.7 298.7 
L 370.7 298.7 
L 370.7 10.7 
L 10.7 10.7 
z
" style="fill:#ffffff;"/>
  </g>
  <g id="pane3d_1">
   <g id="patch_3">
    <path d="M 219.619567 185.462306 
L 335.768129 233.715199 
L 340.919918 79.597002 
L 220.435568 41.545085 
" style="fill:#f2f2f2;opacity:0.5;stroke:#f2f2f2;stroke-linejoin:miter;"/>
   </g>
  </g>
  <g id="pane3d_2">
   <g id="patch_4">
    <path d="M 219.619567 185.462306 
L 58.794045 217.8137 
L 53.895826 67.034254 
L 220.435568 41.545085 
" style="fill:#e6e6e6;opacity:0.5;stroke:#e6e6e6;stroke-linejoin:miter;"/>
   </g>
  </g>
  <g id="pane3d_3">
   <g id="patch_5">
    <path d="M 219.619567 185.462306 
L 58.794045 217.8137 
L 168.062833 271.631196 
L 335.768129 233.715199 
" style="fill:#ececec;opacity:0.5;stroke:#ececec;stroke-linejoin:miter;"/>
   </g>
  </g>
  <g id="axis3d_1">
   <g id="line2d_1">
    <path d="M 335.768129 233.715199 
L 168.062833 271.631196 
" style="fill:none;stroke:#000000;stroke-linecap:square;stroke-width:0.8;"/>
   </g>
   <g id="text_1">
    <!-- coins of 大熊 -->
    <defs>
     <path d="M 44.53125 19.53125 
Q 44.53125 11.328125 38.859375 6.25 
Q 33.203125 1.171875 24.609375 1.171875 
Q 16.015625 1.171875 9.765625 7.21875 
Q 3.515625 13.28125 3.515625 23.828125 
Q 3.515625 34.375 9.765625 40.421875 
Q 16.015625 46.484375 24.609375 46.484375 
Q 33.203125 46.484375 38.28125 41.984375 
Q 43.359375 37.5 43.359375 31.25 
L 34.765625 31.25 
Q 34.375 35.9375 31.4375 37.6875 
Q 28.515625 39.453125 24.609375 39.453125 
Q 19.921875 39.453125 16.015625 35.734375 
Q 12.109375 32.03125 12.109375 23.828125 
Q 12.109375 15.625 16.015625 11.90625 
Q 19.921875 8.203125 24.609375 8.203125 
Q 29.6875 8.203125 32.8125 10.9375 
Q 35.9375 13.671875 35.9375 19.53125 
z
" id="SimHei-63"/>
     <path d="M 45.703125 23.828125 
Q 45.703125 13.671875 39.453125 7.421875 
Q 33.203125 1.171875 24.609375 1.171875 
Q 16.015625 1.171875 9.765625 7.421875 
Q 3.515625 13.671875 3.515625 23.828125 
Q 3.515625 33.984375 9.765625 40.234375 
Q 16.015625 46.484375 24.609375 46.484375 
Q 33.203125 46.484375 39.453125 40.234375 
Q 45.703125 33.984375 45.703125 23.828125 
z
M 37.109375 23.828125 
Q 37.109375 31.640625 33.203125 35.546875 
Q 29.296875 39.453125 24.609375 39.453125 
Q 19.921875 39.453125 16.015625 35.546875 
Q 12.109375 31.640625 12.109375 23.828125 
Q 12.109375 16.015625 16.015625 12.109375 
Q 19.921875 8.203125 24.609375 8.203125 
Q 29.296875 8.203125 33.203125 12.109375 
Q 37.109375 16.015625 37.109375 23.828125 
z
" id="SimHei-6f"/>
     <path d="M 28.125 58.203125 
L 20.3125 58.203125 
L 20.3125 68.359375 
L 28.125 68.359375 
z
M 28.125 1.953125 
L 20.3125 1.953125 
L 20.3125 45.703125 
L 28.125 45.703125 
z
" id="SimHei-69"/>
     <path d="M 43.75 1.953125 
L 35.9375 1.953125 
L 35.9375 30.078125 
Q 35.9375 34.765625 33.59375 37.5 
Q 31.25 40.234375 27.34375 40.234375 
Q 22.265625 40.234375 17.765625 34.953125 
Q 13.28125 29.6875 13.28125 21.875 
L 13.28125 1.953125 
L 5.46875 1.953125 
L 5.46875 45.703125 
L 13.28125 45.703125 
L 13.28125 37.5 
Q 16.40625 41.796875 20.109375 44.140625 
Q 23.828125 46.484375 29.6875 46.484375 
Q 36.71875 46.484375 40.234375 42.578125 
Q 43.75 38.671875 43.75 32.8125 
z
" id="SimHei-6e"/>
     <path d="M 42.96875 14.0625 
Q 42.96875 7.8125 38.078125 4.484375 
Q 33.203125 1.171875 25.78125 1.171875 
Q 16.40625 1.171875 11.328125 4.875 
Q 6.25 8.59375 6.25 15.625 
L 14.0625 15.625 
Q 14.0625 10.9375 17.375 9.375 
Q 20.703125 7.8125 25.390625 7.8125 
Q 30.078125 7.8125 32.421875 9.5625 
Q 34.765625 11.328125 34.765625 14.0625 
Q 34.765625 16.015625 32.8125 17.96875 
Q 30.859375 19.921875 23.046875 21.09375 
Q 14.0625 22.265625 10.734375 25.578125 
Q 7.421875 28.90625 7.421875 34.375 
Q 7.421875 39.0625 11.90625 42.765625 
Q 16.40625 46.484375 25 46.484375 
Q 32.8125 46.484375 37.296875 42.96875 
Q 41.796875 39.453125 41.796875 33.59375 
L 33.984375 33.59375 
Q 33.984375 37.109375 31.4375 38.46875 
Q 28.90625 39.84375 25 39.84375 
Q 19.921875 39.84375 17.765625 38.078125 
Q 15.625 36.328125 15.625 33.984375 
Q 15.625 31.25 17.578125 29.6875 
Q 19.53125 28.125 25.78125 27.34375 
Q 35.9375 25.78125 39.453125 22.453125 
Q 42.96875 19.140625 42.96875 14.0625 
z
" id="SimHei-73"/>
     <path id="SimHei-20"/>
     <path d="M 44.53125 59.765625 
Q 42.578125 60.9375 39.84375 61.71875 
Q 37.109375 62.5 32.8125 62.5 
Q 28.515625 62.5 26.953125 60.34375 
Q 25.390625 58.203125 25.390625 55.078125 
L 25.390625 45.703125 
L 41.40625 45.703125 
L 41.40625 39.453125 
L 25.390625 39.453125 
L 25.390625 1.953125 
L 17.578125 1.953125 
L 17.578125 39.453125 
L 4.296875 39.453125 
L 4.296875 45.703125 
L 17.578125 45.703125 
L 17.578125 54.6875 
Q 17.578125 61.71875 21.875 65.625 
Q 26.171875 69.53125 33.203125 69.53125 
Q 37.5 69.53125 40.03125 68.9375 
Q 42.578125 68.359375 44.53125 67.578125 
z
" id="SimHei-66"/>
     <path d="M 45.3125 53.125 
Q 45.703125 66.796875 45.5 71.484375 
Q 45.3125 76.171875 44.921875 80.46875 
Q 49.609375 79.6875 55.46875 79.296875 
Q 54.296875 75.390625 53.703125 67.96875 
Q 53.125 60.546875 53.125 53.125 
L 73.046875 53.125 
Q 83.59375 53.125 92.578125 53.90625 
L 92.578125 45.3125 
Q 84.765625 45.703125 76.5625 45.703125 
L 53.515625 45.703125 
Q 55.078125 39.0625 58.984375 32.21875 
Q 62.890625 25.390625 66.984375 20.109375 
Q 71.09375 14.84375 78.3125 8.984375 
Q 85.546875 3.125 94.140625 -0.78125 
Q 91.015625 -3.125 87.890625 -8.59375 
Q 80.859375 -4.6875 74.015625 1.171875 
Q 67.1875 7.03125 60.34375 16.59375 
Q 53.515625 26.171875 50 34.375 
Q 46.875 25.78125 43.359375 20.109375 
Q 39.84375 14.453125 35.734375 9.765625 
Q 31.640625 5.078125 25.1875 0.390625 
Q 18.75 -4.296875 10.546875 -8.984375 
Q 7.421875 -4.296875 3.515625 -0.78125 
Q 11.71875 1.953125 19.71875 7.03125 
Q 27.734375 12.109375 32.8125 18.546875 
Q 37.890625 25 41.015625 32.03125 
Q 44.140625 39.0625 44.921875 45.703125 
L 23.4375 45.703125 
Q 14.0625 45.703125 8.59375 45.3125 
L 8.59375 53.90625 
Q 14.0625 53.515625 23.4375 53.125 
z
" id="SimHei-5927"/>
     <path d="M 49.609375 52.34375 
Q 49.21875 46.484375 49.21875 40.625 
L 49.21875 19.53125 
Q 49.21875 15.234375 46.484375 13.859375 
Q 43.75 12.5 34.765625 11.328125 
Q 33.59375 14.84375 31.640625 18.359375 
Q 38.671875 18.75 40.421875 18.9375 
Q 42.1875 19.140625 41.796875 23.4375 
L 18.359375 23.4375 
L 18.359375 12.5 
L 10.15625 12.5 
Q 10.546875 25 10.546875 33.59375 
Q 10.546875 42.1875 10.15625 52.34375 
L 49.609375 52.34375 
z
M 65.625 45.3125 
Q 65.234375 41.015625 65.234375 34.375 
Q 81.640625 38.671875 88.28125 43.359375 
Q 90.234375 39.453125 93.359375 36.71875 
Q 85.9375 34.765625 65.625 28.125 
L 65.625 23.046875 
Q 65.625 19.53125 70.703125 19.53125 
L 80.46875 19.53125 
Q 83.59375 19.53125 85.15625 20.890625 
Q 86.71875 22.265625 88.28125 28.125 
Q 92.1875 26.171875 96.875 25.390625 
Q 93.359375 17.1875 91.40625 15.234375 
Q 89.453125 13.28125 83.984375 13.28125 
L 65.234375 13.28125 
Q 57.03125 13.28125 57.03125 19.53125 
L 57.03125 37.5 
Q 57.03125 40.625 56.640625 45.3125 
L 65.625 45.3125 
z
M 92.578125 69.140625 
Q 78.515625 65.234375 64.84375 61.328125 
Q 64.84375 54.6875 68.359375 54.6875 
L 80.46875 54.6875 
Q 83.203125 54.6875 84.765625 56.4375 
Q 86.328125 58.203125 86.71875 62.5 
Q 90.234375 60.9375 94.921875 59.765625 
Q 92.96875 51.5625 90.421875 50.1875 
Q 87.890625 48.828125 82.8125 48.828125 
L 64.84375 48.828125 
Q 57.03125 48.828125 57.03125 54.296875 
L 57.03125 71.09375 
Q 57.03125 75.78125 56.640625 80.46875 
L 65.625 80.46875 
Q 65.234375 75.390625 65.234375 67.1875 
Q 78.515625 70.3125 86.328125 76.171875 
Q 88.671875 72.65625 92.578125 69.140625 
z
M 32.03125 78.125 
Q 24.609375 71.484375 16.40625 62.890625 
Q 22.65625 63.28125 40.625 65.234375 
Q 38.671875 67.578125 35.546875 70.703125 
Q 39.0625 72.265625 42.96875 74.21875 
Q 51.171875 63.28125 55.078125 58.59375 
Q 51.171875 57.03125 48.046875 54.6875 
L 44.53125 59.765625 
Q 42.578125 59.375 33.203125 58.59375 
Q 23.828125 57.8125 9.375 55.859375 
Q 7.421875 59.375 6.25 62.890625 
Q 10.15625 64.84375 14.640625 69.53125 
Q 19.140625 74.21875 23.4375 82.03125 
Q 27.734375 79.6875 32.03125 78.125 
z
M 41.796875 28.90625 
L 41.796875 35.546875 
L 18.359375 35.546875 
L 18.359375 28.90625 
z
M 20.3125 6.640625 
Q 17.1875 3.125 11.71875 -9.765625 
Q 6.640625 -7.8125 3.90625 -7.03125 
Q 6.640625 -1.5625 11.71875 8.984375 
Q 15.625 7.8125 20.3125 6.640625 
z
M 85.9375 10.15625 
Q 92.578125 -1.953125 94.140625 -5.46875 
Q 89.84375 -6.640625 86.328125 -8.59375 
Q 83.984375 -2.34375 78.515625 7.03125 
Q 81.25 8.203125 85.9375 10.15625 
z
M 41.796875 41.015625 
L 41.796875 46.875 
L 18.359375 46.875 
L 18.359375 41.015625 
z
M 62.890625 8.59375 
Q 65.625 -1.953125 66.40625 -5.859375 
L 58.59375 -7.421875 
Q 57.421875 -3.90625 55.46875 7.421875 
Q 58.59375 8.203125 62.890625 8.59375 
z
M 39.84375 7.421875 
Q 40.234375 3.90625 42.578125 -6.640625 
Q 38.671875 -6.640625 34.375 -7.8125 
Q 33.59375 -3.125 32.03125 6.640625 
Q 35.15625 7.421875 39.84375 7.421875 
z
" id="SimHei-718a"/>
    </defs>
    <g style="fill:#800080;" transform="translate(235.061813 295.570823)rotate(-12.739652)scale(0.12 -0.12)">
     <use xlink:href="#SimHei-63"/>
     <use x="50" xlink:href="#SimHei-6f"/>
     <use x="100" xlink:href="#SimHei-69"/>
     <use x="150" xlink:href="#SimHei-6e"/>
     <use x="200" xlink:href="#SimHei-73"/>
     <use x="250" xlink:href="#SimHei-20"/>
     <use x="300" xlink:href="#SimHei-6f"/>
     <use x="350" xlink:href="#SimHei-66"/>
     <use x="400" xlink:href="#SimHei-20"/>
     <use x="450" xlink:href="#SimHei-5927"/>
     <use x="550" xlink:href="#SimHei-718a"/>
    </g>
   </g>
   <g id="Line3DCollection_1">
    <path d="M 325.649087 236.002984 
L 209.876104 187.422284 
L 210.363217 43.086674 
" style="fill:none;stroke:#b0b0b0;stroke-width:0.8;"/>
    <path d="M 305.615951 240.532216 
L 190.60155 191.299522 
L 190.43149 46.137256 
" style="fill:none;stroke:#b0b0b0;stroke-width:0.8;"/>
    <path d="M 285.302458 245.124834 
L 171.077619 195.226923 
L 170.232989 49.228668 
" style="fill:none;stroke:#b0b0b0;stroke-width:0.8;"/>
    <path d="M 264.70268 249.782177 
L 151.299439 199.205469 
L 149.762321 52.361736 
" style="fill:none;stroke:#b0b0b0;stroke-width:0.8;"/>
    <path d="M 243.810523 254.505623 
L 131.262013 203.236164 
L 129.013948 55.537307 
" style="fill:none;stroke:#b0b0b0;stroke-width:0.8;"/>
    <path d="M 222.619718 259.29659 
L 110.960209 207.320041 
L 107.982181 58.756252 
" style="fill:none;stroke:#b0b0b0;stroke-width:0.8;"/>
    <path d="M 201.123814 264.156536 
L 90.38876 211.458159 
L 86.661174 62.019466 
" style="fill:none;stroke:#b0b0b0;stroke-width:0.8;"/>
    <path d="M 179.316176 269.086961 
L 69.542258 215.651607 
L 65.044918 65.327868 
" style="fill:none;stroke:#b0b0b0;stroke-width:0.8;"/>
   </g>
   <g id="xtick_1">
    <g id="line2d_2">
     <path d="M 324.648958 235.583309 
L 327.653217 236.843957 
" style="fill:none;stroke:#000000;stroke-linecap:square;stroke-width:0.8;"/>
    </g>
    <g id="text_2">
     <!-- 0 -->
     <defs>
      <path d="M 3.125 29.296875 
Q 3.90625 50 6.4375 56.046875 
Q 8.984375 62.109375 13.671875 66.015625 
Q 18.359375 69.921875 25.1875 69.921875 
Q 32.03125 69.921875 37.109375 64.25 
Q 42.1875 58.59375 43.75 50 
Q 45.3125 41.40625 44.71875 30.265625 
Q 44.140625 19.140625 40.8125 12.109375 
Q 37.5 5.078125 30.859375 2.34375 
Q 24.21875 -0.390625 17.578125 2.921875 
Q 10.9375 6.25 8.203125 11.71875 
Q 5.46875 17.1875 4.296875 23.234375 
Q 3.125 29.296875 3.90625 50 
z
M 12.890625 52.734375 
Q 10.546875 31.25 12.5 22.84375 
Q 14.453125 14.453125 18.9375 10.9375 
Q 23.4375 7.421875 28.125 9.5625 
Q 32.8125 11.71875 34.953125 18.15625 
Q 37.109375 24.609375 37.109375 32.21875 
Q 37.109375 39.84375 36.515625 46.09375 
Q 35.9375 52.34375 33 57.421875 
Q 30.078125 62.5 25.1875 62.6875 
Q 20.3125 62.890625 16.59375 57.8125 
Q 12.890625 52.734375 10.546875 31.25 
z
" id="SimHei-30"/>
     </defs>
     <g transform="translate(330.134125 260.095778)scale(0.15 -0.15)">
      <use xlink:href="#SimHei-30"/>
     </g>
    </g>
   </g>
   <g id="xtick_2">
    <g id="line2d_3">
     <path d="M 304.621865 240.106691 
L 307.607998 241.384926 
" style="fill:none;stroke:#000000;stroke-linecap:square;stroke-width:0.8;"/>
    </g>
    <g id="text_3">
     <!-- 2 -->
     <defs>
      <path d="M 4.6875 3.90625 
Q 5.078125 9.765625 10.15625 14.453125 
Q 15.234375 19.140625 23.046875 29.09375 
Q 30.859375 39.0625 33.203125 44.53125 
Q 35.546875 50 34.953125 53.90625 
Q 34.375 57.8125 31.25 60.34375 
Q 28.125 62.890625 24.015625 62.5 
Q 19.921875 62.109375 16.203125 59.375 
Q 12.5 56.640625 10.546875 51.171875 
L 3.125 52.34375 
Q 6.25 61.328125 11.125 65.421875 
Q 16.015625 69.53125 22.65625 69.921875 
Q 26.5625 70.3125 29.6875 69.71875 
Q 32.8125 69.140625 36.125 66.984375 
Q 39.453125 64.84375 41.59375 60.546875 
Q 43.75 56.25 43.15625 50.1875 
Q 42.578125 44.140625 37.109375 35.734375 
Q 31.640625 27.34375 16.015625 9.375 
L 44.140625 9.375 
L 44.140625 2.34375 
L 4.6875 2.34375 
z
" id="SimHei-32"/>
     </defs>
     <g transform="translate(310.096382 264.735082)scale(0.15 -0.15)">
      <use xlink:href="#SimHei-32"/>
     </g>
    </g>
   </g>
   <g id="xtick_3">
    <g id="line2d_4">
     <path d="M 284.314682 244.693335 
L 287.281886 245.989527 
" style="fill:none;stroke:#000000;stroke-linecap:square;stroke-width:0.8;"/>
    </g>
    <g id="text_4">
     <!-- 4 -->
     <defs>
      <path d="M 31.25 17.1875 
L 1.171875 17.1875 
L 1.171875 23.828125 
L 32.8125 69.53125 
L 38.671875 69.53125 
L 38.671875 23.828125 
L 48.046875 23.828125 
L 48.046875 17.1875 
L 38.671875 17.1875 
L 38.671875 2.34375 
L 31.25 2.34375 
z
M 31.25 23.828125 
L 31.25 54.6875 
L 9.375 23.828125 
z
" id="SimHei-34"/>
     </defs>
     <g transform="translate(289.777342 269.439513)scale(0.15 -0.15)">
      <use xlink:href="#SimHei-34"/>
     </g>
    </g>
   </g>
   <g id="xtick_4">
    <g id="line2d_5">
     <path d="M 263.721492 249.344577 
L 266.668935 250.659107 
" style="fill:none;stroke:#000000;stroke-linecap:square;stroke-width:0.8;"/>
    </g>
    <g id="text_5">
     <!-- 6 -->
     <defs>
      <path d="M 3.515625 19.53125 
Q 4.296875 30.859375 6.046875 34.765625 
Q 7.8125 38.671875 11.328125 44.53125 
L 27.34375 69.53125 
L 36.328125 69.53125 
L 19.921875 43.75 
Q 30.46875 46.484375 36.71875 42.96875 
Q 42.96875 39.453125 45.109375 34.953125 
Q 47.265625 30.46875 47.453125 25.1875 
Q 47.65625 19.921875 45.890625 14.84375 
Q 44.140625 9.765625 39.640625 5.65625 
Q 35.15625 1.5625 27.140625 1.171875 
Q 19.140625 0.78125 13.46875 4.09375 
Q 7.8125 7.421875 5.65625 13.46875 
Q 3.515625 19.53125 4.296875 30.859375 
z
M 12.5 16.015625 
Q 19.53125 8.59375 25.390625 8.203125 
Q 31.25 7.8125 35.15625 12.109375 
Q 39.0625 16.40625 39.0625 24.609375 
Q 39.0625 32.8125 34.171875 35.9375 
Q 29.296875 39.0625 23.234375 38.28125 
Q 17.1875 37.5 14.453125 32.421875 
Q 11.71875 27.34375 12.109375 21.671875 
Q 12.5 16.015625 19.53125 8.59375 
z
" id="SimHei-36"/>
     </defs>
     <g transform="translate(269.171041 274.210454)scale(0.15 -0.15)">
      <use xlink:href="#SimHei-36"/>
     </g>
    </g>
   </g>
   <g id="xtick_5">
    <g id="line2d_6">
     <path d="M 242.83621 254.061792 
L 245.763028 255.395052 
" style="fill:none;stroke:#000000;stroke-linecap:square;stroke-width:0.8;"/>
    </g>
    <g id="text_6">
     <!-- 8 -->
     <defs>
      <path d="M 2.734375 16.796875 
Q 2.734375 26.171875 5.078125 30.65625 
Q 7.421875 35.15625 12.890625 37.890625 
Q 8.203125 40.625 6.640625 43.9375 
Q 5.078125 47.265625 4.875 51.5625 
Q 4.6875 55.859375 6.046875 58.984375 
Q 7.421875 62.109375 10.15625 64.84375 
Q 12.890625 67.578125 16.203125 68.546875 
Q 19.53125 69.53125 23.4375 69.53125 
Q 27.34375 69.53125 30.46875 68.75 
Q 33.59375 67.96875 37.109375 65.421875 
Q 40.625 62.890625 42.1875 58.203125 
Q 43.75 53.515625 41.984375 47.265625 
Q 40.234375 41.015625 32.8125 37.5 
Q 39.453125 35.546875 42.1875 31.4375 
Q 44.921875 27.34375 44.921875 21.484375 
Q 44.921875 15.625 43.15625 12.109375 
Q 41.40625 8.59375 39.25 6.25 
Q 37.109375 3.90625 33.390625 2.53125 
Q 29.6875 1.171875 24.015625 1.171875 
Q 18.359375 1.171875 14.25 2.53125 
Q 10.15625 3.90625 7.421875 6.640625 
Q 4.6875 9.375 3.703125 13.078125 
Q 2.734375 16.796875 2.734375 26.171875 
z
M 10.9375 26.5625 
Q 10.546875 17.1875 12.296875 13.671875 
Q 14.0625 10.15625 18.75 9.171875 
Q 23.4375 8.203125 28.515625 9.375 
Q 33.59375 10.546875 35.546875 14.84375 
Q 37.5 19.140625 36.90625 23.4375 
Q 36.328125 27.734375 32.03125 30.65625 
Q 27.734375 33.59375 22.65625 33.203125 
Q 17.578125 32.8125 14.25 29.6875 
Q 10.9375 26.5625 10.546875 17.1875 
z
M 12.109375 56.25 
Q 12.109375 48.4375 14.84375 44.921875 
Q 17.578125 41.40625 23.4375 41.40625 
Q 29.296875 41.40625 32.21875 44.921875 
Q 35.15625 48.4375 34.953125 53.3125 
Q 34.765625 58.203125 31.4375 60.546875 
Q 28.125 62.890625 22.453125 62.5 
Q 16.796875 62.109375 14.453125 59.171875 
Q 12.109375 56.25 12.109375 48.4375 
z
" id="SimHei-38"/>
     </defs>
     <g transform="translate(248.271344 279.049324)scale(0.15 -0.15)">
      <use xlink:href="#SimHei-38"/>
     </g>
    </g>
   </g>
   <g id="xtick_6">
    <g id="line2d_7">
     <path d="M 221.652577 258.846394 
L 224.557878 260.198787 
" style="fill:none;stroke:#000000;stroke-linecap:square;stroke-width:0.8;"/>
    </g>
    <g id="text_7">
     <!-- 10 -->
     <defs>
      <path d="M 21.875 56.25 
Q 16.796875 51.171875 8.984375 46.484375 
L 8.984375 53.90625 
Q 18.75 60.546875 25 69.53125 
L 29.6875 69.53125 
L 29.6875 2.34375 
L 21.875 2.34375 
z
" id="SimHei-31"/>
     </defs>
     <g transform="translate(223.321939 283.957585)scale(0.15 -0.15)">
      <use xlink:href="#SimHei-31"/>
      <use x="50" xlink:href="#SimHei-30"/>
     </g>
    </g>
   </g>
   <g id="xtick_7">
    <g id="line2d_8">
     <path d="M 200.164153 263.699837 
L 203.047012 265.071778 
" style="fill:none;stroke:#000000;stroke-linecap:square;stroke-width:0.8;"/>
    </g>
    <g id="text_8">
     <!-- 12 -->
     <g transform="translate(201.816333 288.936741)scale(0.15 -0.15)">
      <use xlink:href="#SimHei-31"/>
      <use x="50" xlink:href="#SimHei-32"/>
     </g>
    </g>
   </g>
   <g id="xtick_8">
    <g id="line2d_9">
     <path d="M 178.364314 268.623617 
L 181.22377 270.015533 
" style="fill:none;stroke:#000000;stroke-linecap:square;stroke-width:0.8;"/>
    </g>
    <g id="text_9">
     <!-- 14 -->
     <g transform="translate(179.997844 293.988337)scale(0.15 -0.15)">
      <use xlink:href="#SimHei-31"/>
      <use x="50" xlink:href="#SimHei-34"/>
     </g>
    </g>
   </g>
  </g>
  <g id="axis3d_2">
   <g id="line2d_10">
    <path d="M 58.794045 217.8137 
L 168.062833 271.631196 
" style="fill:none;stroke:#000000;stroke-linecap:square;stroke-width:0.8;"/>
   </g>
   <g id="text_10">
    <!-- coins of 胖虎 -->
    <defs>
     <path d="M 21.484375 1.953125 
Q 25.78125 1.5625 28.515625 1.75 
Q 31.25 1.953125 31.640625 7.03125 
L 31.640625 26.171875 
L 18.359375 26.171875 
Q 16.796875 14.453125 14.453125 5.859375 
Q 12.109375 -2.734375 10.15625 -7.03125 
Q 6.640625 -3.90625 3.125 -2.734375 
Q 6.640625 2.734375 8.78125 10.34375 
Q 10.9375 17.96875 11.71875 30.859375 
L 11.71875 64.453125 
Q 11.71875 71.09375 11.328125 76.953125 
L 38.671875 76.953125 
Q 38.28125 69.140625 38.28125 61.328125 
L 38.28125 1.953125 
Q 38.28125 -6.25 23.4375 -7.03125 
Q 23.046875 -3.125 21.484375 1.953125 
z
M 64.453125 45.3125 
L 64.453125 69.140625 
Q 64.453125 73.828125 63.671875 79.296875 
L 72.265625 79.296875 
Q 71.875 74.21875 71.875 69.140625 
L 71.875 45.3125 
L 82.421875 45.3125 
Q 85.9375 45.3125 91.796875 45.703125 
L 91.796875 38.671875 
Q 88.28125 39.0625 82.421875 39.0625 
L 71.875 39.0625 
L 71.875 23.4375 
L 84.765625 23.4375 
Q 91.015625 23.4375 96.09375 23.828125 
L 96.09375 16.796875 
Q 90.234375 17.1875 84.765625 17.1875 
L 71.875 17.1875 
L 71.875 3.90625 
Q 71.875 -2.34375 72.265625 -8.984375 
L 64.0625 -8.984375 
Q 64.453125 -2.734375 64.453125 3.90625 
L 64.453125 17.1875 
L 53.90625 17.1875 
Q 48.4375 17.1875 42.578125 16.796875 
L 42.578125 23.828125 
Q 48.046875 23.4375 54.296875 23.4375 
L 64.453125 23.4375 
L 64.453125 39.0625 
L 53.90625 39.0625 
Q 48.4375 39.0625 43.359375 38.671875 
L 43.359375 45.703125 
Q 48.4375 45.3125 53.515625 45.3125 
z
M 31.640625 32.8125 
L 31.640625 48.828125 
L 18.75 48.828125 
L 18.75 32.8125 
z
M 31.640625 55.078125 
L 31.640625 70.703125 
L 18.75 70.703125 
L 18.75 55.078125 
z
M 51.5625 51.953125 
Q 50 58.984375 44.921875 71.09375 
L 51.171875 74.21875 
Q 55.859375 63.28125 58.59375 54.6875 
Q 54.296875 53.515625 51.5625 51.953125 
z
M 77.34375 53.90625 
Q 83.984375 67.96875 84.765625 73.4375 
Q 88.671875 71.875 92.578125 70.703125 
Q 90.625 67.96875 88.671875 62.890625 
Q 86.71875 57.8125 84.375 51.953125 
Q 80.859375 53.90625 77.34375 53.90625 
z
" id="SimHei-80d6"/>
     <path d="M 25.78125 45.703125 
Q 33.203125 46.09375 44.140625 46.875 
L 44.140625 56.640625 
L 20.703125 56.640625 
Q 20.703125 31.640625 20.109375 23.4375 
Q 19.53125 15.234375 17.578125 8 
Q 15.625 0.78125 10.9375 -7.8125 
Q 7.8125 -5.46875 3.125 -3.90625 
Q 7.03125 0.78125 9.171875 6.828125 
Q 11.328125 12.890625 12.109375 18.75 
Q 12.890625 24.609375 13.078125 30.265625 
Q 13.28125 35.9375 13.28125 42.96875 
Q 13.28125 50.390625 12.890625 62.5 
L 44.140625 62.5 
L 44.140625 74.609375 
Q 44.140625 77.34375 43.359375 82.421875 
L 51.953125 82.421875 
Q 51.5625 78.515625 51.5625 75.390625 
L 71.09375 75.390625 
Q 76.171875 75.390625 84.765625 76.171875 
L 84.765625 69.53125 
Q 76.171875 69.921875 70.703125 69.921875 
L 51.171875 69.921875 
L 51.171875 62.5 
L 93.75 62.5 
Q 92.1875 57.8125 89.84375 46.875 
Q 85.15625 48.046875 82.03125 48.4375 
Q 83.984375 52.734375 85.15625 56.640625 
L 51.171875 56.640625 
L 51.171875 47.65625 
Q 65.234375 49.21875 74.21875 50.78125 
L 75 44.140625 
Q 64.0625 42.96875 51.171875 41.40625 
L 51.171875 36.71875 
Q 51.171875 33.203125 57.421875 33.203125 
L 70.3125 33.203125 
Q 75 32.8125 76.359375 34.5625 
Q 77.734375 36.328125 78.515625 41.015625 
Q 81.640625 39.0625 86.71875 37.109375 
Q 84.765625 30.859375 82.03125 29.09375 
Q 79.296875 27.34375 73.828125 27.34375 
L 54.296875 27.34375 
Q 44.140625 27.34375 44.140625 33.59375 
L 44.140625 41.015625 
Q 36.328125 40.234375 27.34375 39.0625 
Q 26.5625 42.578125 25.78125 45.703125 
z
M 71.09375 22.265625 
Q 70.703125 16.796875 70.703125 10.9375 
L 70.703125 2.34375 
Q 70.703125 -1.953125 75 -1.953125 
L 81.25 -1.953125 
Q 85.9375 -1.953125 86.71875 0.78125 
Q 87.5 3.515625 87.5 7.421875 
Q 91.40625 5.078125 96.09375 4.296875 
Q 93.359375 -3.90625 91.59375 -5.859375 
Q 89.84375 -7.8125 85.15625 -7.8125 
L 72.65625 -7.8125 
Q 63.671875 -7.8125 63.671875 -1.171875 
L 63.671875 16.40625 
L 45.3125 16.40625 
Q 45.3125 4.6875 41.203125 -0.578125 
Q 37.109375 -5.859375 26.171875 -10.546875 
Q 25 -6.640625 21.484375 -3.515625 
Q 35.9375 0.78125 37.109375 7.421875 
Q 38.28125 14.0625 37.890625 22.265625 
L 71.09375 22.265625 
z
" id="SimHei-864e"/>
    </defs>
    <g style="fill:#800080;" transform="translate(49.092792 257.912399)rotate(-333.778649)scale(0.12 -0.12)">
     <use xlink:href="#SimHei-63"/>
     <use x="50" xlink:href="#SimHei-6f"/>
     <use x="100" xlink:href="#SimHei-69"/>
     <use x="150" xlink:href="#SimHei-6e"/>
     <use x="200" xlink:href="#SimHei-73"/>
     <use x="250" xlink:href="#SimHei-20"/>
     <use x="300" xlink:href="#SimHei-6f"/>
     <use x="350" xlink:href="#SimHei-66"/>
     <use x="400" xlink:href="#SimHei-20"/>
     <use x="450" xlink:href="#SimHei-80d6"/>
     <use x="550" xlink:href="#SimHei-864e"/>
    </g>
   </g>
   <g id="Line3DCollection_2">
    <path d="M 227.548604 43.791556 
L 226.494241 188.318329 
L 65.235235 220.98614 
" style="fill:none;stroke:#b0b0b0;stroke-width:0.8;"/>
    <path d="M 241.688876 48.257402 
L 240.154088 193.993191 
L 78.043534 227.294534 
" style="fill:none;stroke:#b0b0b0;stroke-width:0.8;"/>
    <path d="M 256.106644 52.810887 
L 254.072998 199.775679 
L 91.108144 233.729167 
" style="fill:none;stroke:#b0b0b0;stroke-width:0.8;"/>
    <path d="M 270.810156 57.454617 
L 268.25841 205.668883 
L 104.436836 240.293868 
" style="fill:none;stroke:#b0b0b0;stroke-width:0.8;"/>
    <path d="M 285.807992 62.191302 
L 282.718053 211.676014 
L 118.0377 246.992619 
" style="fill:none;stroke:#b0b0b0;stroke-width:0.8;"/>
    <path d="M 301.10908 67.023762 
L 297.459956 217.800407 
L 131.919157 253.829569 
" style="fill:none;stroke:#b0b0b0;stroke-width:0.8;"/>
    <path d="M 316.722709 71.95493 
L 312.492466 224.045531 
L 146.089982 260.80904 
" style="fill:none;stroke:#b0b0b0;stroke-width:0.8;"/>
    <path d="M 332.658556 76.987861 
L 327.824262 230.41499 
L 160.559317 267.935534 
" style="fill:none;stroke:#b0b0b0;stroke-width:0.8;"/>
   </g>
   <g id="xtick_9">
    <g id="line2d_11">
     <path d="M 66.594479 220.710784 
L 62.513215 221.537566 
" style="fill:none;stroke:#000000;stroke-linecap:square;stroke-width:0.8;"/>
    </g>
    <g id="text_11">
     <!-- 0 -->
     <g transform="translate(50.195232 243.623733)scale(0.15 -0.15)">
      <use xlink:href="#SimHei-30"/>
     </g>
    </g>
   </g>
   <g id="xtick_10">
    <g id="line2d_12">
     <path d="M 79.410645 227.013697 
L 75.305726 227.856945 
" style="fill:none;stroke:#000000;stroke-linecap:square;stroke-width:0.8;"/>
    </g>
    <g id="text_12">
     <!-- 2 -->
     <g transform="translate(62.908596 250.062791)scale(0.15 -0.15)">
      <use xlink:href="#SimHei-32"/>
     </g>
    </g>
   </g>
   <g id="xtick_11">
    <g id="line2d_13">
     <path d="M 92.483165 233.442684 
L 88.354458 234.302894 
" style="fill:none;stroke:#000000;stroke-linecap:square;stroke-width:0.8;"/>
    </g>
    <g id="text_13">
     <!-- 4 -->
     <g transform="translate(75.876714 256.630876)scale(0.15 -0.15)">
      <use xlink:href="#SimHei-34"/>
     </g>
    </g>
   </g>
   <g id="xtick_12">
    <g id="line2d_14">
     <path d="M 105.81981 240.001565 
L 101.667187 240.879255 
" style="fill:none;stroke:#000000;stroke-linecap:square;stroke-width:0.8;"/>
    </g>
    <g id="text_14">
     <!-- 6 -->
     <g transform="translate(89.10732 263.331906)scale(0.15 -0.15)">
      <use xlink:href="#SimHei-36"/>
     </g>
    </g>
   </g>
   <g id="xtick_13">
    <g id="line2d_15">
     <path d="M 119.428666 246.694319 
L 115.252006 247.590026 
" style="fill:none;stroke:#000000;stroke-linecap:square;stroke-width:0.8;"/>
    </g>
    <g id="text_15">
     <!-- 8 -->
     <g transform="translate(102.608465 270.169958)scale(0.15 -0.15)">
      <use xlink:href="#SimHei-38"/>
     </g>
    </g>
   </g>
   <g id="xtick_14">
    <g id="line2d_16">
     <path d="M 133.318153 253.525084 
L 129.117343 254.439371 
" style="fill:none;stroke:#000000;stroke-linecap:square;stroke-width:0.8;"/>
    </g>
    <g id="text_16">
     <!-- 10 -->
     <g transform="translate(112.638533 277.14928)scale(0.15 -0.15)">
      <use xlink:href="#SimHei-31"/>
      <use x="50" xlink:href="#SimHei-30"/>
     </g>
    </g>
   </g>
   <g id="xtick_15">
    <g id="line2d_17">
     <path d="M 147.497042 260.498176 
L 143.271977 261.431625 
" style="fill:none;stroke:#000000;stroke-linecap:square;stroke-width:0.8;"/>
    </g>
    <g id="text_17">
     <!-- 12 -->
     <g transform="translate(126.706257 284.274293)scale(0.15 -0.15)">
      <use xlink:href="#SimHei-31"/>
      <use x="50" xlink:href="#SimHei-32"/>
     </g>
    </g>
   </g>
   <g id="xtick_16">
    <g id="line2d_18">
     <path d="M 161.974472 267.618089 
L 157.725058 268.57131 
" style="fill:none;stroke:#000000;stroke-linecap:square;stroke-width:0.8;"/>
    </g>
    <g id="text_18">
     <!-- 14 -->
     <g transform="translate(141.07074 291.549608)scale(0.15 -0.15)">
      <use xlink:href="#SimHei-31"/>
      <use x="50" xlink:href="#SimHei-34"/>
     </g>
    </g>
   </g>
  </g>
  <g id="axis3d_3">
   <g id="line2d_19">
    <path d="M 58.794045 217.8137 
L 53.895826 67.034254 
" style="fill:none;stroke:#000000;stroke-linecap:square;stroke-width:0.8;"/>
   </g>
   <g id="text_19">
    <!-- coins of 静香 -->
    <defs>
     <path d="M 67.578125 78.90625 
Q 65.625 76.5625 64.640625 74.40625 
Q 63.671875 72.265625 62.890625 70.3125 
L 84.375 70.3125 
Q 82.03125 66.796875 80.078125 62.296875 
Q 78.125 57.8125 75.78125 52.734375 
L 90.234375 52.734375 
Q 89.84375 47.265625 89.84375 41.015625 
L 89.84375 36.71875 
Q 93.359375 36.71875 96.875 37.109375 
L 96.875 30.46875 
Q 94.140625 30.859375 89.84375 30.859375 
L 89.84375 25.390625 
Q 89.84375 17.578125 90.234375 10.546875 
L 83.203125 10.546875 
L 83.203125 14.84375 
L 72.265625 14.84375 
L 72.265625 0.390625 
Q 71.875 -4.6875 68.9375 -6.640625 
Q 66.015625 -8.59375 56.25 -9.375 
Q 56.25 -5.46875 53.90625 -1.171875 
Q 58.984375 -1.5625 62.296875 -1.171875 
Q 65.625 -0.78125 65.625 2.734375 
L 65.625 14.84375 
L 60.15625 14.84375 
Q 55.46875 14.84375 50.390625 14.453125 
L 50.390625 20.703125 
Q 55.078125 20.3125 60.15625 20.3125 
L 65.625 20.3125 
L 65.625 30.859375 
L 59.765625 30.859375 
Q 54.6875 30.859375 48.046875 30.46875 
L 48.046875 36.71875 
Q 53.515625 36.328125 60.15625 36.328125 
L 65.625 36.328125 
L 65.625 47.265625 
L 60.15625 47.265625 
Q 57.8125 47.265625 51.953125 46.875 
L 51.953125 51.953125 
Q 50.78125 50.78125 48.828125 48.4375 
Q 46.875 51.5625 44.140625 53.90625 
Q 50.390625 60.15625 53.703125 68.15625 
Q 57.03125 76.171875 58.984375 82.03125 
Q 62.890625 80.078125 67.578125 78.90625 
z
M 42.96875 36.328125 
Q 42.578125 30.859375 42.578125 25 
L 42.578125 1.171875 
Q 42.578125 -4.6875 39.453125 -6.25 
Q 36.328125 -7.8125 30.078125 -8.984375 
Q 29.6875 -5.46875 27.34375 -1.5625 
Q 36.328125 -1.5625 35.546875 1.953125 
L 35.546875 6.640625 
L 15.234375 6.640625 
L 15.234375 -8.203125 
L 8.203125 -8.203125 
Q 8.59375 -3.90625 8.59375 1.953125 
L 8.59375 25 
Q 8.59375 30.859375 8.203125 36.328125 
L 42.96875 36.328125 
z
M 21.875 71.09375 
Q 21.875 74.609375 21.484375 80.46875 
L 29.296875 80.46875 
Q 28.90625 74.609375 28.90625 71.09375 
L 33.984375 71.09375 
Q 39.453125 71.09375 46.875 71.484375 
L 46.875 65.234375 
Q 39.453125 65.625 33.984375 65.625 
L 28.90625 65.625 
L 28.90625 59.375 
L 33.984375 59.375 
Q 36.328125 59.375 42.578125 59.765625 
L 42.578125 53.515625 
Q 35.9375 53.90625 33.59375 53.90625 
L 28.90625 53.90625 
L 28.90625 47.65625 
L 35.15625 47.65625 
Q 40.625 47.65625 46.484375 48.046875 
L 46.484375 41.796875 
Q 40.234375 42.1875 35.15625 42.1875 
L 15.625 42.1875 
Q 9.375 42.1875 3.90625 41.796875 
L 3.90625 48.046875 
Q 9.375 47.65625 15.625 47.65625 
L 21.875 47.65625 
L 21.875 53.90625 
L 15.234375 53.90625 
Q 12.890625 53.90625 8.59375 53.515625 
L 8.59375 59.765625 
Q 12.890625 59.375 15.234375 59.375 
L 21.875 59.375 
L 21.875 65.625 
L 15.234375 65.625 
Q 10.15625 65.625 4.6875 65.234375 
L 4.6875 71.484375 
Q 10.15625 71.09375 15.234375 71.09375 
z
M 52.734375 53.515625 
Q 57.421875 53.125 64.453125 53.125 
L 68.359375 53.125 
Q 72.265625 61.328125 73.4375 64.84375 
L 60.15625 64.84375 
Q 55.078125 56.640625 52.734375 53.515625 
z
M 35.546875 12.109375 
L 35.546875 19.140625 
L 15.234375 19.140625 
L 15.234375 12.109375 
z
M 35.546875 24.609375 
L 35.546875 30.859375 
L 15.234375 30.859375 
L 15.234375 24.609375 
z
M 83.203125 36.328125 
L 83.203125 47.265625 
L 72.265625 47.265625 
L 72.265625 36.328125 
z
M 83.203125 20.3125 
L 83.203125 30.859375 
L 72.265625 30.859375 
L 72.265625 20.3125 
z
" id="SimHei-9759"/>
     <path d="M 45.703125 33.59375 
L 45.703125 53.90625 
Q 36.71875 44.140625 26.359375 38.28125 
Q 16.015625 32.421875 10.546875 30.078125 
Q 10.546875 33.203125 5.46875 36.71875 
Q 16.015625 39.453125 24.21875 44.53125 
Q 32.421875 49.609375 37.109375 54.296875 
L 21.484375 54.296875 
Q 14.84375 54.296875 7.8125 53.90625 
L 7.8125 60.15625 
Q 14.84375 59.765625 21.484375 59.765625 
L 45.703125 59.765625 
L 45.703125 69.921875 
Q 38.28125 69.140625 17.96875 67.578125 
Q 16.796875 71.09375 14.453125 74.609375 
Q 32.8125 74.609375 50.390625 76.953125 
Q 67.96875 79.296875 74.609375 82.03125 
Q 76.953125 78.125 81.25 73.828125 
Q 74.609375 73.4375 67.96875 72.65625 
Q 61.328125 71.875 52.34375 70.703125 
L 52.34375 59.765625 
L 78.125 59.765625 
Q 83.984375 59.765625 91.40625 60.15625 
L 91.40625 53.90625 
Q 84.375 54.296875 78.125 54.296875 
L 61.71875 54.296875 
Q 66.40625 48.4375 74.21875 43.15625 
Q 82.03125 37.890625 94.140625 34.765625 
Q 89.84375 31.640625 88.28125 26.953125 
Q 82.421875 29.296875 77.34375 32.03125 
Q 76.5625 25 76.5625 12.5 
Q 76.5625 -0.78125 76.953125 -8.984375 
L 69.53125 -8.984375 
L 69.53125 -3.125 
L 28.515625 -3.125 
L 28.515625 -9.375 
L 21.875 -9.375 
L 21.875 11.71875 
Q 21.875 25 21.484375 33.59375 
z
M 69.53125 17.96875 
L 69.53125 27.734375 
L 28.515625 27.734375 
L 28.515625 17.96875 
z
M 69.53125 2.734375 
L 69.53125 12.5 
L 28.515625 12.5 
L 28.515625 2.734375 
z
M 71.484375 35.9375 
Q 62.109375 42.578125 52.734375 54.296875 
L 52.34375 54.296875 
L 52.34375 33.59375 
L 75 33.59375 
z
" id="SimHei-9999"/>
    </defs>
    <g style="fill:#800080;" transform="translate(10.565293 102.842551)rotate(-271.860655)scale(0.12 -0.12)">
     <use xlink:href="#SimHei-63"/>
     <use x="50" xlink:href="#SimHei-6f"/>
     <use x="100" xlink:href="#SimHei-69"/>
     <use x="150" xlink:href="#SimHei-6e"/>
     <use x="200" xlink:href="#SimHei-73"/>
     <use x="250" xlink:href="#SimHei-20"/>
     <use x="300" xlink:href="#SimHei-6f"/>
     <use x="350" xlink:href="#SimHei-66"/>
     <use x="400" xlink:href="#SimHei-20"/>
     <use x="450" xlink:href="#SimHei-9759"/>
     <use x="550" xlink:href="#SimHei-9999"/>
    </g>
   </g>
   <g id="Line3DCollection_3">
    <path d="M 58.492454 208.529967 
L 219.669895 176.585888 
L 336.085066 224.233899 
" style="fill:none;stroke:#b0b0b0;stroke-width:0.8;"/>
    <path d="M 57.897709 190.222231 
L 219.769111 159.08724 
L 336.710174 205.533478 
" style="fill:none;stroke:#b0b0b0;stroke-width:0.8;"/>
    <path d="M 57.297781 171.754931 
L 219.869148 141.443949 
L 337.340869 186.665935 
" style="fill:none;stroke:#b0b0b0;stroke-width:0.8;"/>
    <path d="M 56.692601 153.125973 
L 219.970014 123.654212 
L 337.977226 167.629019 
" style="fill:none;stroke:#b0b0b0;stroke-width:0.8;"/>
    <path d="M 56.0821 134.333224 
L 220.071722 105.716199 
L 338.619321 148.42044 
" style="fill:none;stroke:#b0b0b0;stroke-width:0.8;"/>
    <path d="M 55.466207 115.374514 
L 220.17428 87.628049 
L 339.267233 129.037865 
" style="fill:none;stroke:#b0b0b0;stroke-width:0.8;"/>
    <path d="M 54.844852 96.247636 
L 220.277701 69.387869 
L 339.92104 109.478918 
" style="fill:none;stroke:#b0b0b0;stroke-width:0.8;"/>
    <path d="M 54.21796 76.950341 
L 220.381995 50.993734 
L 340.580823 89.741182 
" style="fill:none;stroke:#b0b0b0;stroke-width:0.8;"/>
   </g>
   <g id="xtick_17">
    <g id="line2d_20">
     <path d="M 59.850818 208.26075 
L 55.772207 209.069099 
" style="fill:none;stroke:#000000;stroke-linecap:square;stroke-width:0.8;"/>
    </g>
    <g id="text_20">
     <!-- 0 -->
     <g transform="translate(36.319991 217.800274)scale(0.15 -0.15)">
      <use xlink:href="#SimHei-30"/>
     </g>
    </g>
   </g>
   <g id="xtick_18">
    <g id="line2d_21">
     <path d="M 59.262222 189.959775 
L 55.165133 190.747826 
" style="fill:none;stroke:#000000;stroke-linecap:square;stroke-width:0.8;"/>
    </g>
    <g id="text_21">
     <!-- 2 -->
     <g transform="translate(35.646444 199.518717)scale(0.15 -0.15)">
      <use xlink:href="#SimHei-32"/>
     </g>
    </g>
   </g>
   <g id="xtick_19">
    <g id="line2d_22">
     <path d="M 58.668498 171.499365 
L 54.552763 172.266732 
" style="fill:none;stroke:#000000;stroke-linecap:square;stroke-width:0.8;"/>
    </g>
    <g id="text_22">
     <!-- 4 -->
     <g transform="translate(34.967036 181.078092)scale(0.15 -0.15)">
      <use xlink:href="#SimHei-34"/>
     </g>
    </g>
   </g>
   <g id="xtick_20">
    <g id="line2d_23">
     <path d="M 58.069579 152.877427 
L 53.935029 153.623718 
" style="fill:none;stroke:#000000;stroke-linecap:square;stroke-width:0.8;"/>
    </g>
    <g id="text_23">
     <!-- 6 -->
     <g transform="translate(34.281691 162.476316)scale(0.15 -0.15)">
      <use xlink:href="#SimHei-36"/>
     </g>
    </g>
   </g>
   <g id="xtick_21">
    <g id="line2d_24">
     <path d="M 57.465397 134.091831 
L 53.311858 134.816645 
" style="fill:none;stroke:#000000;stroke-linecap:square;stroke-width:0.8;"/>
    </g>
    <g id="text_24">
     <!-- 8 -->
     <g transform="translate(33.590331 143.711265)scale(0.15 -0.15)">
      <use xlink:href="#SimHei-38"/>
     </g>
    </g>
   </g>
   <g id="xtick_22">
    <g id="line2d_25">
     <path d="M 56.855881 115.140412 
L 52.683179 115.843338 
" style="fill:none;stroke:#000000;stroke-linecap:square;stroke-width:0.8;"/>
    </g>
    <g id="text_25">
     <!-- 10 -->
     <g transform="translate(29.142875 124.780781)scale(0.15 -0.15)">
      <use xlink:href="#SimHei-31"/>
      <use x="50" xlink:href="#SimHei-30"/>
     </g>
    </g>
   </g>
   <g id="xtick_23">
    <g id="line2d_26">
     <path d="M 56.240962 96.020962 
L 52.048919 96.701585 
" style="fill:none;stroke:#000000;stroke-linecap:square;stroke-width:0.8;"/>
    </g>
    <g id="text_26">
     <!-- 12 -->
     <g transform="translate(28.439244 105.682667)scale(0.15 -0.15)">
      <use xlink:href="#SimHei-31"/>
      <use x="50" xlink:href="#SimHei-32"/>
     </g>
    </g>
   </g>
   <g id="xtick_24">
    <g id="line2d_27">
     <path d="M 55.620566 76.731239 
L 51.409002 77.389131 
" style="fill:none;stroke:#000000;stroke-linecap:square;stroke-width:0.8;"/>
    </g>
    <g id="text_27">
     <!-- 14 -->
     <g transform="translate(27.729354 86.414686)scale(0.15 -0.15)">
      <use xlink:href="#SimHei-31"/>
      <use x="50" xlink:href="#SimHei-34"/>
     </g>
    </g>
   </g>
  </g>
  <g id="axes_1">
   <g id="Path3DCollection_1">
    <defs>
     <path d="M 0 5 
C 1.326016 5 2.597899 4.473168 3.535534 3.535534 
C 4.473168 2.597899 5 1.326016 5 0 
C 5 -1.326016 4.473168 -2.597899 3.535534 -3.535534 
C 2.597899 -4.473168 1.326016 -5 0 -5 
C -1.326016 -5 -2.597899 -4.473168 -3.535534 -3.535534 
C -4.473168 -2.597899 -5 -1.326016 -5 0 
C -5 1.326016 -4.473168 2.597899 -3.535534 3.535534 
C -2.597899 4.473168 -1.326016 5 0 5 
z
" id="m1b5e4da243" style="stroke:#008000;"/>
    </defs>
    <g clip-path="url(#p0147423db6)">
     <use style="fill:#008000;stroke:#008000;" x="201.941437" xlink:href="#m1b5e4da243" y="159.994462"/>
    </g>
   </g>
   <g id="Path3DCollection_2">
    <path clip-path="url(#p0147423db6)" d="M 224.398551 58.468459 
C 224.749381 58.468459 225.08589 58.329072 225.333965 58.080997 
C 225.58204 57.832923 225.721426 57.496414 225.721426 57.145583 
C 225.721426 56.794752 225.58204 56.458243 225.333965 56.210169 
C 225.08589 55.962094 224.749381 55.822707 224.398551 55.822707 
C 224.04772 55.822707 223.711211 55.962094 223.463136 56.210169 
C 223.215062 56.458243 223.075675 56.794752 223.075675 57.145583 
C 223.075675 57.496414 223.215062 57.832923 223.463136 58.080997 
C 223.711211 58.329072 224.04772 58.468459 224.398551 58.468459 
z
" style="fill:#ff0000;stroke:#ff0000;"/>
    <path clip-path="url(#p0147423db6)" d="M 231.385035 70.872582 
C 231.931765 70.872582 232.456176 70.655364 232.842773 70.268767 
C 233.229369 69.88217 233.446588 69.357759 233.446588 68.811029 
C 233.446588 68.264299 233.229369 67.739888 232.842773 67.353291 
C 232.456176 66.966694 231.931765 66.749476 231.385035 66.749476 
C 230.838305 66.749476 230.313893 66.966694 229.927297 67.353291 
C 229.5407 67.739888 229.323482 68.264299 229.323482 68.811029 
C 229.323482 69.357759 229.5407 69.88217 229.927297 70.268767 
C 230.313893 70.655364 230.838305 70.872582 231.385035 70.872582 
z
" style="fill:#ff0000;stroke:#ff0000;"/>
    <path clip-path="url(#p0147423db6)" d="M 238.409492 83.662378 
C 239.237588 83.662378 240.031879 83.333372 240.617432 82.747819 
C 241.202984 82.162267 241.531991 81.367975 241.531991 80.539879 
C 241.531991 79.711782 241.202984 78.917491 240.617432 78.331939 
C 240.031879 77.746386 239.237588 77.41738 238.409492 77.41738 
C 237.581395 77.41738 236.787104 77.746386 236.201551 78.331939 
C 235.615999 78.917491 235.286993 79.711782 235.286993 80.539879 
C 235.286993 81.367975 235.615999 82.162267 236.201551 82.747819 
C 236.787104 83.333372 237.581395 83.662378 238.409492 83.662378 
z
" style="fill:#ff0000;stroke:#ff0000;"/>
    <path clip-path="url(#p0147423db6)" d="M 245.472232 96.633814 
C 246.612913 96.633814 247.707029 96.180616 248.513613 95.374032 
C 249.320197 94.567448 249.773394 93.473333 249.773394 92.332651 
C 249.773394 91.191969 249.320197 90.097853 248.513613 89.29127 
C 247.707029 88.484686 246.612913 88.031488 245.472232 88.031488 
C 244.33155 88.031488 243.237434 88.484686 242.43085 89.29127 
C 241.624267 90.097853 241.171069 91.191969 241.171069 92.332651 
C 241.171069 93.473333 241.624267 94.567448 242.43085 95.374032 
C 243.237434 96.180616 244.33155 96.633814 245.472232 96.633814 
z
" style="fill:#ff0000;stroke:#ff0000;"/>
    <path clip-path="url(#p0147423db6)" d="M 252.573569 109.239622 
C 253.912779 109.239622 255.197318 108.707548 256.144283 107.760583 
C 257.091247 106.813619 257.623321 105.529079 257.623321 104.189869 
C 257.623321 102.850659 257.091247 101.566119 256.144283 100.619155 
C 255.197318 99.67219 253.912779 99.140117 252.573569 99.140117 
C 251.234359 99.140117 249.949819 99.67219 249.002855 100.619155 
C 248.05589 101.566119 247.523816 102.850659 247.523816 104.189869 
C 247.523816 105.529079 248.05589 106.813619 249.002855 107.760583 
C 249.949819 108.707548 251.234359 109.239622 252.573569 109.239622 
z
" style="fill:#ff0000;stroke:#ff0000;"/>
    <path clip-path="url(#p0147423db6)" d="M 259.71382 121.566419 
C 261.160332 121.566419 262.547794 120.991714 263.570632 119.968875 
C 264.593471 118.946037 265.168176 117.558575 265.168176 116.112063 
C 265.168176 114.665551 264.593471 113.27809 263.570632 112.255251 
C 262.547794 111.232412 261.160332 110.657707 259.71382 110.657707 
C 258.267308 110.657707 256.879847 111.232412 255.857008 112.255251 
C 254.834169 113.27809 254.259464 114.665551 254.259464 116.112063 
C 254.259464 117.558575 254.834169 118.946037 255.857008 119.968875 
C 256.879847 120.991714 258.267308 121.566419 259.71382 121.566419 
z
" style="fill:#ff0000;stroke:#ff0000;"/>
    <path clip-path="url(#p0147423db6)" d="M 266.893307 134.141292 
C 268.495537 134.141292 270.03236 133.504719 271.165309 132.371771 
C 272.298257 131.238822 272.93483 129.701999 272.93483 128.099769 
C 272.93483 126.497538 272.298257 124.960715 271.165309 123.827767 
C 270.03236 122.694819 268.495537 122.058246 266.893307 122.058246 
C 265.291076 122.058246 263.754253 122.694819 262.621305 123.827767 
C 261.488357 124.960715 260.851784 126.497538 260.851784 128.099769 
C 260.851784 129.701999 261.488357 131.238822 262.621305 132.371771 
C 263.754253 133.504719 265.291076 134.141292 266.893307 134.141292 
z
" style="fill:#ff0000;stroke:#ff0000;"/>
    <path clip-path="url(#p0147423db6)" d="M 274.112353 146.338186 
C 275.752543 146.338186 277.325777 145.686531 278.485567 144.526741 
C 279.645356 143.366951 280.297011 141.793718 280.297011 140.153527 
C 280.297011 138.513337 279.645356 136.940103 278.485567 135.780313 
C 277.325777 134.620523 275.752543 133.968869 274.112353 133.968869 
C 272.472162 133.968869 270.898929 134.620523 269.739139 135.780313 
C 268.579349 136.940103 267.927694 138.513337 267.927694 140.153527 
C 267.927694 141.793718 268.579349 143.366951 269.739139 144.526741 
C 270.898929 145.686531 272.472162 146.338186 274.112353 146.338186 
z
" style="fill:#ff0000;stroke:#ff0000;"/>
    <path clip-path="url(#p0147423db6)" d="M 281.371286 157.494039 
C 282.755687 157.494039 284.083572 156.944011 285.062492 155.965092 
C 286.041411 154.986173 286.591439 153.658287 286.591439 152.273886 
C 286.591439 150.889485 286.041411 149.561599 285.062492 148.58268 
C 284.083572 147.603761 282.755687 147.053733 281.371286 147.053733 
C 279.986885 147.053733 278.658999 147.603761 277.68008 148.58268 
C 276.701161 149.561599 276.151133 150.889485 276.151133 152.273886 
C 276.151133 153.658287 276.701161 154.986173 277.68008 155.965092 
C 278.658999 156.944011 279.986885 157.494039 281.371286 157.494039 
z
" style="fill:#ff0000;stroke:#ff0000;"/>
    <path clip-path="url(#p0147423db6)" d="M 288.670438 169.609214 
C 290.035654 169.609214 291.345139 169.066807 292.310493 168.101454 
C 293.275846 167.1361 293.818253 165.826615 293.818253 164.461399 
C 293.818253 163.096182 293.275846 161.786698 292.310493 160.821344 
C 291.345139 159.85599 290.035654 159.313584 288.670438 159.313584 
C 287.305221 159.313584 285.995737 159.85599 285.030383 160.821344 
C 284.065029 161.786698 283.522623 163.096182 283.522623 164.461399 
C 283.522623 165.826615 284.065029 167.1361 285.030383 168.101454 
C 285.995737 169.066807 287.305221 169.609214 288.670438 169.609214 
z
" style="fill:#ff0000;stroke:#ff0000;"/>
    <path clip-path="url(#p0147423db6)" d="M 296.010143 180.390859 
C 296.984562 180.390859 297.919202 180.003719 298.60822 179.314701 
C 299.297238 178.625683 299.684378 177.691043 299.684378 176.716625 
C 299.684378 175.742206 299.297238 174.807567 298.60822 174.118549 
C 297.919202 173.429531 296.984562 173.04239 296.010143 173.04239 
C 295.035725 173.04239 294.101085 173.429531 293.412067 174.118549 
C 292.723049 174.807567 292.335909 175.742206 292.335909 176.716625 
C 292.335909 177.691043 292.723049 178.625683 293.412067 179.314701 
C 294.101085 180.003719 295.035725 180.390859 296.010143 180.390859 
z
" style="fill:#ff0000;stroke:#ff0000;"/>
    <path clip-path="url(#p0147423db6)" d="M 303.390742 192.04013 
C 304.186351 192.04013 304.949482 191.724032 305.512062 191.161451 
C 306.074643 190.59887 306.390742 189.83574 306.390742 189.04013 
C 306.390742 188.244521 306.074643 187.481391 305.512062 186.91881 
C 304.949482 186.356229 304.186351 186.04013 303.390742 186.04013 
C 302.595133 186.04013 301.832002 186.356229 301.269422 186.91881 
C 300.706841 187.481391 300.390742 188.244521 300.390742 189.04013 
C 300.390742 189.83574 300.706841 190.59887 301.269422 191.161451 
C 301.832002 191.724032 302.595133 192.04013 303.390742 192.04013 
z
" style="fill:#ff0000;stroke:#ff0000;"/>
    <path clip-path="url(#p0147423db6)" d="M 310.812576 203.494041 
C 311.359306 203.494041 311.883718 203.276822 312.270314 202.890226 
C 312.656911 202.503629 312.874129 201.979218 312.874129 201.432488 
C 312.874129 200.885758 312.656911 200.361346 312.270314 199.97475 
C 311.883718 199.588153 311.359306 199.370935 310.812576 199.370935 
C 310.265846 199.370935 309.741435 199.588153 309.354838 199.97475 
C 308.968242 200.361346 308.751023 200.885758 308.751023 201.432488 
C 308.751023 201.979218 308.968242 202.503629 309.354838 202.890226 
C 309.741435 203.276822 310.265846 203.494041 310.812576 203.494041 
z
" style="fill:#ff0000;stroke:#ff0000;"/>
    <path clip-path="url(#p0147423db6)" d="M 318.275992 214.894275 
C 318.541195 214.894275 318.795572 214.788909 318.983099 214.601382 
C 319.170626 214.413855 319.275992 214.159478 319.275992 213.894275 
C 319.275992 213.629072 319.170626 213.374695 318.983099 213.187168 
C 318.795572 212.999642 318.541195 212.894275 318.275992 212.894275 
C 318.010789 212.894275 317.756413 212.999642 317.568886 213.187168 
C 317.381359 213.374695 317.275992 213.629072 317.275992 213.894275 
C 317.275992 214.159478 317.381359 214.413855 317.568886 214.601382 
C 317.756413 214.788909 318.010789 214.894275 318.275992 214.894275 
z
" style="fill:#ff0000;stroke:#ff0000;"/>
    <path clip-path="url(#p0147423db6)" d="M 207.466343 57.430705 
C 207.731546 57.430705 207.985923 57.325339 208.17345 57.137812 
C 208.360977 56.950285 208.466343 56.695908 208.466343 56.430705 
C 208.466343 56.165502 208.360977 55.911125 208.17345 55.723598 
C 207.985923 55.536071 207.731546 55.430705 207.466343 55.430705 
C 207.20114 55.430705 206.946763 55.536071 206.759236 55.723598 
C 206.571709 55.911125 206.466343 56.165502 206.466343 56.430705 
C 206.466343 56.695908 206.571709 56.950285 206.759236 57.137812 
C 206.946763 57.325339 207.20114 57.430705 207.466343 57.430705 
z
" style="fill:#ff0000;stroke:#ff0000;"/>
    <path clip-path="url(#p0147423db6)" d="M 197.459219 69.405819 
C 198.005949 69.405819 198.53036 69.188601 198.916957 68.802004 
C 199.303553 68.415407 199.520772 67.890996 199.520772 67.344266 
C 199.520772 66.797536 199.303553 66.273125 198.916957 65.886528 
C 198.53036 65.499931 198.005949 65.282713 197.459219 65.282713 
C 196.912489 65.282713 196.388077 65.499931 196.001481 65.886528 
C 195.614884 66.273125 195.397666 66.797536 195.397666 67.344266 
C 195.397666 67.890996 195.614884 68.415407 196.001481 68.802004 
C 196.388077 69.188601 196.912489 69.405819 197.459219 69.405819 
z
" style="fill:#ff0000;stroke:#ff0000;"/>
    <path clip-path="url(#p0147423db6)" d="M 187.428275 81.283804 
C 188.223885 81.283804 188.987015 80.967705 189.549596 80.405124 
C 190.112176 79.842543 190.428275 79.079413 190.428275 78.283804 
C 190.428275 77.488194 190.112176 76.725064 189.549596 76.162483 
C 188.987015 75.599903 188.223885 75.283804 187.428275 75.283804 
C 186.632666 75.283804 185.869536 75.599903 185.306955 76.162483 
C 184.744374 76.725064 184.428275 77.488194 184.428275 78.283804 
C 184.428275 79.079413 184.744374 79.842543 185.306955 80.405124 
C 185.869536 80.967705 186.632666 81.283804 187.428275 81.283804 
z
" style="fill:#ff0000;stroke:#ff0000;"/>
    <path clip-path="url(#p0147423db6)" d="M 177.373428 93.402723 
C 178.474899 93.402723 179.531405 92.965104 180.310263 92.186246 
C 181.08912 91.407388 181.52674 90.350882 181.52674 89.249411 
C 181.52674 88.14794 181.08912 87.091434 180.310263 86.312576 
C 179.531405 85.533718 178.474899 85.096099 177.373428 85.096099 
C 176.271956 85.096099 175.21545 85.533718 174.436593 86.312576 
C 173.657735 87.091434 173.220116 88.14794 173.220116 89.249411 
C 173.220116 90.350882 173.657735 91.407388 174.436593 92.186246 
C 175.21545 92.965104 176.271956 93.402723 177.373428 93.402723 
z
" style="fill:#ff0000;stroke:#ff0000;"/>
    <path clip-path="url(#p0147423db6)" d="M 167.29459 104.931597 
C 168.538503 104.931597 169.731636 104.437385 170.611215 103.557806 
C 171.490794 102.678227 171.985006 101.485094 171.985006 100.241182 
C 171.985006 98.997269 171.490794 97.804136 170.611215 96.924557 
C 169.731636 96.044978 168.538503 95.550766 167.29459 95.550766 
C 166.050677 95.550766 164.857544 96.044978 163.977965 96.924557 
C 163.098386 97.804136 162.604174 98.997269 162.604174 100.241182 
C 162.604174 101.485094 163.098386 102.678227 163.977965 103.557806 
C 164.857544 104.437385 166.050677 104.931597 167.29459 104.931597 
z
" style="fill:#ff0000;stroke:#ff0000;"/>
    <path clip-path="url(#p0147423db6)" d="M 157.191676 117.068684 
C 158.732367 117.068684 160.210163 116.456561 161.299596 115.367128 
C 162.389029 114.277695 163.001151 112.799899 163.001151 111.259209 
C 163.001151 109.718518 162.389029 108.240722 161.299596 107.151289 
C 160.210163 106.061856 158.732367 105.449734 157.191676 105.449734 
C 155.650986 105.449734 154.17319 106.061856 153.083757 107.151289 
C 151.994324 108.240722 151.382201 109.718518 151.382201 111.259209 
C 151.382201 112.799899 151.994324 114.277695 153.083757 115.367128 
C 154.17319 116.456561 155.650986 117.068684 157.191676 117.068684 
z
" style="fill:#ff0000;stroke:#ff0000;"/>
    <path clip-path="url(#p0147423db6)" d="M 147.064601 128.99313 
C 148.838688 128.99313 150.540353 128.288278 151.794823 127.033808 
C 153.049292 125.779339 153.754145 124.077674 153.754145 122.303586 
C 153.754145 120.529499 153.049292 118.827834 151.794823 117.573364 
C 150.540353 116.318895 148.838688 115.614042 147.064601 115.614042 
C 145.290513 115.614042 143.588848 116.318895 142.334379 117.573364 
C 141.079909 118.827834 140.375057 120.529499 140.375057 122.303586 
C 140.375057 124.077674 141.079909 125.779339 142.334379 127.033808 
C 143.588848 128.288278 145.290513 128.99313 147.064601 128.99313 
z
" style="fill:#ff0000;stroke:#ff0000;"/>
    <path clip-path="url(#p0147423db6)" d="M 136.913276 139.579247 
C 138.558818 139.579247 140.137184 138.925466 141.300758 137.761892 
C 142.464332 136.598318 143.118113 135.019952 143.118113 133.37441 
C 143.118113 131.728868 142.464332 130.150501 141.300758 128.986928 
C 140.137184 127.823354 138.558818 127.169573 136.913276 127.169573 
C 135.267734 127.169573 133.689367 127.823354 132.525794 128.986928 
C 131.36222 130.150501 130.708439 131.728868 130.708439 133.37441 
C 130.708439 135.019952 131.36222 136.598318 132.525794 137.761892 
C 133.689367 138.925466 135.267734 139.579247 136.913276 139.579247 
z
" style="fill:#ff0000;stroke:#ff0000;"/>
    <path clip-path="url(#p0147423db6)" d="M 126.737615 149.833676 
C 128.159608 149.833676 129.523551 149.268712 130.529052 148.263211 
C 131.534553 147.25771 132.099517 145.893767 132.099517 144.471774 
C 132.099517 143.04978 131.534553 141.685837 130.529052 140.680336 
C 129.523551 139.674835 128.159608 139.109871 126.737615 139.109871 
C 125.315622 139.109871 123.951678 139.674835 122.946177 140.680336 
C 121.940676 141.685837 121.375712 143.04978 121.375712 144.471774 
C 121.375712 145.893767 121.940676 147.25771 122.946177 148.263211 
C 123.951678 149.268712 125.315622 149.833676 126.737615 149.833676 
z
" style="fill:#ff0000;stroke:#ff0000;"/>
    <path clip-path="url(#p0147423db6)" d="M 116.53753 160.980939 
C 117.965692 160.980939 119.335553 160.413524 120.345416 159.40366 
C 121.35528 158.393797 121.922695 157.023936 121.922695 155.595774 
C 121.922695 154.167611 121.35528 152.797751 120.345416 151.787887 
C 119.335553 150.778024 117.965692 150.210609 116.53753 150.210609 
C 115.109367 150.210609 113.739507 150.778024 112.729643 151.787887 
C 111.71978 152.797751 111.152365 154.167611 111.152365 155.595774 
C 111.152365 157.023936 111.71978 158.393797 112.729643 159.40366 
C 113.739507 160.413524 115.109367 160.980939 116.53753 160.980939 
z
" style="fill:#ff0000;stroke:#ff0000;"/>
    <path clip-path="url(#p0147423db6)" d="M 106.312933 170.869612 
C 107.406393 170.869612 108.455216 170.435175 109.228409 169.661982 
C 110.001602 168.888789 110.436039 167.839966 110.436039 166.746506 
C 110.436039 165.653046 110.001602 164.604223 109.228409 163.83103 
C 108.455216 163.057837 107.406393 162.6234 106.312933 162.6234 
C 105.219473 162.6234 104.17065 163.057837 103.397457 163.83103 
C 102.624264 164.604223 102.189827 165.653046 102.189827 166.746506 
C 102.189827 167.839966 102.624264 168.888789 103.397457 169.661982 
C 104.17065 170.435175 105.219473 170.869612 106.312933 170.869612 
z
" style="fill:#ff0000;stroke:#ff0000;"/>
    <path clip-path="url(#p0147423db6)" d="M 96.063736 180.839543 
C 96.836929 180.839543 97.578558 180.53235 98.125289 179.98562 
C 98.672019 179.43889 98.979212 178.69726 98.979212 177.924067 
C 98.979212 177.150874 98.672019 176.409244 98.125289 175.862514 
C 97.578558 175.315784 96.836929 175.008591 96.063736 175.008591 
C 95.290542 175.008591 94.548913 175.315784 94.002183 175.862514 
C 93.455453 176.409244 93.14826 177.150874 93.14826 177.924067 
C 93.14826 178.69726 93.455453 179.43889 94.002183 179.98562 
C 94.548913 180.53235 95.290542 180.839543 96.063736 180.839543 
z
" style="fill:#ff0000;stroke:#ff0000;"/>
    <path clip-path="url(#p0147423db6)" d="M 85.789849 190.860604 
C 86.249195 190.860604 86.689788 190.678104 87.014594 190.353298 
C 87.3394 190.028492 87.5219 189.587899 87.5219 189.128553 
C 87.5219 188.669208 87.3394 188.228615 87.014594 187.903809 
C 86.689788 187.579002 86.249195 187.396503 85.789849 187.396503 
C 85.330504 187.396503 84.889911 187.579002 84.565104 187.903809 
C 84.240298 188.228615 84.057798 188.669208 84.057798 189.128553 
C 84.057798 189.587899 84.240298 190.028492 84.565104 190.353298 
C 84.889911 190.678104 85.330504 190.860604 85.789849 190.860604 
z
" style="fill:#ff0000;stroke:#ff0000;"/>
    <path clip-path="url(#p0147423db6)" d="M 75.491184 201.682939 
C 75.842015 201.682939 76.178524 201.543552 76.426599 201.295477 
C 76.674673 201.047402 76.81406 200.710894 76.81406 200.360063 
C 76.81406 200.009232 76.674673 199.672723 76.426599 199.424649 
C 76.178524 199.176574 75.842015 199.037187 75.491184 199.037187 
C 75.140354 199.037187 74.803845 199.176574 74.55577 199.424649 
C 74.307695 199.672723 74.168309 200.009232 74.168309 200.360063 
C 74.168309 200.710894 74.307695 201.047402 74.55577 201.295477 
C 74.803845 201.543552 75.140354 201.682939 75.491184 201.682939 
z
" style="fill:#ff0000;stroke:#ff0000;"/>
    <path clip-path="url(#p0147423db6)" d="M 308.024995 226.417209 
C 308.290198 226.417209 308.544575 226.311843 308.732102 226.124316 
C 308.919628 225.936789 309.024995 225.682412 309.024995 225.417209 
C 309.024995 225.152006 308.919628 224.897629 308.732102 224.710102 
C 308.544575 224.522576 308.290198 224.417209 308.024995 224.417209 
C 307.759792 224.417209 307.505415 224.522576 307.317888 224.710102 
C 307.130361 224.897629 307.024995 225.152006 307.024995 225.417209 
C 307.024995 225.682412 307.130361 225.936789 307.317888 226.124316 
C 307.505415 226.311843 307.759792 226.417209 308.024995 226.417209 
z
" style="fill:#ff0000;stroke:#ff0000;"/>
    <path clip-path="url(#p0147423db6)" d="M 290.324347 226.282334 
C 290.820497 226.282334 291.296392 226.085211 291.647223 225.734381 
C 291.998054 225.38355 292.195176 224.907655 292.195176 224.411505 
C 292.195176 223.915355 291.998054 223.43946 291.647223 223.088629 
C 291.296392 222.737799 290.820497 222.540676 290.324347 222.540676 
C 289.828198 222.540676 289.352302 222.737799 289.001471 223.088629 
C 288.650641 223.43946 288.453518 223.915355 288.453518 224.411505 
C 288.453518 224.907655 288.650641 225.38355 289.001471 225.734381 
C 289.352302 226.085211 289.828198 226.282334 290.324347 226.282334 
z
" style="fill:#ff0000;stroke:#ff0000;"/>
    <path clip-path="url(#p0147423db6)" d="M 272.679137 226.610513 
C 273.528201 226.610513 274.342604 226.273176 274.942983 225.672797 
C 275.543362 225.072418 275.880699 224.258015 275.880699 223.40895 
C 275.880699 222.559886 275.543362 221.745483 274.942983 221.145104 
C 274.342604 220.544725 273.528201 220.207388 272.679137 220.207388 
C 271.830072 220.207388 271.015669 220.544725 270.41529 221.145104 
C 269.814911 221.745483 269.477574 222.559886 269.477574 223.40895 
C 269.477574 224.258015 269.814911 225.072418 270.41529 225.672797 
C 271.015669 226.273176 271.830072 226.610513 272.679137 226.610513 
z
" style="fill:#ff0000;stroke:#ff0000;"/>
    <path clip-path="url(#p0147423db6)" d="M 255.089103 225.873633 
C 256.007794 225.873633 256.888981 225.508633 257.538593 224.859021 
C 258.188205 224.209408 258.553205 223.328221 258.553205 222.409531 
C 258.553205 221.49084 258.188205 220.609654 257.538593 219.960041 
C 256.888981 219.310429 256.007794 218.945429 255.089103 218.945429 
C 254.170413 218.945429 253.289226 219.310429 252.639613 219.960041 
C 251.990001 220.609654 251.625001 221.49084 251.625001 222.409531 
C 251.625001 223.328221 251.990001 224.209408 252.639613 224.859021 
C 253.289226 225.508633 254.170413 225.873633 255.089103 225.873633 
z
" style="fill:#ff0000;stroke:#ff0000;"/>
    <path clip-path="url(#p0147423db6)" d="M 237.553988 226.130222 
C 238.804949 226.130222 240.004842 225.633211 240.889404 224.748648 
C 241.773967 223.864085 242.270979 222.664192 242.270979 221.413232 
C 242.270979 220.162271 241.773967 218.962378 240.889404 218.077816 
C 240.004842 217.193253 238.804949 216.696241 237.553988 216.696241 
C 236.303028 216.696241 235.103135 217.193253 234.218572 218.077816 
C 233.33401 218.962378 232.836998 220.162271 232.836998 221.413232 
C 232.836998 222.664192 233.33401 223.864085 234.218572 224.748648 
C 235.103135 225.633211 236.303028 226.130222 237.553988 226.130222 
z
" style="fill:#ff0000;stroke:#ff0000;"/>
    <path clip-path="url(#p0147423db6)" d="M 220.073535 226.1428 
C 221.591229 226.1428 223.046967 225.539814 224.120139 224.466642 
C 225.19331 223.39347 225.796297 221.937733 225.796297 220.420038 
C 225.796297 218.902344 225.19331 217.446607 224.120139 216.373435 
C 223.046967 215.300263 221.591229 214.697277 220.073535 214.697277 
C 218.555841 214.697277 217.100103 215.300263 216.026932 216.373435 
C 214.95376 217.446607 214.350774 218.902344 214.350774 220.420038 
C 214.350774 221.937733 214.95376 223.39347 216.026932 224.466642 
C 217.100103 225.539814 218.555841 226.1428 220.073535 226.1428 
z
" style="fill:#ff0000;stroke:#ff0000;"/>
    <path clip-path="url(#p0147423db6)" d="M 202.647489 225.654886 
C 204.298365 225.654886 205.881847 224.998986 207.049193 223.831641 
C 208.216539 222.664295 208.872439 221.080812 208.872439 219.429936 
C 208.872439 217.77906 208.216539 216.195578 207.049193 215.028232 
C 205.881847 213.860886 204.298365 213.204986 202.647489 213.204986 
C 200.996613 213.204986 199.41313 213.860886 198.245785 215.028232 
C 197.078439 216.195578 196.422539 217.77906 196.422539 219.429936 
C 196.422539 221.080812 197.078439 222.664295 198.245785 223.831641 
C 199.41313 224.998986 200.996613 225.654886 202.647489 225.654886 
z
" style="fill:#ff0000;stroke:#ff0000;"/>
    <path clip-path="url(#p0147423db6)" d="M 185.275595 224.316581 
C 186.833311 224.316581 188.327436 223.697694 189.428907 222.596223 
C 190.530379 221.494752 191.149265 220.000626 191.149265 218.442911 
C 191.149265 216.885195 190.530379 215.39107 189.428907 214.289599 
C 188.327436 213.188128 186.833311 212.569241 185.275595 212.569241 
C 183.71788 212.569241 182.223755 213.188128 181.122283 214.289599 
C 180.020812 215.39107 179.401925 216.885195 179.401925 218.442911 
C 179.401925 220.000626 180.020812 221.494752 181.122283 222.596223 
C 182.223755 223.697694 183.71788 224.316581 185.275595 224.316581 
z
" style="fill:#ff0000;stroke:#ff0000;"/>
    <path clip-path="url(#p0147423db6)" d="M 167.957603 223.268423 
C 169.498294 223.268423 170.976089 222.6563 172.065522 221.566867 
C 173.154955 220.477434 173.767078 218.999639 173.767078 217.458948 
C 173.767078 215.918257 173.154955 214.440462 172.065522 213.351029 
C 170.976089 212.261596 169.498294 211.649473 167.957603 211.649473 
C 166.416912 211.649473 164.939117 212.261596 163.849684 213.351029 
C 162.760251 214.440462 162.148128 215.918257 162.148128 217.458948 
C 162.148128 218.999639 162.760251 220.477434 163.849684 221.566867 
C 164.939117 222.6563 166.416912 223.268423 167.957603 223.268423 
z
" style="fill:#ff0000;stroke:#ff0000;"/>
    <path clip-path="url(#p0147423db6)" d="M 150.693261 221.087806 
C 151.915787 221.087806 153.088406 220.602091 153.952862 219.737635 
C 154.817319 218.873178 155.303033 217.70056 155.303033 216.478034 
C 155.303033 215.255508 154.817319 214.082889 153.952862 213.218432 
C 153.088406 212.353976 151.915787 211.868261 150.693261 211.868261 
C 149.470735 211.868261 148.298116 212.353976 147.43366 213.218432 
C 146.569204 214.082889 146.083489 215.255508 146.083489 216.478034 
C 146.083489 217.70056 146.569204 218.873178 147.43366 219.737635 
C 148.298116 220.602091 149.470735 221.087806 150.693261 221.087806 
z
" style="fill:#ff0000;stroke:#ff0000;"/>
    <path clip-path="url(#p0147423db6)" d="M 133.482321 219.653465 
C 134.583792 219.653465 135.640298 219.215846 136.419156 218.436988 
C 137.198014 217.658131 137.635633 216.601624 137.635633 215.500153 
C 137.635633 214.398682 137.198014 213.342176 136.419156 212.563318 
C 135.640298 211.78446 134.583792 211.346841 133.482321 211.346841 
C 132.38085 211.346841 131.324344 211.78446 130.545486 212.563318 
C 129.766628 213.342176 129.329009 214.398682 129.329009 215.500153 
C 129.329009 216.601624 129.766628 217.658131 130.545486 218.436988 
C 131.324344 219.215846 132.38085 219.653465 133.482321 219.653465 
z
" style="fill:#ff0000;stroke:#ff0000;"/>
    <path clip-path="url(#p0147423db6)" d="M 116.324535 217.916458 
C 117.223882 217.916458 118.086516 217.559143 118.722451 216.923209 
C 119.358385 216.287274 119.7157 215.42464 119.7157 214.525293 
C 119.7157 213.625945 119.358385 212.763312 118.722451 212.127377 
C 118.086516 211.491442 117.223882 211.134128 116.324535 211.134128 
C 115.425187 211.134128 114.562554 211.491442 113.926619 212.127377 
C 113.290684 212.763312 112.93337 213.625945 112.93337 214.525293 
C 112.93337 215.42464 113.290684 216.287274 113.926619 216.923209 
C 114.562554 217.559143 115.425187 217.916458 116.324535 217.916458 
z
" style="fill:#ff0000;stroke:#ff0000;"/>
    <path clip-path="url(#p0147423db6)" d="M 99.219657 216.002928 
C 99.869269 216.002928 100.492363 215.744835 100.951708 215.28549 
C 101.411053 214.826144 101.669147 214.203051 101.669147 213.553439 
C 101.669147 212.903826 101.411053 212.280733 100.951708 211.821388 
C 100.492363 211.362043 99.869269 211.103949 99.219657 211.103949 
C 98.570045 211.103949 97.946952 211.362043 97.487606 211.821388 
C 97.028261 212.280733 96.770167 212.903826 96.770167 213.553439 
C 96.770167 214.203051 97.028261 214.826144 97.487606 215.28549 
C 97.946952 215.744835 98.570045 216.002928 99.219657 216.002928 
z
" style="fill:#ff0000;stroke:#ff0000;"/>
    <path clip-path="url(#p0147423db6)" d="M 82.167443 213.584577 
C 82.432647 213.584577 82.687023 213.47921 82.87455 213.291684 
C 83.062077 213.104157 83.167443 212.84978 83.167443 212.584577 
C 83.167443 212.319374 83.062077 212.064997 82.87455 211.87747 
C 82.687023 211.689943 82.432647 211.584577 82.167443 211.584577 
C 81.90224 211.584577 81.647864 211.689943 81.460337 211.87747 
C 81.27281 212.064997 81.167443 212.319374 81.167443 212.584577 
C 81.167443 212.84978 81.27281 213.104157 81.460337 213.291684 
C 81.647864 213.47921 81.90224 213.584577 82.167443 213.584577 
z
" style="fill:#ff0000;stroke:#ff0000;"/>
   </g>
   <g id="legend_1">
    <g id="patch_6">
     <path d="M 21.2 291.2 
L 294.2 291.2 
Q 297.2 291.2 297.2 288.2 
L 297.2 249.95 
Q 297.2 246.95 294.2 246.95 
L 21.2 246.95 
Q 18.2 246.95 18.2 249.95 
L 18.2 288.2 
Q 18.2 291.2 21.2 291.2 
z
" style="fill:#ffffff;opacity:0.8;stroke:#cccccc;stroke-linejoin:miter;"/>
    </g>
    <g id="Path3DCollection_3">
     <defs>
      <path d="M 0 4.782782 
C 1.268409 4.782782 2.485037 4.278838 3.381937 3.381937 
C 4.278838 2.485037 4.782782 1.268409 4.782782 0 
C 4.782782 -1.268409 4.278838 -2.485037 3.381937 -3.381937 
C 2.485037 -4.278838 1.268409 -4.782782 0 -4.782782 
C -1.268409 -4.782782 -2.485037 -4.278838 -3.381937 -3.381937 
C -4.278838 -2.485037 -4.782782 -1.268409 -4.782782 0 
C -4.782782 1.268409 -4.278838 2.485037 -3.381937 3.381937 
C -2.485037 4.278838 -1.268409 4.782782 0 4.782782 
z
" id="m6c7152e7b2" style="stroke:#ff0000;"/>
     </defs>
     <g>
      <use style="fill:#ff0000;stroke:#ff0000;" x="39.2" xlink:href="#m6c7152e7b2" y="259.5125"/>
     </g>
    </g>
    <g id="text_28">
     <!-- probability of absorbing state -->
     <defs>
      <path d="M 44.140625 23.828125 
Q 44.140625 12.5 38.671875 6.640625 
Q 33.203125 0.78125 25.390625 0.78125 
Q 21.09375 0.78125 17.96875 2.53125 
Q 14.84375 4.296875 12.5 7.8125 
L 12.5 -12.5 
L 4.6875 -12.5 
L 4.6875 45.703125 
L 12.5 45.703125 
L 12.5 39.84375 
Q 14.84375 43.359375 17.96875 44.921875 
Q 21.09375 46.484375 25.390625 46.484375 
Q 33.203125 46.484375 38.671875 40.8125 
Q 44.140625 35.15625 44.140625 23.828125 
z
M 35.546875 23.828125 
Q 35.546875 31.25 32.609375 35.34375 
Q 29.6875 39.453125 23.828125 39.453125 
Q 19.140625 39.453125 15.8125 35.34375 
Q 12.5 31.25 12.5 23.828125 
Q 12.5 16.40625 15.8125 12.109375 
Q 19.140625 7.8125 23.828125 7.8125 
Q 29.6875 7.8125 32.609375 12.109375 
Q 35.546875 16.40625 35.546875 23.828125 
z
" id="SimHei-70"/>
      <path d="M 39.0625 37.890625 
Q 31.640625 39.0625 26.5625 35.734375 
Q 21.484375 32.421875 17.96875 24.21875 
L 17.96875 1.953125 
L 10.15625 1.953125 
L 10.15625 45.703125 
L 17.96875 45.703125 
L 17.96875 34.375 
Q 21.484375 40.625 26.75 43.546875 
Q 32.03125 46.484375 39.0625 46.484375 
z
" id="SimHei-72"/>
      <path d="M 44.140625 23.828125 
Q 44.140625 12.5 38.671875 6.828125 
Q 33.203125 1.171875 25.390625 1.171875 
Q 21.09375 1.171875 17.96875 2.734375 
Q 14.84375 4.296875 12.5 7.8125 
L 12.5 1.953125 
L 4.6875 1.953125 
L 4.6875 68.75 
L 12.5 68.75 
L 12.5 39.84375 
Q 14.84375 43.359375 17.96875 45.109375 
Q 21.09375 46.875 25.390625 46.875 
Q 33.203125 46.875 38.671875 41.015625 
Q 44.140625 35.15625 44.140625 23.828125 
z
M 35.546875 23.828125 
Q 35.546875 31.25 32.609375 35.546875 
Q 29.6875 39.84375 23.828125 39.84375 
Q 19.140625 39.84375 15.8125 35.546875 
Q 12.5 31.25 12.5 23.828125 
Q 12.5 16.40625 15.8125 12.296875 
Q 19.140625 8.203125 23.828125 8.203125 
Q 29.6875 8.203125 32.609375 12.296875 
Q 35.546875 16.40625 35.546875 23.828125 
z
" id="SimHei-62"/>
      <path d="M 44.921875 1.953125 
L 35.546875 1.953125 
Q 34.765625 2.734375 34.375 4.09375 
Q 33.984375 5.46875 33.984375 7.421875 
Q 31.25 4.296875 27.34375 2.734375 
Q 23.4375 1.171875 19.140625 1.171875 
Q 12.890625 1.171875 8.59375 4.296875 
Q 4.296875 7.421875 4.296875 13.28125 
Q 4.296875 19.140625 8.203125 22.65625 
Q 12.109375 26.171875 20.3125 27.34375 
Q 25.78125 28.125 29.875 29.296875 
Q 33.984375 30.46875 33.984375 32.421875 
Q 33.984375 34.765625 32.21875 37.109375 
Q 30.46875 39.453125 24.609375 39.453125 
Q 19.921875 39.453125 17.765625 37.6875 
Q 15.625 35.9375 14.84375 32.8125 
L 6.25 32.8125 
Q 7.03125 39.0625 11.90625 42.765625 
Q 16.796875 46.484375 24.609375 46.484375 
Q 33.203125 46.484375 37.5 42.578125 
Q 41.796875 38.671875 41.796875 31.640625 
L 41.796875 10.15625 
Q 41.796875 7.8125 42.578125 5.859375 
Q 43.359375 3.90625 44.921875 1.953125 
z
M 33.984375 16.40625 
L 33.984375 24.21875 
Q 31.640625 23.4375 29.484375 22.84375 
Q 27.34375 22.265625 22.265625 21.484375 
Q 16.40625 20.703125 14.640625 18.75 
Q 12.890625 16.796875 12.890625 14.0625 
Q 12.890625 11.71875 14.640625 9.953125 
Q 16.40625 8.203125 19.921875 8.203125 
Q 23.4375 8.203125 27.53125 10.15625 
Q 31.640625 12.109375 33.984375 16.40625 
z
" id="SimHei-61"/>
      <path d="M 28.515625 1.953125 
L 20.703125 1.953125 
L 20.703125 68.75 
L 28.515625 68.75 
z
" id="SimHei-6c"/>
      <path d="M 42.96875 3.125 
Q 41.015625 2.34375 38.46875 1.75 
Q 35.9375 1.171875 31.640625 1.171875 
Q 24.609375 1.171875 20.3125 5.078125 
Q 16.015625 8.984375 16.015625 16.015625 
L 16.015625 39.453125 
L 2.734375 39.453125 
L 2.734375 45.703125 
L 16.015625 45.703125 
L 16.015625 60.9375 
L 23.828125 60.9375 
L 23.828125 45.703125 
L 39.84375 45.703125 
L 39.84375 39.453125 
L 23.828125 39.453125 
L 23.828125 15.625 
Q 23.828125 12.5 25.390625 10.34375 
Q 26.953125 8.203125 31.25 8.203125 
Q 35.546875 8.203125 38.28125 8.984375 
Q 41.015625 9.765625 42.96875 10.9375 
z
" id="SimHei-74"/>
      <path d="M 45.3125 45.703125 
L 27.34375 -1.5625 
Q 25.78125 -7.03125 22.65625 -9.765625 
Q 19.53125 -12.5 14.84375 -12.5 
Q 12.890625 -12.5 11.125 -12.296875 
Q 9.375 -12.109375 7.8125 -11.328125 
L 7.8125 -3.515625 
Q 9.375 -4.296875 10.9375 -4.6875 
Q 12.5 -5.078125 13.671875 -5.078125 
Q 16.796875 -5.078125 17.96875 -4.09375 
Q 19.140625 -3.125 20.3125 0.390625 
L 3.125 45.703125 
L 11.71875 45.703125 
L 24.21875 11.328125 
L 24.609375 11.328125 
L 36.71875 45.703125 
z
" id="SimHei-79"/>
      <path d="M 46.484375 39.0625 
Q 43.75 39.84375 41.203125 40.03125 
Q 38.671875 40.234375 35.9375 39.453125 
Q 37.109375 38.28125 37.890625 36.515625 
Q 38.671875 34.765625 38.671875 31.25 
Q 38.671875 24.609375 34.171875 20.3125 
Q 29.6875 16.015625 23.046875 16.015625 
Q 21.484375 16.015625 18.9375 16.59375 
Q 16.40625 17.1875 14.84375 17.96875 
Q 13.671875 17.1875 13.28125 16.40625 
Q 12.890625 15.625 12.890625 14.453125 
Q 12.890625 12.5 15.625 11.515625 
Q 18.359375 10.546875 25.390625 10.546875 
Q 36.71875 10.546875 40.8125 7.421875 
Q 44.921875 4.296875 44.921875 -0.390625 
Q 44.921875 -6.640625 38.859375 -9.5625 
Q 32.8125 -12.5 24.609375 -12.5 
Q 14.0625 -12.5 8.984375 -9.765625 
Q 3.90625 -7.03125 3.90625 -2.34375 
Q 3.90625 0 5.859375 2.34375 
Q 7.8125 4.6875 10.9375 6.25 
Q 8.59375 7.421875 7.21875 9.171875 
Q 5.859375 10.9375 5.859375 13.671875 
Q 5.859375 16.015625 7.609375 17.765625 
Q 9.375 19.53125 11.71875 20.703125 
Q 9.765625 22.65625 8.59375 25.390625 
Q 7.421875 28.125 7.421875 31.25 
Q 7.421875 37.890625 11.90625 42.1875 
Q 16.40625 46.484375 23.046875 46.484375 
Q 26.5625 46.484375 29.09375 45.5 
Q 31.640625 44.53125 33.59375 42.578125 
Q 36.71875 44.921875 39.84375 45.890625 
Q 42.96875 46.875 46.484375 46.484375 
z
M 30.859375 31.25 
Q 30.859375 35.15625 28.90625 37.5 
Q 26.953125 39.84375 23.046875 39.84375 
Q 19.140625 39.84375 17.1875 37.5 
Q 15.234375 35.15625 15.234375 31.25 
Q 15.234375 27.34375 17.1875 25 
Q 19.140625 22.65625 23.046875 22.65625 
Q 26.953125 22.65625 28.90625 25 
Q 30.859375 27.34375 30.859375 31.25 
z
M 37.5 -1.171875 
Q 37.5 0.390625 35.734375 1.953125 
Q 33.984375 3.515625 26.953125 3.515625 
Q 25.390625 3.515625 22.65625 3.703125 
Q 19.921875 3.90625 16.40625 4.296875 
Q 13.28125 3.125 12.109375 1.5625 
Q 10.9375 0 10.9375 -1.5625 
Q 10.9375 -3.90625 14.0625 -5.46875 
Q 17.1875 -7.03125 25 -7.03125 
Q 31.640625 -7.03125 34.5625 -5.265625 
Q 37.5 -3.515625 37.5 -1.171875 
z
" id="SimHei-67"/>
      <path d="M 44.53125 16.796875 
Q 43.75 9.765625 38.28125 5.46875 
Q 32.8125 1.171875 25.390625 1.171875 
Q 16.015625 1.171875 9.953125 7.21875 
Q 3.90625 13.28125 3.90625 23.828125 
Q 3.90625 34.375 9.953125 40.421875 
Q 16.015625 46.484375 25.390625 46.484375 
Q 33.59375 46.484375 38.859375 41.203125 
Q 44.140625 35.9375 44.140625 23.828125 
L 12.5 23.828125 
Q 12.5 15.234375 16.203125 11.71875 
Q 19.921875 8.203125 25.390625 8.203125 
Q 29.6875 8.203125 32.421875 10.34375 
Q 35.15625 12.5 35.9375 16.796875 
z
M 35.15625 30.078125 
Q 34.375 35.546875 31.640625 37.6875 
Q 28.90625 39.84375 24.609375 39.84375 
Q 20.703125 39.84375 17.578125 37.6875 
Q 14.453125 35.546875 12.890625 30.078125 
z
" id="SimHei-65"/>
     </defs>
     <g transform="translate(66.2 263.45)scale(0.15 -0.15)">
      <use xlink:href="#SimHei-70"/>
      <use x="50" xlink:href="#SimHei-72"/>
      <use x="100" xlink:href="#SimHei-6f"/>
      <use x="150" xlink:href="#SimHei-62"/>
      <use x="200" xlink:href="#SimHei-61"/>
      <use x="250" xlink:href="#SimHei-62"/>
      <use x="300" xlink:href="#SimHei-69"/>
      <use x="350" xlink:href="#SimHei-6c"/>
      <use x="400" xlink:href="#SimHei-69"/>
      <use x="450" xlink:href="#SimHei-74"/>
      <use x="500" xlink:href="#SimHei-79"/>
      <use x="550" xlink:href="#SimHei-20"/>
      <use x="600" xlink:href="#SimHei-6f"/>
      <use x="650" xlink:href="#SimHei-66"/>
      <use x="700" xlink:href="#SimHei-20"/>
      <use x="750" xlink:href="#SimHei-61"/>
      <use x="800" xlink:href="#SimHei-62"/>
      <use x="850" xlink:href="#SimHei-73"/>
      <use x="900" xlink:href="#SimHei-6f"/>
      <use x="950" xlink:href="#SimHei-72"/>
      <use x="1000" xlink:href="#SimHei-62"/>
      <use x="1050" xlink:href="#SimHei-69"/>
      <use x="1100" xlink:href="#SimHei-6e"/>
      <use x="1150" xlink:href="#SimHei-67"/>
      <use x="1200" xlink:href="#SimHei-20"/>
      <use x="1250" xlink:href="#SimHei-73"/>
      <use x="1300" xlink:href="#SimHei-74"/>
      <use x="1350" xlink:href="#SimHei-61"/>
      <use x="1400" xlink:href="#SimHei-74"/>
      <use x="1450" xlink:href="#SimHei-65"/>
     </g>
    </g>
    <g id="Path3DCollection_4">
     <g>
      <use style="fill:#008000;stroke:#008000;" x="39.2" xlink:href="#m1b5e4da243" y="279.3875"/>
     </g>
    </g>
    <g id="text_29">
     <!-- start state -->
     <g transform="translate(66.2 283.325)scale(0.15 -0.15)">
      <use xlink:href="#SimHei-73"/>
      <use x="50" xlink:href="#SimHei-74"/>
      <use x="100" xlink:href="#SimHei-61"/>
      <use x="150" xlink:href="#SimHei-72"/>
      <use x="200" xlink:href="#SimHei-74"/>
      <use x="250" xlink:href="#SimHei-20"/>
      <use x="300" xlink:href="#SimHei-73"/>
      <use x="350" xlink:href="#SimHei-74"/>
      <use x="400" xlink:href="#SimHei-61"/>
      <use x="450" xlink:href="#SimHei-74"/>
      <use x="500" xlink:href="#SimHei-65"/>
     </g>
    </g>
   </g>
  </g>
 </g>
 <defs>
  <clipPath id="p0147423db6">
   <rect height="288" width="360" x="10.7" y="10.7"/>
  </clipPath>
 </defs>
</svg>
