<?xml version="1.0" encoding="utf-8" standalone="no"?>
<!DOCTYPE svg PUBLIC "-//W3C//DTD SVG 1.1//EN"
  "http://www.w3.org/Graphics/SVG/1.1/DTD/svg11.dtd">
<!-- Created with matplotlib (http://matplotlib.org/) -->
<svg height="309.4pt" version="1.1" viewBox="0 0 381.4 309.4" width="381.4pt" xmlns="http://www.w3.org/2000/svg" xmlns:xlink="http://www.w3.org/1999/xlink">
 <defs>
  <style type="text/css">
*{stroke-linecap:butt;stroke-linejoin:round;}
  </style>
 </defs>
 <g id="figure_1">
  <g id="patch_1">
   <path d="M 0 309.4 
L 381.4 309.4 
L 381.4 0 
L 0 0 
z
" style="fill:none;"/>
  </g>
  <g id="patch_2">
   <path d="M 10.7 298.7 
L 370.7 298.7 
L 370.7 10.7 
L 10.7 10.7 
z
" style="fill:#ffffff;"/>
  </g>
  <g id="pane3d_1">
   <g id="patch_3">
    <path d="M 219.619567 185.462306 
L 335.768129 233.715199 
L 340.919918 79.597002 
L 220.435568 41.545085 
" style="fill:#f2f2f2;opacity:0.5;stroke:#f2f2f2;stroke-linejoin:miter;"/>
   </g>
  </g>
  <g id="pane3d_2">
   <g id="patch_4">
    <path d="M 219.619567 185.462306 
L 58.794045 217.8137 
L 53.895826 67.034254 
L 220.435568 41.545085 
" style="fill:#e6e6e6;opacity:0.5;stroke:#e6e6e6;stroke-linejoin:miter;"/>
   </g>
  </g>
  <g id="pane3d_3">
   <g id="patch_5">
    <path d="M 219.619567 185.462306 
L 58.794045 217.8137 
L 168.062833 271.631196 
L 335.768129 233.715199 
" style="fill:#ececec;opacity:0.5;stroke:#ececec;stroke-linejoin:miter;"/>
   </g>
  </g>
  <g id="axis3d_1">
   <g id="line2d_1">
    <path d="M 335.768129 233.715199 
L 168.062833 271.631196 
" style="fill:none;stroke:#000000;stroke-linecap:square;stroke-width:0.8;"/>
   </g>
   <g id="text_1">
    <!-- coins of 大熊 -->
    <defs>
     <path d="M 44.53125 19.53125 
Q 44.53125 11.328125 38.859375 6.25 
Q 33.203125 1.171875 24.609375 1.171875 
Q 16.015625 1.171875 9.765625 7.21875 
Q 3.515625 13.28125 3.515625 23.828125 
Q 3.515625 34.375 9.765625 40.421875 
Q 16.015625 46.484375 24.609375 46.484375 
Q 33.203125 46.484375 38.28125 41.984375 
Q 43.359375 37.5 43.359375 31.25 
L 34.765625 31.25 
Q 34.375 35.9375 31.4375 37.6875 
Q 28.515625 39.453125 24.609375 39.453125 
Q 19.921875 39.453125 16.015625 35.734375 
Q 12.109375 32.03125 12.109375 23.828125 
Q 12.109375 15.625 16.015625 11.90625 
Q 19.921875 8.203125 24.609375 8.203125 
Q 29.6875 8.203125 32.8125 10.9375 
Q 35.9375 13.671875 35.9375 19.53125 
z
" id="SimHei-63"/>
     <path d="M 45.703125 23.828125 
Q 45.703125 13.671875 39.453125 7.421875 
Q 33.203125 1.171875 24.609375 1.171875 
Q 16.015625 1.171875 9.765625 7.421875 
Q 3.515625 13.671875 3.515625 23.828125 
Q 3.515625 33.984375 9.765625 40.234375 
Q 16.015625 46.484375 24.609375 46.484375 
Q 33.203125 46.484375 39.453125 40.234375 
Q 45.703125 33.984375 45.703125 23.828125 
z
M 37.109375 23.828125 
Q 37.109375 31.640625 33.203125 35.546875 
Q 29.296875 39.453125 24.609375 39.453125 
Q 19.921875 39.453125 16.015625 35.546875 
Q 12.109375 31.640625 12.109375 23.828125 
Q 12.109375 16.015625 16.015625 12.109375 
Q 19.921875 8.203125 24.609375 8.203125 
Q 29.296875 8.203125 33.203125 12.109375 
Q 37.109375 16.015625 37.109375 23.828125 
z
" id="SimHei-6f"/>
     <path d="M 28.125 58.203125 
L 20.3125 58.203125 
L 20.3125 68.359375 
L 28.125 68.359375 
z
M 28.125 1.953125 
L 20.3125 1.953125 
L 20.3125 45.703125 
L 28.125 45.703125 
z
" id="SimHei-69"/>
     <path d="M 43.75 1.953125 
L 35.9375 1.953125 
L 35.9375 30.078125 
Q 35.9375 34.765625 33.59375 37.5 
Q 31.25 40.234375 27.34375 40.234375 
Q 22.265625 40.234375 17.765625 34.953125 
Q 13.28125 29.6875 13.28125 21.875 
L 13.28125 1.953125 
L 5.46875 1.953125 
L 5.46875 45.703125 
L 13.28125 45.703125 
L 13.28125 37.5 
Q 16.40625 41.796875 20.109375 44.140625 
Q 23.828125 46.484375 29.6875 46.484375 
Q 36.71875 46.484375 40.234375 42.578125 
Q 43.75 38.671875 43.75 32.8125 
z
" id="SimHei-6e"/>
     <path d="M 42.96875 14.0625 
Q 42.96875 7.8125 38.078125 4.484375 
Q 33.203125 1.171875 25.78125 1.171875 
Q 16.40625 1.171875 11.328125 4.875 
Q 6.25 8.59375 6.25 15.625 
L 14.0625 15.625 
Q 14.0625 10.9375 17.375 9.375 
Q 20.703125 7.8125 25.390625 7.8125 
Q 30.078125 7.8125 32.421875 9.5625 
Q 34.765625 11.328125 34.765625 14.0625 
Q 34.765625 16.015625 32.8125 17.96875 
Q 30.859375 19.921875 23.046875 21.09375 
Q 14.0625 22.265625 10.734375 25.578125 
Q 7.421875 28.90625 7.421875 34.375 
Q 7.421875 39.0625 11.90625 42.765625 
Q 16.40625 46.484375 25 46.484375 
Q 32.8125 46.484375 37.296875 42.96875 
Q 41.796875 39.453125 41.796875 33.59375 
L 33.984375 33.59375 
Q 33.984375 37.109375 31.4375 38.46875 
Q 28.90625 39.84375 25 39.84375 
Q 19.921875 39.84375 17.765625 38.078125 
Q 15.625 36.328125 15.625 33.984375 
Q 15.625 31.25 17.578125 29.6875 
Q 19.53125 28.125 25.78125 27.34375 
Q 35.9375 25.78125 39.453125 22.453125 
Q 42.96875 19.140625 42.96875 14.0625 
z
" id="SimHei-73"/>
     <path id="SimHei-20"/>
     <path d="M 44.53125 59.765625 
Q 42.578125 60.9375 39.84375 61.71875 
Q 37.109375 62.5 32.8125 62.5 
Q 28.515625 62.5 26.953125 60.34375 
Q 25.390625 58.203125 25.390625 55.078125 
L 25.390625 45.703125 
L 41.40625 45.703125 
L 41.40625 39.453125 
L 25.390625 39.453125 
L 25.390625 1.953125 
L 17.578125 1.953125 
L 17.578125 39.453125 
L 4.296875 39.453125 
L 4.296875 45.703125 
L 17.578125 45.703125 
L 17.578125 54.6875 
Q 17.578125 61.71875 21.875 65.625 
Q 26.171875 69.53125 33.203125 69.53125 
Q 37.5 69.53125 40.03125 68.9375 
Q 42.578125 68.359375 44.53125 67.578125 
z
" id="SimHei-66"/>
     <path d="M 45.3125 53.125 
Q 45.703125 66.796875 45.5 71.484375 
Q 45.3125 76.171875 44.921875 80.46875 
Q 49.609375 79.6875 55.46875 79.296875 
Q 54.296875 75.390625 53.703125 67.96875 
Q 53.125 60.546875 53.125 53.125 
L 73.046875 53.125 
Q 83.59375 53.125 92.578125 53.90625 
L 92.578125 45.3125 
Q 84.765625 45.703125 76.5625 45.703125 
L 53.515625 45.703125 
Q 55.078125 39.0625 58.984375 32.21875 
Q 62.890625 25.390625 66.984375 20.109375 
Q 71.09375 14.84375 78.3125 8.984375 
Q 85.546875 3.125 94.140625 -0.78125 
Q 91.015625 -3.125 87.890625 -8.59375 
Q 80.859375 -4.6875 74.015625 1.171875 
Q 67.1875 7.03125 60.34375 16.59375 
Q 53.515625 26.171875 50 34.375 
Q 46.875 25.78125 43.359375 20.109375 
Q 39.84375 14.453125 35.734375 9.765625 
Q 31.640625 5.078125 25.1875 0.390625 
Q 18.75 -4.296875 10.546875 -8.984375 
Q 7.421875 -4.296875 3.515625 -0.78125 
Q 11.71875 1.953125 19.71875 7.03125 
Q 27.734375 12.109375 32.8125 18.546875 
Q 37.890625 25 41.015625 32.03125 
Q 44.140625 39.0625 44.921875 45.703125 
L 23.4375 45.703125 
Q 14.0625 45.703125 8.59375 45.3125 
L 8.59375 53.90625 
Q 14.0625 53.515625 23.4375 53.125 
z
" id="SimHei-5927"/>
     <path d="M 49.609375 52.34375 
Q 49.21875 46.484375 49.21875 40.625 
L 49.21875 19.53125 
Q 49.21875 15.234375 46.484375 13.859375 
Q 43.75 12.5 34.765625 11.328125 
Q 33.59375 14.84375 31.640625 18.359375 
Q 38.671875 18.75 40.421875 18.9375 
Q 42.1875 19.140625 41.796875 23.4375 
L 18.359375 23.4375 
L 18.359375 12.5 
L 10.15625 12.5 
Q 10.546875 25 10.546875 33.59375 
Q 10.546875 42.1875 10.15625 52.34375 
L 49.609375 52.34375 
z
M 65.625 45.3125 
Q 65.234375 41.015625 65.234375 34.375 
Q 81.640625 38.671875 88.28125 43.359375 
Q 90.234375 39.453125 93.359375 36.71875 
Q 85.9375 34.765625 65.625 28.125 
L 65.625 23.046875 
Q 65.625 19.53125 70.703125 19.53125 
L 80.46875 19.53125 
Q 83.59375 19.53125 85.15625 20.890625 
Q 86.71875 22.265625 88.28125 28.125 
Q 92.1875 26.171875 96.875 25.390625 
Q 93.359375 17.1875 91.40625 15.234375 
Q 89.453125 13.28125 83.984375 13.28125 
L 65.234375 13.28125 
Q 57.03125 13.28125 57.03125 19.53125 
L 57.03125 37.5 
Q 57.03125 40.625 56.640625 45.3125 
L 65.625 45.3125 
z
M 92.578125 69.140625 
Q 78.515625 65.234375 64.84375 61.328125 
Q 64.84375 54.6875 68.359375 54.6875 
L 80.46875 54.6875 
Q 83.203125 54.6875 84.765625 56.4375 
Q 86.328125 58.203125 86.71875 62.5 
Q 90.234375 60.9375 94.921875 59.765625 
Q 92.96875 51.5625 90.421875 50.1875 
Q 87.890625 48.828125 82.8125 48.828125 
L 64.84375 48.828125 
Q 57.03125 48.828125 57.03125 54.296875 
L 57.03125 71.09375 
Q 57.03125 75.78125 56.640625 80.46875 
L 65.625 80.46875 
Q 65.234375 75.390625 65.234375 67.1875 
Q 78.515625 70.3125 86.328125 76.171875 
Q 88.671875 72.65625 92.578125 69.140625 
z
M 32.03125 78.125 
Q 24.609375 71.484375 16.40625 62.890625 
Q 22.65625 63.28125 40.625 65.234375 
Q 38.671875 67.578125 35.546875 70.703125 
Q 39.0625 72.265625 42.96875 74.21875 
Q 51.171875 63.28125 55.078125 58.59375 
Q 51.171875 57.03125 48.046875 54.6875 
L 44.53125 59.765625 
Q 42.578125 59.375 33.203125 58.59375 
Q 23.828125 57.8125 9.375 55.859375 
Q 7.421875 59.375 6.25 62.890625 
Q 10.15625 64.84375 14.640625 69.53125 
Q 19.140625 74.21875 23.4375 82.03125 
Q 27.734375 79.6875 32.03125 78.125 
z
M 41.796875 28.90625 
L 41.796875 35.546875 
L 18.359375 35.546875 
L 18.359375 28.90625 
z
M 20.3125 6.640625 
Q 17.1875 3.125 11.71875 -9.765625 
Q 6.640625 -7.8125 3.90625 -7.03125 
Q 6.640625 -1.5625 11.71875 8.984375 
Q 15.625 7.8125 20.3125 6.640625 
z
M 85.9375 10.15625 
Q 92.578125 -1.953125 94.140625 -5.46875 
Q 89.84375 -6.640625 86.328125 -8.59375 
Q 83.984375 -2.34375 78.515625 7.03125 
Q 81.25 8.203125 85.9375 10.15625 
z
M 41.796875 41.015625 
L 41.796875 46.875 
L 18.359375 46.875 
L 18.359375 41.015625 
z
M 62.890625 8.59375 
Q 65.625 -1.953125 66.40625 -5.859375 
L 58.59375 -7.421875 
Q 57.421875 -3.90625 55.46875 7.421875 
Q 58.59375 8.203125 62.890625 8.59375 
z
M 39.84375 7.421875 
Q 40.234375 3.90625 42.578125 -6.640625 
Q 38.671875 -6.640625 34.375 -7.8125 
Q 33.59375 -3.125 32.03125 6.640625 
Q 35.15625 7.421875 39.84375 7.421875 
z
" id="SimHei-718a"/>
    </defs>
    <g style="fill:#800080;" transform="translate(235.061813 295.570823)rotate(-12.739652)scale(0.12 -0.12)">
     <use xlink:href="#SimHei-63"/>
     <use x="50" xlink:href="#SimHei-6f"/>
     <use x="100" xlink:href="#SimHei-69"/>
     <use x="150" xlink:href="#SimHei-6e"/>
     <use x="200" xlink:href="#SimHei-73"/>
     <use x="250" xlink:href="#SimHei-20"/>
     <use x="300" xlink:href="#SimHei-6f"/>
     <use x="350" xlink:href="#SimHei-66"/>
     <use x="400" xlink:href="#SimHei-20"/>
     <use x="450" xlink:href="#SimHei-5927"/>
     <use x="550" xlink:href="#SimHei-718a"/>
    </g>
   </g>
   <g id="Line3DCollection_1">
    <path d="M 325.649087 236.002984 
L 209.876104 187.422284 
L 210.363217 43.086674 
" style="fill:none;stroke:#b0b0b0;stroke-width:0.8;"/>
    <path d="M 305.615951 240.532216 
L 190.60155 191.299522 
L 190.43149 46.137256 
" style="fill:none;stroke:#b0b0b0;stroke-width:0.8;"/>
    <path d="M 285.302458 245.124834 
L 171.077619 195.226923 
L 170.232989 49.228668 
" style="fill:none;stroke:#b0b0b0;stroke-width:0.8;"/>
    <path d="M 264.70268 249.782177 
L 151.299439 199.205469 
L 149.762321 52.361736 
" style="fill:none;stroke:#b0b0b0;stroke-width:0.8;"/>
    <path d="M 243.810523 254.505623 
L 131.262013 203.236164 
L 129.013948 55.537307 
" style="fill:none;stroke:#b0b0b0;stroke-width:0.8;"/>
    <path d="M 222.619718 259.29659 
L 110.960209 207.320041 
L 107.982181 58.756252 
" style="fill:none;stroke:#b0b0b0;stroke-width:0.8;"/>
    <path d="M 201.123814 264.156536 
L 90.38876 211.458159 
L 86.661174 62.019466 
" style="fill:none;stroke:#b0b0b0;stroke-width:0.8;"/>
    <path d="M 179.316176 269.086961 
L 69.542258 215.651607 
L 65.044918 65.327868 
" style="fill:none;stroke:#b0b0b0;stroke-width:0.8;"/>
   </g>
   <g id="xtick_1">
    <g id="line2d_2">
     <path d="M 324.648958 235.583309 
L 327.653217 236.843957 
" style="fill:none;stroke:#000000;stroke-linecap:square;stroke-width:0.8;"/>
    </g>
    <g id="text_2">
     <!-- 0 -->
     <defs>
      <path d="M 3.125 29.296875 
Q 3.90625 50 6.4375 56.046875 
Q 8.984375 62.109375 13.671875 66.015625 
Q 18.359375 69.921875 25.1875 69.921875 
Q 32.03125 69.921875 37.109375 64.25 
Q 42.1875 58.59375 43.75 50 
Q 45.3125 41.40625 44.71875 30.265625 
Q 44.140625 19.140625 40.8125 12.109375 
Q 37.5 5.078125 30.859375 2.34375 
Q 24.21875 -0.390625 17.578125 2.921875 
Q 10.9375 6.25 8.203125 11.71875 
Q 5.46875 17.1875 4.296875 23.234375 
Q 3.125 29.296875 3.90625 50 
z
M 12.890625 52.734375 
Q 10.546875 31.25 12.5 22.84375 
Q 14.453125 14.453125 18.9375 10.9375 
Q 23.4375 7.421875 28.125 9.5625 
Q 32.8125 11.71875 34.953125 18.15625 
Q 37.109375 24.609375 37.109375 32.21875 
Q 37.109375 39.84375 36.515625 46.09375 
Q 35.9375 52.34375 33 57.421875 
Q 30.078125 62.5 25.1875 62.6875 
Q 20.3125 62.890625 16.59375 57.8125 
Q 12.890625 52.734375 10.546875 31.25 
z
" id="SimHei-30"/>
     </defs>
     <g transform="translate(330.134125 260.095778)scale(0.15 -0.15)">
      <use xlink:href="#SimHei-30"/>
     </g>
    </g>
   </g>
   <g id="xtick_2">
    <g id="line2d_3">
     <path d="M 304.621865 240.106691 
L 307.607998 241.384926 
" style="fill:none;stroke:#000000;stroke-linecap:square;stroke-width:0.8;"/>
    </g>
    <g id="text_3">
     <!-- 2 -->
     <defs>
      <path d="M 4.6875 3.90625 
Q 5.078125 9.765625 10.15625 14.453125 
Q 15.234375 19.140625 23.046875 29.09375 
Q 30.859375 39.0625 33.203125 44.53125 
Q 35.546875 50 34.953125 53.90625 
Q 34.375 57.8125 31.25 60.34375 
Q 28.125 62.890625 24.015625 62.5 
Q 19.921875 62.109375 16.203125 59.375 
Q 12.5 56.640625 10.546875 51.171875 
L 3.125 52.34375 
Q 6.25 61.328125 11.125 65.421875 
Q 16.015625 69.53125 22.65625 69.921875 
Q 26.5625 70.3125 29.6875 69.71875 
Q 32.8125 69.140625 36.125 66.984375 
Q 39.453125 64.84375 41.59375 60.546875 
Q 43.75 56.25 43.15625 50.1875 
Q 42.578125 44.140625 37.109375 35.734375 
Q 31.640625 27.34375 16.015625 9.375 
L 44.140625 9.375 
L 44.140625 2.34375 
L 4.6875 2.34375 
z
" id="SimHei-32"/>
     </defs>
     <g transform="translate(310.096382 264.735082)scale(0.15 -0.15)">
      <use xlink:href="#SimHei-32"/>
     </g>
    </g>
   </g>
   <g id="xtick_3">
    <g id="line2d_4">
     <path d="M 284.314682 244.693335 
L 287.281886 245.989527 
" style="fill:none;stroke:#000000;stroke-linecap:square;stroke-width:0.8;"/>
    </g>
    <g id="text_4">
     <!-- 4 -->
     <defs>
      <path d="M 31.25 17.1875 
L 1.171875 17.1875 
L 1.171875 23.828125 
L 32.8125 69.53125 
L 38.671875 69.53125 
L 38.671875 23.828125 
L 48.046875 23.828125 
L 48.046875 17.1875 
L 38.671875 17.1875 
L 38.671875 2.34375 
L 31.25 2.34375 
z
M 31.25 23.828125 
L 31.25 54.6875 
L 9.375 23.828125 
z
" id="SimHei-34"/>
     </defs>
     <g transform="translate(289.777342 269.439513)scale(0.15 -0.15)">
      <use xlink:href="#SimHei-34"/>
     </g>
    </g>
   </g>
   <g id="xtick_4">
    <g id="line2d_5">
     <path d="M 263.721492 249.344577 
L 266.668935 250.659107 
" style="fill:none;stroke:#000000;stroke-linecap:square;stroke-width:0.8;"/>
    </g>
    <g id="text_5">
     <!-- 6 -->
     <defs>
      <path d="M 3.515625 19.53125 
Q 4.296875 30.859375 6.046875 34.765625 
Q 7.8125 38.671875 11.328125 44.53125 
L 27.34375 69.53125 
L 36.328125 69.53125 
L 19.921875 43.75 
Q 30.46875 46.484375 36.71875 42.96875 
Q 42.96875 39.453125 45.109375 34.953125 
Q 47.265625 30.46875 47.453125 25.1875 
Q 47.65625 19.921875 45.890625 14.84375 
Q 44.140625 9.765625 39.640625 5.65625 
Q 35.15625 1.5625 27.140625 1.171875 
Q 19.140625 0.78125 13.46875 4.09375 
Q 7.8125 7.421875 5.65625 13.46875 
Q 3.515625 19.53125 4.296875 30.859375 
z
M 12.5 16.015625 
Q 19.53125 8.59375 25.390625 8.203125 
Q 31.25 7.8125 35.15625 12.109375 
Q 39.0625 16.40625 39.0625 24.609375 
Q 39.0625 32.8125 34.171875 35.9375 
Q 29.296875 39.0625 23.234375 38.28125 
Q 17.1875 37.5 14.453125 32.421875 
Q 11.71875 27.34375 12.109375 21.671875 
Q 12.5 16.015625 19.53125 8.59375 
z
" id="SimHei-36"/>
     </defs>
     <g transform="translate(269.171041 274.210454)scale(0.15 -0.15)">
      <use xlink:href="#SimHei-36"/>
     </g>
    </g>
   </g>
   <g id="xtick_5">
    <g id="line2d_6">
     <path d="M 242.83621 254.061792 
L 245.763028 255.395052 
" style="fill:none;stroke:#000000;stroke-linecap:square;stroke-width:0.8;"/>
    </g>
    <g id="text_6">
     <!-- 8 -->
     <defs>
      <path d="M 2.734375 16.796875 
Q 2.734375 26.171875 5.078125 30.65625 
Q 7.421875 35.15625 12.890625 37.890625 
Q 8.203125 40.625 6.640625 43.9375 
Q 5.078125 47.265625 4.875 51.5625 
Q 4.6875 55.859375 6.046875 58.984375 
Q 7.421875 62.109375 10.15625 64.84375 
Q 12.890625 67.578125 16.203125 68.546875 
Q 19.53125 69.53125 23.4375 69.53125 
Q 27.34375 69.53125 30.46875 68.75 
Q 33.59375 67.96875 37.109375 65.421875 
Q 40.625 62.890625 42.1875 58.203125 
Q 43.75 53.515625 41.984375 47.265625 
Q 40.234375 41.015625 32.8125 37.5 
Q 39.453125 35.546875 42.1875 31.4375 
Q 44.921875 27.34375 44.921875 21.484375 
Q 44.921875 15.625 43.15625 12.109375 
Q 41.40625 8.59375 39.25 6.25 
Q 37.109375 3.90625 33.390625 2.53125 
Q 29.6875 1.171875 24.015625 1.171875 
Q 18.359375 1.171875 14.25 2.53125 
Q 10.15625 3.90625 7.421875 6.640625 
Q 4.6875 9.375 3.703125 13.078125 
Q 2.734375 16.796875 2.734375 26.171875 
z
M 10.9375 26.5625 
Q 10.546875 17.1875 12.296875 13.671875 
Q 14.0625 10.15625 18.75 9.171875 
Q 23.4375 8.203125 28.515625 9.375 
Q 33.59375 10.546875 35.546875 14.84375 
Q 37.5 19.140625 36.90625 23.4375 
Q 36.328125 27.734375 32.03125 30.65625 
Q 27.734375 33.59375 22.65625 33.203125 
Q 17.578125 32.8125 14.25 29.6875 
Q 10.9375 26.5625 10.546875 17.1875 
z
M 12.109375 56.25 
Q 12.109375 48.4375 14.84375 44.921875 
Q 17.578125 41.40625 23.4375 41.40625 
Q 29.296875 41.40625 32.21875 44.921875 
Q 35.15625 48.4375 34.953125 53.3125 
Q 34.765625 58.203125 31.4375 60.546875 
Q 28.125 62.890625 22.453125 62.5 
Q 16.796875 62.109375 14.453125 59.171875 
Q 12.109375 56.25 12.109375 48.4375 
z
" id="SimHei-38"/>
     </defs>
     <g transform="translate(248.271344 279.049324)scale(0.15 -0.15)">
      <use xlink:href="#SimHei-38"/>
     </g>
    </g>
   </g>
   <g id="xtick_6">
    <g id="line2d_7">
     <path d="M 221.652577 258.846394 
L 224.557878 260.198787 
" style="fill:none;stroke:#000000;stroke-linecap:square;stroke-width:0.8;"/>
    </g>
    <g id="text_7">
     <!-- 10 -->
     <defs>
      <path d="M 21.875 56.25 
Q 16.796875 51.171875 8.984375 46.484375 
L 8.984375 53.90625 
Q 18.75 60.546875 25 69.53125 
L 29.6875 69.53125 
L 29.6875 2.34375 
L 21.875 2.34375 
z
" id="SimHei-31"/>
     </defs>
     <g transform="translate(223.321939 283.957585)scale(0.15 -0.15)">
      <use xlink:href="#SimHei-31"/>
      <use x="50" xlink:href="#SimHei-30"/>
     </g>
    </g>
   </g>
   <g id="xtick_7">
    <g id="line2d_8">
     <path d="M 200.164153 263.699837 
L 203.047012 265.071778 
" style="fill:none;stroke:#000000;stroke-linecap:square;stroke-width:0.8;"/>
    </g>
    <g id="text_8">
     <!-- 12 -->
     <g transform="translate(201.816333 288.936741)scale(0.15 -0.15)">
      <use xlink:href="#SimHei-31"/>
      <use x="50" xlink:href="#SimHei-32"/>
     </g>
    </g>
   </g>
   <g id="xtick_8">
    <g id="line2d_9">
     <path d="M 178.364314 268.623617 
L 181.22377 270.015533 
" style="fill:none;stroke:#000000;stroke-linecap:square;stroke-width:0.8;"/>
    </g>
    <g id="text_9">
     <!-- 14 -->
     <g transform="translate(179.997844 293.988337)scale(0.15 -0.15)">
      <use xlink:href="#SimHei-31"/>
      <use x="50" xlink:href="#SimHei-34"/>
     </g>
    </g>
   </g>
  </g>
  <g id="axis3d_2">
   <g id="line2d_10">
    <path d="M 58.794045 217.8137 
L 168.062833 271.631196 
" style="fill:none;stroke:#000000;stroke-linecap:square;stroke-width:0.8;"/>
   </g>
   <g id="text_10">
    <!-- coins of 胖虎 -->
    <defs>
     <path d="M 21.484375 1.953125 
Q 25.78125 1.5625 28.515625 1.75 
Q 31.25 1.953125 31.640625 7.03125 
L 31.640625 26.171875 
L 18.359375 26.171875 
Q 16.796875 14.453125 14.453125 5.859375 
Q 12.109375 -2.734375 10.15625 -7.03125 
Q 6.640625 -3.90625 3.125 -2.734375 
Q 6.640625 2.734375 8.78125 10.34375 
Q 10.9375 17.96875 11.71875 30.859375 
L 11.71875 64.453125 
Q 11.71875 71.09375 11.328125 76.953125 
L 38.671875 76.953125 
Q 38.28125 69.140625 38.28125 61.328125 
L 38.28125 1.953125 
Q 38.28125 -6.25 23.4375 -7.03125 
Q 23.046875 -3.125 21.484375 1.953125 
z
M 64.453125 45.3125 
L 64.453125 69.140625 
Q 64.453125 73.828125 63.671875 79.296875 
L 72.265625 79.296875 
Q 71.875 74.21875 71.875 69.140625 
L 71.875 45.3125 
L 82.421875 45.3125 
Q 85.9375 45.3125 91.796875 45.703125 
L 91.796875 38.671875 
Q 88.28125 39.0625 82.421875 39.0625 
L 71.875 39.0625 
L 71.875 23.4375 
L 84.765625 23.4375 
Q 91.015625 23.4375 96.09375 23.828125 
L 96.09375 16.796875 
Q 90.234375 17.1875 84.765625 17.1875 
L 71.875 17.1875 
L 71.875 3.90625 
Q 71.875 -2.34375 72.265625 -8.984375 
L 64.0625 -8.984375 
Q 64.453125 -2.734375 64.453125 3.90625 
L 64.453125 17.1875 
L 53.90625 17.1875 
Q 48.4375 17.1875 42.578125 16.796875 
L 42.578125 23.828125 
Q 48.046875 23.4375 54.296875 23.4375 
L 64.453125 23.4375 
L 64.453125 39.0625 
L 53.90625 39.0625 
Q 48.4375 39.0625 43.359375 38.671875 
L 43.359375 45.703125 
Q 48.4375 45.3125 53.515625 45.3125 
z
M 31.640625 32.8125 
L 31.640625 48.828125 
L 18.75 48.828125 
L 18.75 32.8125 
z
M 31.640625 55.078125 
L 31.640625 70.703125 
L 18.75 70.703125 
L 18.75 55.078125 
z
M 51.5625 51.953125 
Q 50 58.984375 44.921875 71.09375 
L 51.171875 74.21875 
Q 55.859375 63.28125 58.59375 54.6875 
Q 54.296875 53.515625 51.5625 51.953125 
z
M 77.34375 53.90625 
Q 83.984375 67.96875 84.765625 73.4375 
Q 88.671875 71.875 92.578125 70.703125 
Q 90.625 67.96875 88.671875 62.890625 
Q 86.71875 57.8125 84.375 51.953125 
Q 80.859375 53.90625 77.34375 53.90625 
z
" id="SimHei-80d6"/>
     <path d="M 25.78125 45.703125 
Q 33.203125 46.09375 44.140625 46.875 
L 44.140625 56.640625 
L 20.703125 56.640625 
Q 20.703125 31.640625 20.109375 23.4375 
Q 19.53125 15.234375 17.578125 8 
Q 15.625 0.78125 10.9375 -7.8125 
Q 7.8125 -5.46875 3.125 -3.90625 
Q 7.03125 0.78125 9.171875 6.828125 
Q 11.328125 12.890625 12.109375 18.75 
Q 12.890625 24.609375 13.078125 30.265625 
Q 13.28125 35.9375 13.28125 42.96875 
Q 13.28125 50.390625 12.890625 62.5 
L 44.140625 62.5 
L 44.140625 74.609375 
Q 44.140625 77.34375 43.359375 82.421875 
L 51.953125 82.421875 
Q 51.5625 78.515625 51.5625 75.390625 
L 71.09375 75.390625 
Q 76.171875 75.390625 84.765625 76.171875 
L 84.765625 69.53125 
Q 76.171875 69.921875 70.703125 69.921875 
L 51.171875 69.921875 
L 51.171875 62.5 
L 93.75 62.5 
Q 92.1875 57.8125 89.84375 46.875 
Q 85.15625 48.046875 82.03125 48.4375 
Q 83.984375 52.734375 85.15625 56.640625 
L 51.171875 56.640625 
L 51.171875 47.65625 
Q 65.234375 49.21875 74.21875 50.78125 
L 75 44.140625 
Q 64.0625 42.96875 51.171875 41.40625 
L 51.171875 36.71875 
Q 51.171875 33.203125 57.421875 33.203125 
L 70.3125 33.203125 
Q 75 32.8125 76.359375 34.5625 
Q 77.734375 36.328125 78.515625 41.015625 
Q 81.640625 39.0625 86.71875 37.109375 
Q 84.765625 30.859375 82.03125 29.09375 
Q 79.296875 27.34375 73.828125 27.34375 
L 54.296875 27.34375 
Q 44.140625 27.34375 44.140625 33.59375 
L 44.140625 41.015625 
Q 36.328125 40.234375 27.34375 39.0625 
Q 26.5625 42.578125 25.78125 45.703125 
z
M 71.09375 22.265625 
Q 70.703125 16.796875 70.703125 10.9375 
L 70.703125 2.34375 
Q 70.703125 -1.953125 75 -1.953125 
L 81.25 -1.953125 
Q 85.9375 -1.953125 86.71875 0.78125 
Q 87.5 3.515625 87.5 7.421875 
Q 91.40625 5.078125 96.09375 4.296875 
Q 93.359375 -3.90625 91.59375 -5.859375 
Q 89.84375 -7.8125 85.15625 -7.8125 
L 72.65625 -7.8125 
Q 63.671875 -7.8125 63.671875 -1.171875 
L 63.671875 16.40625 
L 45.3125 16.40625 
Q 45.3125 4.6875 41.203125 -0.578125 
Q 37.109375 -5.859375 26.171875 -10.546875 
Q 25 -6.640625 21.484375 -3.515625 
Q 35.9375 0.78125 37.109375 7.421875 
Q 38.28125 14.0625 37.890625 22.265625 
L 71.09375 22.265625 
z
" id="SimHei-864e"/>
    </defs>
    <g style="fill:#800080;" transform="translate(49.092792 257.912399)rotate(-333.778649)scale(0.12 -0.12)">
     <use xlink:href="#SimHei-63"/>
     <use x="50" xlink:href="#SimHei-6f"/>
     <use x="100" xlink:href="#SimHei-69"/>
     <use x="150" xlink:href="#SimHei-6e"/>
     <use x="200" xlink:href="#SimHei-73"/>
     <use x="250" xlink:href="#SimHei-20"/>
     <use x="300" xlink:href="#SimHei-6f"/>
     <use x="350" xlink:href="#SimHei-66"/>
     <use x="400" xlink:href="#SimHei-20"/>
     <use x="450" xlink:href="#SimHei-80d6"/>
     <use x="550" xlink:href="#SimHei-864e"/>
    </g>
   </g>
   <g id="Line3DCollection_2">
    <path d="M 227.548604 43.791556 
L 226.494241 188.318329 
L 65.235235 220.98614 
" style="fill:none;stroke:#b0b0b0;stroke-width:0.8;"/>
    <path d="M 241.688876 48.257402 
L 240.154088 193.993191 
L 78.043534 227.294534 
" style="fill:none;stroke:#b0b0b0;stroke-width:0.8;"/>
    <path d="M 256.106644 52.810887 
L 254.072998 199.775679 
L 91.108144 233.729167 
" style="fill:none;stroke:#b0b0b0;stroke-width:0.8;"/>
    <path d="M 270.810156 57.454617 
L 268.25841 205.668883 
L 104.436836 240.293868 
" style="fill:none;stroke:#b0b0b0;stroke-width:0.8;"/>
    <path d="M 285.807992 62.191302 
L 282.718053 211.676014 
L 118.0377 246.992619 
" style="fill:none;stroke:#b0b0b0;stroke-width:0.8;"/>
    <path d="M 301.10908 67.023762 
L 297.459956 217.800407 
L 131.919157 253.829569 
" style="fill:none;stroke:#b0b0b0;stroke-width:0.8;"/>
    <path d="M 316.722709 71.95493 
L 312.492466 224.045531 
L 146.089982 260.80904 
" style="fill:none;stroke:#b0b0b0;stroke-width:0.8;"/>
    <path d="M 332.658556 76.987861 
L 327.824262 230.41499 
L 160.559317 267.935534 
" style="fill:none;stroke:#b0b0b0;stroke-width:0.8;"/>
   </g>
   <g id="xtick_9">
    <g id="line2d_11">
     <path d="M 66.594479 220.710784 
L 62.513215 221.537566 
" style="fill:none;stroke:#000000;stroke-linecap:square;stroke-width:0.8;"/>
    </g>
    <g id="text_11">
     <!-- 0 -->
     <g transform="translate(50.195232 243.623733)scale(0.15 -0.15)">
      <use xlink:href="#SimHei-30"/>
     </g>
    </g>
   </g>
   <g id="xtick_10">
    <g id="line2d_12">
     <path d="M 79.410645 227.013697 
L 75.305726 227.856945 
" style="fill:none;stroke:#000000;stroke-linecap:square;stroke-width:0.8;"/>
    </g>
    <g id="text_12">
     <!-- 2 -->
     <g transform="translate(62.908596 250.062791)scale(0.15 -0.15)">
      <use xlink:href="#SimHei-32"/>
     </g>
    </g>
   </g>
   <g id="xtick_11">
    <g id="line2d_13">
     <path d="M 92.483165 233.442684 
L 88.354458 234.302894 
" style="fill:none;stroke:#000000;stroke-linecap:square;stroke-width:0.8;"/>
    </g>
    <g id="text_13">
     <!-- 4 -->
     <g transform="translate(75.876714 256.630876)scale(0.15 -0.15)">
      <use xlink:href="#SimHei-34"/>
     </g>
    </g>
   </g>
   <g id="xtick_12">
    <g id="line2d_14">
     <path d="M 105.81981 240.001565 
L 101.667187 240.879255 
" style="fill:none;stroke:#000000;stroke-linecap:square;stroke-width:0.8;"/>
    </g>
    <g id="text_14">
     <!-- 6 -->
     <g transform="translate(89.10732 263.331906)scale(0.15 -0.15)">
      <use xlink:href="#SimHei-36"/>
     </g>
    </g>
   </g>
   <g id="xtick_13">
    <g id="line2d_15">
     <path d="M 119.428666 246.694319 
L 115.252006 247.590026 
" style="fill:none;stroke:#000000;stroke-linecap:square;stroke-width:0.8;"/>
    </g>
    <g id="text_15">
     <!-- 8 -->
     <g transform="translate(102.608465 270.169958)scale(0.15 -0.15)">
      <use xlink:href="#SimHei-38"/>
     </g>
    </g>
   </g>
   <g id="xtick_14">
    <g id="line2d_16">
     <path d="M 133.318153 253.525084 
L 129.117343 254.439371 
" style="fill:none;stroke:#000000;stroke-linecap:square;stroke-width:0.8;"/>
    </g>
    <g id="text_16">
     <!-- 10 -->
     <g transform="translate(112.638533 277.14928)scale(0.15 -0.15)">
      <use xlink:href="#SimHei-31"/>
      <use x="50" xlink:href="#SimHei-30"/>
     </g>
    </g>
   </g>
   <g id="xtick_15">
    <g id="line2d_17">
     <path d="M 147.497042 260.498176 
L 143.271977 261.431625 
" style="fill:none;stroke:#000000;stroke-linecap:square;stroke-width:0.8;"/>
    </g>
    <g id="text_17">
     <!-- 12 -->
     <g transform="translate(126.706257 284.274293)scale(0.15 -0.15)">
      <use xlink:href="#SimHei-31"/>
      <use x="50" xlink:href="#SimHei-32"/>
     </g>
    </g>
   </g>
   <g id="xtick_16">
    <g id="line2d_18">
     <path d="M 161.974472 267.618089 
L 157.725058 268.57131 
" style="fill:none;stroke:#000000;stroke-linecap:square;stroke-width:0.8;"/>
    </g>
    <g id="text_18">
     <!-- 14 -->
     <g transform="translate(141.07074 291.549608)scale(0.15 -0.15)">
      <use xlink:href="#SimHei-31"/>
      <use x="50" xlink:href="#SimHei-34"/>
     </g>
    </g>
   </g>
  </g>
  <g id="axis3d_3">
   <g id="line2d_19">
    <path d="M 58.794045 217.8137 
L 53.895826 67.034254 
" style="fill:none;stroke:#000000;stroke-linecap:square;stroke-width:0.8;"/>
   </g>
   <g id="text_19">
    <!-- coins of 静香 -->
    <defs>
     <path d="M 67.578125 78.90625 
Q 65.625 76.5625 64.640625 74.40625 
Q 63.671875 72.265625 62.890625 70.3125 
L 84.375 70.3125 
Q 82.03125 66.796875 80.078125 62.296875 
Q 78.125 57.8125 75.78125 52.734375 
L 90.234375 52.734375 
Q 89.84375 47.265625 89.84375 41.015625 
L 89.84375 36.71875 
Q 93.359375 36.71875 96.875 37.109375 
L 96.875 30.46875 
Q 94.140625 30.859375 89.84375 30.859375 
L 89.84375 25.390625 
Q 89.84375 17.578125 90.234375 10.546875 
L 83.203125 10.546875 
L 83.203125 14.84375 
L 72.265625 14.84375 
L 72.265625 0.390625 
Q 71.875 -4.6875 68.9375 -6.640625 
Q 66.015625 -8.59375 56.25 -9.375 
Q 56.25 -5.46875 53.90625 -1.171875 
Q 58.984375 -1.5625 62.296875 -1.171875 
Q 65.625 -0.78125 65.625 2.734375 
L 65.625 14.84375 
L 60.15625 14.84375 
Q 55.46875 14.84375 50.390625 14.453125 
L 50.390625 20.703125 
Q 55.078125 20.3125 60.15625 20.3125 
L 65.625 20.3125 
L 65.625 30.859375 
L 59.765625 30.859375 
Q 54.6875 30.859375 48.046875 30.46875 
L 48.046875 36.71875 
Q 53.515625 36.328125 60.15625 36.328125 
L 65.625 36.328125 
L 65.625 47.265625 
L 60.15625 47.265625 
Q 57.8125 47.265625 51.953125 46.875 
L 51.953125 51.953125 
Q 50.78125 50.78125 48.828125 48.4375 
Q 46.875 51.5625 44.140625 53.90625 
Q 50.390625 60.15625 53.703125 68.15625 
Q 57.03125 76.171875 58.984375 82.03125 
Q 62.890625 80.078125 67.578125 78.90625 
z
M 42.96875 36.328125 
Q 42.578125 30.859375 42.578125 25 
L 42.578125 1.171875 
Q 42.578125 -4.6875 39.453125 -6.25 
Q 36.328125 -7.8125 30.078125 -8.984375 
Q 29.6875 -5.46875 27.34375 -1.5625 
Q 36.328125 -1.5625 35.546875 1.953125 
L 35.546875 6.640625 
L 15.234375 6.640625 
L 15.234375 -8.203125 
L 8.203125 -8.203125 
Q 8.59375 -3.90625 8.59375 1.953125 
L 8.59375 25 
Q 8.59375 30.859375 8.203125 36.328125 
L 42.96875 36.328125 
z
M 21.875 71.09375 
Q 21.875 74.609375 21.484375 80.46875 
L 29.296875 80.46875 
Q 28.90625 74.609375 28.90625 71.09375 
L 33.984375 71.09375 
Q 39.453125 71.09375 46.875 71.484375 
L 46.875 65.234375 
Q 39.453125 65.625 33.984375 65.625 
L 28.90625 65.625 
L 28.90625 59.375 
L 33.984375 59.375 
Q 36.328125 59.375 42.578125 59.765625 
L 42.578125 53.515625 
Q 35.9375 53.90625 33.59375 53.90625 
L 28.90625 53.90625 
L 28.90625 47.65625 
L 35.15625 47.65625 
Q 40.625 47.65625 46.484375 48.046875 
L 46.484375 41.796875 
Q 40.234375 42.1875 35.15625 42.1875 
L 15.625 42.1875 
Q 9.375 42.1875 3.90625 41.796875 
L 3.90625 48.046875 
Q 9.375 47.65625 15.625 47.65625 
L 21.875 47.65625 
L 21.875 53.90625 
L 15.234375 53.90625 
Q 12.890625 53.90625 8.59375 53.515625 
L 8.59375 59.765625 
Q 12.890625 59.375 15.234375 59.375 
L 21.875 59.375 
L 21.875 65.625 
L 15.234375 65.625 
Q 10.15625 65.625 4.6875 65.234375 
L 4.6875 71.484375 
Q 10.15625 71.09375 15.234375 71.09375 
z
M 52.734375 53.515625 
Q 57.421875 53.125 64.453125 53.125 
L 68.359375 53.125 
Q 72.265625 61.328125 73.4375 64.84375 
L 60.15625 64.84375 
Q 55.078125 56.640625 52.734375 53.515625 
z
M 35.546875 12.109375 
L 35.546875 19.140625 
L 15.234375 19.140625 
L 15.234375 12.109375 
z
M 35.546875 24.609375 
L 35.546875 30.859375 
L 15.234375 30.859375 
L 15.234375 24.609375 
z
M 83.203125 36.328125 
L 83.203125 47.265625 
L 72.265625 47.265625 
L 72.265625 36.328125 
z
M 83.203125 20.3125 
L 83.203125 30.859375 
L 72.265625 30.859375 
L 72.265625 20.3125 
z
" id="SimHei-9759"/>
     <path d="M 45.703125 33.59375 
L 45.703125 53.90625 
Q 36.71875 44.140625 26.359375 38.28125 
Q 16.015625 32.421875 10.546875 30.078125 
Q 10.546875 33.203125 5.46875 36.71875 
Q 16.015625 39.453125 24.21875 44.53125 
Q 32.421875 49.609375 37.109375 54.296875 
L 21.484375 54.296875 
Q 14.84375 54.296875 7.8125 53.90625 
L 7.8125 60.15625 
Q 14.84375 59.765625 21.484375 59.765625 
L 45.703125 59.765625 
L 45.703125 69.921875 
Q 38.28125 69.140625 17.96875 67.578125 
Q 16.796875 71.09375 14.453125 74.609375 
Q 32.8125 74.609375 50.390625 76.953125 
Q 67.96875 79.296875 74.609375 82.03125 
Q 76.953125 78.125 81.25 73.828125 
Q 74.609375 73.4375 67.96875 72.65625 
Q 61.328125 71.875 52.34375 70.703125 
L 52.34375 59.765625 
L 78.125 59.765625 
Q 83.984375 59.765625 91.40625 60.15625 
L 91.40625 53.90625 
Q 84.375 54.296875 78.125 54.296875 
L 61.71875 54.296875 
Q 66.40625 48.4375 74.21875 43.15625 
Q 82.03125 37.890625 94.140625 34.765625 
Q 89.84375 31.640625 88.28125 26.953125 
Q 82.421875 29.296875 77.34375 32.03125 
Q 76.5625 25 76.5625 12.5 
Q 76.5625 -0.78125 76.953125 -8.984375 
L 69.53125 -8.984375 
L 69.53125 -3.125 
L 28.515625 -3.125 
L 28.515625 -9.375 
L 21.875 -9.375 
L 21.875 11.71875 
Q 21.875 25 21.484375 33.59375 
z
M 69.53125 17.96875 
L 69.53125 27.734375 
L 28.515625 27.734375 
L 28.515625 17.96875 
z
M 69.53125 2.734375 
L 69.53125 12.5 
L 28.515625 12.5 
L 28.515625 2.734375 
z
M 71.484375 35.9375 
Q 62.109375 42.578125 52.734375 54.296875 
L 52.34375 54.296875 
L 52.34375 33.59375 
L 75 33.59375 
z
" id="SimHei-9999"/>
    </defs>
    <g style="fill:#800080;" transform="translate(10.565293 102.842551)rotate(-271.860655)scale(0.12 -0.12)">
     <use xlink:href="#SimHei-63"/>
     <use x="50" xlink:href="#SimHei-6f"/>
     <use x="100" xlink:href="#SimHei-69"/>
     <use x="150" xlink:href="#SimHei-6e"/>
     <use x="200" xlink:href="#SimHei-73"/>
     <use x="250" xlink:href="#SimHei-20"/>
     <use x="300" xlink:href="#SimHei-6f"/>
     <use x="350" xlink:href="#SimHei-66"/>
     <use x="400" xlink:href="#SimHei-20"/>
     <use x="450" xlink:href="#SimHei-9759"/>
     <use x="550" xlink:href="#SimHei-9999"/>
    </g>
   </g>
   <g id="Line3DCollection_3">
    <path d="M 58.492454 208.529967 
L 219.669895 176.585888 
L 336.085066 224.233899 
" style="fill:none;stroke:#b0b0b0;stroke-width:0.8;"/>
    <path d="M 57.897709 190.222231 
L 219.769111 159.08724 
L 336.710174 205.533478 
" style="fill:none;stroke:#b0b0b0;stroke-width:0.8;"/>
    <path d="M 57.297781 171.754931 
L 219.869148 141.443949 
L 337.340869 186.665935 
" style="fill:none;stroke:#b0b0b0;stroke-width:0.8;"/>
    <path d="M 56.692601 153.125973 
L 219.970014 123.654212 
L 337.977226 167.629019 
" style="fill:none;stroke:#b0b0b0;stroke-width:0.8;"/>
    <path d="M 56.0821 134.333224 
L 220.071722 105.716199 
L 338.619321 148.42044 
" style="fill:none;stroke:#b0b0b0;stroke-width:0.8;"/>
    <path d="M 55.466207 115.374514 
L 220.17428 87.628049 
L 339.267233 129.037865 
" style="fill:none;stroke:#b0b0b0;stroke-width:0.8;"/>
    <path d="M 54.844852 96.247636 
L 220.277701 69.387869 
L 339.92104 109.478918 
" style="fill:none;stroke:#b0b0b0;stroke-width:0.8;"/>
    <path d="M 54.21796 76.950341 
L 220.381995 50.993734 
L 340.580823 89.741182 
" style="fill:none;stroke:#b0b0b0;stroke-width:0.8;"/>
   </g>
   <g id="xtick_17">
    <g id="line2d_20">
     <path d="M 59.850818 208.26075 
L 55.772207 209.069099 
" style="fill:none;stroke:#000000;stroke-linecap:square;stroke-width:0.8;"/>
    </g>
    <g id="text_20">
     <!-- 0 -->
     <g transform="translate(36.319991 217.800274)scale(0.15 -0.15)">
      <use xlink:href="#SimHei-30"/>
     </g>
    </g>
   </g>
   <g id="xtick_18">
    <g id="line2d_21">
     <path d="M 59.262222 189.959775 
L 55.165133 190.747826 
" style="fill:none;stroke:#000000;stroke-linecap:square;stroke-width:0.8;"/>
    </g>
    <g id="text_21">
     <!-- 2 -->
     <g transform="translate(35.646444 199.518717)scale(0.15 -0.15)">
      <use xlink:href="#SimHei-32"/>
     </g>
    </g>
   </g>
   <g id="xtick_19">
    <g id="line2d_22">
     <path d="M 58.668498 171.499365 
L 54.552763 172.266732 
" style="fill:none;stroke:#000000;stroke-linecap:square;stroke-width:0.8;"/>
    </g>
    <g id="text_22">
     <!-- 4 -->
     <g transform="translate(34.967036 181.078092)scale(0.15 -0.15)">
      <use xlink:href="#SimHei-34"/>
     </g>
    </g>
   </g>
   <g id="xtick_20">
    <g id="line2d_23">
     <path d="M 58.069579 152.877427 
L 53.935029 153.623718 
" style="fill:none;stroke:#000000;stroke-linecap:square;stroke-width:0.8;"/>
    </g>
    <g id="text_23">
     <!-- 6 -->
     <g transform="translate(34.281691 162.476316)scale(0.15 -0.15)">
      <use xlink:href="#SimHei-36"/>
     </g>
    </g>
   </g>
   <g id="xtick_21">
    <g id="line2d_24">
     <path d="M 57.465397 134.091831 
L 53.311858 134.816645 
" style="fill:none;stroke:#000000;stroke-linecap:square;stroke-width:0.8;"/>
    </g>
    <g id="text_24">
     <!-- 8 -->
     <g transform="translate(33.590331 143.711265)scale(0.15 -0.15)">
      <use xlink:href="#SimHei-38"/>
     </g>
    </g>
   </g>
   <g id="xtick_22">
    <g id="line2d_25">
     <path d="M 56.855881 115.140412 
L 52.683179 115.843338 
" style="fill:none;stroke:#000000;stroke-linecap:square;stroke-width:0.8;"/>
    </g>
    <g id="text_25">
     <!-- 10 -->
     <g transform="translate(29.142875 124.780781)scale(0.15 -0.15)">
      <use xlink:href="#SimHei-31"/>
      <use x="50" xlink:href="#SimHei-30"/>
     </g>
    </g>
   </g>
   <g id="xtick_23">
    <g id="line2d_26">
     <path d="M 56.240962 96.020962 
L 52.048919 96.701585 
" style="fill:none;stroke:#000000;stroke-linecap:square;stroke-width:0.8;"/>
    </g>
    <g id="text_26">
     <!-- 12 -->
     <g transform="translate(28.439244 105.682667)scale(0.15 -0.15)">
      <use xlink:href="#SimHei-31"/>
      <use x="50" xlink:href="#SimHei-32"/>
     </g>
    </g>
   </g>
   <g id="xtick_24">
    <g id="line2d_27">
     <path d="M 55.620566 76.731239 
L 51.409002 77.389131 
" style="fill:none;stroke:#000000;stroke-linecap:square;stroke-width:0.8;"/>
    </g>
    <g id="text_27">
     <!-- 14 -->
     <g transform="translate(27.729354 86.414686)scale(0.15 -0.15)">
      <use xlink:href="#SimHei-31"/>
      <use x="50" xlink:href="#SimHei-34"/>
     </g>
    </g>
   </g>
  </g>
  <g id="axes_1">
   <g id="Path3DCollection_1">
    <defs>
     <path d="M 0 5 
C 1.326016 5 2.597899 4.473168 3.535534 3.535534 
C 4.473168 2.597899 5 1.326016 5 0 
C 5 -1.326016 4.473168 -2.597899 3.535534 -3.535534 
C 2.597899 -4.473168 1.326016 -5 0 -5 
C -1.326016 -5 -2.597899 -4.473168 -3.535534 -3.535534 
C -4.473168 -2.597899 -5 -1.326016 -5 0 
C -5 1.326016 -4.473168 2.597899 -3.535534 3.535534 
C -2.597899 4.473168 -1.326016 5 0 5 
z
" id="m746c0c5433" style="stroke:#008000;"/>
    </defs>
    <g clip-path="url(#p3ffe8b4230)">
     <use style="fill:#008000;stroke:#008000;" x="239.496011" xlink:href="#m746c0c5433" y="138.443106"/>
    </g>
   </g>
   <g id="Path3DCollection_2">
    <path clip-path="url(#p3ffe8b4230)" d="M 224.398551 57.936152 
C 224.608212 57.936152 224.809315 57.852853 224.957568 57.7046 
C 225.105821 57.556347 225.18912 57.355244 225.18912 57.145583 
C 225.18912 56.935922 225.105821 56.734819 224.957568 56.586566 
C 224.809315 56.438313 224.608212 56.355014 224.398551 56.355014 
C 224.188889 56.355014 223.987787 56.438313 223.839534 56.586566 
C 223.691281 56.734819 223.607981 56.935922 223.607981 57.145583 
C 223.607981 57.355244 223.691281 57.556347 223.839534 57.7046 
C 223.987787 57.852853 224.188889 57.936152 224.398551 57.936152 
z
" style="fill:#ff0000;stroke:#ff0000;"/>
    <path clip-path="url(#p3ffe8b4230)" d="M 231.385035 70.225243 
C 231.760089 70.225243 232.119832 70.076232 232.385035 69.811029 
C 232.650238 69.545826 232.799248 69.186083 232.799248 68.811029 
C 232.799248 68.435975 232.650238 68.076232 232.385035 67.811029 
C 232.119832 67.545826 231.760089 67.396815 231.385035 67.396815 
C 231.009981 67.396815 230.650238 67.545826 230.385035 67.811029 
C 230.119832 68.076232 229.970821 68.435975 229.970821 68.811029 
C 229.970821 69.186083 230.119832 69.545826 230.385035 69.811029 
C 230.650238 70.076232 231.009981 70.225243 231.385035 70.225243 
z
" style="fill:#ff0000;stroke:#ff0000;"/>
    <path clip-path="url(#p3ffe8b4230)" d="M 238.409492 83.064755 
C 239.079097 83.064755 239.721366 82.798718 240.194849 82.325236 
C 240.668331 81.851754 240.934368 81.209484 240.934368 80.539879 
C 240.934368 79.870274 240.668331 79.228004 240.194849 78.754522 
C 239.721366 78.28104 239.079097 78.015003 238.409492 78.015003 
C 237.739887 78.015003 237.097617 78.28104 236.624134 78.754522 
C 236.150652 79.228004 235.884615 79.870274 235.884615 80.539879 
C 235.884615 81.209484 236.150652 81.851754 236.624134 82.325236 
C 237.097617 82.798718 237.739887 83.064755 238.409492 83.064755 
z
" style="fill:#ff0000;stroke:#ff0000;"/>
    <path clip-path="url(#p3ffe8b4230)" d="M 245.472232 96.205634 
C 246.499359 96.205634 247.484556 95.797552 248.210844 95.071264 
C 248.937133 94.344975 249.345215 93.359778 249.345215 92.332651 
C 249.345215 91.305524 248.937133 90.320327 248.210844 89.594038 
C 247.484556 88.86775 246.499359 88.459668 245.472232 88.459668 
C 244.445104 88.459668 243.459907 88.86775 242.733619 89.594038 
C 242.00733 90.320327 241.599248 91.305524 241.599248 92.332651 
C 241.599248 93.359778 242.00733 94.344975 242.733619 95.071264 
C 243.459907 95.797552 244.445104 96.205634 245.472232 96.205634 
z
" style="fill:#ff0000;stroke:#ff0000;"/>
    <path clip-path="url(#p3ffe8b4230)" d="M 252.573569 109.421981 
C 253.961141 109.421981 255.292069 108.870693 256.273231 107.889531 
C 257.254393 106.908369 257.805681 105.577442 257.805681 104.189869 
C 257.805681 102.802297 257.254393 101.471369 256.273231 100.490207 
C 255.292069 99.509045 253.961141 98.957757 252.573569 98.957757 
C 251.185996 98.957757 249.855068 99.509045 248.873907 100.490207 
C 247.892745 101.471369 247.341456 102.802297 247.341456 104.189869 
C 247.341456 105.577442 247.892745 106.908369 248.873907 107.889531 
C 249.855068 108.870693 251.185996 109.421981 252.573569 109.421981 
z
" style="fill:#ff0000;stroke:#ff0000;"/>
    <path clip-path="url(#p3ffe8b4230)" d="M 259.71382 123.323166 
C 261.626227 123.323166 263.460564 122.563358 264.81284 121.211083 
C 266.165115 119.858807 266.924923 118.02447 266.924923 116.112063 
C 266.924923 114.199656 266.165115 112.365319 264.81284 111.013044 
C 263.460564 109.660768 261.626227 108.900961 259.71382 108.900961 
C 257.801413 108.900961 255.967076 109.660768 254.614801 111.013044 
C 253.262525 112.365319 252.502718 114.199656 252.502718 116.112063 
C 252.502718 118.02447 253.262525 119.858807 254.614801 121.211083 
C 255.967076 122.563358 257.801413 123.323166 259.71382 123.323166 
z
" style="fill:#ff0000;stroke:#ff0000;"/>
    <path clip-path="url(#p3ffe8b4230)" d="M 266.893307 136.246854 
C 269.053939 136.246854 271.126368 135.388426 272.654166 133.860628 
C 274.181964 132.33283 275.040392 130.260401 275.040392 128.099769 
C 275.040392 125.939136 274.181964 123.866707 272.654166 122.338909 
C 271.126368 120.811112 269.053939 119.952683 266.893307 119.952683 
C 264.732674 119.952683 262.660245 120.811112 261.132447 122.338909 
C 259.60465 123.866707 258.746221 125.939136 258.746221 128.099769 
C 258.746221 130.260401 259.60465 132.33283 261.132447 133.860628 
C 262.660245 135.388426 264.732674 136.246854 266.893307 136.246854 
z
" style="fill:#ff0000;stroke:#ff0000;"/>
    <path clip-path="url(#p3ffe8b4230)" d="M 274.112353 146.990924 
C 275.925652 146.990924 277.664927 146.270493 278.947123 144.988297 
C 280.229319 143.706101 280.94975 141.966826 280.94975 140.153527 
C 280.94975 138.340228 280.229319 136.600953 278.947123 135.318757 
C 277.664927 134.036561 275.925652 133.31613 274.112353 133.31613 
C 272.299054 133.31613 270.559779 134.036561 269.277583 135.318757 
C 267.995387 136.600953 267.274955 138.340228 267.274955 140.153527 
C 267.274955 141.966826 267.995387 143.706101 269.277583 144.988297 
C 270.559779 146.270493 272.299054 146.990924 274.112353 146.990924 
z
" style="fill:#ff0000;stroke:#ff0000;"/>
    <path clip-path="url(#p3ffe8b4230)" d="M 281.371286 157.223633 
C 282.683974 157.223633 283.943075 156.702097 284.871286 155.773886 
C 285.799497 154.845675 286.321033 153.586574 286.321033 152.273886 
C 286.321033 150.961198 285.799497 149.702097 284.871286 148.773886 
C 283.943075 147.845675 282.683974 147.324139 281.371286 147.324139 
C 280.058597 147.324139 278.799497 147.845675 277.871286 148.773886 
C 276.943075 149.702097 276.421538 150.961198 276.421538 152.273886 
C 276.421538 153.586574 276.943075 154.845675 277.871286 155.773886 
C 278.799497 156.702097 280.058597 157.223633 281.371286 157.223633 
z
" style="fill:#ff0000;stroke:#ff0000;"/>
    <path clip-path="url(#p3ffe8b4230)" d="M 288.670438 168.084243 
C 289.631227 168.084243 290.552795 167.702517 291.232175 167.023136 
C 291.911556 166.343756 292.293282 165.422188 292.293282 164.461399 
C 292.293282 163.500609 291.911556 162.579042 291.232175 161.899661 
C 290.552795 161.22028 289.631227 160.838554 288.670438 160.838554 
C 287.709648 160.838554 286.788081 161.22028 286.1087 161.899661 
C 285.429319 162.579042 285.047593 163.500609 285.047593 164.461399 
C 285.047593 165.422188 285.429319 166.343756 286.1087 167.023136 
C 286.788081 167.702517 287.709648 168.084243 288.670438 168.084243 
z
" style="fill:#ff0000;stroke:#ff0000;"/>
    <path clip-path="url(#p3ffe8b4230)" d="M 296.010143 179.455238 
C 296.736432 179.455238 297.433072 179.16668 297.946635 178.653117 
C 298.460199 178.139553 298.748756 177.442913 298.748756 176.716625 
C 298.748756 175.990336 298.460199 175.293697 297.946635 174.780133 
C 297.433072 174.26657 296.736432 173.978012 296.010143 173.978012 
C 295.283855 173.978012 294.587215 174.26657 294.073652 174.780133 
C 293.560088 175.293697 293.271531 175.990336 293.271531 176.716625 
C 293.271531 177.442913 293.560088 178.139553 294.073652 178.653117 
C 294.587215 179.16668 295.283855 179.455238 296.010143 179.455238 
z
" style="fill:#ff0000;stroke:#ff0000;"/>
    <path clip-path="url(#p3ffe8b4230)" d="M 303.390742 191.07114 
C 303.929372 191.07114 304.446014 190.85714 304.826883 190.476271 
C 305.207752 190.095402 305.421752 189.578761 305.421752 189.04013 
C 305.421752 188.5015 305.207752 187.984859 304.826883 187.60399 
C 304.446014 187.223121 303.929372 187.009121 303.390742 187.009121 
C 302.852112 187.009121 302.33547 187.223121 301.954601 187.60399 
C 301.573732 187.984859 301.359732 188.5015 301.359732 189.04013 
C 301.359732 189.578761 301.573732 190.095402 301.954601 190.476271 
C 302.33547 190.85714 302.852112 191.07114 303.390742 191.07114 
z
" style="fill:#ff0000;stroke:#ff0000;"/>
    <path clip-path="url(#p3ffe8b4230)" d="M 310.812576 202.223057 
C 311.022238 202.223057 311.22334 202.139758 311.371593 201.991505 
C 311.519846 201.843252 311.603146 201.642149 311.603146 201.432488 
C 311.603146 201.222826 311.519846 201.021724 311.371593 200.873471 
C 311.22334 200.725218 311.022238 200.641918 310.812576 200.641918 
C 310.602915 200.641918 310.401812 200.725218 310.253559 200.873471 
C 310.105306 201.021724 310.022007 201.222826 310.022007 201.432488 
C 310.022007 201.642149 310.105306 201.843252 310.253559 201.991505 
C 310.401812 202.139758 310.602915 202.223057 310.812576 202.223057 
z
" style="fill:#ff0000;stroke:#ff0000;"/>
    <path clip-path="url(#p3ffe8b4230)" d="M 318.275992 214.760301 
C 318.505665 214.760301 318.725962 214.669051 318.888365 214.506648 
C 319.050768 214.344245 319.142018 214.123948 319.142018 213.894275 
C 319.142018 213.664603 319.050768 213.444306 318.888365 213.281903 
C 318.725962 213.1195 318.505665 213.02825 318.275992 213.02825 
C 318.04632 213.02825 317.826023 213.1195 317.66362 213.281903 
C 317.501217 213.444306 317.409967 213.664603 317.409967 213.894275 
C 317.409967 214.123948 317.501217 214.344245 317.66362 214.506648 
C 317.826023 214.669051 318.04632 214.760301 318.275992 214.760301 
z
" style="fill:#ff0000;stroke:#ff0000;"/>
    <path clip-path="url(#p3ffe8b4230)" d="M 207.466343 57.043077 
C 207.628746 57.043077 207.784519 56.978554 207.899356 56.863718 
C 208.014192 56.748881 208.078715 56.593108 208.078715 56.430705 
C 208.078715 56.268302 208.014192 56.112528 207.899356 55.997692 
C 207.784519 55.882856 207.628746 55.818332 207.466343 55.818332 
C 207.30394 55.818332 207.148167 55.882856 207.03333 55.997692 
C 206.918494 56.112528 206.85397 56.268302 206.85397 56.430705 
C 206.85397 56.593108 206.918494 56.748881 207.03333 56.863718 
C 207.148167 56.978554 207.30394 57.043077 207.466343 57.043077 
z
" style="fill:#ff0000;stroke:#ff0000;"/>
    <path clip-path="url(#p3ffe8b4230)" d="M 197.459219 68.844266 
C 197.857023 68.844266 198.238589 68.686216 198.519879 68.404926 
C 198.801169 68.123636 198.959219 67.742071 198.959219 67.344266 
C 198.959219 66.946461 198.801169 66.564896 198.519879 66.283606 
C 198.238589 66.002315 197.857023 65.844266 197.459219 65.844266 
C 197.061414 65.844266 196.679849 66.002315 196.398559 66.283606 
C 196.117268 66.564896 195.959219 66.946461 195.959219 67.344266 
C 195.959219 67.742071 196.117268 68.123636 196.398559 68.404926 
C 196.679849 68.686216 197.061414 68.844266 197.459219 68.844266 
z
" style="fill:#ff0000;stroke:#ff0000;"/>
    <path clip-path="url(#p3ffe8b4230)" d="M 187.428275 80.154632 
C 187.924425 80.154632 188.40032 79.95751 188.751151 79.606679 
C 189.101982 79.255849 189.299104 78.779953 189.299104 78.283804 
C 189.299104 77.787654 189.101982 77.311759 188.751151 76.960928 
C 188.40032 76.610097 187.924425 76.412975 187.428275 76.412975 
C 186.932126 76.412975 186.45623 76.610097 186.1054 76.960928 
C 185.754569 77.311759 185.557447 77.787654 185.557447 78.283804 
C 185.557447 78.779953 185.754569 79.255849 186.1054 79.606679 
C 186.45623 79.95751 186.932126 80.154632 187.428275 80.154632 
z
" style="fill:#ff0000;stroke:#ff0000;"/>
    <path clip-path="url(#p3ffe8b4230)" d="M 177.373428 91.673251 
C 178.016238 91.673251 178.632806 91.41786 179.087341 90.963325 
C 179.541877 90.50879 179.797268 89.892221 179.797268 89.249411 
C 179.797268 88.606601 179.541877 87.990033 179.087341 87.535498 
C 178.632806 87.080962 178.016238 86.825571 177.373428 86.825571 
C 176.730618 86.825571 176.114049 87.080962 175.659514 87.535498 
C 175.204979 87.990033 174.949588 88.606601 174.949588 89.249411 
C 174.949588 89.892221 175.204979 90.50879 175.659514 90.963325 
C 176.114049 91.41786 176.730618 91.673251 177.373428 91.673251 
z
" style="fill:#ff0000;stroke:#ff0000;"/>
    <path clip-path="url(#p3ffe8b4230)" d="M 167.29459 103.303044 
C 168.106605 103.303044 168.885472 102.980427 169.459654 102.406245 
C 170.033835 101.832063 170.356452 101.053197 170.356452 100.241182 
C 170.356452 99.429166 170.033835 98.6503 169.459654 98.076118 
C 168.885472 97.501936 168.106605 97.179319 167.29459 97.179319 
C 166.482575 97.179319 165.703708 97.501936 165.129526 98.076118 
C 164.555345 98.6503 164.232728 99.429166 164.232728 100.241182 
C 164.232728 101.053197 164.555345 101.832063 165.129526 102.406245 
C 165.703708 102.980427 166.482575 103.303044 167.29459 103.303044 
z
" style="fill:#ff0000;stroke:#ff0000;"/>
    <path clip-path="url(#p3ffe8b4230)" d="M 157.191676 114.381708 
C 158.019773 114.381708 158.814064 114.052701 159.399617 113.467149 
C 159.985169 112.881596 160.314175 112.087305 160.314175 111.259209 
C 160.314175 110.431112 159.985169 109.636821 159.399617 109.051268 
C 158.814064 108.465716 158.019773 108.13671 157.191676 108.13671 
C 156.36358 108.13671 155.569289 108.465716 154.983736 109.051268 
C 154.398184 109.636821 154.069177 110.431112 154.069177 111.259209 
C 154.069177 112.087305 154.398184 112.881596 154.983736 113.467149 
C 155.569289 114.052701 156.36358 114.381708 157.191676 114.381708 
z
" style="fill:#ff0000;stroke:#ff0000;"/>
    <path clip-path="url(#p3ffe8b4230)" d="M 147.064601 125.042199 
C 147.790889 125.042199 148.487529 124.753642 149.001092 124.240078 
C 149.514656 123.726514 149.803213 123.029875 149.803213 122.303586 
C 149.803213 121.577298 149.514656 120.880658 149.001092 120.367095 
C 148.487529 119.853531 147.790889 119.564974 147.064601 119.564974 
C 146.338312 119.564974 145.641673 119.853531 145.128109 120.367095 
C 144.614545 120.880658 144.325988 121.577298 144.325988 122.303586 
C 144.325988 123.029875 144.614545 123.726514 145.128109 124.240078 
C 145.641673 124.753642 146.338312 125.042199 147.064601 125.042199 
z
" style="fill:#ff0000;stroke:#ff0000;"/>
    <path clip-path="url(#p3ffe8b4230)" d="M 136.913276 136.224848 
C 137.669221 136.224848 138.394306 135.924508 138.92884 135.389974 
C 139.463374 134.85544 139.763714 134.130355 139.763714 133.37441 
C 139.763714 132.618465 139.463374 131.893379 138.92884 131.358845 
C 138.394306 130.824311 137.669221 130.523971 136.913276 130.523971 
C 136.157331 130.523971 135.432245 130.824311 134.897711 131.358845 
C 134.363177 131.893379 134.062837 132.618465 134.062837 133.37441 
C 134.062837 134.130355 134.363177 134.85544 134.897711 135.389974 
C 135.432245 135.924508 136.157331 136.224848 136.913276 136.224848 
z
" style="fill:#ff0000;stroke:#ff0000;"/>
    <path clip-path="url(#p3ffe8b4230)" d="M 126.737615 146.73562 
C 127.337994 146.73562 127.913864 146.497087 128.338396 146.072555 
C 128.762928 145.648023 129.001461 145.072153 129.001461 144.471774 
C 129.001461 143.871395 128.762928 143.295525 128.338396 142.870993 
C 127.913864 142.446461 127.337994 142.207927 126.737615 142.207927 
C 126.137236 142.207927 125.561366 142.446461 125.136834 142.870993 
C 124.712302 143.295525 124.473768 143.871395 124.473768 144.471774 
C 124.473768 145.072153 124.712302 145.648023 125.136834 146.072555 
C 125.561366 146.497087 126.137236 146.73562 126.737615 146.73562 
z
" style="fill:#ff0000;stroke:#ff0000;"/>
    <path clip-path="url(#p3ffe8b4230)" d="M 116.53753 157.803714 
C 117.123082 157.803714 117.684731 157.571071 118.098779 157.157023 
C 118.512827 156.742975 118.74547 156.181326 118.74547 155.595774 
C 118.74547 155.010221 118.512827 154.448572 118.098779 154.034524 
C 117.684731 153.620476 117.123082 153.387834 116.53753 153.387834 
C 115.951977 153.387834 115.390328 153.620476 114.97628 154.034524 
C 114.562232 154.448572 114.32959 155.010221 114.32959 155.595774 
C 114.32959 156.181326 114.562232 156.742975 114.97628 157.157023 
C 115.390328 157.571071 115.951977 157.803714 116.53753 157.803714 
z
" style="fill:#ff0000;stroke:#ff0000;"/>
    <path clip-path="url(#p3ffe8b4230)" d="M 106.312933 168.021261 
C 106.651002 168.021261 106.97527 167.886945 107.214321 167.647894 
C 107.453372 167.408843 107.587688 167.084575 107.587688 166.746506 
C 107.587688 166.408437 107.453372 166.084169 107.214321 165.845118 
C 106.97527 165.606067 106.651002 165.471751 106.312933 165.471751 
C 105.974864 165.471751 105.650596 165.606067 105.411545 165.845118 
C 105.172494 166.084169 105.038178 166.408437 105.038178 166.746506 
C 105.038178 167.084575 105.172494 167.408843 105.411545 167.647894 
C 105.650596 167.886945 105.974864 168.021261 106.312933 168.021261 
z
" style="fill:#ff0000;stroke:#ff0000;"/>
    <path clip-path="url(#p3ffe8b4230)" d="M 96.063736 178.790092 
C 96.293408 178.790092 96.513705 178.698842 96.676108 178.536439 
C 96.838511 178.374036 96.929761 178.15374 96.929761 177.924067 
C 96.929761 177.694394 96.838511 177.474098 96.676108 177.311694 
C 96.513705 177.149291 96.293408 177.058042 96.063736 177.058042 
C 95.834063 177.058042 95.613766 177.149291 95.451363 177.311694 
C 95.28896 177.474098 95.19771 177.694394 95.19771 177.924067 
C 95.19771 178.15374 95.28896 178.374036 95.451363 178.536439 
C 95.613766 178.698842 95.834063 178.790092 96.063736 178.790092 
z
" style="fill:#ff0000;stroke:#ff0000;"/>
    <path clip-path="url(#p3ffe8b4230)" d="M 85.789849 189.994579 
C 86.019522 189.994579 86.239819 189.903329 86.402222 189.740926 
C 86.564625 189.578523 86.655875 189.358226 86.655875 189.128553 
C 86.655875 188.898881 86.564625 188.678584 86.402222 188.516181 
C 86.239819 188.353778 86.019522 188.262528 85.789849 188.262528 
C 85.560177 188.262528 85.33988 188.353778 85.177477 188.516181 
C 85.015074 188.678584 84.923824 188.898881 84.923824 189.128553 
C 84.923824 189.358226 85.015074 189.578523 85.177477 189.740926 
C 85.33988 189.903329 85.560177 189.994579 85.789849 189.994579 
z
" style="fill:#ff0000;stroke:#ff0000;"/>
    <path clip-path="url(#p3ffe8b4230)" d="M 75.491184 201.06717 
C 75.678711 201.06717 75.858583 200.992664 75.991184 200.860063 
C 76.123786 200.727461 76.198291 200.54759 76.198291 200.360063 
C 76.198291 200.172536 76.123786 199.992664 75.991184 199.860063 
C 75.858583 199.727461 75.678711 199.652956 75.491184 199.652956 
C 75.303657 199.652956 75.123786 199.727461 74.991184 199.860063 
C 74.858583 199.992664 74.784077 200.172536 74.784077 200.360063 
C 74.784077 200.54759 74.858583 200.727461 74.991184 200.860063 
C 75.123786 200.992664 75.303657 201.06717 75.491184 201.06717 
z
" style="fill:#ff0000;stroke:#ff0000;"/>
    <path clip-path="url(#p3ffe8b4230)" d="M 308.024995 225.917209 
C 308.157596 225.917209 308.284785 225.864526 308.378548 225.770763 
C 308.472312 225.676999 308.524995 225.549811 308.524995 225.417209 
C 308.524995 225.284608 308.472312 225.157419 308.378548 225.063656 
C 308.284785 224.969892 308.157596 224.917209 308.024995 224.917209 
C 307.892393 224.917209 307.765205 224.969892 307.671441 225.063656 
C 307.577678 225.157419 307.524995 225.284608 307.524995 225.417209 
C 307.524995 225.549811 307.577678 225.676999 307.671441 225.770763 
C 307.765205 225.864526 307.892393 225.917209 308.024995 225.917209 
z
" style="fill:#ff0000;stroke:#ff0000;"/>
    <path clip-path="url(#p3ffe8b4230)" d="M 290.324347 225.472165 
C 290.605638 225.472165 290.875445 225.360407 291.074347 225.161505 
C 291.273249 224.962603 291.385007 224.692795 291.385007 224.411505 
C 291.385007 224.130215 291.273249 223.860407 291.074347 223.661505 
C 290.875445 223.462603 290.605638 223.350845 290.324347 223.350845 
C 290.043057 223.350845 289.773249 223.462603 289.574347 223.661505 
C 289.375445 223.860407 289.263687 224.130215 289.263687 224.411505 
C 289.263687 224.692795 289.375445 224.962603 289.574347 225.161505 
C 289.773249 225.360407 290.043057 225.472165 290.324347 225.472165 
z
" style="fill:#ff0000;stroke:#ff0000;"/>
    <path clip-path="url(#p3ffe8b4230)" d="M 272.679137 225.067263 
C 273.118926 225.067263 273.540762 224.892533 273.851741 224.581554 
C 274.162719 224.270576 274.337449 223.84874 274.337449 223.40895 
C 274.337449 222.969161 274.162719 222.547325 273.851741 222.236347 
C 273.540762 221.925368 273.118926 221.750638 272.679137 221.750638 
C 272.239347 221.750638 271.817511 221.925368 271.506533 222.236347 
C 271.195554 222.547325 271.020824 222.969161 271.020824 223.40895 
C 271.020824 223.84874 271.195554 224.270576 271.506533 224.581554 
C 271.817511 224.892533 272.239347 225.067263 272.679137 225.067263 
z
" style="fill:#ff0000;stroke:#ff0000;"/>
    <path clip-path="url(#p3ffe8b4230)" d="M 255.089103 224.501181 
C 255.643815 224.501181 256.175882 224.280792 256.568123 223.888551 
C 256.960364 223.49631 257.180753 222.964243 257.180753 222.409531 
C 257.180753 221.854819 256.960364 221.322752 256.568123 220.930511 
C 256.175882 220.53827 255.643815 220.317881 255.089103 220.317881 
C 254.534391 220.317881 254.002324 220.53827 253.610083 220.930511 
C 253.217842 221.322752 252.997453 221.854819 252.997453 222.409531 
C 252.997453 222.964243 253.217842 223.49631 253.610083 223.888551 
C 254.002324 224.280792 254.534391 224.501181 255.089103 224.501181 
z
" style="fill:#ff0000;stroke:#ff0000;"/>
    <path clip-path="url(#p3ffe8b4230)" d="M 237.553988 224.371272 
C 238.33847 224.371272 239.090926 224.059594 239.645638 223.504882 
C 240.20035 222.95017 240.512028 222.197713 240.512028 221.413232 
C 240.512028 220.62875 240.20035 219.876294 239.645638 219.321582 
C 239.090926 218.76687 238.33847 218.455192 237.553988 218.455192 
C 236.769507 218.455192 236.01705 218.76687 235.462338 219.321582 
C 234.907626 219.876294 234.595948 220.62875 234.595948 221.413232 
C 234.595948 222.197713 234.907626 222.95017 235.462338 223.504882 
C 236.01705 224.059594 236.769507 224.371272 237.553988 224.371272 
z
" style="fill:#ff0000;stroke:#ff0000;"/>
    <path clip-path="url(#p3ffe8b4230)" d="M 220.073535 222.969548 
C 220.749673 222.969548 221.398209 222.700916 221.876311 222.222814 
C 222.354413 221.744712 222.623045 221.096176 222.623045 220.420038 
C 222.623045 219.743901 222.354413 219.095364 221.876311 218.617263 
C 221.398209 218.139161 220.749673 217.870529 220.073535 217.870529 
C 219.397397 217.870529 218.748861 218.139161 218.27076 218.617263 
C 217.792658 219.095364 217.524025 219.743901 217.524025 220.420038 
C 217.524025 221.096176 217.792658 221.744712 218.27076 222.222814 
C 218.748861 222.700916 219.397397 222.969548 220.073535 222.969548 
z
" style="fill:#ff0000;stroke:#ff0000;"/>
    <path clip-path="url(#p3ffe8b4230)" d="M 202.647489 221.693783 
C 203.247868 221.693783 203.823738 221.455249 204.24827 221.030717 
C 204.672802 220.606185 204.911335 220.030315 204.911335 219.429936 
C 204.911335 218.829557 204.672802 218.253687 204.24827 217.829155 
C 203.823738 217.404623 203.247868 217.16609 202.647489 217.16609 
C 202.04711 217.16609 201.47124 217.404623 201.046708 217.829155 
C 200.622176 218.253687 200.383642 218.829557 200.383642 219.429936 
C 200.383642 220.030315 200.622176 220.606185 201.046708 221.030717 
C 201.47124 221.455249 202.04711 221.693783 202.647489 221.693783 
z
" style="fill:#ff0000;stroke:#ff0000;"/>
    <path clip-path="url(#p3ffe8b4230)" d="M 185.275595 220.992421 
C 185.951733 220.992421 186.600269 220.723788 187.078371 220.245687 
C 187.556473 219.767585 187.825105 219.119049 187.825105 218.442911 
C 187.825105 217.766773 187.556473 217.118237 187.078371 216.640135 
C 186.600269 216.162034 185.951733 215.893401 185.275595 215.893401 
C 184.599458 215.893401 183.950921 216.162034 183.47282 216.640135 
C 182.994718 217.118237 182.726086 217.766773 182.726086 218.442911 
C 182.726086 219.119049 182.994718 219.767585 183.47282 220.245687 
C 183.950921 220.723788 184.599458 220.992421 185.275595 220.992421 
z
" style="fill:#ff0000;stroke:#ff0000;"/>
    <path clip-path="url(#p3ffe8b4230)" d="M 167.957603 219.777353 
C 168.572451 219.777353 169.162199 219.533071 169.596963 219.098308 
C 170.031726 218.663545 170.276008 218.073796 170.276008 217.458948 
C 170.276008 216.8441 170.031726 216.254352 169.596963 215.819589 
C 169.162199 215.384825 168.572451 215.140544 167.957603 215.140544 
C 167.342755 215.140544 166.753007 215.384825 166.318243 215.819589 
C 165.88348 216.254352 165.639198 216.8441 165.639198 217.458948 
C 165.639198 218.073796 165.88348 218.663545 166.318243 219.098308 
C 166.753007 219.533071 167.342755 219.777353 167.957603 219.777353 
z
" style="fill:#ff0000;stroke:#ff0000;"/>
    <path clip-path="url(#p3ffe8b4230)" d="M 150.693261 218.315151 
C 151.18047 218.315151 151.64779 218.121581 151.992299 217.777072 
C 152.336808 217.432563 152.530379 216.965243 152.530379 216.478034 
C 152.530379 215.990824 152.336808 215.523504 151.992299 215.178996 
C 151.64779 214.834487 151.18047 214.640916 150.693261 214.640916 
C 150.206052 214.640916 149.738732 214.834487 149.394223 215.178996 
C 149.049714 215.523504 148.856144 215.990824 148.856144 216.478034 
C 148.856144 216.965243 149.049714 217.432563 149.394223 217.777072 
C 149.738732 218.121581 150.206052 218.315151 150.693261 218.315151 
z
" style="fill:#ff0000;stroke:#ff0000;"/>
    <path clip-path="url(#p3ffe8b4230)" d="M 133.482321 216.618187 
C 133.778827 216.618187 134.063229 216.500384 134.27289 216.290723 
C 134.482552 216.081061 134.600355 215.796659 134.600355 215.500153 
C 134.600355 215.203647 134.482552 214.919245 134.27289 214.709584 
C 134.063229 214.499922 133.778827 214.382119 133.482321 214.382119 
C 133.185815 214.382119 132.901413 214.499922 132.691752 214.709584 
C 132.48209 214.919245 132.364287 215.203647 132.364287 215.500153 
C 132.364287 215.796659 132.48209 216.081061 132.691752 216.290723 
C 132.901413 216.500384 133.185815 216.618187 133.482321 216.618187 
z
" style="fill:#ff0000;stroke:#ff0000;"/>
    <path clip-path="url(#p3ffe8b4230)" d="M 116.324535 215.697897 
C 116.635513 215.697897 116.933796 215.574344 117.153691 215.354449 
C 117.373586 215.134554 117.497139 214.836271 117.497139 214.525293 
C 117.497139 214.214315 117.373586 213.916032 117.153691 213.696137 
C 116.933796 213.476242 116.635513 213.352689 116.324535 213.352689 
C 116.013557 213.352689 115.715274 213.476242 115.495379 213.696137 
C 115.275484 213.916032 115.151931 214.214315 115.151931 214.525293 
C 115.151931 214.836271 115.275484 215.134554 115.495379 215.354449 
C 115.715274 215.574344 116.013557 215.697897 116.324535 215.697897 
z
" style="fill:#ff0000;stroke:#ff0000;"/>
    <path clip-path="url(#p3ffe8b4230)" d="M 99.219657 214.419464 
C 99.44933 214.419464 99.669627 214.328214 99.83203 214.165811 
C 99.994433 214.003408 100.085683 213.783111 100.085683 213.553439 
C 100.085683 213.323766 99.994433 213.103469 99.83203 212.941066 
C 99.669627 212.778663 99.44933 212.687413 99.219657 212.687413 
C 98.989985 212.687413 98.769688 212.778663 98.607285 212.941066 
C 98.444882 213.103469 98.353632 213.323766 98.353632 213.553439 
C 98.353632 213.783111 98.444882 214.003408 98.607285 214.165811 
C 98.769688 214.328214 98.989985 214.419464 99.219657 214.419464 
z
" style="fill:#ff0000;stroke:#ff0000;"/>
    <path clip-path="url(#p3ffe8b4230)" d="M 82.167443 212.584577 
C 82.167443 212.584577 82.167443 212.584577 82.167443 212.584577 
C 82.167443 212.584577 82.167443 212.584577 82.167443 212.584577 
C 82.167443 212.584577 82.167443 212.584577 82.167443 212.584577 
C 82.167443 212.584577 82.167443 212.584577 82.167443 212.584577 
C 82.167443 212.584577 82.167443 212.584577 82.167443 212.584577 
C 82.167443 212.584577 82.167443 212.584577 82.167443 212.584577 
C 82.167443 212.584577 82.167443 212.584577 82.167443 212.584577 
C 82.167443 212.584577 82.167443 212.584577 82.167443 212.584577 
z
" style="fill:#ff0000;stroke:#ff0000;"/>
   </g>
   <g id="legend_1">
    <g id="patch_6">
     <path d="M 21.2 291.2 
L 294.2 291.2 
Q 297.2 291.2 297.2 288.2 
L 297.2 249.95 
Q 297.2 246.95 294.2 246.95 
L 21.2 246.95 
Q 18.2 246.95 18.2 249.95 
L 18.2 288.2 
Q 18.2 291.2 21.2 291.2 
z
" style="fill:#ffffff;opacity:0.8;stroke:#cccccc;stroke-linejoin:miter;"/>
    </g>
    <g id="Path3DCollection_3">
     <defs>
      <path d="M 0 5.760859 
C 1.527798 5.760859 2.993227 5.153859 4.073543 4.073543 
C 5.153859 2.993227 5.760859 1.527798 5.760859 0 
C 5.760859 -1.527798 5.153859 -2.993227 4.073543 -4.073543 
C 2.993227 -5.153859 1.527798 -5.760859 0 -5.760859 
C -1.527798 -5.760859 -2.993227 -5.153859 -4.073543 -4.073543 
C -5.153859 -2.993227 -5.760859 -1.527798 -5.760859 0 
C -5.760859 1.527798 -5.153859 2.993227 -4.073543 4.073543 
C -2.993227 5.153859 -1.527798 5.760859 0 5.760859 
z
" id="m9abf9c35cb" style="stroke:#ff0000;"/>
     </defs>
     <g>
      <use style="fill:#ff0000;stroke:#ff0000;" x="39.2" xlink:href="#m9abf9c35cb" y="259.5125"/>
     </g>
    </g>
    <g id="text_28">
     <!-- probability of absorbing state -->
     <defs>
      <path d="M 44.140625 23.828125 
Q 44.140625 12.5 38.671875 6.640625 
Q 33.203125 0.78125 25.390625 0.78125 
Q 21.09375 0.78125 17.96875 2.53125 
Q 14.84375 4.296875 12.5 7.8125 
L 12.5 -12.5 
L 4.6875 -12.5 
L 4.6875 45.703125 
L 12.5 45.703125 
L 12.5 39.84375 
Q 14.84375 43.359375 17.96875 44.921875 
Q 21.09375 46.484375 25.390625 46.484375 
Q 33.203125 46.484375 38.671875 40.8125 
Q 44.140625 35.15625 44.140625 23.828125 
z
M 35.546875 23.828125 
Q 35.546875 31.25 32.609375 35.34375 
Q 29.6875 39.453125 23.828125 39.453125 
Q 19.140625 39.453125 15.8125 35.34375 
Q 12.5 31.25 12.5 23.828125 
Q 12.5 16.40625 15.8125 12.109375 
Q 19.140625 7.8125 23.828125 7.8125 
Q 29.6875 7.8125 32.609375 12.109375 
Q 35.546875 16.40625 35.546875 23.828125 
z
" id="SimHei-70"/>
      <path d="M 39.0625 37.890625 
Q 31.640625 39.0625 26.5625 35.734375 
Q 21.484375 32.421875 17.96875 24.21875 
L 17.96875 1.953125 
L 10.15625 1.953125 
L 10.15625 45.703125 
L 17.96875 45.703125 
L 17.96875 34.375 
Q 21.484375 40.625 26.75 43.546875 
Q 32.03125 46.484375 39.0625 46.484375 
z
" id="SimHei-72"/>
      <path d="M 44.140625 23.828125 
Q 44.140625 12.5 38.671875 6.828125 
Q 33.203125 1.171875 25.390625 1.171875 
Q 21.09375 1.171875 17.96875 2.734375 
Q 14.84375 4.296875 12.5 7.8125 
L 12.5 1.953125 
L 4.6875 1.953125 
L 4.6875 68.75 
L 12.5 68.75 
L 12.5 39.84375 
Q 14.84375 43.359375 17.96875 45.109375 
Q 21.09375 46.875 25.390625 46.875 
Q 33.203125 46.875 38.671875 41.015625 
Q 44.140625 35.15625 44.140625 23.828125 
z
M 35.546875 23.828125 
Q 35.546875 31.25 32.609375 35.546875 
Q 29.6875 39.84375 23.828125 39.84375 
Q 19.140625 39.84375 15.8125 35.546875 
Q 12.5 31.25 12.5 23.828125 
Q 12.5 16.40625 15.8125 12.296875 
Q 19.140625 8.203125 23.828125 8.203125 
Q 29.6875 8.203125 32.609375 12.296875 
Q 35.546875 16.40625 35.546875 23.828125 
z
" id="SimHei-62"/>
      <path d="M 44.921875 1.953125 
L 35.546875 1.953125 
Q 34.765625 2.734375 34.375 4.09375 
Q 33.984375 5.46875 33.984375 7.421875 
Q 31.25 4.296875 27.34375 2.734375 
Q 23.4375 1.171875 19.140625 1.171875 
Q 12.890625 1.171875 8.59375 4.296875 
Q 4.296875 7.421875 4.296875 13.28125 
Q 4.296875 19.140625 8.203125 22.65625 
Q 12.109375 26.171875 20.3125 27.34375 
Q 25.78125 28.125 29.875 29.296875 
Q 33.984375 30.46875 33.984375 32.421875 
Q 33.984375 34.765625 32.21875 37.109375 
Q 30.46875 39.453125 24.609375 39.453125 
Q 19.921875 39.453125 17.765625 37.6875 
Q 15.625 35.9375 14.84375 32.8125 
L 6.25 32.8125 
Q 7.03125 39.0625 11.90625 42.765625 
Q 16.796875 46.484375 24.609375 46.484375 
Q 33.203125 46.484375 37.5 42.578125 
Q 41.796875 38.671875 41.796875 31.640625 
L 41.796875 10.15625 
Q 41.796875 7.8125 42.578125 5.859375 
Q 43.359375 3.90625 44.921875 1.953125 
z
M 33.984375 16.40625 
L 33.984375 24.21875 
Q 31.640625 23.4375 29.484375 22.84375 
Q 27.34375 22.265625 22.265625 21.484375 
Q 16.40625 20.703125 14.640625 18.75 
Q 12.890625 16.796875 12.890625 14.0625 
Q 12.890625 11.71875 14.640625 9.953125 
Q 16.40625 8.203125 19.921875 8.203125 
Q 23.4375 8.203125 27.53125 10.15625 
Q 31.640625 12.109375 33.984375 16.40625 
z
" id="SimHei-61"/>
      <path d="M 28.515625 1.953125 
L 20.703125 1.953125 
L 20.703125 68.75 
L 28.515625 68.75 
z
" id="SimHei-6c"/>
      <path d="M 42.96875 3.125 
Q 41.015625 2.34375 38.46875 1.75 
Q 35.9375 1.171875 31.640625 1.171875 
Q 24.609375 1.171875 20.3125 5.078125 
Q 16.015625 8.984375 16.015625 16.015625 
L 16.015625 39.453125 
L 2.734375 39.453125 
L 2.734375 45.703125 
L 16.015625 45.703125 
L 16.015625 60.9375 
L 23.828125 60.9375 
L 23.828125 45.703125 
L 39.84375 45.703125 
L 39.84375 39.453125 
L 23.828125 39.453125 
L 23.828125 15.625 
Q 23.828125 12.5 25.390625 10.34375 
Q 26.953125 8.203125 31.25 8.203125 
Q 35.546875 8.203125 38.28125 8.984375 
Q 41.015625 9.765625 42.96875 10.9375 
z
" id="SimHei-74"/>
      <path d="M 45.3125 45.703125 
L 27.34375 -1.5625 
Q 25.78125 -7.03125 22.65625 -9.765625 
Q 19.53125 -12.5 14.84375 -12.5 
Q 12.890625 -12.5 11.125 -12.296875 
Q 9.375 -12.109375 7.8125 -11.328125 
L 7.8125 -3.515625 
Q 9.375 -4.296875 10.9375 -4.6875 
Q 12.5 -5.078125 13.671875 -5.078125 
Q 16.796875 -5.078125 17.96875 -4.09375 
Q 19.140625 -3.125 20.3125 0.390625 
L 3.125 45.703125 
L 11.71875 45.703125 
L 24.21875 11.328125 
L 24.609375 11.328125 
L 36.71875 45.703125 
z
" id="SimHei-79"/>
      <path d="M 46.484375 39.0625 
Q 43.75 39.84375 41.203125 40.03125 
Q 38.671875 40.234375 35.9375 39.453125 
Q 37.109375 38.28125 37.890625 36.515625 
Q 38.671875 34.765625 38.671875 31.25 
Q 38.671875 24.609375 34.171875 20.3125 
Q 29.6875 16.015625 23.046875 16.015625 
Q 21.484375 16.015625 18.9375 16.59375 
Q 16.40625 17.1875 14.84375 17.96875 
Q 13.671875 17.1875 13.28125 16.40625 
Q 12.890625 15.625 12.890625 14.453125 
Q 12.890625 12.5 15.625 11.515625 
Q 18.359375 10.546875 25.390625 10.546875 
Q 36.71875 10.546875 40.8125 7.421875 
Q 44.921875 4.296875 44.921875 -0.390625 
Q 44.921875 -6.640625 38.859375 -9.5625 
Q 32.8125 -12.5 24.609375 -12.5 
Q 14.0625 -12.5 8.984375 -9.765625 
Q 3.90625 -7.03125 3.90625 -2.34375 
Q 3.90625 0 5.859375 2.34375 
Q 7.8125 4.6875 10.9375 6.25 
Q 8.59375 7.421875 7.21875 9.171875 
Q 5.859375 10.9375 5.859375 13.671875 
Q 5.859375 16.015625 7.609375 17.765625 
Q 9.375 19.53125 11.71875 20.703125 
Q 9.765625 22.65625 8.59375 25.390625 
Q 7.421875 28.125 7.421875 31.25 
Q 7.421875 37.890625 11.90625 42.1875 
Q 16.40625 46.484375 23.046875 46.484375 
Q 26.5625 46.484375 29.09375 45.5 
Q 31.640625 44.53125 33.59375 42.578125 
Q 36.71875 44.921875 39.84375 45.890625 
Q 42.96875 46.875 46.484375 46.484375 
z
M 30.859375 31.25 
Q 30.859375 35.15625 28.90625 37.5 
Q 26.953125 39.84375 23.046875 39.84375 
Q 19.140625 39.84375 17.1875 37.5 
Q 15.234375 35.15625 15.234375 31.25 
Q 15.234375 27.34375 17.1875 25 
Q 19.140625 22.65625 23.046875 22.65625 
Q 26.953125 22.65625 28.90625 25 
Q 30.859375 27.34375 30.859375 31.25 
z
M 37.5 -1.171875 
Q 37.5 0.390625 35.734375 1.953125 
Q 33.984375 3.515625 26.953125 3.515625 
Q 25.390625 3.515625 22.65625 3.703125 
Q 19.921875 3.90625 16.40625 4.296875 
Q 13.28125 3.125 12.109375 1.5625 
Q 10.9375 0 10.9375 -1.5625 
Q 10.9375 -3.90625 14.0625 -5.46875 
Q 17.1875 -7.03125 25 -7.03125 
Q 31.640625 -7.03125 34.5625 -5.265625 
Q 37.5 -3.515625 37.5 -1.171875 
z
" id="SimHei-67"/>
      <path d="M 44.53125 16.796875 
Q 43.75 9.765625 38.28125 5.46875 
Q 32.8125 1.171875 25.390625 1.171875 
Q 16.015625 1.171875 9.953125 7.21875 
Q 3.90625 13.28125 3.90625 23.828125 
Q 3.90625 34.375 9.953125 40.421875 
Q 16.015625 46.484375 25.390625 46.484375 
Q 33.59375 46.484375 38.859375 41.203125 
Q 44.140625 35.9375 44.140625 23.828125 
L 12.5 23.828125 
Q 12.5 15.234375 16.203125 11.71875 
Q 19.921875 8.203125 25.390625 8.203125 
Q 29.6875 8.203125 32.421875 10.34375 
Q 35.15625 12.5 35.9375 16.796875 
z
M 35.15625 30.078125 
Q 34.375 35.546875 31.640625 37.6875 
Q 28.90625 39.84375 24.609375 39.84375 
Q 20.703125 39.84375 17.578125 37.6875 
Q 14.453125 35.546875 12.890625 30.078125 
z
" id="SimHei-65"/>
     </defs>
     <g transform="translate(66.2 263.45)scale(0.15 -0.15)">
      <use xlink:href="#SimHei-70"/>
      <use x="50" xlink:href="#SimHei-72"/>
      <use x="100" xlink:href="#SimHei-6f"/>
      <use x="150" xlink:href="#SimHei-62"/>
      <use x="200" xlink:href="#SimHei-61"/>
      <use x="250" xlink:href="#SimHei-62"/>
      <use x="300" xlink:href="#SimHei-69"/>
      <use x="350" xlink:href="#SimHei-6c"/>
      <use x="400" xlink:href="#SimHei-69"/>
      <use x="450" xlink:href="#SimHei-74"/>
      <use x="500" xlink:href="#SimHei-79"/>
      <use x="550" xlink:href="#SimHei-20"/>
      <use x="600" xlink:href="#SimHei-6f"/>
      <use x="650" xlink:href="#SimHei-66"/>
      <use x="700" xlink:href="#SimHei-20"/>
      <use x="750" xlink:href="#SimHei-61"/>
      <use x="800" xlink:href="#SimHei-62"/>
      <use x="850" xlink:href="#SimHei-73"/>
      <use x="900" xlink:href="#SimHei-6f"/>
      <use x="950" xlink:href="#SimHei-72"/>
      <use x="1000" xlink:href="#SimHei-62"/>
      <use x="1050" xlink:href="#SimHei-69"/>
      <use x="1100" xlink:href="#SimHei-6e"/>
      <use x="1150" xlink:href="#SimHei-67"/>
      <use x="1200" xlink:href="#SimHei-20"/>
      <use x="1250" xlink:href="#SimHei-73"/>
      <use x="1300" xlink:href="#SimHei-74"/>
      <use x="1350" xlink:href="#SimHei-61"/>
      <use x="1400" xlink:href="#SimHei-74"/>
      <use x="1450" xlink:href="#SimHei-65"/>
     </g>
    </g>
    <g id="Path3DCollection_4">
     <g>
      <use style="fill:#008000;stroke:#008000;" x="39.2" xlink:href="#m746c0c5433" y="279.3875"/>
     </g>
    </g>
    <g id="text_29">
     <!-- start state -->
     <g transform="translate(66.2 283.325)scale(0.15 -0.15)">
      <use xlink:href="#SimHei-73"/>
      <use x="50" xlink:href="#SimHei-74"/>
      <use x="100" xlink:href="#SimHei-61"/>
      <use x="150" xlink:href="#SimHei-72"/>
      <use x="200" xlink:href="#SimHei-74"/>
      <use x="250" xlink:href="#SimHei-20"/>
      <use x="300" xlink:href="#SimHei-73"/>
      <use x="350" xlink:href="#SimHei-74"/>
      <use x="400" xlink:href="#SimHei-61"/>
      <use x="450" xlink:href="#SimHei-74"/>
      <use x="500" xlink:href="#SimHei-65"/>
     </g>
    </g>
   </g>
  </g>
 </g>
 <defs>
  <clipPath id="p3ffe8b4230">
   <rect height="288" width="360" x="10.7" y="10.7"/>
  </clipPath>
 </defs>
</svg>
