<?xml version="1.0" encoding="utf-8" standalone="no"?>
<!DOCTYPE svg PUBLIC "-//W3C//DTD SVG 1.1//EN"
  "http://www.w3.org/Graphics/SVG/1.1/DTD/svg11.dtd">
<!-- Created with matplotlib (http://matplotlib.org/) -->
<svg height="309.4pt" version="1.1" viewBox="0 0 381.4 309.4" width="381.4pt" xmlns="http://www.w3.org/2000/svg" xmlns:xlink="http://www.w3.org/1999/xlink">
 <defs>
  <style type="text/css">
*{stroke-linecap:butt;stroke-linejoin:round;}
  </style>
 </defs>
 <g id="figure_1">
  <g id="patch_1">
   <path d="M 0 309.4 
L 381.4 309.4 
L 381.4 0 
L 0 0 
z
" style="fill:none;"/>
  </g>
  <g id="patch_2">
   <path d="M 10.7 298.7 
L 370.7 298.7 
L 370.7 10.7 
L 10.7 10.7 
z
" style="fill:#ffffff;"/>
  </g>
  <g id="pane3d_1">
   <g id="patch_3">
    <path d="M 219.619567 185.462306 
L 335.768129 233.715199 
L 340.919918 79.597002 
L 220.435568 41.545085 
" style="fill:#f2f2f2;opacity:0.5;stroke:#f2f2f2;stroke-linejoin:miter;"/>
   </g>
  </g>
  <g id="pane3d_2">
   <g id="patch_4">
    <path d="M 219.619567 185.462306 
L 58.794045 217.8137 
L 53.895826 67.034254 
L 220.435568 41.545085 
" style="fill:#e6e6e6;opacity:0.5;stroke:#e6e6e6;stroke-linejoin:miter;"/>
   </g>
  </g>
  <g id="pane3d_3">
   <g id="patch_5">
    <path d="M 219.619567 185.462306 
L 58.794045 217.8137 
L 168.062833 271.631196 
L 335.768129 233.715199 
" style="fill:#ececec;opacity:0.5;stroke:#ececec;stroke-linejoin:miter;"/>
   </g>
  </g>
  <g id="axis3d_1">
   <g id="line2d_1">
    <path d="M 335.768129 233.715199 
L 168.062833 271.631196 
" style="fill:none;stroke:#000000;stroke-linecap:square;stroke-width:0.8;"/>
   </g>
   <g id="text_1">
    <!-- coins of 大熊 -->
    <defs>
     <path d="M 44.53125 19.53125 
Q 44.53125 11.328125 38.859375 6.25 
Q 33.203125 1.171875 24.609375 1.171875 
Q 16.015625 1.171875 9.765625 7.21875 
Q 3.515625 13.28125 3.515625 23.828125 
Q 3.515625 34.375 9.765625 40.421875 
Q 16.015625 46.484375 24.609375 46.484375 
Q 33.203125 46.484375 38.28125 41.984375 
Q 43.359375 37.5 43.359375 31.25 
L 34.765625 31.25 
Q 34.375 35.9375 31.4375 37.6875 
Q 28.515625 39.453125 24.609375 39.453125 
Q 19.921875 39.453125 16.015625 35.734375 
Q 12.109375 32.03125 12.109375 23.828125 
Q 12.109375 15.625 16.015625 11.90625 
Q 19.921875 8.203125 24.609375 8.203125 
Q 29.6875 8.203125 32.8125 10.9375 
Q 35.9375 13.671875 35.9375 19.53125 
z
" id="SimHei-63"/>
     <path d="M 45.703125 23.828125 
Q 45.703125 13.671875 39.453125 7.421875 
Q 33.203125 1.171875 24.609375 1.171875 
Q 16.015625 1.171875 9.765625 7.421875 
Q 3.515625 13.671875 3.515625 23.828125 
Q 3.515625 33.984375 9.765625 40.234375 
Q 16.015625 46.484375 24.609375 46.484375 
Q 33.203125 46.484375 39.453125 40.234375 
Q 45.703125 33.984375 45.703125 23.828125 
z
M 37.109375 23.828125 
Q 37.109375 31.640625 33.203125 35.546875 
Q 29.296875 39.453125 24.609375 39.453125 
Q 19.921875 39.453125 16.015625 35.546875 
Q 12.109375 31.640625 12.109375 23.828125 
Q 12.109375 16.015625 16.015625 12.109375 
Q 19.921875 8.203125 24.609375 8.203125 
Q 29.296875 8.203125 33.203125 12.109375 
Q 37.109375 16.015625 37.109375 23.828125 
z
" id="SimHei-6f"/>
     <path d="M 28.125 58.203125 
L 20.3125 58.203125 
L 20.3125 68.359375 
L 28.125 68.359375 
z
M 28.125 1.953125 
L 20.3125 1.953125 
L 20.3125 45.703125 
L 28.125 45.703125 
z
" id="SimHei-69"/>
     <path d="M 43.75 1.953125 
L 35.9375 1.953125 
L 35.9375 30.078125 
Q 35.9375 34.765625 33.59375 37.5 
Q 31.25 40.234375 27.34375 40.234375 
Q 22.265625 40.234375 17.765625 34.953125 
Q 13.28125 29.6875 13.28125 21.875 
L 13.28125 1.953125 
L 5.46875 1.953125 
L 5.46875 45.703125 
L 13.28125 45.703125 
L 13.28125 37.5 
Q 16.40625 41.796875 20.109375 44.140625 
Q 23.828125 46.484375 29.6875 46.484375 
Q 36.71875 46.484375 40.234375 42.578125 
Q 43.75 38.671875 43.75 32.8125 
z
" id="SimHei-6e"/>
     <path d="M 42.96875 14.0625 
Q 42.96875 7.8125 38.078125 4.484375 
Q 33.203125 1.171875 25.78125 1.171875 
Q 16.40625 1.171875 11.328125 4.875 
Q 6.25 8.59375 6.25 15.625 
L 14.0625 15.625 
Q 14.0625 10.9375 17.375 9.375 
Q 20.703125 7.8125 25.390625 7.8125 
Q 30.078125 7.8125 32.421875 9.5625 
Q 34.765625 11.328125 34.765625 14.0625 
Q 34.765625 16.015625 32.8125 17.96875 
Q 30.859375 19.921875 23.046875 21.09375 
Q 14.0625 22.265625 10.734375 25.578125 
Q 7.421875 28.90625 7.421875 34.375 
Q 7.421875 39.0625 11.90625 42.765625 
Q 16.40625 46.484375 25 46.484375 
Q 32.8125 46.484375 37.296875 42.96875 
Q 41.796875 39.453125 41.796875 33.59375 
L 33.984375 33.59375 
Q 33.984375 37.109375 31.4375 38.46875 
Q 28.90625 39.84375 25 39.84375 
Q 19.921875 39.84375 17.765625 38.078125 
Q 15.625 36.328125 15.625 33.984375 
Q 15.625 31.25 17.578125 29.6875 
Q 19.53125 28.125 25.78125 27.34375 
Q 35.9375 25.78125 39.453125 22.453125 
Q 42.96875 19.140625 42.96875 14.0625 
z
" id="SimHei-73"/>
     <path id="SimHei-20"/>
     <path d="M 44.53125 59.765625 
Q 42.578125 60.9375 39.84375 61.71875 
Q 37.109375 62.5 32.8125 62.5 
Q 28.515625 62.5 26.953125 60.34375 
Q 25.390625 58.203125 25.390625 55.078125 
L 25.390625 45.703125 
L 41.40625 45.703125 
L 41.40625 39.453125 
L 25.390625 39.453125 
L 25.390625 1.953125 
L 17.578125 1.953125 
L 17.578125 39.453125 
L 4.296875 39.453125 
L 4.296875 45.703125 
L 17.578125 45.703125 
L 17.578125 54.6875 
Q 17.578125 61.71875 21.875 65.625 
Q 26.171875 69.53125 33.203125 69.53125 
Q 37.5 69.53125 40.03125 68.9375 
Q 42.578125 68.359375 44.53125 67.578125 
z
" id="SimHei-66"/>
     <path d="M 45.3125 53.125 
Q 45.703125 66.796875 45.5 71.484375 
Q 45.3125 76.171875 44.921875 80.46875 
Q 49.609375 79.6875 55.46875 79.296875 
Q 54.296875 75.390625 53.703125 67.96875 
Q 53.125 60.546875 53.125 53.125 
L 73.046875 53.125 
Q 83.59375 53.125 92.578125 53.90625 
L 92.578125 45.3125 
Q 84.765625 45.703125 76.5625 45.703125 
L 53.515625 45.703125 
Q 55.078125 39.0625 58.984375 32.21875 
Q 62.890625 25.390625 66.984375 20.109375 
Q 71.09375 14.84375 78.3125 8.984375 
Q 85.546875 3.125 94.140625 -0.78125 
Q 91.015625 -3.125 87.890625 -8.59375 
Q 80.859375 -4.6875 74.015625 1.171875 
Q 67.1875 7.03125 60.34375 16.59375 
Q 53.515625 26.171875 50 34.375 
Q 46.875 25.78125 43.359375 20.109375 
Q 39.84375 14.453125 35.734375 9.765625 
Q 31.640625 5.078125 25.1875 0.390625 
Q 18.75 -4.296875 10.546875 -8.984375 
Q 7.421875 -4.296875 3.515625 -0.78125 
Q 11.71875 1.953125 19.71875 7.03125 
Q 27.734375 12.109375 32.8125 18.546875 
Q 37.890625 25 41.015625 32.03125 
Q 44.140625 39.0625 44.921875 45.703125 
L 23.4375 45.703125 
Q 14.0625 45.703125 8.59375 45.3125 
L 8.59375 53.90625 
Q 14.0625 53.515625 23.4375 53.125 
z
" id="SimHei-5927"/>
     <path d="M 49.609375 52.34375 
Q 49.21875 46.484375 49.21875 40.625 
L 49.21875 19.53125 
Q 49.21875 15.234375 46.484375 13.859375 
Q 43.75 12.5 34.765625 11.328125 
Q 33.59375 14.84375 31.640625 18.359375 
Q 38.671875 18.75 40.421875 18.9375 
Q 42.1875 19.140625 41.796875 23.4375 
L 18.359375 23.4375 
L 18.359375 12.5 
L 10.15625 12.5 
Q 10.546875 25 10.546875 33.59375 
Q 10.546875 42.1875 10.15625 52.34375 
L 49.609375 52.34375 
z
M 65.625 45.3125 
Q 65.234375 41.015625 65.234375 34.375 
Q 81.640625 38.671875 88.28125 43.359375 
Q 90.234375 39.453125 93.359375 36.71875 
Q 85.9375 34.765625 65.625 28.125 
L 65.625 23.046875 
Q 65.625 19.53125 70.703125 19.53125 
L 80.46875 19.53125 
Q 83.59375 19.53125 85.15625 20.890625 
Q 86.71875 22.265625 88.28125 28.125 
Q 92.1875 26.171875 96.875 25.390625 
Q 93.359375 17.1875 91.40625 15.234375 
Q 89.453125 13.28125 83.984375 13.28125 
L 65.234375 13.28125 
Q 57.03125 13.28125 57.03125 19.53125 
L 57.03125 37.5 
Q 57.03125 40.625 56.640625 45.3125 
L 65.625 45.3125 
z
M 92.578125 69.140625 
Q 78.515625 65.234375 64.84375 61.328125 
Q 64.84375 54.6875 68.359375 54.6875 
L 80.46875 54.6875 
Q 83.203125 54.6875 84.765625 56.4375 
Q 86.328125 58.203125 86.71875 62.5 
Q 90.234375 60.9375 94.921875 59.765625 
Q 92.96875 51.5625 90.421875 50.1875 
Q 87.890625 48.828125 82.8125 48.828125 
L 64.84375 48.828125 
Q 57.03125 48.828125 57.03125 54.296875 
L 57.03125 71.09375 
Q 57.03125 75.78125 56.640625 80.46875 
L 65.625 80.46875 
Q 65.234375 75.390625 65.234375 67.1875 
Q 78.515625 70.3125 86.328125 76.171875 
Q 88.671875 72.65625 92.578125 69.140625 
z
M 32.03125 78.125 
Q 24.609375 71.484375 16.40625 62.890625 
Q 22.65625 63.28125 40.625 65.234375 
Q 38.671875 67.578125 35.546875 70.703125 
Q 39.0625 72.265625 42.96875 74.21875 
Q 51.171875 63.28125 55.078125 58.59375 
Q 51.171875 57.03125 48.046875 54.6875 
L 44.53125 59.765625 
Q 42.578125 59.375 33.203125 58.59375 
Q 23.828125 57.8125 9.375 55.859375 
Q 7.421875 59.375 6.25 62.890625 
Q 10.15625 64.84375 14.640625 69.53125 
Q 19.140625 74.21875 23.4375 82.03125 
Q 27.734375 79.6875 32.03125 78.125 
z
M 41.796875 28.90625 
L 41.796875 35.546875 
L 18.359375 35.546875 
L 18.359375 28.90625 
z
M 20.3125 6.640625 
Q 17.1875 3.125 11.71875 -9.765625 
Q 6.640625 -7.8125 3.90625 -7.03125 
Q 6.640625 -1.5625 11.71875 8.984375 
Q 15.625 7.8125 20.3125 6.640625 
z
M 85.9375 10.15625 
Q 92.578125 -1.953125 94.140625 -5.46875 
Q 89.84375 -6.640625 86.328125 -8.59375 
Q 83.984375 -2.34375 78.515625 7.03125 
Q 81.25 8.203125 85.9375 10.15625 
z
M 41.796875 41.015625 
L 41.796875 46.875 
L 18.359375 46.875 
L 18.359375 41.015625 
z
M 62.890625 8.59375 
Q 65.625 -1.953125 66.40625 -5.859375 
L 58.59375 -7.421875 
Q 57.421875 -3.90625 55.46875 7.421875 
Q 58.59375 8.203125 62.890625 8.59375 
z
M 39.84375 7.421875 
Q 40.234375 3.90625 42.578125 -6.640625 
Q 38.671875 -6.640625 34.375 -7.8125 
Q 33.59375 -3.125 32.03125 6.640625 
Q 35.15625 7.421875 39.84375 7.421875 
z
" id="SimHei-718a"/>
    </defs>
    <g style="fill:#ff0000;" transform="translate(225.772789 298.698192)rotate(-12.739652)scale(0.15 -0.15)">
     <use xlink:href="#SimHei-63"/>
     <use x="50" xlink:href="#SimHei-6f"/>
     <use x="100" xlink:href="#SimHei-69"/>
     <use x="150" xlink:href="#SimHei-6e"/>
     <use x="200" xlink:href="#SimHei-73"/>
     <use x="250" xlink:href="#SimHei-20"/>
     <use x="300" xlink:href="#SimHei-6f"/>
     <use x="350" xlink:href="#SimHei-66"/>
     <use x="400" xlink:href="#SimHei-20"/>
     <use x="450" xlink:href="#SimHei-5927"/>
     <use x="550" xlink:href="#SimHei-718a"/>
    </g>
   </g>
   <g id="Line3DCollection_1">
    <path d="M 313.399664 238.77242 
L 198.088151 189.79353 
L 198.174385 44.952194 
" style="fill:none;stroke:#b0b0b0;stroke-width:0.8;"/>
    <path d="M 289.927361 244.079203 
L 175.520956 194.333109 
L 174.830635 48.524992 
" style="fill:none;stroke:#b0b0b0;stroke-width:0.8;"/>
    <path d="M 266.07136 249.472737 
L 152.612878 198.94126 
L 151.122032 52.15363 
" style="fill:none;stroke:#b0b0b0;stroke-width:0.8;"/>
    <path d="M 241.822172 254.955164 
L 129.356134 203.619547 
L 127.039955 55.83943 
" style="fill:none;stroke:#b0b0b0;stroke-width:0.8;"/>
    <path d="M 217.169998 260.528701 
L 105.742703 208.369586 
L 102.575509 59.583752 
" style="fill:none;stroke:#b0b0b0;stroke-width:0.8;"/>
    <path d="M 192.104707 266.195639 
L 81.764315 213.193038 
L 77.719515 63.388001 
" style="fill:none;stroke:#b0b0b0;stroke-width:0.8;"/>
   </g>
   <g id="xtick_1">
    <g id="line2d_2">
     <path d="M 312.403208 238.349172 
L 315.396448 239.62056 
" style="fill:none;stroke:#000000;stroke-linecap:square;stroke-width:0.8;"/>
    </g>
    <g id="text_2">
     <!-- 2 -->
     <defs>
      <path d="M 4.6875 3.90625 
Q 5.078125 9.765625 10.15625 14.453125 
Q 15.234375 19.140625 23.046875 29.09375 
Q 30.859375 39.0625 33.203125 44.53125 
Q 35.546875 50 34.953125 53.90625 
Q 34.375 57.8125 31.25 60.34375 
Q 28.125 62.890625 24.015625 62.5 
Q 19.921875 62.109375 16.203125 59.375 
Q 12.5 56.640625 10.546875 51.171875 
L 3.125 52.34375 
Q 6.25 61.328125 11.125 65.421875 
Q 16.015625 69.53125 22.65625 69.921875 
Q 26.5625 70.3125 29.6875 69.71875 
Q 32.8125 69.140625 36.125 66.984375 
Q 39.453125 64.84375 41.59375 60.546875 
Q 43.75 56.25 43.15625 50.1875 
Q 42.578125 44.140625 37.109375 35.734375 
Q 31.640625 27.34375 16.015625 9.375 
L 44.140625 9.375 
L 44.140625 2.34375 
L 4.6875 2.34375 
z
" id="SimHei-32"/>
     </defs>
     <g transform="translate(317.881986 262.932494)scale(0.15 -0.15)">
      <use xlink:href="#SimHei-32"/>
     </g>
    </g>
   </g>
   <g id="xtick_2">
    <g id="line2d_3">
     <path d="M 288.938133 243.649068 
L 291.909695 244.94116 
" style="fill:none;stroke:#000000;stroke-linecap:square;stroke-width:0.8;"/>
    </g>
    <g id="text_3">
     <!-- 4 -->
     <defs>
      <path d="M 31.25 17.1875 
L 1.171875 17.1875 
L 1.171875 23.828125 
L 32.8125 69.53125 
L 38.671875 69.53125 
L 38.671875 23.828125 
L 48.046875 23.828125 
L 48.046875 17.1875 
L 38.671875 17.1875 
L 38.671875 2.34375 
L 31.25 2.34375 
z
M 31.25 23.828125 
L 31.25 54.6875 
L 9.375 23.828125 
z
" id="SimHei-34"/>
     </defs>
     <g transform="translate(294.403586 268.368407)scale(0.15 -0.15)">
      <use xlink:href="#SimHei-34"/>
     </g>
    </g>
   </g>
   <g id="xtick_3">
    <g id="line2d_4">
     <path d="M 265.089728 249.035543 
L 268.038501 250.348851 
" style="fill:none;stroke:#000000;stroke-linecap:square;stroke-width:0.8;"/>
    </g>
    <g id="text_4">
     <!-- 6 -->
     <defs>
      <path d="M 3.515625 19.53125 
Q 4.296875 30.859375 6.046875 34.765625 
Q 7.8125 38.671875 11.328125 44.53125 
L 27.34375 69.53125 
L 36.328125 69.53125 
L 19.921875 43.75 
Q 30.46875 46.484375 36.71875 42.96875 
Q 42.96875 39.453125 45.109375 34.953125 
Q 47.265625 30.46875 47.453125 25.1875 
Q 47.65625 19.921875 45.890625 14.84375 
Q 44.140625 9.765625 39.640625 5.65625 
Q 35.15625 1.5625 27.140625 1.171875 
Q 19.140625 0.78125 13.46875 4.09375 
Q 7.8125 7.421875 5.65625 13.46875 
Q 3.515625 19.53125 4.296875 30.859375 
z
M 12.5 16.015625 
Q 19.53125 8.59375 25.390625 8.203125 
Q 31.25 7.8125 35.15625 12.109375 
Q 39.0625 16.40625 39.0625 24.609375 
Q 39.0625 32.8125 34.171875 35.9375 
Q 29.296875 39.0625 23.234375 38.28125 
Q 17.1875 37.5 14.453125 32.421875 
Q 11.71875 27.34375 12.109375 21.671875 
Q 12.5 16.015625 19.53125 8.59375 
z
" id="SimHei-36"/>
     </defs>
     <g transform="translate(270.540182 273.893459)scale(0.15 -0.15)">
      <use xlink:href="#SimHei-36"/>
     </g>
    </g>
   </g>
   <g id="xtick_4">
    <g id="line2d_5">
     <path d="M 240.848523 254.510738 
L 243.773348 255.845787 
" style="fill:none;stroke:#000000;stroke-linecap:square;stroke-width:0.8;"/>
    </g>
    <g id="text_5">
     <!-- 8 -->
     <defs>
      <path d="M 2.734375 16.796875 
Q 2.734375 26.171875 5.078125 30.65625 
Q 7.421875 35.15625 12.890625 37.890625 
Q 8.203125 40.625 6.640625 43.9375 
Q 5.078125 47.265625 4.875 51.5625 
Q 4.6875 55.859375 6.046875 58.984375 
Q 7.421875 62.109375 10.15625 64.84375 
Q 12.890625 67.578125 16.203125 68.546875 
Q 19.53125 69.53125 23.4375 69.53125 
Q 27.34375 69.53125 30.46875 68.75 
Q 33.59375 67.96875 37.109375 65.421875 
Q 40.625 62.890625 42.1875 58.203125 
Q 43.75 53.515625 41.984375 47.265625 
Q 40.234375 41.015625 32.8125 37.5 
Q 39.453125 35.546875 42.1875 31.4375 
Q 44.921875 27.34375 44.921875 21.484375 
Q 44.921875 15.625 43.15625 12.109375 
Q 41.40625 8.59375 39.25 6.25 
Q 37.109375 3.90625 33.390625 2.53125 
Q 29.6875 1.171875 24.015625 1.171875 
Q 18.359375 1.171875 14.25 2.53125 
Q 10.15625 3.90625 7.421875 6.640625 
Q 4.6875 9.375 3.703125 13.078125 
Q 2.734375 16.796875 2.734375 26.171875 
z
M 10.9375 26.5625 
Q 10.546875 17.1875 12.296875 13.671875 
Q 14.0625 10.15625 18.75 9.171875 
Q 23.4375 8.203125 28.515625 9.375 
Q 33.59375 10.546875 35.546875 14.84375 
Q 37.5 19.140625 36.90625 23.4375 
Q 36.328125 27.734375 32.03125 30.65625 
Q 27.734375 33.59375 22.65625 33.203125 
Q 17.578125 32.8125 14.25 29.6875 
Q 10.9375 26.5625 10.546875 17.1875 
z
M 12.109375 56.25 
Q 12.109375 48.4375 14.84375 44.921875 
Q 17.578125 41.40625 23.4375 41.40625 
Q 29.296875 41.40625 32.21875 44.921875 
Q 35.15625 48.4375 34.953125 53.3125 
Q 34.765625 58.203125 31.4375 60.546875 
Q 28.125 62.890625 22.453125 62.5 
Q 16.796875 62.109375 14.453125 59.171875 
Q 12.109375 56.25 12.109375 48.4375 
z
" id="SimHei-38"/>
     </defs>
     <g transform="translate(246.282226 279.509861)scale(0.15 -0.15)">
      <use xlink:href="#SimHei-38"/>
     </g>
    </g>
   </g>
   <g id="xtick_5">
    <g id="line2d_6">
     <path d="M 216.204734 260.076861 
L 219.104404 261.434197 
" style="fill:none;stroke:#000000;stroke-linecap:square;stroke-width:0.8;"/>
    </g>
    <g id="text_6">
     <!-- 10 -->
     <defs>
      <path d="M 21.875 56.25 
Q 16.796875 51.171875 8.984375 46.484375 
L 8.984375 53.90625 
Q 18.75 60.546875 25 69.53125 
L 29.6875 69.53125 
L 29.6875 2.34375 
L 21.875 2.34375 
z
" id="SimHei-31"/>
      <path d="M 3.125 29.296875 
Q 3.90625 50 6.4375 56.046875 
Q 8.984375 62.109375 13.671875 66.015625 
Q 18.359375 69.921875 25.1875 69.921875 
Q 32.03125 69.921875 37.109375 64.25 
Q 42.1875 58.59375 43.75 50 
Q 45.3125 41.40625 44.71875 30.265625 
Q 44.140625 19.140625 40.8125 12.109375 
Q 37.5 5.078125 30.859375 2.34375 
Q 24.21875 -0.390625 17.578125 2.921875 
Q 10.9375 6.25 8.203125 11.71875 
Q 5.46875 17.1875 4.296875 23.234375 
Q 3.125 29.296875 3.90625 50 
z
M 12.890625 52.734375 
Q 10.546875 31.25 12.5 22.84375 
Q 14.453125 14.453125 18.9375 10.9375 
Q 23.4375 7.421875 28.125 9.5625 
Q 32.8125 11.71875 34.953125 18.15625 
Q 37.109375 24.609375 37.109375 32.21875 
Q 37.109375 39.84375 36.515625 46.09375 
Q 35.9375 52.34375 33 57.421875 
Q 30.078125 62.5 25.1875 62.6875 
Q 20.3125 62.890625 16.59375 57.8125 
Q 12.890625 52.734375 10.546875 31.25 
z
" id="SimHei-30"/>
     </defs>
     <g transform="translate(217.869852 285.219897)scale(0.15 -0.15)">
      <use xlink:href="#SimHei-31"/>
      <use x="50" xlink:href="#SimHei-30"/>
     </g>
    </g>
   </g>
   <g id="xtick_6">
    <g id="line2d_7">
     <path d="M 191.148246 265.736198 
L 194.021503 267.116382 
" style="fill:none;stroke:#000000;stroke-linecap:square;stroke-width:0.8;"/>
    </g>
    <g id="text_7">
     <!-- 12 -->
     <g transform="translate(192.792861 291.025929)scale(0.15 -0.15)">
      <use xlink:href="#SimHei-31"/>
      <use x="50" xlink:href="#SimHei-32"/>
     </g>
    </g>
   </g>
  </g>
  <g id="axis3d_2">
   <g id="line2d_8">
    <path d="M 58.794045 217.8137 
L 168.062833 271.631196 
" style="fill:none;stroke:#000000;stroke-linecap:square;stroke-width:0.8;"/>
   </g>
   <g id="text_8">
    <!-- coins of 胖虎 -->
    <defs>
     <path d="M 21.484375 1.953125 
Q 25.78125 1.5625 28.515625 1.75 
Q 31.25 1.953125 31.640625 7.03125 
L 31.640625 26.171875 
L 18.359375 26.171875 
Q 16.796875 14.453125 14.453125 5.859375 
Q 12.109375 -2.734375 10.15625 -7.03125 
Q 6.640625 -3.90625 3.125 -2.734375 
Q 6.640625 2.734375 8.78125 10.34375 
Q 10.9375 17.96875 11.71875 30.859375 
L 11.71875 64.453125 
Q 11.71875 71.09375 11.328125 76.953125 
L 38.671875 76.953125 
Q 38.28125 69.140625 38.28125 61.328125 
L 38.28125 1.953125 
Q 38.28125 -6.25 23.4375 -7.03125 
Q 23.046875 -3.125 21.484375 1.953125 
z
M 64.453125 45.3125 
L 64.453125 69.140625 
Q 64.453125 73.828125 63.671875 79.296875 
L 72.265625 79.296875 
Q 71.875 74.21875 71.875 69.140625 
L 71.875 45.3125 
L 82.421875 45.3125 
Q 85.9375 45.3125 91.796875 45.703125 
L 91.796875 38.671875 
Q 88.28125 39.0625 82.421875 39.0625 
L 71.875 39.0625 
L 71.875 23.4375 
L 84.765625 23.4375 
Q 91.015625 23.4375 96.09375 23.828125 
L 96.09375 16.796875 
Q 90.234375 17.1875 84.765625 17.1875 
L 71.875 17.1875 
L 71.875 3.90625 
Q 71.875 -2.34375 72.265625 -8.984375 
L 64.0625 -8.984375 
Q 64.453125 -2.734375 64.453125 3.90625 
L 64.453125 17.1875 
L 53.90625 17.1875 
Q 48.4375 17.1875 42.578125 16.796875 
L 42.578125 23.828125 
Q 48.046875 23.4375 54.296875 23.4375 
L 64.453125 23.4375 
L 64.453125 39.0625 
L 53.90625 39.0625 
Q 48.4375 39.0625 43.359375 38.671875 
L 43.359375 45.703125 
Q 48.4375 45.3125 53.515625 45.3125 
z
M 31.640625 32.8125 
L 31.640625 48.828125 
L 18.75 48.828125 
L 18.75 32.8125 
z
M 31.640625 55.078125 
L 31.640625 70.703125 
L 18.75 70.703125 
L 18.75 55.078125 
z
M 51.5625 51.953125 
Q 50 58.984375 44.921875 71.09375 
L 51.171875 74.21875 
Q 55.859375 63.28125 58.59375 54.6875 
Q 54.296875 53.515625 51.5625 51.953125 
z
M 77.34375 53.90625 
Q 83.984375 67.96875 84.765625 73.4375 
Q 88.671875 71.875 92.578125 70.703125 
Q 90.625 67.96875 88.671875 62.890625 
Q 86.71875 57.8125 84.375 51.953125 
Q 80.859375 53.90625 77.34375 53.90625 
z
" id="SimHei-80d6"/>
     <path d="M 25.78125 45.703125 
Q 33.203125 46.09375 44.140625 46.875 
L 44.140625 56.640625 
L 20.703125 56.640625 
Q 20.703125 31.640625 20.109375 23.4375 
Q 19.53125 15.234375 17.578125 8 
Q 15.625 0.78125 10.9375 -7.8125 
Q 7.8125 -5.46875 3.125 -3.90625 
Q 7.03125 0.78125 9.171875 6.828125 
Q 11.328125 12.890625 12.109375 18.75 
Q 12.890625 24.609375 13.078125 30.265625 
Q 13.28125 35.9375 13.28125 42.96875 
Q 13.28125 50.390625 12.890625 62.5 
L 44.140625 62.5 
L 44.140625 74.609375 
Q 44.140625 77.34375 43.359375 82.421875 
L 51.953125 82.421875 
Q 51.5625 78.515625 51.5625 75.390625 
L 71.09375 75.390625 
Q 76.171875 75.390625 84.765625 76.171875 
L 84.765625 69.53125 
Q 76.171875 69.921875 70.703125 69.921875 
L 51.171875 69.921875 
L 51.171875 62.5 
L 93.75 62.5 
Q 92.1875 57.8125 89.84375 46.875 
Q 85.15625 48.046875 82.03125 48.4375 
Q 83.984375 52.734375 85.15625 56.640625 
L 51.171875 56.640625 
L 51.171875 47.65625 
Q 65.234375 49.21875 74.21875 50.78125 
L 75 44.140625 
Q 64.0625 42.96875 51.171875 41.40625 
L 51.171875 36.71875 
Q 51.171875 33.203125 57.421875 33.203125 
L 70.3125 33.203125 
Q 75 32.8125 76.359375 34.5625 
Q 77.734375 36.328125 78.515625 41.015625 
Q 81.640625 39.0625 86.71875 37.109375 
Q 84.765625 30.859375 82.03125 29.09375 
Q 79.296875 27.34375 73.828125 27.34375 
L 54.296875 27.34375 
Q 44.140625 27.34375 44.140625 33.59375 
L 44.140625 41.015625 
Q 36.328125 40.234375 27.34375 39.0625 
Q 26.5625 42.578125 25.78125 45.703125 
z
M 71.09375 22.265625 
Q 70.703125 16.796875 70.703125 10.9375 
L 70.703125 2.34375 
Q 70.703125 -1.953125 75 -1.953125 
L 81.25 -1.953125 
Q 85.9375 -1.953125 86.71875 0.78125 
Q 87.5 3.515625 87.5 7.421875 
Q 91.40625 5.078125 96.09375 4.296875 
Q 93.359375 -3.90625 91.59375 -5.859375 
Q 89.84375 -7.8125 85.15625 -7.8125 
L 72.65625 -7.8125 
Q 63.671875 -7.8125 63.671875 -1.171875 
L 63.671875 16.40625 
L 45.3125 16.40625 
Q 45.3125 4.6875 41.203125 -0.578125 
Q 37.109375 -5.859375 26.171875 -10.546875 
Q 25 -6.640625 21.484375 -3.515625 
Q 35.9375 0.78125 37.109375 7.421875 
Q 38.28125 14.0625 37.890625 22.265625 
L 71.09375 22.265625 
z
" id="SimHei-864e"/>
    </defs>
    <g style="fill:#ff0000;" transform="translate(39.895658 254.519072)rotate(-333.778649)scale(0.15 -0.15)">
     <use xlink:href="#SimHei-63"/>
     <use x="50" xlink:href="#SimHei-6f"/>
     <use x="100" xlink:href="#SimHei-69"/>
     <use x="150" xlink:href="#SimHei-6e"/>
     <use x="200" xlink:href="#SimHei-73"/>
     <use x="250" xlink:href="#SimHei-20"/>
     <use x="300" xlink:href="#SimHei-6f"/>
     <use x="350" xlink:href="#SimHei-66"/>
     <use x="400" xlink:href="#SimHei-20"/>
     <use x="450" xlink:href="#SimHei-80d6"/>
     <use x="550" xlink:href="#SimHei-864e"/>
    </g>
   </g>
   <g id="Line3DCollection_2">
    <path d="M 235.892902 46.426891 
L 234.556094 191.667554 
L 72.792942 224.708492 
" style="fill:none;stroke:#b0b0b0;stroke-width:0.8;"/>
    <path d="M 252.469454 51.662173 
L 250.562513 198.317279 
L 87.811845 232.105661 
" style="fill:none;stroke:#b0b0b0;stroke-width:0.8;"/>
    <path d="M 269.425804 57.017405 
L 266.92324 205.114199 
L 103.181703 239.675684 
" style="fill:none;stroke:#b0b0b0;stroke-width:0.8;"/>
    <path d="M 286.775154 62.496756 
L 283.650171 212.063254 
L 118.914961 247.424691 
" style="fill:none;stroke:#b0b0b0;stroke-width:0.8;"/>
    <path d="M 304.531327 68.104592 
L 300.755741 219.169612 
L 135.024663 255.359105 
" style="fill:none;stroke:#b0b0b0;stroke-width:0.8;"/>
    <path d="M 322.708804 73.845485 
L 318.252953 226.438674 
L 151.524481 263.485661 
" style="fill:none;stroke:#b0b0b0;stroke-width:0.8;"/>
   </g>
   <g id="xtick_7">
    <g id="line2d_9">
     <path d="M 74.156841 224.429909 
L 70.06158 225.266386 
" style="fill:none;stroke:#000000;stroke-linecap:square;stroke-width:0.8;"/>
    </g>
    <g id="text_9">
     <!-- 2 -->
     <g transform="translate(57.696882 247.423164)scale(0.15 -0.15)">
      <use xlink:href="#SimHei-32"/>
     </g>
    </g>
   </g>
   <g id="xtick_8">
    <g id="line2d_10">
     <path d="M 89.184881 231.820608 
L 85.062144 232.676522 
" style="fill:none;stroke:#000000;stroke-linecap:square;stroke-width:0.8;"/>
    </g>
    <g id="text_10">
     <!-- 4 -->
     <g transform="translate(72.604729 254.973683)scale(0.15 -0.15)">
      <use xlink:href="#SimHei-34"/>
     </g>
    </g>
   </g>
   <g id="xtick_9">
    <g id="line2d_11">
     <path d="M 104.563933 239.383932 
L 100.413547 240.259969 
" style="fill:none;stroke:#000000;stroke-linecap:square;stroke-width:0.8;"/>
    </g>
    <g id="text_11">
     <!-- 6 -->
     <g transform="translate(87.861408 262.700877)scale(0.15 -0.15)">
      <use xlink:href="#SimHei-36"/>
     </g>
    </g>
   </g>
   <g id="xtick_10">
    <g id="line2d_12">
     <path d="M 120.306439 247.126002 
L 116.128241 248.022878 
" style="fill:none;stroke:#000000;stroke-linecap:square;stroke-width:0.8;"/>
    </g>
    <g id="text_12">
     <!-- 8 -->
     <g transform="translate(103.479308 270.611022)scale(0.15 -0.15)">
      <use xlink:href="#SimHei-38"/>
     </g>
    </g>
   </g>
   <g id="xtick_11">
    <g id="line2d_13">
     <path d="M 136.425437 255.053228 
L 132.219277 255.971697 
" style="fill:none;stroke:#000000;stroke-linecap:square;stroke-width:0.8;"/>
    </g>
    <g id="text_13">
     <!-- 10 -->
     <g transform="translate(115.72141 278.710693)scale(0.15 -0.15)">
      <use xlink:href="#SimHei-31"/>
      <use x="50" xlink:href="#SimHei-30"/>
     </g>
    </g>
   </g>
   <g id="xtick_12">
    <g id="line2d_14">
     <path d="M 152.934599 263.172334 
L 148.700339 264.113184 
" style="fill:none;stroke:#000000;stroke-linecap:square;stroke-width:0.8;"/>
    </g>
    <g id="text_14">
     <!-- 12 -->
     <g transform="translate(132.101326 287.006784)scale(0.15 -0.15)">
      <use xlink:href="#SimHei-31"/>
      <use x="50" xlink:href="#SimHei-32"/>
     </g>
    </g>
   </g>
  </g>
  <g id="axis3d_3">
   <g id="line2d_15">
    <path d="M 58.794045 217.8137 
L 53.895826 67.034254 
" style="fill:none;stroke:#000000;stroke-linecap:square;stroke-width:0.8;"/>
   </g>
   <g id="text_15">
    <!-- coins of 静香 -->
    <defs>
     <path d="M 67.578125 78.90625 
Q 65.625 76.5625 64.640625 74.40625 
Q 63.671875 72.265625 62.890625 70.3125 
L 84.375 70.3125 
Q 82.03125 66.796875 80.078125 62.296875 
Q 78.125 57.8125 75.78125 52.734375 
L 90.234375 52.734375 
Q 89.84375 47.265625 89.84375 41.015625 
L 89.84375 36.71875 
Q 93.359375 36.71875 96.875 37.109375 
L 96.875 30.46875 
Q 94.140625 30.859375 89.84375 30.859375 
L 89.84375 25.390625 
Q 89.84375 17.578125 90.234375 10.546875 
L 83.203125 10.546875 
L 83.203125 14.84375 
L 72.265625 14.84375 
L 72.265625 0.390625 
Q 71.875 -4.6875 68.9375 -6.640625 
Q 66.015625 -8.59375 56.25 -9.375 
Q 56.25 -5.46875 53.90625 -1.171875 
Q 58.984375 -1.5625 62.296875 -1.171875 
Q 65.625 -0.78125 65.625 2.734375 
L 65.625 14.84375 
L 60.15625 14.84375 
Q 55.46875 14.84375 50.390625 14.453125 
L 50.390625 20.703125 
Q 55.078125 20.3125 60.15625 20.3125 
L 65.625 20.3125 
L 65.625 30.859375 
L 59.765625 30.859375 
Q 54.6875 30.859375 48.046875 30.46875 
L 48.046875 36.71875 
Q 53.515625 36.328125 60.15625 36.328125 
L 65.625 36.328125 
L 65.625 47.265625 
L 60.15625 47.265625 
Q 57.8125 47.265625 51.953125 46.875 
L 51.953125 51.953125 
Q 50.78125 50.78125 48.828125 48.4375 
Q 46.875 51.5625 44.140625 53.90625 
Q 50.390625 60.15625 53.703125 68.15625 
Q 57.03125 76.171875 58.984375 82.03125 
Q 62.890625 80.078125 67.578125 78.90625 
z
M 42.96875 36.328125 
Q 42.578125 30.859375 42.578125 25 
L 42.578125 1.171875 
Q 42.578125 -4.6875 39.453125 -6.25 
Q 36.328125 -7.8125 30.078125 -8.984375 
Q 29.6875 -5.46875 27.34375 -1.5625 
Q 36.328125 -1.5625 35.546875 1.953125 
L 35.546875 6.640625 
L 15.234375 6.640625 
L 15.234375 -8.203125 
L 8.203125 -8.203125 
Q 8.59375 -3.90625 8.59375 1.953125 
L 8.59375 25 
Q 8.59375 30.859375 8.203125 36.328125 
L 42.96875 36.328125 
z
M 21.875 71.09375 
Q 21.875 74.609375 21.484375 80.46875 
L 29.296875 80.46875 
Q 28.90625 74.609375 28.90625 71.09375 
L 33.984375 71.09375 
Q 39.453125 71.09375 46.875 71.484375 
L 46.875 65.234375 
Q 39.453125 65.625 33.984375 65.625 
L 28.90625 65.625 
L 28.90625 59.375 
L 33.984375 59.375 
Q 36.328125 59.375 42.578125 59.765625 
L 42.578125 53.515625 
Q 35.9375 53.90625 33.59375 53.90625 
L 28.90625 53.90625 
L 28.90625 47.65625 
L 35.15625 47.65625 
Q 40.625 47.65625 46.484375 48.046875 
L 46.484375 41.796875 
Q 40.234375 42.1875 35.15625 42.1875 
L 15.625 42.1875 
Q 9.375 42.1875 3.90625 41.796875 
L 3.90625 48.046875 
Q 9.375 47.65625 15.625 47.65625 
L 21.875 47.65625 
L 21.875 53.90625 
L 15.234375 53.90625 
Q 12.890625 53.90625 8.59375 53.515625 
L 8.59375 59.765625 
Q 12.890625 59.375 15.234375 59.375 
L 21.875 59.375 
L 21.875 65.625 
L 15.234375 65.625 
Q 10.15625 65.625 4.6875 65.234375 
L 4.6875 71.484375 
Q 10.15625 71.09375 15.234375 71.09375 
z
M 52.734375 53.515625 
Q 57.421875 53.125 64.453125 53.125 
L 68.359375 53.125 
Q 72.265625 61.328125 73.4375 64.84375 
L 60.15625 64.84375 
Q 55.078125 56.640625 52.734375 53.515625 
z
M 35.546875 12.109375 
L 35.546875 19.140625 
L 15.234375 19.140625 
L 15.234375 12.109375 
z
M 35.546875 24.609375 
L 35.546875 30.859375 
L 15.234375 30.859375 
L 15.234375 24.609375 
z
M 83.203125 36.328125 
L 83.203125 47.265625 
L 72.265625 47.265625 
L 72.265625 36.328125 
z
M 83.203125 20.3125 
L 83.203125 30.859375 
L 72.265625 30.859375 
L 72.265625 20.3125 
z
" id="SimHei-9759"/>
     <path d="M 45.703125 33.59375 
L 45.703125 53.90625 
Q 36.71875 44.140625 26.359375 38.28125 
Q 16.015625 32.421875 10.546875 30.078125 
Q 10.546875 33.203125 5.46875 36.71875 
Q 16.015625 39.453125 24.21875 44.53125 
Q 32.421875 49.609375 37.109375 54.296875 
L 21.484375 54.296875 
Q 14.84375 54.296875 7.8125 53.90625 
L 7.8125 60.15625 
Q 14.84375 59.765625 21.484375 59.765625 
L 45.703125 59.765625 
L 45.703125 69.921875 
Q 38.28125 69.140625 17.96875 67.578125 
Q 16.796875 71.09375 14.453125 74.609375 
Q 32.8125 74.609375 50.390625 76.953125 
Q 67.96875 79.296875 74.609375 82.03125 
Q 76.953125 78.125 81.25 73.828125 
Q 74.609375 73.4375 67.96875 72.65625 
Q 61.328125 71.875 52.34375 70.703125 
L 52.34375 59.765625 
L 78.125 59.765625 
Q 83.984375 59.765625 91.40625 60.15625 
L 91.40625 53.90625 
Q 84.375 54.296875 78.125 54.296875 
L 61.71875 54.296875 
Q 66.40625 48.4375 74.21875 43.15625 
Q 82.03125 37.890625 94.140625 34.765625 
Q 89.84375 31.640625 88.28125 26.953125 
Q 82.421875 29.296875 77.34375 32.03125 
Q 76.5625 25 76.5625 12.5 
Q 76.5625 -0.78125 76.953125 -8.984375 
L 69.53125 -8.984375 
L 69.53125 -3.125 
L 28.515625 -3.125 
L 28.515625 -9.375 
L 21.875 -9.375 
L 21.875 11.71875 
Q 21.875 25 21.484375 33.59375 
z
M 69.53125 17.96875 
L 69.53125 27.734375 
L 28.515625 27.734375 
L 28.515625 17.96875 
z
M 69.53125 2.734375 
L 69.53125 12.5 
L 28.515625 12.5 
L 28.515625 2.734375 
z
M 71.484375 35.9375 
Q 62.109375 42.578125 52.734375 54.296875 
L 52.34375 54.296875 
L 52.34375 33.59375 
L 75 33.59375 
z
" id="SimHei-9999"/>
    </defs>
    <g style="fill:#ff0000;" transform="translate(9.253153 93.130034)rotate(-271.860655)scale(0.15 -0.15)">
     <use xlink:href="#SimHei-63"/>
     <use x="50" xlink:href="#SimHei-6f"/>
     <use x="100" xlink:href="#SimHei-69"/>
     <use x="150" xlink:href="#SimHei-6e"/>
     <use x="200" xlink:href="#SimHei-73"/>
     <use x="250" xlink:href="#SimHei-20"/>
     <use x="300" xlink:href="#SimHei-6f"/>
     <use x="350" xlink:href="#SimHei-66"/>
     <use x="400" xlink:href="#SimHei-20"/>
     <use x="450" xlink:href="#SimHei-9759"/>
     <use x="550" xlink:href="#SimHei-9999"/>
    </g>
   </g>
   <g id="Line3DCollection_3">
    <path d="M 58.116371 196.953182 
L 219.732639 165.519822 
L 336.480333 212.409277 
" style="fill:none;stroke:#b0b0b0;stroke-width:0.8;"/>
    <path d="M 57.424318 175.650084 
L 219.848052 145.164643 
L 337.207831 190.645853 
" style="fill:none;stroke:#b0b0b0;stroke-width:0.8;"/>
    <path d="M 56.725262 154.131378 
L 219.964572 124.614119 
L 337.942878 168.65655 
" style="fill:none;stroke:#b0b0b0;stroke-width:0.8;"/>
    <path d="M 56.019095 132.393775 
L 220.082216 103.865426 
L 338.685595 146.437831 
" style="fill:none;stroke:#b0b0b0;stroke-width:0.8;"/>
    <path d="M 55.305707 110.433917 
L 220.200999 82.915682 
L 339.436101 123.986089 
" style="fill:none;stroke:#b0b0b0;stroke-width:0.8;"/>
    <path d="M 54.584988 88.248378 
L 220.32094 61.761953 
L 340.19452 101.297637 
" style="fill:none;stroke:#b0b0b0;stroke-width:0.8;"/>
   </g>
   <g id="xtick_13">
    <g id="line2d_16">
     <path d="M 59.478623 196.688233 
L 55.388328 197.48377 
" style="fill:none;stroke:#000000;stroke-linecap:square;stroke-width:0.8;"/>
    </g>
    <g id="text_16">
     <!-- 2 -->
     <g transform="translate(35.894077 206.240013)scale(0.15 -0.15)">
      <use xlink:href="#SimHei-32"/>
     </g>
    </g>
   </g>
   <g id="xtick_14">
    <g id="line2d_17">
     <path d="M 58.793727 175.393058 
L 54.681926 176.164806 
" style="fill:none;stroke:#000000;stroke-linecap:square;stroke-width:0.8;"/>
    </g>
    <g id="text_17">
     <!-- 4 -->
     <g transform="translate(35.110337 184.967596)scale(0.15 -0.15)">
      <use xlink:href="#SimHei-34"/>
     </g>
    </g>
   </g>
   <g id="xtick_15">
    <g id="line2d_18">
     <path d="M 58.101903 153.882451 
L 53.968368 154.629885 
" style="fill:none;stroke:#000000;stroke-linecap:square;stroke-width:0.8;"/>
    </g>
    <g id="text_18">
     <!-- 6 -->
     <g transform="translate(34.318679 163.480247)scale(0.15 -0.15)">
      <use xlink:href="#SimHei-36"/>
     </g>
    </g>
   </g>
   <g id="xtick_16">
    <g id="line2d_19">
     <path d="M 57.403044 132.153124 
L 53.247545 132.875709 
" style="fill:none;stroke:#000000;stroke-linecap:square;stroke-width:0.8;"/>
    </g>
    <g id="text_19">
     <!-- 8 -->
     <g transform="translate(33.518982 141.77469)scale(0.15 -0.15)">
      <use xlink:href="#SimHei-38"/>
     </g>
    </g>
   </g>
   <g id="xtick_17">
    <g id="line2d_20">
     <path d="M 56.697043 110.201726 
L 52.519346 110.898913 
" style="fill:none;stroke:#000000;stroke-linecap:square;stroke-width:0.8;"/>
    </g>
    <g id="text_20">
     <!-- 10 -->
     <g transform="translate(28.961122 119.847586)scale(0.15 -0.15)">
      <use xlink:href="#SimHei-31"/>
      <use x="50" xlink:href="#SimHei-30"/>
     </g>
    </g>
   </g>
   <g id="xtick_18">
    <g id="line2d_21">
     <path d="M 55.98379 88.024834 
L 51.783656 88.696062 
" style="fill:none;stroke:#000000;stroke-linecap:square;stroke-width:0.8;"/>
    </g>
    <g id="text_21">
     <!-- 12 -->
     <g transform="translate(28.144974 97.695525)scale(0.15 -0.15)">
      <use xlink:href="#SimHei-31"/>
      <use x="50" xlink:href="#SimHei-32"/>
     </g>
    </g>
   </g>
  </g>
  <g id="axes_1">
   <g id="Path3DCollection_1">
    <path clip-path="url(#p707c9c713d)" d="M 216.944512 57.383523 
L 219.18058 52.911387 
L 214.708444 52.911387 
z
" style="fill:#440154;fill-opacity:0.3;stroke:#440154;stroke-opacity:0.3;"/>
    <path clip-path="url(#p707c9c713d)" d="M 224.972463 70.814258 
L 227.208531 66.342122 
L 222.736395 66.342122 
z
" style="fill:#440154;fill-opacity:0.356328;stroke:#440154;stroke-opacity:0.356328;"/>
    <path clip-path="url(#p707c9c713d)" d="M 233.050741 84.329191 
L 235.286809 79.857055 
L 230.814673 79.857055 
z
" style="fill:#440154;fill-opacity:0.41301;stroke:#440154;stroke-opacity:0.41301;"/>
    <path clip-path="url(#p707c9c713d)" d="M 241.179822 97.929114 
L 243.415889 93.456978 
L 238.943754 93.456978 
z
" style="fill:#440154;fill-opacity:0.470048;stroke:#440154;stroke-opacity:0.470048;"/>
    <path clip-path="url(#p707c9c713d)" d="M 249.360184 111.614833 
L 251.596252 107.142697 
L 247.124116 107.142697 
z
" style="fill:#440154;fill-opacity:0.527445;stroke:#440154;stroke-opacity:0.527445;"/>
    <path clip-path="url(#p707c9c713d)" d="M 257.592315 125.387161 
L 259.828383 120.915025 
L 255.356247 120.915025 
z
" style="fill:#440154;fill-opacity:0.585206;stroke:#440154;stroke-opacity:0.585206;"/>
    <path clip-path="url(#p707c9c713d)" d="M 265.876709 139.246924 
L 268.112777 134.774788 
L 263.640641 134.774788 
z
" style="fill:#440154;fill-opacity:0.643334;stroke:#440154;stroke-opacity:0.643334;"/>
    <path clip-path="url(#p707c9c713d)" d="M 274.213864 153.194956 
L 276.449932 148.72282 
L 271.977796 148.72282 
z
" style="fill:#440154;fill-opacity:0.701832;stroke:#440154;stroke-opacity:0.701832;"/>
    <path clip-path="url(#p707c9c713d)" d="M 282.604287 167.232104 
L 284.840355 162.759968 
L 280.368219 162.759968 
z
" style="fill:#440154;fill-opacity:0.760703;stroke:#440154;stroke-opacity:0.760703;"/>
    <path clip-path="url(#p707c9c713d)" d="M 291.048488 181.359225 
L 293.284556 176.887089 
L 288.81242 176.887089 
z
" style="fill:#440154;fill-opacity:0.819952;stroke:#440154;stroke-opacity:0.819952;"/>
    <path clip-path="url(#p707c9c713d)" d="M 299.546987 195.577185 
L 301.783055 191.105049 
L 297.310919 191.105049 
z
" style="fill:#440154;fill-opacity:0.879582;stroke:#440154;stroke-opacity:0.879582;"/>
    <path clip-path="url(#p707c9c713d)" d="M 308.10031 209.886865 
L 310.336378 205.414729 
L 305.864242 205.414729 
z
" style="fill:#440154;fill-opacity:0.939597;stroke:#440154;stroke-opacity:0.939597;"/>
    <path clip-path="url(#p707c9c713d)" d="M 316.708988 224.289155 
L 318.945056 219.817019 
L 314.47292 219.817019 
z
" style="fill:#440154;stroke:#440154;"/>
    <path clip-path="url(#p707c9c713d)" d="M 205.377434 69.973765 
L 207.613502 65.501629 
L 203.141366 65.501629 
z
" style="fill:#481f70;fill-opacity:0.324951;stroke:#481f70;stroke-opacity:0.324951;"/>
    <path clip-path="url(#p707c9c713d)" d="M 213.380338 83.462543 
L 215.616406 78.990408 
L 211.14427 78.990408 
z
" style="fill:#481f70;fill-opacity:0.381435;stroke:#481f70;stroke-opacity:0.381435;"/>
    <path clip-path="url(#p707c9c713d)" d="M 221.433482 97.036 
L 223.66955 92.563864 
L 219.197414 92.563864 
z
" style="fill:#481f70;fill-opacity:0.438274;stroke:#481f70;stroke-opacity:0.438274;"/>
    <path clip-path="url(#p707c9c713d)" d="M 229.53734 110.694935 
L 231.773408 106.222799 
L 227.301272 106.222799 
z
" style="fill:#481f70;fill-opacity:0.495472;stroke:#481f70;stroke-opacity:0.495472;"/>
    <path clip-path="url(#p707c9c713d)" d="M 237.692393 124.440158 
L 239.928461 119.968022 
L 235.456325 119.968022 
z
" style="fill:#481f70;fill-opacity:0.55303;stroke:#481f70;stroke-opacity:0.55303;"/>
    <path clip-path="url(#p707c9c713d)" d="M 245.899127 138.27249 
L 248.135195 133.800354 
L 243.66306 133.800354 
z
" style="fill:#481f70;fill-opacity:0.610953;stroke:#481f70;stroke-opacity:0.610953;"/>
    <path clip-path="url(#p707c9c713d)" d="M 254.158036 152.192761 
L 256.394104 147.720625 
L 251.921968 147.720625 
z
" style="fill:#481f70;fill-opacity:0.669245;stroke:#481f70;stroke-opacity:0.669245;"/>
    <path clip-path="url(#p707c9c713d)" d="M 262.469619 166.201812 
L 264.705687 161.729676 
L 260.233551 161.729676 
z
" style="fill:#481f70;fill-opacity:0.727908;stroke:#481f70;stroke-opacity:0.727908;"/>
    <path clip-path="url(#p707c9c713d)" d="M 270.83438 180.300496 
L 273.070448 175.82836 
L 268.598312 175.82836 
z
" style="fill:#481f70;fill-opacity:0.786947;stroke:#481f70;stroke-opacity:0.786947;"/>
    <path clip-path="url(#p707c9c713d)" d="M 279.252833 194.489676 
L 281.488901 190.01754 
L 277.016765 190.01754 
z
" style="fill:#481f70;fill-opacity:0.846364;stroke:#481f70;stroke-opacity:0.846364;"/>
    <path clip-path="url(#p707c9c713d)" d="M 287.725495 208.770225 
L 289.961563 204.298089 
L 285.489427 204.298089 
z
" style="fill:#481f70;fill-opacity:0.906164;stroke:#481f70;stroke-opacity:0.906164;"/>
    <path clip-path="url(#p707c9c713d)" d="M 296.252892 223.143029 
L 298.48896 218.670893 
L 294.016824 218.670893 
z
" style="fill:#481f70;fill-opacity:0.966351;stroke:#481f70;stroke-opacity:0.966351;"/>
    <path clip-path="url(#p707c9c713d)" d="M 193.778293 82.598908 
L 196.014361 78.126772 
L 191.542225 78.126772 
z
" style="fill:#443983;fill-opacity:0.34997;stroke:#443983;stroke-opacity:0.34997;"/>
    <path clip-path="url(#p707c9c713d)" d="M 201.75598 96.146 
L 203.992048 91.673864 
L 199.519912 91.673864 
z
" style="fill:#443983;fill-opacity:0.406612;stroke:#443983;stroke-opacity:0.406612;"/>
    <path clip-path="url(#p707c9c713d)" d="M 209.783817 109.778254 
L 212.019885 105.306118 
L 207.547749 105.306118 
z
" style="fill:#443983;fill-opacity:0.46361;stroke:#443983;stroke-opacity:0.46361;"/>
    <path clip-path="url(#p707c9c713d)" d="M 217.86228 123.496478 
L 220.098348 119.024342 
L 215.626212 119.024342 
z
" style="fill:#443983;fill-opacity:0.520967;stroke:#443983;stroke-opacity:0.520967;"/>
    <path clip-path="url(#p707c9c713d)" d="M 225.99185 137.301485 
L 228.227918 132.829349 
L 223.755782 132.829349 
z
" style="fill:#443983;fill-opacity:0.578687;stroke:#443983;stroke-opacity:0.578687;"/>
    <path clip-path="url(#p707c9c713d)" d="M 234.173012 151.194104 
L 236.40908 146.721968 
L 231.936944 146.721968 
z
" style="fill:#443983;fill-opacity:0.636773;stroke:#443983;stroke-opacity:0.636773;"/>
    <path clip-path="url(#p707c9c713d)" d="M 242.406259 165.175169 
L 244.642327 160.703033 
L 240.170191 160.703033 
z
" style="fill:#443983;fill-opacity:0.695229;stroke:#443983;stroke-opacity:0.695229;"/>
    <path clip-path="url(#p707c9c713d)" d="M 250.692091 179.245529 
L 252.928159 174.773393 
L 248.456023 174.773393 
z
" style="fill:#443983;fill-opacity:0.754058;stroke:#443983;stroke-opacity:0.754058;"/>
    <path clip-path="url(#p707c9c713d)" d="M 259.031012 193.406042 
L 261.26708 188.933906 
L 256.794944 188.933906 
z
" style="fill:#443983;fill-opacity:0.813264;stroke:#443983;stroke-opacity:0.813264;"/>
    <path clip-path="url(#p707c9c713d)" d="M 267.423535 207.657577 
L 269.659602 203.185441 
L 265.187467 203.185441 
z
" style="fill:#443983;fill-opacity:0.872851;stroke:#443983;stroke-opacity:0.872851;"/>
    <path clip-path="url(#p707c9c713d)" d="M 275.870177 222.001014 
L 278.106245 217.528879 
L 273.634109 217.528879 
z
" style="fill:#443983;fill-opacity:0.932822;stroke:#443983;stroke-opacity:0.932822;"/>
    <path clip-path="url(#p707c9c713d)" d="M 182.146955 95.259096 
L 184.383023 90.78696 
L 179.910887 90.78696 
z
" style="fill:#3b518b;fill-opacity:0.37506;stroke:#3b518b;stroke-opacity:0.37506;"/>
    <path clip-path="url(#p707c9c713d)" d="M 190.099252 108.864773 
L 192.33532 104.392637 
L 187.863184 104.392637 
z
" style="fill:#3b518b;fill-opacity:0.431859;stroke:#3b518b;stroke-opacity:0.431859;"/>
    <path clip-path="url(#p707c9c713d)" d="M 198.101611 122.556101 
L 200.337679 118.083966 
L 195.865543 118.083966 
z
" style="fill:#3b518b;fill-opacity:0.489016;stroke:#3b518b;stroke-opacity:0.489016;"/>
    <path clip-path="url(#p707c9c713d)" d="M 206.154506 136.333892 
L 208.390574 131.861756 
L 203.918438 131.861756 
z
" style="fill:#3b518b;fill-opacity:0.546533;stroke:#3b518b;stroke-opacity:0.546533;"/>
    <path clip-path="url(#p707c9c713d)" d="M 214.258416 150.198966 
L 216.494484 145.72683 
L 212.022348 145.72683 
z
" style="fill:#3b518b;fill-opacity:0.604415;stroke:#3b518b;stroke-opacity:0.604415;"/>
    <path clip-path="url(#p707c9c713d)" d="M 222.413829 164.152156 
L 224.649897 159.68002 
L 220.177761 159.68002 
z
" style="fill:#3b528b;fill-opacity:0.662665;stroke:#3b528b;stroke-opacity:0.662665;"/>
    <path clip-path="url(#p707c9c713d)" d="M 230.621237 178.194304 
L 232.857305 173.722168 
L 228.385169 173.722168 
z
" style="fill:#3b528b;fill-opacity:0.721286;stroke:#3b528b;stroke-opacity:0.721286;"/>
    <path clip-path="url(#p707c9c713d)" d="M 238.881138 192.326264 
L 241.117206 187.854128 
L 236.64507 187.854128 
z
" style="fill:#3b528b;fill-opacity:0.780282;stroke:#3b528b;stroke-opacity:0.780282;"/>
    <path clip-path="url(#p707c9c713d)" d="M 247.194038 206.548901 
L 249.430106 202.076765 
L 244.95797 202.076765 
z
" style="fill:#3b528b;fill-opacity:0.839657;stroke:#3b528b;stroke-opacity:0.839657;"/>
    <path clip-path="url(#p707c9c713d)" d="M 255.560449 220.863089 
L 257.796517 216.390953 
L 253.324381 216.390953 
z
" style="fill:#3b528b;fill-opacity:0.899414;stroke:#3b528b;stroke-opacity:0.899414;"/>
    <path clip-path="url(#p707c9c713d)" d="M 170.483285 107.954476 
L 172.719353 103.48234 
L 168.247217 103.48234 
z
" style="fill:#31688e;fill-opacity:0.400219;stroke:#31688e;stroke-opacity:0.400219;"/>
    <path clip-path="url(#p707c9c713d)" d="M 178.410021 121.619013 
L 180.646089 117.146877 
L 176.173953 117.146877 
z
" style="fill:#31688e;fill-opacity:0.457176;stroke:#31688e;stroke-opacity:0.457176;"/>
    <path clip-path="url(#p707c9c713d)" d="M 186.386727 135.369691 
L 188.622795 130.897555 
L 184.150659 130.897555 
z
" style="fill:#31688e;fill-opacity:0.514493;stroke:#31688e;stroke-opacity:0.514493;"/>
    <path clip-path="url(#p707c9c713d)" d="M 194.413878 149.207329 
L 196.649946 144.735193 
L 192.17781 144.735193 
z
" style="fill:#31688e;fill-opacity:0.572171;stroke:#31688e;stroke-opacity:0.572171;"/>
    <path clip-path="url(#p707c9c713d)" d="M 202.491953 163.132752 
L 204.728021 158.660616 
L 200.255885 158.660616 
z
" style="fill:#31688e;fill-opacity:0.630216;stroke:#31688e;stroke-opacity:0.630216;"/>
    <path clip-path="url(#p707c9c713d)" d="M 210.621439 177.1468 
L 212.857507 172.674664 
L 208.385371 172.674664 
z
" style="fill:#31688e;fill-opacity:0.68863;stroke:#31688e;stroke-opacity:0.68863;"/>
    <path clip-path="url(#p707c9c713d)" d="M 218.802828 191.250321 
L 221.038896 186.778185 
L 216.56676 186.778185 
z
" style="fill:#31688e;fill-opacity:0.747418;stroke:#31688e;stroke-opacity:0.747418;"/>
    <path clip-path="url(#p707c9c713d)" d="M 227.036618 205.444175 
L 229.272686 200.972039 
L 224.80055 200.972039 
z
" style="fill:#31688e;fill-opacity:0.806581;stroke:#31688e;stroke-opacity:0.806581;"/>
    <path clip-path="url(#p707c9c713d)" d="M 235.323315 219.729232 
L 237.559383 215.257096 
L 233.087247 215.257096 
z
" style="fill:#31688e;fill-opacity:0.866125;stroke:#31688e;stroke-opacity:0.866125;"/>
    <path clip-path="url(#p707c9c713d)" d="M 158.787148 120.685194 
L 161.023216 116.213058 
L 156.55108 116.213058 
z
" style="fill:#287c8e;fill-opacity:0.425448;stroke:#287c8e;stroke-opacity:0.425448;"/>
    <path clip-path="url(#p707c9c713d)" d="M 166.688149 134.408866 
L 168.924217 129.93673 
L 164.452081 129.93673 
z
" style="fill:#287c8e;fill-opacity:0.482564;stroke:#287c8e;stroke-opacity:0.482564;"/>
    <path clip-path="url(#p707c9c713d)" d="M 174.639028 148.219174 
L 176.875096 143.747038 
L 172.40296 143.747038 
z
" style="fill:#287c8e;fill-opacity:0.540041;stroke:#287c8e;stroke-opacity:0.540041;"/>
    <path clip-path="url(#p707c9c713d)" d="M 182.640259 162.11694 
L 184.876327 157.644804 
L 180.404191 157.644804 
z
" style="fill:#287c8e;fill-opacity:0.597882;stroke:#287c8e;stroke-opacity:0.597882;"/>
    <path clip-path="url(#p707c9c713d)" d="M 190.692321 176.102998 
L 192.928389 171.630862 
L 188.456253 171.630862 
z
" style="fill:#287c8e;fill-opacity:0.65609;stroke:#287c8e;stroke-opacity:0.65609;"/>
    <path clip-path="url(#p707c9c713d)" d="M 198.795701 190.178193 
L 201.031769 185.706057 
L 196.559633 185.706057 
z
" style="fill:#287c8e;fill-opacity:0.714669;stroke:#287c8e;stroke-opacity:0.714669;"/>
    <path clip-path="url(#p707c9c713d)" d="M 206.950891 204.343378 
L 209.186959 199.871242 
L 204.714823 199.871242 
z
" style="fill:#287c8e;fill-opacity:0.773623;stroke:#287c8e;stroke-opacity:0.773623;"/>
    <path clip-path="url(#p707c9c713d)" d="M 215.158388 218.59942 
L 217.394456 214.127284 
L 212.92232 214.127284 
z
" style="fill:#287c8e;fill-opacity:0.832955;stroke:#287c8e;stroke-opacity:0.832955;"/>
    <path clip-path="url(#p707c9c713d)" d="M 147.058408 133.451399 
L 149.294476 128.979263 
L 144.82234 128.979263 
z
" style="fill:#21908d;fill-opacity:0.450747;stroke:#21908d;stroke-opacity:0.450747;"/>
    <path clip-path="url(#p707c9c713d)" d="M 154.9335 147.234483 
L 157.169568 142.762347 
L 152.697432 142.762347 
z
" style="fill:#21908d;fill-opacity:0.508023;stroke:#21908d;stroke-opacity:0.508023;"/>
    <path clip-path="url(#p707c9c713d)" d="M 162.858376 161.1047 
L 165.094444 156.632564 
L 160.622308 156.632564 
z
" style="fill:#21908d;fill-opacity:0.565661;stroke:#21908d;stroke-opacity:0.565661;"/>
    <path clip-path="url(#p707c9c713d)" d="M 170.833509 175.062879 
L 173.069577 170.590743 
L 168.597441 170.590743 
z
" style="fill:#21908d;fill-opacity:0.623664;stroke:#21908d;stroke-opacity:0.623664;"/>
    <path clip-path="url(#p707c9c713d)" d="M 178.85938 189.109858 
L 181.095448 184.637722 
L 176.623312 184.637722 
z
" style="fill:#21918c;fill-opacity:0.682037;stroke:#21918c;stroke-opacity:0.682037;"/>
    <path clip-path="url(#p707c9c713d)" d="M 186.936474 203.246489 
L 189.172542 198.774353 
L 184.700406 198.774353 
z
" style="fill:#21918c;fill-opacity:0.740782;stroke:#21918c;stroke-opacity:0.740782;"/>
    <path clip-path="url(#p707c9c713d)" d="M 195.065282 217.473632 
L 197.30135 213.001496 
L 192.829214 213.001496 
z
" style="fill:#21918c;fill-opacity:0.799903;stroke:#21918c;stroke-opacity:0.799903;"/>
    <path clip-path="url(#p707c9c713d)" d="M 135.29693 146.253238 
L 137.532998 141.781102 
L 133.060862 141.781102 
z
" style="fill:#20a486;fill-opacity:0.476117;stroke:#20a486;stroke-opacity:0.476117;"/>
    <path clip-path="url(#p707c9c713d)" d="M 143.145936 160.096014 
L 145.382004 155.623878 
L 140.909868 155.623878 
z
" style="fill:#20a486;fill-opacity:0.533553;stroke:#20a486;stroke-opacity:0.533553;"/>
    <path clip-path="url(#p707c9c713d)" d="M 151.044632 174.026422 
L 153.2807 169.554286 
L 148.808564 169.554286 
z
" style="fill:#20a486;fill-opacity:0.591353;stroke:#20a486;stroke-opacity:0.591353;"/>
    <path clip-path="url(#p707c9c713d)" d="M 158.993489 188.045298 
L 161.229557 183.573162 
L 156.757421 183.573162 
z
" style="fill:#20a486;fill-opacity:0.64952;stroke:#20a486;stroke-opacity:0.64952;"/>
    <path clip-path="url(#p707c9c713d)" d="M 166.992988 202.153487 
L 169.229056 197.681352 
L 164.75692 197.681352 
z
" style="fill:#20a486;fill-opacity:0.708057;stroke:#20a486;stroke-opacity:0.708057;"/>
    <path clip-path="url(#p707c9c713d)" d="M 175.043614 216.351846 
L 177.279682 211.87971 
L 172.807546 211.87971 
z
" style="fill:#20a486;fill-opacity:0.766969;stroke:#20a486;stroke-opacity:0.766969;"/>
    <path clip-path="url(#p707c9c713d)" d="M 123.502576 159.090862 
L 125.738644 154.618726 
L 121.266508 154.618726 
z
" style="fill:#35b779;fill-opacity:0.501558;stroke:#35b779;stroke-opacity:0.501558;"/>
    <path clip-path="url(#p707c9c713d)" d="M 131.32532 172.993609 
L 133.561388 168.521473 
L 129.089252 168.521473 
z
" style="fill:#35b779;fill-opacity:0.559155;stroke:#35b779;stroke-opacity:0.559155;"/>
    <path clip-path="url(#p707c9c713d)" d="M 139.197656 186.984492 
L 141.433724 182.512356 
L 136.961588 182.512356 
z
" style="fill:#35b779;fill-opacity:0.617117;stroke:#35b779;stroke-opacity:0.617117;"/>
    <path clip-path="url(#p707c9c713d)" d="M 147.120057 201.064353 
L 149.356125 196.592217 
L 144.883989 196.592217 
z
" style="fill:#35b779;fill-opacity:0.675448;stroke:#35b779;stroke-opacity:0.675448;"/>
    <path clip-path="url(#p707c9c713d)" d="M 155.093003 215.234042 
L 157.329071 210.761906 
L 152.856935 210.761906 
z
" style="fill:#35b779;fill-opacity:0.734151;stroke:#35b779;stroke-opacity:0.734151;"/>
    <path clip-path="url(#p707c9c713d)" d="M 111.675207 171.96442 
L 113.911275 167.492284 
L 109.439139 167.492284 
z
" style="fill:#5cc863;fill-opacity:0.52707;stroke:#5cc863;stroke-opacity:0.52707;"/>
    <path clip-path="url(#p707c9c713d)" d="M 119.47151 185.927421 
L 121.707578 181.455285 
L 117.235442 181.455285 
z
" style="fill:#5cc863;fill-opacity:0.584829;stroke:#5cc863;stroke-opacity:0.584829;"/>
    <path clip-path="url(#p707c9c713d)" d="M 127.317308 199.979064 
L 129.553376 195.506928 
L 125.08124 195.506928 
z
" style="fill:#5cc863;fill-opacity:0.642954;stroke:#5cc863;stroke-opacity:0.642954;"/>
    <path clip-path="url(#p707c9c713d)" d="M 135.213072 214.120198 
L 137.44914 209.648062 
L 132.977004 209.648062 
z
" style="fill:#5ec962;fill-opacity:0.70145;stroke:#5ec962;stroke-opacity:0.70145;"/>
    <path clip-path="url(#p707c9c713d)" d="M 99.814685 184.874064 
L 102.050753 180.401928 
L 97.578617 180.401928 
z
" style="fill:#90d743;fill-opacity:0.552654;stroke:#90d743;stroke-opacity:0.552654;"/>
    <path clip-path="url(#p707c9c713d)" d="M 107.584369 198.897602 
L 109.820437 194.425466 
L 105.348301 194.425466 
z
" style="fill:#90d743;fill-opacity:0.610575;stroke:#90d743;stroke-opacity:0.610575;"/>
    <path clip-path="url(#p707c9c713d)" d="M 115.403447 213.010293 
L 117.639515 208.538157 
L 113.167379 208.538157 
z
" style="fill:#90d743;fill-opacity:0.668864;stroke:#90d743;stroke-opacity:0.668864;"/>
    <path clip-path="url(#p707c9c713d)" d="M 87.920871 197.819945 
L 90.156939 193.347809 
L 85.684803 193.347809 
z
" style="fill:#c8e020;fill-opacity:0.578309;stroke:#c8e020;stroke-opacity:0.578309;"/>
    <path clip-path="url(#p707c9c713d)" d="M 95.663754 211.904306 
L 97.899821 207.43217 
L 93.427686 207.43217 
z
" style="fill:#c8e020;fill-opacity:0.636393;stroke:#c8e020;stroke-opacity:0.636393;"/>
    <path clip-path="url(#p707c9c713d)" d="M 75.993623 210.802217 
L 78.229691 206.330081 
L 73.757555 206.330081 
z
" style="fill:#fde725;fill-opacity:0.604037;stroke:#fde725;stroke-opacity:0.604037;"/>
   </g>
   <g id="Path3DCollection_2">
    <defs>
     <path d="M 0 1.118034 
C 0.296506 1.118034 0.580908 1.000231 0.790569 0.790569 
C 1.000231 0.580908 1.118034 0.296506 1.118034 0 
C 1.118034 -0.296506 1.000231 -0.580908 0.790569 -0.790569 
C 0.580908 -1.000231 0.296506 -1.118034 0 -1.118034 
C -0.296506 -1.118034 -0.580908 -1.000231 -0.790569 -0.790569 
C -1.000231 -0.580908 -1.118034 -0.296506 -1.118034 0 
C -1.118034 0.296506 -1.000231 0.580908 -0.790569 0.790569 
C -0.580908 1.000231 -0.296506 1.118034 0 1.118034 
z
" id="C0_0_de8993dcc7"/>
    </defs>
    <g clip-path="url(#p707c9c713d)">
     <use style="fill:#440154;fill-opacity:0.3;stroke:#440154;stroke-opacity:0.3;" x="217.263264" xlink:href="#C0_0_de8993dcc7" y="55.021505"/>
    </g>
    <g clip-path="url(#p707c9c713d)">
     <use style="fill:#440154;fill-opacity:0.354219;stroke:#440154;stroke-opacity:0.354219;" x="225.099281" xlink:href="#C0_0_de8993dcc7" y="67.979835"/>
    </g>
    <g clip-path="url(#p707c9c713d)">
     <use style="fill:#440154;fill-opacity:0.414289;stroke:#440154;stroke-opacity:0.414289;" x="234.072733" xlink:href="#C0_0_de8993dcc7" y="82.208559"/>
    </g>
    <g clip-path="url(#p707c9c713d)">
     <use style="fill:#440256;fill-opacity:0.467046;stroke:#440256;stroke-opacity:0.467046;" x="240.608691" xlink:href="#C0_0_de8993dcc7" y="95.29559"/>
    </g>
    <g clip-path="url(#p707c9c713d)">
     <use style="fill:#440154;fill-opacity:0.526766;stroke:#440154;stroke-opacity:0.526766;" x="249.990987" xlink:href="#C0_0_de8993dcc7" y="109.238958"/>
    </g>
    <g clip-path="url(#p707c9c713d)">
     <use style="fill:#440256;fill-opacity:0.586674;stroke:#440256;stroke-opacity:0.586674;" x="257.697382" xlink:href="#C0_0_de8993dcc7" y="123.97502"/>
    </g>
    <g clip-path="url(#p707c9c713d)">
     <use style="fill:#440154;fill-opacity:0.641206;stroke:#440154;stroke-opacity:0.641206;" x="266.239244" xlink:href="#C0_0_de8993dcc7" y="136.718083"/>
    </g>
    <g clip-path="url(#p707c9c713d)">
     <use style="fill:#450457;fill-opacity:0.701204;stroke:#450457;stroke-opacity:0.701204;" x="273.468878" xlink:href="#C0_0_de8993dcc7" y="151.690939"/>
    </g>
    <g clip-path="url(#p707c9c713d)">
     <use style="fill:#440256;fill-opacity:0.761619;stroke:#440256;stroke-opacity:0.761619;" x="282.866208" xlink:href="#C0_0_de8993dcc7" y="165.837759"/>
    </g>
    <g clip-path="url(#p707c9c713d)">
     <use style="fill:#440154;fill-opacity:0.816526;stroke:#440154;stroke-opacity:0.816526;" x="291.800634" xlink:href="#C0_0_de8993dcc7" y="178.521909"/>
    </g>
    <g clip-path="url(#p707c9c713d)">
     <use style="fill:#440154;fill-opacity:0.880283;stroke:#440154;stroke-opacity:0.880283;" x="300.294773" xlink:href="#C0_0_de8993dcc7" y="194.076263"/>
    </g>
    <g clip-path="url(#p707c9c713d)">
     <use style="fill:#440256;fill-opacity:0.937202;stroke:#440256;stroke-opacity:0.937202;" x="307.821006" xlink:href="#C0_0_de8993dcc7" y="207.987271"/>
    </g>
    <g clip-path="url(#p707c9c713d)">
     <use style="fill:#440154;stroke:#440154;" x="317.858858" xlink:href="#C0_0_de8993dcc7" y="222.573785"/>
    </g>
    <g clip-path="url(#p707c9c713d)">
     <use style="fill:#482071;fill-opacity:0.324313;stroke:#482071;stroke-opacity:0.324313;" x="205.017879" xlink:href="#C0_0_de8993dcc7" y="67.752851"/>
    </g>
    <g clip-path="url(#p707c9c713d)">
     <use style="fill:#482071;fill-opacity:0.379553;stroke:#482071;stroke-opacity:0.379553;" x="213.310879" xlink:href="#C0_0_de8993dcc7" y="80.819344"/>
    </g>
    <g clip-path="url(#p707c9c713d)">
     <use style="fill:#482071;fill-opacity:0.437711;stroke:#482071;stroke-opacity:0.437711;" x="221.103976" xlink:href="#C0_0_de8993dcc7" y="94.988208"/>
    </g>
    <g clip-path="url(#p707c9c713d)">
     <use style="fill:#482071;fill-opacity:0.49187;stroke:#482071;stroke-opacity:0.49187;" x="229.413448" xlink:href="#C0_0_de8993dcc7" y="107.720366"/>
    </g>
    <g clip-path="url(#p707c9c713d)">
     <use style="fill:#482475;fill-opacity:0.548907;stroke:#482475;stroke-opacity:0.548907;" x="235.314061" xlink:href="#C0_0_de8993dcc7" y="122.381183"/>
    </g>
    <g clip-path="url(#p707c9c713d)">
     <use style="fill:#482071;fill-opacity:0.611677;stroke:#482071;stroke-opacity:0.611677;" x="246.450802" xlink:href="#C0_0_de8993dcc7" y="136.476603"/>
    </g>
    <g clip-path="url(#p707c9c713d)">
     <use style="fill:#482071;fill-opacity:0.668361;stroke:#482071;stroke-opacity:0.668361;" x="254.084415" xlink:href="#C0_0_de8993dcc7" y="150.269209"/>
    </g>
    <g clip-path="url(#p707c9c713d)">
     <use style="fill:#482071;fill-opacity:0.727764;stroke:#482071;stroke-opacity:0.727764;" x="262.355103" xlink:href="#C0_0_de8993dcc7" y="164.604967"/>
    </g>
    <g clip-path="url(#p707c9c713d)">
     <use style="fill:#482173;fill-opacity:0.78508;stroke:#482173;stroke-opacity:0.78508;" x="270.151657" xlink:href="#C0_0_de8993dcc7" y="178.517469"/>
    </g>
    <g clip-path="url(#p707c9c713d)">
     <use style="fill:#482071;fill-opacity:0.845094;stroke:#482071;stroke-opacity:0.845094;" x="279.554003" xlink:href="#C0_0_de8993dcc7" y="192.540816"/>
    </g>
    <g clip-path="url(#p707c9c713d)">
     <use style="fill:#482173;fill-opacity:0.902756;stroke:#482173;stroke-opacity:0.902756;" x="287.159682" xlink:href="#C0_0_de8993dcc7" y="206.641751"/>
    </g>
    <g clip-path="url(#p707c9c713d)">
     <use style="fill:#481f70;fill-opacity:0.965738;stroke:#481f70;stroke-opacity:0.965738;" x="297.429575" xlink:href="#C0_0_de8993dcc7" y="221.182017"/>
    </g>
    <g clip-path="url(#p707c9c713d)">
     <use style="fill:#443b84;fill-opacity:0.350275;stroke:#443b84;stroke-opacity:0.350275;" x="193.185235" xlink:href="#C0_0_de8993dcc7" y="80.801514"/>
    </g>
    <g clip-path="url(#p707c9c713d)">
     <use style="fill:#433d84;fill-opacity:0.402979;stroke:#433d84;stroke-opacity:0.402979;" x="200.216798" xlink:href="#C0_0_de8993dcc7" y="93.655161"/>
    </g>
    <g clip-path="url(#p707c9c713d)">
     <use style="fill:#453882;fill-opacity:0.46155;stroke:#453882;stroke-opacity:0.46155;" x="210.925115" xlink:href="#C0_0_de8993dcc7" y="106.668548"/>
    </g>
    <g clip-path="url(#p707c9c713d)">
     <use style="fill:#443b84;fill-opacity:0.51886;stroke:#443b84;stroke-opacity:0.51886;" x="217.256453" xlink:href="#C0_0_de8993dcc7" y="121.222663"/>
    </g>
    <g clip-path="url(#p707c9c713d)">
     <use style="fill:#443a83;fill-opacity:0.57398;stroke:#443a83;stroke-opacity:0.57398;" x="225.53608" xlink:href="#C0_0_de8993dcc7" y="134.258695"/>
    </g>
    <g clip-path="url(#p707c9c713d)">
     <use style="fill:#443a83;fill-opacity:0.635213;stroke:#443a83;stroke-opacity:0.635213;" x="233.955836" xlink:href="#C0_0_de8993dcc7" y="149.08245"/>
    </g>
    <g clip-path="url(#p707c9c713d)">
     <use style="fill:#443a83;fill-opacity:0.694456;stroke:#443a83;stroke-opacity:0.694456;" x="242.956546" xlink:href="#C0_0_de8993dcc7" y="163.048882"/>
    </g>
    <g clip-path="url(#p707c9c713d)">
     <use style="fill:#443a83;fill-opacity:0.747828;stroke:#443a83;stroke-opacity:0.747828;" x="250.345854" xlink:href="#C0_0_de8993dcc7" y="175.94732"/>
    </g>
    <g clip-path="url(#p707c9c713d)">
     <use style="fill:#443b84;fill-opacity:0.811432;stroke:#443b84;stroke-opacity:0.811432;" x="258.462528" xlink:href="#C0_0_de8993dcc7" y="191.621044"/>
    </g>
    <g clip-path="url(#p707c9c713d)">
     <use style="fill:#443983;fill-opacity:0.869014;stroke:#443983;stroke-opacity:0.869014;" x="267.861296" xlink:href="#C0_0_de8993dcc7" y="204.910543"/>
    </g>
    <g clip-path="url(#p707c9c713d)">
     <use style="fill:#443a83;fill-opacity:0.927121;stroke:#443a83;stroke-opacity:0.927121;" x="275.742661" xlink:href="#C0_0_de8993dcc7" y="219.025054"/>
    </g>
    <g clip-path="url(#p707c9c713d)">
     <use style="fill:#3b528b;fill-opacity:0.374046;stroke:#3b528b;stroke-opacity:0.374046;" x="182.339346" xlink:href="#C0_0_de8993dcc7" y="92.754443"/>
    </g>
    <g clip-path="url(#p707c9c713d)">
     <use style="fill:#3b518b;fill-opacity:0.430517;stroke:#3b518b;stroke-opacity:0.430517;" x="190.705322" xlink:href="#C0_0_de8993dcc7" y="106.16113"/>
    </g>
    <g clip-path="url(#p707c9c713d)">
     <use style="fill:#3b528b;fill-opacity:0.487579;stroke:#3b528b;stroke-opacity:0.487579;" x="198.613037" xlink:href="#C0_0_de8993dcc7" y="119.948261"/>
    </g>
    <g clip-path="url(#p707c9c713d)">
     <use style="fill:#3a548c;fill-opacity:0.547548;stroke:#3a548c;stroke-opacity:0.547548;" x="205.331377" xlink:href="#C0_0_de8993dcc7" y="135.136464"/>
    </g>
    <g clip-path="url(#p707c9c713d)">
     <use style="fill:#3a538b;fill-opacity:0.611631;stroke:#3a538b;stroke-opacity:0.611631;" x="215.100501" xlink:href="#C0_0_de8993dcc7" y="150.229493"/>
    </g>
    <g clip-path="url(#p707c9c713d)">
     <use style="fill:#3c508b;fill-opacity:0.665475;stroke:#3c508b;stroke-opacity:0.665475;" x="224.81106" xlink:href="#C0_0_de8993dcc7" y="162.251543"/>
    </g>
    <g clip-path="url(#p707c9c713d)">
     <use style="fill:#3b528b;fill-opacity:0.720263;stroke:#3b528b;stroke-opacity:0.720263;" x="231.36972" xlink:href="#C0_0_de8993dcc7" y="175.942812"/>
    </g>
    <g clip-path="url(#p707c9c713d)">
     <use style="fill:#3b518b;fill-opacity:0.782484;stroke:#3b518b;stroke-opacity:0.782484;" x="240.833196" xlink:href="#C0_0_de8993dcc7" y="190.606897"/>
    </g>
    <g clip-path="url(#p707c9c713d)">
     <use style="fill:#3b528b;fill-opacity:0.837634;stroke:#3b528b;stroke-opacity:0.837634;" x="247.18012" xlink:href="#C0_0_de8993dcc7" y="204.50083"/>
    </g>
    <g clip-path="url(#p707c9c713d)">
     <use style="fill:#3a548c;fill-opacity:0.894798;stroke:#3a548c;stroke-opacity:0.894798;" x="254.415474" xlink:href="#C0_0_de8993dcc7" y="218.613795"/>
    </g>
    <g clip-path="url(#p707c9c713d)">
     <use style="fill:#30698e;fill-opacity:0.400532;stroke:#30698e;stroke-opacity:0.400532;" x="170.286669" xlink:href="#C0_0_de8993dcc7" y="106.058349"/>
    </g>
    <g clip-path="url(#p707c9c713d)">
     <use style="fill:#30698e;fill-opacity:0.454229;stroke:#30698e;stroke-opacity:0.454229;" x="177.530625" xlink:href="#C0_0_de8993dcc7" y="119.118971"/>
    </g>
    <g clip-path="url(#p707c9c713d)">
     <use style="fill:#30698e;fill-opacity:0.517578;stroke:#30698e;stroke-opacity:0.517578;" x="186.72847" xlink:href="#C0_0_de8993dcc7" y="134.240711"/>
    </g>
    <g clip-path="url(#p707c9c713d)">
     <use style="fill:#306a8e;fill-opacity:0.567294;stroke:#306a8e;stroke-opacity:0.567294;" x="192.653151" xlink:href="#C0_0_de8993dcc7" y="146.676639"/>
    </g>
    <g clip-path="url(#p707c9c713d)">
     <use style="fill:#30698e;fill-opacity:0.630107;stroke:#30698e;stroke-opacity:0.630107;" x="202.375634" xlink:href="#C0_0_de8993dcc7" y="161.405862"/>
    </g>
    <g clip-path="url(#p707c9c713d)">
     <use style="fill:#306a8e;fill-opacity:0.695842;stroke:#306a8e;stroke-opacity:0.695842;" x="210.764059" xlink:href="#C0_0_de8993dcc7" y="177.604943"/>
    </g>
    <g clip-path="url(#p707c9c713d)">
     <use style="fill:#31678e;fill-opacity:0.746292;stroke:#31678e;stroke-opacity:0.746292;" x="219.740246" xlink:href="#C0_0_de8993dcc7" y="188.922822"/>
    </g>
    <g clip-path="url(#p707c9c713d)">
     <use style="fill:#31688e;fill-opacity:0.805431;stroke:#31688e;stroke-opacity:0.805431;" x="227.758996" xlink:href="#C0_0_de8993dcc7" y="203.289059"/>
    </g>
    <g clip-path="url(#p707c9c713d)">
     <use style="fill:#31688e;fill-opacity:0.863893;stroke:#31688e;stroke-opacity:0.863893;" x="236.107293" xlink:href="#C0_0_de8993dcc7" y="217.305996"/>
    </g>
    <g clip-path="url(#p707c9c713d)">
     <use style="fill:#287c8e;fill-opacity:0.424683;stroke:#287c8e;stroke-opacity:0.424683;" x="159.150842" xlink:href="#C0_0_de8993dcc7" y="118.253542"/>
    </g>
    <g clip-path="url(#p707c9c713d)">
     <use style="fill:#287c8e;fill-opacity:0.47893;stroke:#287c8e;stroke-opacity:0.47893;" x="167.225919" xlink:href="#C0_0_de8993dcc7" y="131.11539"/>
    </g>
    <g clip-path="url(#p707c9c713d)">
     <use style="fill:#277e8e;fill-opacity:0.540823;stroke:#277e8e;stroke-opacity:0.540823;" x="174.255426" xlink:href="#C0_0_de8993dcc7" y="146.748917"/>
    </g>
    <g clip-path="url(#p707c9c713d)">
     <use style="fill:#287c8e;fill-opacity:0.597996;stroke:#287c8e;stroke-opacity:0.597996;" x="183.20328" xlink:href="#C0_0_de8993dcc7" y="160.112665"/>
    </g>
    <g clip-path="url(#p707c9c713d)">
     <use style="fill:#277e8e;fill-opacity:0.657675;stroke:#277e8e;stroke-opacity:0.657675;" x="190.426457" xlink:href="#C0_0_de8993dcc7" y="174.9917"/>
    </g>
    <g clip-path="url(#p707c9c713d)">
     <use style="fill:#277e8e;fill-opacity:0.712372;stroke:#277e8e;stroke-opacity:0.712372;" x="197.630438" xlink:href="#C0_0_de8993dcc7" y="188.372313"/>
    </g>
    <g clip-path="url(#p707c9c713d)">
     <use style="fill:#277e8e;fill-opacity:0.77322;stroke:#277e8e;stroke-opacity:0.77322;" x="206.678494" xlink:href="#C0_0_de8993dcc7" y="202.803496"/>
    </g>
    <g clip-path="url(#p707c9c713d)">
     <use style="fill:#287c8e;fill-opacity:0.829007;stroke:#287c8e;stroke-opacity:0.829007;" x="215.830259" xlink:href="#C0_0_de8993dcc7" y="215.65828"/>
    </g>
    <g clip-path="url(#p707c9c713d)">
     <use style="fill:#218f8d;fill-opacity:0.451721;stroke:#218f8d;stroke-opacity:0.451721;" x="148.593329" xlink:href="#C0_0_de8993dcc7" y="131.067563"/>
    </g>
    <g clip-path="url(#p707c9c713d)">
     <use style="fill:#20928c;fill-opacity:0.507243;stroke:#20928c;stroke-opacity:0.507243;" x="153.986616" xlink:href="#C0_0_de8993dcc7" y="145.492854"/>
    </g>
    <g clip-path="url(#p707c9c713d)">
     <use style="fill:#20928c;fill-opacity:0.56332;stroke:#20928c;stroke-opacity:0.56332;" x="161.179275" xlink:href="#C0_0_de8993dcc7" y="159.295959"/>
    </g>
    <g clip-path="url(#p707c9c713d)">
     <use style="fill:#21908d;fill-opacity:0.616802;stroke:#21908d;stroke-opacity:0.616802;" x="171.053193" xlink:href="#C0_0_de8993dcc7" y="171.136354"/>
    </g>
    <g clip-path="url(#p707c9c713d)">
     <use style="fill:#20928c;fill-opacity:0.675421;stroke:#20928c;stroke-opacity:0.675421;" x="177.037318" xlink:href="#C0_0_de8993dcc7" y="186.238988"/>
    </g>
    <g clip-path="url(#p707c9c713d)">
     <use style="fill:#21918c;fill-opacity:0.735978;stroke:#21918c;stroke-opacity:0.735978;" x="186.833173" xlink:href="#C0_0_de8993dcc7" y="200.253876"/>
    </g>
    <g clip-path="url(#p707c9c713d)">
     <use style="fill:#21908d;fill-opacity:0.795236;stroke:#21908d;stroke-opacity:0.795236;" x="195.450093" xlink:href="#C0_0_de8993dcc7" y="214.39344"/>
    </g>
    <g clip-path="url(#p707c9c713d)">
     <use style="fill:#21a685;fill-opacity:0.480242;stroke:#21a685;stroke-opacity:0.480242;" x="134.795413" xlink:href="#C0_0_de8993dcc7" y="145.753547"/>
    </g>
    <g clip-path="url(#p707c9c713d)">
     <use style="fill:#21a585;fill-opacity:0.534426;stroke:#21a585;stroke-opacity:0.534426;" x="142.83383" xlink:href="#C0_0_de8993dcc7" y="158.612624"/>
    </g>
    <g clip-path="url(#p707c9c713d)">
     <use style="fill:#20a386;fill-opacity:0.591464;stroke:#20a386;stroke-opacity:0.591464;" x="152.081082" xlink:href="#C0_0_de8993dcc7" y="171.803957"/>
    </g>
    <g clip-path="url(#p707c9c713d)">
     <use style="fill:#21a585;fill-opacity:0.64666;stroke:#21a585;stroke-opacity:0.64666;" x="158.189884" xlink:href="#C0_0_de8993dcc7" y="185.816163"/>
    </g>
    <g clip-path="url(#p707c9c713d)">
     <use style="fill:#20a386;fill-opacity:0.7085;stroke:#20a386;stroke-opacity:0.7085;" x="168.439942" xlink:href="#C0_0_de8993dcc7" y="200.019578"/>
    </g>
    <g clip-path="url(#p707c9c713d)">
     <use style="fill:#21a585;fill-opacity:0.768663;stroke:#21a585;stroke-opacity:0.768663;" x="174.814206" xlink:href="#C0_0_de8993dcc7" y="215.417972"/>
    </g>
    <g clip-path="url(#p707c9c713d)">
     <use style="fill:#35b779;fill-opacity:0.500107;stroke:#35b779;stroke-opacity:0.500107;" x="123.788477" xlink:href="#C0_0_de8993dcc7" y="156.595745"/>
    </g>
    <g clip-path="url(#p707c9c713d)">
     <use style="fill:#35b779;fill-opacity:0.555962;stroke:#35b779;stroke-opacity:0.555962;" x="131.509014" xlink:href="#C0_0_de8993dcc7" y="170.099473"/>
    </g>
    <g clip-path="url(#p707c9c713d)">
     <use style="fill:#34b679;fill-opacity:0.615477;stroke:#34b679;stroke-opacity:0.615477;" x="140.180693" xlink:href="#C0_0_de8993dcc7" y="184.292922"/>
    </g>
    <g clip-path="url(#p707c9c713d)">
     <use style="fill:#35b779;fill-opacity:0.671227;stroke:#35b779;stroke-opacity:0.671227;" x="147.011017" xlink:href="#C0_0_de8993dcc7" y="198.156194"/>
    </g>
    <g clip-path="url(#p707c9c713d)">
     <use style="fill:#35b779;fill-opacity:0.728824;stroke:#35b779;stroke-opacity:0.728824;" x="155.237907" xlink:href="#C0_0_de8993dcc7" y="211.96459"/>
    </g>
    <g clip-path="url(#p707c9c713d)">
     <use style="fill:#5cc863;fill-opacity:0.526517;stroke:#5cc863;stroke-opacity:0.526517;" x="112.003378" xlink:href="#C0_0_de8993dcc7" y="169.759053"/>
    </g>
    <g clip-path="url(#p707c9c713d)">
     <use style="fill:#60ca60;fill-opacity:0.582251;stroke:#60ca60;stroke-opacity:0.582251;" x="118.274698" xlink:href="#C0_0_de8993dcc7" y="183.86273"/>
    </g>
    <g clip-path="url(#p707c9c713d)">
     <use style="fill:#5ec962;fill-opacity:0.643902;stroke:#5ec962;stroke-opacity:0.643902;" x="127.546144" xlink:href="#C0_0_de8993dcc7" y="198.438881"/>
    </g>
    <g clip-path="url(#p707c9c713d)">
     <use style="fill:#5ec962;fill-opacity:0.698375;stroke:#5ec962;stroke-opacity:0.698375;" x="134.738276" xlink:href="#C0_0_de8993dcc7" y="211.756757"/>
    </g>
    <g clip-path="url(#p707c9c713d)">
     <use style="fill:#90d743;fill-opacity:0.550917;stroke:#90d743;stroke-opacity:0.550917;" x="99.591274" xlink:href="#C0_0_de8993dcc7" y="182.589854"/>
    </g>
    <g clip-path="url(#p707c9c713d)">
     <use style="fill:#8ed645;fill-opacity:0.61204;stroke:#8ed645;stroke-opacity:0.61204;" x="108.976554" xlink:href="#C0_0_de8993dcc7" y="196.956121"/>
    </g>
    <g clip-path="url(#p707c9c713d)">
     <use style="fill:#90d743;fill-opacity:0.666796;stroke:#90d743;stroke-opacity:0.666796;" x="115.291502" xlink:href="#C0_0_de8993dcc7" y="210.74509"/>
    </g>
    <g clip-path="url(#p707c9c713d)">
     <use style="fill:#cae11f;fill-opacity:0.576232;stroke:#cae11f;stroke-opacity:0.576232;" x="87.418035" xlink:href="#C0_0_de8993dcc7" y="195.592629"/>
    </g>
    <g clip-path="url(#p707c9c713d)">
     <use style="fill:#c8e020;fill-opacity:0.636919;stroke:#c8e020;stroke-opacity:0.636919;" x="95.750568" xlink:href="#C0_0_de8993dcc7" y="210.289399"/>
    </g>
    <g clip-path="url(#p707c9c713d)">
     <use style="fill:#fde725;fill-opacity:0.603177;stroke:#fde725;stroke-opacity:0.603177;" x="75.961019" xlink:href="#C0_0_de8993dcc7" y="208.773932"/>
    </g>
   </g>
   <g id="legend_1">
    <g id="patch_6">
     <path d="M 20.5 59 
L 205.3 59 
Q 208.1 59 208.1 56.2 
L 208.1 20.5 
Q 208.1 17.7 205.3 17.7 
L 20.5 17.7 
Q 17.7 17.7 17.7 20.5 
L 17.7 56.2 
Q 17.7 59 20.5 59 
z
" style="fill:#ffffff;opacity:0.8;stroke:#cccccc;stroke-linejoin:miter;"/>
    </g>
    <g id="Path3DCollection_3">
     <path d="M 37.3 30.543034 
C 37.596506 30.543034 37.880908 30.425231 38.090569 30.215569 
C 38.300231 30.005908 38.418034 29.721506 38.418034 29.425 
C 38.418034 29.128494 38.300231 28.844092 38.090569 28.634431 
C 37.880908 28.424769 37.596506 28.306966 37.3 28.306966 
C 37.003494 28.306966 36.719092 28.424769 36.509431 28.634431 
C 36.299769 28.844092 36.181966 29.128494 36.181966 29.425 
C 36.181966 29.721506 36.299769 30.005908 36.509431 30.215569 
C 36.719092 30.425231 37.003494 30.543034 37.3 30.543034 
z
" style="fill:#440154;stroke:#440154;"/>
    </g>
    <g id="text_22">
     <!-- Program simulation -->
     <defs>
      <path d="M 46.09375 48.4375 
Q 46.09375 39.0625 40.625 33.59375 
Q 35.15625 28.125 25.390625 28.125 
L 14.0625 28.125 
L 14.0625 1.953125 
L 5.078125 1.953125 
L 5.078125 68.75 
L 25.390625 68.75 
Q 35.15625 68.75 40.625 63.28125 
Q 46.09375 57.8125 46.09375 48.4375 
z
M 37.109375 48.4375 
Q 37.109375 55.859375 33.59375 58.59375 
Q 30.078125 61.328125 23.046875 61.328125 
L 14.0625 61.328125 
L 14.0625 35.546875 
L 23.046875 35.546875 
Q 30.078125 35.546875 33.59375 38.28125 
Q 37.109375 41.015625 37.109375 48.4375 
z
" id="SimHei-50"/>
      <path d="M 39.0625 37.890625 
Q 31.640625 39.0625 26.5625 35.734375 
Q 21.484375 32.421875 17.96875 24.21875 
L 17.96875 1.953125 
L 10.15625 1.953125 
L 10.15625 45.703125 
L 17.96875 45.703125 
L 17.96875 34.375 
Q 21.484375 40.625 26.75 43.546875 
Q 32.03125 46.484375 39.0625 46.484375 
z
" id="SimHei-72"/>
      <path d="M 46.484375 39.0625 
Q 43.75 39.84375 41.203125 40.03125 
Q 38.671875 40.234375 35.9375 39.453125 
Q 37.109375 38.28125 37.890625 36.515625 
Q 38.671875 34.765625 38.671875 31.25 
Q 38.671875 24.609375 34.171875 20.3125 
Q 29.6875 16.015625 23.046875 16.015625 
Q 21.484375 16.015625 18.9375 16.59375 
Q 16.40625 17.1875 14.84375 17.96875 
Q 13.671875 17.1875 13.28125 16.40625 
Q 12.890625 15.625 12.890625 14.453125 
Q 12.890625 12.5 15.625 11.515625 
Q 18.359375 10.546875 25.390625 10.546875 
Q 36.71875 10.546875 40.8125 7.421875 
Q 44.921875 4.296875 44.921875 -0.390625 
Q 44.921875 -6.640625 38.859375 -9.5625 
Q 32.8125 -12.5 24.609375 -12.5 
Q 14.0625 -12.5 8.984375 -9.765625 
Q 3.90625 -7.03125 3.90625 -2.34375 
Q 3.90625 0 5.859375 2.34375 
Q 7.8125 4.6875 10.9375 6.25 
Q 8.59375 7.421875 7.21875 9.171875 
Q 5.859375 10.9375 5.859375 13.671875 
Q 5.859375 16.015625 7.609375 17.765625 
Q 9.375 19.53125 11.71875 20.703125 
Q 9.765625 22.65625 8.59375 25.390625 
Q 7.421875 28.125 7.421875 31.25 
Q 7.421875 37.890625 11.90625 42.1875 
Q 16.40625 46.484375 23.046875 46.484375 
Q 26.5625 46.484375 29.09375 45.5 
Q 31.640625 44.53125 33.59375 42.578125 
Q 36.71875 44.921875 39.84375 45.890625 
Q 42.96875 46.875 46.484375 46.484375 
z
M 30.859375 31.25 
Q 30.859375 35.15625 28.90625 37.5 
Q 26.953125 39.84375 23.046875 39.84375 
Q 19.140625 39.84375 17.1875 37.5 
Q 15.234375 35.15625 15.234375 31.25 
Q 15.234375 27.34375 17.1875 25 
Q 19.140625 22.65625 23.046875 22.65625 
Q 26.953125 22.65625 28.90625 25 
Q 30.859375 27.34375 30.859375 31.25 
z
M 37.5 -1.171875 
Q 37.5 0.390625 35.734375 1.953125 
Q 33.984375 3.515625 26.953125 3.515625 
Q 25.390625 3.515625 22.65625 3.703125 
Q 19.921875 3.90625 16.40625 4.296875 
Q 13.28125 3.125 12.109375 1.5625 
Q 10.9375 0 10.9375 -1.5625 
Q 10.9375 -3.90625 14.0625 -5.46875 
Q 17.1875 -7.03125 25 -7.03125 
Q 31.640625 -7.03125 34.5625 -5.265625 
Q 37.5 -3.515625 37.5 -1.171875 
z
" id="SimHei-67"/>
      <path d="M 44.921875 1.953125 
L 35.546875 1.953125 
Q 34.765625 2.734375 34.375 4.09375 
Q 33.984375 5.46875 33.984375 7.421875 
Q 31.25 4.296875 27.34375 2.734375 
Q 23.4375 1.171875 19.140625 1.171875 
Q 12.890625 1.171875 8.59375 4.296875 
Q 4.296875 7.421875 4.296875 13.28125 
Q 4.296875 19.140625 8.203125 22.65625 
Q 12.109375 26.171875 20.3125 27.34375 
Q 25.78125 28.125 29.875 29.296875 
Q 33.984375 30.46875 33.984375 32.421875 
Q 33.984375 34.765625 32.21875 37.109375 
Q 30.46875 39.453125 24.609375 39.453125 
Q 19.921875 39.453125 17.765625 37.6875 
Q 15.625 35.9375 14.84375 32.8125 
L 6.25 32.8125 
Q 7.03125 39.0625 11.90625 42.765625 
Q 16.796875 46.484375 24.609375 46.484375 
Q 33.203125 46.484375 37.5 42.578125 
Q 41.796875 38.671875 41.796875 31.640625 
L 41.796875 10.15625 
Q 41.796875 7.8125 42.578125 5.859375 
Q 43.359375 3.90625 44.921875 1.953125 
z
M 33.984375 16.40625 
L 33.984375 24.21875 
Q 31.640625 23.4375 29.484375 22.84375 
Q 27.34375 22.265625 22.265625 21.484375 
Q 16.40625 20.703125 14.640625 18.75 
Q 12.890625 16.796875 12.890625 14.0625 
Q 12.890625 11.71875 14.640625 9.953125 
Q 16.40625 8.203125 19.921875 8.203125 
Q 23.4375 8.203125 27.53125 10.15625 
Q 31.640625 12.109375 33.984375 16.40625 
z
" id="SimHei-61"/>
      <path d="M 47.65625 1.953125 
L 39.84375 1.953125 
L 39.84375 33.59375 
Q 39.84375 35.9375 39.0625 37.5 
Q 38.28125 39.0625 35.9375 39.0625 
Q 33.203125 39.0625 30.859375 36.125 
Q 28.515625 33.203125 28.515625 28.515625 
L 28.515625 1.953125 
L 20.703125 1.953125 
L 20.703125 33.59375 
Q 20.703125 35.9375 19.921875 37.5 
Q 19.140625 39.0625 16.796875 39.0625 
Q 14.0625 39.0625 11.71875 36.125 
Q 9.375 33.203125 9.375 28.515625 
L 9.375 1.953125 
L 1.5625 1.953125 
L 1.5625 45.703125 
L 9.375 45.703125 
L 9.375 39.84375 
Q 11.328125 42.96875 14.0625 44.71875 
Q 16.796875 46.484375 19.921875 46.484375 
Q 23.046875 46.484375 25.1875 44.71875 
Q 27.34375 42.96875 28.125 39.84375 
Q 30.078125 42.96875 32.609375 44.71875 
Q 35.15625 46.484375 38.28125 46.484375 
Q 42.96875 46.484375 45.3125 43.9375 
Q 47.65625 41.40625 47.65625 36.71875 
z
" id="SimHei-6d"/>
      <path d="M 43.75 1.953125 
L 35.9375 1.953125 
L 35.9375 10.15625 
Q 32.8125 5.859375 29.09375 3.515625 
Q 25.390625 1.171875 19.53125 1.171875 
Q 12.5 1.171875 8.984375 5.078125 
Q 5.46875 8.984375 5.46875 14.84375 
L 5.46875 45.703125 
L 13.28125 45.703125 
L 13.28125 17.578125 
Q 13.28125 12.890625 15.625 10.15625 
Q 17.96875 7.421875 21.875 7.421875 
Q 26.953125 7.421875 31.4375 12.6875 
Q 35.9375 17.96875 35.9375 25.78125 
L 35.9375 45.703125 
L 43.75 45.703125 
z
" id="SimHei-75"/>
      <path d="M 28.515625 1.953125 
L 20.703125 1.953125 
L 20.703125 68.75 
L 28.515625 68.75 
z
" id="SimHei-6c"/>
      <path d="M 42.96875 3.125 
Q 41.015625 2.34375 38.46875 1.75 
Q 35.9375 1.171875 31.640625 1.171875 
Q 24.609375 1.171875 20.3125 5.078125 
Q 16.015625 8.984375 16.015625 16.015625 
L 16.015625 39.453125 
L 2.734375 39.453125 
L 2.734375 45.703125 
L 16.015625 45.703125 
L 16.015625 60.9375 
L 23.828125 60.9375 
L 23.828125 45.703125 
L 39.84375 45.703125 
L 39.84375 39.453125 
L 23.828125 39.453125 
L 23.828125 15.625 
Q 23.828125 12.5 25.390625 10.34375 
Q 26.953125 8.203125 31.25 8.203125 
Q 35.546875 8.203125 38.28125 8.984375 
Q 41.015625 9.765625 42.96875 10.9375 
z
" id="SimHei-74"/>
     </defs>
     <g transform="translate(62.5 33.1)scale(0.14 -0.14)">
      <use xlink:href="#SimHei-50"/>
      <use x="50" xlink:href="#SimHei-72"/>
      <use x="100" xlink:href="#SimHei-6f"/>
      <use x="150" xlink:href="#SimHei-67"/>
      <use x="200" xlink:href="#SimHei-72"/>
      <use x="250" xlink:href="#SimHei-61"/>
      <use x="300" xlink:href="#SimHei-6d"/>
      <use x="350" xlink:href="#SimHei-20"/>
      <use x="400" xlink:href="#SimHei-73"/>
      <use x="450" xlink:href="#SimHei-69"/>
      <use x="500" xlink:href="#SimHei-6d"/>
      <use x="550" xlink:href="#SimHei-75"/>
      <use x="600" xlink:href="#SimHei-6c"/>
      <use x="650" xlink:href="#SimHei-61"/>
      <use x="700" xlink:href="#SimHei-74"/>
      <use x="750" xlink:href="#SimHei-69"/>
      <use x="800" xlink:href="#SimHei-6f"/>
      <use x="850" xlink:href="#SimHei-6e"/>
     </g>
    </g>
    <g id="Path3DCollection_4">
     <path d="M 37.3 50.211068 
L 39.536068 45.738932 
L 35.063932 45.738932 
z
" style="fill:#440154;stroke:#440154;"/>
    </g>
    <g id="text_23">
     <!-- Theoretical analysis -->
     <defs>
      <path d="M 44.53125 61.328125 
L 28.90625 61.328125 
L 28.90625 1.953125 
L 19.921875 1.953125 
L 19.921875 61.328125 
L 4.296875 61.328125 
L 4.296875 68.75 
L 44.53125 68.75 
z
" id="SimHei-54"/>
      <path d="M 43.75 1.953125 
L 35.9375 1.953125 
L 35.9375 30.078125 
Q 35.9375 34.765625 33.59375 37.5 
Q 31.25 40.234375 27.34375 40.234375 
Q 22.265625 40.234375 17.765625 34.953125 
Q 13.28125 29.6875 13.28125 21.875 
L 13.28125 1.953125 
L 5.46875 1.953125 
L 5.46875 68.75 
L 13.28125 68.75 
L 13.28125 37.5 
Q 16.40625 41.796875 20.109375 44.140625 
Q 23.828125 46.484375 29.6875 46.484375 
Q 36.71875 46.484375 40.234375 42.578125 
Q 43.75 38.671875 43.75 32.8125 
z
" id="SimHei-68"/>
      <path d="M 44.53125 16.796875 
Q 43.75 9.765625 38.28125 5.46875 
Q 32.8125 1.171875 25.390625 1.171875 
Q 16.015625 1.171875 9.953125 7.21875 
Q 3.90625 13.28125 3.90625 23.828125 
Q 3.90625 34.375 9.953125 40.421875 
Q 16.015625 46.484375 25.390625 46.484375 
Q 33.59375 46.484375 38.859375 41.203125 
Q 44.140625 35.9375 44.140625 23.828125 
L 12.5 23.828125 
Q 12.5 15.234375 16.203125 11.71875 
Q 19.921875 8.203125 25.390625 8.203125 
Q 29.6875 8.203125 32.421875 10.34375 
Q 35.15625 12.5 35.9375 16.796875 
z
M 35.15625 30.078125 
Q 34.375 35.546875 31.640625 37.6875 
Q 28.90625 39.84375 24.609375 39.84375 
Q 20.703125 39.84375 17.578125 37.6875 
Q 14.453125 35.546875 12.890625 30.078125 
z
" id="SimHei-65"/>
      <path d="M 45.3125 45.703125 
L 27.34375 -1.5625 
Q 25.78125 -7.03125 22.65625 -9.765625 
Q 19.53125 -12.5 14.84375 -12.5 
Q 12.890625 -12.5 11.125 -12.296875 
Q 9.375 -12.109375 7.8125 -11.328125 
L 7.8125 -3.515625 
Q 9.375 -4.296875 10.9375 -4.6875 
Q 12.5 -5.078125 13.671875 -5.078125 
Q 16.796875 -5.078125 17.96875 -4.09375 
Q 19.140625 -3.125 20.3125 0.390625 
L 3.125 45.703125 
L 11.71875 45.703125 
L 24.21875 11.328125 
L 24.609375 11.328125 
L 36.71875 45.703125 
z
" id="SimHei-79"/>
     </defs>
     <g transform="translate(62.5 51.65)scale(0.14 -0.14)">
      <use xlink:href="#SimHei-54"/>
      <use x="50" xlink:href="#SimHei-68"/>
      <use x="100" xlink:href="#SimHei-65"/>
      <use x="150" xlink:href="#SimHei-6f"/>
      <use x="200" xlink:href="#SimHei-72"/>
      <use x="250" xlink:href="#SimHei-65"/>
      <use x="300" xlink:href="#SimHei-74"/>
      <use x="350" xlink:href="#SimHei-69"/>
      <use x="400" xlink:href="#SimHei-63"/>
      <use x="450" xlink:href="#SimHei-61"/>
      <use x="500" xlink:href="#SimHei-6c"/>
      <use x="550" xlink:href="#SimHei-20"/>
      <use x="600" xlink:href="#SimHei-61"/>
      <use x="650" xlink:href="#SimHei-6e"/>
      <use x="700" xlink:href="#SimHei-61"/>
      <use x="750" xlink:href="#SimHei-6c"/>
      <use x="800" xlink:href="#SimHei-79"/>
      <use x="850" xlink:href="#SimHei-73"/>
      <use x="900" xlink:href="#SimHei-69"/>
      <use x="950" xlink:href="#SimHei-73"/>
     </g>
    </g>
   </g>
  </g>
 </g>
 <defs>
  <clipPath id="p707c9c713d">
   <rect height="288" width="360" x="10.7" y="10.7"/>
  </clipPath>
 </defs>
</svg>
