<?xml version="1.0" encoding="utf-8" standalone="no"?>
<!DOCTYPE svg PUBLIC "-//W3C//DTD SVG 1.1//EN"
  "http://www.w3.org/Graphics/SVG/1.1/DTD/svg11.dtd">
<!-- Created with matplotlib (http://matplotlib.org/) -->
<svg height="309.4pt" version="1.1" viewBox="0 0 381.4 309.4" width="381.4pt" xmlns="http://www.w3.org/2000/svg" xmlns:xlink="http://www.w3.org/1999/xlink">
 <defs>
  <style type="text/css">
*{stroke-linecap:butt;stroke-linejoin:round;}
  </style>
 </defs>
 <g id="figure_1">
  <g id="patch_1">
   <path d="M 0 309.4 
L 381.4 309.4 
L 381.4 0 
L 0 0 
z
" style="fill:none;"/>
  </g>
  <g id="patch_2">
   <path d="M 10.7 298.7 
L 370.7 298.7 
L 370.7 10.7 
L 10.7 10.7 
z
" style="fill:#ffffff;"/>
  </g>
  <g id="pane3d_1">
   <g id="patch_3">
    <path d="M 219.619567 185.462306 
L 335.768129 233.715199 
L 340.919918 79.597002 
L 220.435568 41.545085 
" style="fill:#f2f2f2;opacity:0.5;stroke:#f2f2f2;stroke-linejoin:miter;"/>
   </g>
  </g>
  <g id="pane3d_2">
   <g id="patch_4">
    <path d="M 219.619567 185.462306 
L 58.794045 217.8137 
L 53.895826 67.034254 
L 220.435568 41.545085 
" style="fill:#e6e6e6;opacity:0.5;stroke:#e6e6e6;stroke-linejoin:miter;"/>
   </g>
  </g>
  <g id="pane3d_3">
   <g id="patch_5">
    <path d="M 219.619567 185.462306 
L 58.794045 217.8137 
L 168.062833 271.631196 
L 335.768129 233.715199 
" style="fill:#ececec;opacity:0.5;stroke:#ececec;stroke-linejoin:miter;"/>
   </g>
  </g>
  <g id="axis3d_1">
   <g id="line2d_1">
    <path d="M 335.768129 233.715199 
L 168.062833 271.631196 
" style="fill:none;stroke:#000000;stroke-linecap:square;stroke-width:0.8;"/>
   </g>
   <g id="text_1">
    <!-- coins of 大熊 -->
    <defs>
     <path d="M 44.53125 19.53125 
Q 44.53125 11.328125 38.859375 6.25 
Q 33.203125 1.171875 24.609375 1.171875 
Q 16.015625 1.171875 9.765625 7.21875 
Q 3.515625 13.28125 3.515625 23.828125 
Q 3.515625 34.375 9.765625 40.421875 
Q 16.015625 46.484375 24.609375 46.484375 
Q 33.203125 46.484375 38.28125 41.984375 
Q 43.359375 37.5 43.359375 31.25 
L 34.765625 31.25 
Q 34.375 35.9375 31.4375 37.6875 
Q 28.515625 39.453125 24.609375 39.453125 
Q 19.921875 39.453125 16.015625 35.734375 
Q 12.109375 32.03125 12.109375 23.828125 
Q 12.109375 15.625 16.015625 11.90625 
Q 19.921875 8.203125 24.609375 8.203125 
Q 29.6875 8.203125 32.8125 10.9375 
Q 35.9375 13.671875 35.9375 19.53125 
z
" id="SimHei-63"/>
     <path d="M 45.703125 23.828125 
Q 45.703125 13.671875 39.453125 7.421875 
Q 33.203125 1.171875 24.609375 1.171875 
Q 16.015625 1.171875 9.765625 7.421875 
Q 3.515625 13.671875 3.515625 23.828125 
Q 3.515625 33.984375 9.765625 40.234375 
Q 16.015625 46.484375 24.609375 46.484375 
Q 33.203125 46.484375 39.453125 40.234375 
Q 45.703125 33.984375 45.703125 23.828125 
z
M 37.109375 23.828125 
Q 37.109375 31.640625 33.203125 35.546875 
Q 29.296875 39.453125 24.609375 39.453125 
Q 19.921875 39.453125 16.015625 35.546875 
Q 12.109375 31.640625 12.109375 23.828125 
Q 12.109375 16.015625 16.015625 12.109375 
Q 19.921875 8.203125 24.609375 8.203125 
Q 29.296875 8.203125 33.203125 12.109375 
Q 37.109375 16.015625 37.109375 23.828125 
z
" id="SimHei-6f"/>
     <path d="M 28.125 58.203125 
L 20.3125 58.203125 
L 20.3125 68.359375 
L 28.125 68.359375 
z
M 28.125 1.953125 
L 20.3125 1.953125 
L 20.3125 45.703125 
L 28.125 45.703125 
z
" id="SimHei-69"/>
     <path d="M 43.75 1.953125 
L 35.9375 1.953125 
L 35.9375 30.078125 
Q 35.9375 34.765625 33.59375 37.5 
Q 31.25 40.234375 27.34375 40.234375 
Q 22.265625 40.234375 17.765625 34.953125 
Q 13.28125 29.6875 13.28125 21.875 
L 13.28125 1.953125 
L 5.46875 1.953125 
L 5.46875 45.703125 
L 13.28125 45.703125 
L 13.28125 37.5 
Q 16.40625 41.796875 20.109375 44.140625 
Q 23.828125 46.484375 29.6875 46.484375 
Q 36.71875 46.484375 40.234375 42.578125 
Q 43.75 38.671875 43.75 32.8125 
z
" id="SimHei-6e"/>
     <path d="M 42.96875 14.0625 
Q 42.96875 7.8125 38.078125 4.484375 
Q 33.203125 1.171875 25.78125 1.171875 
Q 16.40625 1.171875 11.328125 4.875 
Q 6.25 8.59375 6.25 15.625 
L 14.0625 15.625 
Q 14.0625 10.9375 17.375 9.375 
Q 20.703125 7.8125 25.390625 7.8125 
Q 30.078125 7.8125 32.421875 9.5625 
Q 34.765625 11.328125 34.765625 14.0625 
Q 34.765625 16.015625 32.8125 17.96875 
Q 30.859375 19.921875 23.046875 21.09375 
Q 14.0625 22.265625 10.734375 25.578125 
Q 7.421875 28.90625 7.421875 34.375 
Q 7.421875 39.0625 11.90625 42.765625 
Q 16.40625 46.484375 25 46.484375 
Q 32.8125 46.484375 37.296875 42.96875 
Q 41.796875 39.453125 41.796875 33.59375 
L 33.984375 33.59375 
Q 33.984375 37.109375 31.4375 38.46875 
Q 28.90625 39.84375 25 39.84375 
Q 19.921875 39.84375 17.765625 38.078125 
Q 15.625 36.328125 15.625 33.984375 
Q 15.625 31.25 17.578125 29.6875 
Q 19.53125 28.125 25.78125 27.34375 
Q 35.9375 25.78125 39.453125 22.453125 
Q 42.96875 19.140625 42.96875 14.0625 
z
" id="SimHei-73"/>
     <path id="SimHei-20"/>
     <path d="M 44.53125 59.765625 
Q 42.578125 60.9375 39.84375 61.71875 
Q 37.109375 62.5 32.8125 62.5 
Q 28.515625 62.5 26.953125 60.34375 
Q 25.390625 58.203125 25.390625 55.078125 
L 25.390625 45.703125 
L 41.40625 45.703125 
L 41.40625 39.453125 
L 25.390625 39.453125 
L 25.390625 1.953125 
L 17.578125 1.953125 
L 17.578125 39.453125 
L 4.296875 39.453125 
L 4.296875 45.703125 
L 17.578125 45.703125 
L 17.578125 54.6875 
Q 17.578125 61.71875 21.875 65.625 
Q 26.171875 69.53125 33.203125 69.53125 
Q 37.5 69.53125 40.03125 68.9375 
Q 42.578125 68.359375 44.53125 67.578125 
z
" id="SimHei-66"/>
     <path d="M 45.3125 53.125 
Q 45.703125 66.796875 45.5 71.484375 
Q 45.3125 76.171875 44.921875 80.46875 
Q 49.609375 79.6875 55.46875 79.296875 
Q 54.296875 75.390625 53.703125 67.96875 
Q 53.125 60.546875 53.125 53.125 
L 73.046875 53.125 
Q 83.59375 53.125 92.578125 53.90625 
L 92.578125 45.3125 
Q 84.765625 45.703125 76.5625 45.703125 
L 53.515625 45.703125 
Q 55.078125 39.0625 58.984375 32.21875 
Q 62.890625 25.390625 66.984375 20.109375 
Q 71.09375 14.84375 78.3125 8.984375 
Q 85.546875 3.125 94.140625 -0.78125 
Q 91.015625 -3.125 87.890625 -8.59375 
Q 80.859375 -4.6875 74.015625 1.171875 
Q 67.1875 7.03125 60.34375 16.59375 
Q 53.515625 26.171875 50 34.375 
Q 46.875 25.78125 43.359375 20.109375 
Q 39.84375 14.453125 35.734375 9.765625 
Q 31.640625 5.078125 25.1875 0.390625 
Q 18.75 -4.296875 10.546875 -8.984375 
Q 7.421875 -4.296875 3.515625 -0.78125 
Q 11.71875 1.953125 19.71875 7.03125 
Q 27.734375 12.109375 32.8125 18.546875 
Q 37.890625 25 41.015625 32.03125 
Q 44.140625 39.0625 44.921875 45.703125 
L 23.4375 45.703125 
Q 14.0625 45.703125 8.59375 45.3125 
L 8.59375 53.90625 
Q 14.0625 53.515625 23.4375 53.125 
z
" id="SimHei-5927"/>
     <path d="M 49.609375 52.34375 
Q 49.21875 46.484375 49.21875 40.625 
L 49.21875 19.53125 
Q 49.21875 15.234375 46.484375 13.859375 
Q 43.75 12.5 34.765625 11.328125 
Q 33.59375 14.84375 31.640625 18.359375 
Q 38.671875 18.75 40.421875 18.9375 
Q 42.1875 19.140625 41.796875 23.4375 
L 18.359375 23.4375 
L 18.359375 12.5 
L 10.15625 12.5 
Q 10.546875 25 10.546875 33.59375 
Q 10.546875 42.1875 10.15625 52.34375 
L 49.609375 52.34375 
z
M 65.625 45.3125 
Q 65.234375 41.015625 65.234375 34.375 
Q 81.640625 38.671875 88.28125 43.359375 
Q 90.234375 39.453125 93.359375 36.71875 
Q 85.9375 34.765625 65.625 28.125 
L 65.625 23.046875 
Q 65.625 19.53125 70.703125 19.53125 
L 80.46875 19.53125 
Q 83.59375 19.53125 85.15625 20.890625 
Q 86.71875 22.265625 88.28125 28.125 
Q 92.1875 26.171875 96.875 25.390625 
Q 93.359375 17.1875 91.40625 15.234375 
Q 89.453125 13.28125 83.984375 13.28125 
L 65.234375 13.28125 
Q 57.03125 13.28125 57.03125 19.53125 
L 57.03125 37.5 
Q 57.03125 40.625 56.640625 45.3125 
L 65.625 45.3125 
z
M 92.578125 69.140625 
Q 78.515625 65.234375 64.84375 61.328125 
Q 64.84375 54.6875 68.359375 54.6875 
L 80.46875 54.6875 
Q 83.203125 54.6875 84.765625 56.4375 
Q 86.328125 58.203125 86.71875 62.5 
Q 90.234375 60.9375 94.921875 59.765625 
Q 92.96875 51.5625 90.421875 50.1875 
Q 87.890625 48.828125 82.8125 48.828125 
L 64.84375 48.828125 
Q 57.03125 48.828125 57.03125 54.296875 
L 57.03125 71.09375 
Q 57.03125 75.78125 56.640625 80.46875 
L 65.625 80.46875 
Q 65.234375 75.390625 65.234375 67.1875 
Q 78.515625 70.3125 86.328125 76.171875 
Q 88.671875 72.65625 92.578125 69.140625 
z
M 32.03125 78.125 
Q 24.609375 71.484375 16.40625 62.890625 
Q 22.65625 63.28125 40.625 65.234375 
Q 38.671875 67.578125 35.546875 70.703125 
Q 39.0625 72.265625 42.96875 74.21875 
Q 51.171875 63.28125 55.078125 58.59375 
Q 51.171875 57.03125 48.046875 54.6875 
L 44.53125 59.765625 
Q 42.578125 59.375 33.203125 58.59375 
Q 23.828125 57.8125 9.375 55.859375 
Q 7.421875 59.375 6.25 62.890625 
Q 10.15625 64.84375 14.640625 69.53125 
Q 19.140625 74.21875 23.4375 82.03125 
Q 27.734375 79.6875 32.03125 78.125 
z
M 41.796875 28.90625 
L 41.796875 35.546875 
L 18.359375 35.546875 
L 18.359375 28.90625 
z
M 20.3125 6.640625 
Q 17.1875 3.125 11.71875 -9.765625 
Q 6.640625 -7.8125 3.90625 -7.03125 
Q 6.640625 -1.5625 11.71875 8.984375 
Q 15.625 7.8125 20.3125 6.640625 
z
M 85.9375 10.15625 
Q 92.578125 -1.953125 94.140625 -5.46875 
Q 89.84375 -6.640625 86.328125 -8.59375 
Q 83.984375 -2.34375 78.515625 7.03125 
Q 81.25 8.203125 85.9375 10.15625 
z
M 41.796875 41.015625 
L 41.796875 46.875 
L 18.359375 46.875 
L 18.359375 41.015625 
z
M 62.890625 8.59375 
Q 65.625 -1.953125 66.40625 -5.859375 
L 58.59375 -7.421875 
Q 57.421875 -3.90625 55.46875 7.421875 
Q 58.59375 8.203125 62.890625 8.59375 
z
M 39.84375 7.421875 
Q 40.234375 3.90625 42.578125 -6.640625 
Q 38.671875 -6.640625 34.375 -7.8125 
Q 33.59375 -3.125 32.03125 6.640625 
Q 35.15625 7.421875 39.84375 7.421875 
z
" id="SimHei-718a"/>
    </defs>
    <g style="fill:#800080;" transform="translate(235.061813 295.570823)rotate(-12.739652)scale(0.12 -0.12)">
     <use xlink:href="#SimHei-63"/>
     <use x="50" xlink:href="#SimHei-6f"/>
     <use x="100" xlink:href="#SimHei-69"/>
     <use x="150" xlink:href="#SimHei-6e"/>
     <use x="200" xlink:href="#SimHei-73"/>
     <use x="250" xlink:href="#SimHei-20"/>
     <use x="300" xlink:href="#SimHei-6f"/>
     <use x="350" xlink:href="#SimHei-66"/>
     <use x="400" xlink:href="#SimHei-20"/>
     <use x="450" xlink:href="#SimHei-5927"/>
     <use x="550" xlink:href="#SimHei-718a"/>
    </g>
   </g>
   <g id="Line3DCollection_1">
    <path d="M 325.649087 236.002984 
L 209.876104 187.422284 
L 210.363217 43.086674 
" style="fill:none;stroke:#b0b0b0;stroke-width:0.8;"/>
    <path d="M 305.615951 240.532216 
L 190.60155 191.299522 
L 190.43149 46.137256 
" style="fill:none;stroke:#b0b0b0;stroke-width:0.8;"/>
    <path d="M 285.302458 245.124834 
L 171.077619 195.226923 
L 170.232989 49.228668 
" style="fill:none;stroke:#b0b0b0;stroke-width:0.8;"/>
    <path d="M 264.70268 249.782177 
L 151.299439 199.205469 
L 149.762321 52.361736 
" style="fill:none;stroke:#b0b0b0;stroke-width:0.8;"/>
    <path d="M 243.810523 254.505623 
L 131.262013 203.236164 
L 129.013948 55.537307 
" style="fill:none;stroke:#b0b0b0;stroke-width:0.8;"/>
    <path d="M 222.619718 259.29659 
L 110.960209 207.320041 
L 107.982181 58.756252 
" style="fill:none;stroke:#b0b0b0;stroke-width:0.8;"/>
    <path d="M 201.123814 264.156536 
L 90.38876 211.458159 
L 86.661174 62.019466 
" style="fill:none;stroke:#b0b0b0;stroke-width:0.8;"/>
    <path d="M 179.316176 269.086961 
L 69.542258 215.651607 
L 65.044918 65.327868 
" style="fill:none;stroke:#b0b0b0;stroke-width:0.8;"/>
   </g>
   <g id="xtick_1">
    <g id="line2d_2">
     <path d="M 324.648958 235.583309 
L 327.653217 236.843957 
" style="fill:none;stroke:#000000;stroke-linecap:square;stroke-width:0.8;"/>
    </g>
    <g id="text_2">
     <!-- 0 -->
     <defs>
      <path d="M 3.125 29.296875 
Q 3.90625 50 6.4375 56.046875 
Q 8.984375 62.109375 13.671875 66.015625 
Q 18.359375 69.921875 25.1875 69.921875 
Q 32.03125 69.921875 37.109375 64.25 
Q 42.1875 58.59375 43.75 50 
Q 45.3125 41.40625 44.71875 30.265625 
Q 44.140625 19.140625 40.8125 12.109375 
Q 37.5 5.078125 30.859375 2.34375 
Q 24.21875 -0.390625 17.578125 2.921875 
Q 10.9375 6.25 8.203125 11.71875 
Q 5.46875 17.1875 4.296875 23.234375 
Q 3.125 29.296875 3.90625 50 
z
M 12.890625 52.734375 
Q 10.546875 31.25 12.5 22.84375 
Q 14.453125 14.453125 18.9375 10.9375 
Q 23.4375 7.421875 28.125 9.5625 
Q 32.8125 11.71875 34.953125 18.15625 
Q 37.109375 24.609375 37.109375 32.21875 
Q 37.109375 39.84375 36.515625 46.09375 
Q 35.9375 52.34375 33 57.421875 
Q 30.078125 62.5 25.1875 62.6875 
Q 20.3125 62.890625 16.59375 57.8125 
Q 12.890625 52.734375 10.546875 31.25 
z
" id="SimHei-30"/>
     </defs>
     <g transform="translate(330.134125 260.095778)scale(0.15 -0.15)">
      <use xlink:href="#SimHei-30"/>
     </g>
    </g>
   </g>
   <g id="xtick_2">
    <g id="line2d_3">
     <path d="M 304.621865 240.106691 
L 307.607998 241.384926 
" style="fill:none;stroke:#000000;stroke-linecap:square;stroke-width:0.8;"/>
    </g>
    <g id="text_3">
     <!-- 2 -->
     <defs>
      <path d="M 4.6875 3.90625 
Q 5.078125 9.765625 10.15625 14.453125 
Q 15.234375 19.140625 23.046875 29.09375 
Q 30.859375 39.0625 33.203125 44.53125 
Q 35.546875 50 34.953125 53.90625 
Q 34.375 57.8125 31.25 60.34375 
Q 28.125 62.890625 24.015625 62.5 
Q 19.921875 62.109375 16.203125 59.375 
Q 12.5 56.640625 10.546875 51.171875 
L 3.125 52.34375 
Q 6.25 61.328125 11.125 65.421875 
Q 16.015625 69.53125 22.65625 69.921875 
Q 26.5625 70.3125 29.6875 69.71875 
Q 32.8125 69.140625 36.125 66.984375 
Q 39.453125 64.84375 41.59375 60.546875 
Q 43.75 56.25 43.15625 50.1875 
Q 42.578125 44.140625 37.109375 35.734375 
Q 31.640625 27.34375 16.015625 9.375 
L 44.140625 9.375 
L 44.140625 2.34375 
L 4.6875 2.34375 
z
" id="SimHei-32"/>
     </defs>
     <g transform="translate(310.096382 264.735082)scale(0.15 -0.15)">
      <use xlink:href="#SimHei-32"/>
     </g>
    </g>
   </g>
   <g id="xtick_3">
    <g id="line2d_4">
     <path d="M 284.314682 244.693335 
L 287.281886 245.989527 
" style="fill:none;stroke:#000000;stroke-linecap:square;stroke-width:0.8;"/>
    </g>
    <g id="text_4">
     <!-- 4 -->
     <defs>
      <path d="M 31.25 17.1875 
L 1.171875 17.1875 
L 1.171875 23.828125 
L 32.8125 69.53125 
L 38.671875 69.53125 
L 38.671875 23.828125 
L 48.046875 23.828125 
L 48.046875 17.1875 
L 38.671875 17.1875 
L 38.671875 2.34375 
L 31.25 2.34375 
z
M 31.25 23.828125 
L 31.25 54.6875 
L 9.375 23.828125 
z
" id="SimHei-34"/>
     </defs>
     <g transform="translate(289.777342 269.439513)scale(0.15 -0.15)">
      <use xlink:href="#SimHei-34"/>
     </g>
    </g>
   </g>
   <g id="xtick_4">
    <g id="line2d_5">
     <path d="M 263.721492 249.344577 
L 266.668935 250.659107 
" style="fill:none;stroke:#000000;stroke-linecap:square;stroke-width:0.8;"/>
    </g>
    <g id="text_5">
     <!-- 6 -->
     <defs>
      <path d="M 3.515625 19.53125 
Q 4.296875 30.859375 6.046875 34.765625 
Q 7.8125 38.671875 11.328125 44.53125 
L 27.34375 69.53125 
L 36.328125 69.53125 
L 19.921875 43.75 
Q 30.46875 46.484375 36.71875 42.96875 
Q 42.96875 39.453125 45.109375 34.953125 
Q 47.265625 30.46875 47.453125 25.1875 
Q 47.65625 19.921875 45.890625 14.84375 
Q 44.140625 9.765625 39.640625 5.65625 
Q 35.15625 1.5625 27.140625 1.171875 
Q 19.140625 0.78125 13.46875 4.09375 
Q 7.8125 7.421875 5.65625 13.46875 
Q 3.515625 19.53125 4.296875 30.859375 
z
M 12.5 16.015625 
Q 19.53125 8.59375 25.390625 8.203125 
Q 31.25 7.8125 35.15625 12.109375 
Q 39.0625 16.40625 39.0625 24.609375 
Q 39.0625 32.8125 34.171875 35.9375 
Q 29.296875 39.0625 23.234375 38.28125 
Q 17.1875 37.5 14.453125 32.421875 
Q 11.71875 27.34375 12.109375 21.671875 
Q 12.5 16.015625 19.53125 8.59375 
z
" id="SimHei-36"/>
     </defs>
     <g transform="translate(269.171041 274.210454)scale(0.15 -0.15)">
      <use xlink:href="#SimHei-36"/>
     </g>
    </g>
   </g>
   <g id="xtick_5">
    <g id="line2d_6">
     <path d="M 242.83621 254.061792 
L 245.763028 255.395052 
" style="fill:none;stroke:#000000;stroke-linecap:square;stroke-width:0.8;"/>
    </g>
    <g id="text_6">
     <!-- 8 -->
     <defs>
      <path d="M 2.734375 16.796875 
Q 2.734375 26.171875 5.078125 30.65625 
Q 7.421875 35.15625 12.890625 37.890625 
Q 8.203125 40.625 6.640625 43.9375 
Q 5.078125 47.265625 4.875 51.5625 
Q 4.6875 55.859375 6.046875 58.984375 
Q 7.421875 62.109375 10.15625 64.84375 
Q 12.890625 67.578125 16.203125 68.546875 
Q 19.53125 69.53125 23.4375 69.53125 
Q 27.34375 69.53125 30.46875 68.75 
Q 33.59375 67.96875 37.109375 65.421875 
Q 40.625 62.890625 42.1875 58.203125 
Q 43.75 53.515625 41.984375 47.265625 
Q 40.234375 41.015625 32.8125 37.5 
Q 39.453125 35.546875 42.1875 31.4375 
Q 44.921875 27.34375 44.921875 21.484375 
Q 44.921875 15.625 43.15625 12.109375 
Q 41.40625 8.59375 39.25 6.25 
Q 37.109375 3.90625 33.390625 2.53125 
Q 29.6875 1.171875 24.015625 1.171875 
Q 18.359375 1.171875 14.25 2.53125 
Q 10.15625 3.90625 7.421875 6.640625 
Q 4.6875 9.375 3.703125 13.078125 
Q 2.734375 16.796875 2.734375 26.171875 
z
M 10.9375 26.5625 
Q 10.546875 17.1875 12.296875 13.671875 
Q 14.0625 10.15625 18.75 9.171875 
Q 23.4375 8.203125 28.515625 9.375 
Q 33.59375 10.546875 35.546875 14.84375 
Q 37.5 19.140625 36.90625 23.4375 
Q 36.328125 27.734375 32.03125 30.65625 
Q 27.734375 33.59375 22.65625 33.203125 
Q 17.578125 32.8125 14.25 29.6875 
Q 10.9375 26.5625 10.546875 17.1875 
z
M 12.109375 56.25 
Q 12.109375 48.4375 14.84375 44.921875 
Q 17.578125 41.40625 23.4375 41.40625 
Q 29.296875 41.40625 32.21875 44.921875 
Q 35.15625 48.4375 34.953125 53.3125 
Q 34.765625 58.203125 31.4375 60.546875 
Q 28.125 62.890625 22.453125 62.5 
Q 16.796875 62.109375 14.453125 59.171875 
Q 12.109375 56.25 12.109375 48.4375 
z
" id="SimHei-38"/>
     </defs>
     <g transform="translate(248.271344 279.049324)scale(0.15 -0.15)">
      <use xlink:href="#SimHei-38"/>
     </g>
    </g>
   </g>
   <g id="xtick_6">
    <g id="line2d_7">
     <path d="M 221.652577 258.846394 
L 224.557878 260.198787 
" style="fill:none;stroke:#000000;stroke-linecap:square;stroke-width:0.8;"/>
    </g>
    <g id="text_7">
     <!-- 10 -->
     <defs>
      <path d="M 21.875 56.25 
Q 16.796875 51.171875 8.984375 46.484375 
L 8.984375 53.90625 
Q 18.75 60.546875 25 69.53125 
L 29.6875 69.53125 
L 29.6875 2.34375 
L 21.875 2.34375 
z
" id="SimHei-31"/>
     </defs>
     <g transform="translate(223.321939 283.957585)scale(0.15 -0.15)">
      <use xlink:href="#SimHei-31"/>
      <use x="50" xlink:href="#SimHei-30"/>
     </g>
    </g>
   </g>
   <g id="xtick_7">
    <g id="line2d_8">
     <path d="M 200.164153 263.699837 
L 203.047012 265.071778 
" style="fill:none;stroke:#000000;stroke-linecap:square;stroke-width:0.8;"/>
    </g>
    <g id="text_8">
     <!-- 12 -->
     <g transform="translate(201.816333 288.936741)scale(0.15 -0.15)">
      <use xlink:href="#SimHei-31"/>
      <use x="50" xlink:href="#SimHei-32"/>
     </g>
    </g>
   </g>
   <g id="xtick_8">
    <g id="line2d_9">
     <path d="M 178.364314 268.623617 
L 181.22377 270.015533 
" style="fill:none;stroke:#000000;stroke-linecap:square;stroke-width:0.8;"/>
    </g>
    <g id="text_9">
     <!-- 14 -->
     <g transform="translate(179.997844 293.988337)scale(0.15 -0.15)">
      <use xlink:href="#SimHei-31"/>
      <use x="50" xlink:href="#SimHei-34"/>
     </g>
    </g>
   </g>
  </g>
  <g id="axis3d_2">
   <g id="line2d_10">
    <path d="M 58.794045 217.8137 
L 168.062833 271.631196 
" style="fill:none;stroke:#000000;stroke-linecap:square;stroke-width:0.8;"/>
   </g>
   <g id="text_10">
    <!-- coins of 胖虎 -->
    <defs>
     <path d="M 21.484375 1.953125 
Q 25.78125 1.5625 28.515625 1.75 
Q 31.25 1.953125 31.640625 7.03125 
L 31.640625 26.171875 
L 18.359375 26.171875 
Q 16.796875 14.453125 14.453125 5.859375 
Q 12.109375 -2.734375 10.15625 -7.03125 
Q 6.640625 -3.90625 3.125 -2.734375 
Q 6.640625 2.734375 8.78125 10.34375 
Q 10.9375 17.96875 11.71875 30.859375 
L 11.71875 64.453125 
Q 11.71875 71.09375 11.328125 76.953125 
L 38.671875 76.953125 
Q 38.28125 69.140625 38.28125 61.328125 
L 38.28125 1.953125 
Q 38.28125 -6.25 23.4375 -7.03125 
Q 23.046875 -3.125 21.484375 1.953125 
z
M 64.453125 45.3125 
L 64.453125 69.140625 
Q 64.453125 73.828125 63.671875 79.296875 
L 72.265625 79.296875 
Q 71.875 74.21875 71.875 69.140625 
L 71.875 45.3125 
L 82.421875 45.3125 
Q 85.9375 45.3125 91.796875 45.703125 
L 91.796875 38.671875 
Q 88.28125 39.0625 82.421875 39.0625 
L 71.875 39.0625 
L 71.875 23.4375 
L 84.765625 23.4375 
Q 91.015625 23.4375 96.09375 23.828125 
L 96.09375 16.796875 
Q 90.234375 17.1875 84.765625 17.1875 
L 71.875 17.1875 
L 71.875 3.90625 
Q 71.875 -2.34375 72.265625 -8.984375 
L 64.0625 -8.984375 
Q 64.453125 -2.734375 64.453125 3.90625 
L 64.453125 17.1875 
L 53.90625 17.1875 
Q 48.4375 17.1875 42.578125 16.796875 
L 42.578125 23.828125 
Q 48.046875 23.4375 54.296875 23.4375 
L 64.453125 23.4375 
L 64.453125 39.0625 
L 53.90625 39.0625 
Q 48.4375 39.0625 43.359375 38.671875 
L 43.359375 45.703125 
Q 48.4375 45.3125 53.515625 45.3125 
z
M 31.640625 32.8125 
L 31.640625 48.828125 
L 18.75 48.828125 
L 18.75 32.8125 
z
M 31.640625 55.078125 
L 31.640625 70.703125 
L 18.75 70.703125 
L 18.75 55.078125 
z
M 51.5625 51.953125 
Q 50 58.984375 44.921875 71.09375 
L 51.171875 74.21875 
Q 55.859375 63.28125 58.59375 54.6875 
Q 54.296875 53.515625 51.5625 51.953125 
z
M 77.34375 53.90625 
Q 83.984375 67.96875 84.765625 73.4375 
Q 88.671875 71.875 92.578125 70.703125 
Q 90.625 67.96875 88.671875 62.890625 
Q 86.71875 57.8125 84.375 51.953125 
Q 80.859375 53.90625 77.34375 53.90625 
z
" id="SimHei-80d6"/>
     <path d="M 25.78125 45.703125 
Q 33.203125 46.09375 44.140625 46.875 
L 44.140625 56.640625 
L 20.703125 56.640625 
Q 20.703125 31.640625 20.109375 23.4375 
Q 19.53125 15.234375 17.578125 8 
Q 15.625 0.78125 10.9375 -7.8125 
Q 7.8125 -5.46875 3.125 -3.90625 
Q 7.03125 0.78125 9.171875 6.828125 
Q 11.328125 12.890625 12.109375 18.75 
Q 12.890625 24.609375 13.078125 30.265625 
Q 13.28125 35.9375 13.28125 42.96875 
Q 13.28125 50.390625 12.890625 62.5 
L 44.140625 62.5 
L 44.140625 74.609375 
Q 44.140625 77.34375 43.359375 82.421875 
L 51.953125 82.421875 
Q 51.5625 78.515625 51.5625 75.390625 
L 71.09375 75.390625 
Q 76.171875 75.390625 84.765625 76.171875 
L 84.765625 69.53125 
Q 76.171875 69.921875 70.703125 69.921875 
L 51.171875 69.921875 
L 51.171875 62.5 
L 93.75 62.5 
Q 92.1875 57.8125 89.84375 46.875 
Q 85.15625 48.046875 82.03125 48.4375 
Q 83.984375 52.734375 85.15625 56.640625 
L 51.171875 56.640625 
L 51.171875 47.65625 
Q 65.234375 49.21875 74.21875 50.78125 
L 75 44.140625 
Q 64.0625 42.96875 51.171875 41.40625 
L 51.171875 36.71875 
Q 51.171875 33.203125 57.421875 33.203125 
L 70.3125 33.203125 
Q 75 32.8125 76.359375 34.5625 
Q 77.734375 36.328125 78.515625 41.015625 
Q 81.640625 39.0625 86.71875 37.109375 
Q 84.765625 30.859375 82.03125 29.09375 
Q 79.296875 27.34375 73.828125 27.34375 
L 54.296875 27.34375 
Q 44.140625 27.34375 44.140625 33.59375 
L 44.140625 41.015625 
Q 36.328125 40.234375 27.34375 39.0625 
Q 26.5625 42.578125 25.78125 45.703125 
z
M 71.09375 22.265625 
Q 70.703125 16.796875 70.703125 10.9375 
L 70.703125 2.34375 
Q 70.703125 -1.953125 75 -1.953125 
L 81.25 -1.953125 
Q 85.9375 -1.953125 86.71875 0.78125 
Q 87.5 3.515625 87.5 7.421875 
Q 91.40625 5.078125 96.09375 4.296875 
Q 93.359375 -3.90625 91.59375 -5.859375 
Q 89.84375 -7.8125 85.15625 -7.8125 
L 72.65625 -7.8125 
Q 63.671875 -7.8125 63.671875 -1.171875 
L 63.671875 16.40625 
L 45.3125 16.40625 
Q 45.3125 4.6875 41.203125 -0.578125 
Q 37.109375 -5.859375 26.171875 -10.546875 
Q 25 -6.640625 21.484375 -3.515625 
Q 35.9375 0.78125 37.109375 7.421875 
Q 38.28125 14.0625 37.890625 22.265625 
L 71.09375 22.265625 
z
" id="SimHei-864e"/>
    </defs>
    <g style="fill:#800080;" transform="translate(49.092792 257.912399)rotate(-333.778649)scale(0.12 -0.12)">
     <use xlink:href="#SimHei-63"/>
     <use x="50" xlink:href="#SimHei-6f"/>
     <use x="100" xlink:href="#SimHei-69"/>
     <use x="150" xlink:href="#SimHei-6e"/>
     <use x="200" xlink:href="#SimHei-73"/>
     <use x="250" xlink:href="#SimHei-20"/>
     <use x="300" xlink:href="#SimHei-6f"/>
     <use x="350" xlink:href="#SimHei-66"/>
     <use x="400" xlink:href="#SimHei-20"/>
     <use x="450" xlink:href="#SimHei-80d6"/>
     <use x="550" xlink:href="#SimHei-864e"/>
    </g>
   </g>
   <g id="Line3DCollection_2">
    <path d="M 227.548604 43.791556 
L 226.494241 188.318329 
L 65.235235 220.98614 
" style="fill:none;stroke:#b0b0b0;stroke-width:0.8;"/>
    <path d="M 241.688876 48.257402 
L 240.154088 193.993191 
L 78.043534 227.294534 
" style="fill:none;stroke:#b0b0b0;stroke-width:0.8;"/>
    <path d="M 256.106644 52.810887 
L 254.072998 199.775679 
L 91.108144 233.729167 
" style="fill:none;stroke:#b0b0b0;stroke-width:0.8;"/>
    <path d="M 270.810156 57.454617 
L 268.25841 205.668883 
L 104.436836 240.293868 
" style="fill:none;stroke:#b0b0b0;stroke-width:0.8;"/>
    <path d="M 285.807992 62.191302 
L 282.718053 211.676014 
L 118.0377 246.992619 
" style="fill:none;stroke:#b0b0b0;stroke-width:0.8;"/>
    <path d="M 301.10908 67.023762 
L 297.459956 217.800407 
L 131.919157 253.829569 
" style="fill:none;stroke:#b0b0b0;stroke-width:0.8;"/>
    <path d="M 316.722709 71.95493 
L 312.492466 224.045531 
L 146.089982 260.80904 
" style="fill:none;stroke:#b0b0b0;stroke-width:0.8;"/>
    <path d="M 332.658556 76.987861 
L 327.824262 230.41499 
L 160.559317 267.935534 
" style="fill:none;stroke:#b0b0b0;stroke-width:0.8;"/>
   </g>
   <g id="xtick_9">
    <g id="line2d_11">
     <path d="M 66.594479 220.710784 
L 62.513215 221.537566 
" style="fill:none;stroke:#000000;stroke-linecap:square;stroke-width:0.8;"/>
    </g>
    <g id="text_11">
     <!-- 0 -->
     <g transform="translate(50.195232 243.623733)scale(0.15 -0.15)">
      <use xlink:href="#SimHei-30"/>
     </g>
    </g>
   </g>
   <g id="xtick_10">
    <g id="line2d_12">
     <path d="M 79.410645 227.013697 
L 75.305726 227.856945 
" style="fill:none;stroke:#000000;stroke-linecap:square;stroke-width:0.8;"/>
    </g>
    <g id="text_12">
     <!-- 2 -->
     <g transform="translate(62.908596 250.062791)scale(0.15 -0.15)">
      <use xlink:href="#SimHei-32"/>
     </g>
    </g>
   </g>
   <g id="xtick_11">
    <g id="line2d_13">
     <path d="M 92.483165 233.442684 
L 88.354458 234.302894 
" style="fill:none;stroke:#000000;stroke-linecap:square;stroke-width:0.8;"/>
    </g>
    <g id="text_13">
     <!-- 4 -->
     <g transform="translate(75.876714 256.630876)scale(0.15 -0.15)">
      <use xlink:href="#SimHei-34"/>
     </g>
    </g>
   </g>
   <g id="xtick_12">
    <g id="line2d_14">
     <path d="M 105.81981 240.001565 
L 101.667187 240.879255 
" style="fill:none;stroke:#000000;stroke-linecap:square;stroke-width:0.8;"/>
    </g>
    <g id="text_14">
     <!-- 6 -->
     <g transform="translate(89.10732 263.331906)scale(0.15 -0.15)">
      <use xlink:href="#SimHei-36"/>
     </g>
    </g>
   </g>
   <g id="xtick_13">
    <g id="line2d_15">
     <path d="M 119.428666 246.694319 
L 115.252006 247.590026 
" style="fill:none;stroke:#000000;stroke-linecap:square;stroke-width:0.8;"/>
    </g>
    <g id="text_15">
     <!-- 8 -->
     <g transform="translate(102.608465 270.169958)scale(0.15 -0.15)">
      <use xlink:href="#SimHei-38"/>
     </g>
    </g>
   </g>
   <g id="xtick_14">
    <g id="line2d_16">
     <path d="M 133.318153 253.525084 
L 129.117343 254.439371 
" style="fill:none;stroke:#000000;stroke-linecap:square;stroke-width:0.8;"/>
    </g>
    <g id="text_16">
     <!-- 10 -->
     <g transform="translate(112.638533 277.14928)scale(0.15 -0.15)">
      <use xlink:href="#SimHei-31"/>
      <use x="50" xlink:href="#SimHei-30"/>
     </g>
    </g>
   </g>
   <g id="xtick_15">
    <g id="line2d_17">
     <path d="M 147.497042 260.498176 
L 143.271977 261.431625 
" style="fill:none;stroke:#000000;stroke-linecap:square;stroke-width:0.8;"/>
    </g>
    <g id="text_17">
     <!-- 12 -->
     <g transform="translate(126.706257 284.274293)scale(0.15 -0.15)">
      <use xlink:href="#SimHei-31"/>
      <use x="50" xlink:href="#SimHei-32"/>
     </g>
    </g>
   </g>
   <g id="xtick_16">
    <g id="line2d_18">
     <path d="M 161.974472 267.618089 
L 157.725058 268.57131 
" style="fill:none;stroke:#000000;stroke-linecap:square;stroke-width:0.8;"/>
    </g>
    <g id="text_18">
     <!-- 14 -->
     <g transform="translate(141.07074 291.549608)scale(0.15 -0.15)">
      <use xlink:href="#SimHei-31"/>
      <use x="50" xlink:href="#SimHei-34"/>
     </g>
    </g>
   </g>
  </g>
  <g id="axis3d_3">
   <g id="line2d_19">
    <path d="M 58.794045 217.8137 
L 53.895826 67.034254 
" style="fill:none;stroke:#000000;stroke-linecap:square;stroke-width:0.8;"/>
   </g>
   <g id="text_19">
    <!-- coins of 静香 -->
    <defs>
     <path d="M 67.578125 78.90625 
Q 65.625 76.5625 64.640625 74.40625 
Q 63.671875 72.265625 62.890625 70.3125 
L 84.375 70.3125 
Q 82.03125 66.796875 80.078125 62.296875 
Q 78.125 57.8125 75.78125 52.734375 
L 90.234375 52.734375 
Q 89.84375 47.265625 89.84375 41.015625 
L 89.84375 36.71875 
Q 93.359375 36.71875 96.875 37.109375 
L 96.875 30.46875 
Q 94.140625 30.859375 89.84375 30.859375 
L 89.84375 25.390625 
Q 89.84375 17.578125 90.234375 10.546875 
L 83.203125 10.546875 
L 83.203125 14.84375 
L 72.265625 14.84375 
L 72.265625 0.390625 
Q 71.875 -4.6875 68.9375 -6.640625 
Q 66.015625 -8.59375 56.25 -9.375 
Q 56.25 -5.46875 53.90625 -1.171875 
Q 58.984375 -1.5625 62.296875 -1.171875 
Q 65.625 -0.78125 65.625 2.734375 
L 65.625 14.84375 
L 60.15625 14.84375 
Q 55.46875 14.84375 50.390625 14.453125 
L 50.390625 20.703125 
Q 55.078125 20.3125 60.15625 20.3125 
L 65.625 20.3125 
L 65.625 30.859375 
L 59.765625 30.859375 
Q 54.6875 30.859375 48.046875 30.46875 
L 48.046875 36.71875 
Q 53.515625 36.328125 60.15625 36.328125 
L 65.625 36.328125 
L 65.625 47.265625 
L 60.15625 47.265625 
Q 57.8125 47.265625 51.953125 46.875 
L 51.953125 51.953125 
Q 50.78125 50.78125 48.828125 48.4375 
Q 46.875 51.5625 44.140625 53.90625 
Q 50.390625 60.15625 53.703125 68.15625 
Q 57.03125 76.171875 58.984375 82.03125 
Q 62.890625 80.078125 67.578125 78.90625 
z
M 42.96875 36.328125 
Q 42.578125 30.859375 42.578125 25 
L 42.578125 1.171875 
Q 42.578125 -4.6875 39.453125 -6.25 
Q 36.328125 -7.8125 30.078125 -8.984375 
Q 29.6875 -5.46875 27.34375 -1.5625 
Q 36.328125 -1.5625 35.546875 1.953125 
L 35.546875 6.640625 
L 15.234375 6.640625 
L 15.234375 -8.203125 
L 8.203125 -8.203125 
Q 8.59375 -3.90625 8.59375 1.953125 
L 8.59375 25 
Q 8.59375 30.859375 8.203125 36.328125 
L 42.96875 36.328125 
z
M 21.875 71.09375 
Q 21.875 74.609375 21.484375 80.46875 
L 29.296875 80.46875 
Q 28.90625 74.609375 28.90625 71.09375 
L 33.984375 71.09375 
Q 39.453125 71.09375 46.875 71.484375 
L 46.875 65.234375 
Q 39.453125 65.625 33.984375 65.625 
L 28.90625 65.625 
L 28.90625 59.375 
L 33.984375 59.375 
Q 36.328125 59.375 42.578125 59.765625 
L 42.578125 53.515625 
Q 35.9375 53.90625 33.59375 53.90625 
L 28.90625 53.90625 
L 28.90625 47.65625 
L 35.15625 47.65625 
Q 40.625 47.65625 46.484375 48.046875 
L 46.484375 41.796875 
Q 40.234375 42.1875 35.15625 42.1875 
L 15.625 42.1875 
Q 9.375 42.1875 3.90625 41.796875 
L 3.90625 48.046875 
Q 9.375 47.65625 15.625 47.65625 
L 21.875 47.65625 
L 21.875 53.90625 
L 15.234375 53.90625 
Q 12.890625 53.90625 8.59375 53.515625 
L 8.59375 59.765625 
Q 12.890625 59.375 15.234375 59.375 
L 21.875 59.375 
L 21.875 65.625 
L 15.234375 65.625 
Q 10.15625 65.625 4.6875 65.234375 
L 4.6875 71.484375 
Q 10.15625 71.09375 15.234375 71.09375 
z
M 52.734375 53.515625 
Q 57.421875 53.125 64.453125 53.125 
L 68.359375 53.125 
Q 72.265625 61.328125 73.4375 64.84375 
L 60.15625 64.84375 
Q 55.078125 56.640625 52.734375 53.515625 
z
M 35.546875 12.109375 
L 35.546875 19.140625 
L 15.234375 19.140625 
L 15.234375 12.109375 
z
M 35.546875 24.609375 
L 35.546875 30.859375 
L 15.234375 30.859375 
L 15.234375 24.609375 
z
M 83.203125 36.328125 
L 83.203125 47.265625 
L 72.265625 47.265625 
L 72.265625 36.328125 
z
M 83.203125 20.3125 
L 83.203125 30.859375 
L 72.265625 30.859375 
L 72.265625 20.3125 
z
" id="SimHei-9759"/>
     <path d="M 45.703125 33.59375 
L 45.703125 53.90625 
Q 36.71875 44.140625 26.359375 38.28125 
Q 16.015625 32.421875 10.546875 30.078125 
Q 10.546875 33.203125 5.46875 36.71875 
Q 16.015625 39.453125 24.21875 44.53125 
Q 32.421875 49.609375 37.109375 54.296875 
L 21.484375 54.296875 
Q 14.84375 54.296875 7.8125 53.90625 
L 7.8125 60.15625 
Q 14.84375 59.765625 21.484375 59.765625 
L 45.703125 59.765625 
L 45.703125 69.921875 
Q 38.28125 69.140625 17.96875 67.578125 
Q 16.796875 71.09375 14.453125 74.609375 
Q 32.8125 74.609375 50.390625 76.953125 
Q 67.96875 79.296875 74.609375 82.03125 
Q 76.953125 78.125 81.25 73.828125 
Q 74.609375 73.4375 67.96875 72.65625 
Q 61.328125 71.875 52.34375 70.703125 
L 52.34375 59.765625 
L 78.125 59.765625 
Q 83.984375 59.765625 91.40625 60.15625 
L 91.40625 53.90625 
Q 84.375 54.296875 78.125 54.296875 
L 61.71875 54.296875 
Q 66.40625 48.4375 74.21875 43.15625 
Q 82.03125 37.890625 94.140625 34.765625 
Q 89.84375 31.640625 88.28125 26.953125 
Q 82.421875 29.296875 77.34375 32.03125 
Q 76.5625 25 76.5625 12.5 
Q 76.5625 -0.78125 76.953125 -8.984375 
L 69.53125 -8.984375 
L 69.53125 -3.125 
L 28.515625 -3.125 
L 28.515625 -9.375 
L 21.875 -9.375 
L 21.875 11.71875 
Q 21.875 25 21.484375 33.59375 
z
M 69.53125 17.96875 
L 69.53125 27.734375 
L 28.515625 27.734375 
L 28.515625 17.96875 
z
M 69.53125 2.734375 
L 69.53125 12.5 
L 28.515625 12.5 
L 28.515625 2.734375 
z
M 71.484375 35.9375 
Q 62.109375 42.578125 52.734375 54.296875 
L 52.34375 54.296875 
L 52.34375 33.59375 
L 75 33.59375 
z
" id="SimHei-9999"/>
    </defs>
    <g style="fill:#800080;" transform="translate(10.565293 102.842551)rotate(-271.860655)scale(0.12 -0.12)">
     <use xlink:href="#SimHei-63"/>
     <use x="50" xlink:href="#SimHei-6f"/>
     <use x="100" xlink:href="#SimHei-69"/>
     <use x="150" xlink:href="#SimHei-6e"/>
     <use x="200" xlink:href="#SimHei-73"/>
     <use x="250" xlink:href="#SimHei-20"/>
     <use x="300" xlink:href="#SimHei-6f"/>
     <use x="350" xlink:href="#SimHei-66"/>
     <use x="400" xlink:href="#SimHei-20"/>
     <use x="450" xlink:href="#SimHei-9759"/>
     <use x="550" xlink:href="#SimHei-9999"/>
    </g>
   </g>
   <g id="Line3DCollection_3">
    <path d="M 58.492454 208.529967 
L 219.669895 176.585888 
L 336.085066 224.233899 
" style="fill:none;stroke:#b0b0b0;stroke-width:0.8;"/>
    <path d="M 57.897709 190.222231 
L 219.769111 159.08724 
L 336.710174 205.533478 
" style="fill:none;stroke:#b0b0b0;stroke-width:0.8;"/>
    <path d="M 57.297781 171.754931 
L 219.869148 141.443949 
L 337.340869 186.665935 
" style="fill:none;stroke:#b0b0b0;stroke-width:0.8;"/>
    <path d="M 56.692601 153.125973 
L 219.970014 123.654212 
L 337.977226 167.629019 
" style="fill:none;stroke:#b0b0b0;stroke-width:0.8;"/>
    <path d="M 56.0821 134.333224 
L 220.071722 105.716199 
L 338.619321 148.42044 
" style="fill:none;stroke:#b0b0b0;stroke-width:0.8;"/>
    <path d="M 55.466207 115.374514 
L 220.17428 87.628049 
L 339.267233 129.037865 
" style="fill:none;stroke:#b0b0b0;stroke-width:0.8;"/>
    <path d="M 54.844852 96.247636 
L 220.277701 69.387869 
L 339.92104 109.478918 
" style="fill:none;stroke:#b0b0b0;stroke-width:0.8;"/>
    <path d="M 54.21796 76.950341 
L 220.381995 50.993734 
L 340.580823 89.741182 
" style="fill:none;stroke:#b0b0b0;stroke-width:0.8;"/>
   </g>
   <g id="xtick_17">
    <g id="line2d_20">
     <path d="M 59.850818 208.26075 
L 55.772207 209.069099 
" style="fill:none;stroke:#000000;stroke-linecap:square;stroke-width:0.8;"/>
    </g>
    <g id="text_20">
     <!-- 0 -->
     <g transform="translate(36.319991 217.800274)scale(0.15 -0.15)">
      <use xlink:href="#SimHei-30"/>
     </g>
    </g>
   </g>
   <g id="xtick_18">
    <g id="line2d_21">
     <path d="M 59.262222 189.959775 
L 55.165133 190.747826 
" style="fill:none;stroke:#000000;stroke-linecap:square;stroke-width:0.8;"/>
    </g>
    <g id="text_21">
     <!-- 2 -->
     <g transform="translate(35.646444 199.518717)scale(0.15 -0.15)">
      <use xlink:href="#SimHei-32"/>
     </g>
    </g>
   </g>
   <g id="xtick_19">
    <g id="line2d_22">
     <path d="M 58.668498 171.499365 
L 54.552763 172.266732 
" style="fill:none;stroke:#000000;stroke-linecap:square;stroke-width:0.8;"/>
    </g>
    <g id="text_22">
     <!-- 4 -->
     <g transform="translate(34.967036 181.078092)scale(0.15 -0.15)">
      <use xlink:href="#SimHei-34"/>
     </g>
    </g>
   </g>
   <g id="xtick_20">
    <g id="line2d_23">
     <path d="M 58.069579 152.877427 
L 53.935029 153.623718 
" style="fill:none;stroke:#000000;stroke-linecap:square;stroke-width:0.8;"/>
    </g>
    <g id="text_23">
     <!-- 6 -->
     <g transform="translate(34.281691 162.476316)scale(0.15 -0.15)">
      <use xlink:href="#SimHei-36"/>
     </g>
    </g>
   </g>
   <g id="xtick_21">
    <g id="line2d_24">
     <path d="M 57.465397 134.091831 
L 53.311858 134.816645 
" style="fill:none;stroke:#000000;stroke-linecap:square;stroke-width:0.8;"/>
    </g>
    <g id="text_24">
     <!-- 8 -->
     <g transform="translate(33.590331 143.711265)scale(0.15 -0.15)">
      <use xlink:href="#SimHei-38"/>
     </g>
    </g>
   </g>
   <g id="xtick_22">
    <g id="line2d_25">
     <path d="M 56.855881 115.140412 
L 52.683179 115.843338 
" style="fill:none;stroke:#000000;stroke-linecap:square;stroke-width:0.8;"/>
    </g>
    <g id="text_25">
     <!-- 10 -->
     <g transform="translate(29.142875 124.780781)scale(0.15 -0.15)">
      <use xlink:href="#SimHei-31"/>
      <use x="50" xlink:href="#SimHei-30"/>
     </g>
    </g>
   </g>
   <g id="xtick_23">
    <g id="line2d_26">
     <path d="M 56.240962 96.020962 
L 52.048919 96.701585 
" style="fill:none;stroke:#000000;stroke-linecap:square;stroke-width:0.8;"/>
    </g>
    <g id="text_26">
     <!-- 12 -->
     <g transform="translate(28.439244 105.682667)scale(0.15 -0.15)">
      <use xlink:href="#SimHei-31"/>
      <use x="50" xlink:href="#SimHei-32"/>
     </g>
    </g>
   </g>
   <g id="xtick_24">
    <g id="line2d_27">
     <path d="M 55.620566 76.731239 
L 51.409002 77.389131 
" style="fill:none;stroke:#000000;stroke-linecap:square;stroke-width:0.8;"/>
    </g>
    <g id="text_27">
     <!-- 14 -->
     <g transform="translate(27.729354 86.414686)scale(0.15 -0.15)">
      <use xlink:href="#SimHei-31"/>
      <use x="50" xlink:href="#SimHei-34"/>
     </g>
    </g>
   </g>
  </g>
  <g id="axes_1">
   <g id="Path3DCollection_1">
    <defs>
     <path d="M 0 5 
C 1.326016 5 2.597899 4.473168 3.535534 3.535534 
C 4.473168 2.597899 5 1.326016 5 0 
C 5 -1.326016 4.473168 -2.597899 3.535534 -3.535534 
C 2.597899 -4.473168 1.326016 -5 0 -5 
C -1.326016 -5 -2.597899 -4.473168 -3.535534 -3.535534 
C -4.473168 -2.597899 -5 -1.326016 -5 0 
C -5 1.326016 -4.473168 2.597899 -3.535534 3.535534 
C -2.597899 4.473168 -1.326016 5 0 5 
z
" id="m06e705534a" style="stroke:#008000;"/>
    </defs>
    <g clip-path="url(#p27d7313d40)">
     <use style="fill:#008000;stroke:#008000;" x="285.817437" xlink:href="#m06e705534a" y="188.097919"/>
    </g>
   </g>
   <g id="Path3DCollection_2">
    <path clip-path="url(#p27d7313d40)" d="M 224.398551 57.499136 
C 224.492314 57.499136 224.58225 57.461884 224.648551 57.395583 
C 224.714852 57.329282 224.752104 57.239346 224.752104 57.145583 
C 224.752104 57.05182 224.714852 56.961884 224.648551 56.895583 
C 224.58225 56.829282 224.492314 56.79203 224.398551 56.79203 
C 224.304787 56.79203 224.214852 56.829282 224.148551 56.895583 
C 224.08225 56.961884 224.044997 57.05182 224.044997 57.145583 
C 224.044997 57.239346 224.08225 57.329282 224.148551 57.395583 
C 224.214852 57.461884 224.304787 57.499136 224.398551 57.499136 
z
" style="fill:#ff0000;stroke:#ff0000;"/>
    <path clip-path="url(#p27d7313d40)" d="M 231.385035 68.811029 
C 231.385035 68.811029 231.385035 68.811029 231.385035 68.811029 
C 231.385035 68.811029 231.385035 68.811029 231.385035 68.811029 
C 231.385035 68.811029 231.385035 68.811029 231.385035 68.811029 
C 231.385035 68.811029 231.385035 68.811029 231.385035 68.811029 
C 231.385035 68.811029 231.385035 68.811029 231.385035 68.811029 
C 231.385035 68.811029 231.385035 68.811029 231.385035 68.811029 
C 231.385035 68.811029 231.385035 68.811029 231.385035 68.811029 
C 231.385035 68.811029 231.385035 68.811029 231.385035 68.811029 
z
" style="fill:#ff0000;stroke:#ff0000;"/>
    <path clip-path="url(#p27d7313d40)" d="M 238.409492 81.152251 
C 238.571895 81.152251 238.727668 81.087728 238.842504 80.972892 
C 238.957341 80.858055 239.021864 80.702282 239.021864 80.539879 
C 239.021864 80.377476 238.957341 80.221702 238.842504 80.106866 
C 238.727668 79.99203 238.571895 79.927506 238.409492 79.927506 
C 238.247088 79.927506 238.091315 79.99203 237.976479 80.106866 
C 237.861643 80.221702 237.797119 80.377476 237.797119 80.539879 
C 237.797119 80.702282 237.861643 80.858055 237.976479 80.972892 
C 238.091315 81.087728 238.247088 81.152251 238.409492 81.152251 
z
" style="fill:#ff0000;stroke:#ff0000;"/>
    <path clip-path="url(#p27d7313d40)" d="M 245.472232 92.832651 
C 245.604833 92.832651 245.732022 92.779968 245.825785 92.686204 
C 245.919548 92.592441 245.972232 92.465252 245.972232 92.332651 
C 245.972232 92.200049 245.919548 92.072861 245.825785 91.979098 
C 245.732022 91.885334 245.604833 91.832651 245.472232 91.832651 
C 245.33963 91.832651 245.212442 91.885334 245.118678 91.979098 
C 245.024915 92.072861 244.972232 92.200049 244.972232 92.332651 
C 244.972232 92.465252 245.024915 92.592441 245.118678 92.686204 
C 245.212442 92.779968 245.33963 92.832651 245.472232 92.832651 
z
" style="fill:#ff0000;stroke:#ff0000;"/>
    <path clip-path="url(#p27d7313d40)" d="M 252.573569 105.055894 
C 252.803241 105.055894 253.023538 104.964645 253.185941 104.802242 
C 253.348344 104.639838 253.439594 104.419542 253.439594 104.189869 
C 253.439594 103.960196 253.348344 103.7399 253.185941 103.577497 
C 253.023538 103.415094 252.803241 103.323844 252.573569 103.323844 
C 252.343896 103.323844 252.123599 103.415094 251.961196 103.577497 
C 251.798793 103.7399 251.707543 103.960196 251.707543 104.189869 
C 251.707543 104.419542 251.798793 104.639838 251.961196 104.802242 
C 252.123599 104.964645 252.343896 105.055894 252.573569 105.055894 
z
" style="fill:#ff0000;stroke:#ff0000;"/>
    <path clip-path="url(#p27d7313d40)" d="M 259.71382 117.112063 
C 259.979023 117.112063 260.2334 117.006697 260.420927 116.81917 
C 260.608454 116.631643 260.71382 116.377266 260.71382 116.112063 
C 260.71382 115.84686 260.608454 115.592483 260.420927 115.404956 
C 260.2334 115.217429 259.979023 115.112063 259.71382 115.112063 
C 259.448617 115.112063 259.19424 115.217429 259.006713 115.404956 
C 258.819187 115.592483 258.71382 115.84686 258.71382 116.112063 
C 258.71382 116.377266 258.819187 116.631643 259.006713 116.81917 
C 259.19424 117.006697 259.448617 117.112063 259.71382 117.112063 
z
" style="fill:#ff0000;stroke:#ff0000;"/>
    <path clip-path="url(#p27d7313d40)" d="M 266.893307 130.03626 
C 267.40687 130.03626 267.899469 129.832219 268.262613 129.469075 
C 268.625757 129.105931 268.829798 128.613332 268.829798 128.099769 
C 268.829798 127.586205 268.625757 127.093607 268.262613 126.730462 
C 267.899469 126.367318 267.40687 126.163277 266.893307 126.163277 
C 266.379743 126.163277 265.887145 126.367318 265.524 126.730462 
C 265.160856 127.093607 264.956815 127.586205 264.956815 128.099769 
C 264.956815 128.613332 265.160856 129.105931 265.524 129.469075 
C 265.887145 129.832219 266.379743 130.03626 266.893307 130.03626 
z
" style="fill:#ff0000;stroke:#ff0000;"/>
    <path clip-path="url(#p27d7313d40)" d="M 274.112353 142.417373 
C 274.712732 142.417373 275.288602 142.17884 275.713134 141.754308 
C 276.137666 141.329776 276.376199 140.753906 276.376199 140.153527 
C 276.376199 139.553148 276.137666 138.977278 275.713134 138.552746 
C 275.288602 138.128214 274.712732 137.889681 274.112353 137.889681 
C 273.511974 137.889681 272.936104 138.128214 272.511572 138.552746 
C 272.08704 138.977278 271.848506 139.553148 271.848506 140.153527 
C 271.848506 140.753906 272.08704 141.329776 272.511572 141.754308 
C 272.936104 142.17884 273.511974 142.417373 274.112353 142.417373 
z
" style="fill:#ff0000;stroke:#ff0000;"/>
    <path clip-path="url(#p27d7313d40)" d="M 281.371286 155.396385 
C 282.199382 155.396385 282.993673 155.067379 283.579226 154.481826 
C 284.164779 153.896274 284.493785 153.101982 284.493785 152.273886 
C 284.493785 151.44579 284.164779 150.651498 283.579226 150.065946 
C 282.993673 149.480393 282.199382 149.151387 281.371286 149.151387 
C 280.543189 149.151387 279.748898 149.480393 279.163346 150.065946 
C 278.577793 150.651498 278.248787 151.44579 278.248787 152.273886 
C 278.248787 153.101982 278.577793 153.896274 279.163346 154.481826 
C 279.748898 155.067379 280.543189 155.396385 281.371286 155.396385 
z
" style="fill:#ff0000;stroke:#ff0000;"/>
    <path clip-path="url(#p27d7313d40)" d="M 288.670438 169.705443 
C 290.061174 169.705443 291.395138 169.152897 292.378537 168.169498 
C 293.361936 167.186099 293.914482 165.852135 293.914482 164.461399 
C 293.914482 163.070662 293.361936 161.736699 292.378537 160.753299 
C 291.395138 159.7699 290.061174 159.217354 288.670438 159.217354 
C 287.279701 159.217354 285.945738 159.7699 284.962338 160.753299 
C 283.978939 161.736699 283.426393 163.070662 283.426393 164.461399 
C 283.426393 165.852135 283.978939 167.186099 284.962338 168.169498 
C 285.945738 169.152897 287.279701 169.705443 288.670438 169.705443 
z
" style="fill:#ff0000;stroke:#ff0000;"/>
    <path clip-path="url(#p27d7313d40)" d="M 296.010143 186.883975 
C 298.706556 186.883975 301.292894 185.812678 303.199545 183.906027 
C 305.106197 181.999375 306.177493 179.413038 306.177493 176.716625 
C 306.177493 174.020212 305.106197 171.433875 303.199545 169.527223 
C 301.292894 167.620571 298.706556 166.549275 296.010143 166.549275 
C 293.313731 166.549275 290.727393 167.620571 288.820742 169.527223 
C 286.91409 171.433875 285.842794 174.020212 285.842794 176.716625 
C 285.842794 179.413038 286.91409 181.999375 288.820742 183.906027 
C 290.727393 185.812678 293.313731 186.883975 296.010143 186.883975 
z
" style="fill:#ff0000;stroke:#ff0000;"/>
    <path clip-path="url(#p27d7313d40)" d="M 303.390742 199.23817 
C 306.095294 199.23817 308.689438 198.16364 310.601845 196.251233 
C 312.514251 194.338826 313.588781 191.744682 313.588781 189.04013 
C 313.588781 186.335579 312.514251 183.741435 310.601845 181.829028 
C 308.689438 179.916621 306.095294 178.842091 303.390742 178.842091 
C 300.68619 178.842091 298.092046 179.916621 296.17964 181.829028 
C 294.267233 183.741435 293.192703 186.335579 293.192703 189.04013 
C 293.192703 191.744682 294.267233 194.338826 296.17964 196.251233 
C 298.092046 198.16364 300.68619 199.23817 303.390742 199.23817 
z
" style="fill:#ff0000;stroke:#ff0000;"/>
    <path clip-path="url(#p27d7313d40)" d="M 310.812576 206.48224 
C 312.151786 206.48224 313.436326 205.950166 314.38329 205.003202 
C 315.330255 204.056237 315.862329 202.771698 315.862329 201.432488 
C 315.862329 200.093278 315.330255 198.808738 314.38329 197.861774 
C 313.436326 196.914809 312.151786 196.382735 310.812576 196.382735 
C 309.473366 196.382735 308.188826 196.914809 307.241862 197.861774 
C 306.294897 198.808738 305.762824 200.093278 305.762824 201.432488 
C 305.762824 202.771698 306.294897 204.056237 307.241862 205.003202 
C 308.188826 205.950166 309.473366 206.48224 310.812576 206.48224 
z
" style="fill:#ff0000;stroke:#ff0000;"/>
    <path clip-path="url(#p27d7313d40)" d="M 318.275992 216.158122 
C 318.876371 216.158122 319.452241 215.919588 319.876773 215.495056 
C 320.301306 215.070524 320.539839 214.494654 320.539839 213.894275 
C 320.539839 213.293896 320.301306 212.718026 319.876773 212.293494 
C 319.452241 211.868962 318.876371 211.630429 318.275992 211.630429 
C 317.675613 211.630429 317.099743 211.868962 316.675211 212.293494 
C 316.250679 212.718026 316.012146 213.293896 316.012146 213.894275 
C 316.012146 214.494654 316.250679 215.070524 316.675211 215.495056 
C 317.099743 215.919588 317.675613 216.158122 318.275992 216.158122 
z
" style="fill:#ff0000;stroke:#ff0000;"/>
    <path clip-path="url(#p27d7313d40)" d="M 207.466343 56.430705 
C 207.466343 56.430705 207.466343 56.430705 207.466343 56.430705 
C 207.466343 56.430705 207.466343 56.430705 207.466343 56.430705 
C 207.466343 56.430705 207.466343 56.430705 207.466343 56.430705 
C 207.466343 56.430705 207.466343 56.430705 207.466343 56.430705 
C 207.466343 56.430705 207.466343 56.430705 207.466343 56.430705 
C 207.466343 56.430705 207.466343 56.430705 207.466343 56.430705 
C 207.466343 56.430705 207.466343 56.430705 207.466343 56.430705 
C 207.466343 56.430705 207.466343 56.430705 207.466343 56.430705 
z
" style="fill:#ff0000;stroke:#ff0000;"/>
    <path clip-path="url(#p27d7313d40)" d="M 197.459219 67.844266 
C 197.59182 67.844266 197.719009 67.791583 197.812772 67.697819 
C 197.906536 67.604056 197.959219 67.476867 197.959219 67.344266 
C 197.959219 67.211664 197.906536 67.084476 197.812772 66.990713 
C 197.719009 66.896949 197.59182 66.844266 197.459219 66.844266 
C 197.326617 66.844266 197.199429 66.896949 197.105665 66.990713 
C 197.011902 67.084476 196.959219 67.211664 196.959219 67.344266 
C 196.959219 67.476867 197.011902 67.604056 197.105665 67.697819 
C 197.199429 67.791583 197.326617 67.844266 197.459219 67.844266 
z
" style="fill:#ff0000;stroke:#ff0000;"/>
    <path clip-path="url(#p27d7313d40)" d="M 187.428275 78.896176 
C 187.590678 78.896176 187.746452 78.831653 187.861288 78.716816 
C 187.976124 78.60198 188.040648 78.446207 188.040648 78.283804 
C 188.040648 78.121401 187.976124 77.965627 187.861288 77.850791 
C 187.746452 77.735955 187.590678 77.671431 187.428275 77.671431 
C 187.265872 77.671431 187.110099 77.735955 186.995263 77.850791 
C 186.880426 77.965627 186.815903 78.121401 186.815903 78.283804 
C 186.815903 78.446207 186.880426 78.60198 186.995263 78.716816 
C 187.110099 78.831653 187.265872 78.896176 187.428275 78.896176 
z
" style="fill:#ff0000;stroke:#ff0000;"/>
    <path clip-path="url(#p27d7313d40)" d="M 177.373428 89.602965 
C 177.467191 89.602965 177.557127 89.565712 177.623428 89.499411 
C 177.689728 89.43311 177.726981 89.343175 177.726981 89.249411 
C 177.726981 89.155648 177.689728 89.065712 177.623428 88.999411 
C 177.557127 88.93311 177.467191 88.895858 177.373428 88.895858 
C 177.279664 88.895858 177.189728 88.93311 177.123428 88.999411 
C 177.057127 89.065712 177.019874 89.155648 177.019874 89.249411 
C 177.019874 89.343175 177.057127 89.43311 177.123428 89.499411 
C 177.189728 89.565712 177.279664 89.602965 177.373428 89.602965 
z
" style="fill:#ff0000;stroke:#ff0000;"/>
    <path clip-path="url(#p27d7313d40)" d="M 167.29459 100.853554 
C 167.456993 100.853554 167.612766 100.789031 167.727603 100.674194 
C 167.842439 100.559358 167.906962 100.403585 167.906962 100.241182 
C 167.906962 100.078778 167.842439 99.923005 167.727603 99.808169 
C 167.612766 99.693333 167.456993 99.628809 167.29459 99.628809 
C 167.132187 99.628809 166.976414 99.693333 166.861577 99.808169 
C 166.746741 99.923005 166.682218 100.078778 166.682218 100.241182 
C 166.682218 100.403585 166.746741 100.559358 166.861577 100.674194 
C 166.976414 100.789031 167.132187 100.853554 167.29459 100.853554 
z
" style="fill:#ff0000;stroke:#ff0000;"/>
    <path clip-path="url(#p27d7313d40)" d="M 157.191676 111.759209 
C 157.324278 111.759209 157.451466 111.706525 157.54523 111.612762 
C 157.638993 111.518998 157.691676 111.39181 157.691676 111.259209 
C 157.691676 111.126607 157.638993 110.999419 157.54523 110.905655 
C 157.451466 110.811892 157.324278 110.759209 157.191676 110.759209 
C 157.059075 110.759209 156.931887 110.811892 156.838123 110.905655 
C 156.74436 110.999419 156.691676 111.126607 156.691676 111.259209 
C 156.691676 111.39181 156.74436 111.518998 156.838123 111.612762 
C 156.931887 111.706525 157.059075 111.759209 157.191676 111.759209 
z
" style="fill:#ff0000;stroke:#ff0000;"/>
    <path clip-path="url(#p27d7313d40)" d="M 147.064601 123.239001 
C 147.312675 123.239001 147.550623 123.14044 147.726038 122.965024 
C 147.901454 122.789609 148.000015 122.551661 148.000015 122.303586 
C 148.000015 122.055512 147.901454 121.817564 147.726038 121.642149 
C 147.550623 121.466733 147.312675 121.368172 147.064601 121.368172 
C 146.816526 121.368172 146.578578 121.466733 146.403163 121.642149 
C 146.227747 121.817564 146.129186 122.055512 146.129186 122.303586 
C 146.129186 122.551661 146.227747 122.789609 146.403163 122.965024 
C 146.578578 123.14044 146.816526 123.239001 147.064601 123.239001 
z
" style="fill:#ff0000;stroke:#ff0000;"/>
    <path clip-path="url(#p27d7313d40)" d="M 136.913276 134.309824 
C 137.161351 134.309824 137.399298 134.211263 137.574714 134.035848 
C 137.750129 133.860432 137.84869 133.622485 137.84869 133.37441 
C 137.84869 133.126335 137.750129 132.888387 137.574714 132.712972 
C 137.399298 132.537557 137.161351 132.438995 136.913276 132.438995 
C 136.665201 132.438995 136.427253 132.537557 136.251838 132.712972 
C 136.076423 132.888387 135.977861 133.126335 135.977861 133.37441 
C 135.977861 133.622485 136.076423 133.860432 136.251838 134.035848 
C 136.427253 134.211263 136.665201 134.309824 136.913276 134.309824 
z
" style="fill:#ff0000;stroke:#ff0000;"/>
    <path clip-path="url(#p27d7313d40)" d="M 126.737615 145.407188 
C 126.98569 145.407188 127.223637 145.308627 127.399053 145.133212 
C 127.574468 144.957796 127.673029 144.719848 127.673029 144.471774 
C 127.673029 144.223699 127.574468 143.985751 127.399053 143.810336 
C 127.223637 143.63492 126.98569 143.536359 126.737615 143.536359 
C 126.48954 143.536359 126.251592 143.63492 126.076177 143.810336 
C 125.900762 143.985751 125.8022 144.223699 125.8022 144.471774 
C 125.8022 144.719848 125.900762 144.957796 126.076177 145.133212 
C 126.251592 145.308627 126.48954 145.407188 126.737615 145.407188 
z
" style="fill:#ff0000;stroke:#ff0000;"/>
    <path clip-path="url(#p27d7313d40)" d="M 116.53753 156.302881 
C 116.725057 156.302881 116.904928 156.228375 117.03753 156.095774 
C 117.170131 155.963172 117.244637 155.783301 117.244637 155.595774 
C 117.244637 155.408247 117.170131 155.228375 117.03753 155.095774 
C 116.904928 154.963172 116.725057 154.888667 116.53753 154.888667 
C 116.350003 154.888667 116.170131 154.963172 116.03753 155.095774 
C 115.904928 155.228375 115.830423 155.408247 115.830423 155.595774 
C 115.830423 155.783301 115.904928 155.963172 116.03753 156.095774 
C 116.170131 156.228375 116.350003 156.302881 116.53753 156.302881 
z
" style="fill:#ff0000;stroke:#ff0000;"/>
    <path clip-path="url(#p27d7313d40)" d="M 106.312933 167.453613 
C 106.50046 167.453613 106.680331 167.379108 106.812933 167.246506 
C 106.945534 167.113904 107.02004 166.934033 107.02004 166.746506 
C 107.02004 166.558979 106.945534 166.379108 106.812933 166.246506 
C 106.680331 166.113904 106.50046 166.039399 106.312933 166.039399 
C 106.125406 166.039399 105.945534 166.113904 105.812933 166.246506 
C 105.680331 166.379108 105.605826 166.558979 105.605826 166.746506 
C 105.605826 166.934033 105.680331 167.113904 105.812933 167.246506 
C 105.945534 167.379108 106.125406 167.453613 106.312933 167.453613 
z
" style="fill:#ff0000;stroke:#ff0000;"/>
    <path clip-path="url(#p27d7313d40)" d="M 96.063736 178.424067 
C 96.196337 178.424067 96.323526 178.371384 96.417289 178.27762 
C 96.511053 178.183857 96.563736 178.056668 96.563736 177.924067 
C 96.563736 177.791465 96.511053 177.664277 96.417289 177.570514 
C 96.323526 177.47675 96.196337 177.424067 96.063736 177.424067 
C 95.931134 177.424067 95.803946 177.47675 95.710182 177.570514 
C 95.616419 177.664277 95.563736 177.791465 95.563736 177.924067 
C 95.563736 178.056668 95.616419 178.183857 95.710182 178.27762 
C 95.803946 178.371384 95.931134 178.424067 96.063736 178.424067 
z
" style="fill:#ff0000;stroke:#ff0000;"/>
    <path clip-path="url(#p27d7313d40)" d="M 85.789849 189.128553 
C 85.789849 189.128553 85.789849 189.128553 85.789849 189.128553 
C 85.789849 189.128553 85.789849 189.128553 85.789849 189.128553 
C 85.789849 189.128553 85.789849 189.128553 85.789849 189.128553 
C 85.789849 189.128553 85.789849 189.128553 85.789849 189.128553 
C 85.789849 189.128553 85.789849 189.128553 85.789849 189.128553 
C 85.789849 189.128553 85.789849 189.128553 85.789849 189.128553 
C 85.789849 189.128553 85.789849 189.128553 85.789849 189.128553 
C 85.789849 189.128553 85.789849 189.128553 85.789849 189.128553 
z
" style="fill:#ff0000;stroke:#ff0000;"/>
    <path clip-path="url(#p27d7313d40)" d="M 75.491184 200.713616 
C 75.584948 200.713616 75.674883 200.676364 75.741184 200.610063 
C 75.807485 200.543762 75.844738 200.453826 75.844738 200.360063 
C 75.844738 200.266299 75.807485 200.176364 75.741184 200.110063 
C 75.674883 200.043762 75.584948 200.00651 75.491184 200.00651 
C 75.397421 200.00651 75.307485 200.043762 75.241184 200.110063 
C 75.174883 200.176364 75.137631 200.266299 75.137631 200.360063 
C 75.137631 200.453826 75.174883 200.543762 75.241184 200.610063 
C 75.307485 200.676364 75.397421 200.713616 75.491184 200.713616 
z
" style="fill:#ff0000;stroke:#ff0000;"/>
    <path clip-path="url(#p27d7313d40)" d="M 308.024995 227.841049 
C 308.667805 227.841049 309.284373 227.585658 309.738908 227.131123 
C 310.193444 226.676588 310.448835 226.060019 310.448835 225.417209 
C 310.448835 224.774399 310.193444 224.157831 309.738908 223.703296 
C 309.284373 223.24876 308.667805 222.993369 308.024995 222.993369 
C 307.382185 222.993369 306.765616 223.24876 306.311081 223.703296 
C 305.856546 224.157831 305.601155 224.774399 305.601155 225.417209 
C 305.601155 226.060019 305.856546 226.676588 306.311081 227.131123 
C 306.765616 227.585658 307.382185 227.841049 308.024995 227.841049 
z
" style="fill:#ff0000;stroke:#ff0000;"/>
    <path clip-path="url(#p27d7313d40)" d="M 290.324347 228.741632 
C 291.47271 228.741632 292.574194 228.285382 293.386209 227.473367 
C 294.198225 226.661352 294.654474 225.559868 294.654474 224.411505 
C 294.654474 223.263142 294.198225 222.161658 293.386209 221.349643 
C 292.574194 220.537627 291.47271 220.081378 290.324347 220.081378 
C 289.175984 220.081378 288.0745 220.537627 287.262485 221.349643 
C 286.45047 222.161658 285.99422 223.263142 285.99422 224.411505 
C 285.99422 225.559868 286.45047 226.661352 287.262485 227.473367 
C 288.0745 228.285382 289.175984 228.741632 290.324347 228.741632 
z
" style="fill:#ff0000;stroke:#ff0000;"/>
    <path clip-path="url(#p27d7313d40)" d="M 272.679137 227.753487 
C 273.831321 227.753487 274.93647 227.295719 275.751188 226.481002 
C 276.565906 225.666284 277.023673 224.561135 277.023673 223.40895 
C 277.023673 222.256766 276.565906 221.151617 275.751188 220.336899 
C 274.93647 219.522181 273.831321 219.064414 272.679137 219.064414 
C 271.526952 219.064414 270.421803 219.522181 269.607085 220.336899 
C 268.792368 221.151617 268.3346 222.256766 268.3346 223.40895 
C 268.3346 224.561135 268.792368 225.666284 269.607085 226.481002 
C 270.421803 227.295719 271.526952 227.753487 272.679137 227.753487 
z
" style="fill:#ff0000;stroke:#ff0000;"/>
    <path clip-path="url(#p27d7313d40)" d="M 255.089103 226.083766 
C 256.063521 226.083766 256.998161 225.696625 257.687179 225.007607 
C 258.376197 224.318589 258.763338 223.383949 258.763338 222.409531 
C 258.763338 221.435113 258.376197 220.500473 257.687179 219.811455 
C 256.998161 219.122437 256.063521 218.735296 255.089103 218.735296 
C 254.114685 218.735296 253.180045 219.122437 252.491027 219.811455 
C 251.802009 220.500473 251.414868 221.435113 251.414868 222.409531 
C 251.414868 223.383949 251.802009 224.318589 252.491027 225.007607 
C 253.180045 225.696625 254.114685 226.083766 255.089103 226.083766 
z
" style="fill:#ff0000;stroke:#ff0000;"/>
    <path clip-path="url(#p27d7313d40)" d="M 237.553988 224.595212 
C 238.397859 224.595212 239.207281 224.259939 239.803988 223.663232 
C 240.400695 223.066525 240.735969 222.257103 240.735969 221.413232 
C 240.735969 220.569361 240.400695 219.759939 239.803988 219.163232 
C 239.207281 218.566525 238.397859 218.231251 237.553988 218.231251 
C 236.710117 218.231251 235.900695 218.566525 235.303988 219.163232 
C 234.707281 219.759939 234.372008 220.569361 234.372008 221.413232 
C 234.372008 222.257103 234.707281 223.066525 235.303988 223.663232 
C 235.900695 224.259939 236.710117 224.595212 237.553988 224.595212 
z
" style="fill:#ff0000;stroke:#ff0000;"/>
    <path clip-path="url(#p27d7313d40)" d="M 220.073535 223.089308 
C 220.781434 223.089308 221.460434 222.808057 221.960994 222.307497 
C 222.461554 221.806937 222.742805 221.127937 222.742805 220.420038 
C 222.742805 219.71214 222.461554 219.03314 221.960994 218.53258 
C 221.460434 218.03202 220.781434 217.750769 220.073535 217.750769 
C 219.365637 217.750769 218.686636 218.03202 218.186077 218.53258 
C 217.685517 219.03314 217.404266 219.71214 217.404266 220.420038 
C 217.404266 221.127937 217.685517 221.806937 218.186077 222.307497 
C 218.686636 222.808057 219.365637 223.089308 220.073535 223.089308 
z
" style="fill:#ff0000;stroke:#ff0000;"/>
    <path clip-path="url(#p27d7313d40)" d="M 202.647489 221.161987 
C 203.106834 221.161987 203.547428 220.979487 203.872234 220.654681 
C 204.19704 220.329875 204.37954 219.889282 204.37954 219.429936 
C 204.37954 218.970591 204.19704 218.529998 203.872234 218.205191 
C 203.547428 217.880385 203.106834 217.697885 202.647489 217.697885 
C 202.188144 217.697885 201.74755 217.880385 201.422744 218.205191 
C 201.097938 218.529998 200.915438 218.970591 200.915438 219.429936 
C 200.915438 219.889282 201.097938 220.329875 201.422744 220.654681 
C 201.74755 220.979487 202.188144 221.161987 202.647489 221.161987 
z
" style="fill:#ff0000;stroke:#ff0000;"/>
    <path clip-path="url(#p27d7313d40)" d="M 185.275595 219.812217 
C 185.63874 219.812217 185.987059 219.667939 186.243841 219.411157 
C 186.500623 219.154375 186.644902 218.806055 186.644902 218.442911 
C 186.644902 218.079767 186.500623 217.731447 186.243841 217.474665 
C 185.987059 217.217883 185.63874 217.073605 185.275595 217.073605 
C 184.912451 217.073605 184.564131 217.217883 184.30735 217.474665 
C 184.050568 217.731447 183.906289 218.079767 183.906289 218.442911 
C 183.906289 218.806055 184.050568 219.154375 184.30735 219.411157 
C 184.564131 219.667939 184.912451 219.812217 185.275595 219.812217 
z
" style="fill:#ff0000;stroke:#ff0000;"/>
    <path clip-path="url(#p27d7313d40)" d="M 167.957603 218.916686 
C 168.3442 218.916686 168.715014 218.76309 168.988379 218.489725 
C 169.261745 218.216359 169.415341 217.845545 169.415341 217.458948 
C 169.415341 217.072352 169.261745 216.701537 168.988379 216.428172 
C 168.715014 216.154807 168.3442 216.00121 167.957603 216.00121 
C 167.571006 216.00121 167.200192 216.154807 166.926827 216.428172 
C 166.653462 216.701537 166.499865 217.072352 166.499865 217.458948 
C 166.499865 217.845545 166.653462 218.216359 166.926827 218.489725 
C 167.200192 218.76309 167.571006 218.916686 167.957603 218.916686 
z
" style="fill:#ff0000;stroke:#ff0000;"/>
    <path clip-path="url(#p27d7313d40)" d="M 150.693261 217.18514 
C 150.880788 217.18514 151.06066 217.110635 151.193261 216.978034 
C 151.325863 216.845432 151.400368 216.665561 151.400368 216.478034 
C 151.400368 216.290507 151.325863 216.110635 151.193261 215.978034 
C 151.06066 215.845432 150.880788 215.770927 150.693261 215.770927 
C 150.505734 215.770927 150.325863 215.845432 150.193261 215.978034 
C 150.06066 216.110635 149.986154 216.290507 149.986154 216.478034 
C 149.986154 216.665561 150.06066 216.845432 150.193261 216.978034 
C 150.325863 217.110635 150.505734 217.18514 150.693261 217.18514 
z
" style="fill:#ff0000;stroke:#ff0000;"/>
    <path clip-path="url(#p27d7313d40)" d="M 133.482321 216.20726 
C 133.669848 216.20726 133.849719 216.132755 133.982321 216.000153 
C 134.114923 215.867552 134.189428 215.68768 134.189428 215.500153 
C 134.189428 215.312626 134.114923 215.132755 133.982321 215.000153 
C 133.849719 214.867552 133.669848 214.793046 133.482321 214.793046 
C 133.294794 214.793046 133.114923 214.867552 132.982321 215.000153 
C 132.849719 215.132755 132.775214 215.312626 132.775214 215.500153 
C 132.775214 215.68768 132.849719 215.867552 132.982321 216.000153 
C 133.114923 216.132755 133.294794 216.20726 133.482321 216.20726 
z
" style="fill:#ff0000;stroke:#ff0000;"/>
    <path clip-path="url(#p27d7313d40)" d="M 116.324535 215.2324 
C 116.512062 215.2324 116.691933 215.157894 116.824535 215.025293 
C 116.957136 214.892691 117.031642 214.71282 117.031642 214.525293 
C 117.031642 214.337766 116.957136 214.157894 116.824535 214.025293 
C 116.691933 213.892691 116.512062 213.818186 116.324535 213.818186 
C 116.137008 213.818186 115.957136 213.892691 115.824535 214.025293 
C 115.691933 214.157894 115.617428 214.337766 115.617428 214.525293 
C 115.617428 214.71282 115.691933 214.892691 115.824535 215.025293 
C 115.957136 215.157894 116.137008 215.2324 116.324535 215.2324 
z
" style="fill:#ff0000;stroke:#ff0000;"/>
    <path clip-path="url(#p27d7313d40)" d="M 99.219657 214.053439 
C 99.352259 214.053439 99.479447 214.000756 99.573211 213.906992 
C 99.666974 213.813229 99.719657 213.68604 99.719657 213.553439 
C 99.719657 213.420837 99.666974 213.293649 99.573211 213.199885 
C 99.479447 213.106122 99.352259 213.053439 99.219657 213.053439 
C 99.087056 213.053439 98.959867 213.106122 98.866104 213.199885 
C 98.77234 213.293649 98.719657 213.420837 98.719657 213.553439 
C 98.719657 213.68604 98.77234 213.813229 98.866104 213.906992 
C 98.959867 214.000756 99.087056 214.053439 99.219657 214.053439 
z
" style="fill:#ff0000;stroke:#ff0000;"/>
    <path clip-path="url(#p27d7313d40)" d="M 82.167443 212.584577 
C 82.167443 212.584577 82.167443 212.584577 82.167443 212.584577 
C 82.167443 212.584577 82.167443 212.584577 82.167443 212.584577 
C 82.167443 212.584577 82.167443 212.584577 82.167443 212.584577 
C 82.167443 212.584577 82.167443 212.584577 82.167443 212.584577 
C 82.167443 212.584577 82.167443 212.584577 82.167443 212.584577 
C 82.167443 212.584577 82.167443 212.584577 82.167443 212.584577 
C 82.167443 212.584577 82.167443 212.584577 82.167443 212.584577 
C 82.167443 212.584577 82.167443 212.584577 82.167443 212.584577 
z
" style="fill:#ff0000;stroke:#ff0000;"/>
   </g>
   <g id="legend_1">
    <g id="patch_6">
     <path d="M 21.2 291.2 
L 294.2 291.2 
Q 297.2 291.2 297.2 288.2 
L 297.2 249.95 
Q 297.2 246.95 294.2 246.95 
L 21.2 246.95 
Q 18.2 246.95 18.2 249.95 
L 18.2 288.2 
Q 18.2 291.2 21.2 291.2 
z
" style="fill:#ffffff;opacity:0.8;stroke:#cccccc;stroke-linejoin:miter;"/>
    </g>
    <g id="Path3DCollection_3">
     <defs>
      <path d="M 0 7.211103 
C 1.912407 7.211103 3.746744 6.451295 5.09902 5.09902 
C 6.451295 3.746744 7.211103 1.912407 7.211103 0 
C 7.211103 -1.912407 6.451295 -3.746744 5.09902 -5.09902 
C 3.746744 -6.451295 1.912407 -7.211103 0 -7.211103 
C -1.912407 -7.211103 -3.746744 -6.451295 -5.09902 -5.09902 
C -6.451295 -3.746744 -7.211103 -1.912407 -7.211103 0 
C -7.211103 1.912407 -6.451295 3.746744 -5.09902 5.09902 
C -3.746744 6.451295 -1.912407 7.211103 0 7.211103 
z
" id="m22f03af1a0" style="stroke:#ff0000;"/>
     </defs>
     <g>
      <use style="fill:#ff0000;stroke:#ff0000;" x="39.2" xlink:href="#m22f03af1a0" y="259.5125"/>
     </g>
    </g>
    <g id="text_28">
     <!-- probability of absorbing state -->
     <defs>
      <path d="M 44.140625 23.828125 
Q 44.140625 12.5 38.671875 6.640625 
Q 33.203125 0.78125 25.390625 0.78125 
Q 21.09375 0.78125 17.96875 2.53125 
Q 14.84375 4.296875 12.5 7.8125 
L 12.5 -12.5 
L 4.6875 -12.5 
L 4.6875 45.703125 
L 12.5 45.703125 
L 12.5 39.84375 
Q 14.84375 43.359375 17.96875 44.921875 
Q 21.09375 46.484375 25.390625 46.484375 
Q 33.203125 46.484375 38.671875 40.8125 
Q 44.140625 35.15625 44.140625 23.828125 
z
M 35.546875 23.828125 
Q 35.546875 31.25 32.609375 35.34375 
Q 29.6875 39.453125 23.828125 39.453125 
Q 19.140625 39.453125 15.8125 35.34375 
Q 12.5 31.25 12.5 23.828125 
Q 12.5 16.40625 15.8125 12.109375 
Q 19.140625 7.8125 23.828125 7.8125 
Q 29.6875 7.8125 32.609375 12.109375 
Q 35.546875 16.40625 35.546875 23.828125 
z
" id="SimHei-70"/>
      <path d="M 39.0625 37.890625 
Q 31.640625 39.0625 26.5625 35.734375 
Q 21.484375 32.421875 17.96875 24.21875 
L 17.96875 1.953125 
L 10.15625 1.953125 
L 10.15625 45.703125 
L 17.96875 45.703125 
L 17.96875 34.375 
Q 21.484375 40.625 26.75 43.546875 
Q 32.03125 46.484375 39.0625 46.484375 
z
" id="SimHei-72"/>
      <path d="M 44.140625 23.828125 
Q 44.140625 12.5 38.671875 6.828125 
Q 33.203125 1.171875 25.390625 1.171875 
Q 21.09375 1.171875 17.96875 2.734375 
Q 14.84375 4.296875 12.5 7.8125 
L 12.5 1.953125 
L 4.6875 1.953125 
L 4.6875 68.75 
L 12.5 68.75 
L 12.5 39.84375 
Q 14.84375 43.359375 17.96875 45.109375 
Q 21.09375 46.875 25.390625 46.875 
Q 33.203125 46.875 38.671875 41.015625 
Q 44.140625 35.15625 44.140625 23.828125 
z
M 35.546875 23.828125 
Q 35.546875 31.25 32.609375 35.546875 
Q 29.6875 39.84375 23.828125 39.84375 
Q 19.140625 39.84375 15.8125 35.546875 
Q 12.5 31.25 12.5 23.828125 
Q 12.5 16.40625 15.8125 12.296875 
Q 19.140625 8.203125 23.828125 8.203125 
Q 29.6875 8.203125 32.609375 12.296875 
Q 35.546875 16.40625 35.546875 23.828125 
z
" id="SimHei-62"/>
      <path d="M 44.921875 1.953125 
L 35.546875 1.953125 
Q 34.765625 2.734375 34.375 4.09375 
Q 33.984375 5.46875 33.984375 7.421875 
Q 31.25 4.296875 27.34375 2.734375 
Q 23.4375 1.171875 19.140625 1.171875 
Q 12.890625 1.171875 8.59375 4.296875 
Q 4.296875 7.421875 4.296875 13.28125 
Q 4.296875 19.140625 8.203125 22.65625 
Q 12.109375 26.171875 20.3125 27.34375 
Q 25.78125 28.125 29.875 29.296875 
Q 33.984375 30.46875 33.984375 32.421875 
Q 33.984375 34.765625 32.21875 37.109375 
Q 30.46875 39.453125 24.609375 39.453125 
Q 19.921875 39.453125 17.765625 37.6875 
Q 15.625 35.9375 14.84375 32.8125 
L 6.25 32.8125 
Q 7.03125 39.0625 11.90625 42.765625 
Q 16.796875 46.484375 24.609375 46.484375 
Q 33.203125 46.484375 37.5 42.578125 
Q 41.796875 38.671875 41.796875 31.640625 
L 41.796875 10.15625 
Q 41.796875 7.8125 42.578125 5.859375 
Q 43.359375 3.90625 44.921875 1.953125 
z
M 33.984375 16.40625 
L 33.984375 24.21875 
Q 31.640625 23.4375 29.484375 22.84375 
Q 27.34375 22.265625 22.265625 21.484375 
Q 16.40625 20.703125 14.640625 18.75 
Q 12.890625 16.796875 12.890625 14.0625 
Q 12.890625 11.71875 14.640625 9.953125 
Q 16.40625 8.203125 19.921875 8.203125 
Q 23.4375 8.203125 27.53125 10.15625 
Q 31.640625 12.109375 33.984375 16.40625 
z
" id="SimHei-61"/>
      <path d="M 28.515625 1.953125 
L 20.703125 1.953125 
L 20.703125 68.75 
L 28.515625 68.75 
z
" id="SimHei-6c"/>
      <path d="M 42.96875 3.125 
Q 41.015625 2.34375 38.46875 1.75 
Q 35.9375 1.171875 31.640625 1.171875 
Q 24.609375 1.171875 20.3125 5.078125 
Q 16.015625 8.984375 16.015625 16.015625 
L 16.015625 39.453125 
L 2.734375 39.453125 
L 2.734375 45.703125 
L 16.015625 45.703125 
L 16.015625 60.9375 
L 23.828125 60.9375 
L 23.828125 45.703125 
L 39.84375 45.703125 
L 39.84375 39.453125 
L 23.828125 39.453125 
L 23.828125 15.625 
Q 23.828125 12.5 25.390625 10.34375 
Q 26.953125 8.203125 31.25 8.203125 
Q 35.546875 8.203125 38.28125 8.984375 
Q 41.015625 9.765625 42.96875 10.9375 
z
" id="SimHei-74"/>
      <path d="M 45.3125 45.703125 
L 27.34375 -1.5625 
Q 25.78125 -7.03125 22.65625 -9.765625 
Q 19.53125 -12.5 14.84375 -12.5 
Q 12.890625 -12.5 11.125 -12.296875 
Q 9.375 -12.109375 7.8125 -11.328125 
L 7.8125 -3.515625 
Q 9.375 -4.296875 10.9375 -4.6875 
Q 12.5 -5.078125 13.671875 -5.078125 
Q 16.796875 -5.078125 17.96875 -4.09375 
Q 19.140625 -3.125 20.3125 0.390625 
L 3.125 45.703125 
L 11.71875 45.703125 
L 24.21875 11.328125 
L 24.609375 11.328125 
L 36.71875 45.703125 
z
" id="SimHei-79"/>
      <path d="M 46.484375 39.0625 
Q 43.75 39.84375 41.203125 40.03125 
Q 38.671875 40.234375 35.9375 39.453125 
Q 37.109375 38.28125 37.890625 36.515625 
Q 38.671875 34.765625 38.671875 31.25 
Q 38.671875 24.609375 34.171875 20.3125 
Q 29.6875 16.015625 23.046875 16.015625 
Q 21.484375 16.015625 18.9375 16.59375 
Q 16.40625 17.1875 14.84375 17.96875 
Q 13.671875 17.1875 13.28125 16.40625 
Q 12.890625 15.625 12.890625 14.453125 
Q 12.890625 12.5 15.625 11.515625 
Q 18.359375 10.546875 25.390625 10.546875 
Q 36.71875 10.546875 40.8125 7.421875 
Q 44.921875 4.296875 44.921875 -0.390625 
Q 44.921875 -6.640625 38.859375 -9.5625 
Q 32.8125 -12.5 24.609375 -12.5 
Q 14.0625 -12.5 8.984375 -9.765625 
Q 3.90625 -7.03125 3.90625 -2.34375 
Q 3.90625 0 5.859375 2.34375 
Q 7.8125 4.6875 10.9375 6.25 
Q 8.59375 7.421875 7.21875 9.171875 
Q 5.859375 10.9375 5.859375 13.671875 
Q 5.859375 16.015625 7.609375 17.765625 
Q 9.375 19.53125 11.71875 20.703125 
Q 9.765625 22.65625 8.59375 25.390625 
Q 7.421875 28.125 7.421875 31.25 
Q 7.421875 37.890625 11.90625 42.1875 
Q 16.40625 46.484375 23.046875 46.484375 
Q 26.5625 46.484375 29.09375 45.5 
Q 31.640625 44.53125 33.59375 42.578125 
Q 36.71875 44.921875 39.84375 45.890625 
Q 42.96875 46.875 46.484375 46.484375 
z
M 30.859375 31.25 
Q 30.859375 35.15625 28.90625 37.5 
Q 26.953125 39.84375 23.046875 39.84375 
Q 19.140625 39.84375 17.1875 37.5 
Q 15.234375 35.15625 15.234375 31.25 
Q 15.234375 27.34375 17.1875 25 
Q 19.140625 22.65625 23.046875 22.65625 
Q 26.953125 22.65625 28.90625 25 
Q 30.859375 27.34375 30.859375 31.25 
z
M 37.5 -1.171875 
Q 37.5 0.390625 35.734375 1.953125 
Q 33.984375 3.515625 26.953125 3.515625 
Q 25.390625 3.515625 22.65625 3.703125 
Q 19.921875 3.90625 16.40625 4.296875 
Q 13.28125 3.125 12.109375 1.5625 
Q 10.9375 0 10.9375 -1.5625 
Q 10.9375 -3.90625 14.0625 -5.46875 
Q 17.1875 -7.03125 25 -7.03125 
Q 31.640625 -7.03125 34.5625 -5.265625 
Q 37.5 -3.515625 37.5 -1.171875 
z
" id="SimHei-67"/>
      <path d="M 44.53125 16.796875 
Q 43.75 9.765625 38.28125 5.46875 
Q 32.8125 1.171875 25.390625 1.171875 
Q 16.015625 1.171875 9.953125 7.21875 
Q 3.90625 13.28125 3.90625 23.828125 
Q 3.90625 34.375 9.953125 40.421875 
Q 16.015625 46.484375 25.390625 46.484375 
Q 33.59375 46.484375 38.859375 41.203125 
Q 44.140625 35.9375 44.140625 23.828125 
L 12.5 23.828125 
Q 12.5 15.234375 16.203125 11.71875 
Q 19.921875 8.203125 25.390625 8.203125 
Q 29.6875 8.203125 32.421875 10.34375 
Q 35.15625 12.5 35.9375 16.796875 
z
M 35.15625 30.078125 
Q 34.375 35.546875 31.640625 37.6875 
Q 28.90625 39.84375 24.609375 39.84375 
Q 20.703125 39.84375 17.578125 37.6875 
Q 14.453125 35.546875 12.890625 30.078125 
z
" id="SimHei-65"/>
     </defs>
     <g transform="translate(66.2 263.45)scale(0.15 -0.15)">
      <use xlink:href="#SimHei-70"/>
      <use x="50" xlink:href="#SimHei-72"/>
      <use x="100" xlink:href="#SimHei-6f"/>
      <use x="150" xlink:href="#SimHei-62"/>
      <use x="200" xlink:href="#SimHei-61"/>
      <use x="250" xlink:href="#SimHei-62"/>
      <use x="300" xlink:href="#SimHei-69"/>
      <use x="350" xlink:href="#SimHei-6c"/>
      <use x="400" xlink:href="#SimHei-69"/>
      <use x="450" xlink:href="#SimHei-74"/>
      <use x="500" xlink:href="#SimHei-79"/>
      <use x="550" xlink:href="#SimHei-20"/>
      <use x="600" xlink:href="#SimHei-6f"/>
      <use x="650" xlink:href="#SimHei-66"/>
      <use x="700" xlink:href="#SimHei-20"/>
      <use x="750" xlink:href="#SimHei-61"/>
      <use x="800" xlink:href="#SimHei-62"/>
      <use x="850" xlink:href="#SimHei-73"/>
      <use x="900" xlink:href="#SimHei-6f"/>
      <use x="950" xlink:href="#SimHei-72"/>
      <use x="1000" xlink:href="#SimHei-62"/>
      <use x="1050" xlink:href="#SimHei-69"/>
      <use x="1100" xlink:href="#SimHei-6e"/>
      <use x="1150" xlink:href="#SimHei-67"/>
      <use x="1200" xlink:href="#SimHei-20"/>
      <use x="1250" xlink:href="#SimHei-73"/>
      <use x="1300" xlink:href="#SimHei-74"/>
      <use x="1350" xlink:href="#SimHei-61"/>
      <use x="1400" xlink:href="#SimHei-74"/>
      <use x="1450" xlink:href="#SimHei-65"/>
     </g>
    </g>
    <g id="Path3DCollection_4">
     <g>
      <use style="fill:#008000;stroke:#008000;" x="39.2" xlink:href="#m06e705534a" y="279.3875"/>
     </g>
    </g>
    <g id="text_29">
     <!-- start state -->
     <g transform="translate(66.2 283.325)scale(0.15 -0.15)">
      <use xlink:href="#SimHei-73"/>
      <use x="50" xlink:href="#SimHei-74"/>
      <use x="100" xlink:href="#SimHei-61"/>
      <use x="150" xlink:href="#SimHei-72"/>
      <use x="200" xlink:href="#SimHei-74"/>
      <use x="250" xlink:href="#SimHei-20"/>
      <use x="300" xlink:href="#SimHei-73"/>
      <use x="350" xlink:href="#SimHei-74"/>
      <use x="400" xlink:href="#SimHei-61"/>
      <use x="450" xlink:href="#SimHei-74"/>
      <use x="500" xlink:href="#SimHei-65"/>
     </g>
    </g>
   </g>
  </g>
 </g>
 <defs>
  <clipPath id="p27d7313d40">
   <rect height="288" width="360" x="10.7" y="10.7"/>
  </clipPath>
 </defs>
</svg>
