<?xml version="1.0" encoding="utf-8" standalone="no"?>
<!DOCTYPE svg PUBLIC "-//W3C//DTD SVG 1.1//EN"
  "http://www.w3.org/Graphics/SVG/1.1/DTD/svg11.dtd">
<!-- Created with matplotlib (http://matplotlib.org/) -->
<svg height="309.4pt" version="1.1" viewBox="0 0 381.4 309.4" width="381.4pt" xmlns="http://www.w3.org/2000/svg" xmlns:xlink="http://www.w3.org/1999/xlink">
 <defs>
  <style type="text/css">
*{stroke-linecap:butt;stroke-linejoin:round;}
  </style>
 </defs>
 <g id="figure_1">
  <g id="patch_1">
   <path d="M 0 309.4 
L 381.4 309.4 
L 381.4 0 
L 0 0 
z
" style="fill:none;"/>
  </g>
  <g id="patch_2">
   <path d="M 10.7 298.7 
L 370.7 298.7 
L 370.7 10.7 
L 10.7 10.7 
z
" style="fill:#ffffff;"/>
  </g>
  <g id="pane3d_1">
   <g id="patch_3">
    <path d="M 219.619567 185.462306 
L 335.768129 233.715199 
L 340.919918 79.597002 
L 220.435568 41.545085 
" style="fill:#f2f2f2;opacity:0.5;stroke:#f2f2f2;stroke-linejoin:miter;"/>
   </g>
  </g>
  <g id="pane3d_2">
   <g id="patch_4">
    <path d="M 219.619567 185.462306 
L 58.794045 217.8137 
L 53.895826 67.034254 
L 220.435568 41.545085 
" style="fill:#e6e6e6;opacity:0.5;stroke:#e6e6e6;stroke-linejoin:miter;"/>
   </g>
  </g>
  <g id="pane3d_3">
   <g id="patch_5">
    <path d="M 219.619567 185.462306 
L 58.794045 217.8137 
L 168.062833 271.631196 
L 335.768129 233.715199 
" style="fill:#ececec;opacity:0.5;stroke:#ececec;stroke-linejoin:miter;"/>
   </g>
  </g>
  <g id="axis3d_1">
   <g id="line2d_1">
    <path d="M 335.768129 233.715199 
L 168.062833 271.631196 
" style="fill:none;stroke:#000000;stroke-linecap:square;stroke-width:0.8;"/>
   </g>
   <g id="text_1">
    <!-- coins of 大熊 -->
    <defs>
     <path d="M 44.53125 19.53125 
Q 44.53125 11.328125 38.859375 6.25 
Q 33.203125 1.171875 24.609375 1.171875 
Q 16.015625 1.171875 9.765625 7.21875 
Q 3.515625 13.28125 3.515625 23.828125 
Q 3.515625 34.375 9.765625 40.421875 
Q 16.015625 46.484375 24.609375 46.484375 
Q 33.203125 46.484375 38.28125 41.984375 
Q 43.359375 37.5 43.359375 31.25 
L 34.765625 31.25 
Q 34.375 35.9375 31.4375 37.6875 
Q 28.515625 39.453125 24.609375 39.453125 
Q 19.921875 39.453125 16.015625 35.734375 
Q 12.109375 32.03125 12.109375 23.828125 
Q 12.109375 15.625 16.015625 11.90625 
Q 19.921875 8.203125 24.609375 8.203125 
Q 29.6875 8.203125 32.8125 10.9375 
Q 35.9375 13.671875 35.9375 19.53125 
z
" id="SimHei-63"/>
     <path d="M 45.703125 23.828125 
Q 45.703125 13.671875 39.453125 7.421875 
Q 33.203125 1.171875 24.609375 1.171875 
Q 16.015625 1.171875 9.765625 7.421875 
Q 3.515625 13.671875 3.515625 23.828125 
Q 3.515625 33.984375 9.765625 40.234375 
Q 16.015625 46.484375 24.609375 46.484375 
Q 33.203125 46.484375 39.453125 40.234375 
Q 45.703125 33.984375 45.703125 23.828125 
z
M 37.109375 23.828125 
Q 37.109375 31.640625 33.203125 35.546875 
Q 29.296875 39.453125 24.609375 39.453125 
Q 19.921875 39.453125 16.015625 35.546875 
Q 12.109375 31.640625 12.109375 23.828125 
Q 12.109375 16.015625 16.015625 12.109375 
Q 19.921875 8.203125 24.609375 8.203125 
Q 29.296875 8.203125 33.203125 12.109375 
Q 37.109375 16.015625 37.109375 23.828125 
z
" id="SimHei-6f"/>
     <path d="M 28.125 58.203125 
L 20.3125 58.203125 
L 20.3125 68.359375 
L 28.125 68.359375 
z
M 28.125 1.953125 
L 20.3125 1.953125 
L 20.3125 45.703125 
L 28.125 45.703125 
z
" id="SimHei-69"/>
     <path d="M 43.75 1.953125 
L 35.9375 1.953125 
L 35.9375 30.078125 
Q 35.9375 34.765625 33.59375 37.5 
Q 31.25 40.234375 27.34375 40.234375 
Q 22.265625 40.234375 17.765625 34.953125 
Q 13.28125 29.6875 13.28125 21.875 
L 13.28125 1.953125 
L 5.46875 1.953125 
L 5.46875 45.703125 
L 13.28125 45.703125 
L 13.28125 37.5 
Q 16.40625 41.796875 20.109375 44.140625 
Q 23.828125 46.484375 29.6875 46.484375 
Q 36.71875 46.484375 40.234375 42.578125 
Q 43.75 38.671875 43.75 32.8125 
z
" id="SimHei-6e"/>
     <path d="M 42.96875 14.0625 
Q 42.96875 7.8125 38.078125 4.484375 
Q 33.203125 1.171875 25.78125 1.171875 
Q 16.40625 1.171875 11.328125 4.875 
Q 6.25 8.59375 6.25 15.625 
L 14.0625 15.625 
Q 14.0625 10.9375 17.375 9.375 
Q 20.703125 7.8125 25.390625 7.8125 
Q 30.078125 7.8125 32.421875 9.5625 
Q 34.765625 11.328125 34.765625 14.0625 
Q 34.765625 16.015625 32.8125 17.96875 
Q 30.859375 19.921875 23.046875 21.09375 
Q 14.0625 22.265625 10.734375 25.578125 
Q 7.421875 28.90625 7.421875 34.375 
Q 7.421875 39.0625 11.90625 42.765625 
Q 16.40625 46.484375 25 46.484375 
Q 32.8125 46.484375 37.296875 42.96875 
Q 41.796875 39.453125 41.796875 33.59375 
L 33.984375 33.59375 
Q 33.984375 37.109375 31.4375 38.46875 
Q 28.90625 39.84375 25 39.84375 
Q 19.921875 39.84375 17.765625 38.078125 
Q 15.625 36.328125 15.625 33.984375 
Q 15.625 31.25 17.578125 29.6875 
Q 19.53125 28.125 25.78125 27.34375 
Q 35.9375 25.78125 39.453125 22.453125 
Q 42.96875 19.140625 42.96875 14.0625 
z
" id="SimHei-73"/>
     <path id="SimHei-20"/>
     <path d="M 44.53125 59.765625 
Q 42.578125 60.9375 39.84375 61.71875 
Q 37.109375 62.5 32.8125 62.5 
Q 28.515625 62.5 26.953125 60.34375 
Q 25.390625 58.203125 25.390625 55.078125 
L 25.390625 45.703125 
L 41.40625 45.703125 
L 41.40625 39.453125 
L 25.390625 39.453125 
L 25.390625 1.953125 
L 17.578125 1.953125 
L 17.578125 39.453125 
L 4.296875 39.453125 
L 4.296875 45.703125 
L 17.578125 45.703125 
L 17.578125 54.6875 
Q 17.578125 61.71875 21.875 65.625 
Q 26.171875 69.53125 33.203125 69.53125 
Q 37.5 69.53125 40.03125 68.9375 
Q 42.578125 68.359375 44.53125 67.578125 
z
" id="SimHei-66"/>
     <path d="M 45.3125 53.125 
Q 45.703125 66.796875 45.5 71.484375 
Q 45.3125 76.171875 44.921875 80.46875 
Q 49.609375 79.6875 55.46875 79.296875 
Q 54.296875 75.390625 53.703125 67.96875 
Q 53.125 60.546875 53.125 53.125 
L 73.046875 53.125 
Q 83.59375 53.125 92.578125 53.90625 
L 92.578125 45.3125 
Q 84.765625 45.703125 76.5625 45.703125 
L 53.515625 45.703125 
Q 55.078125 39.0625 58.984375 32.21875 
Q 62.890625 25.390625 66.984375 20.109375 
Q 71.09375 14.84375 78.3125 8.984375 
Q 85.546875 3.125 94.140625 -0.78125 
Q 91.015625 -3.125 87.890625 -8.59375 
Q 80.859375 -4.6875 74.015625 1.171875 
Q 67.1875 7.03125 60.34375 16.59375 
Q 53.515625 26.171875 50 34.375 
Q 46.875 25.78125 43.359375 20.109375 
Q 39.84375 14.453125 35.734375 9.765625 
Q 31.640625 5.078125 25.1875 0.390625 
Q 18.75 -4.296875 10.546875 -8.984375 
Q 7.421875 -4.296875 3.515625 -0.78125 
Q 11.71875 1.953125 19.71875 7.03125 
Q 27.734375 12.109375 32.8125 18.546875 
Q 37.890625 25 41.015625 32.03125 
Q 44.140625 39.0625 44.921875 45.703125 
L 23.4375 45.703125 
Q 14.0625 45.703125 8.59375 45.3125 
L 8.59375 53.90625 
Q 14.0625 53.515625 23.4375 53.125 
z
" id="SimHei-5927"/>
     <path d="M 49.609375 52.34375 
Q 49.21875 46.484375 49.21875 40.625 
L 49.21875 19.53125 
Q 49.21875 15.234375 46.484375 13.859375 
Q 43.75 12.5 34.765625 11.328125 
Q 33.59375 14.84375 31.640625 18.359375 
Q 38.671875 18.75 40.421875 18.9375 
Q 42.1875 19.140625 41.796875 23.4375 
L 18.359375 23.4375 
L 18.359375 12.5 
L 10.15625 12.5 
Q 10.546875 25 10.546875 33.59375 
Q 10.546875 42.1875 10.15625 52.34375 
L 49.609375 52.34375 
z
M 65.625 45.3125 
Q 65.234375 41.015625 65.234375 34.375 
Q 81.640625 38.671875 88.28125 43.359375 
Q 90.234375 39.453125 93.359375 36.71875 
Q 85.9375 34.765625 65.625 28.125 
L 65.625 23.046875 
Q 65.625 19.53125 70.703125 19.53125 
L 80.46875 19.53125 
Q 83.59375 19.53125 85.15625 20.890625 
Q 86.71875 22.265625 88.28125 28.125 
Q 92.1875 26.171875 96.875 25.390625 
Q 93.359375 17.1875 91.40625 15.234375 
Q 89.453125 13.28125 83.984375 13.28125 
L 65.234375 13.28125 
Q 57.03125 13.28125 57.03125 19.53125 
L 57.03125 37.5 
Q 57.03125 40.625 56.640625 45.3125 
L 65.625 45.3125 
z
M 92.578125 69.140625 
Q 78.515625 65.234375 64.84375 61.328125 
Q 64.84375 54.6875 68.359375 54.6875 
L 80.46875 54.6875 
Q 83.203125 54.6875 84.765625 56.4375 
Q 86.328125 58.203125 86.71875 62.5 
Q 90.234375 60.9375 94.921875 59.765625 
Q 92.96875 51.5625 90.421875 50.1875 
Q 87.890625 48.828125 82.8125 48.828125 
L 64.84375 48.828125 
Q 57.03125 48.828125 57.03125 54.296875 
L 57.03125 71.09375 
Q 57.03125 75.78125 56.640625 80.46875 
L 65.625 80.46875 
Q 65.234375 75.390625 65.234375 67.1875 
Q 78.515625 70.3125 86.328125 76.171875 
Q 88.671875 72.65625 92.578125 69.140625 
z
M 32.03125 78.125 
Q 24.609375 71.484375 16.40625 62.890625 
Q 22.65625 63.28125 40.625 65.234375 
Q 38.671875 67.578125 35.546875 70.703125 
Q 39.0625 72.265625 42.96875 74.21875 
Q 51.171875 63.28125 55.078125 58.59375 
Q 51.171875 57.03125 48.046875 54.6875 
L 44.53125 59.765625 
Q 42.578125 59.375 33.203125 58.59375 
Q 23.828125 57.8125 9.375 55.859375 
Q 7.421875 59.375 6.25 62.890625 
Q 10.15625 64.84375 14.640625 69.53125 
Q 19.140625 74.21875 23.4375 82.03125 
Q 27.734375 79.6875 32.03125 78.125 
z
M 41.796875 28.90625 
L 41.796875 35.546875 
L 18.359375 35.546875 
L 18.359375 28.90625 
z
M 20.3125 6.640625 
Q 17.1875 3.125 11.71875 -9.765625 
Q 6.640625 -7.8125 3.90625 -7.03125 
Q 6.640625 -1.5625 11.71875 8.984375 
Q 15.625 7.8125 20.3125 6.640625 
z
M 85.9375 10.15625 
Q 92.578125 -1.953125 94.140625 -5.46875 
Q 89.84375 -6.640625 86.328125 -8.59375 
Q 83.984375 -2.34375 78.515625 7.03125 
Q 81.25 8.203125 85.9375 10.15625 
z
M 41.796875 41.015625 
L 41.796875 46.875 
L 18.359375 46.875 
L 18.359375 41.015625 
z
M 62.890625 8.59375 
Q 65.625 -1.953125 66.40625 -5.859375 
L 58.59375 -7.421875 
Q 57.421875 -3.90625 55.46875 7.421875 
Q 58.59375 8.203125 62.890625 8.59375 
z
M 39.84375 7.421875 
Q 40.234375 3.90625 42.578125 -6.640625 
Q 38.671875 -6.640625 34.375 -7.8125 
Q 33.59375 -3.125 32.03125 6.640625 
Q 35.15625 7.421875 39.84375 7.421875 
z
" id="SimHei-718a"/>
    </defs>
    <g style="fill:#800080;" transform="translate(235.061813 295.570823)rotate(-12.739652)scale(0.12 -0.12)">
     <use xlink:href="#SimHei-63"/>
     <use x="50" xlink:href="#SimHei-6f"/>
     <use x="100" xlink:href="#SimHei-69"/>
     <use x="150" xlink:href="#SimHei-6e"/>
     <use x="200" xlink:href="#SimHei-73"/>
     <use x="250" xlink:href="#SimHei-20"/>
     <use x="300" xlink:href="#SimHei-6f"/>
     <use x="350" xlink:href="#SimHei-66"/>
     <use x="400" xlink:href="#SimHei-20"/>
     <use x="450" xlink:href="#SimHei-5927"/>
     <use x="550" xlink:href="#SimHei-718a"/>
    </g>
   </g>
   <g id="Line3DCollection_1">
    <path d="M 325.649087 236.002984 
L 209.876104 187.422284 
L 210.363217 43.086674 
" style="fill:none;stroke:#b0b0b0;stroke-width:0.8;"/>
    <path d="M 305.615951 240.532216 
L 190.60155 191.299522 
L 190.43149 46.137256 
" style="fill:none;stroke:#b0b0b0;stroke-width:0.8;"/>
    <path d="M 285.302458 245.124834 
L 171.077619 195.226923 
L 170.232989 49.228668 
" style="fill:none;stroke:#b0b0b0;stroke-width:0.8;"/>
    <path d="M 264.70268 249.782177 
L 151.299439 199.205469 
L 149.762321 52.361736 
" style="fill:none;stroke:#b0b0b0;stroke-width:0.8;"/>
    <path d="M 243.810523 254.505623 
L 131.262013 203.236164 
L 129.013948 55.537307 
" style="fill:none;stroke:#b0b0b0;stroke-width:0.8;"/>
    <path d="M 222.619718 259.29659 
L 110.960209 207.320041 
L 107.982181 58.756252 
" style="fill:none;stroke:#b0b0b0;stroke-width:0.8;"/>
    <path d="M 201.123814 264.156536 
L 90.38876 211.458159 
L 86.661174 62.019466 
" style="fill:none;stroke:#b0b0b0;stroke-width:0.8;"/>
    <path d="M 179.316176 269.086961 
L 69.542258 215.651607 
L 65.044918 65.327868 
" style="fill:none;stroke:#b0b0b0;stroke-width:0.8;"/>
   </g>
   <g id="xtick_1">
    <g id="line2d_2">
     <path d="M 324.648958 235.583309 
L 327.653217 236.843957 
" style="fill:none;stroke:#000000;stroke-linecap:square;stroke-width:0.8;"/>
    </g>
    <g id="text_2">
     <!-- 0 -->
     <defs>
      <path d="M 3.125 29.296875 
Q 3.90625 50 6.4375 56.046875 
Q 8.984375 62.109375 13.671875 66.015625 
Q 18.359375 69.921875 25.1875 69.921875 
Q 32.03125 69.921875 37.109375 64.25 
Q 42.1875 58.59375 43.75 50 
Q 45.3125 41.40625 44.71875 30.265625 
Q 44.140625 19.140625 40.8125 12.109375 
Q 37.5 5.078125 30.859375 2.34375 
Q 24.21875 -0.390625 17.578125 2.921875 
Q 10.9375 6.25 8.203125 11.71875 
Q 5.46875 17.1875 4.296875 23.234375 
Q 3.125 29.296875 3.90625 50 
z
M 12.890625 52.734375 
Q 10.546875 31.25 12.5 22.84375 
Q 14.453125 14.453125 18.9375 10.9375 
Q 23.4375 7.421875 28.125 9.5625 
Q 32.8125 11.71875 34.953125 18.15625 
Q 37.109375 24.609375 37.109375 32.21875 
Q 37.109375 39.84375 36.515625 46.09375 
Q 35.9375 52.34375 33 57.421875 
Q 30.078125 62.5 25.1875 62.6875 
Q 20.3125 62.890625 16.59375 57.8125 
Q 12.890625 52.734375 10.546875 31.25 
z
" id="SimHei-30"/>
     </defs>
     <g transform="translate(330.134125 260.095778)scale(0.15 -0.15)">
      <use xlink:href="#SimHei-30"/>
     </g>
    </g>
   </g>
   <g id="xtick_2">
    <g id="line2d_3">
     <path d="M 304.621865 240.106691 
L 307.607998 241.384926 
" style="fill:none;stroke:#000000;stroke-linecap:square;stroke-width:0.8;"/>
    </g>
    <g id="text_3">
     <!-- 2 -->
     <defs>
      <path d="M 4.6875 3.90625 
Q 5.078125 9.765625 10.15625 14.453125 
Q 15.234375 19.140625 23.046875 29.09375 
Q 30.859375 39.0625 33.203125 44.53125 
Q 35.546875 50 34.953125 53.90625 
Q 34.375 57.8125 31.25 60.34375 
Q 28.125 62.890625 24.015625 62.5 
Q 19.921875 62.109375 16.203125 59.375 
Q 12.5 56.640625 10.546875 51.171875 
L 3.125 52.34375 
Q 6.25 61.328125 11.125 65.421875 
Q 16.015625 69.53125 22.65625 69.921875 
Q 26.5625 70.3125 29.6875 69.71875 
Q 32.8125 69.140625 36.125 66.984375 
Q 39.453125 64.84375 41.59375 60.546875 
Q 43.75 56.25 43.15625 50.1875 
Q 42.578125 44.140625 37.109375 35.734375 
Q 31.640625 27.34375 16.015625 9.375 
L 44.140625 9.375 
L 44.140625 2.34375 
L 4.6875 2.34375 
z
" id="SimHei-32"/>
     </defs>
     <g transform="translate(310.096382 264.735082)scale(0.15 -0.15)">
      <use xlink:href="#SimHei-32"/>
     </g>
    </g>
   </g>
   <g id="xtick_3">
    <g id="line2d_4">
     <path d="M 284.314682 244.693335 
L 287.281886 245.989527 
" style="fill:none;stroke:#000000;stroke-linecap:square;stroke-width:0.8;"/>
    </g>
    <g id="text_4">
     <!-- 4 -->
     <defs>
      <path d="M 31.25 17.1875 
L 1.171875 17.1875 
L 1.171875 23.828125 
L 32.8125 69.53125 
L 38.671875 69.53125 
L 38.671875 23.828125 
L 48.046875 23.828125 
L 48.046875 17.1875 
L 38.671875 17.1875 
L 38.671875 2.34375 
L 31.25 2.34375 
z
M 31.25 23.828125 
L 31.25 54.6875 
L 9.375 23.828125 
z
" id="SimHei-34"/>
     </defs>
     <g transform="translate(289.777342 269.439513)scale(0.15 -0.15)">
      <use xlink:href="#SimHei-34"/>
     </g>
    </g>
   </g>
   <g id="xtick_4">
    <g id="line2d_5">
     <path d="M 263.721492 249.344577 
L 266.668935 250.659107 
" style="fill:none;stroke:#000000;stroke-linecap:square;stroke-width:0.8;"/>
    </g>
    <g id="text_5">
     <!-- 6 -->
     <defs>
      <path d="M 3.515625 19.53125 
Q 4.296875 30.859375 6.046875 34.765625 
Q 7.8125 38.671875 11.328125 44.53125 
L 27.34375 69.53125 
L 36.328125 69.53125 
L 19.921875 43.75 
Q 30.46875 46.484375 36.71875 42.96875 
Q 42.96875 39.453125 45.109375 34.953125 
Q 47.265625 30.46875 47.453125 25.1875 
Q 47.65625 19.921875 45.890625 14.84375 
Q 44.140625 9.765625 39.640625 5.65625 
Q 35.15625 1.5625 27.140625 1.171875 
Q 19.140625 0.78125 13.46875 4.09375 
Q 7.8125 7.421875 5.65625 13.46875 
Q 3.515625 19.53125 4.296875 30.859375 
z
M 12.5 16.015625 
Q 19.53125 8.59375 25.390625 8.203125 
Q 31.25 7.8125 35.15625 12.109375 
Q 39.0625 16.40625 39.0625 24.609375 
Q 39.0625 32.8125 34.171875 35.9375 
Q 29.296875 39.0625 23.234375 38.28125 
Q 17.1875 37.5 14.453125 32.421875 
Q 11.71875 27.34375 12.109375 21.671875 
Q 12.5 16.015625 19.53125 8.59375 
z
" id="SimHei-36"/>
     </defs>
     <g transform="translate(269.171041 274.210454)scale(0.15 -0.15)">
      <use xlink:href="#SimHei-36"/>
     </g>
    </g>
   </g>
   <g id="xtick_5">
    <g id="line2d_6">
     <path d="M 242.83621 254.061792 
L 245.763028 255.395052 
" style="fill:none;stroke:#000000;stroke-linecap:square;stroke-width:0.8;"/>
    </g>
    <g id="text_6">
     <!-- 8 -->
     <defs>
      <path d="M 2.734375 16.796875 
Q 2.734375 26.171875 5.078125 30.65625 
Q 7.421875 35.15625 12.890625 37.890625 
Q 8.203125 40.625 6.640625 43.9375 
Q 5.078125 47.265625 4.875 51.5625 
Q 4.6875 55.859375 6.046875 58.984375 
Q 7.421875 62.109375 10.15625 64.84375 
Q 12.890625 67.578125 16.203125 68.546875 
Q 19.53125 69.53125 23.4375 69.53125 
Q 27.34375 69.53125 30.46875 68.75 
Q 33.59375 67.96875 37.109375 65.421875 
Q 40.625 62.890625 42.1875 58.203125 
Q 43.75 53.515625 41.984375 47.265625 
Q 40.234375 41.015625 32.8125 37.5 
Q 39.453125 35.546875 42.1875 31.4375 
Q 44.921875 27.34375 44.921875 21.484375 
Q 44.921875 15.625 43.15625 12.109375 
Q 41.40625 8.59375 39.25 6.25 
Q 37.109375 3.90625 33.390625 2.53125 
Q 29.6875 1.171875 24.015625 1.171875 
Q 18.359375 1.171875 14.25 2.53125 
Q 10.15625 3.90625 7.421875 6.640625 
Q 4.6875 9.375 3.703125 13.078125 
Q 2.734375 16.796875 2.734375 26.171875 
z
M 10.9375 26.5625 
Q 10.546875 17.1875 12.296875 13.671875 
Q 14.0625 10.15625 18.75 9.171875 
Q 23.4375 8.203125 28.515625 9.375 
Q 33.59375 10.546875 35.546875 14.84375 
Q 37.5 19.140625 36.90625 23.4375 
Q 36.328125 27.734375 32.03125 30.65625 
Q 27.734375 33.59375 22.65625 33.203125 
Q 17.578125 32.8125 14.25 29.6875 
Q 10.9375 26.5625 10.546875 17.1875 
z
M 12.109375 56.25 
Q 12.109375 48.4375 14.84375 44.921875 
Q 17.578125 41.40625 23.4375 41.40625 
Q 29.296875 41.40625 32.21875 44.921875 
Q 35.15625 48.4375 34.953125 53.3125 
Q 34.765625 58.203125 31.4375 60.546875 
Q 28.125 62.890625 22.453125 62.5 
Q 16.796875 62.109375 14.453125 59.171875 
Q 12.109375 56.25 12.109375 48.4375 
z
" id="SimHei-38"/>
     </defs>
     <g transform="translate(248.271344 279.049324)scale(0.15 -0.15)">
      <use xlink:href="#SimHei-38"/>
     </g>
    </g>
   </g>
   <g id="xtick_6">
    <g id="line2d_7">
     <path d="M 221.652577 258.846394 
L 224.557878 260.198787 
" style="fill:none;stroke:#000000;stroke-linecap:square;stroke-width:0.8;"/>
    </g>
    <g id="text_7">
     <!-- 10 -->
     <defs>
      <path d="M 21.875 56.25 
Q 16.796875 51.171875 8.984375 46.484375 
L 8.984375 53.90625 
Q 18.75 60.546875 25 69.53125 
L 29.6875 69.53125 
L 29.6875 2.34375 
L 21.875 2.34375 
z
" id="SimHei-31"/>
     </defs>
     <g transform="translate(223.321939 283.957585)scale(0.15 -0.15)">
      <use xlink:href="#SimHei-31"/>
      <use x="50" xlink:href="#SimHei-30"/>
     </g>
    </g>
   </g>
   <g id="xtick_7">
    <g id="line2d_8">
     <path d="M 200.164153 263.699837 
L 203.047012 265.071778 
" style="fill:none;stroke:#000000;stroke-linecap:square;stroke-width:0.8;"/>
    </g>
    <g id="text_8">
     <!-- 12 -->
     <g transform="translate(201.816333 288.936741)scale(0.15 -0.15)">
      <use xlink:href="#SimHei-31"/>
      <use x="50" xlink:href="#SimHei-32"/>
     </g>
    </g>
   </g>
   <g id="xtick_8">
    <g id="line2d_9">
     <path d="M 178.364314 268.623617 
L 181.22377 270.015533 
" style="fill:none;stroke:#000000;stroke-linecap:square;stroke-width:0.8;"/>
    </g>
    <g id="text_9">
     <!-- 14 -->
     <g transform="translate(179.997844 293.988337)scale(0.15 -0.15)">
      <use xlink:href="#SimHei-31"/>
      <use x="50" xlink:href="#SimHei-34"/>
     </g>
    </g>
   </g>
  </g>
  <g id="axis3d_2">
   <g id="line2d_10">
    <path d="M 58.794045 217.8137 
L 168.062833 271.631196 
" style="fill:none;stroke:#000000;stroke-linecap:square;stroke-width:0.8;"/>
   </g>
   <g id="text_10">
    <!-- coins of 胖虎 -->
    <defs>
     <path d="M 21.484375 1.953125 
Q 25.78125 1.5625 28.515625 1.75 
Q 31.25 1.953125 31.640625 7.03125 
L 31.640625 26.171875 
L 18.359375 26.171875 
Q 16.796875 14.453125 14.453125 5.859375 
Q 12.109375 -2.734375 10.15625 -7.03125 
Q 6.640625 -3.90625 3.125 -2.734375 
Q 6.640625 2.734375 8.78125 10.34375 
Q 10.9375 17.96875 11.71875 30.859375 
L 11.71875 64.453125 
Q 11.71875 71.09375 11.328125 76.953125 
L 38.671875 76.953125 
Q 38.28125 69.140625 38.28125 61.328125 
L 38.28125 1.953125 
Q 38.28125 -6.25 23.4375 -7.03125 
Q 23.046875 -3.125 21.484375 1.953125 
z
M 64.453125 45.3125 
L 64.453125 69.140625 
Q 64.453125 73.828125 63.671875 79.296875 
L 72.265625 79.296875 
Q 71.875 74.21875 71.875 69.140625 
L 71.875 45.3125 
L 82.421875 45.3125 
Q 85.9375 45.3125 91.796875 45.703125 
L 91.796875 38.671875 
Q 88.28125 39.0625 82.421875 39.0625 
L 71.875 39.0625 
L 71.875 23.4375 
L 84.765625 23.4375 
Q 91.015625 23.4375 96.09375 23.828125 
L 96.09375 16.796875 
Q 90.234375 17.1875 84.765625 17.1875 
L 71.875 17.1875 
L 71.875 3.90625 
Q 71.875 -2.34375 72.265625 -8.984375 
L 64.0625 -8.984375 
Q 64.453125 -2.734375 64.453125 3.90625 
L 64.453125 17.1875 
L 53.90625 17.1875 
Q 48.4375 17.1875 42.578125 16.796875 
L 42.578125 23.828125 
Q 48.046875 23.4375 54.296875 23.4375 
L 64.453125 23.4375 
L 64.453125 39.0625 
L 53.90625 39.0625 
Q 48.4375 39.0625 43.359375 38.671875 
L 43.359375 45.703125 
Q 48.4375 45.3125 53.515625 45.3125 
z
M 31.640625 32.8125 
L 31.640625 48.828125 
L 18.75 48.828125 
L 18.75 32.8125 
z
M 31.640625 55.078125 
L 31.640625 70.703125 
L 18.75 70.703125 
L 18.75 55.078125 
z
M 51.5625 51.953125 
Q 50 58.984375 44.921875 71.09375 
L 51.171875 74.21875 
Q 55.859375 63.28125 58.59375 54.6875 
Q 54.296875 53.515625 51.5625 51.953125 
z
M 77.34375 53.90625 
Q 83.984375 67.96875 84.765625 73.4375 
Q 88.671875 71.875 92.578125 70.703125 
Q 90.625 67.96875 88.671875 62.890625 
Q 86.71875 57.8125 84.375 51.953125 
Q 80.859375 53.90625 77.34375 53.90625 
z
" id="SimHei-80d6"/>
     <path d="M 25.78125 45.703125 
Q 33.203125 46.09375 44.140625 46.875 
L 44.140625 56.640625 
L 20.703125 56.640625 
Q 20.703125 31.640625 20.109375 23.4375 
Q 19.53125 15.234375 17.578125 8 
Q 15.625 0.78125 10.9375 -7.8125 
Q 7.8125 -5.46875 3.125 -3.90625 
Q 7.03125 0.78125 9.171875 6.828125 
Q 11.328125 12.890625 12.109375 18.75 
Q 12.890625 24.609375 13.078125 30.265625 
Q 13.28125 35.9375 13.28125 42.96875 
Q 13.28125 50.390625 12.890625 62.5 
L 44.140625 62.5 
L 44.140625 74.609375 
Q 44.140625 77.34375 43.359375 82.421875 
L 51.953125 82.421875 
Q 51.5625 78.515625 51.5625 75.390625 
L 71.09375 75.390625 
Q 76.171875 75.390625 84.765625 76.171875 
L 84.765625 69.53125 
Q 76.171875 69.921875 70.703125 69.921875 
L 51.171875 69.921875 
L 51.171875 62.5 
L 93.75 62.5 
Q 92.1875 57.8125 89.84375 46.875 
Q 85.15625 48.046875 82.03125 48.4375 
Q 83.984375 52.734375 85.15625 56.640625 
L 51.171875 56.640625 
L 51.171875 47.65625 
Q 65.234375 49.21875 74.21875 50.78125 
L 75 44.140625 
Q 64.0625 42.96875 51.171875 41.40625 
L 51.171875 36.71875 
Q 51.171875 33.203125 57.421875 33.203125 
L 70.3125 33.203125 
Q 75 32.8125 76.359375 34.5625 
Q 77.734375 36.328125 78.515625 41.015625 
Q 81.640625 39.0625 86.71875 37.109375 
Q 84.765625 30.859375 82.03125 29.09375 
Q 79.296875 27.34375 73.828125 27.34375 
L 54.296875 27.34375 
Q 44.140625 27.34375 44.140625 33.59375 
L 44.140625 41.015625 
Q 36.328125 40.234375 27.34375 39.0625 
Q 26.5625 42.578125 25.78125 45.703125 
z
M 71.09375 22.265625 
Q 70.703125 16.796875 70.703125 10.9375 
L 70.703125 2.34375 
Q 70.703125 -1.953125 75 -1.953125 
L 81.25 -1.953125 
Q 85.9375 -1.953125 86.71875 0.78125 
Q 87.5 3.515625 87.5 7.421875 
Q 91.40625 5.078125 96.09375 4.296875 
Q 93.359375 -3.90625 91.59375 -5.859375 
Q 89.84375 -7.8125 85.15625 -7.8125 
L 72.65625 -7.8125 
Q 63.671875 -7.8125 63.671875 -1.171875 
L 63.671875 16.40625 
L 45.3125 16.40625 
Q 45.3125 4.6875 41.203125 -0.578125 
Q 37.109375 -5.859375 26.171875 -10.546875 
Q 25 -6.640625 21.484375 -3.515625 
Q 35.9375 0.78125 37.109375 7.421875 
Q 38.28125 14.0625 37.890625 22.265625 
L 71.09375 22.265625 
z
" id="SimHei-864e"/>
    </defs>
    <g style="fill:#800080;" transform="translate(49.092792 257.912399)rotate(-333.778649)scale(0.12 -0.12)">
     <use xlink:href="#SimHei-63"/>
     <use x="50" xlink:href="#SimHei-6f"/>
     <use x="100" xlink:href="#SimHei-69"/>
     <use x="150" xlink:href="#SimHei-6e"/>
     <use x="200" xlink:href="#SimHei-73"/>
     <use x="250" xlink:href="#SimHei-20"/>
     <use x="300" xlink:href="#SimHei-6f"/>
     <use x="350" xlink:href="#SimHei-66"/>
     <use x="400" xlink:href="#SimHei-20"/>
     <use x="450" xlink:href="#SimHei-80d6"/>
     <use x="550" xlink:href="#SimHei-864e"/>
    </g>
   </g>
   <g id="Line3DCollection_2">
    <path d="M 227.548604 43.791556 
L 226.494241 188.318329 
L 65.235235 220.98614 
" style="fill:none;stroke:#b0b0b0;stroke-width:0.8;"/>
    <path d="M 241.688876 48.257402 
L 240.154088 193.993191 
L 78.043534 227.294534 
" style="fill:none;stroke:#b0b0b0;stroke-width:0.8;"/>
    <path d="M 256.106644 52.810887 
L 254.072998 199.775679 
L 91.108144 233.729167 
" style="fill:none;stroke:#b0b0b0;stroke-width:0.8;"/>
    <path d="M 270.810156 57.454617 
L 268.25841 205.668883 
L 104.436836 240.293868 
" style="fill:none;stroke:#b0b0b0;stroke-width:0.8;"/>
    <path d="M 285.807992 62.191302 
L 282.718053 211.676014 
L 118.0377 246.992619 
" style="fill:none;stroke:#b0b0b0;stroke-width:0.8;"/>
    <path d="M 301.10908 67.023762 
L 297.459956 217.800407 
L 131.919157 253.829569 
" style="fill:none;stroke:#b0b0b0;stroke-width:0.8;"/>
    <path d="M 316.722709 71.95493 
L 312.492466 224.045531 
L 146.089982 260.80904 
" style="fill:none;stroke:#b0b0b0;stroke-width:0.8;"/>
    <path d="M 332.658556 76.987861 
L 327.824262 230.41499 
L 160.559317 267.935534 
" style="fill:none;stroke:#b0b0b0;stroke-width:0.8;"/>
   </g>
   <g id="xtick_9">
    <g id="line2d_11">
     <path d="M 66.594479 220.710784 
L 62.513215 221.537566 
" style="fill:none;stroke:#000000;stroke-linecap:square;stroke-width:0.8;"/>
    </g>
    <g id="text_11">
     <!-- 0 -->
     <g transform="translate(50.195232 243.623733)scale(0.15 -0.15)">
      <use xlink:href="#SimHei-30"/>
     </g>
    </g>
   </g>
   <g id="xtick_10">
    <g id="line2d_12">
     <path d="M 79.410645 227.013697 
L 75.305726 227.856945 
" style="fill:none;stroke:#000000;stroke-linecap:square;stroke-width:0.8;"/>
    </g>
    <g id="text_12">
     <!-- 2 -->
     <g transform="translate(62.908596 250.062791)scale(0.15 -0.15)">
      <use xlink:href="#SimHei-32"/>
     </g>
    </g>
   </g>
   <g id="xtick_11">
    <g id="line2d_13">
     <path d="M 92.483165 233.442684 
L 88.354458 234.302894 
" style="fill:none;stroke:#000000;stroke-linecap:square;stroke-width:0.8;"/>
    </g>
    <g id="text_13">
     <!-- 4 -->
     <g transform="translate(75.876714 256.630876)scale(0.15 -0.15)">
      <use xlink:href="#SimHei-34"/>
     </g>
    </g>
   </g>
   <g id="xtick_12">
    <g id="line2d_14">
     <path d="M 105.81981 240.001565 
L 101.667187 240.879255 
" style="fill:none;stroke:#000000;stroke-linecap:square;stroke-width:0.8;"/>
    </g>
    <g id="text_14">
     <!-- 6 -->
     <g transform="translate(89.10732 263.331906)scale(0.15 -0.15)">
      <use xlink:href="#SimHei-36"/>
     </g>
    </g>
   </g>
   <g id="xtick_13">
    <g id="line2d_15">
     <path d="M 119.428666 246.694319 
L 115.252006 247.590026 
" style="fill:none;stroke:#000000;stroke-linecap:square;stroke-width:0.8;"/>
    </g>
    <g id="text_15">
     <!-- 8 -->
     <g transform="translate(102.608465 270.169958)scale(0.15 -0.15)">
      <use xlink:href="#SimHei-38"/>
     </g>
    </g>
   </g>
   <g id="xtick_14">
    <g id="line2d_16">
     <path d="M 133.318153 253.525084 
L 129.117343 254.439371 
" style="fill:none;stroke:#000000;stroke-linecap:square;stroke-width:0.8;"/>
    </g>
    <g id="text_16">
     <!-- 10 -->
     <g transform="translate(112.638533 277.14928)scale(0.15 -0.15)">
      <use xlink:href="#SimHei-31"/>
      <use x="50" xlink:href="#SimHei-30"/>
     </g>
    </g>
   </g>
   <g id="xtick_15">
    <g id="line2d_17">
     <path d="M 147.497042 260.498176 
L 143.271977 261.431625 
" style="fill:none;stroke:#000000;stroke-linecap:square;stroke-width:0.8;"/>
    </g>
    <g id="text_17">
     <!-- 12 -->
     <g transform="translate(126.706257 284.274293)scale(0.15 -0.15)">
      <use xlink:href="#SimHei-31"/>
      <use x="50" xlink:href="#SimHei-32"/>
     </g>
    </g>
   </g>
   <g id="xtick_16">
    <g id="line2d_18">
     <path d="M 161.974472 267.618089 
L 157.725058 268.57131 
" style="fill:none;stroke:#000000;stroke-linecap:square;stroke-width:0.8;"/>
    </g>
    <g id="text_18">
     <!-- 14 -->
     <g transform="translate(141.07074 291.549608)scale(0.15 -0.15)">
      <use xlink:href="#SimHei-31"/>
      <use x="50" xlink:href="#SimHei-34"/>
     </g>
    </g>
   </g>
  </g>
  <g id="axis3d_3">
   <g id="line2d_19">
    <path d="M 58.794045 217.8137 
L 53.895826 67.034254 
" style="fill:none;stroke:#000000;stroke-linecap:square;stroke-width:0.8;"/>
   </g>
   <g id="text_19">
    <!-- coins of 静香 -->
    <defs>
     <path d="M 67.578125 78.90625 
Q 65.625 76.5625 64.640625 74.40625 
Q 63.671875 72.265625 62.890625 70.3125 
L 84.375 70.3125 
Q 82.03125 66.796875 80.078125 62.296875 
Q 78.125 57.8125 75.78125 52.734375 
L 90.234375 52.734375 
Q 89.84375 47.265625 89.84375 41.015625 
L 89.84375 36.71875 
Q 93.359375 36.71875 96.875 37.109375 
L 96.875 30.46875 
Q 94.140625 30.859375 89.84375 30.859375 
L 89.84375 25.390625 
Q 89.84375 17.578125 90.234375 10.546875 
L 83.203125 10.546875 
L 83.203125 14.84375 
L 72.265625 14.84375 
L 72.265625 0.390625 
Q 71.875 -4.6875 68.9375 -6.640625 
Q 66.015625 -8.59375 56.25 -9.375 
Q 56.25 -5.46875 53.90625 -1.171875 
Q 58.984375 -1.5625 62.296875 -1.171875 
Q 65.625 -0.78125 65.625 2.734375 
L 65.625 14.84375 
L 60.15625 14.84375 
Q 55.46875 14.84375 50.390625 14.453125 
L 50.390625 20.703125 
Q 55.078125 20.3125 60.15625 20.3125 
L 65.625 20.3125 
L 65.625 30.859375 
L 59.765625 30.859375 
Q 54.6875 30.859375 48.046875 30.46875 
L 48.046875 36.71875 
Q 53.515625 36.328125 60.15625 36.328125 
L 65.625 36.328125 
L 65.625 47.265625 
L 60.15625 47.265625 
Q 57.8125 47.265625 51.953125 46.875 
L 51.953125 51.953125 
Q 50.78125 50.78125 48.828125 48.4375 
Q 46.875 51.5625 44.140625 53.90625 
Q 50.390625 60.15625 53.703125 68.15625 
Q 57.03125 76.171875 58.984375 82.03125 
Q 62.890625 80.078125 67.578125 78.90625 
z
M 42.96875 36.328125 
Q 42.578125 30.859375 42.578125 25 
L 42.578125 1.171875 
Q 42.578125 -4.6875 39.453125 -6.25 
Q 36.328125 -7.8125 30.078125 -8.984375 
Q 29.6875 -5.46875 27.34375 -1.5625 
Q 36.328125 -1.5625 35.546875 1.953125 
L 35.546875 6.640625 
L 15.234375 6.640625 
L 15.234375 -8.203125 
L 8.203125 -8.203125 
Q 8.59375 -3.90625 8.59375 1.953125 
L 8.59375 25 
Q 8.59375 30.859375 8.203125 36.328125 
L 42.96875 36.328125 
z
M 21.875 71.09375 
Q 21.875 74.609375 21.484375 80.46875 
L 29.296875 80.46875 
Q 28.90625 74.609375 28.90625 71.09375 
L 33.984375 71.09375 
Q 39.453125 71.09375 46.875 71.484375 
L 46.875 65.234375 
Q 39.453125 65.625 33.984375 65.625 
L 28.90625 65.625 
L 28.90625 59.375 
L 33.984375 59.375 
Q 36.328125 59.375 42.578125 59.765625 
L 42.578125 53.515625 
Q 35.9375 53.90625 33.59375 53.90625 
L 28.90625 53.90625 
L 28.90625 47.65625 
L 35.15625 47.65625 
Q 40.625 47.65625 46.484375 48.046875 
L 46.484375 41.796875 
Q 40.234375 42.1875 35.15625 42.1875 
L 15.625 42.1875 
Q 9.375 42.1875 3.90625 41.796875 
L 3.90625 48.046875 
Q 9.375 47.65625 15.625 47.65625 
L 21.875 47.65625 
L 21.875 53.90625 
L 15.234375 53.90625 
Q 12.890625 53.90625 8.59375 53.515625 
L 8.59375 59.765625 
Q 12.890625 59.375 15.234375 59.375 
L 21.875 59.375 
L 21.875 65.625 
L 15.234375 65.625 
Q 10.15625 65.625 4.6875 65.234375 
L 4.6875 71.484375 
Q 10.15625 71.09375 15.234375 71.09375 
z
M 52.734375 53.515625 
Q 57.421875 53.125 64.453125 53.125 
L 68.359375 53.125 
Q 72.265625 61.328125 73.4375 64.84375 
L 60.15625 64.84375 
Q 55.078125 56.640625 52.734375 53.515625 
z
M 35.546875 12.109375 
L 35.546875 19.140625 
L 15.234375 19.140625 
L 15.234375 12.109375 
z
M 35.546875 24.609375 
L 35.546875 30.859375 
L 15.234375 30.859375 
L 15.234375 24.609375 
z
M 83.203125 36.328125 
L 83.203125 47.265625 
L 72.265625 47.265625 
L 72.265625 36.328125 
z
M 83.203125 20.3125 
L 83.203125 30.859375 
L 72.265625 30.859375 
L 72.265625 20.3125 
z
" id="SimHei-9759"/>
     <path d="M 45.703125 33.59375 
L 45.703125 53.90625 
Q 36.71875 44.140625 26.359375 38.28125 
Q 16.015625 32.421875 10.546875 30.078125 
Q 10.546875 33.203125 5.46875 36.71875 
Q 16.015625 39.453125 24.21875 44.53125 
Q 32.421875 49.609375 37.109375 54.296875 
L 21.484375 54.296875 
Q 14.84375 54.296875 7.8125 53.90625 
L 7.8125 60.15625 
Q 14.84375 59.765625 21.484375 59.765625 
L 45.703125 59.765625 
L 45.703125 69.921875 
Q 38.28125 69.140625 17.96875 67.578125 
Q 16.796875 71.09375 14.453125 74.609375 
Q 32.8125 74.609375 50.390625 76.953125 
Q 67.96875 79.296875 74.609375 82.03125 
Q 76.953125 78.125 81.25 73.828125 
Q 74.609375 73.4375 67.96875 72.65625 
Q 61.328125 71.875 52.34375 70.703125 
L 52.34375 59.765625 
L 78.125 59.765625 
Q 83.984375 59.765625 91.40625 60.15625 
L 91.40625 53.90625 
Q 84.375 54.296875 78.125 54.296875 
L 61.71875 54.296875 
Q 66.40625 48.4375 74.21875 43.15625 
Q 82.03125 37.890625 94.140625 34.765625 
Q 89.84375 31.640625 88.28125 26.953125 
Q 82.421875 29.296875 77.34375 32.03125 
Q 76.5625 25 76.5625 12.5 
Q 76.5625 -0.78125 76.953125 -8.984375 
L 69.53125 -8.984375 
L 69.53125 -3.125 
L 28.515625 -3.125 
L 28.515625 -9.375 
L 21.875 -9.375 
L 21.875 11.71875 
Q 21.875 25 21.484375 33.59375 
z
M 69.53125 17.96875 
L 69.53125 27.734375 
L 28.515625 27.734375 
L 28.515625 17.96875 
z
M 69.53125 2.734375 
L 69.53125 12.5 
L 28.515625 12.5 
L 28.515625 2.734375 
z
M 71.484375 35.9375 
Q 62.109375 42.578125 52.734375 54.296875 
L 52.34375 54.296875 
L 52.34375 33.59375 
L 75 33.59375 
z
" id="SimHei-9999"/>
    </defs>
    <g style="fill:#800080;" transform="translate(10.565293 102.842551)rotate(-271.860655)scale(0.12 -0.12)">
     <use xlink:href="#SimHei-63"/>
     <use x="50" xlink:href="#SimHei-6f"/>
     <use x="100" xlink:href="#SimHei-69"/>
     <use x="150" xlink:href="#SimHei-6e"/>
     <use x="200" xlink:href="#SimHei-73"/>
     <use x="250" xlink:href="#SimHei-20"/>
     <use x="300" xlink:href="#SimHei-6f"/>
     <use x="350" xlink:href="#SimHei-66"/>
     <use x="400" xlink:href="#SimHei-20"/>
     <use x="450" xlink:href="#SimHei-9759"/>
     <use x="550" xlink:href="#SimHei-9999"/>
    </g>
   </g>
   <g id="Line3DCollection_3">
    <path d="M 58.492454 208.529967 
L 219.669895 176.585888 
L 336.085066 224.233899 
" style="fill:none;stroke:#b0b0b0;stroke-width:0.8;"/>
    <path d="M 57.897709 190.222231 
L 219.769111 159.08724 
L 336.710174 205.533478 
" style="fill:none;stroke:#b0b0b0;stroke-width:0.8;"/>
    <path d="M 57.297781 171.754931 
L 219.869148 141.443949 
L 337.340869 186.665935 
" style="fill:none;stroke:#b0b0b0;stroke-width:0.8;"/>
    <path d="M 56.692601 153.125973 
L 219.970014 123.654212 
L 337.977226 167.629019 
" style="fill:none;stroke:#b0b0b0;stroke-width:0.8;"/>
    <path d="M 56.0821 134.333224 
L 220.071722 105.716199 
L 338.619321 148.42044 
" style="fill:none;stroke:#b0b0b0;stroke-width:0.8;"/>
    <path d="M 55.466207 115.374514 
L 220.17428 87.628049 
L 339.267233 129.037865 
" style="fill:none;stroke:#b0b0b0;stroke-width:0.8;"/>
    <path d="M 54.844852 96.247636 
L 220.277701 69.387869 
L 339.92104 109.478918 
" style="fill:none;stroke:#b0b0b0;stroke-width:0.8;"/>
    <path d="M 54.21796 76.950341 
L 220.381995 50.993734 
L 340.580823 89.741182 
" style="fill:none;stroke:#b0b0b0;stroke-width:0.8;"/>
   </g>
   <g id="xtick_17">
    <g id="line2d_20">
     <path d="M 59.850818 208.26075 
L 55.772207 209.069099 
" style="fill:none;stroke:#000000;stroke-linecap:square;stroke-width:0.8;"/>
    </g>
    <g id="text_20">
     <!-- 0 -->
     <g transform="translate(36.319991 217.800274)scale(0.15 -0.15)">
      <use xlink:href="#SimHei-30"/>
     </g>
    </g>
   </g>
   <g id="xtick_18">
    <g id="line2d_21">
     <path d="M 59.262222 189.959775 
L 55.165133 190.747826 
" style="fill:none;stroke:#000000;stroke-linecap:square;stroke-width:0.8;"/>
    </g>
    <g id="text_21">
     <!-- 2 -->
     <g transform="translate(35.646444 199.518717)scale(0.15 -0.15)">
      <use xlink:href="#SimHei-32"/>
     </g>
    </g>
   </g>
   <g id="xtick_19">
    <g id="line2d_22">
     <path d="M 58.668498 171.499365 
L 54.552763 172.266732 
" style="fill:none;stroke:#000000;stroke-linecap:square;stroke-width:0.8;"/>
    </g>
    <g id="text_22">
     <!-- 4 -->
     <g transform="translate(34.967036 181.078092)scale(0.15 -0.15)">
      <use xlink:href="#SimHei-34"/>
     </g>
    </g>
   </g>
   <g id="xtick_20">
    <g id="line2d_23">
     <path d="M 58.069579 152.877427 
L 53.935029 153.623718 
" style="fill:none;stroke:#000000;stroke-linecap:square;stroke-width:0.8;"/>
    </g>
    <g id="text_23">
     <!-- 6 -->
     <g transform="translate(34.281691 162.476316)scale(0.15 -0.15)">
      <use xlink:href="#SimHei-36"/>
     </g>
    </g>
   </g>
   <g id="xtick_21">
    <g id="line2d_24">
     <path d="M 57.465397 134.091831 
L 53.311858 134.816645 
" style="fill:none;stroke:#000000;stroke-linecap:square;stroke-width:0.8;"/>
    </g>
    <g id="text_24">
     <!-- 8 -->
     <g transform="translate(33.590331 143.711265)scale(0.15 -0.15)">
      <use xlink:href="#SimHei-38"/>
     </g>
    </g>
   </g>
   <g id="xtick_22">
    <g id="line2d_25">
     <path d="M 56.855881 115.140412 
L 52.683179 115.843338 
" style="fill:none;stroke:#000000;stroke-linecap:square;stroke-width:0.8;"/>
    </g>
    <g id="text_25">
     <!-- 10 -->
     <g transform="translate(29.142875 124.780781)scale(0.15 -0.15)">
      <use xlink:href="#SimHei-31"/>
      <use x="50" xlink:href="#SimHei-30"/>
     </g>
    </g>
   </g>
   <g id="xtick_23">
    <g id="line2d_26">
     <path d="M 56.240962 96.020962 
L 52.048919 96.701585 
" style="fill:none;stroke:#000000;stroke-linecap:square;stroke-width:0.8;"/>
    </g>
    <g id="text_26">
     <!-- 12 -->
     <g transform="translate(28.439244 105.682667)scale(0.15 -0.15)">
      <use xlink:href="#SimHei-31"/>
      <use x="50" xlink:href="#SimHei-32"/>
     </g>
    </g>
   </g>
   <g id="xtick_24">
    <g id="line2d_27">
     <path d="M 55.620566 76.731239 
L 51.409002 77.389131 
" style="fill:none;stroke:#000000;stroke-linecap:square;stroke-width:0.8;"/>
    </g>
    <g id="text_27">
     <!-- 14 -->
     <g transform="translate(27.729354 86.414686)scale(0.15 -0.15)">
      <use xlink:href="#SimHei-31"/>
      <use x="50" xlink:href="#SimHei-34"/>
     </g>
    </g>
   </g>
  </g>
  <g id="axes_1">
   <g id="Path3DCollection_1">
    <defs>
     <path d="M 0 5 
C 1.326016 5 2.597899 4.473168 3.535534 3.535534 
C 4.473168 2.597899 5 1.326016 5 0 
C 5 -1.326016 4.473168 -2.597899 3.535534 -3.535534 
C 2.597899 -4.473168 1.326016 -5 0 -5 
C -1.326016 -5 -2.597899 -4.473168 -3.535534 -3.535534 
C -4.473168 -2.597899 -5 -1.326016 -5 0 
C -5 1.326016 -4.473168 2.597899 -3.535534 3.535534 
C -2.597899 4.473168 -1.326016 5 0 5 
z
" id="mf505fefb7a" style="stroke:#008000;"/>
    </defs>
    <g clip-path="url(#p419cb9cd5d)">
     <use style="fill:#008000;stroke:#008000;" x="188.521383" xlink:href="#mf505fefb7a" y="194.745773"/>
    </g>
   </g>
   <g id="Path3DCollection_2">
    <path clip-path="url(#p419cb9cd5d)" d="M 224.398551 57.645583 
C 224.531152 57.645583 224.658341 57.5929 224.752104 57.499136 
C 224.845868 57.405373 224.898551 57.278185 224.898551 57.145583 
C 224.898551 57.012981 224.845868 56.885793 224.752104 56.79203 
C 224.658341 56.698266 224.531152 56.645583 224.398551 56.645583 
C 224.265949 56.645583 224.138761 56.698266 224.044997 56.79203 
C 223.951234 56.885793 223.898551 57.012981 223.898551 57.145583 
C 223.898551 57.278185 223.951234 57.405373 224.044997 57.499136 
C 224.138761 57.5929 224.265949 57.645583 224.398551 57.645583 
z
" style="fill:#ff0000;stroke:#ff0000;"/>
    <path clip-path="url(#p419cb9cd5d)" d="M 231.385035 69.811029 
C 231.650238 69.811029 231.904615 69.705663 232.092142 69.518136 
C 232.279668 69.330609 232.385035 69.076232 232.385035 68.811029 
C 232.385035 68.545826 232.279668 68.291449 232.092142 68.103922 
C 231.904615 67.916395 231.650238 67.811029 231.385035 67.811029 
C 231.119832 67.811029 230.865455 67.916395 230.677928 68.103922 
C 230.490401 68.291449 230.385035 68.545826 230.385035 68.811029 
C 230.385035 69.076232 230.490401 69.330609 230.677928 69.518136 
C 230.865455 69.705663 231.119832 69.811029 231.385035 69.811029 
z
" style="fill:#ff0000;stroke:#ff0000;"/>
    <path clip-path="url(#p419cb9cd5d)" d="M 238.409492 81.814634 
C 238.74756 81.814634 239.071829 81.680318 239.310879 81.441267 
C 239.54993 81.202216 239.684246 80.877948 239.684246 80.539879 
C 239.684246 80.20181 239.54993 79.877542 239.310879 79.638491 
C 239.071829 79.39944 238.74756 79.265124 238.409492 79.265124 
C 238.071423 79.265124 237.747155 79.39944 237.508104 79.638491 
C 237.269053 79.877542 237.134737 80.20181 237.134737 80.539879 
C 237.134737 80.877948 237.269053 81.202216 237.508104 81.441267 
C 237.747155 81.680318 238.071423 81.814634 238.409492 81.814634 
z
" style="fill:#ff0000;stroke:#ff0000;"/>
    <path clip-path="url(#p419cb9cd5d)" d="M 245.472232 94.100418 
C 245.941049 94.100418 246.390728 93.914155 246.722232 93.582651 
C 247.053735 93.251147 247.239999 92.801468 247.239999 92.332651 
C 247.239999 91.863834 247.053735 91.414155 246.722232 91.082651 
C 246.390728 90.751147 245.941049 90.564884 245.472232 90.564884 
C 245.003414 90.564884 244.553735 90.751147 244.222232 91.082651 
C 243.890728 91.414155 243.704465 91.863834 243.704465 92.332651 
C 243.704465 92.801468 243.890728 93.251147 244.222232 93.582651 
C 244.553735 93.914155 245.003414 94.100418 245.472232 94.100418 
z
" style="fill:#ff0000;stroke:#ff0000;"/>
    <path clip-path="url(#p419cb9cd5d)" d="M 252.573569 106.126361 
C 253.087132 106.126361 253.579731 105.92232 253.942875 105.559175 
C 254.306019 105.196031 254.51006 104.703433 254.51006 104.189869 
C 254.51006 103.676305 254.306019 103.183707 253.942875 102.820563 
C 253.579731 102.457418 253.087132 102.253377 252.573569 102.253377 
C 252.060005 102.253377 251.567407 102.457418 251.204262 102.820563 
C 250.841118 103.183707 250.637077 103.676305 250.637077 104.189869 
C 250.637077 104.703433 250.841118 105.196031 251.204262 105.559175 
C 251.567407 105.92232 252.060005 106.126361 252.573569 106.126361 
z
" style="fill:#ff0000;stroke:#ff0000;"/>
    <path clip-path="url(#p419cb9cd5d)" d="M 259.71382 118.457271 
C 260.335777 118.457271 260.932343 118.210165 261.372133 117.770376 
C 261.811922 117.330586 262.059028 116.73402 262.059028 116.112063 
C 262.059028 115.490107 261.811922 114.89354 261.372133 114.453751 
C 260.932343 114.013961 260.335777 113.766855 259.71382 113.766855 
C 259.091864 113.766855 258.495297 114.013961 258.055508 114.453751 
C 257.615718 114.89354 257.368612 115.490107 257.368612 116.112063 
C 257.368612 116.73402 257.615718 117.330586 258.055508 117.770376 
C 258.495297 118.210165 259.091864 118.457271 259.71382 118.457271 
z
" style="fill:#ff0000;stroke:#ff0000;"/>
    <path clip-path="url(#p419cb9cd5d)" d="M 266.893307 130.673676 
C 267.575915 130.673676 268.230657 130.402473 268.713334 129.919796 
C 269.196011 129.437119 269.467214 128.782377 269.467214 128.099769 
C 269.467214 127.41716 269.196011 126.762418 268.713334 126.279741 
C 268.230657 125.797064 267.575915 125.525861 266.893307 125.525861 
C 266.210698 125.525861 265.555956 125.797064 265.073279 126.279741 
C 264.590602 126.762418 264.319399 127.41716 264.319399 128.099769 
C 264.319399 128.782377 264.590602 129.437119 265.073279 129.919796 
C 265.555956 130.402473 266.210698 130.673676 266.893307 130.673676 
z
" style="fill:#ff0000;stroke:#ff0000;"/>
    <path clip-path="url(#p419cb9cd5d)" d="M 274.112353 142.799279 
C 274.814014 142.799279 275.487032 142.520505 275.983181 142.024356 
C 276.479331 141.528206 276.758104 140.855189 276.758104 140.153527 
C 276.758104 139.451866 276.479331 138.778848 275.983181 138.282698 
C 275.487032 137.786549 274.814014 137.507776 274.112353 137.507776 
C 273.410691 137.507776 272.737674 137.786549 272.241524 138.282698 
C 271.745374 138.778848 271.466601 139.451866 271.466601 140.153527 
C 271.466601 140.855189 271.745374 141.528206 272.241524 142.024356 
C 272.737674 142.520505 273.410691 142.799279 274.112353 142.799279 
z
" style="fill:#ff0000;stroke:#ff0000;"/>
    <path clip-path="url(#p419cb9cd5d)" d="M 281.371286 154.943156 
C 282.079184 154.943156 282.758185 154.661904 283.258744 154.161345 
C 283.759304 153.660785 284.040555 152.981785 284.040555 152.273886 
C 284.040555 151.565987 283.759304 150.886987 283.258744 150.386427 
C 282.758185 149.885868 282.079184 149.604616 281.371286 149.604616 
C 280.663387 149.604616 279.984387 149.885868 279.483827 150.386427 
C 278.983267 150.886987 278.702016 151.565987 278.702016 152.273886 
C 278.702016 152.981785 278.983267 153.660785 279.483827 154.161345 
C 279.984387 154.661904 280.663387 154.943156 281.371286 154.943156 
z
" style="fill:#ff0000;stroke:#ff0000;"/>
    <path clip-path="url(#p419cb9cd5d)" d="M 288.670438 166.885239 
C 289.313248 166.885239 289.929816 166.629848 290.384351 166.175312 
C 290.838887 165.720777 291.094278 165.104209 291.094278 164.461399 
C 291.094278 163.818589 290.838887 163.20202 290.384351 162.747485 
C 289.929816 162.29295 289.313248 162.037559 288.670438 162.037559 
C 288.027628 162.037559 287.411059 162.29295 286.956524 162.747485 
C 286.501989 163.20202 286.246598 163.818589 286.246598 164.461399 
C 286.246598 165.104209 286.501989 165.720777 286.956524 166.175312 
C 287.411059 166.629848 288.027628 166.885239 288.670438 166.885239 
z
" style="fill:#ff0000;stroke:#ff0000;"/>
    <path clip-path="url(#p419cb9cd5d)" d="M 296.010143 178.808275 
C 296.564856 178.808275 297.096923 178.587886 297.489163 178.195645 
C 297.881404 177.803404 298.101794 177.271337 298.101794 176.716625 
C 298.101794 176.161913 297.881404 175.629846 297.489163 175.237605 
C 297.096923 174.845364 296.564856 174.624975 296.010143 174.624975 
C 295.455431 174.624975 294.923364 174.845364 294.531124 175.237605 
C 294.138883 175.629846 293.918493 176.161913 293.918493 176.716625 
C 293.918493 177.271337 294.138883 177.803404 294.531124 178.195645 
C 294.923364 178.587886 295.455431 178.808275 296.010143 178.808275 
z
" style="fill:#ff0000;stroke:#ff0000;"/>
    <path clip-path="url(#p419cb9cd5d)" d="M 303.390742 190.807897 
C 303.859559 190.807897 304.309238 190.621634 304.640742 190.29013 
C 304.972246 189.958627 305.158509 189.508948 305.158509 189.04013 
C 305.158509 188.571313 304.972246 188.121634 304.640742 187.79013 
C 304.309238 187.458627 303.859559 187.272364 303.390742 187.272364 
C 302.921925 187.272364 302.472246 187.458627 302.140742 187.79013 
C 301.809238 188.121634 301.622975 188.571313 301.622975 189.04013 
C 301.622975 189.508948 301.809238 189.958627 302.140742 190.29013 
C 302.472246 190.621634 302.921925 190.807897 303.390742 190.807897 
z
" style="fill:#ff0000;stroke:#ff0000;"/>
    <path clip-path="url(#p419cb9cd5d)" d="M 310.812576 202.846701 
C 311.18763 202.846701 311.547373 202.697691 311.812576 202.432488 
C 312.077779 202.167285 312.22679 201.807542 312.22679 201.432488 
C 312.22679 201.057434 312.077779 200.697691 311.812576 200.432488 
C 311.547373 200.167285 311.18763 200.018274 310.812576 200.018274 
C 310.437522 200.018274 310.077779 200.167285 309.812576 200.432488 
C 309.547373 200.697691 309.398363 201.057434 309.398363 201.432488 
C 309.398363 201.807542 309.547373 202.167285 309.812576 202.432488 
C 310.077779 202.697691 310.437522 202.846701 310.812576 202.846701 
z
" style="fill:#ff0000;stroke:#ff0000;"/>
    <path clip-path="url(#p419cb9cd5d)" d="M 318.275992 214.394275 
C 318.408594 214.394275 318.535782 214.341592 318.629546 214.247829 
C 318.723309 214.154065 318.775992 214.026877 318.775992 213.894275 
C 318.775992 213.761674 318.723309 213.634485 318.629546 213.540722 
C 318.535782 213.446958 318.408594 213.394275 318.275992 213.394275 
C 318.143391 213.394275 318.016202 213.446958 317.922439 213.540722 
C 317.828676 213.634485 317.775992 213.761674 317.775992 213.894275 
C 317.775992 214.026877 317.828676 214.154065 317.922439 214.247829 
C 318.016202 214.341592 318.143391 214.394275 318.275992 214.394275 
z
" style="fill:#ff0000;stroke:#ff0000;"/>
    <path clip-path="url(#p419cb9cd5d)" d="M 207.466343 56.430705 
C 207.466343 56.430705 207.466343 56.430705 207.466343 56.430705 
C 207.466343 56.430705 207.466343 56.430705 207.466343 56.430705 
C 207.466343 56.430705 207.466343 56.430705 207.466343 56.430705 
C 207.466343 56.430705 207.466343 56.430705 207.466343 56.430705 
C 207.466343 56.430705 207.466343 56.430705 207.466343 56.430705 
C 207.466343 56.430705 207.466343 56.430705 207.466343 56.430705 
C 207.466343 56.430705 207.466343 56.430705 207.466343 56.430705 
C 207.466343 56.430705 207.466343 56.430705 207.466343 56.430705 
z
" style="fill:#ff0000;stroke:#ff0000;"/>
    <path clip-path="url(#p419cb9cd5d)" d="M 197.459219 68.404926 
C 197.740509 68.404926 198.010316 68.293168 198.209219 68.094266 
C 198.408121 67.895364 198.519879 67.625556 198.519879 67.344266 
C 198.519879 67.062976 198.408121 66.793168 198.209219 66.594266 
C 198.010316 66.395364 197.740509 66.283606 197.459219 66.283606 
C 197.177928 66.283606 196.908121 66.395364 196.709219 66.594266 
C 196.510316 66.793168 196.398559 67.062976 196.398559 67.344266 
C 196.398559 67.625556 196.510316 67.895364 196.709219 68.094266 
C 196.908121 68.293168 197.177928 68.404926 197.459219 68.404926 
z
" style="fill:#ff0000;stroke:#ff0000;"/>
    <path clip-path="url(#p419cb9cd5d)" d="M 187.428275 79.401838 
C 187.724781 79.401838 188.009183 79.284035 188.218845 79.074373 
C 188.428506 78.864712 188.546309 78.58031 188.546309 78.283804 
C 188.546309 77.987298 188.428506 77.702896 188.218845 77.493234 
C 188.009183 77.283573 187.724781 77.16577 187.428275 77.16577 
C 187.131769 77.16577 186.847367 77.283573 186.637706 77.493234 
C 186.428045 77.702896 186.310241 77.987298 186.310241 78.283804 
C 186.310241 78.58031 186.428045 78.864712 186.637706 79.074373 
C 186.847367 79.284035 187.131769 79.401838 187.428275 79.401838 
z
" style="fill:#ff0000;stroke:#ff0000;"/>
    <path clip-path="url(#p419cb9cd5d)" d="M 177.373428 90.869596 
C 177.803106 90.869596 178.215243 90.698883 178.519072 90.395055 
C 178.8229 90.091227 178.993613 89.679089 178.993613 89.249411 
C 178.993613 88.819733 178.8229 88.407596 178.519072 88.103767 
C 178.215243 87.799939 177.803106 87.629226 177.373428 87.629226 
C 176.94375 87.629226 176.531612 87.799939 176.227784 88.103767 
C 175.923955 88.407596 175.753242 88.819733 175.753242 89.249411 
C 175.753242 89.679089 175.923955 90.091227 176.227784 90.395055 
C 176.531612 90.698883 176.94375 90.869596 177.373428 90.869596 
z
" style="fill:#ff0000;stroke:#ff0000;"/>
    <path clip-path="url(#p419cb9cd5d)" d="M 167.29459 102.209683 
C 167.816643 102.209683 168.317384 102.00227 168.686531 101.633123 
C 169.055678 101.263976 169.263092 100.763234 169.263092 100.241182 
C 169.263092 99.719129 169.055678 99.218388 168.686531 98.84924 
C 168.317384 98.480093 167.816643 98.27268 167.29459 98.27268 
C 166.772537 98.27268 166.271796 98.480093 165.902649 98.84924 
C 165.533502 99.218388 165.326088 99.719129 165.326088 100.241182 
C 165.326088 100.763234 165.533502 101.263976 165.902649 101.633123 
C 166.271796 102.00227 166.772537 102.209683 167.29459 102.209683 
z
" style="fill:#ff0000;stroke:#ff0000;"/>
    <path clip-path="url(#p419cb9cd5d)" d="M 157.191676 113.577613 
C 157.806525 113.577613 158.396273 113.333331 158.831036 112.898568 
C 159.265799 112.463805 159.510081 111.874057 159.510081 111.259209 
C 159.510081 110.64436 159.265799 110.054612 158.831036 109.619849 
C 158.396273 109.185086 157.806525 108.940804 157.191676 108.940804 
C 156.576828 108.940804 155.98708 109.185086 155.552317 109.619849 
C 155.117554 110.054612 154.873272 110.64436 154.873272 111.259209 
C 154.873272 111.874057 155.117554 112.463805 155.552317 112.898568 
C 155.98708 113.333331 156.576828 113.577613 157.191676 113.577613 
z
" style="fill:#ff0000;stroke:#ff0000;"/>
    <path clip-path="url(#p419cb9cd5d)" d="M 147.064601 124.675295 
C 147.693585 124.675295 148.296893 124.425396 148.741652 123.980637 
C 149.186411 123.535878 149.436309 122.932571 149.436309 122.303586 
C 149.436309 121.674602 149.186411 121.071295 148.741652 120.626535 
C 148.296893 120.181776 147.693585 119.931878 147.064601 119.931878 
C 146.435616 119.931878 145.832309 120.181776 145.38755 120.626535 
C 144.942791 121.071295 144.692892 121.674602 144.692892 122.303586 
C 144.692892 122.932571 144.942791 123.535878 145.38755 123.980637 
C 145.832309 124.425396 146.435616 124.675295 147.064601 124.675295 
z
" style="fill:#ff0000;stroke:#ff0000;"/>
    <path clip-path="url(#p419cb9cd5d)" d="M 136.913276 136.353504 
C 137.703341 136.353504 138.461153 136.039607 139.019813 135.480947 
C 139.578474 134.922287 139.89237 134.164475 139.89237 133.37441 
C 139.89237 132.584345 139.578474 131.826533 139.019813 131.267872 
C 138.461153 130.709212 137.703341 130.395316 136.913276 130.395316 
C 136.123211 130.395316 135.365399 130.709212 134.806738 131.267872 
C 134.248078 131.826533 133.934182 132.584345 133.934182 133.37441 
C 133.934182 134.164475 134.248078 134.922287 134.806738 135.480947 
C 135.365399 136.039607 136.123211 136.353504 136.913276 136.353504 
z
" style="fill:#ff0000;stroke:#ff0000;"/>
    <path clip-path="url(#p419cb9cd5d)" d="M 126.737615 147.278017 
C 127.481839 147.278017 128.195682 146.982333 128.721928 146.456087 
C 129.248174 145.929841 129.543858 145.215998 129.543858 144.471774 
C 129.543858 143.727549 129.248174 143.013706 128.721928 142.48746 
C 128.195682 141.961214 127.481839 141.665531 126.737615 141.665531 
C 125.99339 141.665531 125.279547 141.961214 124.753301 142.48746 
C 124.227055 143.013706 123.931372 143.727549 123.931372 144.471774 
C 123.931372 145.215998 124.227055 145.929841 124.753301 146.456087 
C 125.279547 146.982333 125.99339 147.278017 126.737615 147.278017 
z
" style="fill:#ff0000;stroke:#ff0000;"/>
    <path clip-path="url(#p419cb9cd5d)" d="M 116.53753 158.8935 
C 117.412097 158.8935 118.250962 158.546031 118.869375 157.927619 
C 119.487787 157.309206 119.835256 156.470341 119.835256 155.595774 
C 119.835256 154.721206 119.487787 153.882341 118.869375 153.263929 
C 118.250962 152.645517 117.412097 152.298047 116.53753 152.298047 
C 115.662962 152.298047 114.824097 152.645517 114.205685 153.263929 
C 113.587273 153.882341 113.239803 154.721206 113.239803 155.595774 
C 113.239803 156.470341 113.587273 157.309206 114.205685 157.927619 
C 114.824097 158.546031 115.662962 158.8935 116.53753 158.8935 
z
" style="fill:#ff0000;stroke:#ff0000;"/>
    <path clip-path="url(#p419cb9cd5d)" d="M 106.312933 169.271382 
C 106.982538 169.271382 107.624808 169.005345 108.09829 168.531863 
C 108.571772 168.058381 108.837809 167.416111 108.837809 166.746506 
C 108.837809 166.076901 108.571772 165.434631 108.09829 164.961149 
C 107.624808 164.487667 106.982538 164.22163 106.312933 164.22163 
C 105.643328 164.22163 105.001058 164.487667 104.527576 164.961149 
C 104.054094 165.434631 103.788057 166.076901 103.788057 166.746506 
C 103.788057 167.416111 104.054094 168.058381 104.527576 168.531863 
C 105.001058 169.005345 105.643328 169.271382 106.312933 169.271382 
z
" style="fill:#ff0000;stroke:#ff0000;"/>
    <path clip-path="url(#p419cb9cd5d)" d="M 96.063736 180.160135 
C 96.656748 180.160135 97.225552 179.924529 97.644875 179.505206 
C 98.064197 179.085883 98.299804 178.517079 98.299804 177.924067 
C 98.299804 177.331055 98.064197 176.762251 97.644875 176.342928 
C 97.225552 175.923605 96.656748 175.687999 96.063736 175.687999 
C 95.470724 175.687999 94.90192 175.923605 94.482597 176.342928 
C 94.063274 176.762251 93.827668 177.331055 93.827668 177.924067 
C 93.827668 178.517079 94.063274 179.085883 94.482597 179.505206 
C 94.90192 179.924529 95.470724 180.160135 96.063736 180.160135 
z
" style="fill:#ff0000;stroke:#ff0000;"/>
    <path clip-path="url(#p419cb9cd5d)" d="M 85.789849 190.860604 
C 86.249195 190.860604 86.689788 190.678104 87.014594 190.353298 
C 87.3394 190.028492 87.5219 189.587899 87.5219 189.128553 
C 87.5219 188.669208 87.3394 188.228615 87.014594 187.903809 
C 86.689788 187.579002 86.249195 187.396503 85.789849 187.396503 
C 85.330504 187.396503 84.889911 187.579002 84.565104 187.903809 
C 84.240298 188.228615 84.057798 188.669208 84.057798 189.128553 
C 84.057798 189.587899 84.240298 190.028492 84.565104 190.353298 
C 84.889911 190.678104 85.330504 190.860604 85.789849 190.860604 
z
" style="fill:#ff0000;stroke:#ff0000;"/>
    <path clip-path="url(#p419cb9cd5d)" d="M 75.491184 201.226088 
C 75.720857 201.226088 75.941154 201.134838 76.103557 200.972435 
C 76.26596 200.810032 76.35721 200.589736 76.35721 200.360063 
C 76.35721 200.13039 76.26596 199.910094 76.103557 199.74769 
C 75.941154 199.585287 75.720857 199.494037 75.491184 199.494037 
C 75.261512 199.494037 75.041215 199.585287 74.878812 199.74769 
C 74.716409 199.910094 74.625159 200.13039 74.625159 200.360063 
C 74.625159 200.589736 74.716409 200.810032 74.878812 200.972435 
C 75.041215 201.134838 75.261512 201.226088 75.491184 201.226088 
z
" style="fill:#ff0000;stroke:#ff0000;"/>
    <path clip-path="url(#p419cb9cd5d)" d="M 308.024995 225.417209 
C 308.024995 225.417209 308.024995 225.417209 308.024995 225.417209 
C 308.024995 225.417209 308.024995 225.417209 308.024995 225.417209 
C 308.024995 225.417209 308.024995 225.417209 308.024995 225.417209 
C 308.024995 225.417209 308.024995 225.417209 308.024995 225.417209 
C 308.024995 225.417209 308.024995 225.417209 308.024995 225.417209 
C 308.024995 225.417209 308.024995 225.417209 308.024995 225.417209 
C 308.024995 225.417209 308.024995 225.417209 308.024995 225.417209 
C 308.024995 225.417209 308.024995 225.417209 308.024995 225.417209 
z
" style="fill:#ff0000;stroke:#ff0000;"/>
    <path clip-path="url(#p419cb9cd5d)" d="M 290.324347 225.529539 
C 290.620853 225.529539 290.905255 225.411736 291.114917 225.202074 
C 291.324578 224.992413 291.442381 224.708011 291.442381 224.411505 
C 291.442381 224.114999 291.324578 223.830597 291.114917 223.620936 
C 290.905255 223.411274 290.620853 223.293471 290.324347 223.293471 
C 290.027841 223.293471 289.743439 223.411274 289.533778 223.620936 
C 289.324116 223.830597 289.206313 224.114999 289.206313 224.411505 
C 289.206313 224.708011 289.324116 224.992413 289.533778 225.202074 
C 289.743439 225.411736 290.027841 225.529539 290.324347 225.529539 
z
" style="fill:#ff0000;stroke:#ff0000;"/>
    <path clip-path="url(#p419cb9cd5d)" d="M 272.679137 225.279779 
C 273.175286 225.279779 273.651182 225.082657 274.002012 224.731826 
C 274.352843 224.380995 274.549965 223.9051 274.549965 223.40895 
C 274.549965 222.912801 274.352843 222.436906 274.002012 222.086075 
C 273.651182 221.735244 273.175286 221.538122 272.679137 221.538122 
C 272.182987 221.538122 271.707092 221.735244 271.356261 222.086075 
C 271.00543 222.436906 270.808308 222.912801 270.808308 223.40895 
C 270.808308 223.9051 271.00543 224.380995 271.356261 224.731826 
C 271.707092 225.082657 272.182987 225.279779 272.679137 225.279779 
z
" style="fill:#ff0000;stroke:#ff0000;"/>
    <path clip-path="url(#p419cb9cd5d)" d="M 255.089103 225.237958 
C 255.839211 225.237958 256.558697 224.939937 257.089103 224.409531 
C 257.619509 223.879125 257.91753 223.159639 257.91753 222.409531 
C 257.91753 221.659423 257.619509 220.939937 257.089103 220.409531 
C 256.558697 219.879125 255.839211 219.581104 255.089103 219.581104 
C 254.338995 219.581104 253.619509 219.879125 253.089103 220.409531 
C 252.558697 220.939937 252.260676 221.659423 252.260676 222.409531 
C 252.260676 223.159639 252.558697 223.879125 253.089103 224.409531 
C 253.619509 224.939937 254.338995 225.237958 255.089103 225.237958 
z
" style="fill:#ff0000;stroke:#ff0000;"/>
    <path clip-path="url(#p419cb9cd5d)" d="M 237.553988 225.053287 
C 238.519342 225.053287 239.445287 224.669748 240.127896 223.987139 
C 240.810504 223.304531 241.194043 222.378586 241.194043 221.413232 
C 241.194043 220.447878 240.810504 219.521933 240.127896 218.839324 
C 239.445287 218.156716 238.519342 217.773177 237.553988 217.773177 
C 236.588634 217.773177 235.662689 218.156716 234.980081 218.839324 
C 234.297472 219.521933 233.913933 220.447878 233.913933 221.413232 
C 233.913933 222.378586 234.297472 223.304531 234.980081 223.987139 
C 235.662689 224.669748 236.588634 225.053287 237.553988 225.053287 
z
" style="fill:#ff0000;stroke:#ff0000;"/>
    <path clip-path="url(#p419cb9cd5d)" d="M 220.073535 225.555698 
C 221.435528 225.555698 222.741921 225.014573 223.704995 224.051498 
C 224.668069 223.088424 225.209195 221.782031 225.209195 220.420038 
C 225.209195 219.058046 224.668069 217.751653 223.704995 216.788579 
C 222.741921 215.825504 221.435528 215.284379 220.073535 215.284379 
C 218.711542 215.284379 217.40515 215.825504 216.442075 216.788579 
C 215.479001 217.751653 214.937876 219.058046 214.937876 220.420038 
C 214.937876 221.782031 215.479001 223.088424 216.442075 224.051498 
C 217.40515 225.014573 218.711542 225.555698 220.073535 225.555698 
z
" style="fill:#ff0000;stroke:#ff0000;"/>
    <path clip-path="url(#p419cb9cd5d)" d="M 202.647489 226.46556 
C 204.513358 226.46556 206.303057 225.724242 207.622426 224.404873 
C 208.941795 223.085505 209.683112 221.295805 209.683112 219.429936 
C 209.683112 217.564067 208.941795 215.774368 207.622426 214.454999 
C 206.303057 213.13563 204.513358 212.394313 202.647489 212.394313 
C 200.78162 212.394313 198.99192 213.13563 197.672552 214.454999 
C 196.353183 215.774368 195.611865 217.564067 195.611865 219.429936 
C 195.611865 221.295805 196.353183 223.085505 197.672552 224.404873 
C 198.99192 225.724242 200.78162 226.46556 202.647489 226.46556 
z
" style="fill:#ff0000;stroke:#ff0000;"/>
    <path clip-path="url(#p419cb9cd5d)" d="M 185.275595 226.180805 
C 187.327709 226.180805 189.296049 225.365491 190.747113 223.914428 
C 192.198176 222.463365 193.013489 220.495024 193.013489 218.442911 
C 193.013489 216.390798 192.198176 214.422457 190.747113 212.971394 
C 189.296049 211.52033 187.327709 210.705017 185.275595 210.705017 
C 183.223482 210.705017 181.255142 211.52033 179.804078 212.971394 
C 178.353015 214.422457 177.537702 216.390798 177.537702 218.442911 
C 177.537702 220.495024 178.353015 222.463365 179.804078 223.914428 
C 181.255142 225.365491 183.223482 226.180805 185.275595 226.180805 
z
" style="fill:#ff0000;stroke:#ff0000;"/>
    <path clip-path="url(#p419cb9cd5d)" d="M 167.957603 224.521172 
C 169.830527 224.521172 171.626992 223.777051 172.951349 222.452694 
C 174.275706 221.128337 175.019826 219.331872 175.019826 217.458948 
C 175.019826 215.586025 174.275706 213.789559 172.951349 212.465202 
C 171.626992 211.140845 169.830527 210.396725 167.957603 210.396725 
C 166.08468 210.396725 164.288214 211.140845 162.963857 212.465202 
C 161.6395 213.789559 160.89538 215.586025 160.89538 217.458948 
C 160.89538 219.331872 161.6395 221.128337 162.963857 222.452694 
C 164.288214 223.777051 166.08468 224.521172 167.957603 224.521172 
z
" style="fill:#ff0000;stroke:#ff0000;"/>
    <path clip-path="url(#p419cb9cd5d)" d="M 150.693261 221.6862 
C 152.074483 221.6862 153.39932 221.137435 154.375991 220.160764 
C 155.352663 219.184092 155.901428 217.859256 155.901428 216.478034 
C 155.901428 215.096812 155.352663 213.771975 154.375991 212.795304 
C 153.39932 211.818632 152.074483 211.269867 150.693261 211.269867 
C 149.312039 211.269867 147.987203 211.818632 147.010531 212.795304 
C 146.03386 213.771975 145.485095 215.096812 145.485095 216.478034 
C 145.485095 217.859256 146.03386 219.184092 147.010531 220.160764 
C 147.987203 221.137435 149.312039 221.6862 150.693261 221.6862 
z
" style="fill:#ff0000;stroke:#ff0000;"/>
    <path clip-path="url(#p419cb9cd5d)" d="M 133.482321 219.122997 
C 134.44311 219.122997 135.364678 218.741272 136.044059 218.061891 
C 136.723439 217.38251 137.105165 216.460943 137.105165 215.500153 
C 137.105165 214.539364 136.723439 213.617796 136.044059 212.938416 
C 135.364678 212.259035 134.44311 211.877309 133.482321 211.877309 
C 132.521531 211.877309 131.599964 212.259035 130.920583 212.938416 
C 130.241202 213.617796 129.859477 214.539364 129.859477 215.500153 
C 129.859477 216.460943 130.241202 217.38251 130.920583 218.061891 
C 131.599964 218.741272 132.521531 219.122997 133.482321 219.122997 
z
" style="fill:#ff0000;stroke:#ff0000;"/>
    <path clip-path="url(#p419cb9cd5d)" d="M 116.324535 216.897001 
C 116.953519 216.897001 117.556827 216.647103 118.001586 216.202344 
C 118.446345 215.757585 118.696243 215.154277 118.696243 214.525293 
C 118.696243 213.896309 118.446345 213.293001 118.001586 212.848242 
C 117.556827 212.403483 116.953519 212.153585 116.324535 212.153585 
C 115.695551 212.153585 115.092243 212.403483 114.647484 212.848242 
C 114.202725 213.293001 113.952827 213.896309 113.952827 214.525293 
C 113.952827 215.154277 114.202725 215.757585 114.647484 216.202344 
C 115.092243 216.647103 115.695551 216.897001 116.324535 216.897001 
z
" style="fill:#ff0000;stroke:#ff0000;"/>
    <path clip-path="url(#p419cb9cd5d)" d="M 99.219657 215.211751 
C 99.659447 215.211751 100.081283 215.037021 100.392261 214.726043 
C 100.703239 214.415064 100.87797 213.993228 100.87797 213.553439 
C 100.87797 213.113649 100.703239 212.691813 100.392261 212.380835 
C 100.081283 212.069857 99.659447 211.895126 99.219657 211.895126 
C 98.779868 211.895126 98.358031 212.069857 98.047053 212.380835 
C 97.736075 212.691813 97.561345 213.113649 97.561345 213.553439 
C 97.561345 213.993228 97.736075 214.415064 98.047053 214.726043 
C 98.358031 215.037021 98.779868 215.211751 99.219657 215.211751 
z
" style="fill:#ff0000;stroke:#ff0000;"/>
    <path clip-path="url(#p419cb9cd5d)" d="M 82.167443 213.291684 
C 82.35497 213.291684 82.534842 213.217178 82.667443 213.084577 
C 82.800045 212.951975 82.87455 212.772104 82.87455 212.584577 
C 82.87455 212.39705 82.800045 212.217178 82.667443 212.084577 
C 82.534842 211.951975 82.35497 211.87747 82.167443 211.87747 
C 81.979917 211.87747 81.800045 211.951975 81.667443 212.084577 
C 81.534842 212.217178 81.460337 212.39705 81.460337 212.584577 
C 81.460337 212.772104 81.534842 212.951975 81.667443 213.084577 
C 81.800045 213.217178 81.979917 213.291684 82.167443 213.291684 
z
" style="fill:#ff0000;stroke:#ff0000;"/>
   </g>
   <g id="legend_1">
    <g id="patch_6">
     <path d="M 21.2 291.2 
L 294.2 291.2 
Q 297.2 291.2 297.2 288.2 
L 297.2 249.95 
Q 297.2 246.95 294.2 246.95 
L 21.2 246.95 
Q 18.2 246.95 18.2 249.95 
L 18.2 288.2 
Q 18.2 291.2 21.2 291.2 
z
" style="fill:#ffffff;opacity:0.8;stroke:#cccccc;stroke-linejoin:miter;"/>
    </g>
    <g id="Path3DCollection_3">
     <defs>
      <path d="M 0 5.471517 
C 1.451063 5.471517 2.84289 4.895004 3.868947 3.868947 
C 4.895004 2.84289 5.471517 1.451063 5.471517 0 
C 5.471517 -1.451063 4.895004 -2.84289 3.868947 -3.868947 
C 2.84289 -4.895004 1.451063 -5.471517 0 -5.471517 
C -1.451063 -5.471517 -2.84289 -4.895004 -3.868947 -3.868947 
C -4.895004 -2.84289 -5.471517 -1.451063 -5.471517 0 
C -5.471517 1.451063 -4.895004 2.84289 -3.868947 3.868947 
C -2.84289 4.895004 -1.451063 5.471517 0 5.471517 
z
" id="md160976680" style="stroke:#ff0000;"/>
     </defs>
     <g>
      <use style="fill:#ff0000;stroke:#ff0000;" x="39.2" xlink:href="#md160976680" y="259.5125"/>
     </g>
    </g>
    <g id="text_28">
     <!-- probability of absorbing state -->
     <defs>
      <path d="M 44.140625 23.828125 
Q 44.140625 12.5 38.671875 6.640625 
Q 33.203125 0.78125 25.390625 0.78125 
Q 21.09375 0.78125 17.96875 2.53125 
Q 14.84375 4.296875 12.5 7.8125 
L 12.5 -12.5 
L 4.6875 -12.5 
L 4.6875 45.703125 
L 12.5 45.703125 
L 12.5 39.84375 
Q 14.84375 43.359375 17.96875 44.921875 
Q 21.09375 46.484375 25.390625 46.484375 
Q 33.203125 46.484375 38.671875 40.8125 
Q 44.140625 35.15625 44.140625 23.828125 
z
M 35.546875 23.828125 
Q 35.546875 31.25 32.609375 35.34375 
Q 29.6875 39.453125 23.828125 39.453125 
Q 19.140625 39.453125 15.8125 35.34375 
Q 12.5 31.25 12.5 23.828125 
Q 12.5 16.40625 15.8125 12.109375 
Q 19.140625 7.8125 23.828125 7.8125 
Q 29.6875 7.8125 32.609375 12.109375 
Q 35.546875 16.40625 35.546875 23.828125 
z
" id="SimHei-70"/>
      <path d="M 39.0625 37.890625 
Q 31.640625 39.0625 26.5625 35.734375 
Q 21.484375 32.421875 17.96875 24.21875 
L 17.96875 1.953125 
L 10.15625 1.953125 
L 10.15625 45.703125 
L 17.96875 45.703125 
L 17.96875 34.375 
Q 21.484375 40.625 26.75 43.546875 
Q 32.03125 46.484375 39.0625 46.484375 
z
" id="SimHei-72"/>
      <path d="M 44.140625 23.828125 
Q 44.140625 12.5 38.671875 6.828125 
Q 33.203125 1.171875 25.390625 1.171875 
Q 21.09375 1.171875 17.96875 2.734375 
Q 14.84375 4.296875 12.5 7.8125 
L 12.5 1.953125 
L 4.6875 1.953125 
L 4.6875 68.75 
L 12.5 68.75 
L 12.5 39.84375 
Q 14.84375 43.359375 17.96875 45.109375 
Q 21.09375 46.875 25.390625 46.875 
Q 33.203125 46.875 38.671875 41.015625 
Q 44.140625 35.15625 44.140625 23.828125 
z
M 35.546875 23.828125 
Q 35.546875 31.25 32.609375 35.546875 
Q 29.6875 39.84375 23.828125 39.84375 
Q 19.140625 39.84375 15.8125 35.546875 
Q 12.5 31.25 12.5 23.828125 
Q 12.5 16.40625 15.8125 12.296875 
Q 19.140625 8.203125 23.828125 8.203125 
Q 29.6875 8.203125 32.609375 12.296875 
Q 35.546875 16.40625 35.546875 23.828125 
z
" id="SimHei-62"/>
      <path d="M 44.921875 1.953125 
L 35.546875 1.953125 
Q 34.765625 2.734375 34.375 4.09375 
Q 33.984375 5.46875 33.984375 7.421875 
Q 31.25 4.296875 27.34375 2.734375 
Q 23.4375 1.171875 19.140625 1.171875 
Q 12.890625 1.171875 8.59375 4.296875 
Q 4.296875 7.421875 4.296875 13.28125 
Q 4.296875 19.140625 8.203125 22.65625 
Q 12.109375 26.171875 20.3125 27.34375 
Q 25.78125 28.125 29.875 29.296875 
Q 33.984375 30.46875 33.984375 32.421875 
Q 33.984375 34.765625 32.21875 37.109375 
Q 30.46875 39.453125 24.609375 39.453125 
Q 19.921875 39.453125 17.765625 37.6875 
Q 15.625 35.9375 14.84375 32.8125 
L 6.25 32.8125 
Q 7.03125 39.0625 11.90625 42.765625 
Q 16.796875 46.484375 24.609375 46.484375 
Q 33.203125 46.484375 37.5 42.578125 
Q 41.796875 38.671875 41.796875 31.640625 
L 41.796875 10.15625 
Q 41.796875 7.8125 42.578125 5.859375 
Q 43.359375 3.90625 44.921875 1.953125 
z
M 33.984375 16.40625 
L 33.984375 24.21875 
Q 31.640625 23.4375 29.484375 22.84375 
Q 27.34375 22.265625 22.265625 21.484375 
Q 16.40625 20.703125 14.640625 18.75 
Q 12.890625 16.796875 12.890625 14.0625 
Q 12.890625 11.71875 14.640625 9.953125 
Q 16.40625 8.203125 19.921875 8.203125 
Q 23.4375 8.203125 27.53125 10.15625 
Q 31.640625 12.109375 33.984375 16.40625 
z
" id="SimHei-61"/>
      <path d="M 28.515625 1.953125 
L 20.703125 1.953125 
L 20.703125 68.75 
L 28.515625 68.75 
z
" id="SimHei-6c"/>
      <path d="M 42.96875 3.125 
Q 41.015625 2.34375 38.46875 1.75 
Q 35.9375 1.171875 31.640625 1.171875 
Q 24.609375 1.171875 20.3125 5.078125 
Q 16.015625 8.984375 16.015625 16.015625 
L 16.015625 39.453125 
L 2.734375 39.453125 
L 2.734375 45.703125 
L 16.015625 45.703125 
L 16.015625 60.9375 
L 23.828125 60.9375 
L 23.828125 45.703125 
L 39.84375 45.703125 
L 39.84375 39.453125 
L 23.828125 39.453125 
L 23.828125 15.625 
Q 23.828125 12.5 25.390625 10.34375 
Q 26.953125 8.203125 31.25 8.203125 
Q 35.546875 8.203125 38.28125 8.984375 
Q 41.015625 9.765625 42.96875 10.9375 
z
" id="SimHei-74"/>
      <path d="M 45.3125 45.703125 
L 27.34375 -1.5625 
Q 25.78125 -7.03125 22.65625 -9.765625 
Q 19.53125 -12.5 14.84375 -12.5 
Q 12.890625 -12.5 11.125 -12.296875 
Q 9.375 -12.109375 7.8125 -11.328125 
L 7.8125 -3.515625 
Q 9.375 -4.296875 10.9375 -4.6875 
Q 12.5 -5.078125 13.671875 -5.078125 
Q 16.796875 -5.078125 17.96875 -4.09375 
Q 19.140625 -3.125 20.3125 0.390625 
L 3.125 45.703125 
L 11.71875 45.703125 
L 24.21875 11.328125 
L 24.609375 11.328125 
L 36.71875 45.703125 
z
" id="SimHei-79"/>
      <path d="M 46.484375 39.0625 
Q 43.75 39.84375 41.203125 40.03125 
Q 38.671875 40.234375 35.9375 39.453125 
Q 37.109375 38.28125 37.890625 36.515625 
Q 38.671875 34.765625 38.671875 31.25 
Q 38.671875 24.609375 34.171875 20.3125 
Q 29.6875 16.015625 23.046875 16.015625 
Q 21.484375 16.015625 18.9375 16.59375 
Q 16.40625 17.1875 14.84375 17.96875 
Q 13.671875 17.1875 13.28125 16.40625 
Q 12.890625 15.625 12.890625 14.453125 
Q 12.890625 12.5 15.625 11.515625 
Q 18.359375 10.546875 25.390625 10.546875 
Q 36.71875 10.546875 40.8125 7.421875 
Q 44.921875 4.296875 44.921875 -0.390625 
Q 44.921875 -6.640625 38.859375 -9.5625 
Q 32.8125 -12.5 24.609375 -12.5 
Q 14.0625 -12.5 8.984375 -9.765625 
Q 3.90625 -7.03125 3.90625 -2.34375 
Q 3.90625 0 5.859375 2.34375 
Q 7.8125 4.6875 10.9375 6.25 
Q 8.59375 7.421875 7.21875 9.171875 
Q 5.859375 10.9375 5.859375 13.671875 
Q 5.859375 16.015625 7.609375 17.765625 
Q 9.375 19.53125 11.71875 20.703125 
Q 9.765625 22.65625 8.59375 25.390625 
Q 7.421875 28.125 7.421875 31.25 
Q 7.421875 37.890625 11.90625 42.1875 
Q 16.40625 46.484375 23.046875 46.484375 
Q 26.5625 46.484375 29.09375 45.5 
Q 31.640625 44.53125 33.59375 42.578125 
Q 36.71875 44.921875 39.84375 45.890625 
Q 42.96875 46.875 46.484375 46.484375 
z
M 30.859375 31.25 
Q 30.859375 35.15625 28.90625 37.5 
Q 26.953125 39.84375 23.046875 39.84375 
Q 19.140625 39.84375 17.1875 37.5 
Q 15.234375 35.15625 15.234375 31.25 
Q 15.234375 27.34375 17.1875 25 
Q 19.140625 22.65625 23.046875 22.65625 
Q 26.953125 22.65625 28.90625 25 
Q 30.859375 27.34375 30.859375 31.25 
z
M 37.5 -1.171875 
Q 37.5 0.390625 35.734375 1.953125 
Q 33.984375 3.515625 26.953125 3.515625 
Q 25.390625 3.515625 22.65625 3.703125 
Q 19.921875 3.90625 16.40625 4.296875 
Q 13.28125 3.125 12.109375 1.5625 
Q 10.9375 0 10.9375 -1.5625 
Q 10.9375 -3.90625 14.0625 -5.46875 
Q 17.1875 -7.03125 25 -7.03125 
Q 31.640625 -7.03125 34.5625 -5.265625 
Q 37.5 -3.515625 37.5 -1.171875 
z
" id="SimHei-67"/>
      <path d="M 44.53125 16.796875 
Q 43.75 9.765625 38.28125 5.46875 
Q 32.8125 1.171875 25.390625 1.171875 
Q 16.015625 1.171875 9.953125 7.21875 
Q 3.90625 13.28125 3.90625 23.828125 
Q 3.90625 34.375 9.953125 40.421875 
Q 16.015625 46.484375 25.390625 46.484375 
Q 33.59375 46.484375 38.859375 41.203125 
Q 44.140625 35.9375 44.140625 23.828125 
L 12.5 23.828125 
Q 12.5 15.234375 16.203125 11.71875 
Q 19.921875 8.203125 25.390625 8.203125 
Q 29.6875 8.203125 32.421875 10.34375 
Q 35.15625 12.5 35.9375 16.796875 
z
M 35.15625 30.078125 
Q 34.375 35.546875 31.640625 37.6875 
Q 28.90625 39.84375 24.609375 39.84375 
Q 20.703125 39.84375 17.578125 37.6875 
Q 14.453125 35.546875 12.890625 30.078125 
z
" id="SimHei-65"/>
     </defs>
     <g transform="translate(66.2 263.45)scale(0.15 -0.15)">
      <use xlink:href="#SimHei-70"/>
      <use x="50" xlink:href="#SimHei-72"/>
      <use x="100" xlink:href="#SimHei-6f"/>
      <use x="150" xlink:href="#SimHei-62"/>
      <use x="200" xlink:href="#SimHei-61"/>
      <use x="250" xlink:href="#SimHei-62"/>
      <use x="300" xlink:href="#SimHei-69"/>
      <use x="350" xlink:href="#SimHei-6c"/>
      <use x="400" xlink:href="#SimHei-69"/>
      <use x="450" xlink:href="#SimHei-74"/>
      <use x="500" xlink:href="#SimHei-79"/>
      <use x="550" xlink:href="#SimHei-20"/>
      <use x="600" xlink:href="#SimHei-6f"/>
      <use x="650" xlink:href="#SimHei-66"/>
      <use x="700" xlink:href="#SimHei-20"/>
      <use x="750" xlink:href="#SimHei-61"/>
      <use x="800" xlink:href="#SimHei-62"/>
      <use x="850" xlink:href="#SimHei-73"/>
      <use x="900" xlink:href="#SimHei-6f"/>
      <use x="950" xlink:href="#SimHei-72"/>
      <use x="1000" xlink:href="#SimHei-62"/>
      <use x="1050" xlink:href="#SimHei-69"/>
      <use x="1100" xlink:href="#SimHei-6e"/>
      <use x="1150" xlink:href="#SimHei-67"/>
      <use x="1200" xlink:href="#SimHei-20"/>
      <use x="1250" xlink:href="#SimHei-73"/>
      <use x="1300" xlink:href="#SimHei-74"/>
      <use x="1350" xlink:href="#SimHei-61"/>
      <use x="1400" xlink:href="#SimHei-74"/>
      <use x="1450" xlink:href="#SimHei-65"/>
     </g>
    </g>
    <g id="Path3DCollection_4">
     <g>
      <use style="fill:#008000;stroke:#008000;" x="39.2" xlink:href="#mf505fefb7a" y="279.3875"/>
     </g>
    </g>
    <g id="text_29">
     <!-- start state -->
     <g transform="translate(66.2 283.325)scale(0.15 -0.15)">
      <use xlink:href="#SimHei-73"/>
      <use x="50" xlink:href="#SimHei-74"/>
      <use x="100" xlink:href="#SimHei-61"/>
      <use x="150" xlink:href="#SimHei-72"/>
      <use x="200" xlink:href="#SimHei-74"/>
      <use x="250" xlink:href="#SimHei-20"/>
      <use x="300" xlink:href="#SimHei-73"/>
      <use x="350" xlink:href="#SimHei-74"/>
      <use x="400" xlink:href="#SimHei-61"/>
      <use x="450" xlink:href="#SimHei-74"/>
      <use x="500" xlink:href="#SimHei-65"/>
     </g>
    </g>
   </g>
  </g>
 </g>
 <defs>
  <clipPath id="p419cb9cd5d">
   <rect height="288" width="360" x="10.7" y="10.7"/>
  </clipPath>
 </defs>
</svg>
