<?xml version="1.0" encoding="utf-8" standalone="no"?>
<!DOCTYPE svg PUBLIC "-//W3C//DTD SVG 1.1//EN"
  "http://www.w3.org/Graphics/SVG/1.1/DTD/svg11.dtd">
<!-- Created with matplotlib (http://matplotlib.org/) -->
<svg height="309.4pt" version="1.1" viewBox="0 0 381.4 309.4" width="381.4pt" xmlns="http://www.w3.org/2000/svg" xmlns:xlink="http://www.w3.org/1999/xlink">
 <defs>
  <style type="text/css">
*{stroke-linecap:butt;stroke-linejoin:round;}
  </style>
 </defs>
 <g id="figure_1">
  <g id="patch_1">
   <path d="M 0 309.4 
L 381.4 309.4 
L 381.4 0 
L 0 0 
z
" style="fill:none;"/>
  </g>
  <g id="patch_2">
   <path d="M 10.7 298.7 
L 370.7 298.7 
L 370.7 10.7 
L 10.7 10.7 
z
" style="fill:#ffffff;"/>
  </g>
  <g id="pane3d_1">
   <g id="patch_3">
    <path d="M 219.619567 185.462306 
L 335.768129 233.715199 
L 340.919918 79.597002 
L 220.435568 41.545085 
" style="fill:#f2f2f2;opacity:0.5;stroke:#f2f2f2;stroke-linejoin:miter;"/>
   </g>
  </g>
  <g id="pane3d_2">
   <g id="patch_4">
    <path d="M 219.619567 185.462306 
L 58.794045 217.8137 
L 53.895826 67.034254 
L 220.435568 41.545085 
" style="fill:#e6e6e6;opacity:0.5;stroke:#e6e6e6;stroke-linejoin:miter;"/>
   </g>
  </g>
  <g id="pane3d_3">
   <g id="patch_5">
    <path d="M 219.619567 185.462306 
L 58.794045 217.8137 
L 168.062833 271.631196 
L 335.768129 233.715199 
" style="fill:#ececec;opacity:0.5;stroke:#ececec;stroke-linejoin:miter;"/>
   </g>
  </g>
  <g id="axis3d_1">
   <g id="line2d_1">
    <path d="M 335.768129 233.715199 
L 168.062833 271.631196 
" style="fill:none;stroke:#000000;stroke-linecap:square;stroke-width:0.8;"/>
   </g>
   <g id="text_1">
    <!-- coins of 大熊 -->
    <defs>
     <path d="M 44.53125 19.53125 
Q 44.53125 11.328125 38.859375 6.25 
Q 33.203125 1.171875 24.609375 1.171875 
Q 16.015625 1.171875 9.765625 7.21875 
Q 3.515625 13.28125 3.515625 23.828125 
Q 3.515625 34.375 9.765625 40.421875 
Q 16.015625 46.484375 24.609375 46.484375 
Q 33.203125 46.484375 38.28125 41.984375 
Q 43.359375 37.5 43.359375 31.25 
L 34.765625 31.25 
Q 34.375 35.9375 31.4375 37.6875 
Q 28.515625 39.453125 24.609375 39.453125 
Q 19.921875 39.453125 16.015625 35.734375 
Q 12.109375 32.03125 12.109375 23.828125 
Q 12.109375 15.625 16.015625 11.90625 
Q 19.921875 8.203125 24.609375 8.203125 
Q 29.6875 8.203125 32.8125 10.9375 
Q 35.9375 13.671875 35.9375 19.53125 
z
" id="SimHei-63"/>
     <path d="M 45.703125 23.828125 
Q 45.703125 13.671875 39.453125 7.421875 
Q 33.203125 1.171875 24.609375 1.171875 
Q 16.015625 1.171875 9.765625 7.421875 
Q 3.515625 13.671875 3.515625 23.828125 
Q 3.515625 33.984375 9.765625 40.234375 
Q 16.015625 46.484375 24.609375 46.484375 
Q 33.203125 46.484375 39.453125 40.234375 
Q 45.703125 33.984375 45.703125 23.828125 
z
M 37.109375 23.828125 
Q 37.109375 31.640625 33.203125 35.546875 
Q 29.296875 39.453125 24.609375 39.453125 
Q 19.921875 39.453125 16.015625 35.546875 
Q 12.109375 31.640625 12.109375 23.828125 
Q 12.109375 16.015625 16.015625 12.109375 
Q 19.921875 8.203125 24.609375 8.203125 
Q 29.296875 8.203125 33.203125 12.109375 
Q 37.109375 16.015625 37.109375 23.828125 
z
" id="SimHei-6f"/>
     <path d="M 28.125 58.203125 
L 20.3125 58.203125 
L 20.3125 68.359375 
L 28.125 68.359375 
z
M 28.125 1.953125 
L 20.3125 1.953125 
L 20.3125 45.703125 
L 28.125 45.703125 
z
" id="SimHei-69"/>
     <path d="M 43.75 1.953125 
L 35.9375 1.953125 
L 35.9375 30.078125 
Q 35.9375 34.765625 33.59375 37.5 
Q 31.25 40.234375 27.34375 40.234375 
Q 22.265625 40.234375 17.765625 34.953125 
Q 13.28125 29.6875 13.28125 21.875 
L 13.28125 1.953125 
L 5.46875 1.953125 
L 5.46875 45.703125 
L 13.28125 45.703125 
L 13.28125 37.5 
Q 16.40625 41.796875 20.109375 44.140625 
Q 23.828125 46.484375 29.6875 46.484375 
Q 36.71875 46.484375 40.234375 42.578125 
Q 43.75 38.671875 43.75 32.8125 
z
" id="SimHei-6e"/>
     <path d="M 42.96875 14.0625 
Q 42.96875 7.8125 38.078125 4.484375 
Q 33.203125 1.171875 25.78125 1.171875 
Q 16.40625 1.171875 11.328125 4.875 
Q 6.25 8.59375 6.25 15.625 
L 14.0625 15.625 
Q 14.0625 10.9375 17.375 9.375 
Q 20.703125 7.8125 25.390625 7.8125 
Q 30.078125 7.8125 32.421875 9.5625 
Q 34.765625 11.328125 34.765625 14.0625 
Q 34.765625 16.015625 32.8125 17.96875 
Q 30.859375 19.921875 23.046875 21.09375 
Q 14.0625 22.265625 10.734375 25.578125 
Q 7.421875 28.90625 7.421875 34.375 
Q 7.421875 39.0625 11.90625 42.765625 
Q 16.40625 46.484375 25 46.484375 
Q 32.8125 46.484375 37.296875 42.96875 
Q 41.796875 39.453125 41.796875 33.59375 
L 33.984375 33.59375 
Q 33.984375 37.109375 31.4375 38.46875 
Q 28.90625 39.84375 25 39.84375 
Q 19.921875 39.84375 17.765625 38.078125 
Q 15.625 36.328125 15.625 33.984375 
Q 15.625 31.25 17.578125 29.6875 
Q 19.53125 28.125 25.78125 27.34375 
Q 35.9375 25.78125 39.453125 22.453125 
Q 42.96875 19.140625 42.96875 14.0625 
z
" id="SimHei-73"/>
     <path id="SimHei-20"/>
     <path d="M 44.53125 59.765625 
Q 42.578125 60.9375 39.84375 61.71875 
Q 37.109375 62.5 32.8125 62.5 
Q 28.515625 62.5 26.953125 60.34375 
Q 25.390625 58.203125 25.390625 55.078125 
L 25.390625 45.703125 
L 41.40625 45.703125 
L 41.40625 39.453125 
L 25.390625 39.453125 
L 25.390625 1.953125 
L 17.578125 1.953125 
L 17.578125 39.453125 
L 4.296875 39.453125 
L 4.296875 45.703125 
L 17.578125 45.703125 
L 17.578125 54.6875 
Q 17.578125 61.71875 21.875 65.625 
Q 26.171875 69.53125 33.203125 69.53125 
Q 37.5 69.53125 40.03125 68.9375 
Q 42.578125 68.359375 44.53125 67.578125 
z
" id="SimHei-66"/>
     <path d="M 45.3125 53.125 
Q 45.703125 66.796875 45.5 71.484375 
Q 45.3125 76.171875 44.921875 80.46875 
Q 49.609375 79.6875 55.46875 79.296875 
Q 54.296875 75.390625 53.703125 67.96875 
Q 53.125 60.546875 53.125 53.125 
L 73.046875 53.125 
Q 83.59375 53.125 92.578125 53.90625 
L 92.578125 45.3125 
Q 84.765625 45.703125 76.5625 45.703125 
L 53.515625 45.703125 
Q 55.078125 39.0625 58.984375 32.21875 
Q 62.890625 25.390625 66.984375 20.109375 
Q 71.09375 14.84375 78.3125 8.984375 
Q 85.546875 3.125 94.140625 -0.78125 
Q 91.015625 -3.125 87.890625 -8.59375 
Q 80.859375 -4.6875 74.015625 1.171875 
Q 67.1875 7.03125 60.34375 16.59375 
Q 53.515625 26.171875 50 34.375 
Q 46.875 25.78125 43.359375 20.109375 
Q 39.84375 14.453125 35.734375 9.765625 
Q 31.640625 5.078125 25.1875 0.390625 
Q 18.75 -4.296875 10.546875 -8.984375 
Q 7.421875 -4.296875 3.515625 -0.78125 
Q 11.71875 1.953125 19.71875 7.03125 
Q 27.734375 12.109375 32.8125 18.546875 
Q 37.890625 25 41.015625 32.03125 
Q 44.140625 39.0625 44.921875 45.703125 
L 23.4375 45.703125 
Q 14.0625 45.703125 8.59375 45.3125 
L 8.59375 53.90625 
Q 14.0625 53.515625 23.4375 53.125 
z
" id="SimHei-5927"/>
     <path d="M 49.609375 52.34375 
Q 49.21875 46.484375 49.21875 40.625 
L 49.21875 19.53125 
Q 49.21875 15.234375 46.484375 13.859375 
Q 43.75 12.5 34.765625 11.328125 
Q 33.59375 14.84375 31.640625 18.359375 
Q 38.671875 18.75 40.421875 18.9375 
Q 42.1875 19.140625 41.796875 23.4375 
L 18.359375 23.4375 
L 18.359375 12.5 
L 10.15625 12.5 
Q 10.546875 25 10.546875 33.59375 
Q 10.546875 42.1875 10.15625 52.34375 
L 49.609375 52.34375 
z
M 65.625 45.3125 
Q 65.234375 41.015625 65.234375 34.375 
Q 81.640625 38.671875 88.28125 43.359375 
Q 90.234375 39.453125 93.359375 36.71875 
Q 85.9375 34.765625 65.625 28.125 
L 65.625 23.046875 
Q 65.625 19.53125 70.703125 19.53125 
L 80.46875 19.53125 
Q 83.59375 19.53125 85.15625 20.890625 
Q 86.71875 22.265625 88.28125 28.125 
Q 92.1875 26.171875 96.875 25.390625 
Q 93.359375 17.1875 91.40625 15.234375 
Q 89.453125 13.28125 83.984375 13.28125 
L 65.234375 13.28125 
Q 57.03125 13.28125 57.03125 19.53125 
L 57.03125 37.5 
Q 57.03125 40.625 56.640625 45.3125 
L 65.625 45.3125 
z
M 92.578125 69.140625 
Q 78.515625 65.234375 64.84375 61.328125 
Q 64.84375 54.6875 68.359375 54.6875 
L 80.46875 54.6875 
Q 83.203125 54.6875 84.765625 56.4375 
Q 86.328125 58.203125 86.71875 62.5 
Q 90.234375 60.9375 94.921875 59.765625 
Q 92.96875 51.5625 90.421875 50.1875 
Q 87.890625 48.828125 82.8125 48.828125 
L 64.84375 48.828125 
Q 57.03125 48.828125 57.03125 54.296875 
L 57.03125 71.09375 
Q 57.03125 75.78125 56.640625 80.46875 
L 65.625 80.46875 
Q 65.234375 75.390625 65.234375 67.1875 
Q 78.515625 70.3125 86.328125 76.171875 
Q 88.671875 72.65625 92.578125 69.140625 
z
M 32.03125 78.125 
Q 24.609375 71.484375 16.40625 62.890625 
Q 22.65625 63.28125 40.625 65.234375 
Q 38.671875 67.578125 35.546875 70.703125 
Q 39.0625 72.265625 42.96875 74.21875 
Q 51.171875 63.28125 55.078125 58.59375 
Q 51.171875 57.03125 48.046875 54.6875 
L 44.53125 59.765625 
Q 42.578125 59.375 33.203125 58.59375 
Q 23.828125 57.8125 9.375 55.859375 
Q 7.421875 59.375 6.25 62.890625 
Q 10.15625 64.84375 14.640625 69.53125 
Q 19.140625 74.21875 23.4375 82.03125 
Q 27.734375 79.6875 32.03125 78.125 
z
M 41.796875 28.90625 
L 41.796875 35.546875 
L 18.359375 35.546875 
L 18.359375 28.90625 
z
M 20.3125 6.640625 
Q 17.1875 3.125 11.71875 -9.765625 
Q 6.640625 -7.8125 3.90625 -7.03125 
Q 6.640625 -1.5625 11.71875 8.984375 
Q 15.625 7.8125 20.3125 6.640625 
z
M 85.9375 10.15625 
Q 92.578125 -1.953125 94.140625 -5.46875 
Q 89.84375 -6.640625 86.328125 -8.59375 
Q 83.984375 -2.34375 78.515625 7.03125 
Q 81.25 8.203125 85.9375 10.15625 
z
M 41.796875 41.015625 
L 41.796875 46.875 
L 18.359375 46.875 
L 18.359375 41.015625 
z
M 62.890625 8.59375 
Q 65.625 -1.953125 66.40625 -5.859375 
L 58.59375 -7.421875 
Q 57.421875 -3.90625 55.46875 7.421875 
Q 58.59375 8.203125 62.890625 8.59375 
z
M 39.84375 7.421875 
Q 40.234375 3.90625 42.578125 -6.640625 
Q 38.671875 -6.640625 34.375 -7.8125 
Q 33.59375 -3.125 32.03125 6.640625 
Q 35.15625 7.421875 39.84375 7.421875 
z
" id="SimHei-718a"/>
    </defs>
    <g style="fill:#800080;" transform="translate(235.061813 295.570823)rotate(-12.739652)scale(0.12 -0.12)">
     <use xlink:href="#SimHei-63"/>
     <use x="50" xlink:href="#SimHei-6f"/>
     <use x="100" xlink:href="#SimHei-69"/>
     <use x="150" xlink:href="#SimHei-6e"/>
     <use x="200" xlink:href="#SimHei-73"/>
     <use x="250" xlink:href="#SimHei-20"/>
     <use x="300" xlink:href="#SimHei-6f"/>
     <use x="350" xlink:href="#SimHei-66"/>
     <use x="400" xlink:href="#SimHei-20"/>
     <use x="450" xlink:href="#SimHei-5927"/>
     <use x="550" xlink:href="#SimHei-718a"/>
    </g>
   </g>
   <g id="Line3DCollection_1">
    <path d="M 325.649087 236.002984 
L 209.876104 187.422284 
L 210.363217 43.086674 
" style="fill:none;stroke:#b0b0b0;stroke-width:0.8;"/>
    <path d="M 305.615951 240.532216 
L 190.60155 191.299522 
L 190.43149 46.137256 
" style="fill:none;stroke:#b0b0b0;stroke-width:0.8;"/>
    <path d="M 285.302458 245.124834 
L 171.077619 195.226923 
L 170.232989 49.228668 
" style="fill:none;stroke:#b0b0b0;stroke-width:0.8;"/>
    <path d="M 264.70268 249.782177 
L 151.299439 199.205469 
L 149.762321 52.361736 
" style="fill:none;stroke:#b0b0b0;stroke-width:0.8;"/>
    <path d="M 243.810523 254.505623 
L 131.262013 203.236164 
L 129.013948 55.537307 
" style="fill:none;stroke:#b0b0b0;stroke-width:0.8;"/>
    <path d="M 222.619718 259.29659 
L 110.960209 207.320041 
L 107.982181 58.756252 
" style="fill:none;stroke:#b0b0b0;stroke-width:0.8;"/>
    <path d="M 201.123814 264.156536 
L 90.38876 211.458159 
L 86.661174 62.019466 
" style="fill:none;stroke:#b0b0b0;stroke-width:0.8;"/>
    <path d="M 179.316176 269.086961 
L 69.542258 215.651607 
L 65.044918 65.327868 
" style="fill:none;stroke:#b0b0b0;stroke-width:0.8;"/>
   </g>
   <g id="xtick_1">
    <g id="line2d_2">
     <path d="M 324.648958 235.583309 
L 327.653217 236.843957 
" style="fill:none;stroke:#000000;stroke-linecap:square;stroke-width:0.8;"/>
    </g>
    <g id="text_2">
     <!-- 0 -->
     <defs>
      <path d="M 3.125 29.296875 
Q 3.90625 50 6.4375 56.046875 
Q 8.984375 62.109375 13.671875 66.015625 
Q 18.359375 69.921875 25.1875 69.921875 
Q 32.03125 69.921875 37.109375 64.25 
Q 42.1875 58.59375 43.75 50 
Q 45.3125 41.40625 44.71875 30.265625 
Q 44.140625 19.140625 40.8125 12.109375 
Q 37.5 5.078125 30.859375 2.34375 
Q 24.21875 -0.390625 17.578125 2.921875 
Q 10.9375 6.25 8.203125 11.71875 
Q 5.46875 17.1875 4.296875 23.234375 
Q 3.125 29.296875 3.90625 50 
z
M 12.890625 52.734375 
Q 10.546875 31.25 12.5 22.84375 
Q 14.453125 14.453125 18.9375 10.9375 
Q 23.4375 7.421875 28.125 9.5625 
Q 32.8125 11.71875 34.953125 18.15625 
Q 37.109375 24.609375 37.109375 32.21875 
Q 37.109375 39.84375 36.515625 46.09375 
Q 35.9375 52.34375 33 57.421875 
Q 30.078125 62.5 25.1875 62.6875 
Q 20.3125 62.890625 16.59375 57.8125 
Q 12.890625 52.734375 10.546875 31.25 
z
" id="SimHei-30"/>
     </defs>
     <g transform="translate(330.134125 260.095778)scale(0.15 -0.15)">
      <use xlink:href="#SimHei-30"/>
     </g>
    </g>
   </g>
   <g id="xtick_2">
    <g id="line2d_3">
     <path d="M 304.621865 240.106691 
L 307.607998 241.384926 
" style="fill:none;stroke:#000000;stroke-linecap:square;stroke-width:0.8;"/>
    </g>
    <g id="text_3">
     <!-- 2 -->
     <defs>
      <path d="M 4.6875 3.90625 
Q 5.078125 9.765625 10.15625 14.453125 
Q 15.234375 19.140625 23.046875 29.09375 
Q 30.859375 39.0625 33.203125 44.53125 
Q 35.546875 50 34.953125 53.90625 
Q 34.375 57.8125 31.25 60.34375 
Q 28.125 62.890625 24.015625 62.5 
Q 19.921875 62.109375 16.203125 59.375 
Q 12.5 56.640625 10.546875 51.171875 
L 3.125 52.34375 
Q 6.25 61.328125 11.125 65.421875 
Q 16.015625 69.53125 22.65625 69.921875 
Q 26.5625 70.3125 29.6875 69.71875 
Q 32.8125 69.140625 36.125 66.984375 
Q 39.453125 64.84375 41.59375 60.546875 
Q 43.75 56.25 43.15625 50.1875 
Q 42.578125 44.140625 37.109375 35.734375 
Q 31.640625 27.34375 16.015625 9.375 
L 44.140625 9.375 
L 44.140625 2.34375 
L 4.6875 2.34375 
z
" id="SimHei-32"/>
     </defs>
     <g transform="translate(310.096382 264.735082)scale(0.15 -0.15)">
      <use xlink:href="#SimHei-32"/>
     </g>
    </g>
   </g>
   <g id="xtick_3">
    <g id="line2d_4">
     <path d="M 284.314682 244.693335 
L 287.281886 245.989527 
" style="fill:none;stroke:#000000;stroke-linecap:square;stroke-width:0.8;"/>
    </g>
    <g id="text_4">
     <!-- 4 -->
     <defs>
      <path d="M 31.25 17.1875 
L 1.171875 17.1875 
L 1.171875 23.828125 
L 32.8125 69.53125 
L 38.671875 69.53125 
L 38.671875 23.828125 
L 48.046875 23.828125 
L 48.046875 17.1875 
L 38.671875 17.1875 
L 38.671875 2.34375 
L 31.25 2.34375 
z
M 31.25 23.828125 
L 31.25 54.6875 
L 9.375 23.828125 
z
" id="SimHei-34"/>
     </defs>
     <g transform="translate(289.777342 269.439513)scale(0.15 -0.15)">
      <use xlink:href="#SimHei-34"/>
     </g>
    </g>
   </g>
   <g id="xtick_4">
    <g id="line2d_5">
     <path d="M 263.721492 249.344577 
L 266.668935 250.659107 
" style="fill:none;stroke:#000000;stroke-linecap:square;stroke-width:0.8;"/>
    </g>
    <g id="text_5">
     <!-- 6 -->
     <defs>
      <path d="M 3.515625 19.53125 
Q 4.296875 30.859375 6.046875 34.765625 
Q 7.8125 38.671875 11.328125 44.53125 
L 27.34375 69.53125 
L 36.328125 69.53125 
L 19.921875 43.75 
Q 30.46875 46.484375 36.71875 42.96875 
Q 42.96875 39.453125 45.109375 34.953125 
Q 47.265625 30.46875 47.453125 25.1875 
Q 47.65625 19.921875 45.890625 14.84375 
Q 44.140625 9.765625 39.640625 5.65625 
Q 35.15625 1.5625 27.140625 1.171875 
Q 19.140625 0.78125 13.46875 4.09375 
Q 7.8125 7.421875 5.65625 13.46875 
Q 3.515625 19.53125 4.296875 30.859375 
z
M 12.5 16.015625 
Q 19.53125 8.59375 25.390625 8.203125 
Q 31.25 7.8125 35.15625 12.109375 
Q 39.0625 16.40625 39.0625 24.609375 
Q 39.0625 32.8125 34.171875 35.9375 
Q 29.296875 39.0625 23.234375 38.28125 
Q 17.1875 37.5 14.453125 32.421875 
Q 11.71875 27.34375 12.109375 21.671875 
Q 12.5 16.015625 19.53125 8.59375 
z
" id="SimHei-36"/>
     </defs>
     <g transform="translate(269.171041 274.210454)scale(0.15 -0.15)">
      <use xlink:href="#SimHei-36"/>
     </g>
    </g>
   </g>
   <g id="xtick_5">
    <g id="line2d_6">
     <path d="M 242.83621 254.061792 
L 245.763028 255.395052 
" style="fill:none;stroke:#000000;stroke-linecap:square;stroke-width:0.8;"/>
    </g>
    <g id="text_6">
     <!-- 8 -->
     <defs>
      <path d="M 2.734375 16.796875 
Q 2.734375 26.171875 5.078125 30.65625 
Q 7.421875 35.15625 12.890625 37.890625 
Q 8.203125 40.625 6.640625 43.9375 
Q 5.078125 47.265625 4.875 51.5625 
Q 4.6875 55.859375 6.046875 58.984375 
Q 7.421875 62.109375 10.15625 64.84375 
Q 12.890625 67.578125 16.203125 68.546875 
Q 19.53125 69.53125 23.4375 69.53125 
Q 27.34375 69.53125 30.46875 68.75 
Q 33.59375 67.96875 37.109375 65.421875 
Q 40.625 62.890625 42.1875 58.203125 
Q 43.75 53.515625 41.984375 47.265625 
Q 40.234375 41.015625 32.8125 37.5 
Q 39.453125 35.546875 42.1875 31.4375 
Q 44.921875 27.34375 44.921875 21.484375 
Q 44.921875 15.625 43.15625 12.109375 
Q 41.40625 8.59375 39.25 6.25 
Q 37.109375 3.90625 33.390625 2.53125 
Q 29.6875 1.171875 24.015625 1.171875 
Q 18.359375 1.171875 14.25 2.53125 
Q 10.15625 3.90625 7.421875 6.640625 
Q 4.6875 9.375 3.703125 13.078125 
Q 2.734375 16.796875 2.734375 26.171875 
z
M 10.9375 26.5625 
Q 10.546875 17.1875 12.296875 13.671875 
Q 14.0625 10.15625 18.75 9.171875 
Q 23.4375 8.203125 28.515625 9.375 
Q 33.59375 10.546875 35.546875 14.84375 
Q 37.5 19.140625 36.90625 23.4375 
Q 36.328125 27.734375 32.03125 30.65625 
Q 27.734375 33.59375 22.65625 33.203125 
Q 17.578125 32.8125 14.25 29.6875 
Q 10.9375 26.5625 10.546875 17.1875 
z
M 12.109375 56.25 
Q 12.109375 48.4375 14.84375 44.921875 
Q 17.578125 41.40625 23.4375 41.40625 
Q 29.296875 41.40625 32.21875 44.921875 
Q 35.15625 48.4375 34.953125 53.3125 
Q 34.765625 58.203125 31.4375 60.546875 
Q 28.125 62.890625 22.453125 62.5 
Q 16.796875 62.109375 14.453125 59.171875 
Q 12.109375 56.25 12.109375 48.4375 
z
" id="SimHei-38"/>
     </defs>
     <g transform="translate(248.271344 279.049324)scale(0.15 -0.15)">
      <use xlink:href="#SimHei-38"/>
     </g>
    </g>
   </g>
   <g id="xtick_6">
    <g id="line2d_7">
     <path d="M 221.652577 258.846394 
L 224.557878 260.198787 
" style="fill:none;stroke:#000000;stroke-linecap:square;stroke-width:0.8;"/>
    </g>
    <g id="text_7">
     <!-- 10 -->
     <defs>
      <path d="M 21.875 56.25 
Q 16.796875 51.171875 8.984375 46.484375 
L 8.984375 53.90625 
Q 18.75 60.546875 25 69.53125 
L 29.6875 69.53125 
L 29.6875 2.34375 
L 21.875 2.34375 
z
" id="SimHei-31"/>
     </defs>
     <g transform="translate(223.321939 283.957585)scale(0.15 -0.15)">
      <use xlink:href="#SimHei-31"/>
      <use x="50" xlink:href="#SimHei-30"/>
     </g>
    </g>
   </g>
   <g id="xtick_7">
    <g id="line2d_8">
     <path d="M 200.164153 263.699837 
L 203.047012 265.071778 
" style="fill:none;stroke:#000000;stroke-linecap:square;stroke-width:0.8;"/>
    </g>
    <g id="text_8">
     <!-- 12 -->
     <g transform="translate(201.816333 288.936741)scale(0.15 -0.15)">
      <use xlink:href="#SimHei-31"/>
      <use x="50" xlink:href="#SimHei-32"/>
     </g>
    </g>
   </g>
   <g id="xtick_8">
    <g id="line2d_9">
     <path d="M 178.364314 268.623617 
L 181.22377 270.015533 
" style="fill:none;stroke:#000000;stroke-linecap:square;stroke-width:0.8;"/>
    </g>
    <g id="text_9">
     <!-- 14 -->
     <g transform="translate(179.997844 293.988337)scale(0.15 -0.15)">
      <use xlink:href="#SimHei-31"/>
      <use x="50" xlink:href="#SimHei-34"/>
     </g>
    </g>
   </g>
  </g>
  <g id="axis3d_2">
   <g id="line2d_10">
    <path d="M 58.794045 217.8137 
L 168.062833 271.631196 
" style="fill:none;stroke:#000000;stroke-linecap:square;stroke-width:0.8;"/>
   </g>
   <g id="text_10">
    <!-- coins of 胖虎 -->
    <defs>
     <path d="M 21.484375 1.953125 
Q 25.78125 1.5625 28.515625 1.75 
Q 31.25 1.953125 31.640625 7.03125 
L 31.640625 26.171875 
L 18.359375 26.171875 
Q 16.796875 14.453125 14.453125 5.859375 
Q 12.109375 -2.734375 10.15625 -7.03125 
Q 6.640625 -3.90625 3.125 -2.734375 
Q 6.640625 2.734375 8.78125 10.34375 
Q 10.9375 17.96875 11.71875 30.859375 
L 11.71875 64.453125 
Q 11.71875 71.09375 11.328125 76.953125 
L 38.671875 76.953125 
Q 38.28125 69.140625 38.28125 61.328125 
L 38.28125 1.953125 
Q 38.28125 -6.25 23.4375 -7.03125 
Q 23.046875 -3.125 21.484375 1.953125 
z
M 64.453125 45.3125 
L 64.453125 69.140625 
Q 64.453125 73.828125 63.671875 79.296875 
L 72.265625 79.296875 
Q 71.875 74.21875 71.875 69.140625 
L 71.875 45.3125 
L 82.421875 45.3125 
Q 85.9375 45.3125 91.796875 45.703125 
L 91.796875 38.671875 
Q 88.28125 39.0625 82.421875 39.0625 
L 71.875 39.0625 
L 71.875 23.4375 
L 84.765625 23.4375 
Q 91.015625 23.4375 96.09375 23.828125 
L 96.09375 16.796875 
Q 90.234375 17.1875 84.765625 17.1875 
L 71.875 17.1875 
L 71.875 3.90625 
Q 71.875 -2.34375 72.265625 -8.984375 
L 64.0625 -8.984375 
Q 64.453125 -2.734375 64.453125 3.90625 
L 64.453125 17.1875 
L 53.90625 17.1875 
Q 48.4375 17.1875 42.578125 16.796875 
L 42.578125 23.828125 
Q 48.046875 23.4375 54.296875 23.4375 
L 64.453125 23.4375 
L 64.453125 39.0625 
L 53.90625 39.0625 
Q 48.4375 39.0625 43.359375 38.671875 
L 43.359375 45.703125 
Q 48.4375 45.3125 53.515625 45.3125 
z
M 31.640625 32.8125 
L 31.640625 48.828125 
L 18.75 48.828125 
L 18.75 32.8125 
z
M 31.640625 55.078125 
L 31.640625 70.703125 
L 18.75 70.703125 
L 18.75 55.078125 
z
M 51.5625 51.953125 
Q 50 58.984375 44.921875 71.09375 
L 51.171875 74.21875 
Q 55.859375 63.28125 58.59375 54.6875 
Q 54.296875 53.515625 51.5625 51.953125 
z
M 77.34375 53.90625 
Q 83.984375 67.96875 84.765625 73.4375 
Q 88.671875 71.875 92.578125 70.703125 
Q 90.625 67.96875 88.671875 62.890625 
Q 86.71875 57.8125 84.375 51.953125 
Q 80.859375 53.90625 77.34375 53.90625 
z
" id="SimHei-80d6"/>
     <path d="M 25.78125 45.703125 
Q 33.203125 46.09375 44.140625 46.875 
L 44.140625 56.640625 
L 20.703125 56.640625 
Q 20.703125 31.640625 20.109375 23.4375 
Q 19.53125 15.234375 17.578125 8 
Q 15.625 0.78125 10.9375 -7.8125 
Q 7.8125 -5.46875 3.125 -3.90625 
Q 7.03125 0.78125 9.171875 6.828125 
Q 11.328125 12.890625 12.109375 18.75 
Q 12.890625 24.609375 13.078125 30.265625 
Q 13.28125 35.9375 13.28125 42.96875 
Q 13.28125 50.390625 12.890625 62.5 
L 44.140625 62.5 
L 44.140625 74.609375 
Q 44.140625 77.34375 43.359375 82.421875 
L 51.953125 82.421875 
Q 51.5625 78.515625 51.5625 75.390625 
L 71.09375 75.390625 
Q 76.171875 75.390625 84.765625 76.171875 
L 84.765625 69.53125 
Q 76.171875 69.921875 70.703125 69.921875 
L 51.171875 69.921875 
L 51.171875 62.5 
L 93.75 62.5 
Q 92.1875 57.8125 89.84375 46.875 
Q 85.15625 48.046875 82.03125 48.4375 
Q 83.984375 52.734375 85.15625 56.640625 
L 51.171875 56.640625 
L 51.171875 47.65625 
Q 65.234375 49.21875 74.21875 50.78125 
L 75 44.140625 
Q 64.0625 42.96875 51.171875 41.40625 
L 51.171875 36.71875 
Q 51.171875 33.203125 57.421875 33.203125 
L 70.3125 33.203125 
Q 75 32.8125 76.359375 34.5625 
Q 77.734375 36.328125 78.515625 41.015625 
Q 81.640625 39.0625 86.71875 37.109375 
Q 84.765625 30.859375 82.03125 29.09375 
Q 79.296875 27.34375 73.828125 27.34375 
L 54.296875 27.34375 
Q 44.140625 27.34375 44.140625 33.59375 
L 44.140625 41.015625 
Q 36.328125 40.234375 27.34375 39.0625 
Q 26.5625 42.578125 25.78125 45.703125 
z
M 71.09375 22.265625 
Q 70.703125 16.796875 70.703125 10.9375 
L 70.703125 2.34375 
Q 70.703125 -1.953125 75 -1.953125 
L 81.25 -1.953125 
Q 85.9375 -1.953125 86.71875 0.78125 
Q 87.5 3.515625 87.5 7.421875 
Q 91.40625 5.078125 96.09375 4.296875 
Q 93.359375 -3.90625 91.59375 -5.859375 
Q 89.84375 -7.8125 85.15625 -7.8125 
L 72.65625 -7.8125 
Q 63.671875 -7.8125 63.671875 -1.171875 
L 63.671875 16.40625 
L 45.3125 16.40625 
Q 45.3125 4.6875 41.203125 -0.578125 
Q 37.109375 -5.859375 26.171875 -10.546875 
Q 25 -6.640625 21.484375 -3.515625 
Q 35.9375 0.78125 37.109375 7.421875 
Q 38.28125 14.0625 37.890625 22.265625 
L 71.09375 22.265625 
z
" id="SimHei-864e"/>
    </defs>
    <g style="fill:#800080;" transform="translate(49.092792 257.912399)rotate(-333.778649)scale(0.12 -0.12)">
     <use xlink:href="#SimHei-63"/>
     <use x="50" xlink:href="#SimHei-6f"/>
     <use x="100" xlink:href="#SimHei-69"/>
     <use x="150" xlink:href="#SimHei-6e"/>
     <use x="200" xlink:href="#SimHei-73"/>
     <use x="250" xlink:href="#SimHei-20"/>
     <use x="300" xlink:href="#SimHei-6f"/>
     <use x="350" xlink:href="#SimHei-66"/>
     <use x="400" xlink:href="#SimHei-20"/>
     <use x="450" xlink:href="#SimHei-80d6"/>
     <use x="550" xlink:href="#SimHei-864e"/>
    </g>
   </g>
   <g id="Line3DCollection_2">
    <path d="M 227.548604 43.791556 
L 226.494241 188.318329 
L 65.235235 220.98614 
" style="fill:none;stroke:#b0b0b0;stroke-width:0.8;"/>
    <path d="M 241.688876 48.257402 
L 240.154088 193.993191 
L 78.043534 227.294534 
" style="fill:none;stroke:#b0b0b0;stroke-width:0.8;"/>
    <path d="M 256.106644 52.810887 
L 254.072998 199.775679 
L 91.108144 233.729167 
" style="fill:none;stroke:#b0b0b0;stroke-width:0.8;"/>
    <path d="M 270.810156 57.454617 
L 268.25841 205.668883 
L 104.436836 240.293868 
" style="fill:none;stroke:#b0b0b0;stroke-width:0.8;"/>
    <path d="M 285.807992 62.191302 
L 282.718053 211.676014 
L 118.0377 246.992619 
" style="fill:none;stroke:#b0b0b0;stroke-width:0.8;"/>
    <path d="M 301.10908 67.023762 
L 297.459956 217.800407 
L 131.919157 253.829569 
" style="fill:none;stroke:#b0b0b0;stroke-width:0.8;"/>
    <path d="M 316.722709 71.95493 
L 312.492466 224.045531 
L 146.089982 260.80904 
" style="fill:none;stroke:#b0b0b0;stroke-width:0.8;"/>
    <path d="M 332.658556 76.987861 
L 327.824262 230.41499 
L 160.559317 267.935534 
" style="fill:none;stroke:#b0b0b0;stroke-width:0.8;"/>
   </g>
   <g id="xtick_9">
    <g id="line2d_11">
     <path d="M 66.594479 220.710784 
L 62.513215 221.537566 
" style="fill:none;stroke:#000000;stroke-linecap:square;stroke-width:0.8;"/>
    </g>
    <g id="text_11">
     <!-- 0 -->
     <g transform="translate(50.195232 243.623733)scale(0.15 -0.15)">
      <use xlink:href="#SimHei-30"/>
     </g>
    </g>
   </g>
   <g id="xtick_10">
    <g id="line2d_12">
     <path d="M 79.410645 227.013697 
L 75.305726 227.856945 
" style="fill:none;stroke:#000000;stroke-linecap:square;stroke-width:0.8;"/>
    </g>
    <g id="text_12">
     <!-- 2 -->
     <g transform="translate(62.908596 250.062791)scale(0.15 -0.15)">
      <use xlink:href="#SimHei-32"/>
     </g>
    </g>
   </g>
   <g id="xtick_11">
    <g id="line2d_13">
     <path d="M 92.483165 233.442684 
L 88.354458 234.302894 
" style="fill:none;stroke:#000000;stroke-linecap:square;stroke-width:0.8;"/>
    </g>
    <g id="text_13">
     <!-- 4 -->
     <g transform="translate(75.876714 256.630876)scale(0.15 -0.15)">
      <use xlink:href="#SimHei-34"/>
     </g>
    </g>
   </g>
   <g id="xtick_12">
    <g id="line2d_14">
     <path d="M 105.81981 240.001565 
L 101.667187 240.879255 
" style="fill:none;stroke:#000000;stroke-linecap:square;stroke-width:0.8;"/>
    </g>
    <g id="text_14">
     <!-- 6 -->
     <g transform="translate(89.10732 263.331906)scale(0.15 -0.15)">
      <use xlink:href="#SimHei-36"/>
     </g>
    </g>
   </g>
   <g id="xtick_13">
    <g id="line2d_15">
     <path d="M 119.428666 246.694319 
L 115.252006 247.590026 
" style="fill:none;stroke:#000000;stroke-linecap:square;stroke-width:0.8;"/>
    </g>
    <g id="text_15">
     <!-- 8 -->
     <g transform="translate(102.608465 270.169958)scale(0.15 -0.15)">
      <use xlink:href="#SimHei-38"/>
     </g>
    </g>
   </g>
   <g id="xtick_14">
    <g id="line2d_16">
     <path d="M 133.318153 253.525084 
L 129.117343 254.439371 
" style="fill:none;stroke:#000000;stroke-linecap:square;stroke-width:0.8;"/>
    </g>
    <g id="text_16">
     <!-- 10 -->
     <g transform="translate(112.638533 277.14928)scale(0.15 -0.15)">
      <use xlink:href="#SimHei-31"/>
      <use x="50" xlink:href="#SimHei-30"/>
     </g>
    </g>
   </g>
   <g id="xtick_15">
    <g id="line2d_17">
     <path d="M 147.497042 260.498176 
L 143.271977 261.431625 
" style="fill:none;stroke:#000000;stroke-linecap:square;stroke-width:0.8;"/>
    </g>
    <g id="text_17">
     <!-- 12 -->
     <g transform="translate(126.706257 284.274293)scale(0.15 -0.15)">
      <use xlink:href="#SimHei-31"/>
      <use x="50" xlink:href="#SimHei-32"/>
     </g>
    </g>
   </g>
   <g id="xtick_16">
    <g id="line2d_18">
     <path d="M 161.974472 267.618089 
L 157.725058 268.57131 
" style="fill:none;stroke:#000000;stroke-linecap:square;stroke-width:0.8;"/>
    </g>
    <g id="text_18">
     <!-- 14 -->
     <g transform="translate(141.07074 291.549608)scale(0.15 -0.15)">
      <use xlink:href="#SimHei-31"/>
      <use x="50" xlink:href="#SimHei-34"/>
     </g>
    </g>
   </g>
  </g>
  <g id="axis3d_3">
   <g id="line2d_19">
    <path d="M 58.794045 217.8137 
L 53.895826 67.034254 
" style="fill:none;stroke:#000000;stroke-linecap:square;stroke-width:0.8;"/>
   </g>
   <g id="text_19">
    <!-- coins of 静香 -->
    <defs>
     <path d="M 67.578125 78.90625 
Q 65.625 76.5625 64.640625 74.40625 
Q 63.671875 72.265625 62.890625 70.3125 
L 84.375 70.3125 
Q 82.03125 66.796875 80.078125 62.296875 
Q 78.125 57.8125 75.78125 52.734375 
L 90.234375 52.734375 
Q 89.84375 47.265625 89.84375 41.015625 
L 89.84375 36.71875 
Q 93.359375 36.71875 96.875 37.109375 
L 96.875 30.46875 
Q 94.140625 30.859375 89.84375 30.859375 
L 89.84375 25.390625 
Q 89.84375 17.578125 90.234375 10.546875 
L 83.203125 10.546875 
L 83.203125 14.84375 
L 72.265625 14.84375 
L 72.265625 0.390625 
Q 71.875 -4.6875 68.9375 -6.640625 
Q 66.015625 -8.59375 56.25 -9.375 
Q 56.25 -5.46875 53.90625 -1.171875 
Q 58.984375 -1.5625 62.296875 -1.171875 
Q 65.625 -0.78125 65.625 2.734375 
L 65.625 14.84375 
L 60.15625 14.84375 
Q 55.46875 14.84375 50.390625 14.453125 
L 50.390625 20.703125 
Q 55.078125 20.3125 60.15625 20.3125 
L 65.625 20.3125 
L 65.625 30.859375 
L 59.765625 30.859375 
Q 54.6875 30.859375 48.046875 30.46875 
L 48.046875 36.71875 
Q 53.515625 36.328125 60.15625 36.328125 
L 65.625 36.328125 
L 65.625 47.265625 
L 60.15625 47.265625 
Q 57.8125 47.265625 51.953125 46.875 
L 51.953125 51.953125 
Q 50.78125 50.78125 48.828125 48.4375 
Q 46.875 51.5625 44.140625 53.90625 
Q 50.390625 60.15625 53.703125 68.15625 
Q 57.03125 76.171875 58.984375 82.03125 
Q 62.890625 80.078125 67.578125 78.90625 
z
M 42.96875 36.328125 
Q 42.578125 30.859375 42.578125 25 
L 42.578125 1.171875 
Q 42.578125 -4.6875 39.453125 -6.25 
Q 36.328125 -7.8125 30.078125 -8.984375 
Q 29.6875 -5.46875 27.34375 -1.5625 
Q 36.328125 -1.5625 35.546875 1.953125 
L 35.546875 6.640625 
L 15.234375 6.640625 
L 15.234375 -8.203125 
L 8.203125 -8.203125 
Q 8.59375 -3.90625 8.59375 1.953125 
L 8.59375 25 
Q 8.59375 30.859375 8.203125 36.328125 
L 42.96875 36.328125 
z
M 21.875 71.09375 
Q 21.875 74.609375 21.484375 80.46875 
L 29.296875 80.46875 
Q 28.90625 74.609375 28.90625 71.09375 
L 33.984375 71.09375 
Q 39.453125 71.09375 46.875 71.484375 
L 46.875 65.234375 
Q 39.453125 65.625 33.984375 65.625 
L 28.90625 65.625 
L 28.90625 59.375 
L 33.984375 59.375 
Q 36.328125 59.375 42.578125 59.765625 
L 42.578125 53.515625 
Q 35.9375 53.90625 33.59375 53.90625 
L 28.90625 53.90625 
L 28.90625 47.65625 
L 35.15625 47.65625 
Q 40.625 47.65625 46.484375 48.046875 
L 46.484375 41.796875 
Q 40.234375 42.1875 35.15625 42.1875 
L 15.625 42.1875 
Q 9.375 42.1875 3.90625 41.796875 
L 3.90625 48.046875 
Q 9.375 47.65625 15.625 47.65625 
L 21.875 47.65625 
L 21.875 53.90625 
L 15.234375 53.90625 
Q 12.890625 53.90625 8.59375 53.515625 
L 8.59375 59.765625 
Q 12.890625 59.375 15.234375 59.375 
L 21.875 59.375 
L 21.875 65.625 
L 15.234375 65.625 
Q 10.15625 65.625 4.6875 65.234375 
L 4.6875 71.484375 
Q 10.15625 71.09375 15.234375 71.09375 
z
M 52.734375 53.515625 
Q 57.421875 53.125 64.453125 53.125 
L 68.359375 53.125 
Q 72.265625 61.328125 73.4375 64.84375 
L 60.15625 64.84375 
Q 55.078125 56.640625 52.734375 53.515625 
z
M 35.546875 12.109375 
L 35.546875 19.140625 
L 15.234375 19.140625 
L 15.234375 12.109375 
z
M 35.546875 24.609375 
L 35.546875 30.859375 
L 15.234375 30.859375 
L 15.234375 24.609375 
z
M 83.203125 36.328125 
L 83.203125 47.265625 
L 72.265625 47.265625 
L 72.265625 36.328125 
z
M 83.203125 20.3125 
L 83.203125 30.859375 
L 72.265625 30.859375 
L 72.265625 20.3125 
z
" id="SimHei-9759"/>
     <path d="M 45.703125 33.59375 
L 45.703125 53.90625 
Q 36.71875 44.140625 26.359375 38.28125 
Q 16.015625 32.421875 10.546875 30.078125 
Q 10.546875 33.203125 5.46875 36.71875 
Q 16.015625 39.453125 24.21875 44.53125 
Q 32.421875 49.609375 37.109375 54.296875 
L 21.484375 54.296875 
Q 14.84375 54.296875 7.8125 53.90625 
L 7.8125 60.15625 
Q 14.84375 59.765625 21.484375 59.765625 
L 45.703125 59.765625 
L 45.703125 69.921875 
Q 38.28125 69.140625 17.96875 67.578125 
Q 16.796875 71.09375 14.453125 74.609375 
Q 32.8125 74.609375 50.390625 76.953125 
Q 67.96875 79.296875 74.609375 82.03125 
Q 76.953125 78.125 81.25 73.828125 
Q 74.609375 73.4375 67.96875 72.65625 
Q 61.328125 71.875 52.34375 70.703125 
L 52.34375 59.765625 
L 78.125 59.765625 
Q 83.984375 59.765625 91.40625 60.15625 
L 91.40625 53.90625 
Q 84.375 54.296875 78.125 54.296875 
L 61.71875 54.296875 
Q 66.40625 48.4375 74.21875 43.15625 
Q 82.03125 37.890625 94.140625 34.765625 
Q 89.84375 31.640625 88.28125 26.953125 
Q 82.421875 29.296875 77.34375 32.03125 
Q 76.5625 25 76.5625 12.5 
Q 76.5625 -0.78125 76.953125 -8.984375 
L 69.53125 -8.984375 
L 69.53125 -3.125 
L 28.515625 -3.125 
L 28.515625 -9.375 
L 21.875 -9.375 
L 21.875 11.71875 
Q 21.875 25 21.484375 33.59375 
z
M 69.53125 17.96875 
L 69.53125 27.734375 
L 28.515625 27.734375 
L 28.515625 17.96875 
z
M 69.53125 2.734375 
L 69.53125 12.5 
L 28.515625 12.5 
L 28.515625 2.734375 
z
M 71.484375 35.9375 
Q 62.109375 42.578125 52.734375 54.296875 
L 52.34375 54.296875 
L 52.34375 33.59375 
L 75 33.59375 
z
" id="SimHei-9999"/>
    </defs>
    <g style="fill:#800080;" transform="translate(10.565293 102.842551)rotate(-271.860655)scale(0.12 -0.12)">
     <use xlink:href="#SimHei-63"/>
     <use x="50" xlink:href="#SimHei-6f"/>
     <use x="100" xlink:href="#SimHei-69"/>
     <use x="150" xlink:href="#SimHei-6e"/>
     <use x="200" xlink:href="#SimHei-73"/>
     <use x="250" xlink:href="#SimHei-20"/>
     <use x="300" xlink:href="#SimHei-6f"/>
     <use x="350" xlink:href="#SimHei-66"/>
     <use x="400" xlink:href="#SimHei-20"/>
     <use x="450" xlink:href="#SimHei-9759"/>
     <use x="550" xlink:href="#SimHei-9999"/>
    </g>
   </g>
   <g id="Line3DCollection_3">
    <path d="M 58.492454 208.529967 
L 219.669895 176.585888 
L 336.085066 224.233899 
" style="fill:none;stroke:#b0b0b0;stroke-width:0.8;"/>
    <path d="M 57.897709 190.222231 
L 219.769111 159.08724 
L 336.710174 205.533478 
" style="fill:none;stroke:#b0b0b0;stroke-width:0.8;"/>
    <path d="M 57.297781 171.754931 
L 219.869148 141.443949 
L 337.340869 186.665935 
" style="fill:none;stroke:#b0b0b0;stroke-width:0.8;"/>
    <path d="M 56.692601 153.125973 
L 219.970014 123.654212 
L 337.977226 167.629019 
" style="fill:none;stroke:#b0b0b0;stroke-width:0.8;"/>
    <path d="M 56.0821 134.333224 
L 220.071722 105.716199 
L 338.619321 148.42044 
" style="fill:none;stroke:#b0b0b0;stroke-width:0.8;"/>
    <path d="M 55.466207 115.374514 
L 220.17428 87.628049 
L 339.267233 129.037865 
" style="fill:none;stroke:#b0b0b0;stroke-width:0.8;"/>
    <path d="M 54.844852 96.247636 
L 220.277701 69.387869 
L 339.92104 109.478918 
" style="fill:none;stroke:#b0b0b0;stroke-width:0.8;"/>
    <path d="M 54.21796 76.950341 
L 220.381995 50.993734 
L 340.580823 89.741182 
" style="fill:none;stroke:#b0b0b0;stroke-width:0.8;"/>
   </g>
   <g id="xtick_17">
    <g id="line2d_20">
     <path d="M 59.850818 208.26075 
L 55.772207 209.069099 
" style="fill:none;stroke:#000000;stroke-linecap:square;stroke-width:0.8;"/>
    </g>
    <g id="text_20">
     <!-- 0 -->
     <g transform="translate(36.319991 217.800274)scale(0.15 -0.15)">
      <use xlink:href="#SimHei-30"/>
     </g>
    </g>
   </g>
   <g id="xtick_18">
    <g id="line2d_21">
     <path d="M 59.262222 189.959775 
L 55.165133 190.747826 
" style="fill:none;stroke:#000000;stroke-linecap:square;stroke-width:0.8;"/>
    </g>
    <g id="text_21">
     <!-- 2 -->
     <g transform="translate(35.646444 199.518717)scale(0.15 -0.15)">
      <use xlink:href="#SimHei-32"/>
     </g>
    </g>
   </g>
   <g id="xtick_19">
    <g id="line2d_22">
     <path d="M 58.668498 171.499365 
L 54.552763 172.266732 
" style="fill:none;stroke:#000000;stroke-linecap:square;stroke-width:0.8;"/>
    </g>
    <g id="text_22">
     <!-- 4 -->
     <g transform="translate(34.967036 181.078092)scale(0.15 -0.15)">
      <use xlink:href="#SimHei-34"/>
     </g>
    </g>
   </g>
   <g id="xtick_20">
    <g id="line2d_23">
     <path d="M 58.069579 152.877427 
L 53.935029 153.623718 
" style="fill:none;stroke:#000000;stroke-linecap:square;stroke-width:0.8;"/>
    </g>
    <g id="text_23">
     <!-- 6 -->
     <g transform="translate(34.281691 162.476316)scale(0.15 -0.15)">
      <use xlink:href="#SimHei-36"/>
     </g>
    </g>
   </g>
   <g id="xtick_21">
    <g id="line2d_24">
     <path d="M 57.465397 134.091831 
L 53.311858 134.816645 
" style="fill:none;stroke:#000000;stroke-linecap:square;stroke-width:0.8;"/>
    </g>
    <g id="text_24">
     <!-- 8 -->
     <g transform="translate(33.590331 143.711265)scale(0.15 -0.15)">
      <use xlink:href="#SimHei-38"/>
     </g>
    </g>
   </g>
   <g id="xtick_22">
    <g id="line2d_25">
     <path d="M 56.855881 115.140412 
L 52.683179 115.843338 
" style="fill:none;stroke:#000000;stroke-linecap:square;stroke-width:0.8;"/>
    </g>
    <g id="text_25">
     <!-- 10 -->
     <g transform="translate(29.142875 124.780781)scale(0.15 -0.15)">
      <use xlink:href="#SimHei-31"/>
      <use x="50" xlink:href="#SimHei-30"/>
     </g>
    </g>
   </g>
   <g id="xtick_23">
    <g id="line2d_26">
     <path d="M 56.240962 96.020962 
L 52.048919 96.701585 
" style="fill:none;stroke:#000000;stroke-linecap:square;stroke-width:0.8;"/>
    </g>
    <g id="text_26">
     <!-- 12 -->
     <g transform="translate(28.439244 105.682667)scale(0.15 -0.15)">
      <use xlink:href="#SimHei-31"/>
      <use x="50" xlink:href="#SimHei-32"/>
     </g>
    </g>
   </g>
   <g id="xtick_24">
    <g id="line2d_27">
     <path d="M 55.620566 76.731239 
L 51.409002 77.389131 
" style="fill:none;stroke:#000000;stroke-linecap:square;stroke-width:0.8;"/>
    </g>
    <g id="text_27">
     <!-- 14 -->
     <g transform="translate(27.729354 86.414686)scale(0.15 -0.15)">
      <use xlink:href="#SimHei-31"/>
      <use x="50" xlink:href="#SimHei-34"/>
     </g>
    </g>
   </g>
  </g>
  <g id="axes_1">
   <g id="Path3DCollection_1">
    <defs>
     <path d="M 0 5 
C 1.326016 5 2.597899 4.473168 3.535534 3.535534 
C 4.473168 2.597899 5 1.326016 5 0 
C 5 -1.326016 4.473168 -2.597899 3.535534 -3.535534 
C 2.597899 -4.473168 1.326016 -5 0 -5 
C -1.326016 -5 -2.597899 -4.473168 -3.535534 -3.535534 
C -4.473168 -2.597899 -5 -1.326016 -5 0 
C -5 1.326016 -4.473168 2.597899 -3.535534 3.535534 
C -2.597899 4.473168 -1.326016 5 0 5 
z
" id="m92879346f5" style="stroke:#008000;"/>
    </defs>
    <g clip-path="url(#p47dbc5dd9a)">
     <use style="fill:#008000;stroke:#008000;" x="285.817437" xlink:href="#m92879346f5" y="188.097919"/>
    </g>
   </g>
   <g id="Path3DCollection_2">
    <path clip-path="url(#p47dbc5dd9a)" d="M 224.398551 57.145583 
C 224.398551 57.145583 224.398551 57.145583 224.398551 57.145583 
C 224.398551 57.145583 224.398551 57.145583 224.398551 57.145583 
C 224.398551 57.145583 224.398551 57.145583 224.398551 57.145583 
C 224.398551 57.145583 224.398551 57.145583 224.398551 57.145583 
C 224.398551 57.145583 224.398551 57.145583 224.398551 57.145583 
C 224.398551 57.145583 224.398551 57.145583 224.398551 57.145583 
C 224.398551 57.145583 224.398551 57.145583 224.398551 57.145583 
C 224.398551 57.145583 224.398551 57.145583 224.398551 57.145583 
z
" style="fill:#ff0000;stroke:#ff0000;"/>
    <path clip-path="url(#p47dbc5dd9a)" d="M 231.385035 69.164582 
C 231.478798 69.164582 231.568734 69.12733 231.635035 69.061029 
C 231.701336 68.994728 231.738588 68.904792 231.738588 68.811029 
C 231.738588 68.717266 231.701336 68.62733 231.635035 68.561029 
C 231.568734 68.494728 231.478798 68.457476 231.385035 68.457476 
C 231.291271 68.457476 231.201336 68.494728 231.135035 68.561029 
C 231.068734 68.62733 231.031481 68.717266 231.031481 68.811029 
C 231.031481 68.904792 231.068734 68.994728 231.135035 69.061029 
C 231.201336 69.12733 231.291271 69.164582 231.385035 69.164582 
z
" style="fill:#ff0000;stroke:#ff0000;"/>
    <path clip-path="url(#p47dbc5dd9a)" d="M 238.409492 81.152251 
C 238.571895 81.152251 238.727668 81.087728 238.842504 80.972892 
C 238.957341 80.858055 239.021864 80.702282 239.021864 80.539879 
C 239.021864 80.377476 238.957341 80.221702 238.842504 80.106866 
C 238.727668 79.99203 238.571895 79.927506 238.409492 79.927506 
C 238.247088 79.927506 238.091315 79.99203 237.976479 80.106866 
C 237.861643 80.221702 237.797119 80.377476 237.797119 80.539879 
C 237.797119 80.702282 237.861643 80.858055 237.976479 80.972892 
C 238.091315 81.087728 238.247088 81.152251 238.409492 81.152251 
z
" style="fill:#ff0000;stroke:#ff0000;"/>
    <path clip-path="url(#p47dbc5dd9a)" d="M 245.472232 92.945023 
C 245.634635 92.945023 245.790408 92.8805 245.905244 92.765664 
C 246.020081 92.650827 246.084604 92.495054 246.084604 92.332651 
C 246.084604 92.170248 246.020081 92.014475 245.905244 91.899638 
C 245.790408 91.784802 245.634635 91.720278 245.472232 91.720278 
C 245.309829 91.720278 245.154055 91.784802 245.039219 91.899638 
C 244.924383 92.014475 244.859859 92.170248 244.859859 92.332651 
C 244.859859 92.495054 244.924383 92.650827 245.039219 92.765664 
C 245.154055 92.8805 245.309829 92.945023 245.472232 92.945023 
z
" style="fill:#ff0000;stroke:#ff0000;"/>
    <path clip-path="url(#p47dbc5dd9a)" d="M 252.573569 105.055894 
C 252.803241 105.055894 253.023538 104.964645 253.185941 104.802242 
C 253.348344 104.639838 253.439594 104.419542 253.439594 104.189869 
C 253.439594 103.960196 253.348344 103.7399 253.185941 103.577497 
C 253.023538 103.415094 252.803241 103.323844 252.573569 103.323844 
C 252.343896 103.323844 252.123599 103.415094 251.961196 103.577497 
C 251.798793 103.7399 251.707543 103.960196 251.707543 104.189869 
C 251.707543 104.419542 251.798793 104.639838 251.961196 104.802242 
C 252.123599 104.964645 252.343896 105.055894 252.573569 105.055894 
z
" style="fill:#ff0000;stroke:#ff0000;"/>
    <path clip-path="url(#p47dbc5dd9a)" d="M 259.71382 117.732248 
C 260.143498 117.732248 260.555636 117.561535 260.859464 117.257707 
C 261.163292 116.953879 261.334005 116.541741 261.334005 116.112063 
C 261.334005 115.682385 261.163292 115.270248 260.859464 114.966419 
C 260.555636 114.662591 260.143498 114.491878 259.71382 114.491878 
C 259.284142 114.491878 258.872005 114.662591 258.568176 114.966419 
C 258.264348 115.270248 258.093635 115.682385 258.093635 116.112063 
C 258.093635 116.541741 258.264348 116.953879 258.568176 117.257707 
C 258.872005 117.561535 259.284142 117.732248 259.71382 117.732248 
z
" style="fill:#ff0000;stroke:#ff0000;"/>
    <path clip-path="url(#p47dbc5dd9a)" d="M 266.893307 129.795351 
C 267.34298 129.795351 267.774297 129.616694 268.092265 129.298727 
C 268.410232 128.980759 268.588889 128.549442 268.588889 128.099769 
C 268.588889 127.650095 268.410232 127.218778 268.092265 126.900811 
C 267.774297 126.582844 267.34298 126.404186 266.893307 126.404186 
C 266.443633 126.404186 266.012316 126.582844 265.694349 126.900811 
C 265.376382 127.218778 265.197724 127.650095 265.197724 128.099769 
C 265.197724 128.549442 265.376382 128.980759 265.694349 129.298727 
C 266.012316 129.616694 266.443633 129.795351 266.893307 129.795351 
z
" style="fill:#ff0000;stroke:#ff0000;"/>
    <path clip-path="url(#p47dbc5dd9a)" d="M 274.112353 142.444815 
C 274.720009 142.444815 275.30286 142.20339 275.732538 141.773712 
C 276.162216 141.344034 276.403641 140.761184 276.403641 140.153527 
C 276.403641 139.545871 276.162216 138.96302 275.732538 138.533342 
C 275.30286 138.103664 274.720009 137.862239 274.112353 137.862239 
C 273.504696 137.862239 272.921846 138.103664 272.492167 138.533342 
C 272.062489 138.96302 271.821065 139.545871 271.821065 140.153527 
C 271.821065 140.761184 272.062489 141.344034 272.492167 141.773712 
C 272.921846 142.20339 273.504696 142.444815 274.112353 142.444815 
z
" style="fill:#ff0000;stroke:#ff0000;"/>
    <path clip-path="url(#p47dbc5dd9a)" d="M 281.371286 156.098151 
C 282.385493 156.098151 283.358297 155.695202 284.075449 154.978049 
C 284.792602 154.260897 285.19555 153.288093 285.19555 152.273886 
C 285.19555 151.259679 284.792602 150.286875 284.075449 149.569723 
C 283.358297 148.85257 282.385493 148.449621 281.371286 148.449621 
C 280.357079 148.449621 279.384275 148.85257 278.667122 149.569723 
C 277.94997 150.286875 277.547021 151.259679 277.547021 152.273886 
C 277.547021 153.288093 277.94997 154.260897 278.667122 154.978049 
C 279.384275 155.695202 280.357079 156.098151 281.371286 156.098151 
z
" style="fill:#ff0000;stroke:#ff0000;"/>
    <path clip-path="url(#p47dbc5dd9a)" d="M 288.670438 169.858157 
C 290.101675 169.858157 291.474485 169.28952 292.486522 168.277483 
C 293.498559 167.265446 294.067196 165.892636 294.067196 164.461399 
C 294.067196 163.030162 293.498559 161.657352 292.486522 160.645314 
C 291.474485 159.633277 290.101675 159.06464 288.670438 159.06464 
C 287.239201 159.06464 285.866391 159.633277 284.854353 160.645314 
C 283.842316 161.657352 283.273679 163.030162 283.273679 164.461399 
C 283.273679 165.892636 283.842316 167.265446 284.854353 168.277483 
C 285.866391 169.28952 287.239201 169.858157 288.670438 169.858157 
z
" style="fill:#ff0000;stroke:#ff0000;"/>
    <path clip-path="url(#p47dbc5dd9a)" d="M 296.010143 186.797547 
C 298.683635 186.797547 301.247988 185.735358 303.138432 183.844914 
C 305.028876 181.954469 306.091066 179.390117 306.091066 176.716625 
C 306.091066 174.043133 305.028876 171.47878 303.138432 169.588336 
C 301.247988 167.697892 298.683635 166.635702 296.010143 166.635702 
C 293.336652 166.635702 290.772299 167.697892 288.881855 169.588336 
C 286.99141 171.47878 285.929221 174.043133 285.929221 176.716625 
C 285.929221 179.390117 286.99141 181.954469 288.881855 183.844914 
C 290.772299 185.735358 293.336652 186.797547 296.010143 186.797547 
z
" style="fill:#ff0000;stroke:#ff0000;"/>
    <path clip-path="url(#p47dbc5dd9a)" d="M 303.390742 199.052623 
C 306.046086 199.052623 308.593031 197.997643 310.470643 196.120032 
C 312.348255 194.24242 313.403234 191.695474 313.403234 189.04013 
C 313.403234 186.384787 312.348255 183.837841 310.470643 181.960229 
C 308.593031 180.082618 306.046086 179.027638 303.390742 179.027638 
C 300.735398 179.027638 298.188453 180.082618 296.310841 181.960229 
C 294.433229 183.837841 293.37825 186.384787 293.37825 189.04013 
C 293.37825 191.695474 294.433229 194.24242 296.310841 196.120032 
C 298.188453 197.997643 300.735398 199.052623 303.390742 199.052623 
z
" style="fill:#ff0000;stroke:#ff0000;"/>
    <path clip-path="url(#p47dbc5dd9a)" d="M 310.812576 206.432488 
C 312.138592 206.432488 313.410476 205.905656 314.34811 204.968022 
C 315.285745 204.030387 315.812576 202.758503 315.812576 201.432488 
C 315.812576 200.106472 315.285745 198.834588 314.34811 197.896954 
C 313.410476 196.959319 312.138592 196.432488 310.812576 196.432488 
C 309.486561 196.432488 308.214677 196.959319 307.277042 197.896954 
C 306.339408 198.834588 305.812576 200.106472 305.812576 201.432488 
C 305.812576 202.758503 306.339408 204.030387 307.277042 204.968022 
C 308.214677 205.905656 309.486561 206.432488 310.812576 206.432488 
z
" style="fill:#ff0000;stroke:#ff0000;"/>
    <path clip-path="url(#p47dbc5dd9a)" d="M 318.275992 216.318115 
C 318.918802 216.318115 319.535371 216.062724 319.989906 215.608189 
C 320.444441 215.153654 320.699832 214.537085 320.699832 213.894275 
C 320.699832 213.251465 320.444441 212.634897 319.989906 212.180362 
C 319.535371 211.725826 318.918802 211.470435 318.275992 211.470435 
C 317.633183 211.470435 317.016614 211.725826 316.562079 212.180362 
C 316.107544 212.634897 315.852152 213.251465 315.852152 213.894275 
C 315.852152 214.537085 316.107544 215.153654 316.562079 215.608189 
C 317.016614 216.062724 317.633183 216.318115 318.275992 216.318115 
z
" style="fill:#ff0000;stroke:#ff0000;"/>
    <path clip-path="url(#p47dbc5dd9a)" d="M 207.466343 56.430705 
C 207.466343 56.430705 207.466343 56.430705 207.466343 56.430705 
C 207.466343 56.430705 207.466343 56.430705 207.466343 56.430705 
C 207.466343 56.430705 207.466343 56.430705 207.466343 56.430705 
C 207.466343 56.430705 207.466343 56.430705 207.466343 56.430705 
C 207.466343 56.430705 207.466343 56.430705 207.466343 56.430705 
C 207.466343 56.430705 207.466343 56.430705 207.466343 56.430705 
C 207.466343 56.430705 207.466343 56.430705 207.466343 56.430705 
C 207.466343 56.430705 207.466343 56.430705 207.466343 56.430705 
z
" style="fill:#ff0000;stroke:#ff0000;"/>
    <path clip-path="url(#p47dbc5dd9a)" d="M 197.459219 67.697819 
C 197.552982 67.697819 197.642918 67.660567 197.709219 67.594266 
C 197.77552 67.527965 197.812772 67.438029 197.812772 67.344266 
C 197.812772 67.250502 197.77552 67.160567 197.709219 67.094266 
C 197.642918 67.027965 197.552982 66.990713 197.459219 66.990713 
C 197.365455 66.990713 197.27552 67.027965 197.209219 67.094266 
C 197.142918 67.160567 197.105665 67.250502 197.105665 67.344266 
C 197.105665 67.438029 197.142918 67.527965 197.209219 67.594266 
C 197.27552 67.660567 197.365455 67.697819 197.459219 67.697819 
z
" style="fill:#ff0000;stroke:#ff0000;"/>
    <path clip-path="url(#p47dbc5dd9a)" d="M 187.428275 78.896176 
C 187.590678 78.896176 187.746452 78.831653 187.861288 78.716816 
C 187.976124 78.60198 188.040648 78.446207 188.040648 78.283804 
C 188.040648 78.121401 187.976124 77.965627 187.861288 77.850791 
C 187.746452 77.735955 187.590678 77.671431 187.428275 77.671431 
C 187.265872 77.671431 187.110099 77.735955 186.995263 77.850791 
C 186.880426 77.965627 186.815903 78.121401 186.815903 78.283804 
C 186.815903 78.446207 186.880426 78.60198 186.995263 78.716816 
C 187.110099 78.831653 187.265872 78.896176 187.428275 78.896176 
z
" style="fill:#ff0000;stroke:#ff0000;"/>
    <path clip-path="url(#p47dbc5dd9a)" d="M 177.373428 89.249411 
C 177.373428 89.249411 177.373428 89.249411 177.373428 89.249411 
C 177.373428 89.249411 177.373428 89.249411 177.373428 89.249411 
C 177.373428 89.249411 177.373428 89.249411 177.373428 89.249411 
C 177.373428 89.249411 177.373428 89.249411 177.373428 89.249411 
C 177.373428 89.249411 177.373428 89.249411 177.373428 89.249411 
C 177.373428 89.249411 177.373428 89.249411 177.373428 89.249411 
C 177.373428 89.249411 177.373428 89.249411 177.373428 89.249411 
C 177.373428 89.249411 177.373428 89.249411 177.373428 89.249411 
z
" style="fill:#ff0000;stroke:#ff0000;"/>
    <path clip-path="url(#p47dbc5dd9a)" d="M 167.29459 100.741182 
C 167.427192 100.741182 167.55438 100.688498 167.648143 100.594735 
C 167.741907 100.500971 167.79459 100.373783 167.79459 100.241182 
C 167.79459 100.10858 167.741907 99.981392 167.648143 99.887628 
C 167.55438 99.793865 167.427192 99.741182 167.29459 99.741182 
C 167.161988 99.741182 167.0348 99.793865 166.941037 99.887628 
C 166.847273 99.981392 166.79459 100.10858 166.79459 100.241182 
C 166.79459 100.373783 166.847273 100.500971 166.941037 100.594735 
C 167.0348 100.688498 167.161988 100.741182 167.29459 100.741182 
z
" style="fill:#ff0000;stroke:#ff0000;"/>
    <path clip-path="url(#p47dbc5dd9a)" d="M 157.191676 112.125234 
C 157.421349 112.125234 157.641646 112.033984 157.804049 111.871581 
C 157.966452 111.709178 158.057702 111.488881 158.057702 111.259209 
C 158.057702 111.029536 157.966452 110.809239 157.804049 110.646836 
C 157.641646 110.484433 157.421349 110.393183 157.191676 110.393183 
C 156.962004 110.393183 156.741707 110.484433 156.579304 110.646836 
C 156.416901 110.809239 156.325651 111.029536 156.325651 111.259209 
C 156.325651 111.488881 156.416901 111.709178 156.579304 111.871581 
C 156.741707 112.033984 156.962004 112.125234 157.191676 112.125234 
z
" style="fill:#ff0000;stroke:#ff0000;"/>
    <path clip-path="url(#p47dbc5dd9a)" d="M 147.064601 123.42162 
C 147.361107 123.42162 147.645509 123.303817 147.85517 123.094156 
C 148.064832 122.884494 148.182635 122.600092 148.182635 122.303586 
C 148.182635 122.00708 148.064832 121.722678 147.85517 121.513017 
C 147.645509 121.303356 147.361107 121.185552 147.064601 121.185552 
C 146.768095 121.185552 146.483693 121.303356 146.274031 121.513017 
C 146.06437 121.722678 145.946567 122.00708 145.946567 122.303586 
C 145.946567 122.600092 146.06437 122.884494 146.274031 123.094156 
C 146.483693 123.303817 146.768095 123.42162 147.064601 123.42162 
z
" style="fill:#ff0000;stroke:#ff0000;"/>
    <path clip-path="url(#p47dbc5dd9a)" d="M 136.913276 134.309824 
C 137.161351 134.309824 137.399298 134.211263 137.574714 134.035848 
C 137.750129 133.860432 137.84869 133.622485 137.84869 133.37441 
C 137.84869 133.126335 137.750129 132.888387 137.574714 132.712972 
C 137.399298 132.537557 137.161351 132.438995 136.913276 132.438995 
C 136.665201 132.438995 136.427253 132.537557 136.251838 132.712972 
C 136.076423 132.888387 135.977861 133.126335 135.977861 133.37441 
C 135.977861 133.622485 136.076423 133.860432 136.251838 134.035848 
C 136.427253 134.211263 136.665201 134.309824 136.913276 134.309824 
z
" style="fill:#ff0000;stroke:#ff0000;"/>
    <path clip-path="url(#p47dbc5dd9a)" d="M 126.737615 145.471774 
C 127.002818 145.471774 127.257195 145.366407 127.444721 145.17888 
C 127.632248 144.991354 127.737615 144.736977 127.737615 144.471774 
C 127.737615 144.206571 127.632248 143.952194 127.444721 143.764667 
C 127.257195 143.57714 127.002818 143.471774 126.737615 143.471774 
C 126.472412 143.471774 126.218035 143.57714 126.030508 143.764667 
C 125.842981 143.952194 125.737615 144.206571 125.737615 144.471774 
C 125.737615 144.736977 125.842981 144.991354 126.030508 145.17888 
C 126.218035 145.366407 126.472412 145.471774 126.737615 145.471774 
z
" style="fill:#ff0000;stroke:#ff0000;"/>
    <path clip-path="url(#p47dbc5dd9a)" d="M 116.53753 156.208146 
C 116.699933 156.208146 116.855706 156.143623 116.970542 156.028786 
C 117.085379 155.91395 117.149902 155.758177 117.149902 155.595774 
C 117.149902 155.433371 117.085379 155.277597 116.970542 155.162761 
C 116.855706 155.047925 116.699933 154.983401 116.53753 154.983401 
C 116.375127 154.983401 116.219353 155.047925 116.104517 155.162761 
C 115.989681 155.277597 115.925157 155.433371 115.925157 155.595774 
C 115.925157 155.758177 115.989681 155.91395 116.104517 156.028786 
C 116.219353 156.143623 116.375127 156.208146 116.53753 156.208146 
z
" style="fill:#ff0000;stroke:#ff0000;"/>
    <path clip-path="url(#p47dbc5dd9a)" d="M 106.312933 167.100059 
C 106.406696 167.100059 106.496632 167.062807 106.562933 166.996506 
C 106.629234 166.930205 106.666486 166.840269 106.666486 166.746506 
C 106.666486 166.652743 106.629234 166.562807 106.562933 166.496506 
C 106.496632 166.430205 106.406696 166.392953 106.312933 166.392953 
C 106.219169 166.392953 106.129234 166.430205 106.062933 166.496506 
C 105.996632 166.562807 105.95938 166.652743 105.95938 166.746506 
C 105.95938 166.840269 105.996632 166.930205 106.062933 166.996506 
C 106.129234 167.062807 106.219169 167.100059 106.312933 167.100059 
z
" style="fill:#ff0000;stroke:#ff0000;"/>
    <path clip-path="url(#p47dbc5dd9a)" d="M 96.063736 178.27762 
C 96.157499 178.27762 96.247435 178.240368 96.313736 178.174067 
C 96.380037 178.107766 96.417289 178.01783 96.417289 177.924067 
C 96.417289 177.830303 96.380037 177.740368 96.313736 177.674067 
C 96.247435 177.607766 96.157499 177.570514 96.063736 177.570514 
C 95.969972 177.570514 95.880037 177.607766 95.813736 177.674067 
C 95.747435 177.740368 95.710182 177.830303 95.710182 177.924067 
C 95.710182 178.01783 95.747435 178.107766 95.813736 178.174067 
C 95.880037 178.240368 95.969972 178.27762 96.063736 178.27762 
z
" style="fill:#ff0000;stroke:#ff0000;"/>
    <path clip-path="url(#p47dbc5dd9a)" d="M 85.789849 189.482107 
C 85.883613 189.482107 85.973549 189.444854 86.039849 189.378553 
C 86.10615 189.312253 86.143403 189.222317 86.143403 189.128553 
C 86.143403 189.03479 86.10615 188.944854 86.039849 188.878553 
C 85.973549 188.812253 85.883613 188.775 85.789849 188.775 
C 85.696086 188.775 85.60615 188.812253 85.539849 188.878553 
C 85.473549 188.944854 85.436296 189.03479 85.436296 189.128553 
C 85.436296 189.222317 85.473549 189.312253 85.539849 189.378553 
C 85.60615 189.444854 85.696086 189.482107 85.789849 189.482107 
z
" style="fill:#ff0000;stroke:#ff0000;"/>
    <path clip-path="url(#p47dbc5dd9a)" d="M 75.491184 200.360063 
C 75.491184 200.360063 75.491184 200.360063 75.491184 200.360063 
C 75.491184 200.360063 75.491184 200.360063 75.491184 200.360063 
C 75.491184 200.360063 75.491184 200.360063 75.491184 200.360063 
C 75.491184 200.360063 75.491184 200.360063 75.491184 200.360063 
C 75.491184 200.360063 75.491184 200.360063 75.491184 200.360063 
C 75.491184 200.360063 75.491184 200.360063 75.491184 200.360063 
C 75.491184 200.360063 75.491184 200.360063 75.491184 200.360063 
C 75.491184 200.360063 75.491184 200.360063 75.491184 200.360063 
z
" style="fill:#ff0000;stroke:#ff0000;"/>
    <path clip-path="url(#p47dbc5dd9a)" d="M 308.024995 227.788917 
C 308.653979 227.788917 309.257287 227.539019 309.702046 227.09426 
C 310.146805 226.649501 310.396703 226.046194 310.396703 225.417209 
C 310.396703 224.788225 310.146805 224.184917 309.702046 223.740158 
C 309.257287 223.295399 308.653979 223.045501 308.024995 223.045501 
C 307.39601 223.045501 306.792703 223.295399 306.347944 223.740158 
C 305.903185 224.184917 305.653287 224.788225 305.653287 225.417209 
C 305.653287 226.046194 305.903185 226.649501 306.347944 227.09426 
C 306.792703 227.539019 307.39601 227.788917 308.024995 227.788917 
z
" style="fill:#ff0000;stroke:#ff0000;"/>
    <path clip-path="url(#p47dbc5dd9a)" d="M 290.324347 228.4271 
C 291.389295 228.4271 292.410769 228.003991 293.163801 227.250959 
C 293.916833 226.497927 294.339942 225.476453 294.339942 224.411505 
C 294.339942 223.346557 293.916833 222.325083 293.163801 221.572051 
C 292.410769 220.819019 291.389295 220.39591 290.324347 220.39591 
C 289.259399 220.39591 288.237925 220.819019 287.484893 221.572051 
C 286.731861 222.325083 286.308753 223.346557 286.308753 224.411505 
C 286.308753 225.476453 286.731861 226.497927 287.484893 227.250959 
C 288.237925 228.003991 289.259399 228.4271 290.324347 228.4271 
z
" style="fill:#ff0000;stroke:#ff0000;"/>
    <path clip-path="url(#p47dbc5dd9a)" d="M 272.679137 227.636834 
C 273.800384 227.636834 274.87586 227.191358 275.668702 226.398516 
C 276.461544 225.605674 276.90702 224.530198 276.90702 223.40895 
C 276.90702 222.287703 276.461544 221.212227 275.668702 220.419385 
C 274.87586 219.626543 273.800384 219.181067 272.679137 219.181067 
C 271.557889 219.181067 270.482413 219.626543 269.689571 220.419385 
C 268.896729 221.212227 268.451253 222.287703 268.451253 223.40895 
C 268.451253 224.530198 268.896729 225.605674 269.689571 226.398516 
C 270.482413 227.191358 271.557889 227.636834 272.679137 227.636834 
z
" style="fill:#ff0000;stroke:#ff0000;"/>
    <path clip-path="url(#p47dbc5dd9a)" d="M 255.089103 226.456134 
C 256.162275 226.456134 257.191637 226.029759 257.950484 225.270912 
C 258.709331 224.512065 259.135707 223.482703 259.135707 222.409531 
C 259.135707 221.336359 258.709331 220.306997 257.950484 219.54815 
C 257.191637 218.789303 256.162275 218.362927 255.089103 218.362927 
C 254.015931 218.362927 252.986569 218.789303 252.227722 219.54815 
C 251.468875 220.306997 251.0425 221.336359 251.0425 222.409531 
C 251.0425 223.482703 251.468875 224.512065 252.227722 225.270912 
C 252.986569 226.029759 254.015931 226.456134 255.089103 226.456134 
z
" style="fill:#ff0000;stroke:#ff0000;"/>
    <path clip-path="url(#p47dbc5dd9a)" d="M 237.553988 224.535731 
C 238.382085 224.535731 239.176376 224.206725 239.761928 223.621172 
C 240.347481 223.035619 240.676487 222.241328 240.676487 221.413232 
C 240.676487 220.585135 240.347481 219.790844 239.761928 219.205292 
C 239.176376 218.619739 238.382085 218.290733 237.553988 218.290733 
C 236.725892 218.290733 235.931601 218.619739 235.346048 219.205292 
C 234.760495 219.790844 234.431489 220.585135 234.431489 221.413232 
C 234.431489 222.241328 234.760495 223.035619 235.346048 223.621172 
C 235.931601 224.206725 236.725892 224.535731 237.553988 224.535731 
z
" style="fill:#ff0000;stroke:#ff0000;"/>
    <path clip-path="url(#p47dbc5dd9a)" d="M 220.073535 222.817954 
C 220.70947 222.817954 221.319444 222.565295 221.769118 222.115621 
C 222.218791 221.665947 222.471451 221.055973 222.471451 220.420038 
C 222.471451 219.784104 222.218791 219.17413 221.769118 218.724456 
C 221.319444 218.274782 220.70947 218.022123 220.073535 218.022123 
C 219.4376 218.022123 218.827626 218.274782 218.377953 218.724456 
C 217.928279 219.17413 217.675619 219.784104 217.675619 220.420038 
C 217.675619 221.055973 217.928279 221.665947 218.377953 222.115621 
C 218.827626 222.565295 219.4376 222.817954 220.073535 222.817954 
z
" style="fill:#ff0000;stroke:#ff0000;"/>
    <path clip-path="url(#p47dbc5dd9a)" d="M 202.647489 221.398438 
C 203.169542 221.398438 203.670283 221.191024 204.03943 220.821877 
C 204.408577 220.45273 204.615991 219.951989 204.615991 219.429936 
C 204.615991 218.907883 204.408577 218.407142 204.03943 218.037995 
C 203.670283 217.668848 203.169542 217.461434 202.647489 217.461434 
C 202.125436 217.461434 201.624695 217.668848 201.255548 218.037995 
C 200.886401 218.407142 200.678987 218.907883 200.678987 219.429936 
C 200.678987 219.951989 200.886401 220.45273 201.255548 220.821877 
C 201.624695 221.191024 202.125436 221.398438 202.647489 221.398438 
z
" style="fill:#ff0000;stroke:#ff0000;"/>
    <path clip-path="url(#p47dbc5dd9a)" d="M 185.275595 220.063096 
C 185.705274 220.063096 186.117411 219.892383 186.421239 219.588555 
C 186.725068 219.284727 186.895781 218.872589 186.895781 218.442911 
C 186.895781 218.013233 186.725068 217.601095 186.421239 217.297267 
C 186.117411 216.993439 185.705274 216.822726 185.275595 216.822726 
C 184.845917 216.822726 184.43378 216.993439 184.129951 217.297267 
C 183.826123 217.601095 183.65541 218.013233 183.65541 218.442911 
C 183.65541 218.872589 183.826123 219.284727 184.129951 219.588555 
C 184.43378 219.892383 184.845917 220.063096 185.275595 220.063096 
z
" style="fill:#ff0000;stroke:#ff0000;"/>
    <path clip-path="url(#p47dbc5dd9a)" d="M 167.957603 218.458948 
C 168.222806 218.458948 168.477183 218.353582 168.66471 218.166055 
C 168.852237 217.978528 168.957603 217.724151 168.957603 217.458948 
C 168.957603 217.193745 168.852237 216.939368 168.66471 216.751841 
C 168.477183 216.564314 168.222806 216.458948 167.957603 216.458948 
C 167.6924 216.458948 167.438023 216.564314 167.250496 216.751841 
C 167.062969 216.939368 166.957603 217.193745 166.957603 217.458948 
C 166.957603 217.724151 167.062969 217.978528 167.250496 218.166055 
C 167.438023 218.353582 167.6924 218.458948 167.957603 218.458948 
z
" style="fill:#ff0000;stroke:#ff0000;"/>
    <path clip-path="url(#p47dbc5dd9a)" d="M 150.693261 217.413448 
C 150.941336 217.413448 151.179284 217.314887 151.354699 217.139471 
C 151.530114 216.964056 151.628676 216.726108 151.628676 216.478034 
C 151.628676 216.229959 151.530114 215.992011 151.354699 215.816596 
C 151.179284 215.64118 150.941336 215.542619 150.693261 215.542619 
C 150.445186 215.542619 150.207239 215.64118 150.031823 215.816596 
C 149.856408 215.992011 149.757847 216.229959 149.757847 216.478034 
C 149.757847 216.726108 149.856408 216.964056 150.031823 217.139471 
C 150.207239 217.314887 150.445186 217.413448 150.693261 217.413448 
z
" style="fill:#ff0000;stroke:#ff0000;"/>
    <path clip-path="url(#p47dbc5dd9a)" d="M 133.482321 216.290723 
C 133.691982 216.290723 133.893085 216.207423 134.041338 216.05917 
C 134.189591 215.910917 134.27289 215.709815 134.27289 215.500153 
C 134.27289 215.290492 134.189591 215.089389 134.041338 214.941136 
C 133.893085 214.792883 133.691982 214.709584 133.482321 214.709584 
C 133.272659 214.709584 133.071557 214.792883 132.923304 214.941136 
C 132.775051 215.089389 132.691752 215.290492 132.691752 215.500153 
C 132.691752 215.709815 132.775051 215.910917 132.923304 216.05917 
C 133.071557 216.207423 133.272659 216.290723 133.482321 216.290723 
z
" style="fill:#ff0000;stroke:#ff0000;"/>
    <path clip-path="url(#p47dbc5dd9a)" d="M 116.324535 215.025293 
C 116.457136 215.025293 116.584325 214.97261 116.678088 214.878846 
C 116.771852 214.785083 116.824535 214.657894 116.824535 214.525293 
C 116.824535 214.392691 116.771852 214.265503 116.678088 214.17174 
C 116.584325 214.077976 116.457136 214.025293 116.324535 214.025293 
C 116.191933 214.025293 116.064745 214.077976 115.970982 214.17174 
C 115.877218 214.265503 115.824535 214.392691 115.824535 214.525293 
C 115.824535 214.657894 115.877218 214.785083 115.970982 214.878846 
C 116.064745 214.97261 116.191933 215.025293 116.324535 215.025293 
z
" style="fill:#ff0000;stroke:#ff0000;"/>
    <path clip-path="url(#p47dbc5dd9a)" d="M 99.219657 213.553439 
C 99.219657 213.553439 99.219657 213.553439 99.219657 213.553439 
C 99.219657 213.553439 99.219657 213.553439 99.219657 213.553439 
C 99.219657 213.553439 99.219657 213.553439 99.219657 213.553439 
C 99.219657 213.553439 99.219657 213.553439 99.219657 213.553439 
C 99.219657 213.553439 99.219657 213.553439 99.219657 213.553439 
C 99.219657 213.553439 99.219657 213.553439 99.219657 213.553439 
C 99.219657 213.553439 99.219657 213.553439 99.219657 213.553439 
C 99.219657 213.553439 99.219657 213.553439 99.219657 213.553439 
z
" style="fill:#ff0000;stroke:#ff0000;"/>
    <path clip-path="url(#p47dbc5dd9a)" d="M 82.167443 212.584577 
C 82.167443 212.584577 82.167443 212.584577 82.167443 212.584577 
C 82.167443 212.584577 82.167443 212.584577 82.167443 212.584577 
C 82.167443 212.584577 82.167443 212.584577 82.167443 212.584577 
C 82.167443 212.584577 82.167443 212.584577 82.167443 212.584577 
C 82.167443 212.584577 82.167443 212.584577 82.167443 212.584577 
C 82.167443 212.584577 82.167443 212.584577 82.167443 212.584577 
C 82.167443 212.584577 82.167443 212.584577 82.167443 212.584577 
C 82.167443 212.584577 82.167443 212.584577 82.167443 212.584577 
z
" style="fill:#ff0000;stroke:#ff0000;"/>
   </g>
   <g id="legend_1">
    <g id="patch_6">
     <path d="M 21.2 291.2 
L 294.2 291.2 
Q 297.2 291.2 297.2 288.2 
L 297.2 249.95 
Q 297.2 246.95 294.2 246.95 
L 21.2 246.95 
Q 18.2 246.95 18.2 249.95 
L 18.2 288.2 
Q 18.2 291.2 21.2 291.2 
z
" style="fill:#ffffff;opacity:0.8;stroke:#cccccc;stroke-linejoin:miter;"/>
    </g>
    <g id="Path3DCollection_3">
     <defs>
      <path d="M 0 7.128289 
C 1.890444 7.128289 3.703715 6.377207 5.040461 5.040461 
C 6.377207 3.703715 7.128289 1.890444 7.128289 0 
C 7.128289 -1.890444 6.377207 -3.703715 5.040461 -5.040461 
C 3.703715 -6.377207 1.890444 -7.128289 0 -7.128289 
C -1.890444 -7.128289 -3.703715 -6.377207 -5.040461 -5.040461 
C -6.377207 -3.703715 -7.128289 -1.890444 -7.128289 0 
C -7.128289 1.890444 -6.377207 3.703715 -5.040461 5.040461 
C -3.703715 6.377207 -1.890444 7.128289 0 7.128289 
z
" id="m695bce0f0b" style="stroke:#ff0000;"/>
     </defs>
     <g>
      <use style="fill:#ff0000;stroke:#ff0000;" x="39.2" xlink:href="#m695bce0f0b" y="259.5125"/>
     </g>
    </g>
    <g id="text_28">
     <!-- probability of absorbing state -->
     <defs>
      <path d="M 44.140625 23.828125 
Q 44.140625 12.5 38.671875 6.640625 
Q 33.203125 0.78125 25.390625 0.78125 
Q 21.09375 0.78125 17.96875 2.53125 
Q 14.84375 4.296875 12.5 7.8125 
L 12.5 -12.5 
L 4.6875 -12.5 
L 4.6875 45.703125 
L 12.5 45.703125 
L 12.5 39.84375 
Q 14.84375 43.359375 17.96875 44.921875 
Q 21.09375 46.484375 25.390625 46.484375 
Q 33.203125 46.484375 38.671875 40.8125 
Q 44.140625 35.15625 44.140625 23.828125 
z
M 35.546875 23.828125 
Q 35.546875 31.25 32.609375 35.34375 
Q 29.6875 39.453125 23.828125 39.453125 
Q 19.140625 39.453125 15.8125 35.34375 
Q 12.5 31.25 12.5 23.828125 
Q 12.5 16.40625 15.8125 12.109375 
Q 19.140625 7.8125 23.828125 7.8125 
Q 29.6875 7.8125 32.609375 12.109375 
Q 35.546875 16.40625 35.546875 23.828125 
z
" id="SimHei-70"/>
      <path d="M 39.0625 37.890625 
Q 31.640625 39.0625 26.5625 35.734375 
Q 21.484375 32.421875 17.96875 24.21875 
L 17.96875 1.953125 
L 10.15625 1.953125 
L 10.15625 45.703125 
L 17.96875 45.703125 
L 17.96875 34.375 
Q 21.484375 40.625 26.75 43.546875 
Q 32.03125 46.484375 39.0625 46.484375 
z
" id="SimHei-72"/>
      <path d="M 44.140625 23.828125 
Q 44.140625 12.5 38.671875 6.828125 
Q 33.203125 1.171875 25.390625 1.171875 
Q 21.09375 1.171875 17.96875 2.734375 
Q 14.84375 4.296875 12.5 7.8125 
L 12.5 1.953125 
L 4.6875 1.953125 
L 4.6875 68.75 
L 12.5 68.75 
L 12.5 39.84375 
Q 14.84375 43.359375 17.96875 45.109375 
Q 21.09375 46.875 25.390625 46.875 
Q 33.203125 46.875 38.671875 41.015625 
Q 44.140625 35.15625 44.140625 23.828125 
z
M 35.546875 23.828125 
Q 35.546875 31.25 32.609375 35.546875 
Q 29.6875 39.84375 23.828125 39.84375 
Q 19.140625 39.84375 15.8125 35.546875 
Q 12.5 31.25 12.5 23.828125 
Q 12.5 16.40625 15.8125 12.296875 
Q 19.140625 8.203125 23.828125 8.203125 
Q 29.6875 8.203125 32.609375 12.296875 
Q 35.546875 16.40625 35.546875 23.828125 
z
" id="SimHei-62"/>
      <path d="M 44.921875 1.953125 
L 35.546875 1.953125 
Q 34.765625 2.734375 34.375 4.09375 
Q 33.984375 5.46875 33.984375 7.421875 
Q 31.25 4.296875 27.34375 2.734375 
Q 23.4375 1.171875 19.140625 1.171875 
Q 12.890625 1.171875 8.59375 4.296875 
Q 4.296875 7.421875 4.296875 13.28125 
Q 4.296875 19.140625 8.203125 22.65625 
Q 12.109375 26.171875 20.3125 27.34375 
Q 25.78125 28.125 29.875 29.296875 
Q 33.984375 30.46875 33.984375 32.421875 
Q 33.984375 34.765625 32.21875 37.109375 
Q 30.46875 39.453125 24.609375 39.453125 
Q 19.921875 39.453125 17.765625 37.6875 
Q 15.625 35.9375 14.84375 32.8125 
L 6.25 32.8125 
Q 7.03125 39.0625 11.90625 42.765625 
Q 16.796875 46.484375 24.609375 46.484375 
Q 33.203125 46.484375 37.5 42.578125 
Q 41.796875 38.671875 41.796875 31.640625 
L 41.796875 10.15625 
Q 41.796875 7.8125 42.578125 5.859375 
Q 43.359375 3.90625 44.921875 1.953125 
z
M 33.984375 16.40625 
L 33.984375 24.21875 
Q 31.640625 23.4375 29.484375 22.84375 
Q 27.34375 22.265625 22.265625 21.484375 
Q 16.40625 20.703125 14.640625 18.75 
Q 12.890625 16.796875 12.890625 14.0625 
Q 12.890625 11.71875 14.640625 9.953125 
Q 16.40625 8.203125 19.921875 8.203125 
Q 23.4375 8.203125 27.53125 10.15625 
Q 31.640625 12.109375 33.984375 16.40625 
z
" id="SimHei-61"/>
      <path d="M 28.515625 1.953125 
L 20.703125 1.953125 
L 20.703125 68.75 
L 28.515625 68.75 
z
" id="SimHei-6c"/>
      <path d="M 42.96875 3.125 
Q 41.015625 2.34375 38.46875 1.75 
Q 35.9375 1.171875 31.640625 1.171875 
Q 24.609375 1.171875 20.3125 5.078125 
Q 16.015625 8.984375 16.015625 16.015625 
L 16.015625 39.453125 
L 2.734375 39.453125 
L 2.734375 45.703125 
L 16.015625 45.703125 
L 16.015625 60.9375 
L 23.828125 60.9375 
L 23.828125 45.703125 
L 39.84375 45.703125 
L 39.84375 39.453125 
L 23.828125 39.453125 
L 23.828125 15.625 
Q 23.828125 12.5 25.390625 10.34375 
Q 26.953125 8.203125 31.25 8.203125 
Q 35.546875 8.203125 38.28125 8.984375 
Q 41.015625 9.765625 42.96875 10.9375 
z
" id="SimHei-74"/>
      <path d="M 45.3125 45.703125 
L 27.34375 -1.5625 
Q 25.78125 -7.03125 22.65625 -9.765625 
Q 19.53125 -12.5 14.84375 -12.5 
Q 12.890625 -12.5 11.125 -12.296875 
Q 9.375 -12.109375 7.8125 -11.328125 
L 7.8125 -3.515625 
Q 9.375 -4.296875 10.9375 -4.6875 
Q 12.5 -5.078125 13.671875 -5.078125 
Q 16.796875 -5.078125 17.96875 -4.09375 
Q 19.140625 -3.125 20.3125 0.390625 
L 3.125 45.703125 
L 11.71875 45.703125 
L 24.21875 11.328125 
L 24.609375 11.328125 
L 36.71875 45.703125 
z
" id="SimHei-79"/>
      <path d="M 46.484375 39.0625 
Q 43.75 39.84375 41.203125 40.03125 
Q 38.671875 40.234375 35.9375 39.453125 
Q 37.109375 38.28125 37.890625 36.515625 
Q 38.671875 34.765625 38.671875 31.25 
Q 38.671875 24.609375 34.171875 20.3125 
Q 29.6875 16.015625 23.046875 16.015625 
Q 21.484375 16.015625 18.9375 16.59375 
Q 16.40625 17.1875 14.84375 17.96875 
Q 13.671875 17.1875 13.28125 16.40625 
Q 12.890625 15.625 12.890625 14.453125 
Q 12.890625 12.5 15.625 11.515625 
Q 18.359375 10.546875 25.390625 10.546875 
Q 36.71875 10.546875 40.8125 7.421875 
Q 44.921875 4.296875 44.921875 -0.390625 
Q 44.921875 -6.640625 38.859375 -9.5625 
Q 32.8125 -12.5 24.609375 -12.5 
Q 14.0625 -12.5 8.984375 -9.765625 
Q 3.90625 -7.03125 3.90625 -2.34375 
Q 3.90625 0 5.859375 2.34375 
Q 7.8125 4.6875 10.9375 6.25 
Q 8.59375 7.421875 7.21875 9.171875 
Q 5.859375 10.9375 5.859375 13.671875 
Q 5.859375 16.015625 7.609375 17.765625 
Q 9.375 19.53125 11.71875 20.703125 
Q 9.765625 22.65625 8.59375 25.390625 
Q 7.421875 28.125 7.421875 31.25 
Q 7.421875 37.890625 11.90625 42.1875 
Q 16.40625 46.484375 23.046875 46.484375 
Q 26.5625 46.484375 29.09375 45.5 
Q 31.640625 44.53125 33.59375 42.578125 
Q 36.71875 44.921875 39.84375 45.890625 
Q 42.96875 46.875 46.484375 46.484375 
z
M 30.859375 31.25 
Q 30.859375 35.15625 28.90625 37.5 
Q 26.953125 39.84375 23.046875 39.84375 
Q 19.140625 39.84375 17.1875 37.5 
Q 15.234375 35.15625 15.234375 31.25 
Q 15.234375 27.34375 17.1875 25 
Q 19.140625 22.65625 23.046875 22.65625 
Q 26.953125 22.65625 28.90625 25 
Q 30.859375 27.34375 30.859375 31.25 
z
M 37.5 -1.171875 
Q 37.5 0.390625 35.734375 1.953125 
Q 33.984375 3.515625 26.953125 3.515625 
Q 25.390625 3.515625 22.65625 3.703125 
Q 19.921875 3.90625 16.40625 4.296875 
Q 13.28125 3.125 12.109375 1.5625 
Q 10.9375 0 10.9375 -1.5625 
Q 10.9375 -3.90625 14.0625 -5.46875 
Q 17.1875 -7.03125 25 -7.03125 
Q 31.640625 -7.03125 34.5625 -5.265625 
Q 37.5 -3.515625 37.5 -1.171875 
z
" id="SimHei-67"/>
      <path d="M 44.53125 16.796875 
Q 43.75 9.765625 38.28125 5.46875 
Q 32.8125 1.171875 25.390625 1.171875 
Q 16.015625 1.171875 9.953125 7.21875 
Q 3.90625 13.28125 3.90625 23.828125 
Q 3.90625 34.375 9.953125 40.421875 
Q 16.015625 46.484375 25.390625 46.484375 
Q 33.59375 46.484375 38.859375 41.203125 
Q 44.140625 35.9375 44.140625 23.828125 
L 12.5 23.828125 
Q 12.5 15.234375 16.203125 11.71875 
Q 19.921875 8.203125 25.390625 8.203125 
Q 29.6875 8.203125 32.421875 10.34375 
Q 35.15625 12.5 35.9375 16.796875 
z
M 35.15625 30.078125 
Q 34.375 35.546875 31.640625 37.6875 
Q 28.90625 39.84375 24.609375 39.84375 
Q 20.703125 39.84375 17.578125 37.6875 
Q 14.453125 35.546875 12.890625 30.078125 
z
" id="SimHei-65"/>
     </defs>
     <g transform="translate(66.2 263.45)scale(0.15 -0.15)">
      <use xlink:href="#SimHei-70"/>
      <use x="50" xlink:href="#SimHei-72"/>
      <use x="100" xlink:href="#SimHei-6f"/>
      <use x="150" xlink:href="#SimHei-62"/>
      <use x="200" xlink:href="#SimHei-61"/>
      <use x="250" xlink:href="#SimHei-62"/>
      <use x="300" xlink:href="#SimHei-69"/>
      <use x="350" xlink:href="#SimHei-6c"/>
      <use x="400" xlink:href="#SimHei-69"/>
      <use x="450" xlink:href="#SimHei-74"/>
      <use x="500" xlink:href="#SimHei-79"/>
      <use x="550" xlink:href="#SimHei-20"/>
      <use x="600" xlink:href="#SimHei-6f"/>
      <use x="650" xlink:href="#SimHei-66"/>
      <use x="700" xlink:href="#SimHei-20"/>
      <use x="750" xlink:href="#SimHei-61"/>
      <use x="800" xlink:href="#SimHei-62"/>
      <use x="850" xlink:href="#SimHei-73"/>
      <use x="900" xlink:href="#SimHei-6f"/>
      <use x="950" xlink:href="#SimHei-72"/>
      <use x="1000" xlink:href="#SimHei-62"/>
      <use x="1050" xlink:href="#SimHei-69"/>
      <use x="1100" xlink:href="#SimHei-6e"/>
      <use x="1150" xlink:href="#SimHei-67"/>
      <use x="1200" xlink:href="#SimHei-20"/>
      <use x="1250" xlink:href="#SimHei-73"/>
      <use x="1300" xlink:href="#SimHei-74"/>
      <use x="1350" xlink:href="#SimHei-61"/>
      <use x="1400" xlink:href="#SimHei-74"/>
      <use x="1450" xlink:href="#SimHei-65"/>
     </g>
    </g>
    <g id="Path3DCollection_4">
     <g>
      <use style="fill:#008000;stroke:#008000;" x="39.2" xlink:href="#m92879346f5" y="279.3875"/>
     </g>
    </g>
    <g id="text_29">
     <!-- start state -->
     <g transform="translate(66.2 283.325)scale(0.15 -0.15)">
      <use xlink:href="#SimHei-73"/>
      <use x="50" xlink:href="#SimHei-74"/>
      <use x="100" xlink:href="#SimHei-61"/>
      <use x="150" xlink:href="#SimHei-72"/>
      <use x="200" xlink:href="#SimHei-74"/>
      <use x="250" xlink:href="#SimHei-20"/>
      <use x="300" xlink:href="#SimHei-73"/>
      <use x="350" xlink:href="#SimHei-74"/>
      <use x="400" xlink:href="#SimHei-61"/>
      <use x="450" xlink:href="#SimHei-74"/>
      <use x="500" xlink:href="#SimHei-65"/>
     </g>
    </g>
   </g>
  </g>
 </g>
 <defs>
  <clipPath id="p47dbc5dd9a">
   <rect height="288" width="360" x="10.7" y="10.7"/>
  </clipPath>
 </defs>
</svg>
