<?xml version="1.0" encoding="utf-8" standalone="no"?>
<!DOCTYPE svg PUBLIC "-//W3C//DTD SVG 1.1//EN"
  "http://www.w3.org/Graphics/SVG/1.1/DTD/svg11.dtd">
<!-- Created with matplotlib (http://matplotlib.org/) -->
<svg height="340.090625pt" version="1.1" viewBox="0 0 893.204687 340.090625" width="893.204687pt" xmlns="http://www.w3.org/2000/svg" xmlns:xlink="http://www.w3.org/1999/xlink">
 <defs>
  <style type="text/css">
*{stroke-linecap:butt;stroke-linejoin:round;}
  </style>
 </defs>
 <g id="figure_1">
  <g id="patch_1">
   <path d="M 0 340.090625 
L 893.204687 340.090625 
L 893.204687 0 
L 0 0 
z
" style="fill:none;"/>
  </g>
  <g id="axes_1">
   <g id="patch_2">
    <path d="M 45.504688 297.515625 
L 882.504688 297.515625 
L 882.504688 25.715625 
L 45.504688 25.715625 
z
" style="fill:#ffffff;"/>
   </g>
   <g id="matplotlib.axis_1">
    <g id="xtick_1">
     <g id="line2d_1">
      <defs>
       <path d="M 0 0 
L 0 3.5 
" id="mcf557b4766" style="stroke:#000000;stroke-width:0.8;"/>
      </defs>
      <g>
       <use style="stroke:#000000;stroke-width:0.8;" x="83.550142" xlink:href="#mcf557b4766" y="297.515625"/>
      </g>
     </g>
     <g id="text_1">
      <!-- 0 -->
      <defs>
       <path d="M 3.125 29.296875 
Q 3.90625 50 6.4375 56.046875 
Q 8.984375 62.109375 13.671875 66.015625 
Q 18.359375 69.921875 25.1875 69.921875 
Q 32.03125 69.921875 37.109375 64.25 
Q 42.1875 58.59375 43.75 50 
Q 45.3125 41.40625 44.71875 30.265625 
Q 44.140625 19.140625 40.8125 12.109375 
Q 37.5 5.078125 30.859375 2.34375 
Q 24.21875 -0.390625 17.578125 2.921875 
Q 10.9375 6.25 8.203125 11.71875 
Q 5.46875 17.1875 4.296875 23.234375 
Q 3.125 29.296875 3.90625 50 
z
M 12.890625 52.734375 
Q 10.546875 31.25 12.5 22.84375 
Q 14.453125 14.453125 18.9375 10.9375 
Q 23.4375 7.421875 28.125 9.5625 
Q 32.8125 11.71875 34.953125 18.15625 
Q 37.109375 24.609375 37.109375 32.21875 
Q 37.109375 39.84375 36.515625 46.09375 
Q 35.9375 52.34375 33 57.421875 
Q 30.078125 62.5 25.1875 62.6875 
Q 20.3125 62.890625 16.59375 57.8125 
Q 12.890625 52.734375 10.546875 31.25 
z
" id="SimHei-30"/>
      </defs>
      <g transform="translate(79.800142 314.828125)scale(0.15 -0.15)">
       <use xlink:href="#SimHei-30"/>
      </g>
     </g>
    </g>
    <g id="xtick_2">
     <g id="line2d_2">
      <g>
       <use style="stroke:#000000;stroke-width:0.8;" x="252.641051" xlink:href="#mcf557b4766" y="297.515625"/>
      </g>
     </g>
     <g id="text_2">
      <!-- 20 -->
      <defs>
       <path d="M 4.6875 3.90625 
Q 5.078125 9.765625 10.15625 14.453125 
Q 15.234375 19.140625 23.046875 29.09375 
Q 30.859375 39.0625 33.203125 44.53125 
Q 35.546875 50 34.953125 53.90625 
Q 34.375 57.8125 31.25 60.34375 
Q 28.125 62.890625 24.015625 62.5 
Q 19.921875 62.109375 16.203125 59.375 
Q 12.5 56.640625 10.546875 51.171875 
L 3.125 52.34375 
Q 6.25 61.328125 11.125 65.421875 
Q 16.015625 69.53125 22.65625 69.921875 
Q 26.5625 70.3125 29.6875 69.71875 
Q 32.8125 69.140625 36.125 66.984375 
Q 39.453125 64.84375 41.59375 60.546875 
Q 43.75 56.25 43.15625 50.1875 
Q 42.578125 44.140625 37.109375 35.734375 
Q 31.640625 27.34375 16.015625 9.375 
L 44.140625 9.375 
L 44.140625 2.34375 
L 4.6875 2.34375 
z
" id="SimHei-32"/>
      </defs>
      <g transform="translate(245.141051 314.828125)scale(0.15 -0.15)">
       <use xlink:href="#SimHei-32"/>
       <use x="50" xlink:href="#SimHei-30"/>
      </g>
     </g>
    </g>
    <g id="xtick_3">
     <g id="line2d_3">
      <g>
       <use style="stroke:#000000;stroke-width:0.8;" x="421.73196" xlink:href="#mcf557b4766" y="297.515625"/>
      </g>
     </g>
     <g id="text_3">
      <!-- 40 -->
      <defs>
       <path d="M 31.25 17.1875 
L 1.171875 17.1875 
L 1.171875 23.828125 
L 32.8125 69.53125 
L 38.671875 69.53125 
L 38.671875 23.828125 
L 48.046875 23.828125 
L 48.046875 17.1875 
L 38.671875 17.1875 
L 38.671875 2.34375 
L 31.25 2.34375 
z
M 31.25 23.828125 
L 31.25 54.6875 
L 9.375 23.828125 
z
" id="SimHei-34"/>
      </defs>
      <g transform="translate(414.23196 314.828125)scale(0.15 -0.15)">
       <use xlink:href="#SimHei-34"/>
       <use x="50" xlink:href="#SimHei-30"/>
      </g>
     </g>
    </g>
    <g id="xtick_4">
     <g id="line2d_4">
      <g>
       <use style="stroke:#000000;stroke-width:0.8;" x="590.822869" xlink:href="#mcf557b4766" y="297.515625"/>
      </g>
     </g>
     <g id="text_4">
      <!-- 60 -->
      <defs>
       <path d="M 3.515625 19.53125 
Q 4.296875 30.859375 6.046875 34.765625 
Q 7.8125 38.671875 11.328125 44.53125 
L 27.34375 69.53125 
L 36.328125 69.53125 
L 19.921875 43.75 
Q 30.46875 46.484375 36.71875 42.96875 
Q 42.96875 39.453125 45.109375 34.953125 
Q 47.265625 30.46875 47.453125 25.1875 
Q 47.65625 19.921875 45.890625 14.84375 
Q 44.140625 9.765625 39.640625 5.65625 
Q 35.15625 1.5625 27.140625 1.171875 
Q 19.140625 0.78125 13.46875 4.09375 
Q 7.8125 7.421875 5.65625 13.46875 
Q 3.515625 19.53125 4.296875 30.859375 
z
M 12.5 16.015625 
Q 19.53125 8.59375 25.390625 8.203125 
Q 31.25 7.8125 35.15625 12.109375 
Q 39.0625 16.40625 39.0625 24.609375 
Q 39.0625 32.8125 34.171875 35.9375 
Q 29.296875 39.0625 23.234375 38.28125 
Q 17.1875 37.5 14.453125 32.421875 
Q 11.71875 27.34375 12.109375 21.671875 
Q 12.5 16.015625 19.53125 8.59375 
z
" id="SimHei-36"/>
      </defs>
      <g transform="translate(583.322869 314.828125)scale(0.15 -0.15)">
       <use xlink:href="#SimHei-36"/>
       <use x="50" xlink:href="#SimHei-30"/>
      </g>
     </g>
    </g>
    <g id="xtick_5">
     <g id="line2d_5">
      <g>
       <use style="stroke:#000000;stroke-width:0.8;" x="759.913778" xlink:href="#mcf557b4766" y="297.515625"/>
      </g>
     </g>
     <g id="text_5">
      <!-- 80 -->
      <defs>
       <path d="M 2.734375 16.796875 
Q 2.734375 26.171875 5.078125 30.65625 
Q 7.421875 35.15625 12.890625 37.890625 
Q 8.203125 40.625 6.640625 43.9375 
Q 5.078125 47.265625 4.875 51.5625 
Q 4.6875 55.859375 6.046875 58.984375 
Q 7.421875 62.109375 10.15625 64.84375 
Q 12.890625 67.578125 16.203125 68.546875 
Q 19.53125 69.53125 23.4375 69.53125 
Q 27.34375 69.53125 30.46875 68.75 
Q 33.59375 67.96875 37.109375 65.421875 
Q 40.625 62.890625 42.1875 58.203125 
Q 43.75 53.515625 41.984375 47.265625 
Q 40.234375 41.015625 32.8125 37.5 
Q 39.453125 35.546875 42.1875 31.4375 
Q 44.921875 27.34375 44.921875 21.484375 
Q 44.921875 15.625 43.15625 12.109375 
Q 41.40625 8.59375 39.25 6.25 
Q 37.109375 3.90625 33.390625 2.53125 
Q 29.6875 1.171875 24.015625 1.171875 
Q 18.359375 1.171875 14.25 2.53125 
Q 10.15625 3.90625 7.421875 6.640625 
Q 4.6875 9.375 3.703125 13.078125 
Q 2.734375 16.796875 2.734375 26.171875 
z
M 10.9375 26.5625 
Q 10.546875 17.1875 12.296875 13.671875 
Q 14.0625 10.15625 18.75 9.171875 
Q 23.4375 8.203125 28.515625 9.375 
Q 33.59375 10.546875 35.546875 14.84375 
Q 37.5 19.140625 36.90625 23.4375 
Q 36.328125 27.734375 32.03125 30.65625 
Q 27.734375 33.59375 22.65625 33.203125 
Q 17.578125 32.8125 14.25 29.6875 
Q 10.9375 26.5625 10.546875 17.1875 
z
M 12.109375 56.25 
Q 12.109375 48.4375 14.84375 44.921875 
Q 17.578125 41.40625 23.4375 41.40625 
Q 29.296875 41.40625 32.21875 44.921875 
Q 35.15625 48.4375 34.953125 53.3125 
Q 34.765625 58.203125 31.4375 60.546875 
Q 28.125 62.890625 22.453125 62.5 
Q 16.796875 62.109375 14.453125 59.171875 
Q 12.109375 56.25 12.109375 48.4375 
z
" id="SimHei-38"/>
      </defs>
      <g transform="translate(752.413778 314.828125)scale(0.15 -0.15)">
       <use xlink:href="#SimHei-38"/>
       <use x="50" xlink:href="#SimHei-30"/>
      </g>
     </g>
    </g>
    <g id="text_6">
     <!-- Index of non recurrent state -->
     <defs>
      <path d="M 28.90625 1.953125 
L 19.921875 1.953125 
L 19.921875 68.75 
L 28.90625 68.75 
z
" id="SimHei-49"/>
      <path d="M 43.75 1.953125 
L 35.9375 1.953125 
L 35.9375 30.078125 
Q 35.9375 34.765625 33.59375 37.5 
Q 31.25 40.234375 27.34375 40.234375 
Q 22.265625 40.234375 17.765625 34.953125 
Q 13.28125 29.6875 13.28125 21.875 
L 13.28125 1.953125 
L 5.46875 1.953125 
L 5.46875 45.703125 
L 13.28125 45.703125 
L 13.28125 37.5 
Q 16.40625 41.796875 20.109375 44.140625 
Q 23.828125 46.484375 29.6875 46.484375 
Q 36.71875 46.484375 40.234375 42.578125 
Q 43.75 38.671875 43.75 32.8125 
z
" id="SimHei-6e"/>
      <path d="M 42.96875 1.953125 
L 35.15625 1.953125 
L 35.15625 7.8125 
Q 32.8125 4.296875 29.6875 2.734375 
Q 26.5625 1.171875 22.265625 1.171875 
Q 14.453125 1.171875 8.984375 6.828125 
Q 3.515625 12.5 3.515625 23.828125 
Q 3.515625 35.15625 8.984375 41.015625 
Q 14.453125 46.875 22.265625 46.875 
Q 26.5625 46.875 29.6875 45.109375 
Q 32.8125 43.359375 35.15625 39.84375 
L 35.15625 68.75 
L 42.96875 68.75 
z
M 35.15625 23.828125 
Q 35.15625 31.25 31.828125 35.546875 
Q 28.515625 39.84375 23.828125 39.84375 
Q 17.96875 39.84375 15.03125 35.546875 
Q 12.109375 31.25 12.109375 23.828125 
Q 12.109375 16.40625 15.03125 12.296875 
Q 17.96875 8.203125 23.828125 8.203125 
Q 28.515625 8.203125 31.828125 12.296875 
Q 35.15625 16.40625 35.15625 23.828125 
z
" id="SimHei-64"/>
      <path d="M 44.53125 16.796875 
Q 43.75 9.765625 38.28125 5.46875 
Q 32.8125 1.171875 25.390625 1.171875 
Q 16.015625 1.171875 9.953125 7.21875 
Q 3.90625 13.28125 3.90625 23.828125 
Q 3.90625 34.375 9.953125 40.421875 
Q 16.015625 46.484375 25.390625 46.484375 
Q 33.59375 46.484375 38.859375 41.203125 
Q 44.140625 35.9375 44.140625 23.828125 
L 12.5 23.828125 
Q 12.5 15.234375 16.203125 11.71875 
Q 19.921875 8.203125 25.390625 8.203125 
Q 29.6875 8.203125 32.421875 10.34375 
Q 35.15625 12.5 35.9375 16.796875 
z
M 35.15625 30.078125 
Q 34.375 35.546875 31.640625 37.6875 
Q 28.90625 39.84375 24.609375 39.84375 
Q 20.703125 39.84375 17.578125 37.6875 
Q 14.453125 35.546875 12.890625 30.078125 
z
" id="SimHei-65"/>
      <path d="M 44.921875 1.953125 
L 35.546875 1.953125 
L 24.21875 18.75 
L 12.890625 1.953125 
L 3.515625 1.953125 
L 19.53125 24.21875 
L 4.6875 45.703125 
L 14.0625 45.703125 
L 24.21875 29.296875 
L 34.375 45.703125 
L 43.75 45.703125 
L 28.90625 24.21875 
z
" id="SimHei-78"/>
      <path id="SimHei-20"/>
      <path d="M 45.703125 23.828125 
Q 45.703125 13.671875 39.453125 7.421875 
Q 33.203125 1.171875 24.609375 1.171875 
Q 16.015625 1.171875 9.765625 7.421875 
Q 3.515625 13.671875 3.515625 23.828125 
Q 3.515625 33.984375 9.765625 40.234375 
Q 16.015625 46.484375 24.609375 46.484375 
Q 33.203125 46.484375 39.453125 40.234375 
Q 45.703125 33.984375 45.703125 23.828125 
z
M 37.109375 23.828125 
Q 37.109375 31.640625 33.203125 35.546875 
Q 29.296875 39.453125 24.609375 39.453125 
Q 19.921875 39.453125 16.015625 35.546875 
Q 12.109375 31.640625 12.109375 23.828125 
Q 12.109375 16.015625 16.015625 12.109375 
Q 19.921875 8.203125 24.609375 8.203125 
Q 29.296875 8.203125 33.203125 12.109375 
Q 37.109375 16.015625 37.109375 23.828125 
z
" id="SimHei-6f"/>
      <path d="M 44.53125 59.765625 
Q 42.578125 60.9375 39.84375 61.71875 
Q 37.109375 62.5 32.8125 62.5 
Q 28.515625 62.5 26.953125 60.34375 
Q 25.390625 58.203125 25.390625 55.078125 
L 25.390625 45.703125 
L 41.40625 45.703125 
L 41.40625 39.453125 
L 25.390625 39.453125 
L 25.390625 1.953125 
L 17.578125 1.953125 
L 17.578125 39.453125 
L 4.296875 39.453125 
L 4.296875 45.703125 
L 17.578125 45.703125 
L 17.578125 54.6875 
Q 17.578125 61.71875 21.875 65.625 
Q 26.171875 69.53125 33.203125 69.53125 
Q 37.5 69.53125 40.03125 68.9375 
Q 42.578125 68.359375 44.53125 67.578125 
z
" id="SimHei-66"/>
      <path d="M 39.0625 37.890625 
Q 31.640625 39.0625 26.5625 35.734375 
Q 21.484375 32.421875 17.96875 24.21875 
L 17.96875 1.953125 
L 10.15625 1.953125 
L 10.15625 45.703125 
L 17.96875 45.703125 
L 17.96875 34.375 
Q 21.484375 40.625 26.75 43.546875 
Q 32.03125 46.484375 39.0625 46.484375 
z
" id="SimHei-72"/>
      <path d="M 44.53125 19.53125 
Q 44.53125 11.328125 38.859375 6.25 
Q 33.203125 1.171875 24.609375 1.171875 
Q 16.015625 1.171875 9.765625 7.21875 
Q 3.515625 13.28125 3.515625 23.828125 
Q 3.515625 34.375 9.765625 40.421875 
Q 16.015625 46.484375 24.609375 46.484375 
Q 33.203125 46.484375 38.28125 41.984375 
Q 43.359375 37.5 43.359375 31.25 
L 34.765625 31.25 
Q 34.375 35.9375 31.4375 37.6875 
Q 28.515625 39.453125 24.609375 39.453125 
Q 19.921875 39.453125 16.015625 35.734375 
Q 12.109375 32.03125 12.109375 23.828125 
Q 12.109375 15.625 16.015625 11.90625 
Q 19.921875 8.203125 24.609375 8.203125 
Q 29.6875 8.203125 32.8125 10.9375 
Q 35.9375 13.671875 35.9375 19.53125 
z
" id="SimHei-63"/>
      <path d="M 43.75 1.953125 
L 35.9375 1.953125 
L 35.9375 10.15625 
Q 32.8125 5.859375 29.09375 3.515625 
Q 25.390625 1.171875 19.53125 1.171875 
Q 12.5 1.171875 8.984375 5.078125 
Q 5.46875 8.984375 5.46875 14.84375 
L 5.46875 45.703125 
L 13.28125 45.703125 
L 13.28125 17.578125 
Q 13.28125 12.890625 15.625 10.15625 
Q 17.96875 7.421875 21.875 7.421875 
Q 26.953125 7.421875 31.4375 12.6875 
Q 35.9375 17.96875 35.9375 25.78125 
L 35.9375 45.703125 
L 43.75 45.703125 
z
" id="SimHei-75"/>
      <path d="M 42.96875 3.125 
Q 41.015625 2.34375 38.46875 1.75 
Q 35.9375 1.171875 31.640625 1.171875 
Q 24.609375 1.171875 20.3125 5.078125 
Q 16.015625 8.984375 16.015625 16.015625 
L 16.015625 39.453125 
L 2.734375 39.453125 
L 2.734375 45.703125 
L 16.015625 45.703125 
L 16.015625 60.9375 
L 23.828125 60.9375 
L 23.828125 45.703125 
L 39.84375 45.703125 
L 39.84375 39.453125 
L 23.828125 39.453125 
L 23.828125 15.625 
Q 23.828125 12.5 25.390625 10.34375 
Q 26.953125 8.203125 31.25 8.203125 
Q 35.546875 8.203125 38.28125 8.984375 
Q 41.015625 9.765625 42.96875 10.9375 
z
" id="SimHei-74"/>
      <path d="M 42.96875 14.0625 
Q 42.96875 7.8125 38.078125 4.484375 
Q 33.203125 1.171875 25.78125 1.171875 
Q 16.40625 1.171875 11.328125 4.875 
Q 6.25 8.59375 6.25 15.625 
L 14.0625 15.625 
Q 14.0625 10.9375 17.375 9.375 
Q 20.703125 7.8125 25.390625 7.8125 
Q 30.078125 7.8125 32.421875 9.5625 
Q 34.765625 11.328125 34.765625 14.0625 
Q 34.765625 16.015625 32.8125 17.96875 
Q 30.859375 19.921875 23.046875 21.09375 
Q 14.0625 22.265625 10.734375 25.578125 
Q 7.421875 28.90625 7.421875 34.375 
Q 7.421875 39.0625 11.90625 42.765625 
Q 16.40625 46.484375 25 46.484375 
Q 32.8125 46.484375 37.296875 42.96875 
Q 41.796875 39.453125 41.796875 33.59375 
L 33.984375 33.59375 
Q 33.984375 37.109375 31.4375 38.46875 
Q 28.90625 39.84375 25 39.84375 
Q 19.921875 39.84375 17.765625 38.078125 
Q 15.625 36.328125 15.625 33.984375 
Q 15.625 31.25 17.578125 29.6875 
Q 19.53125 28.125 25.78125 27.34375 
Q 35.9375 25.78125 39.453125 22.453125 
Q 42.96875 19.140625 42.96875 14.0625 
z
" id="SimHei-73"/>
      <path d="M 44.921875 1.953125 
L 35.546875 1.953125 
Q 34.765625 2.734375 34.375 4.09375 
Q 33.984375 5.46875 33.984375 7.421875 
Q 31.25 4.296875 27.34375 2.734375 
Q 23.4375 1.171875 19.140625 1.171875 
Q 12.890625 1.171875 8.59375 4.296875 
Q 4.296875 7.421875 4.296875 13.28125 
Q 4.296875 19.140625 8.203125 22.65625 
Q 12.109375 26.171875 20.3125 27.34375 
Q 25.78125 28.125 29.875 29.296875 
Q 33.984375 30.46875 33.984375 32.421875 
Q 33.984375 34.765625 32.21875 37.109375 
Q 30.46875 39.453125 24.609375 39.453125 
Q 19.921875 39.453125 17.765625 37.6875 
Q 15.625 35.9375 14.84375 32.8125 
L 6.25 32.8125 
Q 7.03125 39.0625 11.90625 42.765625 
Q 16.796875 46.484375 24.609375 46.484375 
Q 33.203125 46.484375 37.5 42.578125 
Q 41.796875 38.671875 41.796875 31.640625 
L 41.796875 10.15625 
Q 41.796875 7.8125 42.578125 5.859375 
Q 43.359375 3.90625 44.921875 1.953125 
z
M 33.984375 16.40625 
L 33.984375 24.21875 
Q 31.640625 23.4375 29.484375 22.84375 
Q 27.34375 22.265625 22.265625 21.484375 
Q 16.40625 20.703125 14.640625 18.75 
Q 12.890625 16.796875 12.890625 14.0625 
Q 12.890625 11.71875 14.640625 9.953125 
Q 16.40625 8.203125 19.921875 8.203125 
Q 23.4375 8.203125 27.53125 10.15625 
Q 31.640625 12.109375 33.984375 16.40625 
z
" id="SimHei-61"/>
     </defs>
     <g transform="translate(359.004688 331.015625)scale(0.15 -0.15)">
      <use xlink:href="#SimHei-49"/>
      <use x="50" xlink:href="#SimHei-6e"/>
      <use x="100" xlink:href="#SimHei-64"/>
      <use x="150" xlink:href="#SimHei-65"/>
      <use x="200" xlink:href="#SimHei-78"/>
      <use x="250" xlink:href="#SimHei-20"/>
      <use x="300" xlink:href="#SimHei-6f"/>
      <use x="350" xlink:href="#SimHei-66"/>
      <use x="400" xlink:href="#SimHei-20"/>
      <use x="450" xlink:href="#SimHei-6e"/>
      <use x="500" xlink:href="#SimHei-6f"/>
      <use x="550" xlink:href="#SimHei-6e"/>
      <use x="600" xlink:href="#SimHei-20"/>
      <use x="650" xlink:href="#SimHei-72"/>
      <use x="700" xlink:href="#SimHei-65"/>
      <use x="750" xlink:href="#SimHei-63"/>
      <use x="800" xlink:href="#SimHei-75"/>
      <use x="850" xlink:href="#SimHei-72"/>
      <use x="900" xlink:href="#SimHei-72"/>
      <use x="950" xlink:href="#SimHei-65"/>
      <use x="1000" xlink:href="#SimHei-6e"/>
      <use x="1050" xlink:href="#SimHei-74"/>
      <use x="1100" xlink:href="#SimHei-20"/>
      <use x="1150" xlink:href="#SimHei-73"/>
      <use x="1200" xlink:href="#SimHei-74"/>
      <use x="1250" xlink:href="#SimHei-61"/>
      <use x="1300" xlink:href="#SimHei-74"/>
      <use x="1350" xlink:href="#SimHei-65"/>
     </g>
    </g>
   </g>
   <g id="matplotlib.axis_2">
    <g id="ytick_1">
     <g id="line2d_6">
      <defs>
       <path d="M 0 0 
L -3.5 0 
" id="m340baa1009" style="stroke:#000000;stroke-width:0.8;"/>
      </defs>
      <g>
       <use style="stroke:#000000;stroke-width:0.8;" x="45.504688" xlink:href="#m340baa1009" y="257.241384"/>
      </g>
     </g>
     <g id="text_7">
      <!-- 5 -->
      <defs>
       <path d="M 8.59375 20.703125 
Q 11.328125 10.15625 17.96875 8.984375 
Q 24.609375 7.8125 28.703125 10.34375 
Q 32.8125 12.890625 34.5625 16.984375 
Q 36.328125 21.09375 36.125 26.171875 
Q 35.9375 31.25 33.390625 34.765625 
Q 30.859375 38.28125 26.953125 39.453125 
Q 23.046875 40.625 18.15625 39.453125 
Q 13.28125 38.28125 10.15625 33.984375 
L 3.515625 34.765625 
Q 4.296875 37.109375 10.9375 68.359375 
L 41.796875 68.359375 
L 41.796875 61.328125 
L 16.796875 61.328125 
Q 14.84375 50.78125 12.890625 44.53125 
Q 18.75 47.265625 23.828125 47.0625 
Q 28.90625 46.875 33.59375 44.71875 
Q 38.28125 42.578125 40.421875 38.859375 
Q 42.578125 35.15625 43.546875 31.4375 
Q 44.53125 27.734375 44.328125 23.4375 
Q 44.140625 19.140625 42.578125 14.640625 
Q 41.015625 10.15625 37.890625 7.21875 
Q 34.765625 4.296875 30.265625 2.53125 
Q 25.78125 0.78125 19.921875 1.171875 
Q 14.0625 1.5625 8.78125 5.46875 
Q 3.515625 9.375 1.5625 18.75 
z
" id="SimHei-35"/>
      </defs>
      <g transform="translate(31.004688 262.397634)scale(0.15 -0.15)">
       <use xlink:href="#SimHei-35"/>
      </g>
     </g>
    </g>
    <g id="ytick_2">
     <g id="line2d_7">
      <g>
       <use style="stroke:#000000;stroke-width:0.8;" x="45.504688" xlink:href="#m340baa1009" y="203.707519"/>
      </g>
     </g>
     <g id="text_8">
      <!-- 10 -->
      <defs>
       <path d="M 21.875 56.25 
Q 16.796875 51.171875 8.984375 46.484375 
L 8.984375 53.90625 
Q 18.75 60.546875 25 69.53125 
L 29.6875 69.53125 
L 29.6875 2.34375 
L 21.875 2.34375 
z
" id="SimHei-31"/>
      </defs>
      <g transform="translate(23.504688 208.863769)scale(0.15 -0.15)">
       <use xlink:href="#SimHei-31"/>
       <use x="50" xlink:href="#SimHei-30"/>
      </g>
     </g>
    </g>
    <g id="ytick_3">
     <g id="line2d_8">
      <g>
       <use style="stroke:#000000;stroke-width:0.8;" x="45.504688" xlink:href="#m340baa1009" y="150.173654"/>
      </g>
     </g>
     <g id="text_9">
      <!-- 15 -->
      <g transform="translate(23.504688 155.329904)scale(0.15 -0.15)">
       <use xlink:href="#SimHei-31"/>
       <use x="50" xlink:href="#SimHei-35"/>
      </g>
     </g>
    </g>
    <g id="ytick_4">
     <g id="line2d_9">
      <g>
       <use style="stroke:#000000;stroke-width:0.8;" x="45.504688" xlink:href="#m340baa1009" y="96.639788"/>
      </g>
     </g>
     <g id="text_10">
      <!-- 20 -->
      <g transform="translate(23.504688 101.796038)scale(0.15 -0.15)">
       <use xlink:href="#SimHei-32"/>
       <use x="50" xlink:href="#SimHei-30"/>
      </g>
     </g>
    </g>
    <g id="ytick_5">
     <g id="line2d_10">
      <g>
       <use style="stroke:#000000;stroke-width:0.8;" x="45.504688" xlink:href="#m340baa1009" y="43.105923"/>
      </g>
     </g>
     <g id="text_11">
      <!-- 25 -->
      <g transform="translate(23.504688 48.262173)scale(0.15 -0.15)">
       <use xlink:href="#SimHei-32"/>
       <use x="50" xlink:href="#SimHei-35"/>
      </g>
     </g>
    </g>
    <g id="text_12">
     <!-- Number of competition -->
     <defs>
      <path d="M 44.53125 1.953125 
L 34.765625 1.953125 
L 13.28125 50.390625 
L 12.890625 50.390625 
L 12.890625 1.953125 
L 3.90625 1.953125 
L 3.90625 68.75 
L 13.671875 68.75 
L 35.15625 20.3125 
L 35.546875 20.3125 
L 35.546875 68.75 
L 44.53125 68.75 
z
" id="SimHei-4e"/>
      <path d="M 47.65625 1.953125 
L 39.84375 1.953125 
L 39.84375 33.59375 
Q 39.84375 35.9375 39.0625 37.5 
Q 38.28125 39.0625 35.9375 39.0625 
Q 33.203125 39.0625 30.859375 36.125 
Q 28.515625 33.203125 28.515625 28.515625 
L 28.515625 1.953125 
L 20.703125 1.953125 
L 20.703125 33.59375 
Q 20.703125 35.9375 19.921875 37.5 
Q 19.140625 39.0625 16.796875 39.0625 
Q 14.0625 39.0625 11.71875 36.125 
Q 9.375 33.203125 9.375 28.515625 
L 9.375 1.953125 
L 1.5625 1.953125 
L 1.5625 45.703125 
L 9.375 45.703125 
L 9.375 39.84375 
Q 11.328125 42.96875 14.0625 44.71875 
Q 16.796875 46.484375 19.921875 46.484375 
Q 23.046875 46.484375 25.1875 44.71875 
Q 27.34375 42.96875 28.125 39.84375 
Q 30.078125 42.96875 32.609375 44.71875 
Q 35.15625 46.484375 38.28125 46.484375 
Q 42.96875 46.484375 45.3125 43.9375 
Q 47.65625 41.40625 47.65625 36.71875 
z
" id="SimHei-6d"/>
      <path d="M 44.140625 23.828125 
Q 44.140625 12.5 38.671875 6.828125 
Q 33.203125 1.171875 25.390625 1.171875 
Q 21.09375 1.171875 17.96875 2.734375 
Q 14.84375 4.296875 12.5 7.8125 
L 12.5 1.953125 
L 4.6875 1.953125 
L 4.6875 68.75 
L 12.5 68.75 
L 12.5 39.84375 
Q 14.84375 43.359375 17.96875 45.109375 
Q 21.09375 46.875 25.390625 46.875 
Q 33.203125 46.875 38.671875 41.015625 
Q 44.140625 35.15625 44.140625 23.828125 
z
M 35.546875 23.828125 
Q 35.546875 31.25 32.609375 35.546875 
Q 29.6875 39.84375 23.828125 39.84375 
Q 19.140625 39.84375 15.8125 35.546875 
Q 12.5 31.25 12.5 23.828125 
Q 12.5 16.40625 15.8125 12.296875 
Q 19.140625 8.203125 23.828125 8.203125 
Q 29.6875 8.203125 32.609375 12.296875 
Q 35.546875 16.40625 35.546875 23.828125 
z
" id="SimHei-62"/>
      <path d="M 44.140625 23.828125 
Q 44.140625 12.5 38.671875 6.640625 
Q 33.203125 0.78125 25.390625 0.78125 
Q 21.09375 0.78125 17.96875 2.53125 
Q 14.84375 4.296875 12.5 7.8125 
L 12.5 -12.5 
L 4.6875 -12.5 
L 4.6875 45.703125 
L 12.5 45.703125 
L 12.5 39.84375 
Q 14.84375 43.359375 17.96875 44.921875 
Q 21.09375 46.484375 25.390625 46.484375 
Q 33.203125 46.484375 38.671875 40.8125 
Q 44.140625 35.15625 44.140625 23.828125 
z
M 35.546875 23.828125 
Q 35.546875 31.25 32.609375 35.34375 
Q 29.6875 39.453125 23.828125 39.453125 
Q 19.140625 39.453125 15.8125 35.34375 
Q 12.5 31.25 12.5 23.828125 
Q 12.5 16.40625 15.8125 12.109375 
Q 19.140625 7.8125 23.828125 7.8125 
Q 29.6875 7.8125 32.609375 12.109375 
Q 35.546875 16.40625 35.546875 23.828125 
z
" id="SimHei-70"/>
      <path d="M 28.125 58.203125 
L 20.3125 58.203125 
L 20.3125 68.359375 
L 28.125 68.359375 
z
M 28.125 1.953125 
L 20.3125 1.953125 
L 20.3125 45.703125 
L 28.125 45.703125 
z
" id="SimHei-69"/>
     </defs>
     <g transform="translate(17.629688 240.365625)rotate(-90)scale(0.15 -0.15)">
      <use xlink:href="#SimHei-4e"/>
      <use x="50" xlink:href="#SimHei-75"/>
      <use x="100" xlink:href="#SimHei-6d"/>
      <use x="150" xlink:href="#SimHei-62"/>
      <use x="200" xlink:href="#SimHei-65"/>
      <use x="250" xlink:href="#SimHei-72"/>
      <use x="300" xlink:href="#SimHei-20"/>
      <use x="350" xlink:href="#SimHei-6f"/>
      <use x="400" xlink:href="#SimHei-66"/>
      <use x="450" xlink:href="#SimHei-20"/>
      <use x="500" xlink:href="#SimHei-63"/>
      <use x="550" xlink:href="#SimHei-6f"/>
      <use x="600" xlink:href="#SimHei-6d"/>
      <use x="650" xlink:href="#SimHei-70"/>
      <use x="700" xlink:href="#SimHei-65"/>
      <use x="750" xlink:href="#SimHei-74"/>
      <use x="800" xlink:href="#SimHei-69"/>
      <use x="850" xlink:href="#SimHei-74"/>
      <use x="900" xlink:href="#SimHei-69"/>
      <use x="950" xlink:href="#SimHei-6f"/>
      <use x="1000" xlink:href="#SimHei-6e"/>
     </g>
    </g>
   </g>
   <g id="line2d_11">
    <path clip-path="url(#pdaaba58702)" d="M 83.550142 43.105923 
L 92.004688 53.812696 
L 100.459233 53.812696 
L 108.913778 53.812696 
L 117.368324 53.812696 
L 125.822869 53.812696 
L 134.277415 53.812696 
L 142.73196 79.508951 
L 151.186506 70.943533 
L 159.641051 70.943533 
L 168.095597 79.508951 
L 176.550142 79.508951 
L 185.004688 70.943533 
L 193.459233 85.933015 
L 201.913778 85.933015 
L 210.368324 85.933015 
L 218.822869 85.933015 
L 227.277415 85.933015 
L 235.73196 85.933015 
L 244.186506 130.901462 
L 252.641051 130.901462 
L 261.095597 105.205207 
L 269.550142 105.205207 
L 278.004688 105.205207 
L 286.459233 105.205207 
L 294.913778 130.901462 
L 303.368324 130.901462 
L 311.822869 130.901462 
L 320.277415 130.901462 
L 328.73196 105.205207 
L 337.186506 105.205207 
L 345.641051 139.46688 
L 354.095597 139.46688 
L 362.550142 139.46688 
L 371.004688 139.46688 
L 379.459233 139.46688 
L 387.913778 139.46688 
L 396.368324 205.848874 
L 404.822869 137.325526 
L 413.277415 137.325526 
L 421.73196 205.848874 
L 430.186506 205.848874 
L 438.641051 137.325526 
L 447.095597 207.990228 
L 455.550142 207.990228 
L 464.004688 156.597717 
L 472.459233 156.597717 
L 480.913778 156.597717 
L 489.368324 156.597717 
L 497.822869 207.990228 
L 506.277415 207.990228 
L 514.73196 207.990228 
L 523.186506 207.990228 
L 531.641051 156.597717 
L 540.095597 156.597717 
L 548.550142 214.414292 
L 557.004688 214.414292 
L 565.459233 214.414292 
L 573.913778 214.414292 
L 582.368324 214.414292 
L 590.822869 214.414292 
L 599.277415 182.293973 
L 607.73196 182.293973 
L 616.186506 182.293973 
L 624.641051 182.293973 
L 633.095597 182.293973 
L 641.550142 182.293973 
L 650.004688 225.121065 
L 658.459233 225.121065 
L 666.913778 225.121065 
L 675.368324 225.121065 
L 683.822869 225.121065 
L 692.277415 225.121065 
L 700.73196 216.555647 
L 709.186506 216.555647 
L 717.641051 216.555647 
L 726.095597 240.110547 
L 734.550142 240.110547 
L 743.004688 240.110547 
L 751.459233 240.110547 
L 759.913778 240.110547 
L 768.368324 240.110547 
L 776.822869 259.382739 
L 785.277415 259.382739 
L 793.73196 259.382739 
L 802.186506 259.382739 
L 810.641051 259.382739 
L 819.095597 259.382739 
L 827.550142 282.93764 
L 836.004688 282.93764 
L 844.459233 282.93764 
" style="fill:none;stroke:#008000;stroke-linecap:square;stroke-width:1.5;"/>
   </g>
   <g id="line2d_12">
    <path clip-path="url(#pdaaba58702)" d="M 83.550142 38.07017 
L 92.004688 47.046015 
L 100.459233 52.085336 
L 108.913778 48.837615 
L 117.368324 56.696387 
L 125.822869 58.491556 
L 134.277415 48.213053 
L 142.73196 83.341976 
L 151.186506 71.921418 
L 159.641051 69.719392 
L 168.095597 76.628829 
L 176.550142 83.45975 
L 185.004688 77.960038 
L 193.459233 85.868774 
L 201.913778 83.681024 
L 210.368324 86.179271 
L 218.822869 82.285574 
L 227.277415 83.570387 
L 235.73196 84.52329 
L 244.186506 131.361853 
L 252.641051 129.21693 
L 261.095597 103.23516 
L 269.550142 104.826901 
L 278.004688 102.753356 
L 286.459233 104.33082 
L 294.913778 124.53807 
L 303.368324 132.571719 
L 311.822869 131.019236 
L 320.277415 129.188378 
L 328.73196 100.579881 
L 337.186506 105.836906 
L 345.641051 139.391933 
L 354.095597 145.387726 
L 362.550142 144.010121 
L 371.004688 139.570379 
L 379.459233 141.065759 
L 387.913778 139.33483 
L 396.368324 205.52767 
L 404.822869 139.077868 
L 413.277415 140.516144 
L 421.73196 201.965884 
L 430.186506 206.170077 
L 438.641051 136.558207 
L 447.095597 212.212266 
L 455.550142 215.049561 
L 464.004688 161.126682 
L 472.459233 153.76756 
L 480.913778 156.026689 
L 489.368324 154.684774 
L 497.822869 210.063773 
L 506.277415 205.784633 
L 514.73196 210.756145 
L 523.186506 209.853207 
L 531.641051 159.90611 
L 540.095597 157.31864 
L 548.550142 216.102393 
L 557.004688 208.086589 
L 565.459233 214.574894 
L 573.913778 216.227306 
L 582.368324 215.260127 
L 590.822869 213.329339 
L 599.277415 182.161923 
L 607.73196 184.59236 
L 616.186506 180.441701 
L 624.641051 184.727979 
L 633.095597 180.841421 
L 641.550142 183.518114 
L 650.004688 224.093215 
L 658.459233 220.013934 
L 666.913778 227.36235 
L 675.368324 223.24738 
L 683.822869 227.276695 
L 692.277415 224.860534 
L 700.73196 220.167398 
L 709.186506 213.179444 
L 717.641051 220.042486 
L 726.095597 240.735109 
L 734.550142 236.977032 
L 743.004688 240.524543 
L 751.459233 240.478147 
L 759.913778 240.174788 
L 768.368324 237.969193 
L 776.822869 260.349917 
L 785.277415 260.171471 
L 793.73196 259.739631 
L 802.186506 258.490508 
L 810.641051 263.354952 
L 819.095597 259.750338 
L 827.550142 284.325951 
L 836.004688 282.352336 
L 844.459233 285.16108 
" style="fill:none;stroke:#ff0000;stroke-linecap:square;stroke-width:1.5;"/>
   </g>
   <g id="patch_3">
    <path d="M 45.504688 297.515625 
L 45.504688 25.715625 
" style="fill:none;stroke:#000000;stroke-linecap:square;stroke-linejoin:miter;stroke-width:0.8;"/>
   </g>
   <g id="patch_4">
    <path d="M 882.504688 297.515625 
L 882.504688 25.715625 
" style="fill:none;stroke:#000000;stroke-linecap:square;stroke-linejoin:miter;stroke-width:0.8;"/>
   </g>
   <g id="patch_5">
    <path d="M 45.504688 297.515625 
L 882.504688 297.515625 
" style="fill:none;stroke:#000000;stroke-linecap:square;stroke-linejoin:miter;stroke-width:0.8;"/>
   </g>
   <g id="patch_6">
    <path d="M 45.504688 25.715625 
L 882.504688 25.715625 
" style="fill:none;stroke:#000000;stroke-linecap:square;stroke-linejoin:miter;stroke-width:0.8;"/>
   </g>
   <g id="text_13">
    <!-- Analysis of competition times -->
    <defs>
     <path d="M 48.046875 1.953125 
L 38.671875 1.953125 
L 33.203125 22.65625 
L 16.015625 22.65625 
L 10.546875 1.953125 
L 1.171875 1.953125 
L 20.703125 69.53125 
L 28.515625 69.53125 
z
M 31.25 30.078125 
L 25 53.90625 
L 24.21875 53.90625 
L 17.96875 30.078125 
z
" id="SimHei-41"/>
     <path d="M 28.515625 1.953125 
L 20.703125 1.953125 
L 20.703125 68.75 
L 28.515625 68.75 
z
" id="SimHei-6c"/>
     <path d="M 45.3125 45.703125 
L 27.34375 -1.5625 
Q 25.78125 -7.03125 22.65625 -9.765625 
Q 19.53125 -12.5 14.84375 -12.5 
Q 12.890625 -12.5 11.125 -12.296875 
Q 9.375 -12.109375 7.8125 -11.328125 
L 7.8125 -3.515625 
Q 9.375 -4.296875 10.9375 -4.6875 
Q 12.5 -5.078125 13.671875 -5.078125 
Q 16.796875 -5.078125 17.96875 -4.09375 
Q 19.140625 -3.125 20.3125 0.390625 
L 3.125 45.703125 
L 11.71875 45.703125 
L 24.21875 11.328125 
L 24.609375 11.328125 
L 36.71875 45.703125 
z
" id="SimHei-79"/>
    </defs>
    <g transform="translate(333.504688 19.715625)scale(0.18 -0.18)">
     <use xlink:href="#SimHei-41"/>
     <use x="50" xlink:href="#SimHei-6e"/>
     <use x="100" xlink:href="#SimHei-61"/>
     <use x="150" xlink:href="#SimHei-6c"/>
     <use x="200" xlink:href="#SimHei-79"/>
     <use x="250" xlink:href="#SimHei-73"/>
     <use x="300" xlink:href="#SimHei-69"/>
     <use x="350" xlink:href="#SimHei-73"/>
     <use x="400" xlink:href="#SimHei-20"/>
     <use x="450" xlink:href="#SimHei-6f"/>
     <use x="500" xlink:href="#SimHei-66"/>
     <use x="550" xlink:href="#SimHei-20"/>
     <use x="600" xlink:href="#SimHei-63"/>
     <use x="650" xlink:href="#SimHei-6f"/>
     <use x="700" xlink:href="#SimHei-6d"/>
     <use x="750" xlink:href="#SimHei-70"/>
     <use x="800" xlink:href="#SimHei-65"/>
     <use x="850" xlink:href="#SimHei-74"/>
     <use x="900" xlink:href="#SimHei-69"/>
     <use x="950" xlink:href="#SimHei-74"/>
     <use x="1000" xlink:href="#SimHei-69"/>
     <use x="1050" xlink:href="#SimHei-6f"/>
     <use x="1100" xlink:href="#SimHei-6e"/>
     <use x="1150" xlink:href="#SimHei-20"/>
     <use x="1200" xlink:href="#SimHei-74"/>
     <use x="1250" xlink:href="#SimHei-69"/>
     <use x="1300" xlink:href="#SimHei-6d"/>
     <use x="1350" xlink:href="#SimHei-65"/>
     <use x="1400" xlink:href="#SimHei-73"/>
    </g>
   </g>
   <g id="legend_1">
    <g id="patch_7">
     <path d="M 674.004688 77.465625 
L 872.004688 77.465625 
Q 875.004688 77.465625 875.004688 74.465625 
L 875.004688 36.215625 
Q 875.004688 33.215625 872.004688 33.215625 
L 674.004688 33.215625 
Q 671.004688 33.215625 671.004688 36.215625 
L 671.004688 74.465625 
Q 671.004688 77.465625 674.004688 77.465625 
z
" style="fill:#ffffff;opacity:0.8;stroke:#cccccc;stroke-linejoin:miter;"/>
    </g>
    <g id="line2d_13">
     <path d="M 677.004688 44.465625 
L 707.004688 44.465625 
" style="fill:none;stroke:#008000;stroke-linecap:square;stroke-width:1.5;"/>
    </g>
    <g id="line2d_14"/>
    <g id="text_14">
     <!-- Theoretical analysis -->
     <defs>
      <path d="M 44.53125 61.328125 
L 28.90625 61.328125 
L 28.90625 1.953125 
L 19.921875 1.953125 
L 19.921875 61.328125 
L 4.296875 61.328125 
L 4.296875 68.75 
L 44.53125 68.75 
z
" id="SimHei-54"/>
      <path d="M 43.75 1.953125 
L 35.9375 1.953125 
L 35.9375 30.078125 
Q 35.9375 34.765625 33.59375 37.5 
Q 31.25 40.234375 27.34375 40.234375 
Q 22.265625 40.234375 17.765625 34.953125 
Q 13.28125 29.6875 13.28125 21.875 
L 13.28125 1.953125 
L 5.46875 1.953125 
L 5.46875 68.75 
L 13.28125 68.75 
L 13.28125 37.5 
Q 16.40625 41.796875 20.109375 44.140625 
Q 23.828125 46.484375 29.6875 46.484375 
Q 36.71875 46.484375 40.234375 42.578125 
Q 43.75 38.671875 43.75 32.8125 
z
" id="SimHei-68"/>
     </defs>
     <g transform="translate(719.004688 49.715625)scale(0.15 -0.15)">
      <use xlink:href="#SimHei-54"/>
      <use x="50" xlink:href="#SimHei-68"/>
      <use x="100" xlink:href="#SimHei-65"/>
      <use x="150" xlink:href="#SimHei-6f"/>
      <use x="200" xlink:href="#SimHei-72"/>
      <use x="250" xlink:href="#SimHei-65"/>
      <use x="300" xlink:href="#SimHei-74"/>
      <use x="350" xlink:href="#SimHei-69"/>
      <use x="400" xlink:href="#SimHei-63"/>
      <use x="450" xlink:href="#SimHei-61"/>
      <use x="500" xlink:href="#SimHei-6c"/>
      <use x="550" xlink:href="#SimHei-20"/>
      <use x="600" xlink:href="#SimHei-61"/>
      <use x="650" xlink:href="#SimHei-6e"/>
      <use x="700" xlink:href="#SimHei-61"/>
      <use x="750" xlink:href="#SimHei-6c"/>
      <use x="800" xlink:href="#SimHei-79"/>
      <use x="850" xlink:href="#SimHei-73"/>
      <use x="900" xlink:href="#SimHei-69"/>
      <use x="950" xlink:href="#SimHei-73"/>
     </g>
    </g>
    <g id="line2d_15">
     <path d="M 677.004688 64.340625 
L 707.004688 64.340625 
" style="fill:none;stroke:#ff0000;stroke-linecap:square;stroke-width:1.5;"/>
    </g>
    <g id="line2d_16"/>
    <g id="text_15">
     <!-- Program simulation -->
     <defs>
      <path d="M 46.09375 48.4375 
Q 46.09375 39.0625 40.625 33.59375 
Q 35.15625 28.125 25.390625 28.125 
L 14.0625 28.125 
L 14.0625 1.953125 
L 5.078125 1.953125 
L 5.078125 68.75 
L 25.390625 68.75 
Q 35.15625 68.75 40.625 63.28125 
Q 46.09375 57.8125 46.09375 48.4375 
z
M 37.109375 48.4375 
Q 37.109375 55.859375 33.59375 58.59375 
Q 30.078125 61.328125 23.046875 61.328125 
L 14.0625 61.328125 
L 14.0625 35.546875 
L 23.046875 35.546875 
Q 30.078125 35.546875 33.59375 38.28125 
Q 37.109375 41.015625 37.109375 48.4375 
z
" id="SimHei-50"/>
      <path d="M 46.484375 39.0625 
Q 43.75 39.84375 41.203125 40.03125 
Q 38.671875 40.234375 35.9375 39.453125 
Q 37.109375 38.28125 37.890625 36.515625 
Q 38.671875 34.765625 38.671875 31.25 
Q 38.671875 24.609375 34.171875 20.3125 
Q 29.6875 16.015625 23.046875 16.015625 
Q 21.484375 16.015625 18.9375 16.59375 
Q 16.40625 17.1875 14.84375 17.96875 
Q 13.671875 17.1875 13.28125 16.40625 
Q 12.890625 15.625 12.890625 14.453125 
Q 12.890625 12.5 15.625 11.515625 
Q 18.359375 10.546875 25.390625 10.546875 
Q 36.71875 10.546875 40.8125 7.421875 
Q 44.921875 4.296875 44.921875 -0.390625 
Q 44.921875 -6.640625 38.859375 -9.5625 
Q 32.8125 -12.5 24.609375 -12.5 
Q 14.0625 -12.5 8.984375 -9.765625 
Q 3.90625 -7.03125 3.90625 -2.34375 
Q 3.90625 0 5.859375 2.34375 
Q 7.8125 4.6875 10.9375 6.25 
Q 8.59375 7.421875 7.21875 9.171875 
Q 5.859375 10.9375 5.859375 13.671875 
Q 5.859375 16.015625 7.609375 17.765625 
Q 9.375 19.53125 11.71875 20.703125 
Q 9.765625 22.65625 8.59375 25.390625 
Q 7.421875 28.125 7.421875 31.25 
Q 7.421875 37.890625 11.90625 42.1875 
Q 16.40625 46.484375 23.046875 46.484375 
Q 26.5625 46.484375 29.09375 45.5 
Q 31.640625 44.53125 33.59375 42.578125 
Q 36.71875 44.921875 39.84375 45.890625 
Q 42.96875 46.875 46.484375 46.484375 
z
M 30.859375 31.25 
Q 30.859375 35.15625 28.90625 37.5 
Q 26.953125 39.84375 23.046875 39.84375 
Q 19.140625 39.84375 17.1875 37.5 
Q 15.234375 35.15625 15.234375 31.25 
Q 15.234375 27.34375 17.1875 25 
Q 19.140625 22.65625 23.046875 22.65625 
Q 26.953125 22.65625 28.90625 25 
Q 30.859375 27.34375 30.859375 31.25 
z
M 37.5 -1.171875 
Q 37.5 0.390625 35.734375 1.953125 
Q 33.984375 3.515625 26.953125 3.515625 
Q 25.390625 3.515625 22.65625 3.703125 
Q 19.921875 3.90625 16.40625 4.296875 
Q 13.28125 3.125 12.109375 1.5625 
Q 10.9375 0 10.9375 -1.5625 
Q 10.9375 -3.90625 14.0625 -5.46875 
Q 17.1875 -7.03125 25 -7.03125 
Q 31.640625 -7.03125 34.5625 -5.265625 
Q 37.5 -3.515625 37.5 -1.171875 
z
" id="SimHei-67"/>
     </defs>
     <g transform="translate(719.004688 69.590625)scale(0.15 -0.15)">
      <use xlink:href="#SimHei-50"/>
      <use x="50" xlink:href="#SimHei-72"/>
      <use x="100" xlink:href="#SimHei-6f"/>
      <use x="150" xlink:href="#SimHei-67"/>
      <use x="200" xlink:href="#SimHei-72"/>
      <use x="250" xlink:href="#SimHei-61"/>
      <use x="300" xlink:href="#SimHei-6d"/>
      <use x="350" xlink:href="#SimHei-20"/>
      <use x="400" xlink:href="#SimHei-73"/>
      <use x="450" xlink:href="#SimHei-69"/>
      <use x="500" xlink:href="#SimHei-6d"/>
      <use x="550" xlink:href="#SimHei-75"/>
      <use x="600" xlink:href="#SimHei-6c"/>
      <use x="650" xlink:href="#SimHei-61"/>
      <use x="700" xlink:href="#SimHei-74"/>
      <use x="750" xlink:href="#SimHei-69"/>
      <use x="800" xlink:href="#SimHei-6f"/>
      <use x="850" xlink:href="#SimHei-6e"/>
     </g>
    </g>
   </g>
  </g>
 </g>
 <defs>
  <clipPath id="pdaaba58702">
   <rect height="271.8" width="837" x="45.504688" y="25.715625"/>
  </clipPath>
 </defs>
</svg>
