<?xml version="1.0" encoding="utf-8" standalone="no"?>
<!DOCTYPE svg PUBLIC "-//W3C//DTD SVG 1.1//EN"
  "http://www.w3.org/Graphics/SVG/1.1/DTD/svg11.dtd">
<!-- Created with matplotlib (http://matplotlib.org/) -->
<svg height="309.4pt" version="1.1" viewBox="0 0 381.4 309.4" width="381.4pt" xmlns="http://www.w3.org/2000/svg" xmlns:xlink="http://www.w3.org/1999/xlink">
 <defs>
  <style type="text/css">
*{stroke-linecap:butt;stroke-linejoin:round;}
  </style>
 </defs>
 <g id="figure_1">
  <g id="patch_1">
   <path d="M 0 309.4 
L 381.4 309.4 
L 381.4 0 
L 0 0 
z
" style="fill:none;"/>
  </g>
  <g id="patch_2">
   <path d="M 10.7 298.7 
L 370.7 298.7 
L 370.7 10.7 
L 10.7 10.7 
z
" style="fill:#ffffff;"/>
  </g>
  <g id="pane3d_1">
   <g id="patch_3">
    <path d="M 219.619567 185.462306 
L 335.768129 233.715199 
L 340.919918 79.597002 
L 220.435568 41.545085 
" style="fill:#f2f2f2;opacity:0.5;stroke:#f2f2f2;stroke-linejoin:miter;"/>
   </g>
  </g>
  <g id="pane3d_2">
   <g id="patch_4">
    <path d="M 219.619567 185.462306 
L 58.794045 217.8137 
L 53.895826 67.034254 
L 220.435568 41.545085 
" style="fill:#e6e6e6;opacity:0.5;stroke:#e6e6e6;stroke-linejoin:miter;"/>
   </g>
  </g>
  <g id="pane3d_3">
   <g id="patch_5">
    <path d="M 219.619567 185.462306 
L 58.794045 217.8137 
L 168.062833 271.631196 
L 335.768129 233.715199 
" style="fill:#ececec;opacity:0.5;stroke:#ececec;stroke-linejoin:miter;"/>
   </g>
  </g>
  <g id="axis3d_1">
   <g id="line2d_1">
    <path d="M 335.768129 233.715199 
L 168.062833 271.631196 
" style="fill:none;stroke:#000000;stroke-linecap:square;stroke-width:0.8;"/>
   </g>
   <g id="text_1">
    <!-- coins of 大熊 -->
    <defs>
     <path d="M 44.53125 19.53125 
Q 44.53125 11.328125 38.859375 6.25 
Q 33.203125 1.171875 24.609375 1.171875 
Q 16.015625 1.171875 9.765625 7.21875 
Q 3.515625 13.28125 3.515625 23.828125 
Q 3.515625 34.375 9.765625 40.421875 
Q 16.015625 46.484375 24.609375 46.484375 
Q 33.203125 46.484375 38.28125 41.984375 
Q 43.359375 37.5 43.359375 31.25 
L 34.765625 31.25 
Q 34.375 35.9375 31.4375 37.6875 
Q 28.515625 39.453125 24.609375 39.453125 
Q 19.921875 39.453125 16.015625 35.734375 
Q 12.109375 32.03125 12.109375 23.828125 
Q 12.109375 15.625 16.015625 11.90625 
Q 19.921875 8.203125 24.609375 8.203125 
Q 29.6875 8.203125 32.8125 10.9375 
Q 35.9375 13.671875 35.9375 19.53125 
z
" id="SimHei-63"/>
     <path d="M 45.703125 23.828125 
Q 45.703125 13.671875 39.453125 7.421875 
Q 33.203125 1.171875 24.609375 1.171875 
Q 16.015625 1.171875 9.765625 7.421875 
Q 3.515625 13.671875 3.515625 23.828125 
Q 3.515625 33.984375 9.765625 40.234375 
Q 16.015625 46.484375 24.609375 46.484375 
Q 33.203125 46.484375 39.453125 40.234375 
Q 45.703125 33.984375 45.703125 23.828125 
z
M 37.109375 23.828125 
Q 37.109375 31.640625 33.203125 35.546875 
Q 29.296875 39.453125 24.609375 39.453125 
Q 19.921875 39.453125 16.015625 35.546875 
Q 12.109375 31.640625 12.109375 23.828125 
Q 12.109375 16.015625 16.015625 12.109375 
Q 19.921875 8.203125 24.609375 8.203125 
Q 29.296875 8.203125 33.203125 12.109375 
Q 37.109375 16.015625 37.109375 23.828125 
z
" id="SimHei-6f"/>
     <path d="M 28.125 58.203125 
L 20.3125 58.203125 
L 20.3125 68.359375 
L 28.125 68.359375 
z
M 28.125 1.953125 
L 20.3125 1.953125 
L 20.3125 45.703125 
L 28.125 45.703125 
z
" id="SimHei-69"/>
     <path d="M 43.75 1.953125 
L 35.9375 1.953125 
L 35.9375 30.078125 
Q 35.9375 34.765625 33.59375 37.5 
Q 31.25 40.234375 27.34375 40.234375 
Q 22.265625 40.234375 17.765625 34.953125 
Q 13.28125 29.6875 13.28125 21.875 
L 13.28125 1.953125 
L 5.46875 1.953125 
L 5.46875 45.703125 
L 13.28125 45.703125 
L 13.28125 37.5 
Q 16.40625 41.796875 20.109375 44.140625 
Q 23.828125 46.484375 29.6875 46.484375 
Q 36.71875 46.484375 40.234375 42.578125 
Q 43.75 38.671875 43.75 32.8125 
z
" id="SimHei-6e"/>
     <path d="M 42.96875 14.0625 
Q 42.96875 7.8125 38.078125 4.484375 
Q 33.203125 1.171875 25.78125 1.171875 
Q 16.40625 1.171875 11.328125 4.875 
Q 6.25 8.59375 6.25 15.625 
L 14.0625 15.625 
Q 14.0625 10.9375 17.375 9.375 
Q 20.703125 7.8125 25.390625 7.8125 
Q 30.078125 7.8125 32.421875 9.5625 
Q 34.765625 11.328125 34.765625 14.0625 
Q 34.765625 16.015625 32.8125 17.96875 
Q 30.859375 19.921875 23.046875 21.09375 
Q 14.0625 22.265625 10.734375 25.578125 
Q 7.421875 28.90625 7.421875 34.375 
Q 7.421875 39.0625 11.90625 42.765625 
Q 16.40625 46.484375 25 46.484375 
Q 32.8125 46.484375 37.296875 42.96875 
Q 41.796875 39.453125 41.796875 33.59375 
L 33.984375 33.59375 
Q 33.984375 37.109375 31.4375 38.46875 
Q 28.90625 39.84375 25 39.84375 
Q 19.921875 39.84375 17.765625 38.078125 
Q 15.625 36.328125 15.625 33.984375 
Q 15.625 31.25 17.578125 29.6875 
Q 19.53125 28.125 25.78125 27.34375 
Q 35.9375 25.78125 39.453125 22.453125 
Q 42.96875 19.140625 42.96875 14.0625 
z
" id="SimHei-73"/>
     <path id="SimHei-20"/>
     <path d="M 44.53125 59.765625 
Q 42.578125 60.9375 39.84375 61.71875 
Q 37.109375 62.5 32.8125 62.5 
Q 28.515625 62.5 26.953125 60.34375 
Q 25.390625 58.203125 25.390625 55.078125 
L 25.390625 45.703125 
L 41.40625 45.703125 
L 41.40625 39.453125 
L 25.390625 39.453125 
L 25.390625 1.953125 
L 17.578125 1.953125 
L 17.578125 39.453125 
L 4.296875 39.453125 
L 4.296875 45.703125 
L 17.578125 45.703125 
L 17.578125 54.6875 
Q 17.578125 61.71875 21.875 65.625 
Q 26.171875 69.53125 33.203125 69.53125 
Q 37.5 69.53125 40.03125 68.9375 
Q 42.578125 68.359375 44.53125 67.578125 
z
" id="SimHei-66"/>
     <path d="M 45.3125 53.125 
Q 45.703125 66.796875 45.5 71.484375 
Q 45.3125 76.171875 44.921875 80.46875 
Q 49.609375 79.6875 55.46875 79.296875 
Q 54.296875 75.390625 53.703125 67.96875 
Q 53.125 60.546875 53.125 53.125 
L 73.046875 53.125 
Q 83.59375 53.125 92.578125 53.90625 
L 92.578125 45.3125 
Q 84.765625 45.703125 76.5625 45.703125 
L 53.515625 45.703125 
Q 55.078125 39.0625 58.984375 32.21875 
Q 62.890625 25.390625 66.984375 20.109375 
Q 71.09375 14.84375 78.3125 8.984375 
Q 85.546875 3.125 94.140625 -0.78125 
Q 91.015625 -3.125 87.890625 -8.59375 
Q 80.859375 -4.6875 74.015625 1.171875 
Q 67.1875 7.03125 60.34375 16.59375 
Q 53.515625 26.171875 50 34.375 
Q 46.875 25.78125 43.359375 20.109375 
Q 39.84375 14.453125 35.734375 9.765625 
Q 31.640625 5.078125 25.1875 0.390625 
Q 18.75 -4.296875 10.546875 -8.984375 
Q 7.421875 -4.296875 3.515625 -0.78125 
Q 11.71875 1.953125 19.71875 7.03125 
Q 27.734375 12.109375 32.8125 18.546875 
Q 37.890625 25 41.015625 32.03125 
Q 44.140625 39.0625 44.921875 45.703125 
L 23.4375 45.703125 
Q 14.0625 45.703125 8.59375 45.3125 
L 8.59375 53.90625 
Q 14.0625 53.515625 23.4375 53.125 
z
" id="SimHei-5927"/>
     <path d="M 49.609375 52.34375 
Q 49.21875 46.484375 49.21875 40.625 
L 49.21875 19.53125 
Q 49.21875 15.234375 46.484375 13.859375 
Q 43.75 12.5 34.765625 11.328125 
Q 33.59375 14.84375 31.640625 18.359375 
Q 38.671875 18.75 40.421875 18.9375 
Q 42.1875 19.140625 41.796875 23.4375 
L 18.359375 23.4375 
L 18.359375 12.5 
L 10.15625 12.5 
Q 10.546875 25 10.546875 33.59375 
Q 10.546875 42.1875 10.15625 52.34375 
L 49.609375 52.34375 
z
M 65.625 45.3125 
Q 65.234375 41.015625 65.234375 34.375 
Q 81.640625 38.671875 88.28125 43.359375 
Q 90.234375 39.453125 93.359375 36.71875 
Q 85.9375 34.765625 65.625 28.125 
L 65.625 23.046875 
Q 65.625 19.53125 70.703125 19.53125 
L 80.46875 19.53125 
Q 83.59375 19.53125 85.15625 20.890625 
Q 86.71875 22.265625 88.28125 28.125 
Q 92.1875 26.171875 96.875 25.390625 
Q 93.359375 17.1875 91.40625 15.234375 
Q 89.453125 13.28125 83.984375 13.28125 
L 65.234375 13.28125 
Q 57.03125 13.28125 57.03125 19.53125 
L 57.03125 37.5 
Q 57.03125 40.625 56.640625 45.3125 
L 65.625 45.3125 
z
M 92.578125 69.140625 
Q 78.515625 65.234375 64.84375 61.328125 
Q 64.84375 54.6875 68.359375 54.6875 
L 80.46875 54.6875 
Q 83.203125 54.6875 84.765625 56.4375 
Q 86.328125 58.203125 86.71875 62.5 
Q 90.234375 60.9375 94.921875 59.765625 
Q 92.96875 51.5625 90.421875 50.1875 
Q 87.890625 48.828125 82.8125 48.828125 
L 64.84375 48.828125 
Q 57.03125 48.828125 57.03125 54.296875 
L 57.03125 71.09375 
Q 57.03125 75.78125 56.640625 80.46875 
L 65.625 80.46875 
Q 65.234375 75.390625 65.234375 67.1875 
Q 78.515625 70.3125 86.328125 76.171875 
Q 88.671875 72.65625 92.578125 69.140625 
z
M 32.03125 78.125 
Q 24.609375 71.484375 16.40625 62.890625 
Q 22.65625 63.28125 40.625 65.234375 
Q 38.671875 67.578125 35.546875 70.703125 
Q 39.0625 72.265625 42.96875 74.21875 
Q 51.171875 63.28125 55.078125 58.59375 
Q 51.171875 57.03125 48.046875 54.6875 
L 44.53125 59.765625 
Q 42.578125 59.375 33.203125 58.59375 
Q 23.828125 57.8125 9.375 55.859375 
Q 7.421875 59.375 6.25 62.890625 
Q 10.15625 64.84375 14.640625 69.53125 
Q 19.140625 74.21875 23.4375 82.03125 
Q 27.734375 79.6875 32.03125 78.125 
z
M 41.796875 28.90625 
L 41.796875 35.546875 
L 18.359375 35.546875 
L 18.359375 28.90625 
z
M 20.3125 6.640625 
Q 17.1875 3.125 11.71875 -9.765625 
Q 6.640625 -7.8125 3.90625 -7.03125 
Q 6.640625 -1.5625 11.71875 8.984375 
Q 15.625 7.8125 20.3125 6.640625 
z
M 85.9375 10.15625 
Q 92.578125 -1.953125 94.140625 -5.46875 
Q 89.84375 -6.640625 86.328125 -8.59375 
Q 83.984375 -2.34375 78.515625 7.03125 
Q 81.25 8.203125 85.9375 10.15625 
z
M 41.796875 41.015625 
L 41.796875 46.875 
L 18.359375 46.875 
L 18.359375 41.015625 
z
M 62.890625 8.59375 
Q 65.625 -1.953125 66.40625 -5.859375 
L 58.59375 -7.421875 
Q 57.421875 -3.90625 55.46875 7.421875 
Q 58.59375 8.203125 62.890625 8.59375 
z
M 39.84375 7.421875 
Q 40.234375 3.90625 42.578125 -6.640625 
Q 38.671875 -6.640625 34.375 -7.8125 
Q 33.59375 -3.125 32.03125 6.640625 
Q 35.15625 7.421875 39.84375 7.421875 
z
" id="SimHei-718a"/>
    </defs>
    <g style="fill:#800080;" transform="translate(235.061813 295.570823)rotate(-12.739652)scale(0.12 -0.12)">
     <use xlink:href="#SimHei-63"/>
     <use x="50" xlink:href="#SimHei-6f"/>
     <use x="100" xlink:href="#SimHei-69"/>
     <use x="150" xlink:href="#SimHei-6e"/>
     <use x="200" xlink:href="#SimHei-73"/>
     <use x="250" xlink:href="#SimHei-20"/>
     <use x="300" xlink:href="#SimHei-6f"/>
     <use x="350" xlink:href="#SimHei-66"/>
     <use x="400" xlink:href="#SimHei-20"/>
     <use x="450" xlink:href="#SimHei-5927"/>
     <use x="550" xlink:href="#SimHei-718a"/>
    </g>
   </g>
   <g id="Line3DCollection_1">
    <path d="M 325.649087 236.002984 
L 209.876104 187.422284 
L 210.363217 43.086674 
" style="fill:none;stroke:#b0b0b0;stroke-width:0.8;"/>
    <path d="M 305.615951 240.532216 
L 190.60155 191.299522 
L 190.43149 46.137256 
" style="fill:none;stroke:#b0b0b0;stroke-width:0.8;"/>
    <path d="M 285.302458 245.124834 
L 171.077619 195.226923 
L 170.232989 49.228668 
" style="fill:none;stroke:#b0b0b0;stroke-width:0.8;"/>
    <path d="M 264.70268 249.782177 
L 151.299439 199.205469 
L 149.762321 52.361736 
" style="fill:none;stroke:#b0b0b0;stroke-width:0.8;"/>
    <path d="M 243.810523 254.505623 
L 131.262013 203.236164 
L 129.013948 55.537307 
" style="fill:none;stroke:#b0b0b0;stroke-width:0.8;"/>
    <path d="M 222.619718 259.29659 
L 110.960209 207.320041 
L 107.982181 58.756252 
" style="fill:none;stroke:#b0b0b0;stroke-width:0.8;"/>
    <path d="M 201.123814 264.156536 
L 90.38876 211.458159 
L 86.661174 62.019466 
" style="fill:none;stroke:#b0b0b0;stroke-width:0.8;"/>
    <path d="M 179.316176 269.086961 
L 69.542258 215.651607 
L 65.044918 65.327868 
" style="fill:none;stroke:#b0b0b0;stroke-width:0.8;"/>
   </g>
   <g id="xtick_1">
    <g id="line2d_2">
     <path d="M 324.648958 235.583309 
L 327.653217 236.843957 
" style="fill:none;stroke:#000000;stroke-linecap:square;stroke-width:0.8;"/>
    </g>
    <g id="text_2">
     <!-- 0 -->
     <defs>
      <path d="M 3.125 29.296875 
Q 3.90625 50 6.4375 56.046875 
Q 8.984375 62.109375 13.671875 66.015625 
Q 18.359375 69.921875 25.1875 69.921875 
Q 32.03125 69.921875 37.109375 64.25 
Q 42.1875 58.59375 43.75 50 
Q 45.3125 41.40625 44.71875 30.265625 
Q 44.140625 19.140625 40.8125 12.109375 
Q 37.5 5.078125 30.859375 2.34375 
Q 24.21875 -0.390625 17.578125 2.921875 
Q 10.9375 6.25 8.203125 11.71875 
Q 5.46875 17.1875 4.296875 23.234375 
Q 3.125 29.296875 3.90625 50 
z
M 12.890625 52.734375 
Q 10.546875 31.25 12.5 22.84375 
Q 14.453125 14.453125 18.9375 10.9375 
Q 23.4375 7.421875 28.125 9.5625 
Q 32.8125 11.71875 34.953125 18.15625 
Q 37.109375 24.609375 37.109375 32.21875 
Q 37.109375 39.84375 36.515625 46.09375 
Q 35.9375 52.34375 33 57.421875 
Q 30.078125 62.5 25.1875 62.6875 
Q 20.3125 62.890625 16.59375 57.8125 
Q 12.890625 52.734375 10.546875 31.25 
z
" id="SimHei-30"/>
     </defs>
     <g transform="translate(330.134125 260.095778)scale(0.15 -0.15)">
      <use xlink:href="#SimHei-30"/>
     </g>
    </g>
   </g>
   <g id="xtick_2">
    <g id="line2d_3">
     <path d="M 304.621865 240.106691 
L 307.607998 241.384926 
" style="fill:none;stroke:#000000;stroke-linecap:square;stroke-width:0.8;"/>
    </g>
    <g id="text_3">
     <!-- 2 -->
     <defs>
      <path d="M 4.6875 3.90625 
Q 5.078125 9.765625 10.15625 14.453125 
Q 15.234375 19.140625 23.046875 29.09375 
Q 30.859375 39.0625 33.203125 44.53125 
Q 35.546875 50 34.953125 53.90625 
Q 34.375 57.8125 31.25 60.34375 
Q 28.125 62.890625 24.015625 62.5 
Q 19.921875 62.109375 16.203125 59.375 
Q 12.5 56.640625 10.546875 51.171875 
L 3.125 52.34375 
Q 6.25 61.328125 11.125 65.421875 
Q 16.015625 69.53125 22.65625 69.921875 
Q 26.5625 70.3125 29.6875 69.71875 
Q 32.8125 69.140625 36.125 66.984375 
Q 39.453125 64.84375 41.59375 60.546875 
Q 43.75 56.25 43.15625 50.1875 
Q 42.578125 44.140625 37.109375 35.734375 
Q 31.640625 27.34375 16.015625 9.375 
L 44.140625 9.375 
L 44.140625 2.34375 
L 4.6875 2.34375 
z
" id="SimHei-32"/>
     </defs>
     <g transform="translate(310.096382 264.735082)scale(0.15 -0.15)">
      <use xlink:href="#SimHei-32"/>
     </g>
    </g>
   </g>
   <g id="xtick_3">
    <g id="line2d_4">
     <path d="M 284.314682 244.693335 
L 287.281886 245.989527 
" style="fill:none;stroke:#000000;stroke-linecap:square;stroke-width:0.8;"/>
    </g>
    <g id="text_4">
     <!-- 4 -->
     <defs>
      <path d="M 31.25 17.1875 
L 1.171875 17.1875 
L 1.171875 23.828125 
L 32.8125 69.53125 
L 38.671875 69.53125 
L 38.671875 23.828125 
L 48.046875 23.828125 
L 48.046875 17.1875 
L 38.671875 17.1875 
L 38.671875 2.34375 
L 31.25 2.34375 
z
M 31.25 23.828125 
L 31.25 54.6875 
L 9.375 23.828125 
z
" id="SimHei-34"/>
     </defs>
     <g transform="translate(289.777342 269.439513)scale(0.15 -0.15)">
      <use xlink:href="#SimHei-34"/>
     </g>
    </g>
   </g>
   <g id="xtick_4">
    <g id="line2d_5">
     <path d="M 263.721492 249.344577 
L 266.668935 250.659107 
" style="fill:none;stroke:#000000;stroke-linecap:square;stroke-width:0.8;"/>
    </g>
    <g id="text_5">
     <!-- 6 -->
     <defs>
      <path d="M 3.515625 19.53125 
Q 4.296875 30.859375 6.046875 34.765625 
Q 7.8125 38.671875 11.328125 44.53125 
L 27.34375 69.53125 
L 36.328125 69.53125 
L 19.921875 43.75 
Q 30.46875 46.484375 36.71875 42.96875 
Q 42.96875 39.453125 45.109375 34.953125 
Q 47.265625 30.46875 47.453125 25.1875 
Q 47.65625 19.921875 45.890625 14.84375 
Q 44.140625 9.765625 39.640625 5.65625 
Q 35.15625 1.5625 27.140625 1.171875 
Q 19.140625 0.78125 13.46875 4.09375 
Q 7.8125 7.421875 5.65625 13.46875 
Q 3.515625 19.53125 4.296875 30.859375 
z
M 12.5 16.015625 
Q 19.53125 8.59375 25.390625 8.203125 
Q 31.25 7.8125 35.15625 12.109375 
Q 39.0625 16.40625 39.0625 24.609375 
Q 39.0625 32.8125 34.171875 35.9375 
Q 29.296875 39.0625 23.234375 38.28125 
Q 17.1875 37.5 14.453125 32.421875 
Q 11.71875 27.34375 12.109375 21.671875 
Q 12.5 16.015625 19.53125 8.59375 
z
" id="SimHei-36"/>
     </defs>
     <g transform="translate(269.171041 274.210454)scale(0.15 -0.15)">
      <use xlink:href="#SimHei-36"/>
     </g>
    </g>
   </g>
   <g id="xtick_5">
    <g id="line2d_6">
     <path d="M 242.83621 254.061792 
L 245.763028 255.395052 
" style="fill:none;stroke:#000000;stroke-linecap:square;stroke-width:0.8;"/>
    </g>
    <g id="text_6">
     <!-- 8 -->
     <defs>
      <path d="M 2.734375 16.796875 
Q 2.734375 26.171875 5.078125 30.65625 
Q 7.421875 35.15625 12.890625 37.890625 
Q 8.203125 40.625 6.640625 43.9375 
Q 5.078125 47.265625 4.875 51.5625 
Q 4.6875 55.859375 6.046875 58.984375 
Q 7.421875 62.109375 10.15625 64.84375 
Q 12.890625 67.578125 16.203125 68.546875 
Q 19.53125 69.53125 23.4375 69.53125 
Q 27.34375 69.53125 30.46875 68.75 
Q 33.59375 67.96875 37.109375 65.421875 
Q 40.625 62.890625 42.1875 58.203125 
Q 43.75 53.515625 41.984375 47.265625 
Q 40.234375 41.015625 32.8125 37.5 
Q 39.453125 35.546875 42.1875 31.4375 
Q 44.921875 27.34375 44.921875 21.484375 
Q 44.921875 15.625 43.15625 12.109375 
Q 41.40625 8.59375 39.25 6.25 
Q 37.109375 3.90625 33.390625 2.53125 
Q 29.6875 1.171875 24.015625 1.171875 
Q 18.359375 1.171875 14.25 2.53125 
Q 10.15625 3.90625 7.421875 6.640625 
Q 4.6875 9.375 3.703125 13.078125 
Q 2.734375 16.796875 2.734375 26.171875 
z
M 10.9375 26.5625 
Q 10.546875 17.1875 12.296875 13.671875 
Q 14.0625 10.15625 18.75 9.171875 
Q 23.4375 8.203125 28.515625 9.375 
Q 33.59375 10.546875 35.546875 14.84375 
Q 37.5 19.140625 36.90625 23.4375 
Q 36.328125 27.734375 32.03125 30.65625 
Q 27.734375 33.59375 22.65625 33.203125 
Q 17.578125 32.8125 14.25 29.6875 
Q 10.9375 26.5625 10.546875 17.1875 
z
M 12.109375 56.25 
Q 12.109375 48.4375 14.84375 44.921875 
Q 17.578125 41.40625 23.4375 41.40625 
Q 29.296875 41.40625 32.21875 44.921875 
Q 35.15625 48.4375 34.953125 53.3125 
Q 34.765625 58.203125 31.4375 60.546875 
Q 28.125 62.890625 22.453125 62.5 
Q 16.796875 62.109375 14.453125 59.171875 
Q 12.109375 56.25 12.109375 48.4375 
z
" id="SimHei-38"/>
     </defs>
     <g transform="translate(248.271344 279.049324)scale(0.15 -0.15)">
      <use xlink:href="#SimHei-38"/>
     </g>
    </g>
   </g>
   <g id="xtick_6">
    <g id="line2d_7">
     <path d="M 221.652577 258.846394 
L 224.557878 260.198787 
" style="fill:none;stroke:#000000;stroke-linecap:square;stroke-width:0.8;"/>
    </g>
    <g id="text_7">
     <!-- 10 -->
     <defs>
      <path d="M 21.875 56.25 
Q 16.796875 51.171875 8.984375 46.484375 
L 8.984375 53.90625 
Q 18.75 60.546875 25 69.53125 
L 29.6875 69.53125 
L 29.6875 2.34375 
L 21.875 2.34375 
z
" id="SimHei-31"/>
     </defs>
     <g transform="translate(223.321939 283.957585)scale(0.15 -0.15)">
      <use xlink:href="#SimHei-31"/>
      <use x="50" xlink:href="#SimHei-30"/>
     </g>
    </g>
   </g>
   <g id="xtick_7">
    <g id="line2d_8">
     <path d="M 200.164153 263.699837 
L 203.047012 265.071778 
" style="fill:none;stroke:#000000;stroke-linecap:square;stroke-width:0.8;"/>
    </g>
    <g id="text_8">
     <!-- 12 -->
     <g transform="translate(201.816333 288.936741)scale(0.15 -0.15)">
      <use xlink:href="#SimHei-31"/>
      <use x="50" xlink:href="#SimHei-32"/>
     </g>
    </g>
   </g>
   <g id="xtick_8">
    <g id="line2d_9">
     <path d="M 178.364314 268.623617 
L 181.22377 270.015533 
" style="fill:none;stroke:#000000;stroke-linecap:square;stroke-width:0.8;"/>
    </g>
    <g id="text_9">
     <!-- 14 -->
     <g transform="translate(179.997844 293.988337)scale(0.15 -0.15)">
      <use xlink:href="#SimHei-31"/>
      <use x="50" xlink:href="#SimHei-34"/>
     </g>
    </g>
   </g>
  </g>
  <g id="axis3d_2">
   <g id="line2d_10">
    <path d="M 58.794045 217.8137 
L 168.062833 271.631196 
" style="fill:none;stroke:#000000;stroke-linecap:square;stroke-width:0.8;"/>
   </g>
   <g id="text_10">
    <!-- coins of 胖虎 -->
    <defs>
     <path d="M 21.484375 1.953125 
Q 25.78125 1.5625 28.515625 1.75 
Q 31.25 1.953125 31.640625 7.03125 
L 31.640625 26.171875 
L 18.359375 26.171875 
Q 16.796875 14.453125 14.453125 5.859375 
Q 12.109375 -2.734375 10.15625 -7.03125 
Q 6.640625 -3.90625 3.125 -2.734375 
Q 6.640625 2.734375 8.78125 10.34375 
Q 10.9375 17.96875 11.71875 30.859375 
L 11.71875 64.453125 
Q 11.71875 71.09375 11.328125 76.953125 
L 38.671875 76.953125 
Q 38.28125 69.140625 38.28125 61.328125 
L 38.28125 1.953125 
Q 38.28125 -6.25 23.4375 -7.03125 
Q 23.046875 -3.125 21.484375 1.953125 
z
M 64.453125 45.3125 
L 64.453125 69.140625 
Q 64.453125 73.828125 63.671875 79.296875 
L 72.265625 79.296875 
Q 71.875 74.21875 71.875 69.140625 
L 71.875 45.3125 
L 82.421875 45.3125 
Q 85.9375 45.3125 91.796875 45.703125 
L 91.796875 38.671875 
Q 88.28125 39.0625 82.421875 39.0625 
L 71.875 39.0625 
L 71.875 23.4375 
L 84.765625 23.4375 
Q 91.015625 23.4375 96.09375 23.828125 
L 96.09375 16.796875 
Q 90.234375 17.1875 84.765625 17.1875 
L 71.875 17.1875 
L 71.875 3.90625 
Q 71.875 -2.34375 72.265625 -8.984375 
L 64.0625 -8.984375 
Q 64.453125 -2.734375 64.453125 3.90625 
L 64.453125 17.1875 
L 53.90625 17.1875 
Q 48.4375 17.1875 42.578125 16.796875 
L 42.578125 23.828125 
Q 48.046875 23.4375 54.296875 23.4375 
L 64.453125 23.4375 
L 64.453125 39.0625 
L 53.90625 39.0625 
Q 48.4375 39.0625 43.359375 38.671875 
L 43.359375 45.703125 
Q 48.4375 45.3125 53.515625 45.3125 
z
M 31.640625 32.8125 
L 31.640625 48.828125 
L 18.75 48.828125 
L 18.75 32.8125 
z
M 31.640625 55.078125 
L 31.640625 70.703125 
L 18.75 70.703125 
L 18.75 55.078125 
z
M 51.5625 51.953125 
Q 50 58.984375 44.921875 71.09375 
L 51.171875 74.21875 
Q 55.859375 63.28125 58.59375 54.6875 
Q 54.296875 53.515625 51.5625 51.953125 
z
M 77.34375 53.90625 
Q 83.984375 67.96875 84.765625 73.4375 
Q 88.671875 71.875 92.578125 70.703125 
Q 90.625 67.96875 88.671875 62.890625 
Q 86.71875 57.8125 84.375 51.953125 
Q 80.859375 53.90625 77.34375 53.90625 
z
" id="SimHei-80d6"/>
     <path d="M 25.78125 45.703125 
Q 33.203125 46.09375 44.140625 46.875 
L 44.140625 56.640625 
L 20.703125 56.640625 
Q 20.703125 31.640625 20.109375 23.4375 
Q 19.53125 15.234375 17.578125 8 
Q 15.625 0.78125 10.9375 -7.8125 
Q 7.8125 -5.46875 3.125 -3.90625 
Q 7.03125 0.78125 9.171875 6.828125 
Q 11.328125 12.890625 12.109375 18.75 
Q 12.890625 24.609375 13.078125 30.265625 
Q 13.28125 35.9375 13.28125 42.96875 
Q 13.28125 50.390625 12.890625 62.5 
L 44.140625 62.5 
L 44.140625 74.609375 
Q 44.140625 77.34375 43.359375 82.421875 
L 51.953125 82.421875 
Q 51.5625 78.515625 51.5625 75.390625 
L 71.09375 75.390625 
Q 76.171875 75.390625 84.765625 76.171875 
L 84.765625 69.53125 
Q 76.171875 69.921875 70.703125 69.921875 
L 51.171875 69.921875 
L 51.171875 62.5 
L 93.75 62.5 
Q 92.1875 57.8125 89.84375 46.875 
Q 85.15625 48.046875 82.03125 48.4375 
Q 83.984375 52.734375 85.15625 56.640625 
L 51.171875 56.640625 
L 51.171875 47.65625 
Q 65.234375 49.21875 74.21875 50.78125 
L 75 44.140625 
Q 64.0625 42.96875 51.171875 41.40625 
L 51.171875 36.71875 
Q 51.171875 33.203125 57.421875 33.203125 
L 70.3125 33.203125 
Q 75 32.8125 76.359375 34.5625 
Q 77.734375 36.328125 78.515625 41.015625 
Q 81.640625 39.0625 86.71875 37.109375 
Q 84.765625 30.859375 82.03125 29.09375 
Q 79.296875 27.34375 73.828125 27.34375 
L 54.296875 27.34375 
Q 44.140625 27.34375 44.140625 33.59375 
L 44.140625 41.015625 
Q 36.328125 40.234375 27.34375 39.0625 
Q 26.5625 42.578125 25.78125 45.703125 
z
M 71.09375 22.265625 
Q 70.703125 16.796875 70.703125 10.9375 
L 70.703125 2.34375 
Q 70.703125 -1.953125 75 -1.953125 
L 81.25 -1.953125 
Q 85.9375 -1.953125 86.71875 0.78125 
Q 87.5 3.515625 87.5 7.421875 
Q 91.40625 5.078125 96.09375 4.296875 
Q 93.359375 -3.90625 91.59375 -5.859375 
Q 89.84375 -7.8125 85.15625 -7.8125 
L 72.65625 -7.8125 
Q 63.671875 -7.8125 63.671875 -1.171875 
L 63.671875 16.40625 
L 45.3125 16.40625 
Q 45.3125 4.6875 41.203125 -0.578125 
Q 37.109375 -5.859375 26.171875 -10.546875 
Q 25 -6.640625 21.484375 -3.515625 
Q 35.9375 0.78125 37.109375 7.421875 
Q 38.28125 14.0625 37.890625 22.265625 
L 71.09375 22.265625 
z
" id="SimHei-864e"/>
    </defs>
    <g style="fill:#800080;" transform="translate(49.092792 257.912399)rotate(-333.778649)scale(0.12 -0.12)">
     <use xlink:href="#SimHei-63"/>
     <use x="50" xlink:href="#SimHei-6f"/>
     <use x="100" xlink:href="#SimHei-69"/>
     <use x="150" xlink:href="#SimHei-6e"/>
     <use x="200" xlink:href="#SimHei-73"/>
     <use x="250" xlink:href="#SimHei-20"/>
     <use x="300" xlink:href="#SimHei-6f"/>
     <use x="350" xlink:href="#SimHei-66"/>
     <use x="400" xlink:href="#SimHei-20"/>
     <use x="450" xlink:href="#SimHei-80d6"/>
     <use x="550" xlink:href="#SimHei-864e"/>
    </g>
   </g>
   <g id="Line3DCollection_2">
    <path d="M 227.548604 43.791556 
L 226.494241 188.318329 
L 65.235235 220.98614 
" style="fill:none;stroke:#b0b0b0;stroke-width:0.8;"/>
    <path d="M 241.688876 48.257402 
L 240.154088 193.993191 
L 78.043534 227.294534 
" style="fill:none;stroke:#b0b0b0;stroke-width:0.8;"/>
    <path d="M 256.106644 52.810887 
L 254.072998 199.775679 
L 91.108144 233.729167 
" style="fill:none;stroke:#b0b0b0;stroke-width:0.8;"/>
    <path d="M 270.810156 57.454617 
L 268.25841 205.668883 
L 104.436836 240.293868 
" style="fill:none;stroke:#b0b0b0;stroke-width:0.8;"/>
    <path d="M 285.807992 62.191302 
L 282.718053 211.676014 
L 118.0377 246.992619 
" style="fill:none;stroke:#b0b0b0;stroke-width:0.8;"/>
    <path d="M 301.10908 67.023762 
L 297.459956 217.800407 
L 131.919157 253.829569 
" style="fill:none;stroke:#b0b0b0;stroke-width:0.8;"/>
    <path d="M 316.722709 71.95493 
L 312.492466 224.045531 
L 146.089982 260.80904 
" style="fill:none;stroke:#b0b0b0;stroke-width:0.8;"/>
    <path d="M 332.658556 76.987861 
L 327.824262 230.41499 
L 160.559317 267.935534 
" style="fill:none;stroke:#b0b0b0;stroke-width:0.8;"/>
   </g>
   <g id="xtick_9">
    <g id="line2d_11">
     <path d="M 66.594479 220.710784 
L 62.513215 221.537566 
" style="fill:none;stroke:#000000;stroke-linecap:square;stroke-width:0.8;"/>
    </g>
    <g id="text_11">
     <!-- 0 -->
     <g transform="translate(50.195232 243.623733)scale(0.15 -0.15)">
      <use xlink:href="#SimHei-30"/>
     </g>
    </g>
   </g>
   <g id="xtick_10">
    <g id="line2d_12">
     <path d="M 79.410645 227.013697 
L 75.305726 227.856945 
" style="fill:none;stroke:#000000;stroke-linecap:square;stroke-width:0.8;"/>
    </g>
    <g id="text_12">
     <!-- 2 -->
     <g transform="translate(62.908596 250.062791)scale(0.15 -0.15)">
      <use xlink:href="#SimHei-32"/>
     </g>
    </g>
   </g>
   <g id="xtick_11">
    <g id="line2d_13">
     <path d="M 92.483165 233.442684 
L 88.354458 234.302894 
" style="fill:none;stroke:#000000;stroke-linecap:square;stroke-width:0.8;"/>
    </g>
    <g id="text_13">
     <!-- 4 -->
     <g transform="translate(75.876714 256.630876)scale(0.15 -0.15)">
      <use xlink:href="#SimHei-34"/>
     </g>
    </g>
   </g>
   <g id="xtick_12">
    <g id="line2d_14">
     <path d="M 105.81981 240.001565 
L 101.667187 240.879255 
" style="fill:none;stroke:#000000;stroke-linecap:square;stroke-width:0.8;"/>
    </g>
    <g id="text_14">
     <!-- 6 -->
     <g transform="translate(89.10732 263.331906)scale(0.15 -0.15)">
      <use xlink:href="#SimHei-36"/>
     </g>
    </g>
   </g>
   <g id="xtick_13">
    <g id="line2d_15">
     <path d="M 119.428666 246.694319 
L 115.252006 247.590026 
" style="fill:none;stroke:#000000;stroke-linecap:square;stroke-width:0.8;"/>
    </g>
    <g id="text_15">
     <!-- 8 -->
     <g transform="translate(102.608465 270.169958)scale(0.15 -0.15)">
      <use xlink:href="#SimHei-38"/>
     </g>
    </g>
   </g>
   <g id="xtick_14">
    <g id="line2d_16">
     <path d="M 133.318153 253.525084 
L 129.117343 254.439371 
" style="fill:none;stroke:#000000;stroke-linecap:square;stroke-width:0.8;"/>
    </g>
    <g id="text_16">
     <!-- 10 -->
     <g transform="translate(112.638533 277.14928)scale(0.15 -0.15)">
      <use xlink:href="#SimHei-31"/>
      <use x="50" xlink:href="#SimHei-30"/>
     </g>
    </g>
   </g>
   <g id="xtick_15">
    <g id="line2d_17">
     <path d="M 147.497042 260.498176 
L 143.271977 261.431625 
" style="fill:none;stroke:#000000;stroke-linecap:square;stroke-width:0.8;"/>
    </g>
    <g id="text_17">
     <!-- 12 -->
     <g transform="translate(126.706257 284.274293)scale(0.15 -0.15)">
      <use xlink:href="#SimHei-31"/>
      <use x="50" xlink:href="#SimHei-32"/>
     </g>
    </g>
   </g>
   <g id="xtick_16">
    <g id="line2d_18">
     <path d="M 161.974472 267.618089 
L 157.725058 268.57131 
" style="fill:none;stroke:#000000;stroke-linecap:square;stroke-width:0.8;"/>
    </g>
    <g id="text_18">
     <!-- 14 -->
     <g transform="translate(141.07074 291.549608)scale(0.15 -0.15)">
      <use xlink:href="#SimHei-31"/>
      <use x="50" xlink:href="#SimHei-34"/>
     </g>
    </g>
   </g>
  </g>
  <g id="axis3d_3">
   <g id="line2d_19">
    <path d="M 58.794045 217.8137 
L 53.895826 67.034254 
" style="fill:none;stroke:#000000;stroke-linecap:square;stroke-width:0.8;"/>
   </g>
   <g id="text_19">
    <!-- coins of 静香 -->
    <defs>
     <path d="M 67.578125 78.90625 
Q 65.625 76.5625 64.640625 74.40625 
Q 63.671875 72.265625 62.890625 70.3125 
L 84.375 70.3125 
Q 82.03125 66.796875 80.078125 62.296875 
Q 78.125 57.8125 75.78125 52.734375 
L 90.234375 52.734375 
Q 89.84375 47.265625 89.84375 41.015625 
L 89.84375 36.71875 
Q 93.359375 36.71875 96.875 37.109375 
L 96.875 30.46875 
Q 94.140625 30.859375 89.84375 30.859375 
L 89.84375 25.390625 
Q 89.84375 17.578125 90.234375 10.546875 
L 83.203125 10.546875 
L 83.203125 14.84375 
L 72.265625 14.84375 
L 72.265625 0.390625 
Q 71.875 -4.6875 68.9375 -6.640625 
Q 66.015625 -8.59375 56.25 -9.375 
Q 56.25 -5.46875 53.90625 -1.171875 
Q 58.984375 -1.5625 62.296875 -1.171875 
Q 65.625 -0.78125 65.625 2.734375 
L 65.625 14.84375 
L 60.15625 14.84375 
Q 55.46875 14.84375 50.390625 14.453125 
L 50.390625 20.703125 
Q 55.078125 20.3125 60.15625 20.3125 
L 65.625 20.3125 
L 65.625 30.859375 
L 59.765625 30.859375 
Q 54.6875 30.859375 48.046875 30.46875 
L 48.046875 36.71875 
Q 53.515625 36.328125 60.15625 36.328125 
L 65.625 36.328125 
L 65.625 47.265625 
L 60.15625 47.265625 
Q 57.8125 47.265625 51.953125 46.875 
L 51.953125 51.953125 
Q 50.78125 50.78125 48.828125 48.4375 
Q 46.875 51.5625 44.140625 53.90625 
Q 50.390625 60.15625 53.703125 68.15625 
Q 57.03125 76.171875 58.984375 82.03125 
Q 62.890625 80.078125 67.578125 78.90625 
z
M 42.96875 36.328125 
Q 42.578125 30.859375 42.578125 25 
L 42.578125 1.171875 
Q 42.578125 -4.6875 39.453125 -6.25 
Q 36.328125 -7.8125 30.078125 -8.984375 
Q 29.6875 -5.46875 27.34375 -1.5625 
Q 36.328125 -1.5625 35.546875 1.953125 
L 35.546875 6.640625 
L 15.234375 6.640625 
L 15.234375 -8.203125 
L 8.203125 -8.203125 
Q 8.59375 -3.90625 8.59375 1.953125 
L 8.59375 25 
Q 8.59375 30.859375 8.203125 36.328125 
L 42.96875 36.328125 
z
M 21.875 71.09375 
Q 21.875 74.609375 21.484375 80.46875 
L 29.296875 80.46875 
Q 28.90625 74.609375 28.90625 71.09375 
L 33.984375 71.09375 
Q 39.453125 71.09375 46.875 71.484375 
L 46.875 65.234375 
Q 39.453125 65.625 33.984375 65.625 
L 28.90625 65.625 
L 28.90625 59.375 
L 33.984375 59.375 
Q 36.328125 59.375 42.578125 59.765625 
L 42.578125 53.515625 
Q 35.9375 53.90625 33.59375 53.90625 
L 28.90625 53.90625 
L 28.90625 47.65625 
L 35.15625 47.65625 
Q 40.625 47.65625 46.484375 48.046875 
L 46.484375 41.796875 
Q 40.234375 42.1875 35.15625 42.1875 
L 15.625 42.1875 
Q 9.375 42.1875 3.90625 41.796875 
L 3.90625 48.046875 
Q 9.375 47.65625 15.625 47.65625 
L 21.875 47.65625 
L 21.875 53.90625 
L 15.234375 53.90625 
Q 12.890625 53.90625 8.59375 53.515625 
L 8.59375 59.765625 
Q 12.890625 59.375 15.234375 59.375 
L 21.875 59.375 
L 21.875 65.625 
L 15.234375 65.625 
Q 10.15625 65.625 4.6875 65.234375 
L 4.6875 71.484375 
Q 10.15625 71.09375 15.234375 71.09375 
z
M 52.734375 53.515625 
Q 57.421875 53.125 64.453125 53.125 
L 68.359375 53.125 
Q 72.265625 61.328125 73.4375 64.84375 
L 60.15625 64.84375 
Q 55.078125 56.640625 52.734375 53.515625 
z
M 35.546875 12.109375 
L 35.546875 19.140625 
L 15.234375 19.140625 
L 15.234375 12.109375 
z
M 35.546875 24.609375 
L 35.546875 30.859375 
L 15.234375 30.859375 
L 15.234375 24.609375 
z
M 83.203125 36.328125 
L 83.203125 47.265625 
L 72.265625 47.265625 
L 72.265625 36.328125 
z
M 83.203125 20.3125 
L 83.203125 30.859375 
L 72.265625 30.859375 
L 72.265625 20.3125 
z
" id="SimHei-9759"/>
     <path d="M 45.703125 33.59375 
L 45.703125 53.90625 
Q 36.71875 44.140625 26.359375 38.28125 
Q 16.015625 32.421875 10.546875 30.078125 
Q 10.546875 33.203125 5.46875 36.71875 
Q 16.015625 39.453125 24.21875 44.53125 
Q 32.421875 49.609375 37.109375 54.296875 
L 21.484375 54.296875 
Q 14.84375 54.296875 7.8125 53.90625 
L 7.8125 60.15625 
Q 14.84375 59.765625 21.484375 59.765625 
L 45.703125 59.765625 
L 45.703125 69.921875 
Q 38.28125 69.140625 17.96875 67.578125 
Q 16.796875 71.09375 14.453125 74.609375 
Q 32.8125 74.609375 50.390625 76.953125 
Q 67.96875 79.296875 74.609375 82.03125 
Q 76.953125 78.125 81.25 73.828125 
Q 74.609375 73.4375 67.96875 72.65625 
Q 61.328125 71.875 52.34375 70.703125 
L 52.34375 59.765625 
L 78.125 59.765625 
Q 83.984375 59.765625 91.40625 60.15625 
L 91.40625 53.90625 
Q 84.375 54.296875 78.125 54.296875 
L 61.71875 54.296875 
Q 66.40625 48.4375 74.21875 43.15625 
Q 82.03125 37.890625 94.140625 34.765625 
Q 89.84375 31.640625 88.28125 26.953125 
Q 82.421875 29.296875 77.34375 32.03125 
Q 76.5625 25 76.5625 12.5 
Q 76.5625 -0.78125 76.953125 -8.984375 
L 69.53125 -8.984375 
L 69.53125 -3.125 
L 28.515625 -3.125 
L 28.515625 -9.375 
L 21.875 -9.375 
L 21.875 11.71875 
Q 21.875 25 21.484375 33.59375 
z
M 69.53125 17.96875 
L 69.53125 27.734375 
L 28.515625 27.734375 
L 28.515625 17.96875 
z
M 69.53125 2.734375 
L 69.53125 12.5 
L 28.515625 12.5 
L 28.515625 2.734375 
z
M 71.484375 35.9375 
Q 62.109375 42.578125 52.734375 54.296875 
L 52.34375 54.296875 
L 52.34375 33.59375 
L 75 33.59375 
z
" id="SimHei-9999"/>
    </defs>
    <g style="fill:#800080;" transform="translate(10.565293 102.842551)rotate(-271.860655)scale(0.12 -0.12)">
     <use xlink:href="#SimHei-63"/>
     <use x="50" xlink:href="#SimHei-6f"/>
     <use x="100" xlink:href="#SimHei-69"/>
     <use x="150" xlink:href="#SimHei-6e"/>
     <use x="200" xlink:href="#SimHei-73"/>
     <use x="250" xlink:href="#SimHei-20"/>
     <use x="300" xlink:href="#SimHei-6f"/>
     <use x="350" xlink:href="#SimHei-66"/>
     <use x="400" xlink:href="#SimHei-20"/>
     <use x="450" xlink:href="#SimHei-9759"/>
     <use x="550" xlink:href="#SimHei-9999"/>
    </g>
   </g>
   <g id="Line3DCollection_3">
    <path d="M 58.492454 208.529967 
L 219.669895 176.585888 
L 336.085066 224.233899 
" style="fill:none;stroke:#b0b0b0;stroke-width:0.8;"/>
    <path d="M 57.897709 190.222231 
L 219.769111 159.08724 
L 336.710174 205.533478 
" style="fill:none;stroke:#b0b0b0;stroke-width:0.8;"/>
    <path d="M 57.297781 171.754931 
L 219.869148 141.443949 
L 337.340869 186.665935 
" style="fill:none;stroke:#b0b0b0;stroke-width:0.8;"/>
    <path d="M 56.692601 153.125973 
L 219.970014 123.654212 
L 337.977226 167.629019 
" style="fill:none;stroke:#b0b0b0;stroke-width:0.8;"/>
    <path d="M 56.0821 134.333224 
L 220.071722 105.716199 
L 338.619321 148.42044 
" style="fill:none;stroke:#b0b0b0;stroke-width:0.8;"/>
    <path d="M 55.466207 115.374514 
L 220.17428 87.628049 
L 339.267233 129.037865 
" style="fill:none;stroke:#b0b0b0;stroke-width:0.8;"/>
    <path d="M 54.844852 96.247636 
L 220.277701 69.387869 
L 339.92104 109.478918 
" style="fill:none;stroke:#b0b0b0;stroke-width:0.8;"/>
    <path d="M 54.21796 76.950341 
L 220.381995 50.993734 
L 340.580823 89.741182 
" style="fill:none;stroke:#b0b0b0;stroke-width:0.8;"/>
   </g>
   <g id="xtick_17">
    <g id="line2d_20">
     <path d="M 59.850818 208.26075 
L 55.772207 209.069099 
" style="fill:none;stroke:#000000;stroke-linecap:square;stroke-width:0.8;"/>
    </g>
    <g id="text_20">
     <!-- 0 -->
     <g transform="translate(36.319991 217.800274)scale(0.15 -0.15)">
      <use xlink:href="#SimHei-30"/>
     </g>
    </g>
   </g>
   <g id="xtick_18">
    <g id="line2d_21">
     <path d="M 59.262222 189.959775 
L 55.165133 190.747826 
" style="fill:none;stroke:#000000;stroke-linecap:square;stroke-width:0.8;"/>
    </g>
    <g id="text_21">
     <!-- 2 -->
     <g transform="translate(35.646444 199.518717)scale(0.15 -0.15)">
      <use xlink:href="#SimHei-32"/>
     </g>
    </g>
   </g>
   <g id="xtick_19">
    <g id="line2d_22">
     <path d="M 58.668498 171.499365 
L 54.552763 172.266732 
" style="fill:none;stroke:#000000;stroke-linecap:square;stroke-width:0.8;"/>
    </g>
    <g id="text_22">
     <!-- 4 -->
     <g transform="translate(34.967036 181.078092)scale(0.15 -0.15)">
      <use xlink:href="#SimHei-34"/>
     </g>
    </g>
   </g>
   <g id="xtick_20">
    <g id="line2d_23">
     <path d="M 58.069579 152.877427 
L 53.935029 153.623718 
" style="fill:none;stroke:#000000;stroke-linecap:square;stroke-width:0.8;"/>
    </g>
    <g id="text_23">
     <!-- 6 -->
     <g transform="translate(34.281691 162.476316)scale(0.15 -0.15)">
      <use xlink:href="#SimHei-36"/>
     </g>
    </g>
   </g>
   <g id="xtick_21">
    <g id="line2d_24">
     <path d="M 57.465397 134.091831 
L 53.311858 134.816645 
" style="fill:none;stroke:#000000;stroke-linecap:square;stroke-width:0.8;"/>
    </g>
    <g id="text_24">
     <!-- 8 -->
     <g transform="translate(33.590331 143.711265)scale(0.15 -0.15)">
      <use xlink:href="#SimHei-38"/>
     </g>
    </g>
   </g>
   <g id="xtick_22">
    <g id="line2d_25">
     <path d="M 56.855881 115.140412 
L 52.683179 115.843338 
" style="fill:none;stroke:#000000;stroke-linecap:square;stroke-width:0.8;"/>
    </g>
    <g id="text_25">
     <!-- 10 -->
     <g transform="translate(29.142875 124.780781)scale(0.15 -0.15)">
      <use xlink:href="#SimHei-31"/>
      <use x="50" xlink:href="#SimHei-30"/>
     </g>
    </g>
   </g>
   <g id="xtick_23">
    <g id="line2d_26">
     <path d="M 56.240962 96.020962 
L 52.048919 96.701585 
" style="fill:none;stroke:#000000;stroke-linecap:square;stroke-width:0.8;"/>
    </g>
    <g id="text_26">
     <!-- 12 -->
     <g transform="translate(28.439244 105.682667)scale(0.15 -0.15)">
      <use xlink:href="#SimHei-31"/>
      <use x="50" xlink:href="#SimHei-32"/>
     </g>
    </g>
   </g>
   <g id="xtick_24">
    <g id="line2d_27">
     <path d="M 55.620566 76.731239 
L 51.409002 77.389131 
" style="fill:none;stroke:#000000;stroke-linecap:square;stroke-width:0.8;"/>
    </g>
    <g id="text_27">
     <!-- 14 -->
     <g transform="translate(27.729354 86.414686)scale(0.15 -0.15)">
      <use xlink:href="#SimHei-31"/>
      <use x="50" xlink:href="#SimHei-34"/>
     </g>
    </g>
   </g>
  </g>
  <g id="axes_1">
   <g id="Path3DCollection_1">
    <defs>
     <path d="M 0 5 
C 1.326016 5 2.597899 4.473168 3.535534 3.535534 
C 4.473168 2.597899 5 1.326016 5 0 
C 5 -1.326016 4.473168 -2.597899 3.535534 -3.535534 
C 2.597899 -4.473168 1.326016 -5 0 -5 
C -1.326016 -5 -2.597899 -4.473168 -3.535534 -3.535534 
C -4.473168 -2.597899 -5 -1.326016 -5 0 
C -5 1.326016 -4.473168 2.597899 -3.535534 3.535534 
C -2.597899 4.473168 -1.326016 5 0 5 
z
" id="m64712bb8e5" style="stroke:#008000;"/>
    </defs>
    <g clip-path="url(#p09d047e7c9)">
     <use style="fill:#008000;stroke:#008000;" x="143.709058" xlink:href="#m64712bb8e5" y="145.328076"/>
    </g>
   </g>
   <g id="Path3DCollection_2">
    <path clip-path="url(#p09d047e7c9)" d="M 224.398551 57.499136 
C 224.492314 57.499136 224.58225 57.461884 224.648551 57.395583 
C 224.714852 57.329282 224.752104 57.239346 224.752104 57.145583 
C 224.752104 57.05182 224.714852 56.961884 224.648551 56.895583 
C 224.58225 56.829282 224.492314 56.79203 224.398551 56.79203 
C 224.304787 56.79203 224.214852 56.829282 224.148551 56.895583 
C 224.08225 56.961884 224.044997 57.05182 224.044997 57.145583 
C 224.044997 57.239346 224.08225 57.329282 224.148551 57.395583 
C 224.214852 57.461884 224.304787 57.499136 224.398551 57.499136 
z
" style="fill:#ff0000;stroke:#ff0000;"/>
    <path clip-path="url(#p09d047e7c9)" d="M 231.385035 69.929063 
C 231.681541 69.929063 231.965943 69.81126 232.175604 69.601598 
C 232.385266 69.391937 232.503069 69.107535 232.503069 68.811029 
C 232.503069 68.514523 232.385266 68.230121 232.175604 68.02046 
C 231.965943 67.810798 231.681541 67.692995 231.385035 67.692995 
C 231.088529 67.692995 230.804127 67.810798 230.594465 68.02046 
C 230.384804 68.230121 230.267001 68.514523 230.267001 68.811029 
C 230.267001 69.107535 230.384804 69.391937 230.594465 69.601598 
C 230.804127 69.81126 231.088529 69.929063 231.385035 69.929063 
z
" style="fill:#ff0000;stroke:#ff0000;"/>
    <path clip-path="url(#p09d047e7c9)" d="M 238.409492 81.600539 
C 238.690782 81.600539 238.960589 81.488781 239.159492 81.289879 
C 239.358394 81.090977 239.470152 80.821169 239.470152 80.539879 
C 239.470152 80.258589 239.358394 79.988781 239.159492 79.789879 
C 238.960589 79.590977 238.690782 79.479219 238.409492 79.479219 
C 238.128201 79.479219 237.858394 79.590977 237.659492 79.789879 
C 237.460589 79.988781 237.348831 80.258589 237.348831 80.539879 
C 237.348831 80.821169 237.460589 81.090977 237.659492 81.289879 
C 237.858394 81.488781 238.128201 81.600539 238.409492 81.600539 
z
" style="fill:#ff0000;stroke:#ff0000;"/>
    <path clip-path="url(#p09d047e7c9)" d="M 245.472232 93.952836 
C 245.90191 93.952836 246.314047 93.782123 246.617876 93.478295 
C 246.921704 93.174467 247.092417 92.762329 247.092417 92.332651 
C 247.092417 91.902973 246.921704 91.490835 246.617876 91.187007 
C 246.314047 90.883179 245.90191 90.712466 245.472232 90.712466 
C 245.042553 90.712466 244.630416 90.883179 244.326588 91.187007 
C 244.022759 91.490835 243.852046 91.902973 243.852046 92.332651 
C 243.852046 92.762329 244.022759 93.174467 244.326588 93.478295 
C 244.630416 93.782123 245.042553 93.952836 245.472232 93.952836 
z
" style="fill:#ff0000;stroke:#ff0000;"/>
    <path clip-path="url(#p09d047e7c9)" d="M 252.573569 106.026986 
C 253.060778 106.026986 253.528098 105.833416 253.872607 105.488907 
C 254.217116 105.144398 254.410686 104.677078 254.410686 104.189869 
C 254.410686 103.70266 254.217116 103.23534 253.872607 102.890831 
C 253.528098 102.546322 253.060778 102.352752 252.573569 102.352752 
C 252.08636 102.352752 251.61904 102.546322 251.274531 102.890831 
C 250.930022 103.23534 250.736451 103.70266 250.736451 104.189869 
C 250.736451 104.677078 250.930022 105.144398 251.274531 105.488907 
C 251.61904 105.833416 252.08636 106.026986 252.573569 106.026986 
z
" style="fill:#ff0000;stroke:#ff0000;"/>
    <path clip-path="url(#p09d047e7c9)" d="M 259.71382 117.807646 
C 260.163494 117.807646 260.594811 117.628988 260.912778 117.311021 
C 261.230745 116.993054 261.409403 116.561737 261.409403 116.112063 
C 261.409403 115.662389 261.230745 115.231073 260.912778 114.913105 
C 260.594811 114.595138 260.163494 114.416481 259.71382 114.416481 
C 259.264146 114.416481 258.83283 114.595138 258.514862 114.913105 
C 258.196895 115.231073 258.018238 115.662389 258.018238 116.112063 
C 258.018238 116.561737 258.196895 116.993054 258.514862 117.311021 
C 258.83283 117.628988 259.264146 117.807646 259.71382 117.807646 
z
" style="fill:#ff0000;stroke:#ff0000;"/>
    <path clip-path="url(#p09d047e7c9)" d="M 266.893307 129.902544 
C 267.371408 129.902544 267.829993 129.712593 268.168062 129.374524 
C 268.506131 129.036455 268.696082 128.57787 268.696082 128.099769 
C 268.696082 127.621667 268.506131 127.163083 268.168062 126.825014 
C 267.829993 126.486945 267.371408 126.296993 266.893307 126.296993 
C 266.415205 126.296993 265.956621 126.486945 265.618552 126.825014 
C 265.280483 127.163083 265.090531 127.621667 265.090531 128.099769 
C 265.090531 128.57787 265.280483 129.036455 265.618552 129.374524 
C 265.956621 129.712593 266.415205 129.902544 266.893307 129.902544 
z
" style="fill:#ff0000;stroke:#ff0000;"/>
    <path clip-path="url(#p09d047e7c9)" d="M 274.112353 142.245177 
C 274.667065 142.245177 275.199132 142.024788 275.591373 141.632547 
C 275.983613 141.240306 276.204003 140.708239 276.204003 140.153527 
C 276.204003 139.598815 275.983613 139.066748 275.591373 138.674507 
C 275.199132 138.282267 274.667065 138.061877 274.112353 138.061877 
C 273.557641 138.061877 273.025573 138.282267 272.633333 138.674507 
C 272.241092 139.066748 272.020703 139.598815 272.020703 140.153527 
C 272.020703 140.708239 272.241092 141.240306 272.633333 141.632547 
C 273.025573 142.024788 273.557641 142.245177 274.112353 142.245177 
z
" style="fill:#ff0000;stroke:#ff0000;"/>
    <path clip-path="url(#p09d047e7c9)" d="M 281.371286 153.498631 
C 281.696092 153.498631 282.007639 153.369584 282.237311 153.139911 
C 282.466984 152.910239 282.596031 152.598692 282.596031 152.273886 
C 282.596031 151.94908 282.466984 151.637533 282.237311 151.407861 
C 282.007639 151.178188 281.696092 151.049141 281.371286 151.049141 
C 281.04648 151.049141 280.734933 151.178188 280.50526 151.407861 
C 280.275588 151.637533 280.146541 151.94908 280.146541 152.273886 
C 280.146541 152.598692 280.275588 152.910239 280.50526 153.139911 
C 280.734933 153.369584 281.04648 153.498631 281.371286 153.498631 
z
" style="fill:#ff0000;stroke:#ff0000;"/>
    <path clip-path="url(#p09d047e7c9)" d="M 288.670438 165.634003 
C 288.981416 165.634003 289.279699 165.51045 289.499594 165.290555 
C 289.719489 165.07066 289.843042 164.772377 289.843042 164.461399 
C 289.843042 164.15042 289.719489 163.852137 289.499594 163.632242 
C 289.279699 163.412348 288.981416 163.288795 288.670438 163.288795 
C 288.359459 163.288795 288.061176 163.412348 287.841281 163.632242 
C 287.621387 163.852137 287.497834 164.15042 287.497834 164.461399 
C 287.497834 164.772377 287.621387 165.07066 287.841281 165.290555 
C 288.061176 165.51045 288.359459 165.634003 288.670438 165.634003 
z
" style="fill:#ff0000;stroke:#ff0000;"/>
    <path clip-path="url(#p09d047e7c9)" d="M 296.010143 177.716625 
C 296.275347 177.716625 296.529723 177.611259 296.71725 177.423732 
C 296.904777 177.236205 297.010143 176.981828 297.010143 176.716625 
C 297.010143 176.451422 296.904777 176.197045 296.71725 176.009518 
C 296.529723 175.821991 296.275347 175.716625 296.010143 175.716625 
C 295.74494 175.716625 295.490564 175.821991 295.303037 176.009518 
C 295.11551 176.197045 295.010143 176.451422 295.010143 176.716625 
C 295.010143 176.981828 295.11551 177.236205 295.303037 177.423732 
C 295.490564 177.611259 295.74494 177.716625 296.010143 177.716625 
z
" style="fill:#ff0000;stroke:#ff0000;"/>
    <path clip-path="url(#p09d047e7c9)" d="M 303.390742 189.906156 
C 303.620415 189.906156 303.840711 189.814906 304.003114 189.652503 
C 304.165518 189.4901 304.256767 189.269803 304.256767 189.04013 
C 304.256767 188.810458 304.165518 188.590161 304.003114 188.427758 
C 303.840711 188.265355 303.620415 188.174105 303.390742 188.174105 
C 303.161069 188.174105 302.940773 188.265355 302.77837 188.427758 
C 302.615967 188.590161 302.524717 188.810458 302.524717 189.04013 
C 302.524717 189.269803 302.615967 189.4901 302.77837 189.652503 
C 302.940773 189.814906 303.161069 189.906156 303.390742 189.906156 
z
" style="fill:#ff0000;stroke:#ff0000;"/>
    <path clip-path="url(#p09d047e7c9)" d="M 310.812576 201.786041 
C 310.90634 201.786041 310.996275 201.748789 311.062576 201.682488 
C 311.128877 201.616187 311.16613 201.526251 311.16613 201.432488 
C 311.16613 201.338724 311.128877 201.248789 311.062576 201.182488 
C 310.996275 201.116187 310.90634 201.078934 310.812576 201.078934 
C 310.718813 201.078934 310.628877 201.116187 310.562576 201.182488 
C 310.496275 201.248789 310.459023 201.338724 310.459023 201.432488 
C 310.459023 201.526251 310.496275 201.616187 310.562576 201.682488 
C 310.628877 201.748789 310.718813 201.786041 310.812576 201.786041 
z
" style="fill:#ff0000;stroke:#ff0000;"/>
    <path clip-path="url(#p09d047e7c9)" d="M 318.275992 213.894275 
C 318.275992 213.894275 318.275992 213.894275 318.275992 213.894275 
C 318.275992 213.894275 318.275992 213.894275 318.275992 213.894275 
C 318.275992 213.894275 318.275992 213.894275 318.275992 213.894275 
C 318.275992 213.894275 318.275992 213.894275 318.275992 213.894275 
C 318.275992 213.894275 318.275992 213.894275 318.275992 213.894275 
C 318.275992 213.894275 318.275992 213.894275 318.275992 213.894275 
C 318.275992 213.894275 318.275992 213.894275 318.275992 213.894275 
C 318.275992 213.894275 318.275992 213.894275 318.275992 213.894275 
z
" style="fill:#ff0000;stroke:#ff0000;"/>
    <path clip-path="url(#p09d047e7c9)" d="M 207.466343 56.784258 
C 207.560106 56.784258 207.650042 56.747006 207.716343 56.680705 
C 207.782644 56.614404 207.819896 56.524468 207.819896 56.430705 
C 207.819896 56.336941 207.782644 56.247006 207.716343 56.180705 
C 207.650042 56.114404 207.560106 56.077151 207.466343 56.077151 
C 207.372579 56.077151 207.282644 56.114404 207.216343 56.180705 
C 207.150042 56.247006 207.11279 56.336941 207.11279 56.430705 
C 207.11279 56.524468 207.150042 56.614404 207.216343 56.680705 
C 207.282644 56.747006 207.372579 56.784258 207.466343 56.784258 
z
" style="fill:#ff0000;stroke:#ff0000;"/>
    <path clip-path="url(#p09d047e7c9)" d="M 197.459219 67.956638 
C 197.621622 67.956638 197.777395 67.892115 197.892231 67.777279 
C 198.007068 67.662442 198.071591 67.506669 198.071591 67.344266 
C 198.071591 67.181863 198.007068 67.02609 197.892231 66.911253 
C 197.777395 66.796417 197.621622 66.731893 197.459219 66.731893 
C 197.296816 66.731893 197.141042 66.796417 197.026206 66.911253 
C 196.91137 67.02609 196.846846 67.181863 196.846846 67.344266 
C 196.846846 67.506669 196.91137 67.662442 197.026206 67.777279 
C 197.141042 67.892115 197.296816 67.956638 197.459219 67.956638 
z
" style="fill:#ff0000;stroke:#ff0000;"/>
    <path clip-path="url(#p09d047e7c9)" d="M 187.428275 79.508549 
C 187.753082 79.508549 188.064628 79.379502 188.294301 79.149829 
C 188.523973 78.920157 188.65302 78.60861 188.65302 78.283804 
C 188.65302 77.958998 188.523973 77.647451 188.294301 77.417778 
C 188.064628 77.188106 187.753082 77.059059 187.428275 77.059059 
C 187.103469 77.059059 186.791923 77.188106 186.56225 77.417778 
C 186.332577 77.647451 186.203531 77.958998 186.203531 78.283804 
C 186.203531 78.60861 186.332577 78.920157 186.56225 79.149829 
C 186.791923 79.379502 187.103469 79.508549 187.428275 79.508549 
z
" style="fill:#ff0000;stroke:#ff0000;"/>
    <path clip-path="url(#p09d047e7c9)" d="M 177.373428 91.086528 
C 177.860637 91.086528 178.327957 90.892958 178.672466 90.548449 
C 179.016975 90.20394 179.210545 89.73662 179.210545 89.249411 
C 179.210545 88.762202 179.016975 88.294882 178.672466 87.950373 
C 178.327957 87.605864 177.860637 87.412294 177.373428 87.412294 
C 176.886218 87.412294 176.418898 87.605864 176.07439 87.950373 
C 175.729881 88.294882 175.53631 88.762202 175.53631 89.249411 
C 175.53631 89.73662 175.729881 90.20394 176.07439 90.548449 
C 176.418898 90.892958 176.886218 91.086528 177.373428 91.086528 
z
" style="fill:#ff0000;stroke:#ff0000;"/>
    <path clip-path="url(#p09d047e7c9)" d="M 167.29459 102.790691 
C 167.970728 102.790691 168.619264 102.522059 169.097366 102.043957 
C 169.575467 101.565855 169.8441 100.917319 169.8441 100.241182 
C 169.8441 99.565044 169.575467 98.916508 169.097366 98.438406 
C 168.619264 97.960304 167.970728 97.691672 167.29459 97.691672 
C 166.618452 97.691672 165.969916 97.960304 165.491814 98.438406 
C 165.013713 98.916508 164.74508 99.565044 164.74508 100.241182 
C 164.74508 100.917319 165.013713 101.565855 165.491814 102.043957 
C 165.969916 102.522059 166.618452 102.790691 167.29459 102.790691 
z
" style="fill:#ff0000;stroke:#ff0000;"/>
    <path clip-path="url(#p09d047e7c9)" d="M 157.191676 114.794742 
C 158.129311 114.794742 159.028669 114.422216 159.691676 113.759209 
C 160.354684 113.096201 160.72721 112.196843 160.72721 111.259209 
C 160.72721 110.321574 160.354684 109.422216 159.691676 108.759209 
C 159.028669 108.096201 158.129311 107.723675 157.191676 107.723675 
C 156.254042 107.723675 155.354684 108.096201 154.691676 108.759209 
C 154.028669 109.422216 153.656143 110.321574 153.656143 111.259209 
C 153.656143 112.196843 154.028669 113.096201 154.691676 113.759209 
C 155.354684 114.422216 156.254042 114.794742 157.191676 114.794742 
z
" style="fill:#ff0000;stroke:#ff0000;"/>
    <path clip-path="url(#p09d047e7c9)" d="M 147.064601 128.037259 
C 148.585188 128.037259 150.043701 127.433123 151.118919 126.357905 
C 152.194137 125.282687 152.798273 123.824174 152.798273 122.303586 
C 152.798273 120.782999 152.194137 119.324486 151.118919 118.249268 
C 150.043701 117.17405 148.585188 116.569914 147.064601 116.569914 
C 145.544013 116.569914 144.0855 117.17405 143.010282 118.249268 
C 141.935064 119.324486 141.330928 120.782999 141.330928 122.303586 
C 141.330928 123.824174 141.935064 125.282687 143.010282 126.357905 
C 144.0855 127.433123 145.544013 128.037259 147.064601 128.037259 
z
" style="fill:#ff0000;stroke:#ff0000;"/>
    <path clip-path="url(#p09d047e7c9)" d="M 136.913276 143.473915 
C 139.591696 143.473915 142.160775 142.409767 144.054704 140.515838 
C 145.948633 138.621909 147.012781 136.05283 147.012781 133.37441 
C 147.012781 130.69599 145.948633 128.12691 144.054704 126.232981 
C 142.160775 124.339052 139.591696 123.274905 136.913276 123.274905 
C 134.234856 123.274905 131.665776 124.339052 129.771847 126.232981 
C 127.877918 128.12691 126.813771 130.69599 126.813771 133.37441 
C 126.813771 136.05283 127.877918 138.621909 129.771847 140.515838 
C 131.665776 142.409767 134.234856 143.473915 136.913276 143.473915 
z
" style="fill:#ff0000;stroke:#ff0000;"/>
    <path clip-path="url(#p09d047e7c9)" d="M 126.737615 154.767404 
C 129.468048 154.767404 132.087017 153.682591 134.017725 151.751884 
C 135.948432 149.821176 137.033245 147.202207 137.033245 144.471774 
C 137.033245 141.741341 135.948432 139.122371 134.017725 137.191664 
C 132.087017 135.260956 129.468048 134.176144 126.737615 134.176144 
C 124.007182 134.176144 121.388213 135.260956 119.457505 137.191664 
C 117.526797 139.122371 116.441985 141.741341 116.441985 144.471774 
C 116.441985 147.202207 117.526797 149.821176 119.457505 151.751884 
C 121.388213 153.682591 124.007182 154.767404 126.737615 154.767404 
z
" style="fill:#ff0000;stroke:#ff0000;"/>
    <path clip-path="url(#p09d047e7c9)" d="M 116.53753 160.839818 
C 117.928267 160.839818 119.26223 160.287272 120.245629 159.303873 
C 121.229028 158.320474 121.781574 156.986511 121.781574 155.595774 
C 121.781574 154.205037 121.229028 152.871074 120.245629 151.887675 
C 119.26223 150.904275 117.928267 150.35173 116.53753 150.35173 
C 115.146793 150.35173 113.81283 150.904275 112.829431 151.887675 
C 111.846031 152.871074 111.293486 154.205037 111.293486 155.595774 
C 111.293486 156.986511 111.846031 158.320474 112.829431 159.303873 
C 113.81283 160.287272 115.146793 160.839818 116.53753 160.839818 
z
" style="fill:#ff0000;stroke:#ff0000;"/>
    <path clip-path="url(#p09d047e7c9)" d="M 106.312933 170.264318 
C 107.245868 170.264318 108.140717 169.893659 108.800402 169.233975 
C 109.460086 168.57429 109.830745 167.679441 109.830745 166.746506 
C 109.830745 165.813571 109.460086 164.918722 108.800402 164.259037 
C 108.140717 163.599353 107.245868 163.228694 106.312933 163.228694 
C 105.379998 163.228694 104.485149 163.599353 103.825464 164.259037 
C 103.16578 164.918722 102.795121 165.813571 102.795121 166.746506 
C 102.795121 167.679441 103.16578 168.57429 103.825464 169.233975 
C 104.485149 169.893659 105.379998 170.264318 106.312933 170.264318 
z
" style="fill:#ff0000;stroke:#ff0000;"/>
    <path clip-path="url(#p09d047e7c9)" d="M 96.063736 180.074648 
C 96.634077 180.074648 97.181135 179.848049 97.584426 179.444758 
C 97.987718 179.041466 98.214317 178.494408 98.214317 177.924067 
C 98.214317 177.353726 97.987718 176.806668 97.584426 176.403376 
C 97.181135 176.000084 96.634077 175.773486 96.063736 175.773486 
C 95.493395 175.773486 94.946337 176.000084 94.543045 176.403376 
C 94.139753 176.806668 93.913154 177.353726 93.913154 177.924067 
C 93.913154 178.494408 94.139753 179.041466 94.543045 179.444758 
C 94.946337 179.848049 95.493395 180.074648 96.063736 180.074648 
z
" style="fill:#ff0000;stroke:#ff0000;"/>
    <path clip-path="url(#p09d047e7c9)" d="M 85.789849 190.586291 
C 86.176446 190.586291 86.547261 190.432695 86.820626 190.15933 
C 87.093991 189.885965 87.247587 189.51515 87.247587 189.128553 
C 87.247587 188.741957 87.093991 188.371142 86.820626 188.097777 
C 86.547261 187.824412 86.176446 187.670815 85.789849 187.670815 
C 85.403253 187.670815 85.032438 187.824412 84.759073 188.097777 
C 84.485708 188.371142 84.332111 188.741957 84.332111 189.128553 
C 84.332111 189.51515 84.485708 189.885965 84.759073 190.15933 
C 85.032438 190.432695 85.403253 190.586291 85.789849 190.586291 
z
" style="fill:#ff0000;stroke:#ff0000;"/>
    <path clip-path="url(#p09d047e7c9)" d="M 75.491184 201.420723 
C 75.772475 201.420723 76.042282 201.308965 76.241184 201.110063 
C 76.440087 200.911161 76.551844 200.641353 76.551844 200.360063 
C 76.551844 200.078773 76.440087 199.808965 76.241184 199.610063 
C 76.042282 199.411161 75.772475 199.299403 75.491184 199.299403 
C 75.209894 199.299403 74.940087 199.411161 74.741184 199.610063 
C 74.542282 199.808965 74.430524 200.078773 74.430524 200.360063 
C 74.430524 200.641353 74.542282 200.911161 74.741184 201.110063 
C 74.940087 201.308965 75.209894 201.420723 75.491184 201.420723 
z
" style="fill:#ff0000;stroke:#ff0000;"/>
    <path clip-path="url(#p09d047e7c9)" d="M 308.024995 225.770763 
C 308.118758 225.770763 308.208694 225.73351 308.274995 225.667209 
C 308.341296 225.600908 308.378548 225.510973 308.378548 225.417209 
C 308.378548 225.323446 308.341296 225.23351 308.274995 225.167209 
C 308.208694 225.100908 308.118758 225.063656 308.024995 225.063656 
C 307.931231 225.063656 307.841296 225.100908 307.774995 225.167209 
C 307.708694 225.23351 307.671441 225.323446 307.671441 225.417209 
C 307.671441 225.510973 307.708694 225.600908 307.774995 225.667209 
C 307.841296 225.73351 307.931231 225.770763 308.024995 225.770763 
z
" style="fill:#ff0000;stroke:#ff0000;"/>
    <path clip-path="url(#p09d047e7c9)" d="M 290.324347 225.023877 
C 290.48675 225.023877 290.642524 224.959354 290.75736 224.844518 
C 290.872196 224.729681 290.93672 224.573908 290.93672 224.411505 
C 290.93672 224.249102 290.872196 224.093329 290.75736 223.978492 
C 290.642524 223.863656 290.48675 223.799133 290.324347 223.799133 
C 290.161944 223.799133 290.006171 223.863656 289.891334 223.978492 
C 289.776498 224.093329 289.711975 224.249102 289.711975 224.411505 
C 289.711975 224.573908 289.776498 224.729681 289.891334 224.844518 
C 290.006171 224.959354 290.161944 225.023877 290.324347 225.023877 
z
" style="fill:#ff0000;stroke:#ff0000;"/>
    <path clip-path="url(#p09d047e7c9)" d="M 272.679137 224.344365 
C 272.927211 224.344365 273.165159 224.245804 273.340574 224.070388 
C 273.51599 223.894973 273.614551 223.657025 273.614551 223.40895 
C 273.614551 223.160876 273.51599 222.922928 273.340574 222.747513 
C 273.165159 222.572097 272.927211 222.473536 272.679137 222.473536 
C 272.431062 222.473536 272.193114 222.572097 272.017699 222.747513 
C 271.842283 222.922928 271.743722 223.160876 271.743722 223.40895 
C 271.743722 223.657025 271.842283 223.894973 272.017699 224.070388 
C 272.193114 224.245804 272.431062 224.344365 272.679137 224.344365 
z
" style="fill:#ff0000;stroke:#ff0000;"/>
    <path clip-path="url(#p09d047e7c9)" d="M 255.089103 223.409531 
C 255.354306 223.409531 255.608683 223.304165 255.79621 223.116638 
C 255.983737 222.929111 256.089103 222.674734 256.089103 222.409531 
C 256.089103 222.144328 255.983737 221.889951 255.79621 221.702424 
C 255.608683 221.514897 255.354306 221.409531 255.089103 221.409531 
C 254.8239 221.409531 254.569523 221.514897 254.381996 221.702424 
C 254.194469 221.889951 254.089103 222.144328 254.089103 222.409531 
C 254.089103 222.674734 254.194469 222.929111 254.381996 223.116638 
C 254.569523 223.304165 254.8239 223.409531 255.089103 223.409531 
z
" style="fill:#ff0000;stroke:#ff0000;"/>
    <path clip-path="url(#p09d047e7c9)" d="M 237.553988 222.687987 
C 237.892057 222.687987 238.216325 222.553671 238.455376 222.31462 
C 238.694427 222.075569 238.828743 221.751301 238.828743 221.413232 
C 238.828743 221.075163 238.694427 220.750895 238.455376 220.511844 
C 238.216325 220.272793 237.892057 220.138477 237.553988 220.138477 
C 237.215919 220.138477 236.891651 220.272793 236.6526 220.511844 
C 236.41355 220.750895 236.279233 221.075163 236.279233 221.413232 
C 236.279233 221.751301 236.41355 222.075569 236.6526 222.31462 
C 236.891651 222.553671 237.215919 222.687987 237.553988 222.687987 
z
" style="fill:#ff0000;stroke:#ff0000;"/>
    <path clip-path="url(#p09d047e7c9)" d="M 220.073535 222.001177 
C 220.492858 222.001177 220.895063 221.834579 221.191569 221.538072 
C 221.488075 221.241566 221.654674 220.839361 221.654674 220.420038 
C 221.654674 220.000716 221.488075 219.598511 221.191569 219.302004 
C 220.895063 219.005498 220.492858 218.8389 220.073535 218.8389 
C 219.654212 218.8389 219.252007 219.005498 218.955501 219.302004 
C 218.658995 219.598511 218.492396 220.000716 218.492396 220.420038 
C 218.492396 220.839361 218.658995 221.241566 218.955501 221.538072 
C 219.252007 221.834579 219.654212 222.001177 220.073535 222.001177 
z
" style="fill:#ff0000;stroke:#ff0000;"/>
    <path clip-path="url(#p09d047e7c9)" d="M 202.647489 221.33388 
C 203.15242 221.33388 203.636739 221.133268 203.99378 220.776227 
C 204.350821 220.419187 204.551432 219.934868 204.551432 219.429936 
C 204.551432 218.925005 204.350821 218.440686 203.99378 218.083645 
C 203.636739 217.726604 203.15242 217.525993 202.647489 217.525993 
C 202.142557 217.525993 201.658238 217.726604 201.301198 218.083645 
C 200.944157 218.440686 200.743546 218.925005 200.743546 219.429936 
C 200.743546 219.934868 200.944157 220.419187 201.301198 220.776227 
C 201.658238 221.133268 202.142557 221.33388 202.647489 221.33388 
z
" style="fill:#ff0000;stroke:#ff0000;"/>
    <path clip-path="url(#p09d047e7c9)" d="M 185.275595 220.840827 
C 185.91153 220.840827 186.521504 220.588167 186.971178 220.138493 
C 187.420852 219.68882 187.673511 219.078846 187.673511 218.442911 
C 187.673511 217.806976 187.420852 217.197002 186.971178 216.747328 
C 186.521504 216.297655 185.91153 216.044995 185.275595 216.044995 
C 184.639661 216.044995 184.029687 216.297655 183.580013 216.747328 
C 183.130339 217.197002 182.87768 217.806976 182.87768 218.442911 
C 182.87768 219.078846 183.130339 219.68882 183.580013 220.138493 
C 184.029687 220.588167 184.639661 220.840827 185.275595 220.840827 
z
" style="fill:#ff0000;stroke:#ff0000;"/>
    <path clip-path="url(#p09d047e7c9)" d="M 167.957603 219.750236 
C 168.56526 219.750236 169.14811 219.508811 169.577788 219.079133 
C 170.007466 218.649455 170.248891 218.066605 170.248891 217.458948 
C 170.248891 216.851292 170.007466 216.268441 169.577788 215.838763 
C 169.14811 215.409085 168.56526 215.16766 167.957603 215.16766 
C 167.349946 215.16766 166.767096 215.409085 166.337418 215.838763 
C 165.90774 216.268441 165.666315 216.851292 165.666315 217.458948 
C 165.666315 218.066605 165.90774 218.649455 166.337418 219.079133 
C 166.767096 219.508811 167.349946 219.750236 167.957603 219.750236 
z
" style="fill:#ff0000;stroke:#ff0000;"/>
    <path clip-path="url(#p09d047e7c9)" d="M 150.693261 218.901874 
C 151.336071 218.901874 151.95264 218.646482 152.407175 218.191947 
C 152.86171 217.737412 153.117101 217.120843 153.117101 216.478034 
C 153.117101 215.835224 152.86171 215.218655 152.407175 214.76412 
C 151.95264 214.309585 151.336071 214.054194 150.693261 214.054194 
C 150.050451 214.054194 149.433883 214.309585 148.979348 214.76412 
C 148.524812 215.218655 148.269421 215.835224 148.269421 216.478034 
C 148.269421 217.120843 148.524812 217.737412 148.979348 218.191947 
C 149.433883 218.646482 150.050451 218.901874 150.693261 218.901874 
z
" style="fill:#ff0000;stroke:#ff0000;"/>
    <path clip-path="url(#p09d047e7c9)" d="M 133.482321 218.145905 
C 134.183982 218.145905 134.857 217.867131 135.35315 217.370982 
C 135.849299 216.874832 136.128072 216.201815 136.128072 215.500153 
C 136.128072 214.798492 135.849299 214.125474 135.35315 213.629325 
C 134.857 213.133175 134.183982 212.854402 133.482321 212.854402 
C 132.78066 212.854402 132.107642 213.133175 131.611492 213.629325 
C 131.115343 214.125474 130.83657 214.798492 130.83657 215.500153 
C 130.83657 216.201815 131.115343 216.874832 131.611492 217.370982 
C 132.107642 217.867131 132.78066 218.145905 133.482321 218.145905 
z
" style="fill:#ff0000;stroke:#ff0000;"/>
    <path clip-path="url(#p09d047e7c9)" d="M 116.324535 216.106432 
C 116.743858 216.106432 117.146063 215.939833 117.442569 215.643327 
C 117.739075 215.346821 117.905674 214.944616 117.905674 214.525293 
C 117.905674 214.10597 117.739075 213.703765 117.442569 213.407259 
C 117.146063 213.110753 116.743858 212.944154 116.324535 212.944154 
C 115.905212 212.944154 115.503007 213.110753 115.206501 213.407259 
C 114.909995 213.703765 114.743396 214.10597 114.743396 214.525293 
C 114.743396 214.944616 114.909995 215.346821 115.206501 215.643327 
C 115.503007 215.939833 115.905212 216.106432 116.324535 216.106432 
z
" style="fill:#ff0000;stroke:#ff0000;"/>
    <path clip-path="url(#p09d047e7c9)" d="M 99.219657 214.726043 
C 99.530635 214.726043 99.828919 214.60249 100.048813 214.382595 
C 100.268708 214.1627 100.392261 213.864417 100.392261 213.553439 
C 100.392261 213.242461 100.268708 212.944177 100.048813 212.724283 
C 99.828919 212.504388 99.530635 212.380835 99.219657 212.380835 
C 98.908679 212.380835 98.610396 212.504388 98.390501 212.724283 
C 98.170606 212.944177 98.047053 213.242461 98.047053 213.553439 
C 98.047053 213.864417 98.170606 214.1627 98.390501 214.382595 
C 98.610396 214.60249 98.908679 214.726043 99.219657 214.726043 
z
" style="fill:#ff0000;stroke:#ff0000;"/>
    <path clip-path="url(#p09d047e7c9)" d="M 82.167443 213.196949 
C 82.329847 213.196949 82.48562 213.132426 82.600456 213.017589 
C 82.715293 212.902753 82.779816 212.74698 82.779816 212.584577 
C 82.779816 212.422174 82.715293 212.2664 82.600456 212.151564 
C 82.48562 212.036728 82.329847 211.972204 82.167443 211.972204 
C 82.00504 211.972204 81.849267 212.036728 81.734431 212.151564 
C 81.619594 212.2664 81.555071 212.422174 81.555071 212.584577 
C 81.555071 212.74698 81.619594 212.902753 81.734431 213.017589 
C 81.849267 213.132426 82.00504 213.196949 82.167443 213.196949 
z
" style="fill:#ff0000;stroke:#ff0000;"/>
   </g>
   <g id="legend_1">
    <g id="patch_6">
     <path d="M 21.2 291.2 
L 294.2 291.2 
Q 297.2 291.2 297.2 288.2 
L 297.2 249.95 
Q 297.2 246.95 294.2 246.95 
L 21.2 246.95 
Q 18.2 246.95 18.2 249.95 
L 18.2 288.2 
Q 18.2 291.2 21.2 291.2 
z
" style="fill:#ffffff;opacity:0.8;stroke:#cccccc;stroke-linejoin:miter;"/>
    </g>
    <g id="Path3DCollection_3">
     <defs>
      <path d="M 0 7.28011 
C 1.930708 7.28011 3.782599 6.513032 5.147815 5.147815 
C 6.513032 3.782599 7.28011 1.930708 7.28011 0 
C 7.28011 -1.930708 6.513032 -3.782599 5.147815 -5.147815 
C 3.782599 -6.513032 1.930708 -7.28011 0 -7.28011 
C -1.930708 -7.28011 -3.782599 -6.513032 -5.147815 -5.147815 
C -6.513032 -3.782599 -7.28011 -1.930708 -7.28011 0 
C -7.28011 1.930708 -6.513032 3.782599 -5.147815 5.147815 
C -3.782599 6.513032 -1.930708 7.28011 0 7.28011 
z
" id="m2c9e03fc25" style="stroke:#ff0000;"/>
     </defs>
     <g>
      <use style="fill:#ff0000;stroke:#ff0000;" x="39.2" xlink:href="#m2c9e03fc25" y="259.5125"/>
     </g>
    </g>
    <g id="text_28">
     <!-- probability of absorbing state -->
     <defs>
      <path d="M 44.140625 23.828125 
Q 44.140625 12.5 38.671875 6.640625 
Q 33.203125 0.78125 25.390625 0.78125 
Q 21.09375 0.78125 17.96875 2.53125 
Q 14.84375 4.296875 12.5 7.8125 
L 12.5 -12.5 
L 4.6875 -12.5 
L 4.6875 45.703125 
L 12.5 45.703125 
L 12.5 39.84375 
Q 14.84375 43.359375 17.96875 44.921875 
Q 21.09375 46.484375 25.390625 46.484375 
Q 33.203125 46.484375 38.671875 40.8125 
Q 44.140625 35.15625 44.140625 23.828125 
z
M 35.546875 23.828125 
Q 35.546875 31.25 32.609375 35.34375 
Q 29.6875 39.453125 23.828125 39.453125 
Q 19.140625 39.453125 15.8125 35.34375 
Q 12.5 31.25 12.5 23.828125 
Q 12.5 16.40625 15.8125 12.109375 
Q 19.140625 7.8125 23.828125 7.8125 
Q 29.6875 7.8125 32.609375 12.109375 
Q 35.546875 16.40625 35.546875 23.828125 
z
" id="SimHei-70"/>
      <path d="M 39.0625 37.890625 
Q 31.640625 39.0625 26.5625 35.734375 
Q 21.484375 32.421875 17.96875 24.21875 
L 17.96875 1.953125 
L 10.15625 1.953125 
L 10.15625 45.703125 
L 17.96875 45.703125 
L 17.96875 34.375 
Q 21.484375 40.625 26.75 43.546875 
Q 32.03125 46.484375 39.0625 46.484375 
z
" id="SimHei-72"/>
      <path d="M 44.140625 23.828125 
Q 44.140625 12.5 38.671875 6.828125 
Q 33.203125 1.171875 25.390625 1.171875 
Q 21.09375 1.171875 17.96875 2.734375 
Q 14.84375 4.296875 12.5 7.8125 
L 12.5 1.953125 
L 4.6875 1.953125 
L 4.6875 68.75 
L 12.5 68.75 
L 12.5 39.84375 
Q 14.84375 43.359375 17.96875 45.109375 
Q 21.09375 46.875 25.390625 46.875 
Q 33.203125 46.875 38.671875 41.015625 
Q 44.140625 35.15625 44.140625 23.828125 
z
M 35.546875 23.828125 
Q 35.546875 31.25 32.609375 35.546875 
Q 29.6875 39.84375 23.828125 39.84375 
Q 19.140625 39.84375 15.8125 35.546875 
Q 12.5 31.25 12.5 23.828125 
Q 12.5 16.40625 15.8125 12.296875 
Q 19.140625 8.203125 23.828125 8.203125 
Q 29.6875 8.203125 32.609375 12.296875 
Q 35.546875 16.40625 35.546875 23.828125 
z
" id="SimHei-62"/>
      <path d="M 44.921875 1.953125 
L 35.546875 1.953125 
Q 34.765625 2.734375 34.375 4.09375 
Q 33.984375 5.46875 33.984375 7.421875 
Q 31.25 4.296875 27.34375 2.734375 
Q 23.4375 1.171875 19.140625 1.171875 
Q 12.890625 1.171875 8.59375 4.296875 
Q 4.296875 7.421875 4.296875 13.28125 
Q 4.296875 19.140625 8.203125 22.65625 
Q 12.109375 26.171875 20.3125 27.34375 
Q 25.78125 28.125 29.875 29.296875 
Q 33.984375 30.46875 33.984375 32.421875 
Q 33.984375 34.765625 32.21875 37.109375 
Q 30.46875 39.453125 24.609375 39.453125 
Q 19.921875 39.453125 17.765625 37.6875 
Q 15.625 35.9375 14.84375 32.8125 
L 6.25 32.8125 
Q 7.03125 39.0625 11.90625 42.765625 
Q 16.796875 46.484375 24.609375 46.484375 
Q 33.203125 46.484375 37.5 42.578125 
Q 41.796875 38.671875 41.796875 31.640625 
L 41.796875 10.15625 
Q 41.796875 7.8125 42.578125 5.859375 
Q 43.359375 3.90625 44.921875 1.953125 
z
M 33.984375 16.40625 
L 33.984375 24.21875 
Q 31.640625 23.4375 29.484375 22.84375 
Q 27.34375 22.265625 22.265625 21.484375 
Q 16.40625 20.703125 14.640625 18.75 
Q 12.890625 16.796875 12.890625 14.0625 
Q 12.890625 11.71875 14.640625 9.953125 
Q 16.40625 8.203125 19.921875 8.203125 
Q 23.4375 8.203125 27.53125 10.15625 
Q 31.640625 12.109375 33.984375 16.40625 
z
" id="SimHei-61"/>
      <path d="M 28.515625 1.953125 
L 20.703125 1.953125 
L 20.703125 68.75 
L 28.515625 68.75 
z
" id="SimHei-6c"/>
      <path d="M 42.96875 3.125 
Q 41.015625 2.34375 38.46875 1.75 
Q 35.9375 1.171875 31.640625 1.171875 
Q 24.609375 1.171875 20.3125 5.078125 
Q 16.015625 8.984375 16.015625 16.015625 
L 16.015625 39.453125 
L 2.734375 39.453125 
L 2.734375 45.703125 
L 16.015625 45.703125 
L 16.015625 60.9375 
L 23.828125 60.9375 
L 23.828125 45.703125 
L 39.84375 45.703125 
L 39.84375 39.453125 
L 23.828125 39.453125 
L 23.828125 15.625 
Q 23.828125 12.5 25.390625 10.34375 
Q 26.953125 8.203125 31.25 8.203125 
Q 35.546875 8.203125 38.28125 8.984375 
Q 41.015625 9.765625 42.96875 10.9375 
z
" id="SimHei-74"/>
      <path d="M 45.3125 45.703125 
L 27.34375 -1.5625 
Q 25.78125 -7.03125 22.65625 -9.765625 
Q 19.53125 -12.5 14.84375 -12.5 
Q 12.890625 -12.5 11.125 -12.296875 
Q 9.375 -12.109375 7.8125 -11.328125 
L 7.8125 -3.515625 
Q 9.375 -4.296875 10.9375 -4.6875 
Q 12.5 -5.078125 13.671875 -5.078125 
Q 16.796875 -5.078125 17.96875 -4.09375 
Q 19.140625 -3.125 20.3125 0.390625 
L 3.125 45.703125 
L 11.71875 45.703125 
L 24.21875 11.328125 
L 24.609375 11.328125 
L 36.71875 45.703125 
z
" id="SimHei-79"/>
      <path d="M 46.484375 39.0625 
Q 43.75 39.84375 41.203125 40.03125 
Q 38.671875 40.234375 35.9375 39.453125 
Q 37.109375 38.28125 37.890625 36.515625 
Q 38.671875 34.765625 38.671875 31.25 
Q 38.671875 24.609375 34.171875 20.3125 
Q 29.6875 16.015625 23.046875 16.015625 
Q 21.484375 16.015625 18.9375 16.59375 
Q 16.40625 17.1875 14.84375 17.96875 
Q 13.671875 17.1875 13.28125 16.40625 
Q 12.890625 15.625 12.890625 14.453125 
Q 12.890625 12.5 15.625 11.515625 
Q 18.359375 10.546875 25.390625 10.546875 
Q 36.71875 10.546875 40.8125 7.421875 
Q 44.921875 4.296875 44.921875 -0.390625 
Q 44.921875 -6.640625 38.859375 -9.5625 
Q 32.8125 -12.5 24.609375 -12.5 
Q 14.0625 -12.5 8.984375 -9.765625 
Q 3.90625 -7.03125 3.90625 -2.34375 
Q 3.90625 0 5.859375 2.34375 
Q 7.8125 4.6875 10.9375 6.25 
Q 8.59375 7.421875 7.21875 9.171875 
Q 5.859375 10.9375 5.859375 13.671875 
Q 5.859375 16.015625 7.609375 17.765625 
Q 9.375 19.53125 11.71875 20.703125 
Q 9.765625 22.65625 8.59375 25.390625 
Q 7.421875 28.125 7.421875 31.25 
Q 7.421875 37.890625 11.90625 42.1875 
Q 16.40625 46.484375 23.046875 46.484375 
Q 26.5625 46.484375 29.09375 45.5 
Q 31.640625 44.53125 33.59375 42.578125 
Q 36.71875 44.921875 39.84375 45.890625 
Q 42.96875 46.875 46.484375 46.484375 
z
M 30.859375 31.25 
Q 30.859375 35.15625 28.90625 37.5 
Q 26.953125 39.84375 23.046875 39.84375 
Q 19.140625 39.84375 17.1875 37.5 
Q 15.234375 35.15625 15.234375 31.25 
Q 15.234375 27.34375 17.1875 25 
Q 19.140625 22.65625 23.046875 22.65625 
Q 26.953125 22.65625 28.90625 25 
Q 30.859375 27.34375 30.859375 31.25 
z
M 37.5 -1.171875 
Q 37.5 0.390625 35.734375 1.953125 
Q 33.984375 3.515625 26.953125 3.515625 
Q 25.390625 3.515625 22.65625 3.703125 
Q 19.921875 3.90625 16.40625 4.296875 
Q 13.28125 3.125 12.109375 1.5625 
Q 10.9375 0 10.9375 -1.5625 
Q 10.9375 -3.90625 14.0625 -5.46875 
Q 17.1875 -7.03125 25 -7.03125 
Q 31.640625 -7.03125 34.5625 -5.265625 
Q 37.5 -3.515625 37.5 -1.171875 
z
" id="SimHei-67"/>
      <path d="M 44.53125 16.796875 
Q 43.75 9.765625 38.28125 5.46875 
Q 32.8125 1.171875 25.390625 1.171875 
Q 16.015625 1.171875 9.953125 7.21875 
Q 3.90625 13.28125 3.90625 23.828125 
Q 3.90625 34.375 9.953125 40.421875 
Q 16.015625 46.484375 25.390625 46.484375 
Q 33.59375 46.484375 38.859375 41.203125 
Q 44.140625 35.9375 44.140625 23.828125 
L 12.5 23.828125 
Q 12.5 15.234375 16.203125 11.71875 
Q 19.921875 8.203125 25.390625 8.203125 
Q 29.6875 8.203125 32.421875 10.34375 
Q 35.15625 12.5 35.9375 16.796875 
z
M 35.15625 30.078125 
Q 34.375 35.546875 31.640625 37.6875 
Q 28.90625 39.84375 24.609375 39.84375 
Q 20.703125 39.84375 17.578125 37.6875 
Q 14.453125 35.546875 12.890625 30.078125 
z
" id="SimHei-65"/>
     </defs>
     <g transform="translate(66.2 263.45)scale(0.15 -0.15)">
      <use xlink:href="#SimHei-70"/>
      <use x="50" xlink:href="#SimHei-72"/>
      <use x="100" xlink:href="#SimHei-6f"/>
      <use x="150" xlink:href="#SimHei-62"/>
      <use x="200" xlink:href="#SimHei-61"/>
      <use x="250" xlink:href="#SimHei-62"/>
      <use x="300" xlink:href="#SimHei-69"/>
      <use x="350" xlink:href="#SimHei-6c"/>
      <use x="400" xlink:href="#SimHei-69"/>
      <use x="450" xlink:href="#SimHei-74"/>
      <use x="500" xlink:href="#SimHei-79"/>
      <use x="550" xlink:href="#SimHei-20"/>
      <use x="600" xlink:href="#SimHei-6f"/>
      <use x="650" xlink:href="#SimHei-66"/>
      <use x="700" xlink:href="#SimHei-20"/>
      <use x="750" xlink:href="#SimHei-61"/>
      <use x="800" xlink:href="#SimHei-62"/>
      <use x="850" xlink:href="#SimHei-73"/>
      <use x="900" xlink:href="#SimHei-6f"/>
      <use x="950" xlink:href="#SimHei-72"/>
      <use x="1000" xlink:href="#SimHei-62"/>
      <use x="1050" xlink:href="#SimHei-69"/>
      <use x="1100" xlink:href="#SimHei-6e"/>
      <use x="1150" xlink:href="#SimHei-67"/>
      <use x="1200" xlink:href="#SimHei-20"/>
      <use x="1250" xlink:href="#SimHei-73"/>
      <use x="1300" xlink:href="#SimHei-74"/>
      <use x="1350" xlink:href="#SimHei-61"/>
      <use x="1400" xlink:href="#SimHei-74"/>
      <use x="1450" xlink:href="#SimHei-65"/>
     </g>
    </g>
    <g id="Path3DCollection_4">
     <g>
      <use style="fill:#008000;stroke:#008000;" x="39.2" xlink:href="#m64712bb8e5" y="279.3875"/>
     </g>
    </g>
    <g id="text_29">
     <!-- start state -->
     <g transform="translate(66.2 283.325)scale(0.15 -0.15)">
      <use xlink:href="#SimHei-73"/>
      <use x="50" xlink:href="#SimHei-74"/>
      <use x="100" xlink:href="#SimHei-61"/>
      <use x="150" xlink:href="#SimHei-72"/>
      <use x="200" xlink:href="#SimHei-74"/>
      <use x="250" xlink:href="#SimHei-20"/>
      <use x="300" xlink:href="#SimHei-73"/>
      <use x="350" xlink:href="#SimHei-74"/>
      <use x="400" xlink:href="#SimHei-61"/>
      <use x="450" xlink:href="#SimHei-74"/>
      <use x="500" xlink:href="#SimHei-65"/>
     </g>
    </g>
   </g>
  </g>
 </g>
 <defs>
  <clipPath id="p09d047e7c9">
   <rect height="288" width="360" x="10.7" y="10.7"/>
  </clipPath>
 </defs>
</svg>
