<?xml version="1.0" encoding="utf-8" standalone="no"?>
<!DOCTYPE svg PUBLIC "-//W3C//DTD SVG 1.1//EN"
  "http://www.w3.org/Graphics/SVG/1.1/DTD/svg11.dtd">
<!-- Created with matplotlib (http://matplotlib.org/) -->
<svg height="309.4pt" version="1.1" viewBox="0 0 381.4 309.4" width="381.4pt" xmlns="http://www.w3.org/2000/svg" xmlns:xlink="http://www.w3.org/1999/xlink">
 <defs>
  <style type="text/css">
*{stroke-linecap:butt;stroke-linejoin:round;}
  </style>
 </defs>
 <g id="figure_1">
  <g id="patch_1">
   <path d="M 0 309.4 
L 381.4 309.4 
L 381.4 0 
L 0 0 
z
" style="fill:none;"/>
  </g>
  <g id="patch_2">
   <path d="M 10.7 298.7 
L 370.7 298.7 
L 370.7 10.7 
L 10.7 10.7 
z
" style="fill:#ffffff;"/>
  </g>
  <g id="pane3d_1">
   <g id="patch_3">
    <path d="M 219.619567 185.462306 
L 335.768129 233.715199 
L 340.919918 79.597002 
L 220.435568 41.545085 
" style="fill:#f2f2f2;opacity:0.5;stroke:#f2f2f2;stroke-linejoin:miter;"/>
   </g>
  </g>
  <g id="pane3d_2">
   <g id="patch_4">
    <path d="M 219.619567 185.462306 
L 58.794045 217.8137 
L 53.895826 67.034254 
L 220.435568 41.545085 
" style="fill:#e6e6e6;opacity:0.5;stroke:#e6e6e6;stroke-linejoin:miter;"/>
   </g>
  </g>
  <g id="pane3d_3">
   <g id="patch_5">
    <path d="M 219.619567 185.462306 
L 58.794045 217.8137 
L 168.062833 271.631196 
L 335.768129 233.715199 
" style="fill:#ececec;opacity:0.5;stroke:#ececec;stroke-linejoin:miter;"/>
   </g>
  </g>
  <g id="axis3d_1">
   <g id="line2d_1">
    <path d="M 335.768129 233.715199 
L 168.062833 271.631196 
" style="fill:none;stroke:#000000;stroke-linecap:square;stroke-width:0.8;"/>
   </g>
   <g id="text_1">
    <!-- coins of 大熊 -->
    <defs>
     <path d="M 44.53125 19.53125 
Q 44.53125 11.328125 38.859375 6.25 
Q 33.203125 1.171875 24.609375 1.171875 
Q 16.015625 1.171875 9.765625 7.21875 
Q 3.515625 13.28125 3.515625 23.828125 
Q 3.515625 34.375 9.765625 40.421875 
Q 16.015625 46.484375 24.609375 46.484375 
Q 33.203125 46.484375 38.28125 41.984375 
Q 43.359375 37.5 43.359375 31.25 
L 34.765625 31.25 
Q 34.375 35.9375 31.4375 37.6875 
Q 28.515625 39.453125 24.609375 39.453125 
Q 19.921875 39.453125 16.015625 35.734375 
Q 12.109375 32.03125 12.109375 23.828125 
Q 12.109375 15.625 16.015625 11.90625 
Q 19.921875 8.203125 24.609375 8.203125 
Q 29.6875 8.203125 32.8125 10.9375 
Q 35.9375 13.671875 35.9375 19.53125 
z
" id="SimHei-63"/>
     <path d="M 45.703125 23.828125 
Q 45.703125 13.671875 39.453125 7.421875 
Q 33.203125 1.171875 24.609375 1.171875 
Q 16.015625 1.171875 9.765625 7.421875 
Q 3.515625 13.671875 3.515625 23.828125 
Q 3.515625 33.984375 9.765625 40.234375 
Q 16.015625 46.484375 24.609375 46.484375 
Q 33.203125 46.484375 39.453125 40.234375 
Q 45.703125 33.984375 45.703125 23.828125 
z
M 37.109375 23.828125 
Q 37.109375 31.640625 33.203125 35.546875 
Q 29.296875 39.453125 24.609375 39.453125 
Q 19.921875 39.453125 16.015625 35.546875 
Q 12.109375 31.640625 12.109375 23.828125 
Q 12.109375 16.015625 16.015625 12.109375 
Q 19.921875 8.203125 24.609375 8.203125 
Q 29.296875 8.203125 33.203125 12.109375 
Q 37.109375 16.015625 37.109375 23.828125 
z
" id="SimHei-6f"/>
     <path d="M 28.125 58.203125 
L 20.3125 58.203125 
L 20.3125 68.359375 
L 28.125 68.359375 
z
M 28.125 1.953125 
L 20.3125 1.953125 
L 20.3125 45.703125 
L 28.125 45.703125 
z
" id="SimHei-69"/>
     <path d="M 43.75 1.953125 
L 35.9375 1.953125 
L 35.9375 30.078125 
Q 35.9375 34.765625 33.59375 37.5 
Q 31.25 40.234375 27.34375 40.234375 
Q 22.265625 40.234375 17.765625 34.953125 
Q 13.28125 29.6875 13.28125 21.875 
L 13.28125 1.953125 
L 5.46875 1.953125 
L 5.46875 45.703125 
L 13.28125 45.703125 
L 13.28125 37.5 
Q 16.40625 41.796875 20.109375 44.140625 
Q 23.828125 46.484375 29.6875 46.484375 
Q 36.71875 46.484375 40.234375 42.578125 
Q 43.75 38.671875 43.75 32.8125 
z
" id="SimHei-6e"/>
     <path d="M 42.96875 14.0625 
Q 42.96875 7.8125 38.078125 4.484375 
Q 33.203125 1.171875 25.78125 1.171875 
Q 16.40625 1.171875 11.328125 4.875 
Q 6.25 8.59375 6.25 15.625 
L 14.0625 15.625 
Q 14.0625 10.9375 17.375 9.375 
Q 20.703125 7.8125 25.390625 7.8125 
Q 30.078125 7.8125 32.421875 9.5625 
Q 34.765625 11.328125 34.765625 14.0625 
Q 34.765625 16.015625 32.8125 17.96875 
Q 30.859375 19.921875 23.046875 21.09375 
Q 14.0625 22.265625 10.734375 25.578125 
Q 7.421875 28.90625 7.421875 34.375 
Q 7.421875 39.0625 11.90625 42.765625 
Q 16.40625 46.484375 25 46.484375 
Q 32.8125 46.484375 37.296875 42.96875 
Q 41.796875 39.453125 41.796875 33.59375 
L 33.984375 33.59375 
Q 33.984375 37.109375 31.4375 38.46875 
Q 28.90625 39.84375 25 39.84375 
Q 19.921875 39.84375 17.765625 38.078125 
Q 15.625 36.328125 15.625 33.984375 
Q 15.625 31.25 17.578125 29.6875 
Q 19.53125 28.125 25.78125 27.34375 
Q 35.9375 25.78125 39.453125 22.453125 
Q 42.96875 19.140625 42.96875 14.0625 
z
" id="SimHei-73"/>
     <path id="SimHei-20"/>
     <path d="M 44.53125 59.765625 
Q 42.578125 60.9375 39.84375 61.71875 
Q 37.109375 62.5 32.8125 62.5 
Q 28.515625 62.5 26.953125 60.34375 
Q 25.390625 58.203125 25.390625 55.078125 
L 25.390625 45.703125 
L 41.40625 45.703125 
L 41.40625 39.453125 
L 25.390625 39.453125 
L 25.390625 1.953125 
L 17.578125 1.953125 
L 17.578125 39.453125 
L 4.296875 39.453125 
L 4.296875 45.703125 
L 17.578125 45.703125 
L 17.578125 54.6875 
Q 17.578125 61.71875 21.875 65.625 
Q 26.171875 69.53125 33.203125 69.53125 
Q 37.5 69.53125 40.03125 68.9375 
Q 42.578125 68.359375 44.53125 67.578125 
z
" id="SimHei-66"/>
     <path d="M 45.3125 53.125 
Q 45.703125 66.796875 45.5 71.484375 
Q 45.3125 76.171875 44.921875 80.46875 
Q 49.609375 79.6875 55.46875 79.296875 
Q 54.296875 75.390625 53.703125 67.96875 
Q 53.125 60.546875 53.125 53.125 
L 73.046875 53.125 
Q 83.59375 53.125 92.578125 53.90625 
L 92.578125 45.3125 
Q 84.765625 45.703125 76.5625 45.703125 
L 53.515625 45.703125 
Q 55.078125 39.0625 58.984375 32.21875 
Q 62.890625 25.390625 66.984375 20.109375 
Q 71.09375 14.84375 78.3125 8.984375 
Q 85.546875 3.125 94.140625 -0.78125 
Q 91.015625 -3.125 87.890625 -8.59375 
Q 80.859375 -4.6875 74.015625 1.171875 
Q 67.1875 7.03125 60.34375 16.59375 
Q 53.515625 26.171875 50 34.375 
Q 46.875 25.78125 43.359375 20.109375 
Q 39.84375 14.453125 35.734375 9.765625 
Q 31.640625 5.078125 25.1875 0.390625 
Q 18.75 -4.296875 10.546875 -8.984375 
Q 7.421875 -4.296875 3.515625 -0.78125 
Q 11.71875 1.953125 19.71875 7.03125 
Q 27.734375 12.109375 32.8125 18.546875 
Q 37.890625 25 41.015625 32.03125 
Q 44.140625 39.0625 44.921875 45.703125 
L 23.4375 45.703125 
Q 14.0625 45.703125 8.59375 45.3125 
L 8.59375 53.90625 
Q 14.0625 53.515625 23.4375 53.125 
z
" id="SimHei-5927"/>
     <path d="M 49.609375 52.34375 
Q 49.21875 46.484375 49.21875 40.625 
L 49.21875 19.53125 
Q 49.21875 15.234375 46.484375 13.859375 
Q 43.75 12.5 34.765625 11.328125 
Q 33.59375 14.84375 31.640625 18.359375 
Q 38.671875 18.75 40.421875 18.9375 
Q 42.1875 19.140625 41.796875 23.4375 
L 18.359375 23.4375 
L 18.359375 12.5 
L 10.15625 12.5 
Q 10.546875 25 10.546875 33.59375 
Q 10.546875 42.1875 10.15625 52.34375 
L 49.609375 52.34375 
z
M 65.625 45.3125 
Q 65.234375 41.015625 65.234375 34.375 
Q 81.640625 38.671875 88.28125 43.359375 
Q 90.234375 39.453125 93.359375 36.71875 
Q 85.9375 34.765625 65.625 28.125 
L 65.625 23.046875 
Q 65.625 19.53125 70.703125 19.53125 
L 80.46875 19.53125 
Q 83.59375 19.53125 85.15625 20.890625 
Q 86.71875 22.265625 88.28125 28.125 
Q 92.1875 26.171875 96.875 25.390625 
Q 93.359375 17.1875 91.40625 15.234375 
Q 89.453125 13.28125 83.984375 13.28125 
L 65.234375 13.28125 
Q 57.03125 13.28125 57.03125 19.53125 
L 57.03125 37.5 
Q 57.03125 40.625 56.640625 45.3125 
L 65.625 45.3125 
z
M 92.578125 69.140625 
Q 78.515625 65.234375 64.84375 61.328125 
Q 64.84375 54.6875 68.359375 54.6875 
L 80.46875 54.6875 
Q 83.203125 54.6875 84.765625 56.4375 
Q 86.328125 58.203125 86.71875 62.5 
Q 90.234375 60.9375 94.921875 59.765625 
Q 92.96875 51.5625 90.421875 50.1875 
Q 87.890625 48.828125 82.8125 48.828125 
L 64.84375 48.828125 
Q 57.03125 48.828125 57.03125 54.296875 
L 57.03125 71.09375 
Q 57.03125 75.78125 56.640625 80.46875 
L 65.625 80.46875 
Q 65.234375 75.390625 65.234375 67.1875 
Q 78.515625 70.3125 86.328125 76.171875 
Q 88.671875 72.65625 92.578125 69.140625 
z
M 32.03125 78.125 
Q 24.609375 71.484375 16.40625 62.890625 
Q 22.65625 63.28125 40.625 65.234375 
Q 38.671875 67.578125 35.546875 70.703125 
Q 39.0625 72.265625 42.96875 74.21875 
Q 51.171875 63.28125 55.078125 58.59375 
Q 51.171875 57.03125 48.046875 54.6875 
L 44.53125 59.765625 
Q 42.578125 59.375 33.203125 58.59375 
Q 23.828125 57.8125 9.375 55.859375 
Q 7.421875 59.375 6.25 62.890625 
Q 10.15625 64.84375 14.640625 69.53125 
Q 19.140625 74.21875 23.4375 82.03125 
Q 27.734375 79.6875 32.03125 78.125 
z
M 41.796875 28.90625 
L 41.796875 35.546875 
L 18.359375 35.546875 
L 18.359375 28.90625 
z
M 20.3125 6.640625 
Q 17.1875 3.125 11.71875 -9.765625 
Q 6.640625 -7.8125 3.90625 -7.03125 
Q 6.640625 -1.5625 11.71875 8.984375 
Q 15.625 7.8125 20.3125 6.640625 
z
M 85.9375 10.15625 
Q 92.578125 -1.953125 94.140625 -5.46875 
Q 89.84375 -6.640625 86.328125 -8.59375 
Q 83.984375 -2.34375 78.515625 7.03125 
Q 81.25 8.203125 85.9375 10.15625 
z
M 41.796875 41.015625 
L 41.796875 46.875 
L 18.359375 46.875 
L 18.359375 41.015625 
z
M 62.890625 8.59375 
Q 65.625 -1.953125 66.40625 -5.859375 
L 58.59375 -7.421875 
Q 57.421875 -3.90625 55.46875 7.421875 
Q 58.59375 8.203125 62.890625 8.59375 
z
M 39.84375 7.421875 
Q 40.234375 3.90625 42.578125 -6.640625 
Q 38.671875 -6.640625 34.375 -7.8125 
Q 33.59375 -3.125 32.03125 6.640625 
Q 35.15625 7.421875 39.84375 7.421875 
z
" id="SimHei-718a"/>
    </defs>
    <g style="fill:#800080;" transform="translate(235.061813 295.570823)rotate(-12.739652)scale(0.12 -0.12)">
     <use xlink:href="#SimHei-63"/>
     <use x="50" xlink:href="#SimHei-6f"/>
     <use x="100" xlink:href="#SimHei-69"/>
     <use x="150" xlink:href="#SimHei-6e"/>
     <use x="200" xlink:href="#SimHei-73"/>
     <use x="250" xlink:href="#SimHei-20"/>
     <use x="300" xlink:href="#SimHei-6f"/>
     <use x="350" xlink:href="#SimHei-66"/>
     <use x="400" xlink:href="#SimHei-20"/>
     <use x="450" xlink:href="#SimHei-5927"/>
     <use x="550" xlink:href="#SimHei-718a"/>
    </g>
   </g>
   <g id="Line3DCollection_1">
    <path d="M 325.649087 236.002984 
L 209.876104 187.422284 
L 210.363217 43.086674 
" style="fill:none;stroke:#b0b0b0;stroke-width:0.8;"/>
    <path d="M 305.615951 240.532216 
L 190.60155 191.299522 
L 190.43149 46.137256 
" style="fill:none;stroke:#b0b0b0;stroke-width:0.8;"/>
    <path d="M 285.302458 245.124834 
L 171.077619 195.226923 
L 170.232989 49.228668 
" style="fill:none;stroke:#b0b0b0;stroke-width:0.8;"/>
    <path d="M 264.70268 249.782177 
L 151.299439 199.205469 
L 149.762321 52.361736 
" style="fill:none;stroke:#b0b0b0;stroke-width:0.8;"/>
    <path d="M 243.810523 254.505623 
L 131.262013 203.236164 
L 129.013948 55.537307 
" style="fill:none;stroke:#b0b0b0;stroke-width:0.8;"/>
    <path d="M 222.619718 259.29659 
L 110.960209 207.320041 
L 107.982181 58.756252 
" style="fill:none;stroke:#b0b0b0;stroke-width:0.8;"/>
    <path d="M 201.123814 264.156536 
L 90.38876 211.458159 
L 86.661174 62.019466 
" style="fill:none;stroke:#b0b0b0;stroke-width:0.8;"/>
    <path d="M 179.316176 269.086961 
L 69.542258 215.651607 
L 65.044918 65.327868 
" style="fill:none;stroke:#b0b0b0;stroke-width:0.8;"/>
   </g>
   <g id="xtick_1">
    <g id="line2d_2">
     <path d="M 324.648958 235.583309 
L 327.653217 236.843957 
" style="fill:none;stroke:#000000;stroke-linecap:square;stroke-width:0.8;"/>
    </g>
    <g id="text_2">
     <!-- 0 -->
     <defs>
      <path d="M 3.125 29.296875 
Q 3.90625 50 6.4375 56.046875 
Q 8.984375 62.109375 13.671875 66.015625 
Q 18.359375 69.921875 25.1875 69.921875 
Q 32.03125 69.921875 37.109375 64.25 
Q 42.1875 58.59375 43.75 50 
Q 45.3125 41.40625 44.71875 30.265625 
Q 44.140625 19.140625 40.8125 12.109375 
Q 37.5 5.078125 30.859375 2.34375 
Q 24.21875 -0.390625 17.578125 2.921875 
Q 10.9375 6.25 8.203125 11.71875 
Q 5.46875 17.1875 4.296875 23.234375 
Q 3.125 29.296875 3.90625 50 
z
M 12.890625 52.734375 
Q 10.546875 31.25 12.5 22.84375 
Q 14.453125 14.453125 18.9375 10.9375 
Q 23.4375 7.421875 28.125 9.5625 
Q 32.8125 11.71875 34.953125 18.15625 
Q 37.109375 24.609375 37.109375 32.21875 
Q 37.109375 39.84375 36.515625 46.09375 
Q 35.9375 52.34375 33 57.421875 
Q 30.078125 62.5 25.1875 62.6875 
Q 20.3125 62.890625 16.59375 57.8125 
Q 12.890625 52.734375 10.546875 31.25 
z
" id="SimHei-30"/>
     </defs>
     <g transform="translate(330.134125 260.095778)scale(0.15 -0.15)">
      <use xlink:href="#SimHei-30"/>
     </g>
    </g>
   </g>
   <g id="xtick_2">
    <g id="line2d_3">
     <path d="M 304.621865 240.106691 
L 307.607998 241.384926 
" style="fill:none;stroke:#000000;stroke-linecap:square;stroke-width:0.8;"/>
    </g>
    <g id="text_3">
     <!-- 2 -->
     <defs>
      <path d="M 4.6875 3.90625 
Q 5.078125 9.765625 10.15625 14.453125 
Q 15.234375 19.140625 23.046875 29.09375 
Q 30.859375 39.0625 33.203125 44.53125 
Q 35.546875 50 34.953125 53.90625 
Q 34.375 57.8125 31.25 60.34375 
Q 28.125 62.890625 24.015625 62.5 
Q 19.921875 62.109375 16.203125 59.375 
Q 12.5 56.640625 10.546875 51.171875 
L 3.125 52.34375 
Q 6.25 61.328125 11.125 65.421875 
Q 16.015625 69.53125 22.65625 69.921875 
Q 26.5625 70.3125 29.6875 69.71875 
Q 32.8125 69.140625 36.125 66.984375 
Q 39.453125 64.84375 41.59375 60.546875 
Q 43.75 56.25 43.15625 50.1875 
Q 42.578125 44.140625 37.109375 35.734375 
Q 31.640625 27.34375 16.015625 9.375 
L 44.140625 9.375 
L 44.140625 2.34375 
L 4.6875 2.34375 
z
" id="SimHei-32"/>
     </defs>
     <g transform="translate(310.096382 264.735082)scale(0.15 -0.15)">
      <use xlink:href="#SimHei-32"/>
     </g>
    </g>
   </g>
   <g id="xtick_3">
    <g id="line2d_4">
     <path d="M 284.314682 244.693335 
L 287.281886 245.989527 
" style="fill:none;stroke:#000000;stroke-linecap:square;stroke-width:0.8;"/>
    </g>
    <g id="text_4">
     <!-- 4 -->
     <defs>
      <path d="M 31.25 17.1875 
L 1.171875 17.1875 
L 1.171875 23.828125 
L 32.8125 69.53125 
L 38.671875 69.53125 
L 38.671875 23.828125 
L 48.046875 23.828125 
L 48.046875 17.1875 
L 38.671875 17.1875 
L 38.671875 2.34375 
L 31.25 2.34375 
z
M 31.25 23.828125 
L 31.25 54.6875 
L 9.375 23.828125 
z
" id="SimHei-34"/>
     </defs>
     <g transform="translate(289.777342 269.439513)scale(0.15 -0.15)">
      <use xlink:href="#SimHei-34"/>
     </g>
    </g>
   </g>
   <g id="xtick_4">
    <g id="line2d_5">
     <path d="M 263.721492 249.344577 
L 266.668935 250.659107 
" style="fill:none;stroke:#000000;stroke-linecap:square;stroke-width:0.8;"/>
    </g>
    <g id="text_5">
     <!-- 6 -->
     <defs>
      <path d="M 3.515625 19.53125 
Q 4.296875 30.859375 6.046875 34.765625 
Q 7.8125 38.671875 11.328125 44.53125 
L 27.34375 69.53125 
L 36.328125 69.53125 
L 19.921875 43.75 
Q 30.46875 46.484375 36.71875 42.96875 
Q 42.96875 39.453125 45.109375 34.953125 
Q 47.265625 30.46875 47.453125 25.1875 
Q 47.65625 19.921875 45.890625 14.84375 
Q 44.140625 9.765625 39.640625 5.65625 
Q 35.15625 1.5625 27.140625 1.171875 
Q 19.140625 0.78125 13.46875 4.09375 
Q 7.8125 7.421875 5.65625 13.46875 
Q 3.515625 19.53125 4.296875 30.859375 
z
M 12.5 16.015625 
Q 19.53125 8.59375 25.390625 8.203125 
Q 31.25 7.8125 35.15625 12.109375 
Q 39.0625 16.40625 39.0625 24.609375 
Q 39.0625 32.8125 34.171875 35.9375 
Q 29.296875 39.0625 23.234375 38.28125 
Q 17.1875 37.5 14.453125 32.421875 
Q 11.71875 27.34375 12.109375 21.671875 
Q 12.5 16.015625 19.53125 8.59375 
z
" id="SimHei-36"/>
     </defs>
     <g transform="translate(269.171041 274.210454)scale(0.15 -0.15)">
      <use xlink:href="#SimHei-36"/>
     </g>
    </g>
   </g>
   <g id="xtick_5">
    <g id="line2d_6">
     <path d="M 242.83621 254.061792 
L 245.763028 255.395052 
" style="fill:none;stroke:#000000;stroke-linecap:square;stroke-width:0.8;"/>
    </g>
    <g id="text_6">
     <!-- 8 -->
     <defs>
      <path d="M 2.734375 16.796875 
Q 2.734375 26.171875 5.078125 30.65625 
Q 7.421875 35.15625 12.890625 37.890625 
Q 8.203125 40.625 6.640625 43.9375 
Q 5.078125 47.265625 4.875 51.5625 
Q 4.6875 55.859375 6.046875 58.984375 
Q 7.421875 62.109375 10.15625 64.84375 
Q 12.890625 67.578125 16.203125 68.546875 
Q 19.53125 69.53125 23.4375 69.53125 
Q 27.34375 69.53125 30.46875 68.75 
Q 33.59375 67.96875 37.109375 65.421875 
Q 40.625 62.890625 42.1875 58.203125 
Q 43.75 53.515625 41.984375 47.265625 
Q 40.234375 41.015625 32.8125 37.5 
Q 39.453125 35.546875 42.1875 31.4375 
Q 44.921875 27.34375 44.921875 21.484375 
Q 44.921875 15.625 43.15625 12.109375 
Q 41.40625 8.59375 39.25 6.25 
Q 37.109375 3.90625 33.390625 2.53125 
Q 29.6875 1.171875 24.015625 1.171875 
Q 18.359375 1.171875 14.25 2.53125 
Q 10.15625 3.90625 7.421875 6.640625 
Q 4.6875 9.375 3.703125 13.078125 
Q 2.734375 16.796875 2.734375 26.171875 
z
M 10.9375 26.5625 
Q 10.546875 17.1875 12.296875 13.671875 
Q 14.0625 10.15625 18.75 9.171875 
Q 23.4375 8.203125 28.515625 9.375 
Q 33.59375 10.546875 35.546875 14.84375 
Q 37.5 19.140625 36.90625 23.4375 
Q 36.328125 27.734375 32.03125 30.65625 
Q 27.734375 33.59375 22.65625 33.203125 
Q 17.578125 32.8125 14.25 29.6875 
Q 10.9375 26.5625 10.546875 17.1875 
z
M 12.109375 56.25 
Q 12.109375 48.4375 14.84375 44.921875 
Q 17.578125 41.40625 23.4375 41.40625 
Q 29.296875 41.40625 32.21875 44.921875 
Q 35.15625 48.4375 34.953125 53.3125 
Q 34.765625 58.203125 31.4375 60.546875 
Q 28.125 62.890625 22.453125 62.5 
Q 16.796875 62.109375 14.453125 59.171875 
Q 12.109375 56.25 12.109375 48.4375 
z
" id="SimHei-38"/>
     </defs>
     <g transform="translate(248.271344 279.049324)scale(0.15 -0.15)">
      <use xlink:href="#SimHei-38"/>
     </g>
    </g>
   </g>
   <g id="xtick_6">
    <g id="line2d_7">
     <path d="M 221.652577 258.846394 
L 224.557878 260.198787 
" style="fill:none;stroke:#000000;stroke-linecap:square;stroke-width:0.8;"/>
    </g>
    <g id="text_7">
     <!-- 10 -->
     <defs>
      <path d="M 21.875 56.25 
Q 16.796875 51.171875 8.984375 46.484375 
L 8.984375 53.90625 
Q 18.75 60.546875 25 69.53125 
L 29.6875 69.53125 
L 29.6875 2.34375 
L 21.875 2.34375 
z
" id="SimHei-31"/>
     </defs>
     <g transform="translate(223.321939 283.957585)scale(0.15 -0.15)">
      <use xlink:href="#SimHei-31"/>
      <use x="50" xlink:href="#SimHei-30"/>
     </g>
    </g>
   </g>
   <g id="xtick_7">
    <g id="line2d_8">
     <path d="M 200.164153 263.699837 
L 203.047012 265.071778 
" style="fill:none;stroke:#000000;stroke-linecap:square;stroke-width:0.8;"/>
    </g>
    <g id="text_8">
     <!-- 12 -->
     <g transform="translate(201.816333 288.936741)scale(0.15 -0.15)">
      <use xlink:href="#SimHei-31"/>
      <use x="50" xlink:href="#SimHei-32"/>
     </g>
    </g>
   </g>
   <g id="xtick_8">
    <g id="line2d_9">
     <path d="M 178.364314 268.623617 
L 181.22377 270.015533 
" style="fill:none;stroke:#000000;stroke-linecap:square;stroke-width:0.8;"/>
    </g>
    <g id="text_9">
     <!-- 14 -->
     <g transform="translate(179.997844 293.988337)scale(0.15 -0.15)">
      <use xlink:href="#SimHei-31"/>
      <use x="50" xlink:href="#SimHei-34"/>
     </g>
    </g>
   </g>
  </g>
  <g id="axis3d_2">
   <g id="line2d_10">
    <path d="M 58.794045 217.8137 
L 168.062833 271.631196 
" style="fill:none;stroke:#000000;stroke-linecap:square;stroke-width:0.8;"/>
   </g>
   <g id="text_10">
    <!-- coins of 胖虎 -->
    <defs>
     <path d="M 21.484375 1.953125 
Q 25.78125 1.5625 28.515625 1.75 
Q 31.25 1.953125 31.640625 7.03125 
L 31.640625 26.171875 
L 18.359375 26.171875 
Q 16.796875 14.453125 14.453125 5.859375 
Q 12.109375 -2.734375 10.15625 -7.03125 
Q 6.640625 -3.90625 3.125 -2.734375 
Q 6.640625 2.734375 8.78125 10.34375 
Q 10.9375 17.96875 11.71875 30.859375 
L 11.71875 64.453125 
Q 11.71875 71.09375 11.328125 76.953125 
L 38.671875 76.953125 
Q 38.28125 69.140625 38.28125 61.328125 
L 38.28125 1.953125 
Q 38.28125 -6.25 23.4375 -7.03125 
Q 23.046875 -3.125 21.484375 1.953125 
z
M 64.453125 45.3125 
L 64.453125 69.140625 
Q 64.453125 73.828125 63.671875 79.296875 
L 72.265625 79.296875 
Q 71.875 74.21875 71.875 69.140625 
L 71.875 45.3125 
L 82.421875 45.3125 
Q 85.9375 45.3125 91.796875 45.703125 
L 91.796875 38.671875 
Q 88.28125 39.0625 82.421875 39.0625 
L 71.875 39.0625 
L 71.875 23.4375 
L 84.765625 23.4375 
Q 91.015625 23.4375 96.09375 23.828125 
L 96.09375 16.796875 
Q 90.234375 17.1875 84.765625 17.1875 
L 71.875 17.1875 
L 71.875 3.90625 
Q 71.875 -2.34375 72.265625 -8.984375 
L 64.0625 -8.984375 
Q 64.453125 -2.734375 64.453125 3.90625 
L 64.453125 17.1875 
L 53.90625 17.1875 
Q 48.4375 17.1875 42.578125 16.796875 
L 42.578125 23.828125 
Q 48.046875 23.4375 54.296875 23.4375 
L 64.453125 23.4375 
L 64.453125 39.0625 
L 53.90625 39.0625 
Q 48.4375 39.0625 43.359375 38.671875 
L 43.359375 45.703125 
Q 48.4375 45.3125 53.515625 45.3125 
z
M 31.640625 32.8125 
L 31.640625 48.828125 
L 18.75 48.828125 
L 18.75 32.8125 
z
M 31.640625 55.078125 
L 31.640625 70.703125 
L 18.75 70.703125 
L 18.75 55.078125 
z
M 51.5625 51.953125 
Q 50 58.984375 44.921875 71.09375 
L 51.171875 74.21875 
Q 55.859375 63.28125 58.59375 54.6875 
Q 54.296875 53.515625 51.5625 51.953125 
z
M 77.34375 53.90625 
Q 83.984375 67.96875 84.765625 73.4375 
Q 88.671875 71.875 92.578125 70.703125 
Q 90.625 67.96875 88.671875 62.890625 
Q 86.71875 57.8125 84.375 51.953125 
Q 80.859375 53.90625 77.34375 53.90625 
z
" id="SimHei-80d6"/>
     <path d="M 25.78125 45.703125 
Q 33.203125 46.09375 44.140625 46.875 
L 44.140625 56.640625 
L 20.703125 56.640625 
Q 20.703125 31.640625 20.109375 23.4375 
Q 19.53125 15.234375 17.578125 8 
Q 15.625 0.78125 10.9375 -7.8125 
Q 7.8125 -5.46875 3.125 -3.90625 
Q 7.03125 0.78125 9.171875 6.828125 
Q 11.328125 12.890625 12.109375 18.75 
Q 12.890625 24.609375 13.078125 30.265625 
Q 13.28125 35.9375 13.28125 42.96875 
Q 13.28125 50.390625 12.890625 62.5 
L 44.140625 62.5 
L 44.140625 74.609375 
Q 44.140625 77.34375 43.359375 82.421875 
L 51.953125 82.421875 
Q 51.5625 78.515625 51.5625 75.390625 
L 71.09375 75.390625 
Q 76.171875 75.390625 84.765625 76.171875 
L 84.765625 69.53125 
Q 76.171875 69.921875 70.703125 69.921875 
L 51.171875 69.921875 
L 51.171875 62.5 
L 93.75 62.5 
Q 92.1875 57.8125 89.84375 46.875 
Q 85.15625 48.046875 82.03125 48.4375 
Q 83.984375 52.734375 85.15625 56.640625 
L 51.171875 56.640625 
L 51.171875 47.65625 
Q 65.234375 49.21875 74.21875 50.78125 
L 75 44.140625 
Q 64.0625 42.96875 51.171875 41.40625 
L 51.171875 36.71875 
Q 51.171875 33.203125 57.421875 33.203125 
L 70.3125 33.203125 
Q 75 32.8125 76.359375 34.5625 
Q 77.734375 36.328125 78.515625 41.015625 
Q 81.640625 39.0625 86.71875 37.109375 
Q 84.765625 30.859375 82.03125 29.09375 
Q 79.296875 27.34375 73.828125 27.34375 
L 54.296875 27.34375 
Q 44.140625 27.34375 44.140625 33.59375 
L 44.140625 41.015625 
Q 36.328125 40.234375 27.34375 39.0625 
Q 26.5625 42.578125 25.78125 45.703125 
z
M 71.09375 22.265625 
Q 70.703125 16.796875 70.703125 10.9375 
L 70.703125 2.34375 
Q 70.703125 -1.953125 75 -1.953125 
L 81.25 -1.953125 
Q 85.9375 -1.953125 86.71875 0.78125 
Q 87.5 3.515625 87.5 7.421875 
Q 91.40625 5.078125 96.09375 4.296875 
Q 93.359375 -3.90625 91.59375 -5.859375 
Q 89.84375 -7.8125 85.15625 -7.8125 
L 72.65625 -7.8125 
Q 63.671875 -7.8125 63.671875 -1.171875 
L 63.671875 16.40625 
L 45.3125 16.40625 
Q 45.3125 4.6875 41.203125 -0.578125 
Q 37.109375 -5.859375 26.171875 -10.546875 
Q 25 -6.640625 21.484375 -3.515625 
Q 35.9375 0.78125 37.109375 7.421875 
Q 38.28125 14.0625 37.890625 22.265625 
L 71.09375 22.265625 
z
" id="SimHei-864e"/>
    </defs>
    <g style="fill:#800080;" transform="translate(49.092792 257.912399)rotate(-333.778649)scale(0.12 -0.12)">
     <use xlink:href="#SimHei-63"/>
     <use x="50" xlink:href="#SimHei-6f"/>
     <use x="100" xlink:href="#SimHei-69"/>
     <use x="150" xlink:href="#SimHei-6e"/>
     <use x="200" xlink:href="#SimHei-73"/>
     <use x="250" xlink:href="#SimHei-20"/>
     <use x="300" xlink:href="#SimHei-6f"/>
     <use x="350" xlink:href="#SimHei-66"/>
     <use x="400" xlink:href="#SimHei-20"/>
     <use x="450" xlink:href="#SimHei-80d6"/>
     <use x="550" xlink:href="#SimHei-864e"/>
    </g>
   </g>
   <g id="Line3DCollection_2">
    <path d="M 227.548604 43.791556 
L 226.494241 188.318329 
L 65.235235 220.98614 
" style="fill:none;stroke:#b0b0b0;stroke-width:0.8;"/>
    <path d="M 241.688876 48.257402 
L 240.154088 193.993191 
L 78.043534 227.294534 
" style="fill:none;stroke:#b0b0b0;stroke-width:0.8;"/>
    <path d="M 256.106644 52.810887 
L 254.072998 199.775679 
L 91.108144 233.729167 
" style="fill:none;stroke:#b0b0b0;stroke-width:0.8;"/>
    <path d="M 270.810156 57.454617 
L 268.25841 205.668883 
L 104.436836 240.293868 
" style="fill:none;stroke:#b0b0b0;stroke-width:0.8;"/>
    <path d="M 285.807992 62.191302 
L 282.718053 211.676014 
L 118.0377 246.992619 
" style="fill:none;stroke:#b0b0b0;stroke-width:0.8;"/>
    <path d="M 301.10908 67.023762 
L 297.459956 217.800407 
L 131.919157 253.829569 
" style="fill:none;stroke:#b0b0b0;stroke-width:0.8;"/>
    <path d="M 316.722709 71.95493 
L 312.492466 224.045531 
L 146.089982 260.80904 
" style="fill:none;stroke:#b0b0b0;stroke-width:0.8;"/>
    <path d="M 332.658556 76.987861 
L 327.824262 230.41499 
L 160.559317 267.935534 
" style="fill:none;stroke:#b0b0b0;stroke-width:0.8;"/>
   </g>
   <g id="xtick_9">
    <g id="line2d_11">
     <path d="M 66.594479 220.710784 
L 62.513215 221.537566 
" style="fill:none;stroke:#000000;stroke-linecap:square;stroke-width:0.8;"/>
    </g>
    <g id="text_11">
     <!-- 0 -->
     <g transform="translate(50.195232 243.623733)scale(0.15 -0.15)">
      <use xlink:href="#SimHei-30"/>
     </g>
    </g>
   </g>
   <g id="xtick_10">
    <g id="line2d_12">
     <path d="M 79.410645 227.013697 
L 75.305726 227.856945 
" style="fill:none;stroke:#000000;stroke-linecap:square;stroke-width:0.8;"/>
    </g>
    <g id="text_12">
     <!-- 2 -->
     <g transform="translate(62.908596 250.062791)scale(0.15 -0.15)">
      <use xlink:href="#SimHei-32"/>
     </g>
    </g>
   </g>
   <g id="xtick_11">
    <g id="line2d_13">
     <path d="M 92.483165 233.442684 
L 88.354458 234.302894 
" style="fill:none;stroke:#000000;stroke-linecap:square;stroke-width:0.8;"/>
    </g>
    <g id="text_13">
     <!-- 4 -->
     <g transform="translate(75.876714 256.630876)scale(0.15 -0.15)">
      <use xlink:href="#SimHei-34"/>
     </g>
    </g>
   </g>
   <g id="xtick_12">
    <g id="line2d_14">
     <path d="M 105.81981 240.001565 
L 101.667187 240.879255 
" style="fill:none;stroke:#000000;stroke-linecap:square;stroke-width:0.8;"/>
    </g>
    <g id="text_14">
     <!-- 6 -->
     <g transform="translate(89.10732 263.331906)scale(0.15 -0.15)">
      <use xlink:href="#SimHei-36"/>
     </g>
    </g>
   </g>
   <g id="xtick_13">
    <g id="line2d_15">
     <path d="M 119.428666 246.694319 
L 115.252006 247.590026 
" style="fill:none;stroke:#000000;stroke-linecap:square;stroke-width:0.8;"/>
    </g>
    <g id="text_15">
     <!-- 8 -->
     <g transform="translate(102.608465 270.169958)scale(0.15 -0.15)">
      <use xlink:href="#SimHei-38"/>
     </g>
    </g>
   </g>
   <g id="xtick_14">
    <g id="line2d_16">
     <path d="M 133.318153 253.525084 
L 129.117343 254.439371 
" style="fill:none;stroke:#000000;stroke-linecap:square;stroke-width:0.8;"/>
    </g>
    <g id="text_16">
     <!-- 10 -->
     <g transform="translate(112.638533 277.14928)scale(0.15 -0.15)">
      <use xlink:href="#SimHei-31"/>
      <use x="50" xlink:href="#SimHei-30"/>
     </g>
    </g>
   </g>
   <g id="xtick_15">
    <g id="line2d_17">
     <path d="M 147.497042 260.498176 
L 143.271977 261.431625 
" style="fill:none;stroke:#000000;stroke-linecap:square;stroke-width:0.8;"/>
    </g>
    <g id="text_17">
     <!-- 12 -->
     <g transform="translate(126.706257 284.274293)scale(0.15 -0.15)">
      <use xlink:href="#SimHei-31"/>
      <use x="50" xlink:href="#SimHei-32"/>
     </g>
    </g>
   </g>
   <g id="xtick_16">
    <g id="line2d_18">
     <path d="M 161.974472 267.618089 
L 157.725058 268.57131 
" style="fill:none;stroke:#000000;stroke-linecap:square;stroke-width:0.8;"/>
    </g>
    <g id="text_18">
     <!-- 14 -->
     <g transform="translate(141.07074 291.549608)scale(0.15 -0.15)">
      <use xlink:href="#SimHei-31"/>
      <use x="50" xlink:href="#SimHei-34"/>
     </g>
    </g>
   </g>
  </g>
  <g id="axis3d_3">
   <g id="line2d_19">
    <path d="M 58.794045 217.8137 
L 53.895826 67.034254 
" style="fill:none;stroke:#000000;stroke-linecap:square;stroke-width:0.8;"/>
   </g>
   <g id="text_19">
    <!-- coins of 静香 -->
    <defs>
     <path d="M 67.578125 78.90625 
Q 65.625 76.5625 64.640625 74.40625 
Q 63.671875 72.265625 62.890625 70.3125 
L 84.375 70.3125 
Q 82.03125 66.796875 80.078125 62.296875 
Q 78.125 57.8125 75.78125 52.734375 
L 90.234375 52.734375 
Q 89.84375 47.265625 89.84375 41.015625 
L 89.84375 36.71875 
Q 93.359375 36.71875 96.875 37.109375 
L 96.875 30.46875 
Q 94.140625 30.859375 89.84375 30.859375 
L 89.84375 25.390625 
Q 89.84375 17.578125 90.234375 10.546875 
L 83.203125 10.546875 
L 83.203125 14.84375 
L 72.265625 14.84375 
L 72.265625 0.390625 
Q 71.875 -4.6875 68.9375 -6.640625 
Q 66.015625 -8.59375 56.25 -9.375 
Q 56.25 -5.46875 53.90625 -1.171875 
Q 58.984375 -1.5625 62.296875 -1.171875 
Q 65.625 -0.78125 65.625 2.734375 
L 65.625 14.84375 
L 60.15625 14.84375 
Q 55.46875 14.84375 50.390625 14.453125 
L 50.390625 20.703125 
Q 55.078125 20.3125 60.15625 20.3125 
L 65.625 20.3125 
L 65.625 30.859375 
L 59.765625 30.859375 
Q 54.6875 30.859375 48.046875 30.46875 
L 48.046875 36.71875 
Q 53.515625 36.328125 60.15625 36.328125 
L 65.625 36.328125 
L 65.625 47.265625 
L 60.15625 47.265625 
Q 57.8125 47.265625 51.953125 46.875 
L 51.953125 51.953125 
Q 50.78125 50.78125 48.828125 48.4375 
Q 46.875 51.5625 44.140625 53.90625 
Q 50.390625 60.15625 53.703125 68.15625 
Q 57.03125 76.171875 58.984375 82.03125 
Q 62.890625 80.078125 67.578125 78.90625 
z
M 42.96875 36.328125 
Q 42.578125 30.859375 42.578125 25 
L 42.578125 1.171875 
Q 42.578125 -4.6875 39.453125 -6.25 
Q 36.328125 -7.8125 30.078125 -8.984375 
Q 29.6875 -5.46875 27.34375 -1.5625 
Q 36.328125 -1.5625 35.546875 1.953125 
L 35.546875 6.640625 
L 15.234375 6.640625 
L 15.234375 -8.203125 
L 8.203125 -8.203125 
Q 8.59375 -3.90625 8.59375 1.953125 
L 8.59375 25 
Q 8.59375 30.859375 8.203125 36.328125 
L 42.96875 36.328125 
z
M 21.875 71.09375 
Q 21.875 74.609375 21.484375 80.46875 
L 29.296875 80.46875 
Q 28.90625 74.609375 28.90625 71.09375 
L 33.984375 71.09375 
Q 39.453125 71.09375 46.875 71.484375 
L 46.875 65.234375 
Q 39.453125 65.625 33.984375 65.625 
L 28.90625 65.625 
L 28.90625 59.375 
L 33.984375 59.375 
Q 36.328125 59.375 42.578125 59.765625 
L 42.578125 53.515625 
Q 35.9375 53.90625 33.59375 53.90625 
L 28.90625 53.90625 
L 28.90625 47.65625 
L 35.15625 47.65625 
Q 40.625 47.65625 46.484375 48.046875 
L 46.484375 41.796875 
Q 40.234375 42.1875 35.15625 42.1875 
L 15.625 42.1875 
Q 9.375 42.1875 3.90625 41.796875 
L 3.90625 48.046875 
Q 9.375 47.65625 15.625 47.65625 
L 21.875 47.65625 
L 21.875 53.90625 
L 15.234375 53.90625 
Q 12.890625 53.90625 8.59375 53.515625 
L 8.59375 59.765625 
Q 12.890625 59.375 15.234375 59.375 
L 21.875 59.375 
L 21.875 65.625 
L 15.234375 65.625 
Q 10.15625 65.625 4.6875 65.234375 
L 4.6875 71.484375 
Q 10.15625 71.09375 15.234375 71.09375 
z
M 52.734375 53.515625 
Q 57.421875 53.125 64.453125 53.125 
L 68.359375 53.125 
Q 72.265625 61.328125 73.4375 64.84375 
L 60.15625 64.84375 
Q 55.078125 56.640625 52.734375 53.515625 
z
M 35.546875 12.109375 
L 35.546875 19.140625 
L 15.234375 19.140625 
L 15.234375 12.109375 
z
M 35.546875 24.609375 
L 35.546875 30.859375 
L 15.234375 30.859375 
L 15.234375 24.609375 
z
M 83.203125 36.328125 
L 83.203125 47.265625 
L 72.265625 47.265625 
L 72.265625 36.328125 
z
M 83.203125 20.3125 
L 83.203125 30.859375 
L 72.265625 30.859375 
L 72.265625 20.3125 
z
" id="SimHei-9759"/>
     <path d="M 45.703125 33.59375 
L 45.703125 53.90625 
Q 36.71875 44.140625 26.359375 38.28125 
Q 16.015625 32.421875 10.546875 30.078125 
Q 10.546875 33.203125 5.46875 36.71875 
Q 16.015625 39.453125 24.21875 44.53125 
Q 32.421875 49.609375 37.109375 54.296875 
L 21.484375 54.296875 
Q 14.84375 54.296875 7.8125 53.90625 
L 7.8125 60.15625 
Q 14.84375 59.765625 21.484375 59.765625 
L 45.703125 59.765625 
L 45.703125 69.921875 
Q 38.28125 69.140625 17.96875 67.578125 
Q 16.796875 71.09375 14.453125 74.609375 
Q 32.8125 74.609375 50.390625 76.953125 
Q 67.96875 79.296875 74.609375 82.03125 
Q 76.953125 78.125 81.25 73.828125 
Q 74.609375 73.4375 67.96875 72.65625 
Q 61.328125 71.875 52.34375 70.703125 
L 52.34375 59.765625 
L 78.125 59.765625 
Q 83.984375 59.765625 91.40625 60.15625 
L 91.40625 53.90625 
Q 84.375 54.296875 78.125 54.296875 
L 61.71875 54.296875 
Q 66.40625 48.4375 74.21875 43.15625 
Q 82.03125 37.890625 94.140625 34.765625 
Q 89.84375 31.640625 88.28125 26.953125 
Q 82.421875 29.296875 77.34375 32.03125 
Q 76.5625 25 76.5625 12.5 
Q 76.5625 -0.78125 76.953125 -8.984375 
L 69.53125 -8.984375 
L 69.53125 -3.125 
L 28.515625 -3.125 
L 28.515625 -9.375 
L 21.875 -9.375 
L 21.875 11.71875 
Q 21.875 25 21.484375 33.59375 
z
M 69.53125 17.96875 
L 69.53125 27.734375 
L 28.515625 27.734375 
L 28.515625 17.96875 
z
M 69.53125 2.734375 
L 69.53125 12.5 
L 28.515625 12.5 
L 28.515625 2.734375 
z
M 71.484375 35.9375 
Q 62.109375 42.578125 52.734375 54.296875 
L 52.34375 54.296875 
L 52.34375 33.59375 
L 75 33.59375 
z
" id="SimHei-9999"/>
    </defs>
    <g style="fill:#800080;" transform="translate(10.565293 102.842551)rotate(-271.860655)scale(0.12 -0.12)">
     <use xlink:href="#SimHei-63"/>
     <use x="50" xlink:href="#SimHei-6f"/>
     <use x="100" xlink:href="#SimHei-69"/>
     <use x="150" xlink:href="#SimHei-6e"/>
     <use x="200" xlink:href="#SimHei-73"/>
     <use x="250" xlink:href="#SimHei-20"/>
     <use x="300" xlink:href="#SimHei-6f"/>
     <use x="350" xlink:href="#SimHei-66"/>
     <use x="400" xlink:href="#SimHei-20"/>
     <use x="450" xlink:href="#SimHei-9759"/>
     <use x="550" xlink:href="#SimHei-9999"/>
    </g>
   </g>
   <g id="Line3DCollection_3">
    <path d="M 58.492454 208.529967 
L 219.669895 176.585888 
L 336.085066 224.233899 
" style="fill:none;stroke:#b0b0b0;stroke-width:0.8;"/>
    <path d="M 57.897709 190.222231 
L 219.769111 159.08724 
L 336.710174 205.533478 
" style="fill:none;stroke:#b0b0b0;stroke-width:0.8;"/>
    <path d="M 57.297781 171.754931 
L 219.869148 141.443949 
L 337.340869 186.665935 
" style="fill:none;stroke:#b0b0b0;stroke-width:0.8;"/>
    <path d="M 56.692601 153.125973 
L 219.970014 123.654212 
L 337.977226 167.629019 
" style="fill:none;stroke:#b0b0b0;stroke-width:0.8;"/>
    <path d="M 56.0821 134.333224 
L 220.071722 105.716199 
L 338.619321 148.42044 
" style="fill:none;stroke:#b0b0b0;stroke-width:0.8;"/>
    <path d="M 55.466207 115.374514 
L 220.17428 87.628049 
L 339.267233 129.037865 
" style="fill:none;stroke:#b0b0b0;stroke-width:0.8;"/>
    <path d="M 54.844852 96.247636 
L 220.277701 69.387869 
L 339.92104 109.478918 
" style="fill:none;stroke:#b0b0b0;stroke-width:0.8;"/>
    <path d="M 54.21796 76.950341 
L 220.381995 50.993734 
L 340.580823 89.741182 
" style="fill:none;stroke:#b0b0b0;stroke-width:0.8;"/>
   </g>
   <g id="xtick_17">
    <g id="line2d_20">
     <path d="M 59.850818 208.26075 
L 55.772207 209.069099 
" style="fill:none;stroke:#000000;stroke-linecap:square;stroke-width:0.8;"/>
    </g>
    <g id="text_20">
     <!-- 0 -->
     <g transform="translate(36.319991 217.800274)scale(0.15 -0.15)">
      <use xlink:href="#SimHei-30"/>
     </g>
    </g>
   </g>
   <g id="xtick_18">
    <g id="line2d_21">
     <path d="M 59.262222 189.959775 
L 55.165133 190.747826 
" style="fill:none;stroke:#000000;stroke-linecap:square;stroke-width:0.8;"/>
    </g>
    <g id="text_21">
     <!-- 2 -->
     <g transform="translate(35.646444 199.518717)scale(0.15 -0.15)">
      <use xlink:href="#SimHei-32"/>
     </g>
    </g>
   </g>
   <g id="xtick_19">
    <g id="line2d_22">
     <path d="M 58.668498 171.499365 
L 54.552763 172.266732 
" style="fill:none;stroke:#000000;stroke-linecap:square;stroke-width:0.8;"/>
    </g>
    <g id="text_22">
     <!-- 4 -->
     <g transform="translate(34.967036 181.078092)scale(0.15 -0.15)">
      <use xlink:href="#SimHei-34"/>
     </g>
    </g>
   </g>
   <g id="xtick_20">
    <g id="line2d_23">
     <path d="M 58.069579 152.877427 
L 53.935029 153.623718 
" style="fill:none;stroke:#000000;stroke-linecap:square;stroke-width:0.8;"/>
    </g>
    <g id="text_23">
     <!-- 6 -->
     <g transform="translate(34.281691 162.476316)scale(0.15 -0.15)">
      <use xlink:href="#SimHei-36"/>
     </g>
    </g>
   </g>
   <g id="xtick_21">
    <g id="line2d_24">
     <path d="M 57.465397 134.091831 
L 53.311858 134.816645 
" style="fill:none;stroke:#000000;stroke-linecap:square;stroke-width:0.8;"/>
    </g>
    <g id="text_24">
     <!-- 8 -->
     <g transform="translate(33.590331 143.711265)scale(0.15 -0.15)">
      <use xlink:href="#SimHei-38"/>
     </g>
    </g>
   </g>
   <g id="xtick_22">
    <g id="line2d_25">
     <path d="M 56.855881 115.140412 
L 52.683179 115.843338 
" style="fill:none;stroke:#000000;stroke-linecap:square;stroke-width:0.8;"/>
    </g>
    <g id="text_25">
     <!-- 10 -->
     <g transform="translate(29.142875 124.780781)scale(0.15 -0.15)">
      <use xlink:href="#SimHei-31"/>
      <use x="50" xlink:href="#SimHei-30"/>
     </g>
    </g>
   </g>
   <g id="xtick_23">
    <g id="line2d_26">
     <path d="M 56.240962 96.020962 
L 52.048919 96.701585 
" style="fill:none;stroke:#000000;stroke-linecap:square;stroke-width:0.8;"/>
    </g>
    <g id="text_26">
     <!-- 12 -->
     <g transform="translate(28.439244 105.682667)scale(0.15 -0.15)">
      <use xlink:href="#SimHei-31"/>
      <use x="50" xlink:href="#SimHei-32"/>
     </g>
    </g>
   </g>
   <g id="xtick_24">
    <g id="line2d_27">
     <path d="M 55.620566 76.731239 
L 51.409002 77.389131 
" style="fill:none;stroke:#000000;stroke-linecap:square;stroke-width:0.8;"/>
    </g>
    <g id="text_27">
     <!-- 14 -->
     <g transform="translate(27.729354 86.414686)scale(0.15 -0.15)">
      <use xlink:href="#SimHei-31"/>
      <use x="50" xlink:href="#SimHei-34"/>
     </g>
    </g>
   </g>
  </g>
  <g id="axes_1">
   <g id="Path3DCollection_1">
    <defs>
     <path d="M 0 5 
C 1.326016 5 2.597899 4.473168 3.535534 3.535534 
C 4.473168 2.597899 5 1.326016 5 0 
C 5 -1.326016 4.473168 -2.597899 3.535534 -3.535534 
C 2.597899 -4.473168 1.326016 -5 0 -5 
C -1.326016 -5 -2.597899 -4.473168 -3.535534 -3.535534 
C -4.473168 -2.597899 -5 -1.326016 -5 0 
C -5 1.326016 -4.473168 2.597899 -3.535534 3.535534 
C -2.597899 4.473168 -1.326016 5 0 5 
z
" id="m9a9fcb242a" style="stroke:#008000;"/>
    </defs>
    <g clip-path="url(#pb3939a0b9b)">
     <use style="fill:#008000;stroke:#008000;" x="268.298797" xlink:href="#m9a9fcb242a" y="187.158638"/>
    </g>
   </g>
   <g id="Path3DCollection_2">
    <path clip-path="url(#pb3939a0b9b)" d="M 224.398551 57.499136 
C 224.492314 57.499136 224.58225 57.461884 224.648551 57.395583 
C 224.714852 57.329282 224.752104 57.239346 224.752104 57.145583 
C 224.752104 57.05182 224.714852 56.961884 224.648551 56.895583 
C 224.58225 56.829282 224.492314 56.79203 224.398551 56.79203 
C 224.304787 56.79203 224.214852 56.829282 224.148551 56.895583 
C 224.08225 56.961884 224.044997 57.05182 224.044997 57.145583 
C 224.044997 57.239346 224.08225 57.329282 224.148551 57.395583 
C 224.214852 57.461884 224.304787 57.499136 224.398551 57.499136 
z
" style="fill:#ff0000;stroke:#ff0000;"/>
    <path clip-path="url(#pb3939a0b9b)" d="M 231.385035 69.677054 
C 231.614707 69.677054 231.835004 69.585805 231.997407 69.423401 
C 232.15981 69.260998 232.25106 69.040702 232.25106 68.811029 
C 232.25106 68.581356 232.15981 68.36106 231.997407 68.198657 
C 231.835004 68.036254 231.614707 67.945004 231.385035 67.945004 
C 231.155362 67.945004 230.935065 68.036254 230.772662 68.198657 
C 230.610259 68.36106 230.519009 68.581356 230.519009 68.811029 
C 230.519009 69.040702 230.610259 69.260998 230.772662 69.423401 
C 230.935065 69.585805 231.155362 69.677054 231.385035 69.677054 
z
" style="fill:#ff0000;stroke:#ff0000;"/>
    <path clip-path="url(#pb3939a0b9b)" d="M 238.409492 81.246986 
C 238.597018 81.246986 238.77689 81.17248 238.909492 81.039879 
C 239.042093 80.907277 239.116598 80.727406 239.116598 80.539879 
C 239.116598 80.352352 239.042093 80.17248 238.909492 80.039879 
C 238.77689 79.907277 238.597018 79.832772 238.409492 79.832772 
C 238.221965 79.832772 238.042093 79.907277 237.909492 80.039879 
C 237.77689 80.17248 237.702385 80.352352 237.702385 80.539879 
C 237.702385 80.727406 237.77689 80.907277 237.909492 81.039879 
C 238.042093 81.17248 238.221965 81.246986 238.409492 81.246986 
z
" style="fill:#ff0000;stroke:#ff0000;"/>
    <path clip-path="url(#pb3939a0b9b)" d="M 245.472232 93.655527 
C 245.823062 93.655527 246.159571 93.51614 246.407646 93.268065 
C 246.655721 93.01999 246.795107 92.683482 246.795107 92.332651 
C 246.795107 91.98182 246.655721 91.645311 246.407646 91.397237 
C 246.159571 91.149162 245.823062 91.009775 245.472232 91.009775 
C 245.121401 91.009775 244.784892 91.149162 244.536817 91.397237 
C 244.288742 91.645311 244.149356 91.98182 244.149356 92.332651 
C 244.149356 92.683482 244.288742 93.01999 244.536817 93.268065 
C 244.784892 93.51614 245.121401 93.655527 245.472232 93.655527 
z
" style="fill:#ff0000;stroke:#ff0000;"/>
    <path clip-path="url(#pb3939a0b9b)" d="M 252.573569 106.026986 
C 253.060778 106.026986 253.528098 105.833416 253.872607 105.488907 
C 254.217116 105.144398 254.410686 104.677078 254.410686 104.189869 
C 254.410686 103.70266 254.217116 103.23534 253.872607 102.890831 
C 253.528098 102.546322 253.060778 102.352752 252.573569 102.352752 
C 252.08636 102.352752 251.61904 102.546322 251.274531 102.890831 
C 250.930022 103.23534 250.736451 103.70266 250.736451 104.189869 
C 250.736451 104.677078 250.930022 105.144398 251.274531 105.488907 
C 251.61904 105.833416 252.08636 106.026986 252.573569 106.026986 
z
" style="fill:#ff0000;stroke:#ff0000;"/>
    <path clip-path="url(#pb3939a0b9b)" d="M 259.71382 118.457271 
C 260.335777 118.457271 260.932343 118.210165 261.372133 117.770376 
C 261.811922 117.330586 262.059028 116.73402 262.059028 116.112063 
C 262.059028 115.490107 261.811922 114.89354 261.372133 114.453751 
C 260.932343 114.013961 260.335777 113.766855 259.71382 113.766855 
C 259.091864 113.766855 258.495297 114.013961 258.055508 114.453751 
C 257.615718 114.89354 257.368612 115.490107 257.368612 116.112063 
C 257.368612 116.73402 257.615718 117.330586 258.055508 117.770376 
C 258.495297 118.210165 259.091864 118.457271 259.71382 118.457271 
z
" style="fill:#ff0000;stroke:#ff0000;"/>
    <path clip-path="url(#pb3939a0b9b)" d="M 266.893307 130.769038 
C 267.601205 130.769038 268.280205 130.487787 268.780765 129.987227 
C 269.281325 129.486667 269.562576 128.807667 269.562576 128.099769 
C 269.562576 127.39187 269.281325 126.71287 268.780765 126.21231 
C 268.280205 125.71175 267.601205 125.430499 266.893307 125.430499 
C 266.185408 125.430499 265.506408 125.71175 265.005848 126.21231 
C 264.505288 126.71287 264.224037 127.39187 264.224037 128.099769 
C 264.224037 128.807667 264.505288 129.486667 265.005848 129.987227 
C 265.506408 130.487787 266.185408 130.769038 266.893307 130.769038 
z
" style="fill:#ff0000;stroke:#ff0000;"/>
    <path clip-path="url(#pb3939a0b9b)" d="M 274.112353 143.563073 
C 275.016575 143.563073 275.883884 143.203821 276.523265 142.56444 
C 277.162647 141.925058 277.521898 141.057749 277.521898 140.153527 
C 277.521898 139.249305 277.162647 138.381996 276.523265 137.742615 
C 275.883884 137.103233 275.016575 136.743982 274.112353 136.743982 
C 273.208131 136.743982 272.340821 137.103233 271.70144 137.742615 
C 271.062058 138.381996 270.702807 139.249305 270.702807 140.153527 
C 270.702807 141.057749 271.062058 141.925058 271.70144 142.56444 
C 272.340821 143.203821 273.208131 143.563073 274.112353 143.563073 
z
" style="fill:#ff0000;stroke:#ff0000;"/>
    <path clip-path="url(#pb3939a0b9b)" d="M 281.371286 157.03046 
C 282.632744 157.03046 283.842706 156.529278 284.734692 155.637292 
C 285.626678 154.745306 286.12786 153.535344 286.12786 152.273886 
C 286.12786 151.012428 285.626678 149.802466 284.734692 148.91048 
C 283.842706 148.018494 282.632744 147.517312 281.371286 147.517312 
C 280.109828 147.517312 278.899865 148.018494 278.00788 148.91048 
C 277.115894 149.802466 276.614711 151.012428 276.614711 152.273886 
C 276.614711 153.535344 277.115894 154.745306 278.00788 155.637292 
C 278.899865 156.529278 280.109828 157.03046 281.371286 157.03046 
z
" style="fill:#ff0000;stroke:#ff0000;"/>
    <path clip-path="url(#pb3939a0b9b)" d="M 288.670438 171.488133 
C 290.533949 171.488133 292.321388 170.747752 293.639089 169.43005 
C 294.956791 168.112349 295.697172 166.324911 295.697172 164.461399 
C 295.697172 162.597887 294.956791 160.810449 293.639089 159.492747 
C 292.321388 158.175045 290.533949 157.434664 288.670438 157.434664 
C 286.806926 157.434664 285.019488 158.175045 283.701786 159.492747 
C 282.384084 160.810449 281.643703 162.597887 281.643703 164.461399 
C 281.643703 166.324911 282.384084 168.112349 283.701786 169.43005 
C 285.019488 170.747752 286.806926 171.488133 288.670438 171.488133 
z
" style="fill:#ff0000;stroke:#ff0000;"/>
    <path clip-path="url(#pb3939a0b9b)" d="M 296.010143 184.422142 
C 298.053671 184.422142 300.013775 183.61024 301.458767 182.165249 
C 302.903759 180.720257 303.715661 178.760152 303.715661 176.716625 
C 303.715661 174.673098 302.903759 172.712993 301.458767 171.268001 
C 300.013775 169.823009 298.053671 169.011107 296.010143 169.011107 
C 293.966616 169.011107 292.006512 169.823009 290.56152 171.268001 
C 289.116528 172.712993 288.304626 174.673098 288.304626 176.716625 
C 288.304626 178.760152 289.116528 180.720257 290.56152 182.165249 
C 292.006512 183.61024 293.966616 184.422142 296.010143 184.422142 
z
" style="fill:#ff0000;stroke:#ff0000;"/>
    <path clip-path="url(#pb3939a0b9b)" d="M 303.390742 195.607093 
C 305.132321 195.607093 306.802804 194.915157 308.034286 193.683674 
C 309.265768 192.452192 309.957705 190.781709 309.957705 189.04013 
C 309.957705 187.298552 309.265768 185.628069 308.034286 184.396587 
C 306.802804 183.165104 305.132321 182.473168 303.390742 182.473168 
C 301.649163 182.473168 299.97868 183.165104 298.747198 184.396587 
C 297.515716 185.628069 296.823779 187.298552 296.823779 189.04013 
C 296.823779 190.781709 297.515716 192.452192 298.747198 193.683674 
C 299.97868 194.915157 301.649163 195.607093 303.390742 195.607093 
z
" style="fill:#ff0000;stroke:#ff0000;"/>
    <path clip-path="url(#pb3939a0b9b)" d="M 310.812576 205.072543 
C 311.77793 205.072543 312.703875 204.689004 313.386484 204.006395 
C 314.069092 203.323787 314.452631 202.397842 314.452631 201.432488 
C 314.452631 200.467134 314.069092 199.541188 313.386484 198.85858 
C 312.703875 198.175972 311.77793 197.792433 310.812576 197.792433 
C 309.847222 197.792433 308.921277 198.175972 308.238669 198.85858 
C 307.55606 199.541188 307.172521 200.467134 307.172521 201.432488 
C 307.172521 202.397842 307.55606 203.323787 308.238669 204.006395 
C 308.921277 204.689004 309.847222 205.072543 310.812576 205.072543 
z
" style="fill:#ff0000;stroke:#ff0000;"/>
    <path clip-path="url(#pb3939a0b9b)" d="M 318.275992 215.894275 
C 318.806399 215.894275 319.315152 215.683543 319.690206 215.308489 
C 320.06526 214.933435 320.275992 214.424681 320.275992 213.894275 
C 320.275992 213.363869 320.06526 212.855116 319.690206 212.480062 
C 319.315152 212.105008 318.806399 211.894275 318.275992 211.894275 
C 317.745586 211.894275 317.236833 212.105008 316.861779 212.480062 
C 316.486725 212.855116 316.275992 213.363869 316.275992 213.894275 
C 316.275992 214.424681 316.486725 214.933435 316.861779 215.308489 
C 317.236833 215.683543 317.745586 215.894275 318.275992 215.894275 
z
" style="fill:#ff0000;stroke:#ff0000;"/>
    <path clip-path="url(#pb3939a0b9b)" d="M 207.466343 56.430705 
C 207.466343 56.430705 207.466343 56.430705 207.466343 56.430705 
C 207.466343 56.430705 207.466343 56.430705 207.466343 56.430705 
C 207.466343 56.430705 207.466343 56.430705 207.466343 56.430705 
C 207.466343 56.430705 207.466343 56.430705 207.466343 56.430705 
C 207.466343 56.430705 207.466343 56.430705 207.466343 56.430705 
C 207.466343 56.430705 207.466343 56.430705 207.466343 56.430705 
C 207.466343 56.430705 207.466343 56.430705 207.466343 56.430705 
C 207.466343 56.430705 207.466343 56.430705 207.466343 56.430705 
z
" style="fill:#ff0000;stroke:#ff0000;"/>
    <path clip-path="url(#pb3939a0b9b)" d="M 197.459219 68.051373 
C 197.646746 68.051373 197.826617 67.976867 197.959219 67.844266 
C 198.09182 67.711664 198.166326 67.531793 198.166326 67.344266 
C 198.166326 67.156739 198.09182 66.976867 197.959219 66.844266 
C 197.826617 66.711664 197.646746 66.637159 197.459219 66.637159 
C 197.271692 66.637159 197.09182 66.711664 196.959219 66.844266 
C 196.826617 66.976867 196.752112 67.156739 196.752112 67.344266 
C 196.752112 67.531793 196.826617 67.711664 196.959219 67.844266 
C 197.09182 67.976867 197.271692 68.051373 197.459219 68.051373 
z
" style="fill:#ff0000;stroke:#ff0000;"/>
    <path clip-path="url(#pb3939a0b9b)" d="M 187.428275 79.074373 
C 187.637937 79.074373 187.839039 78.991074 187.987292 78.842821 
C 188.135545 78.694568 188.218845 78.493465 188.218845 78.283804 
C 188.218845 78.074142 188.135545 77.87304 187.987292 77.724787 
C 187.839039 77.576534 187.637937 77.493234 187.428275 77.493234 
C 187.218614 77.493234 187.017511 77.576534 186.869258 77.724787 
C 186.721005 77.87304 186.637706 78.074142 186.637706 78.283804 
C 186.637706 78.493465 186.721005 78.694568 186.869258 78.842821 
C 187.017511 78.991074 187.218614 79.074373 187.428275 79.074373 
z
" style="fill:#ff0000;stroke:#ff0000;"/>
    <path clip-path="url(#pb3939a0b9b)" d="M 177.373428 90.115437 
C 177.6031 90.115437 177.823397 90.024187 177.9858 89.861784 
C 178.148203 89.699381 178.239453 89.479084 178.239453 89.249411 
C 178.239453 89.019739 178.148203 88.799442 177.9858 88.637039 
C 177.823397 88.474636 177.6031 88.383386 177.373428 88.383386 
C 177.143755 88.383386 176.923458 88.474636 176.761055 88.637039 
C 176.598652 88.799442 176.507402 89.019739 176.507402 89.249411 
C 176.507402 89.479084 176.598652 89.699381 176.761055 89.861784 
C 176.923458 90.024187 177.143755 90.115437 177.373428 90.115437 
z
" style="fill:#ff0000;stroke:#ff0000;"/>
    <path clip-path="url(#pb3939a0b9b)" d="M 167.29459 101.564057 
C 167.645421 101.564057 167.98193 101.424671 168.230004 101.176596 
C 168.478079 100.928521 168.617466 100.592012 168.617466 100.241182 
C 168.617466 99.890351 168.478079 99.553842 168.230004 99.305767 
C 167.98193 99.057692 167.645421 98.918306 167.29459 98.918306 
C 166.943759 98.918306 166.60725 99.057692 166.359176 99.305767 
C 166.111101 99.553842 165.971714 99.890351 165.971714 100.241182 
C 165.971714 100.592012 166.111101 100.928521 166.359176 101.176596 
C 166.60725 101.424671 166.943759 101.564057 167.29459 101.564057 
z
" style="fill:#ff0000;stroke:#ff0000;"/>
    <path clip-path="url(#pb3939a0b9b)" d="M 157.191676 112.628515 
C 157.554821 112.628515 157.90314 112.484236 158.159922 112.227454 
C 158.416704 111.970673 158.560983 111.622353 158.560983 111.259209 
C 158.560983 110.896064 158.416704 110.547744 158.159922 110.290963 
C 157.90314 110.034181 157.554821 109.889902 157.191676 109.889902 
C 156.828532 109.889902 156.480212 110.034181 156.223431 110.290963 
C 155.966649 110.547744 155.82237 110.896064 155.82237 111.259209 
C 155.82237 111.622353 155.966649 111.970673 156.223431 112.227454 
C 156.480212 112.484236 156.828532 112.628515 157.191676 112.628515 
z
" style="fill:#ff0000;stroke:#ff0000;"/>
    <path clip-path="url(#pb3939a0b9b)" d="M 147.064601 123.803586 
C 147.462405 123.803586 147.84397 123.645537 148.125261 123.364247 
C 148.406551 123.082956 148.564601 122.701391 148.564601 122.303586 
C 148.564601 121.905782 148.406551 121.524217 148.125261 121.242926 
C 147.84397 120.961636 147.462405 120.803586 147.064601 120.803586 
C 146.666796 120.803586 146.285231 120.961636 146.00394 121.242926 
C 145.72265 121.524217 145.564601 121.905782 145.564601 122.303586 
C 145.564601 122.701391 145.72265 123.082956 146.00394 123.364247 
C 146.285231 123.645537 146.666796 123.803586 147.064601 123.803586 
z
" style="fill:#ff0000;stroke:#ff0000;"/>
    <path clip-path="url(#pb3939a0b9b)" d="M 136.913276 134.788623 
C 137.28833 134.788623 137.648073 134.639613 137.913276 134.37441 
C 138.178479 134.109207 138.327489 133.749464 138.327489 133.37441 
C 138.327489 132.999356 138.178479 132.639613 137.913276 132.37441 
C 137.648073 132.109207 137.28833 131.960196 136.913276 131.960196 
C 136.538222 131.960196 136.178479 132.109207 135.913276 132.37441 
C 135.648073 132.639613 135.499062 132.999356 135.499062 133.37441 
C 135.499062 133.749464 135.648073 134.109207 135.913276 134.37441 
C 136.178479 134.639613 136.538222 134.788623 136.913276 134.788623 
z
" style="fill:#ff0000;stroke:#ff0000;"/>
    <path clip-path="url(#pb3939a0b9b)" d="M 126.737615 145.794649 
C 127.088445 145.794649 127.424954 145.655263 127.673029 145.407188 
C 127.921104 145.159113 128.06049 144.822604 128.06049 144.471774 
C 128.06049 144.120943 127.921104 143.784434 127.673029 143.536359 
C 127.424954 143.288285 127.088445 143.148898 126.737615 143.148898 
C 126.386784 143.148898 126.050275 143.288285 125.8022 143.536359 
C 125.554126 143.784434 125.414739 144.120943 125.414739 144.471774 
C 125.414739 144.822604 125.554126 145.159113 125.8022 145.407188 
C 126.050275 145.655263 126.386784 145.794649 126.737615 145.794649 
z
" style="fill:#ff0000;stroke:#ff0000;"/>
    <path clip-path="url(#pb3939a0b9b)" d="M 116.53753 157.095774 
C 116.935334 157.095774 117.3169 156.937724 117.59819 156.656434 
C 117.87948 156.375144 118.03753 155.993578 118.03753 155.595774 
C 118.03753 155.197969 117.87948 154.816404 117.59819 154.535114 
C 117.3169 154.253823 116.935334 154.095774 116.53753 154.095774 
C 116.139725 154.095774 115.75816 154.253823 115.47687 154.535114 
C 115.195579 154.816404 115.03753 155.197969 115.03753 155.595774 
C 115.03753 155.993578 115.195579 156.375144 115.47687 156.656434 
C 115.75816 156.937724 116.139725 157.095774 116.53753 157.095774 
z
" style="fill:#ff0000;stroke:#ff0000;"/>
    <path clip-path="url(#pb3939a0b9b)" d="M 106.312933 168.021261 
C 106.651002 168.021261 106.97527 167.886945 107.214321 167.647894 
C 107.453372 167.408843 107.587688 167.084575 107.587688 166.746506 
C 107.587688 166.408437 107.453372 166.084169 107.214321 165.845118 
C 106.97527 165.606067 106.651002 165.471751 106.312933 165.471751 
C 105.974864 165.471751 105.650596 165.606067 105.411545 165.845118 
C 105.172494 166.084169 105.038178 166.408437 105.038178 166.746506 
C 105.038178 167.084575 105.172494 167.408843 105.411545 167.647894 
C 105.650596 167.886945 105.974864 168.021261 106.312933 168.021261 
z
" style="fill:#ff0000;stroke:#ff0000;"/>
    <path clip-path="url(#pb3939a0b9b)" d="M 96.063736 178.790092 
C 96.293408 178.790092 96.513705 178.698842 96.676108 178.536439 
C 96.838511 178.374036 96.929761 178.15374 96.929761 177.924067 
C 96.929761 177.694394 96.838511 177.474098 96.676108 177.311694 
C 96.513705 177.149291 96.293408 177.058042 96.063736 177.058042 
C 95.834063 177.058042 95.613766 177.149291 95.451363 177.311694 
C 95.28896 177.474098 95.19771 177.694394 95.19771 177.924067 
C 95.19771 178.15374 95.28896 178.374036 95.451363 178.536439 
C 95.613766 178.698842 95.834063 178.790092 96.063736 178.790092 
z
" style="fill:#ff0000;stroke:#ff0000;"/>
    <path clip-path="url(#pb3939a0b9b)" d="M 85.789849 189.740926 
C 85.952252 189.740926 86.108026 189.676402 86.222862 189.561566 
C 86.337698 189.44673 86.402222 189.290956 86.402222 189.128553 
C 86.402222 188.96615 86.337698 188.810377 86.222862 188.695541 
C 86.108026 188.580704 85.952252 188.516181 85.789849 188.516181 
C 85.627446 188.516181 85.471673 188.580704 85.356837 188.695541 
C 85.242 188.810377 85.177477 188.96615 85.177477 189.128553 
C 85.177477 189.290956 85.242 189.44673 85.356837 189.561566 
C 85.471673 189.676402 85.627446 189.740926 85.789849 189.740926 
z
" style="fill:#ff0000;stroke:#ff0000;"/>
    <path clip-path="url(#pb3939a0b9b)" d="M 75.491184 200.713616 
C 75.584948 200.713616 75.674883 200.676364 75.741184 200.610063 
C 75.807485 200.543762 75.844738 200.453826 75.844738 200.360063 
C 75.844738 200.266299 75.807485 200.176364 75.741184 200.110063 
C 75.674883 200.043762 75.584948 200.00651 75.491184 200.00651 
C 75.397421 200.00651 75.307485 200.043762 75.241184 200.110063 
C 75.174883 200.176364 75.137631 200.266299 75.137631 200.360063 
C 75.137631 200.453826 75.174883 200.543762 75.241184 200.610063 
C 75.307485 200.676364 75.397421 200.713616 75.491184 200.713616 
z
" style="fill:#ff0000;stroke:#ff0000;"/>
    <path clip-path="url(#pb3939a0b9b)" d="M 308.024995 227.417209 
C 308.555401 227.417209 309.064154 227.206477 309.439208 226.831423 
C 309.814262 226.456369 310.024995 225.947615 310.024995 225.417209 
C 310.024995 224.886803 309.814262 224.378049 309.439208 224.002996 
C 309.064154 223.627942 308.555401 223.417209 308.024995 223.417209 
C 307.494589 223.417209 306.985835 223.627942 306.610781 224.002996 
C 306.235727 224.378049 306.024995 224.886803 306.024995 225.417209 
C 306.024995 225.947615 306.235727 226.456369 306.610781 226.831423 
C 306.985835 227.206477 307.494589 227.417209 308.024995 227.417209 
z
" style="fill:#ff0000;stroke:#ff0000;"/>
    <path clip-path="url(#pb3939a0b9b)" d="M 290.324347 228.219391 
C 291.33421 228.219391 292.302848 227.818169 293.01693 227.104087 
C 293.731011 226.390006 294.132234 225.421368 294.132234 224.411505 
C 294.132234 223.401642 293.731011 222.433004 293.01693 221.718923 
C 292.302848 221.004841 291.33421 220.603618 290.324347 220.603618 
C 289.314484 220.603618 288.345846 221.004841 287.631765 221.718923 
C 286.917684 222.433004 286.516461 223.401642 286.516461 224.411505 
C 286.516461 225.421368 286.917684 226.390006 287.631765 227.104087 
C 288.345846 227.818169 289.314484 228.219391 290.324347 228.219391 
z
" style="fill:#ff0000;stroke:#ff0000;"/>
    <path clip-path="url(#pb3939a0b9b)" d="M 272.679137 228.580991 
C 274.050778 228.580991 275.366425 228.036032 276.336321 227.066135 
C 277.306218 226.096238 277.851177 224.780592 277.851177 223.40895 
C 277.851177 222.037309 277.306218 220.721662 276.336321 219.751766 
C 275.366425 218.781869 274.050778 218.23691 272.679137 218.23691 
C 271.307495 218.23691 269.991849 218.781869 269.021952 219.751766 
C 268.052055 220.721662 267.507096 222.037309 267.507096 223.40895 
C 267.507096 224.780592 268.052055 226.096238 269.021952 227.066135 
C 269.991849 228.036032 271.307495 228.580991 272.679137 228.580991 
z
" style="fill:#ff0000;stroke:#ff0000;"/>
    <path clip-path="url(#pb3939a0b9b)" d="M 255.089103 227.794696 
C 256.517265 227.794696 257.887126 227.227281 258.89699 226.217418 
C 259.906853 225.207554 260.474268 223.837693 260.474268 222.409531 
C 260.474268 220.981369 259.906853 219.611508 258.89699 218.601644 
C 257.887126 217.591781 256.517265 217.024366 255.089103 217.024366 
C 253.660941 217.024366 252.29108 217.591781 251.281217 218.601644 
C 250.271353 219.611508 249.703938 220.981369 249.703938 222.409531 
C 249.703938 223.837693 250.271353 225.207554 251.281217 226.217418 
C 252.29108 227.227281 253.660941 227.794696 255.089103 227.794696 
z
" style="fill:#ff0000;stroke:#ff0000;"/>
    <path clip-path="url(#pb3939a0b9b)" d="M 237.553988 226.143454 
C 238.808458 226.143454 240.011716 225.645048 240.89876 224.758004 
C 241.785804 223.87096 242.28421 222.667701 242.28421 221.413232 
C 242.28421 220.158762 241.785804 218.955504 240.89876 218.06846 
C 240.011716 217.181416 238.808458 216.68301 237.553988 216.68301 
C 236.299519 216.68301 235.09626 217.181416 234.209216 218.06846 
C 233.322172 218.955504 232.823766 220.158762 232.823766 221.413232 
C 232.823766 222.667701 233.322172 223.87096 234.209216 224.758004 
C 235.09626 225.645048 236.299519 226.143454 237.553988 226.143454 
z
" style="fill:#ff0000;stroke:#ff0000;"/>
    <path clip-path="url(#pb3939a0b9b)" d="M 220.073535 224.618252 
C 221.186915 224.618252 222.254843 224.175902 223.042121 223.388624 
C 223.829399 222.601346 224.271749 221.533418 224.271749 220.420038 
C 224.271749 219.306659 223.829399 218.238731 223.042121 217.451453 
C 222.254843 216.664175 221.186915 216.221825 220.073535 216.221825 
C 218.960156 216.221825 217.892228 216.664175 217.10495 217.451453 
C 216.317672 218.238731 215.875321 219.306659 215.875321 220.420038 
C 215.875321 221.533418 216.317672 222.601346 217.10495 223.388624 
C 217.892228 224.175902 218.960156 224.618252 220.073535 224.618252 
z
" style="fill:#ff0000;stroke:#ff0000;"/>
    <path clip-path="url(#pb3939a0b9b)" d="M 202.647489 222.323896 
C 203.414976 222.323896 204.151132 222.01897 204.693827 221.476274 
C 205.236522 220.933579 205.541448 220.197423 205.541448 219.429936 
C 205.541448 218.662449 205.236522 217.926293 204.693827 217.383598 
C 204.151132 216.840903 203.414976 216.535977 202.647489 216.535977 
C 201.880002 216.535977 201.143846 216.840903 200.601151 217.383598 
C 200.058455 217.926293 199.75353 218.662449 199.75353 219.429936 
C 199.75353 220.197423 200.058455 220.933579 200.601151 221.476274 
C 201.143846 222.01897 201.880002 222.323896 202.647489 222.323896 
z
" style="fill:#ff0000;stroke:#ff0000;"/>
    <path clip-path="url(#pb3939a0b9b)" d="M 185.275595 220.892401 
C 185.925208 220.892401 186.548301 220.634307 187.007646 220.174962 
C 187.466991 219.715617 187.725085 219.092523 187.725085 218.442911 
C 187.725085 217.793299 187.466991 217.170205 187.007646 216.71086 
C 186.548301 216.251515 185.925208 215.993421 185.275595 215.993421 
C 184.625983 215.993421 184.00289 216.251515 183.543545 216.71086 
C 183.084199 217.170205 182.826106 217.793299 182.826106 218.442911 
C 182.826106 219.092523 183.084199 219.715617 183.543545 220.174962 
C 184.00289 220.634307 184.625983 220.892401 185.275595 220.892401 
z
" style="fill:#ff0000;stroke:#ff0000;"/>
    <path clip-path="url(#pb3939a0b9b)" d="M 167.957603 219.226715 
C 168.42642 219.226715 168.876099 219.040452 169.207603 218.708948 
C 169.539107 218.377444 169.72537 217.927765 169.72537 217.458948 
C 169.72537 216.990131 169.539107 216.540452 169.207603 216.208948 
C 168.876099 215.877444 168.42642 215.691181 167.957603 215.691181 
C 167.488786 215.691181 167.039107 215.877444 166.707603 216.208948 
C 166.376099 216.540452 166.189836 216.990131 166.189836 217.458948 
C 166.189836 217.927765 166.376099 218.377444 166.707603 218.708948 
C 167.039107 219.040452 167.488786 219.226715 167.957603 219.226715 
z
" style="fill:#ff0000;stroke:#ff0000;"/>
    <path clip-path="url(#pb3939a0b9b)" d="M 150.693261 217.935772 
C 151.079858 217.935772 151.450673 217.782175 151.724038 217.50881 
C 151.997403 217.235445 152.150999 216.86463 152.150999 216.478034 
C 152.150999 216.091437 151.997403 215.720622 151.724038 215.447257 
C 151.450673 215.173892 151.079858 215.020296 150.693261 215.020296 
C 150.306665 215.020296 149.93585 215.173892 149.662485 215.447257 
C 149.38912 215.720622 149.235523 216.091437 149.235523 216.478034 
C 149.235523 216.86463 149.38912 217.235445 149.662485 217.50881 
C 149.93585 217.782175 150.306665 217.935772 150.693261 217.935772 
z
" style="fill:#ff0000;stroke:#ff0000;"/>
    <path clip-path="url(#pb3939a0b9b)" d="M 133.482321 216.560813 
C 133.763611 216.560813 134.033419 216.449056 134.232321 216.250153 
C 134.431223 216.051251 134.542981 215.781444 134.542981 215.500153 
C 134.542981 215.218863 134.431223 214.949056 134.232321 214.750153 
C 134.033419 214.551251 133.763611 214.439493 133.482321 214.439493 
C 133.201031 214.439493 132.931223 214.551251 132.732321 214.750153 
C 132.533419 214.949056 132.421661 215.218863 132.421661 215.500153 
C 132.421661 215.781444 132.533419 216.051251 132.732321 216.250153 
C 132.931223 216.449056 133.201031 216.560813 133.482321 216.560813 
z
" style="fill:#ff0000;stroke:#ff0000;"/>
    <path clip-path="url(#pb3939a0b9b)" d="M 116.324535 215.2324 
C 116.512062 215.2324 116.691933 215.157894 116.824535 215.025293 
C 116.957136 214.892691 117.031642 214.71282 117.031642 214.525293 
C 117.031642 214.337766 116.957136 214.157894 116.824535 214.025293 
C 116.691933 213.892691 116.512062 213.818186 116.324535 213.818186 
C 116.137008 213.818186 115.957136 213.892691 115.824535 214.025293 
C 115.691933 214.157894 115.617428 214.337766 115.617428 214.525293 
C 115.617428 214.71282 115.691933 214.892691 115.824535 215.025293 
C 115.957136 215.157894 116.137008 215.2324 116.324535 215.2324 
z
" style="fill:#ff0000;stroke:#ff0000;"/>
    <path clip-path="url(#pb3939a0b9b)" d="M 99.219657 214.053439 
C 99.352259 214.053439 99.479447 214.000756 99.573211 213.906992 
C 99.666974 213.813229 99.719657 213.68604 99.719657 213.553439 
C 99.719657 213.420837 99.666974 213.293649 99.573211 213.199885 
C 99.479447 213.106122 99.352259 213.053439 99.219657 213.053439 
C 99.087056 213.053439 98.959867 213.106122 98.866104 213.199885 
C 98.77234 213.293649 98.719657 213.420837 98.719657 213.553439 
C 98.719657 213.68604 98.77234 213.813229 98.866104 213.906992 
C 98.959867 214.000756 99.087056 214.053439 99.219657 214.053439 
z
" style="fill:#ff0000;stroke:#ff0000;"/>
    <path clip-path="url(#pb3939a0b9b)" d="M 82.167443 212.93813 
C 82.261207 212.93813 82.351143 212.900878 82.417443 212.834577 
C 82.483744 212.768276 82.520997 212.67834 82.520997 212.584577 
C 82.520997 212.490813 82.483744 212.400878 82.417443 212.334577 
C 82.351143 212.268276 82.261207 212.231023 82.167443 212.231023 
C 82.07368 212.231023 81.983744 212.268276 81.917443 212.334577 
C 81.851143 212.400878 81.81389 212.490813 81.81389 212.584577 
C 81.81389 212.67834 81.851143 212.768276 81.917443 212.834577 
C 81.983744 212.900878 82.07368 212.93813 82.167443 212.93813 
z
" style="fill:#ff0000;stroke:#ff0000;"/>
   </g>
   <g id="legend_1">
    <g id="patch_6">
     <path d="M 21.2 291.2 
L 294.2 291.2 
Q 297.2 291.2 297.2 288.2 
L 297.2 249.95 
Q 297.2 246.95 294.2 246.95 
L 21.2 246.95 
Q 18.2 246.95 18.2 249.95 
L 18.2 288.2 
Q 18.2 291.2 21.2 291.2 
z
" style="fill:#ffffff;opacity:0.8;stroke:#cccccc;stroke-linejoin:miter;"/>
    </g>
    <g id="Path3DCollection_3">
     <defs>
      <path d="M 0 5.448624 
C 1.444992 5.448624 2.830995 4.874522 3.852759 3.852759 
C 4.874522 2.830995 5.448624 1.444992 5.448624 0 
C 5.448624 -1.444992 4.874522 -2.830995 3.852759 -3.852759 
C 2.830995 -4.874522 1.444992 -5.448624 0 -5.448624 
C -1.444992 -5.448624 -2.830995 -4.874522 -3.852759 -3.852759 
C -4.874522 -2.830995 -5.448624 -1.444992 -5.448624 0 
C -5.448624 1.444992 -4.874522 2.830995 -3.852759 3.852759 
C -2.830995 4.874522 -1.444992 5.448624 0 5.448624 
z
" id="mc7e6331dee" style="stroke:#ff0000;"/>
     </defs>
     <g>
      <use style="fill:#ff0000;stroke:#ff0000;" x="39.2" xlink:href="#mc7e6331dee" y="259.5125"/>
     </g>
    </g>
    <g id="text_28">
     <!-- probability of absorbing state -->
     <defs>
      <path d="M 44.140625 23.828125 
Q 44.140625 12.5 38.671875 6.640625 
Q 33.203125 0.78125 25.390625 0.78125 
Q 21.09375 0.78125 17.96875 2.53125 
Q 14.84375 4.296875 12.5 7.8125 
L 12.5 -12.5 
L 4.6875 -12.5 
L 4.6875 45.703125 
L 12.5 45.703125 
L 12.5 39.84375 
Q 14.84375 43.359375 17.96875 44.921875 
Q 21.09375 46.484375 25.390625 46.484375 
Q 33.203125 46.484375 38.671875 40.8125 
Q 44.140625 35.15625 44.140625 23.828125 
z
M 35.546875 23.828125 
Q 35.546875 31.25 32.609375 35.34375 
Q 29.6875 39.453125 23.828125 39.453125 
Q 19.140625 39.453125 15.8125 35.34375 
Q 12.5 31.25 12.5 23.828125 
Q 12.5 16.40625 15.8125 12.109375 
Q 19.140625 7.8125 23.828125 7.8125 
Q 29.6875 7.8125 32.609375 12.109375 
Q 35.546875 16.40625 35.546875 23.828125 
z
" id="SimHei-70"/>
      <path d="M 39.0625 37.890625 
Q 31.640625 39.0625 26.5625 35.734375 
Q 21.484375 32.421875 17.96875 24.21875 
L 17.96875 1.953125 
L 10.15625 1.953125 
L 10.15625 45.703125 
L 17.96875 45.703125 
L 17.96875 34.375 
Q 21.484375 40.625 26.75 43.546875 
Q 32.03125 46.484375 39.0625 46.484375 
z
" id="SimHei-72"/>
      <path d="M 44.140625 23.828125 
Q 44.140625 12.5 38.671875 6.828125 
Q 33.203125 1.171875 25.390625 1.171875 
Q 21.09375 1.171875 17.96875 2.734375 
Q 14.84375 4.296875 12.5 7.8125 
L 12.5 1.953125 
L 4.6875 1.953125 
L 4.6875 68.75 
L 12.5 68.75 
L 12.5 39.84375 
Q 14.84375 43.359375 17.96875 45.109375 
Q 21.09375 46.875 25.390625 46.875 
Q 33.203125 46.875 38.671875 41.015625 
Q 44.140625 35.15625 44.140625 23.828125 
z
M 35.546875 23.828125 
Q 35.546875 31.25 32.609375 35.546875 
Q 29.6875 39.84375 23.828125 39.84375 
Q 19.140625 39.84375 15.8125 35.546875 
Q 12.5 31.25 12.5 23.828125 
Q 12.5 16.40625 15.8125 12.296875 
Q 19.140625 8.203125 23.828125 8.203125 
Q 29.6875 8.203125 32.609375 12.296875 
Q 35.546875 16.40625 35.546875 23.828125 
z
" id="SimHei-62"/>
      <path d="M 44.921875 1.953125 
L 35.546875 1.953125 
Q 34.765625 2.734375 34.375 4.09375 
Q 33.984375 5.46875 33.984375 7.421875 
Q 31.25 4.296875 27.34375 2.734375 
Q 23.4375 1.171875 19.140625 1.171875 
Q 12.890625 1.171875 8.59375 4.296875 
Q 4.296875 7.421875 4.296875 13.28125 
Q 4.296875 19.140625 8.203125 22.65625 
Q 12.109375 26.171875 20.3125 27.34375 
Q 25.78125 28.125 29.875 29.296875 
Q 33.984375 30.46875 33.984375 32.421875 
Q 33.984375 34.765625 32.21875 37.109375 
Q 30.46875 39.453125 24.609375 39.453125 
Q 19.921875 39.453125 17.765625 37.6875 
Q 15.625 35.9375 14.84375 32.8125 
L 6.25 32.8125 
Q 7.03125 39.0625 11.90625 42.765625 
Q 16.796875 46.484375 24.609375 46.484375 
Q 33.203125 46.484375 37.5 42.578125 
Q 41.796875 38.671875 41.796875 31.640625 
L 41.796875 10.15625 
Q 41.796875 7.8125 42.578125 5.859375 
Q 43.359375 3.90625 44.921875 1.953125 
z
M 33.984375 16.40625 
L 33.984375 24.21875 
Q 31.640625 23.4375 29.484375 22.84375 
Q 27.34375 22.265625 22.265625 21.484375 
Q 16.40625 20.703125 14.640625 18.75 
Q 12.890625 16.796875 12.890625 14.0625 
Q 12.890625 11.71875 14.640625 9.953125 
Q 16.40625 8.203125 19.921875 8.203125 
Q 23.4375 8.203125 27.53125 10.15625 
Q 31.640625 12.109375 33.984375 16.40625 
z
" id="SimHei-61"/>
      <path d="M 28.515625 1.953125 
L 20.703125 1.953125 
L 20.703125 68.75 
L 28.515625 68.75 
z
" id="SimHei-6c"/>
      <path d="M 42.96875 3.125 
Q 41.015625 2.34375 38.46875 1.75 
Q 35.9375 1.171875 31.640625 1.171875 
Q 24.609375 1.171875 20.3125 5.078125 
Q 16.015625 8.984375 16.015625 16.015625 
L 16.015625 39.453125 
L 2.734375 39.453125 
L 2.734375 45.703125 
L 16.015625 45.703125 
L 16.015625 60.9375 
L 23.828125 60.9375 
L 23.828125 45.703125 
L 39.84375 45.703125 
L 39.84375 39.453125 
L 23.828125 39.453125 
L 23.828125 15.625 
Q 23.828125 12.5 25.390625 10.34375 
Q 26.953125 8.203125 31.25 8.203125 
Q 35.546875 8.203125 38.28125 8.984375 
Q 41.015625 9.765625 42.96875 10.9375 
z
" id="SimHei-74"/>
      <path d="M 45.3125 45.703125 
L 27.34375 -1.5625 
Q 25.78125 -7.03125 22.65625 -9.765625 
Q 19.53125 -12.5 14.84375 -12.5 
Q 12.890625 -12.5 11.125 -12.296875 
Q 9.375 -12.109375 7.8125 -11.328125 
L 7.8125 -3.515625 
Q 9.375 -4.296875 10.9375 -4.6875 
Q 12.5 -5.078125 13.671875 -5.078125 
Q 16.796875 -5.078125 17.96875 -4.09375 
Q 19.140625 -3.125 20.3125 0.390625 
L 3.125 45.703125 
L 11.71875 45.703125 
L 24.21875 11.328125 
L 24.609375 11.328125 
L 36.71875 45.703125 
z
" id="SimHei-79"/>
      <path d="M 46.484375 39.0625 
Q 43.75 39.84375 41.203125 40.03125 
Q 38.671875 40.234375 35.9375 39.453125 
Q 37.109375 38.28125 37.890625 36.515625 
Q 38.671875 34.765625 38.671875 31.25 
Q 38.671875 24.609375 34.171875 20.3125 
Q 29.6875 16.015625 23.046875 16.015625 
Q 21.484375 16.015625 18.9375 16.59375 
Q 16.40625 17.1875 14.84375 17.96875 
Q 13.671875 17.1875 13.28125 16.40625 
Q 12.890625 15.625 12.890625 14.453125 
Q 12.890625 12.5 15.625 11.515625 
Q 18.359375 10.546875 25.390625 10.546875 
Q 36.71875 10.546875 40.8125 7.421875 
Q 44.921875 4.296875 44.921875 -0.390625 
Q 44.921875 -6.640625 38.859375 -9.5625 
Q 32.8125 -12.5 24.609375 -12.5 
Q 14.0625 -12.5 8.984375 -9.765625 
Q 3.90625 -7.03125 3.90625 -2.34375 
Q 3.90625 0 5.859375 2.34375 
Q 7.8125 4.6875 10.9375 6.25 
Q 8.59375 7.421875 7.21875 9.171875 
Q 5.859375 10.9375 5.859375 13.671875 
Q 5.859375 16.015625 7.609375 17.765625 
Q 9.375 19.53125 11.71875 20.703125 
Q 9.765625 22.65625 8.59375 25.390625 
Q 7.421875 28.125 7.421875 31.25 
Q 7.421875 37.890625 11.90625 42.1875 
Q 16.40625 46.484375 23.046875 46.484375 
Q 26.5625 46.484375 29.09375 45.5 
Q 31.640625 44.53125 33.59375 42.578125 
Q 36.71875 44.921875 39.84375 45.890625 
Q 42.96875 46.875 46.484375 46.484375 
z
M 30.859375 31.25 
Q 30.859375 35.15625 28.90625 37.5 
Q 26.953125 39.84375 23.046875 39.84375 
Q 19.140625 39.84375 17.1875 37.5 
Q 15.234375 35.15625 15.234375 31.25 
Q 15.234375 27.34375 17.1875 25 
Q 19.140625 22.65625 23.046875 22.65625 
Q 26.953125 22.65625 28.90625 25 
Q 30.859375 27.34375 30.859375 31.25 
z
M 37.5 -1.171875 
Q 37.5 0.390625 35.734375 1.953125 
Q 33.984375 3.515625 26.953125 3.515625 
Q 25.390625 3.515625 22.65625 3.703125 
Q 19.921875 3.90625 16.40625 4.296875 
Q 13.28125 3.125 12.109375 1.5625 
Q 10.9375 0 10.9375 -1.5625 
Q 10.9375 -3.90625 14.0625 -5.46875 
Q 17.1875 -7.03125 25 -7.03125 
Q 31.640625 -7.03125 34.5625 -5.265625 
Q 37.5 -3.515625 37.5 -1.171875 
z
" id="SimHei-67"/>
      <path d="M 44.53125 16.796875 
Q 43.75 9.765625 38.28125 5.46875 
Q 32.8125 1.171875 25.390625 1.171875 
Q 16.015625 1.171875 9.953125 7.21875 
Q 3.90625 13.28125 3.90625 23.828125 
Q 3.90625 34.375 9.953125 40.421875 
Q 16.015625 46.484375 25.390625 46.484375 
Q 33.59375 46.484375 38.859375 41.203125 
Q 44.140625 35.9375 44.140625 23.828125 
L 12.5 23.828125 
Q 12.5 15.234375 16.203125 11.71875 
Q 19.921875 8.203125 25.390625 8.203125 
Q 29.6875 8.203125 32.421875 10.34375 
Q 35.15625 12.5 35.9375 16.796875 
z
M 35.15625 30.078125 
Q 34.375 35.546875 31.640625 37.6875 
Q 28.90625 39.84375 24.609375 39.84375 
Q 20.703125 39.84375 17.578125 37.6875 
Q 14.453125 35.546875 12.890625 30.078125 
z
" id="SimHei-65"/>
     </defs>
     <g transform="translate(66.2 263.45)scale(0.15 -0.15)">
      <use xlink:href="#SimHei-70"/>
      <use x="50" xlink:href="#SimHei-72"/>
      <use x="100" xlink:href="#SimHei-6f"/>
      <use x="150" xlink:href="#SimHei-62"/>
      <use x="200" xlink:href="#SimHei-61"/>
      <use x="250" xlink:href="#SimHei-62"/>
      <use x="300" xlink:href="#SimHei-69"/>
      <use x="350" xlink:href="#SimHei-6c"/>
      <use x="400" xlink:href="#SimHei-69"/>
      <use x="450" xlink:href="#SimHei-74"/>
      <use x="500" xlink:href="#SimHei-79"/>
      <use x="550" xlink:href="#SimHei-20"/>
      <use x="600" xlink:href="#SimHei-6f"/>
      <use x="650" xlink:href="#SimHei-66"/>
      <use x="700" xlink:href="#SimHei-20"/>
      <use x="750" xlink:href="#SimHei-61"/>
      <use x="800" xlink:href="#SimHei-62"/>
      <use x="850" xlink:href="#SimHei-73"/>
      <use x="900" xlink:href="#SimHei-6f"/>
      <use x="950" xlink:href="#SimHei-72"/>
      <use x="1000" xlink:href="#SimHei-62"/>
      <use x="1050" xlink:href="#SimHei-69"/>
      <use x="1100" xlink:href="#SimHei-6e"/>
      <use x="1150" xlink:href="#SimHei-67"/>
      <use x="1200" xlink:href="#SimHei-20"/>
      <use x="1250" xlink:href="#SimHei-73"/>
      <use x="1300" xlink:href="#SimHei-74"/>
      <use x="1350" xlink:href="#SimHei-61"/>
      <use x="1400" xlink:href="#SimHei-74"/>
      <use x="1450" xlink:href="#SimHei-65"/>
     </g>
    </g>
    <g id="Path3DCollection_4">
     <g>
      <use style="fill:#008000;stroke:#008000;" x="39.2" xlink:href="#m9a9fcb242a" y="279.3875"/>
     </g>
    </g>
    <g id="text_29">
     <!-- start state -->
     <g transform="translate(66.2 283.325)scale(0.15 -0.15)">
      <use xlink:href="#SimHei-73"/>
      <use x="50" xlink:href="#SimHei-74"/>
      <use x="100" xlink:href="#SimHei-61"/>
      <use x="150" xlink:href="#SimHei-72"/>
      <use x="200" xlink:href="#SimHei-74"/>
      <use x="250" xlink:href="#SimHei-20"/>
      <use x="300" xlink:href="#SimHei-73"/>
      <use x="350" xlink:href="#SimHei-74"/>
      <use x="400" xlink:href="#SimHei-61"/>
      <use x="450" xlink:href="#SimHei-74"/>
      <use x="500" xlink:href="#SimHei-65"/>
     </g>
    </g>
   </g>
  </g>
 </g>
 <defs>
  <clipPath id="pb3939a0b9b">
   <rect height="288" width="360" x="10.7" y="10.7"/>
  </clipPath>
 </defs>
</svg>
