<?xml version="1.0" encoding="utf-8" standalone="no"?>
<!DOCTYPE svg PUBLIC "-//W3C//DTD SVG 1.1//EN"
  "http://www.w3.org/Graphics/SVG/1.1/DTD/svg11.dtd">
<!-- Created with matplotlib (http://matplotlib.org/) -->
<svg height="309.4pt" version="1.1" viewBox="0 0 381.4 309.4" width="381.4pt" xmlns="http://www.w3.org/2000/svg" xmlns:xlink="http://www.w3.org/1999/xlink">
 <defs>
  <style type="text/css">
*{stroke-linecap:butt;stroke-linejoin:round;}
  </style>
 </defs>
 <g id="figure_1">
  <g id="patch_1">
   <path d="M 0 309.4 
L 381.4 309.4 
L 381.4 0 
L 0 0 
z
" style="fill:none;"/>
  </g>
  <g id="patch_2">
   <path d="M 10.7 298.7 
L 370.7 298.7 
L 370.7 10.7 
L 10.7 10.7 
z
" style="fill:#ffffff;"/>
  </g>
  <g id="pane3d_1">
   <g id="patch_3">
    <path d="M 219.619567 185.462306 
L 335.768129 233.715199 
L 340.919918 79.597002 
L 220.435568 41.545085 
" style="fill:#f2f2f2;opacity:0.5;stroke:#f2f2f2;stroke-linejoin:miter;"/>
   </g>
  </g>
  <g id="pane3d_2">
   <g id="patch_4">
    <path d="M 219.619567 185.462306 
L 58.794045 217.8137 
L 53.895826 67.034254 
L 220.435568 41.545085 
" style="fill:#e6e6e6;opacity:0.5;stroke:#e6e6e6;stroke-linejoin:miter;"/>
   </g>
  </g>
  <g id="pane3d_3">
   <g id="patch_5">
    <path d="M 219.619567 185.462306 
L 58.794045 217.8137 
L 168.062833 271.631196 
L 335.768129 233.715199 
" style="fill:#ececec;opacity:0.5;stroke:#ececec;stroke-linejoin:miter;"/>
   </g>
  </g>
  <g id="axis3d_1">
   <g id="line2d_1">
    <path d="M 335.768129 233.715199 
L 168.062833 271.631196 
" style="fill:none;stroke:#000000;stroke-linecap:square;stroke-width:0.8;"/>
   </g>
   <g id="text_1">
    <!-- coins of 大熊 -->
    <defs>
     <path d="M 44.53125 19.53125 
Q 44.53125 11.328125 38.859375 6.25 
Q 33.203125 1.171875 24.609375 1.171875 
Q 16.015625 1.171875 9.765625 7.21875 
Q 3.515625 13.28125 3.515625 23.828125 
Q 3.515625 34.375 9.765625 40.421875 
Q 16.015625 46.484375 24.609375 46.484375 
Q 33.203125 46.484375 38.28125 41.984375 
Q 43.359375 37.5 43.359375 31.25 
L 34.765625 31.25 
Q 34.375 35.9375 31.4375 37.6875 
Q 28.515625 39.453125 24.609375 39.453125 
Q 19.921875 39.453125 16.015625 35.734375 
Q 12.109375 32.03125 12.109375 23.828125 
Q 12.109375 15.625 16.015625 11.90625 
Q 19.921875 8.203125 24.609375 8.203125 
Q 29.6875 8.203125 32.8125 10.9375 
Q 35.9375 13.671875 35.9375 19.53125 
z
" id="SimHei-63"/>
     <path d="M 45.703125 23.828125 
Q 45.703125 13.671875 39.453125 7.421875 
Q 33.203125 1.171875 24.609375 1.171875 
Q 16.015625 1.171875 9.765625 7.421875 
Q 3.515625 13.671875 3.515625 23.828125 
Q 3.515625 33.984375 9.765625 40.234375 
Q 16.015625 46.484375 24.609375 46.484375 
Q 33.203125 46.484375 39.453125 40.234375 
Q 45.703125 33.984375 45.703125 23.828125 
z
M 37.109375 23.828125 
Q 37.109375 31.640625 33.203125 35.546875 
Q 29.296875 39.453125 24.609375 39.453125 
Q 19.921875 39.453125 16.015625 35.546875 
Q 12.109375 31.640625 12.109375 23.828125 
Q 12.109375 16.015625 16.015625 12.109375 
Q 19.921875 8.203125 24.609375 8.203125 
Q 29.296875 8.203125 33.203125 12.109375 
Q 37.109375 16.015625 37.109375 23.828125 
z
" id="SimHei-6f"/>
     <path d="M 28.125 58.203125 
L 20.3125 58.203125 
L 20.3125 68.359375 
L 28.125 68.359375 
z
M 28.125 1.953125 
L 20.3125 1.953125 
L 20.3125 45.703125 
L 28.125 45.703125 
z
" id="SimHei-69"/>
     <path d="M 43.75 1.953125 
L 35.9375 1.953125 
L 35.9375 30.078125 
Q 35.9375 34.765625 33.59375 37.5 
Q 31.25 40.234375 27.34375 40.234375 
Q 22.265625 40.234375 17.765625 34.953125 
Q 13.28125 29.6875 13.28125 21.875 
L 13.28125 1.953125 
L 5.46875 1.953125 
L 5.46875 45.703125 
L 13.28125 45.703125 
L 13.28125 37.5 
Q 16.40625 41.796875 20.109375 44.140625 
Q 23.828125 46.484375 29.6875 46.484375 
Q 36.71875 46.484375 40.234375 42.578125 
Q 43.75 38.671875 43.75 32.8125 
z
" id="SimHei-6e"/>
     <path d="M 42.96875 14.0625 
Q 42.96875 7.8125 38.078125 4.484375 
Q 33.203125 1.171875 25.78125 1.171875 
Q 16.40625 1.171875 11.328125 4.875 
Q 6.25 8.59375 6.25 15.625 
L 14.0625 15.625 
Q 14.0625 10.9375 17.375 9.375 
Q 20.703125 7.8125 25.390625 7.8125 
Q 30.078125 7.8125 32.421875 9.5625 
Q 34.765625 11.328125 34.765625 14.0625 
Q 34.765625 16.015625 32.8125 17.96875 
Q 30.859375 19.921875 23.046875 21.09375 
Q 14.0625 22.265625 10.734375 25.578125 
Q 7.421875 28.90625 7.421875 34.375 
Q 7.421875 39.0625 11.90625 42.765625 
Q 16.40625 46.484375 25 46.484375 
Q 32.8125 46.484375 37.296875 42.96875 
Q 41.796875 39.453125 41.796875 33.59375 
L 33.984375 33.59375 
Q 33.984375 37.109375 31.4375 38.46875 
Q 28.90625 39.84375 25 39.84375 
Q 19.921875 39.84375 17.765625 38.078125 
Q 15.625 36.328125 15.625 33.984375 
Q 15.625 31.25 17.578125 29.6875 
Q 19.53125 28.125 25.78125 27.34375 
Q 35.9375 25.78125 39.453125 22.453125 
Q 42.96875 19.140625 42.96875 14.0625 
z
" id="SimHei-73"/>
     <path id="SimHei-20"/>
     <path d="M 44.53125 59.765625 
Q 42.578125 60.9375 39.84375 61.71875 
Q 37.109375 62.5 32.8125 62.5 
Q 28.515625 62.5 26.953125 60.34375 
Q 25.390625 58.203125 25.390625 55.078125 
L 25.390625 45.703125 
L 41.40625 45.703125 
L 41.40625 39.453125 
L 25.390625 39.453125 
L 25.390625 1.953125 
L 17.578125 1.953125 
L 17.578125 39.453125 
L 4.296875 39.453125 
L 4.296875 45.703125 
L 17.578125 45.703125 
L 17.578125 54.6875 
Q 17.578125 61.71875 21.875 65.625 
Q 26.171875 69.53125 33.203125 69.53125 
Q 37.5 69.53125 40.03125 68.9375 
Q 42.578125 68.359375 44.53125 67.578125 
z
" id="SimHei-66"/>
     <path d="M 45.3125 53.125 
Q 45.703125 66.796875 45.5 71.484375 
Q 45.3125 76.171875 44.921875 80.46875 
Q 49.609375 79.6875 55.46875 79.296875 
Q 54.296875 75.390625 53.703125 67.96875 
Q 53.125 60.546875 53.125 53.125 
L 73.046875 53.125 
Q 83.59375 53.125 92.578125 53.90625 
L 92.578125 45.3125 
Q 84.765625 45.703125 76.5625 45.703125 
L 53.515625 45.703125 
Q 55.078125 39.0625 58.984375 32.21875 
Q 62.890625 25.390625 66.984375 20.109375 
Q 71.09375 14.84375 78.3125 8.984375 
Q 85.546875 3.125 94.140625 -0.78125 
Q 91.015625 -3.125 87.890625 -8.59375 
Q 80.859375 -4.6875 74.015625 1.171875 
Q 67.1875 7.03125 60.34375 16.59375 
Q 53.515625 26.171875 50 34.375 
Q 46.875 25.78125 43.359375 20.109375 
Q 39.84375 14.453125 35.734375 9.765625 
Q 31.640625 5.078125 25.1875 0.390625 
Q 18.75 -4.296875 10.546875 -8.984375 
Q 7.421875 -4.296875 3.515625 -0.78125 
Q 11.71875 1.953125 19.71875 7.03125 
Q 27.734375 12.109375 32.8125 18.546875 
Q 37.890625 25 41.015625 32.03125 
Q 44.140625 39.0625 44.921875 45.703125 
L 23.4375 45.703125 
Q 14.0625 45.703125 8.59375 45.3125 
L 8.59375 53.90625 
Q 14.0625 53.515625 23.4375 53.125 
z
" id="SimHei-5927"/>
     <path d="M 49.609375 52.34375 
Q 49.21875 46.484375 49.21875 40.625 
L 49.21875 19.53125 
Q 49.21875 15.234375 46.484375 13.859375 
Q 43.75 12.5 34.765625 11.328125 
Q 33.59375 14.84375 31.640625 18.359375 
Q 38.671875 18.75 40.421875 18.9375 
Q 42.1875 19.140625 41.796875 23.4375 
L 18.359375 23.4375 
L 18.359375 12.5 
L 10.15625 12.5 
Q 10.546875 25 10.546875 33.59375 
Q 10.546875 42.1875 10.15625 52.34375 
L 49.609375 52.34375 
z
M 65.625 45.3125 
Q 65.234375 41.015625 65.234375 34.375 
Q 81.640625 38.671875 88.28125 43.359375 
Q 90.234375 39.453125 93.359375 36.71875 
Q 85.9375 34.765625 65.625 28.125 
L 65.625 23.046875 
Q 65.625 19.53125 70.703125 19.53125 
L 80.46875 19.53125 
Q 83.59375 19.53125 85.15625 20.890625 
Q 86.71875 22.265625 88.28125 28.125 
Q 92.1875 26.171875 96.875 25.390625 
Q 93.359375 17.1875 91.40625 15.234375 
Q 89.453125 13.28125 83.984375 13.28125 
L 65.234375 13.28125 
Q 57.03125 13.28125 57.03125 19.53125 
L 57.03125 37.5 
Q 57.03125 40.625 56.640625 45.3125 
L 65.625 45.3125 
z
M 92.578125 69.140625 
Q 78.515625 65.234375 64.84375 61.328125 
Q 64.84375 54.6875 68.359375 54.6875 
L 80.46875 54.6875 
Q 83.203125 54.6875 84.765625 56.4375 
Q 86.328125 58.203125 86.71875 62.5 
Q 90.234375 60.9375 94.921875 59.765625 
Q 92.96875 51.5625 90.421875 50.1875 
Q 87.890625 48.828125 82.8125 48.828125 
L 64.84375 48.828125 
Q 57.03125 48.828125 57.03125 54.296875 
L 57.03125 71.09375 
Q 57.03125 75.78125 56.640625 80.46875 
L 65.625 80.46875 
Q 65.234375 75.390625 65.234375 67.1875 
Q 78.515625 70.3125 86.328125 76.171875 
Q 88.671875 72.65625 92.578125 69.140625 
z
M 32.03125 78.125 
Q 24.609375 71.484375 16.40625 62.890625 
Q 22.65625 63.28125 40.625 65.234375 
Q 38.671875 67.578125 35.546875 70.703125 
Q 39.0625 72.265625 42.96875 74.21875 
Q 51.171875 63.28125 55.078125 58.59375 
Q 51.171875 57.03125 48.046875 54.6875 
L 44.53125 59.765625 
Q 42.578125 59.375 33.203125 58.59375 
Q 23.828125 57.8125 9.375 55.859375 
Q 7.421875 59.375 6.25 62.890625 
Q 10.15625 64.84375 14.640625 69.53125 
Q 19.140625 74.21875 23.4375 82.03125 
Q 27.734375 79.6875 32.03125 78.125 
z
M 41.796875 28.90625 
L 41.796875 35.546875 
L 18.359375 35.546875 
L 18.359375 28.90625 
z
M 20.3125 6.640625 
Q 17.1875 3.125 11.71875 -9.765625 
Q 6.640625 -7.8125 3.90625 -7.03125 
Q 6.640625 -1.5625 11.71875 8.984375 
Q 15.625 7.8125 20.3125 6.640625 
z
M 85.9375 10.15625 
Q 92.578125 -1.953125 94.140625 -5.46875 
Q 89.84375 -6.640625 86.328125 -8.59375 
Q 83.984375 -2.34375 78.515625 7.03125 
Q 81.25 8.203125 85.9375 10.15625 
z
M 41.796875 41.015625 
L 41.796875 46.875 
L 18.359375 46.875 
L 18.359375 41.015625 
z
M 62.890625 8.59375 
Q 65.625 -1.953125 66.40625 -5.859375 
L 58.59375 -7.421875 
Q 57.421875 -3.90625 55.46875 7.421875 
Q 58.59375 8.203125 62.890625 8.59375 
z
M 39.84375 7.421875 
Q 40.234375 3.90625 42.578125 -6.640625 
Q 38.671875 -6.640625 34.375 -7.8125 
Q 33.59375 -3.125 32.03125 6.640625 
Q 35.15625 7.421875 39.84375 7.421875 
z
" id="SimHei-718a"/>
    </defs>
    <g style="fill:#800080;" transform="translate(235.061813 295.570823)rotate(-12.739652)scale(0.12 -0.12)">
     <use xlink:href="#SimHei-63"/>
     <use x="50" xlink:href="#SimHei-6f"/>
     <use x="100" xlink:href="#SimHei-69"/>
     <use x="150" xlink:href="#SimHei-6e"/>
     <use x="200" xlink:href="#SimHei-73"/>
     <use x="250" xlink:href="#SimHei-20"/>
     <use x="300" xlink:href="#SimHei-6f"/>
     <use x="350" xlink:href="#SimHei-66"/>
     <use x="400" xlink:href="#SimHei-20"/>
     <use x="450" xlink:href="#SimHei-5927"/>
     <use x="550" xlink:href="#SimHei-718a"/>
    </g>
   </g>
   <g id="Line3DCollection_1">
    <path d="M 325.649087 236.002984 
L 209.876104 187.422284 
L 210.363217 43.086674 
" style="fill:none;stroke:#b0b0b0;stroke-width:0.8;"/>
    <path d="M 305.615951 240.532216 
L 190.60155 191.299522 
L 190.43149 46.137256 
" style="fill:none;stroke:#b0b0b0;stroke-width:0.8;"/>
    <path d="M 285.302458 245.124834 
L 171.077619 195.226923 
L 170.232989 49.228668 
" style="fill:none;stroke:#b0b0b0;stroke-width:0.8;"/>
    <path d="M 264.70268 249.782177 
L 151.299439 199.205469 
L 149.762321 52.361736 
" style="fill:none;stroke:#b0b0b0;stroke-width:0.8;"/>
    <path d="M 243.810523 254.505623 
L 131.262013 203.236164 
L 129.013948 55.537307 
" style="fill:none;stroke:#b0b0b0;stroke-width:0.8;"/>
    <path d="M 222.619718 259.29659 
L 110.960209 207.320041 
L 107.982181 58.756252 
" style="fill:none;stroke:#b0b0b0;stroke-width:0.8;"/>
    <path d="M 201.123814 264.156536 
L 90.38876 211.458159 
L 86.661174 62.019466 
" style="fill:none;stroke:#b0b0b0;stroke-width:0.8;"/>
    <path d="M 179.316176 269.086961 
L 69.542258 215.651607 
L 65.044918 65.327868 
" style="fill:none;stroke:#b0b0b0;stroke-width:0.8;"/>
   </g>
   <g id="xtick_1">
    <g id="line2d_2">
     <path d="M 324.648958 235.583309 
L 327.653217 236.843957 
" style="fill:none;stroke:#000000;stroke-linecap:square;stroke-width:0.8;"/>
    </g>
    <g id="text_2">
     <!-- 0 -->
     <defs>
      <path d="M 3.125 29.296875 
Q 3.90625 50 6.4375 56.046875 
Q 8.984375 62.109375 13.671875 66.015625 
Q 18.359375 69.921875 25.1875 69.921875 
Q 32.03125 69.921875 37.109375 64.25 
Q 42.1875 58.59375 43.75 50 
Q 45.3125 41.40625 44.71875 30.265625 
Q 44.140625 19.140625 40.8125 12.109375 
Q 37.5 5.078125 30.859375 2.34375 
Q 24.21875 -0.390625 17.578125 2.921875 
Q 10.9375 6.25 8.203125 11.71875 
Q 5.46875 17.1875 4.296875 23.234375 
Q 3.125 29.296875 3.90625 50 
z
M 12.890625 52.734375 
Q 10.546875 31.25 12.5 22.84375 
Q 14.453125 14.453125 18.9375 10.9375 
Q 23.4375 7.421875 28.125 9.5625 
Q 32.8125 11.71875 34.953125 18.15625 
Q 37.109375 24.609375 37.109375 32.21875 
Q 37.109375 39.84375 36.515625 46.09375 
Q 35.9375 52.34375 33 57.421875 
Q 30.078125 62.5 25.1875 62.6875 
Q 20.3125 62.890625 16.59375 57.8125 
Q 12.890625 52.734375 10.546875 31.25 
z
" id="SimHei-30"/>
     </defs>
     <g transform="translate(330.134125 260.095778)scale(0.15 -0.15)">
      <use xlink:href="#SimHei-30"/>
     </g>
    </g>
   </g>
   <g id="xtick_2">
    <g id="line2d_3">
     <path d="M 304.621865 240.106691 
L 307.607998 241.384926 
" style="fill:none;stroke:#000000;stroke-linecap:square;stroke-width:0.8;"/>
    </g>
    <g id="text_3">
     <!-- 2 -->
     <defs>
      <path d="M 4.6875 3.90625 
Q 5.078125 9.765625 10.15625 14.453125 
Q 15.234375 19.140625 23.046875 29.09375 
Q 30.859375 39.0625 33.203125 44.53125 
Q 35.546875 50 34.953125 53.90625 
Q 34.375 57.8125 31.25 60.34375 
Q 28.125 62.890625 24.015625 62.5 
Q 19.921875 62.109375 16.203125 59.375 
Q 12.5 56.640625 10.546875 51.171875 
L 3.125 52.34375 
Q 6.25 61.328125 11.125 65.421875 
Q 16.015625 69.53125 22.65625 69.921875 
Q 26.5625 70.3125 29.6875 69.71875 
Q 32.8125 69.140625 36.125 66.984375 
Q 39.453125 64.84375 41.59375 60.546875 
Q 43.75 56.25 43.15625 50.1875 
Q 42.578125 44.140625 37.109375 35.734375 
Q 31.640625 27.34375 16.015625 9.375 
L 44.140625 9.375 
L 44.140625 2.34375 
L 4.6875 2.34375 
z
" id="SimHei-32"/>
     </defs>
     <g transform="translate(310.096382 264.735082)scale(0.15 -0.15)">
      <use xlink:href="#SimHei-32"/>
     </g>
    </g>
   </g>
   <g id="xtick_3">
    <g id="line2d_4">
     <path d="M 284.314682 244.693335 
L 287.281886 245.989527 
" style="fill:none;stroke:#000000;stroke-linecap:square;stroke-width:0.8;"/>
    </g>
    <g id="text_4">
     <!-- 4 -->
     <defs>
      <path d="M 31.25 17.1875 
L 1.171875 17.1875 
L 1.171875 23.828125 
L 32.8125 69.53125 
L 38.671875 69.53125 
L 38.671875 23.828125 
L 48.046875 23.828125 
L 48.046875 17.1875 
L 38.671875 17.1875 
L 38.671875 2.34375 
L 31.25 2.34375 
z
M 31.25 23.828125 
L 31.25 54.6875 
L 9.375 23.828125 
z
" id="SimHei-34"/>
     </defs>
     <g transform="translate(289.777342 269.439513)scale(0.15 -0.15)">
      <use xlink:href="#SimHei-34"/>
     </g>
    </g>
   </g>
   <g id="xtick_4">
    <g id="line2d_5">
     <path d="M 263.721492 249.344577 
L 266.668935 250.659107 
" style="fill:none;stroke:#000000;stroke-linecap:square;stroke-width:0.8;"/>
    </g>
    <g id="text_5">
     <!-- 6 -->
     <defs>
      <path d="M 3.515625 19.53125 
Q 4.296875 30.859375 6.046875 34.765625 
Q 7.8125 38.671875 11.328125 44.53125 
L 27.34375 69.53125 
L 36.328125 69.53125 
L 19.921875 43.75 
Q 30.46875 46.484375 36.71875 42.96875 
Q 42.96875 39.453125 45.109375 34.953125 
Q 47.265625 30.46875 47.453125 25.1875 
Q 47.65625 19.921875 45.890625 14.84375 
Q 44.140625 9.765625 39.640625 5.65625 
Q 35.15625 1.5625 27.140625 1.171875 
Q 19.140625 0.78125 13.46875 4.09375 
Q 7.8125 7.421875 5.65625 13.46875 
Q 3.515625 19.53125 4.296875 30.859375 
z
M 12.5 16.015625 
Q 19.53125 8.59375 25.390625 8.203125 
Q 31.25 7.8125 35.15625 12.109375 
Q 39.0625 16.40625 39.0625 24.609375 
Q 39.0625 32.8125 34.171875 35.9375 
Q 29.296875 39.0625 23.234375 38.28125 
Q 17.1875 37.5 14.453125 32.421875 
Q 11.71875 27.34375 12.109375 21.671875 
Q 12.5 16.015625 19.53125 8.59375 
z
" id="SimHei-36"/>
     </defs>
     <g transform="translate(269.171041 274.210454)scale(0.15 -0.15)">
      <use xlink:href="#SimHei-36"/>
     </g>
    </g>
   </g>
   <g id="xtick_5">
    <g id="line2d_6">
     <path d="M 242.83621 254.061792 
L 245.763028 255.395052 
" style="fill:none;stroke:#000000;stroke-linecap:square;stroke-width:0.8;"/>
    </g>
    <g id="text_6">
     <!-- 8 -->
     <defs>
      <path d="M 2.734375 16.796875 
Q 2.734375 26.171875 5.078125 30.65625 
Q 7.421875 35.15625 12.890625 37.890625 
Q 8.203125 40.625 6.640625 43.9375 
Q 5.078125 47.265625 4.875 51.5625 
Q 4.6875 55.859375 6.046875 58.984375 
Q 7.421875 62.109375 10.15625 64.84375 
Q 12.890625 67.578125 16.203125 68.546875 
Q 19.53125 69.53125 23.4375 69.53125 
Q 27.34375 69.53125 30.46875 68.75 
Q 33.59375 67.96875 37.109375 65.421875 
Q 40.625 62.890625 42.1875 58.203125 
Q 43.75 53.515625 41.984375 47.265625 
Q 40.234375 41.015625 32.8125 37.5 
Q 39.453125 35.546875 42.1875 31.4375 
Q 44.921875 27.34375 44.921875 21.484375 
Q 44.921875 15.625 43.15625 12.109375 
Q 41.40625 8.59375 39.25 6.25 
Q 37.109375 3.90625 33.390625 2.53125 
Q 29.6875 1.171875 24.015625 1.171875 
Q 18.359375 1.171875 14.25 2.53125 
Q 10.15625 3.90625 7.421875 6.640625 
Q 4.6875 9.375 3.703125 13.078125 
Q 2.734375 16.796875 2.734375 26.171875 
z
M 10.9375 26.5625 
Q 10.546875 17.1875 12.296875 13.671875 
Q 14.0625 10.15625 18.75 9.171875 
Q 23.4375 8.203125 28.515625 9.375 
Q 33.59375 10.546875 35.546875 14.84375 
Q 37.5 19.140625 36.90625 23.4375 
Q 36.328125 27.734375 32.03125 30.65625 
Q 27.734375 33.59375 22.65625 33.203125 
Q 17.578125 32.8125 14.25 29.6875 
Q 10.9375 26.5625 10.546875 17.1875 
z
M 12.109375 56.25 
Q 12.109375 48.4375 14.84375 44.921875 
Q 17.578125 41.40625 23.4375 41.40625 
Q 29.296875 41.40625 32.21875 44.921875 
Q 35.15625 48.4375 34.953125 53.3125 
Q 34.765625 58.203125 31.4375 60.546875 
Q 28.125 62.890625 22.453125 62.5 
Q 16.796875 62.109375 14.453125 59.171875 
Q 12.109375 56.25 12.109375 48.4375 
z
" id="SimHei-38"/>
     </defs>
     <g transform="translate(248.271344 279.049324)scale(0.15 -0.15)">
      <use xlink:href="#SimHei-38"/>
     </g>
    </g>
   </g>
   <g id="xtick_6">
    <g id="line2d_7">
     <path d="M 221.652577 258.846394 
L 224.557878 260.198787 
" style="fill:none;stroke:#000000;stroke-linecap:square;stroke-width:0.8;"/>
    </g>
    <g id="text_7">
     <!-- 10 -->
     <defs>
      <path d="M 21.875 56.25 
Q 16.796875 51.171875 8.984375 46.484375 
L 8.984375 53.90625 
Q 18.75 60.546875 25 69.53125 
L 29.6875 69.53125 
L 29.6875 2.34375 
L 21.875 2.34375 
z
" id="SimHei-31"/>
     </defs>
     <g transform="translate(223.321939 283.957585)scale(0.15 -0.15)">
      <use xlink:href="#SimHei-31"/>
      <use x="50" xlink:href="#SimHei-30"/>
     </g>
    </g>
   </g>
   <g id="xtick_7">
    <g id="line2d_8">
     <path d="M 200.164153 263.699837 
L 203.047012 265.071778 
" style="fill:none;stroke:#000000;stroke-linecap:square;stroke-width:0.8;"/>
    </g>
    <g id="text_8">
     <!-- 12 -->
     <g transform="translate(201.816333 288.936741)scale(0.15 -0.15)">
      <use xlink:href="#SimHei-31"/>
      <use x="50" xlink:href="#SimHei-32"/>
     </g>
    </g>
   </g>
   <g id="xtick_8">
    <g id="line2d_9">
     <path d="M 178.364314 268.623617 
L 181.22377 270.015533 
" style="fill:none;stroke:#000000;stroke-linecap:square;stroke-width:0.8;"/>
    </g>
    <g id="text_9">
     <!-- 14 -->
     <g transform="translate(179.997844 293.988337)scale(0.15 -0.15)">
      <use xlink:href="#SimHei-31"/>
      <use x="50" xlink:href="#SimHei-34"/>
     </g>
    </g>
   </g>
  </g>
  <g id="axis3d_2">
   <g id="line2d_10">
    <path d="M 58.794045 217.8137 
L 168.062833 271.631196 
" style="fill:none;stroke:#000000;stroke-linecap:square;stroke-width:0.8;"/>
   </g>
   <g id="text_10">
    <!-- coins of 胖虎 -->
    <defs>
     <path d="M 21.484375 1.953125 
Q 25.78125 1.5625 28.515625 1.75 
Q 31.25 1.953125 31.640625 7.03125 
L 31.640625 26.171875 
L 18.359375 26.171875 
Q 16.796875 14.453125 14.453125 5.859375 
Q 12.109375 -2.734375 10.15625 -7.03125 
Q 6.640625 -3.90625 3.125 -2.734375 
Q 6.640625 2.734375 8.78125 10.34375 
Q 10.9375 17.96875 11.71875 30.859375 
L 11.71875 64.453125 
Q 11.71875 71.09375 11.328125 76.953125 
L 38.671875 76.953125 
Q 38.28125 69.140625 38.28125 61.328125 
L 38.28125 1.953125 
Q 38.28125 -6.25 23.4375 -7.03125 
Q 23.046875 -3.125 21.484375 1.953125 
z
M 64.453125 45.3125 
L 64.453125 69.140625 
Q 64.453125 73.828125 63.671875 79.296875 
L 72.265625 79.296875 
Q 71.875 74.21875 71.875 69.140625 
L 71.875 45.3125 
L 82.421875 45.3125 
Q 85.9375 45.3125 91.796875 45.703125 
L 91.796875 38.671875 
Q 88.28125 39.0625 82.421875 39.0625 
L 71.875 39.0625 
L 71.875 23.4375 
L 84.765625 23.4375 
Q 91.015625 23.4375 96.09375 23.828125 
L 96.09375 16.796875 
Q 90.234375 17.1875 84.765625 17.1875 
L 71.875 17.1875 
L 71.875 3.90625 
Q 71.875 -2.34375 72.265625 -8.984375 
L 64.0625 -8.984375 
Q 64.453125 -2.734375 64.453125 3.90625 
L 64.453125 17.1875 
L 53.90625 17.1875 
Q 48.4375 17.1875 42.578125 16.796875 
L 42.578125 23.828125 
Q 48.046875 23.4375 54.296875 23.4375 
L 64.453125 23.4375 
L 64.453125 39.0625 
L 53.90625 39.0625 
Q 48.4375 39.0625 43.359375 38.671875 
L 43.359375 45.703125 
Q 48.4375 45.3125 53.515625 45.3125 
z
M 31.640625 32.8125 
L 31.640625 48.828125 
L 18.75 48.828125 
L 18.75 32.8125 
z
M 31.640625 55.078125 
L 31.640625 70.703125 
L 18.75 70.703125 
L 18.75 55.078125 
z
M 51.5625 51.953125 
Q 50 58.984375 44.921875 71.09375 
L 51.171875 74.21875 
Q 55.859375 63.28125 58.59375 54.6875 
Q 54.296875 53.515625 51.5625 51.953125 
z
M 77.34375 53.90625 
Q 83.984375 67.96875 84.765625 73.4375 
Q 88.671875 71.875 92.578125 70.703125 
Q 90.625 67.96875 88.671875 62.890625 
Q 86.71875 57.8125 84.375 51.953125 
Q 80.859375 53.90625 77.34375 53.90625 
z
" id="SimHei-80d6"/>
     <path d="M 25.78125 45.703125 
Q 33.203125 46.09375 44.140625 46.875 
L 44.140625 56.640625 
L 20.703125 56.640625 
Q 20.703125 31.640625 20.109375 23.4375 
Q 19.53125 15.234375 17.578125 8 
Q 15.625 0.78125 10.9375 -7.8125 
Q 7.8125 -5.46875 3.125 -3.90625 
Q 7.03125 0.78125 9.171875 6.828125 
Q 11.328125 12.890625 12.109375 18.75 
Q 12.890625 24.609375 13.078125 30.265625 
Q 13.28125 35.9375 13.28125 42.96875 
Q 13.28125 50.390625 12.890625 62.5 
L 44.140625 62.5 
L 44.140625 74.609375 
Q 44.140625 77.34375 43.359375 82.421875 
L 51.953125 82.421875 
Q 51.5625 78.515625 51.5625 75.390625 
L 71.09375 75.390625 
Q 76.171875 75.390625 84.765625 76.171875 
L 84.765625 69.53125 
Q 76.171875 69.921875 70.703125 69.921875 
L 51.171875 69.921875 
L 51.171875 62.5 
L 93.75 62.5 
Q 92.1875 57.8125 89.84375 46.875 
Q 85.15625 48.046875 82.03125 48.4375 
Q 83.984375 52.734375 85.15625 56.640625 
L 51.171875 56.640625 
L 51.171875 47.65625 
Q 65.234375 49.21875 74.21875 50.78125 
L 75 44.140625 
Q 64.0625 42.96875 51.171875 41.40625 
L 51.171875 36.71875 
Q 51.171875 33.203125 57.421875 33.203125 
L 70.3125 33.203125 
Q 75 32.8125 76.359375 34.5625 
Q 77.734375 36.328125 78.515625 41.015625 
Q 81.640625 39.0625 86.71875 37.109375 
Q 84.765625 30.859375 82.03125 29.09375 
Q 79.296875 27.34375 73.828125 27.34375 
L 54.296875 27.34375 
Q 44.140625 27.34375 44.140625 33.59375 
L 44.140625 41.015625 
Q 36.328125 40.234375 27.34375 39.0625 
Q 26.5625 42.578125 25.78125 45.703125 
z
M 71.09375 22.265625 
Q 70.703125 16.796875 70.703125 10.9375 
L 70.703125 2.34375 
Q 70.703125 -1.953125 75 -1.953125 
L 81.25 -1.953125 
Q 85.9375 -1.953125 86.71875 0.78125 
Q 87.5 3.515625 87.5 7.421875 
Q 91.40625 5.078125 96.09375 4.296875 
Q 93.359375 -3.90625 91.59375 -5.859375 
Q 89.84375 -7.8125 85.15625 -7.8125 
L 72.65625 -7.8125 
Q 63.671875 -7.8125 63.671875 -1.171875 
L 63.671875 16.40625 
L 45.3125 16.40625 
Q 45.3125 4.6875 41.203125 -0.578125 
Q 37.109375 -5.859375 26.171875 -10.546875 
Q 25 -6.640625 21.484375 -3.515625 
Q 35.9375 0.78125 37.109375 7.421875 
Q 38.28125 14.0625 37.890625 22.265625 
L 71.09375 22.265625 
z
" id="SimHei-864e"/>
    </defs>
    <g style="fill:#800080;" transform="translate(49.092792 257.912399)rotate(-333.778649)scale(0.12 -0.12)">
     <use xlink:href="#SimHei-63"/>
     <use x="50" xlink:href="#SimHei-6f"/>
     <use x="100" xlink:href="#SimHei-69"/>
     <use x="150" xlink:href="#SimHei-6e"/>
     <use x="200" xlink:href="#SimHei-73"/>
     <use x="250" xlink:href="#SimHei-20"/>
     <use x="300" xlink:href="#SimHei-6f"/>
     <use x="350" xlink:href="#SimHei-66"/>
     <use x="400" xlink:href="#SimHei-20"/>
     <use x="450" xlink:href="#SimHei-80d6"/>
     <use x="550" xlink:href="#SimHei-864e"/>
    </g>
   </g>
   <g id="Line3DCollection_2">
    <path d="M 227.548604 43.791556 
L 226.494241 188.318329 
L 65.235235 220.98614 
" style="fill:none;stroke:#b0b0b0;stroke-width:0.8;"/>
    <path d="M 241.688876 48.257402 
L 240.154088 193.993191 
L 78.043534 227.294534 
" style="fill:none;stroke:#b0b0b0;stroke-width:0.8;"/>
    <path d="M 256.106644 52.810887 
L 254.072998 199.775679 
L 91.108144 233.729167 
" style="fill:none;stroke:#b0b0b0;stroke-width:0.8;"/>
    <path d="M 270.810156 57.454617 
L 268.25841 205.668883 
L 104.436836 240.293868 
" style="fill:none;stroke:#b0b0b0;stroke-width:0.8;"/>
    <path d="M 285.807992 62.191302 
L 282.718053 211.676014 
L 118.0377 246.992619 
" style="fill:none;stroke:#b0b0b0;stroke-width:0.8;"/>
    <path d="M 301.10908 67.023762 
L 297.459956 217.800407 
L 131.919157 253.829569 
" style="fill:none;stroke:#b0b0b0;stroke-width:0.8;"/>
    <path d="M 316.722709 71.95493 
L 312.492466 224.045531 
L 146.089982 260.80904 
" style="fill:none;stroke:#b0b0b0;stroke-width:0.8;"/>
    <path d="M 332.658556 76.987861 
L 327.824262 230.41499 
L 160.559317 267.935534 
" style="fill:none;stroke:#b0b0b0;stroke-width:0.8;"/>
   </g>
   <g id="xtick_9">
    <g id="line2d_11">
     <path d="M 66.594479 220.710784 
L 62.513215 221.537566 
" style="fill:none;stroke:#000000;stroke-linecap:square;stroke-width:0.8;"/>
    </g>
    <g id="text_11">
     <!-- 0 -->
     <g transform="translate(50.195232 243.623733)scale(0.15 -0.15)">
      <use xlink:href="#SimHei-30"/>
     </g>
    </g>
   </g>
   <g id="xtick_10">
    <g id="line2d_12">
     <path d="M 79.410645 227.013697 
L 75.305726 227.856945 
" style="fill:none;stroke:#000000;stroke-linecap:square;stroke-width:0.8;"/>
    </g>
    <g id="text_12">
     <!-- 2 -->
     <g transform="translate(62.908596 250.062791)scale(0.15 -0.15)">
      <use xlink:href="#SimHei-32"/>
     </g>
    </g>
   </g>
   <g id="xtick_11">
    <g id="line2d_13">
     <path d="M 92.483165 233.442684 
L 88.354458 234.302894 
" style="fill:none;stroke:#000000;stroke-linecap:square;stroke-width:0.8;"/>
    </g>
    <g id="text_13">
     <!-- 4 -->
     <g transform="translate(75.876714 256.630876)scale(0.15 -0.15)">
      <use xlink:href="#SimHei-34"/>
     </g>
    </g>
   </g>
   <g id="xtick_12">
    <g id="line2d_14">
     <path d="M 105.81981 240.001565 
L 101.667187 240.879255 
" style="fill:none;stroke:#000000;stroke-linecap:square;stroke-width:0.8;"/>
    </g>
    <g id="text_14">
     <!-- 6 -->
     <g transform="translate(89.10732 263.331906)scale(0.15 -0.15)">
      <use xlink:href="#SimHei-36"/>
     </g>
    </g>
   </g>
   <g id="xtick_13">
    <g id="line2d_15">
     <path d="M 119.428666 246.694319 
L 115.252006 247.590026 
" style="fill:none;stroke:#000000;stroke-linecap:square;stroke-width:0.8;"/>
    </g>
    <g id="text_15">
     <!-- 8 -->
     <g transform="translate(102.608465 270.169958)scale(0.15 -0.15)">
      <use xlink:href="#SimHei-38"/>
     </g>
    </g>
   </g>
   <g id="xtick_14">
    <g id="line2d_16">
     <path d="M 133.318153 253.525084 
L 129.117343 254.439371 
" style="fill:none;stroke:#000000;stroke-linecap:square;stroke-width:0.8;"/>
    </g>
    <g id="text_16">
     <!-- 10 -->
     <g transform="translate(112.638533 277.14928)scale(0.15 -0.15)">
      <use xlink:href="#SimHei-31"/>
      <use x="50" xlink:href="#SimHei-30"/>
     </g>
    </g>
   </g>
   <g id="xtick_15">
    <g id="line2d_17">
     <path d="M 147.497042 260.498176 
L 143.271977 261.431625 
" style="fill:none;stroke:#000000;stroke-linecap:square;stroke-width:0.8;"/>
    </g>
    <g id="text_17">
     <!-- 12 -->
     <g transform="translate(126.706257 284.274293)scale(0.15 -0.15)">
      <use xlink:href="#SimHei-31"/>
      <use x="50" xlink:href="#SimHei-32"/>
     </g>
    </g>
   </g>
   <g id="xtick_16">
    <g id="line2d_18">
     <path d="M 161.974472 267.618089 
L 157.725058 268.57131 
" style="fill:none;stroke:#000000;stroke-linecap:square;stroke-width:0.8;"/>
    </g>
    <g id="text_18">
     <!-- 14 -->
     <g transform="translate(141.07074 291.549608)scale(0.15 -0.15)">
      <use xlink:href="#SimHei-31"/>
      <use x="50" xlink:href="#SimHei-34"/>
     </g>
    </g>
   </g>
  </g>
  <g id="axis3d_3">
   <g id="line2d_19">
    <path d="M 58.794045 217.8137 
L 53.895826 67.034254 
" style="fill:none;stroke:#000000;stroke-linecap:square;stroke-width:0.8;"/>
   </g>
   <g id="text_19">
    <!-- coins of 静香 -->
    <defs>
     <path d="M 67.578125 78.90625 
Q 65.625 76.5625 64.640625 74.40625 
Q 63.671875 72.265625 62.890625 70.3125 
L 84.375 70.3125 
Q 82.03125 66.796875 80.078125 62.296875 
Q 78.125 57.8125 75.78125 52.734375 
L 90.234375 52.734375 
Q 89.84375 47.265625 89.84375 41.015625 
L 89.84375 36.71875 
Q 93.359375 36.71875 96.875 37.109375 
L 96.875 30.46875 
Q 94.140625 30.859375 89.84375 30.859375 
L 89.84375 25.390625 
Q 89.84375 17.578125 90.234375 10.546875 
L 83.203125 10.546875 
L 83.203125 14.84375 
L 72.265625 14.84375 
L 72.265625 0.390625 
Q 71.875 -4.6875 68.9375 -6.640625 
Q 66.015625 -8.59375 56.25 -9.375 
Q 56.25 -5.46875 53.90625 -1.171875 
Q 58.984375 -1.5625 62.296875 -1.171875 
Q 65.625 -0.78125 65.625 2.734375 
L 65.625 14.84375 
L 60.15625 14.84375 
Q 55.46875 14.84375 50.390625 14.453125 
L 50.390625 20.703125 
Q 55.078125 20.3125 60.15625 20.3125 
L 65.625 20.3125 
L 65.625 30.859375 
L 59.765625 30.859375 
Q 54.6875 30.859375 48.046875 30.46875 
L 48.046875 36.71875 
Q 53.515625 36.328125 60.15625 36.328125 
L 65.625 36.328125 
L 65.625 47.265625 
L 60.15625 47.265625 
Q 57.8125 47.265625 51.953125 46.875 
L 51.953125 51.953125 
Q 50.78125 50.78125 48.828125 48.4375 
Q 46.875 51.5625 44.140625 53.90625 
Q 50.390625 60.15625 53.703125 68.15625 
Q 57.03125 76.171875 58.984375 82.03125 
Q 62.890625 80.078125 67.578125 78.90625 
z
M 42.96875 36.328125 
Q 42.578125 30.859375 42.578125 25 
L 42.578125 1.171875 
Q 42.578125 -4.6875 39.453125 -6.25 
Q 36.328125 -7.8125 30.078125 -8.984375 
Q 29.6875 -5.46875 27.34375 -1.5625 
Q 36.328125 -1.5625 35.546875 1.953125 
L 35.546875 6.640625 
L 15.234375 6.640625 
L 15.234375 -8.203125 
L 8.203125 -8.203125 
Q 8.59375 -3.90625 8.59375 1.953125 
L 8.59375 25 
Q 8.59375 30.859375 8.203125 36.328125 
L 42.96875 36.328125 
z
M 21.875 71.09375 
Q 21.875 74.609375 21.484375 80.46875 
L 29.296875 80.46875 
Q 28.90625 74.609375 28.90625 71.09375 
L 33.984375 71.09375 
Q 39.453125 71.09375 46.875 71.484375 
L 46.875 65.234375 
Q 39.453125 65.625 33.984375 65.625 
L 28.90625 65.625 
L 28.90625 59.375 
L 33.984375 59.375 
Q 36.328125 59.375 42.578125 59.765625 
L 42.578125 53.515625 
Q 35.9375 53.90625 33.59375 53.90625 
L 28.90625 53.90625 
L 28.90625 47.65625 
L 35.15625 47.65625 
Q 40.625 47.65625 46.484375 48.046875 
L 46.484375 41.796875 
Q 40.234375 42.1875 35.15625 42.1875 
L 15.625 42.1875 
Q 9.375 42.1875 3.90625 41.796875 
L 3.90625 48.046875 
Q 9.375 47.65625 15.625 47.65625 
L 21.875 47.65625 
L 21.875 53.90625 
L 15.234375 53.90625 
Q 12.890625 53.90625 8.59375 53.515625 
L 8.59375 59.765625 
Q 12.890625 59.375 15.234375 59.375 
L 21.875 59.375 
L 21.875 65.625 
L 15.234375 65.625 
Q 10.15625 65.625 4.6875 65.234375 
L 4.6875 71.484375 
Q 10.15625 71.09375 15.234375 71.09375 
z
M 52.734375 53.515625 
Q 57.421875 53.125 64.453125 53.125 
L 68.359375 53.125 
Q 72.265625 61.328125 73.4375 64.84375 
L 60.15625 64.84375 
Q 55.078125 56.640625 52.734375 53.515625 
z
M 35.546875 12.109375 
L 35.546875 19.140625 
L 15.234375 19.140625 
L 15.234375 12.109375 
z
M 35.546875 24.609375 
L 35.546875 30.859375 
L 15.234375 30.859375 
L 15.234375 24.609375 
z
M 83.203125 36.328125 
L 83.203125 47.265625 
L 72.265625 47.265625 
L 72.265625 36.328125 
z
M 83.203125 20.3125 
L 83.203125 30.859375 
L 72.265625 30.859375 
L 72.265625 20.3125 
z
" id="SimHei-9759"/>
     <path d="M 45.703125 33.59375 
L 45.703125 53.90625 
Q 36.71875 44.140625 26.359375 38.28125 
Q 16.015625 32.421875 10.546875 30.078125 
Q 10.546875 33.203125 5.46875 36.71875 
Q 16.015625 39.453125 24.21875 44.53125 
Q 32.421875 49.609375 37.109375 54.296875 
L 21.484375 54.296875 
Q 14.84375 54.296875 7.8125 53.90625 
L 7.8125 60.15625 
Q 14.84375 59.765625 21.484375 59.765625 
L 45.703125 59.765625 
L 45.703125 69.921875 
Q 38.28125 69.140625 17.96875 67.578125 
Q 16.796875 71.09375 14.453125 74.609375 
Q 32.8125 74.609375 50.390625 76.953125 
Q 67.96875 79.296875 74.609375 82.03125 
Q 76.953125 78.125 81.25 73.828125 
Q 74.609375 73.4375 67.96875 72.65625 
Q 61.328125 71.875 52.34375 70.703125 
L 52.34375 59.765625 
L 78.125 59.765625 
Q 83.984375 59.765625 91.40625 60.15625 
L 91.40625 53.90625 
Q 84.375 54.296875 78.125 54.296875 
L 61.71875 54.296875 
Q 66.40625 48.4375 74.21875 43.15625 
Q 82.03125 37.890625 94.140625 34.765625 
Q 89.84375 31.640625 88.28125 26.953125 
Q 82.421875 29.296875 77.34375 32.03125 
Q 76.5625 25 76.5625 12.5 
Q 76.5625 -0.78125 76.953125 -8.984375 
L 69.53125 -8.984375 
L 69.53125 -3.125 
L 28.515625 -3.125 
L 28.515625 -9.375 
L 21.875 -9.375 
L 21.875 11.71875 
Q 21.875 25 21.484375 33.59375 
z
M 69.53125 17.96875 
L 69.53125 27.734375 
L 28.515625 27.734375 
L 28.515625 17.96875 
z
M 69.53125 2.734375 
L 69.53125 12.5 
L 28.515625 12.5 
L 28.515625 2.734375 
z
M 71.484375 35.9375 
Q 62.109375 42.578125 52.734375 54.296875 
L 52.34375 54.296875 
L 52.34375 33.59375 
L 75 33.59375 
z
" id="SimHei-9999"/>
    </defs>
    <g style="fill:#800080;" transform="translate(10.565293 102.842551)rotate(-271.860655)scale(0.12 -0.12)">
     <use xlink:href="#SimHei-63"/>
     <use x="50" xlink:href="#SimHei-6f"/>
     <use x="100" xlink:href="#SimHei-69"/>
     <use x="150" xlink:href="#SimHei-6e"/>
     <use x="200" xlink:href="#SimHei-73"/>
     <use x="250" xlink:href="#SimHei-20"/>
     <use x="300" xlink:href="#SimHei-6f"/>
     <use x="350" xlink:href="#SimHei-66"/>
     <use x="400" xlink:href="#SimHei-20"/>
     <use x="450" xlink:href="#SimHei-9759"/>
     <use x="550" xlink:href="#SimHei-9999"/>
    </g>
   </g>
   <g id="Line3DCollection_3">
    <path d="M 58.492454 208.529967 
L 219.669895 176.585888 
L 336.085066 224.233899 
" style="fill:none;stroke:#b0b0b0;stroke-width:0.8;"/>
    <path d="M 57.897709 190.222231 
L 219.769111 159.08724 
L 336.710174 205.533478 
" style="fill:none;stroke:#b0b0b0;stroke-width:0.8;"/>
    <path d="M 57.297781 171.754931 
L 219.869148 141.443949 
L 337.340869 186.665935 
" style="fill:none;stroke:#b0b0b0;stroke-width:0.8;"/>
    <path d="M 56.692601 153.125973 
L 219.970014 123.654212 
L 337.977226 167.629019 
" style="fill:none;stroke:#b0b0b0;stroke-width:0.8;"/>
    <path d="M 56.0821 134.333224 
L 220.071722 105.716199 
L 338.619321 148.42044 
" style="fill:none;stroke:#b0b0b0;stroke-width:0.8;"/>
    <path d="M 55.466207 115.374514 
L 220.17428 87.628049 
L 339.267233 129.037865 
" style="fill:none;stroke:#b0b0b0;stroke-width:0.8;"/>
    <path d="M 54.844852 96.247636 
L 220.277701 69.387869 
L 339.92104 109.478918 
" style="fill:none;stroke:#b0b0b0;stroke-width:0.8;"/>
    <path d="M 54.21796 76.950341 
L 220.381995 50.993734 
L 340.580823 89.741182 
" style="fill:none;stroke:#b0b0b0;stroke-width:0.8;"/>
   </g>
   <g id="xtick_17">
    <g id="line2d_20">
     <path d="M 59.850818 208.26075 
L 55.772207 209.069099 
" style="fill:none;stroke:#000000;stroke-linecap:square;stroke-width:0.8;"/>
    </g>
    <g id="text_20">
     <!-- 0 -->
     <g transform="translate(36.319991 217.800274)scale(0.15 -0.15)">
      <use xlink:href="#SimHei-30"/>
     </g>
    </g>
   </g>
   <g id="xtick_18">
    <g id="line2d_21">
     <path d="M 59.262222 189.959775 
L 55.165133 190.747826 
" style="fill:none;stroke:#000000;stroke-linecap:square;stroke-width:0.8;"/>
    </g>
    <g id="text_21">
     <!-- 2 -->
     <g transform="translate(35.646444 199.518717)scale(0.15 -0.15)">
      <use xlink:href="#SimHei-32"/>
     </g>
    </g>
   </g>
   <g id="xtick_19">
    <g id="line2d_22">
     <path d="M 58.668498 171.499365 
L 54.552763 172.266732 
" style="fill:none;stroke:#000000;stroke-linecap:square;stroke-width:0.8;"/>
    </g>
    <g id="text_22">
     <!-- 4 -->
     <g transform="translate(34.967036 181.078092)scale(0.15 -0.15)">
      <use xlink:href="#SimHei-34"/>
     </g>
    </g>
   </g>
   <g id="xtick_20">
    <g id="line2d_23">
     <path d="M 58.069579 152.877427 
L 53.935029 153.623718 
" style="fill:none;stroke:#000000;stroke-linecap:square;stroke-width:0.8;"/>
    </g>
    <g id="text_23">
     <!-- 6 -->
     <g transform="translate(34.281691 162.476316)scale(0.15 -0.15)">
      <use xlink:href="#SimHei-36"/>
     </g>
    </g>
   </g>
   <g id="xtick_21">
    <g id="line2d_24">
     <path d="M 57.465397 134.091831 
L 53.311858 134.816645 
" style="fill:none;stroke:#000000;stroke-linecap:square;stroke-width:0.8;"/>
    </g>
    <g id="text_24">
     <!-- 8 -->
     <g transform="translate(33.590331 143.711265)scale(0.15 -0.15)">
      <use xlink:href="#SimHei-38"/>
     </g>
    </g>
   </g>
   <g id="xtick_22">
    <g id="line2d_25">
     <path d="M 56.855881 115.140412 
L 52.683179 115.843338 
" style="fill:none;stroke:#000000;stroke-linecap:square;stroke-width:0.8;"/>
    </g>
    <g id="text_25">
     <!-- 10 -->
     <g transform="translate(29.142875 124.780781)scale(0.15 -0.15)">
      <use xlink:href="#SimHei-31"/>
      <use x="50" xlink:href="#SimHei-30"/>
     </g>
    </g>
   </g>
   <g id="xtick_23">
    <g id="line2d_26">
     <path d="M 56.240962 96.020962 
L 52.048919 96.701585 
" style="fill:none;stroke:#000000;stroke-linecap:square;stroke-width:0.8;"/>
    </g>
    <g id="text_26">
     <!-- 12 -->
     <g transform="translate(28.439244 105.682667)scale(0.15 -0.15)">
      <use xlink:href="#SimHei-31"/>
      <use x="50" xlink:href="#SimHei-32"/>
     </g>
    </g>
   </g>
   <g id="xtick_24">
    <g id="line2d_27">
     <path d="M 55.620566 76.731239 
L 51.409002 77.389131 
" style="fill:none;stroke:#000000;stroke-linecap:square;stroke-width:0.8;"/>
    </g>
    <g id="text_27">
     <!-- 14 -->
     <g transform="translate(27.729354 86.414686)scale(0.15 -0.15)">
      <use xlink:href="#SimHei-31"/>
      <use x="50" xlink:href="#SimHei-34"/>
     </g>
    </g>
   </g>
  </g>
  <g id="axes_1">
   <g id="Path3DCollection_1">
    <defs>
     <path d="M 0 5 
C 1.326016 5 2.597899 4.473168 3.535534 3.535534 
C 4.473168 2.597899 5 1.326016 5 0 
C 5 -1.326016 4.473168 -2.597899 3.535534 -3.535534 
C 2.597899 -4.473168 1.326016 -5 0 -5 
C -1.326016 -5 -2.597899 -4.473168 -3.535534 -3.535534 
C -4.473168 -2.597899 -5 -1.326016 -5 0 
C -5 1.326016 -4.473168 2.597899 -3.535534 3.535534 
C -2.597899 4.473168 -1.326016 5 0 5 
z
" id="m76186516b6" style="stroke:#008000;"/>
    </defs>
    <g clip-path="url(#p4479a21574)">
     <use style="fill:#008000;stroke:#008000;" x="201.941437" xlink:href="#m76186516b6" y="159.994462"/>
    </g>
   </g>
   <g id="Path3DCollection_2">
    <path clip-path="url(#p4479a21574)" d="M 224.398551 58.370328 
C 224.723357 58.370328 225.034904 58.241281 225.264576 58.011608 
C 225.494249 57.781936 225.623296 57.470389 225.623296 57.145583 
C 225.623296 56.820777 225.494249 56.50923 225.264576 56.279558 
C 225.034904 56.049885 224.723357 55.920838 224.398551 55.920838 
C 224.073745 55.920838 223.762198 56.049885 223.532525 56.279558 
C 223.302853 56.50923 223.173806 56.820777 223.173806 57.145583 
C 223.173806 57.470389 223.302853 57.781936 223.532525 58.011608 
C 223.762198 58.241281 224.073745 58.370328 224.398551 58.370328 
z
" style="fill:#ff0000;stroke:#ff0000;"/>
    <path clip-path="url(#p4479a21574)" d="M 231.385035 71.549642 
C 232.111323 71.549642 232.807963 71.261084 233.321526 70.747521 
C 233.83509 70.233957 234.123648 69.537318 234.123648 68.811029 
C 234.123648 68.08474 233.83509 67.388101 233.321526 66.874537 
C 232.807963 66.360974 232.111323 66.072416 231.385035 66.072416 
C 230.658746 66.072416 229.962107 66.360974 229.448543 66.874537 
C 228.934979 67.388101 228.646422 68.08474 228.646422 68.811029 
C 228.646422 69.537318 228.934979 70.233957 229.448543 70.747521 
C 229.962107 71.261084 230.658746 71.549642 231.385035 71.549642 
z
" style="fill:#ff0000;stroke:#ff0000;"/>
    <path clip-path="url(#p4479a21574)" d="M 238.409492 83.780249 
C 239.268848 83.780249 240.093123 83.438823 240.700779 82.831167 
C 241.308436 82.22351 241.649862 81.399235 241.649862 80.539879 
C 241.649862 79.680523 241.308436 78.856248 240.700779 78.248591 
C 240.093123 77.640934 239.268848 77.299509 238.409492 77.299509 
C 237.550135 77.299509 236.72586 77.640934 236.118204 78.248591 
C 235.510547 78.856248 235.169121 79.680523 235.169121 80.539879 
C 235.169121 81.399235 235.510547 82.22351 236.118204 82.831167 
C 236.72586 83.438823 237.550135 83.780249 238.409492 83.780249 
z
" style="fill:#ff0000;stroke:#ff0000;"/>
    <path clip-path="url(#p4479a21574)" d="M 245.472232 96.39467 
C 246.549492 96.39467 247.582775 95.96667 248.344513 95.204932 
C 249.106251 94.443194 249.534251 93.409911 249.534251 92.332651 
C 249.534251 91.255391 249.106251 90.222107 248.344513 89.46037 
C 247.582775 88.698632 246.549492 88.270632 245.472232 88.270632 
C 244.394972 88.270632 243.361688 88.698632 242.59995 89.46037 
C 241.838212 90.222107 241.410212 91.255391 241.410212 92.332651 
C 241.410212 93.409911 241.838212 94.443194 242.59995 95.204932 
C 243.361688 95.96667 244.394972 96.39467 245.472232 96.39467 
z
" style="fill:#ff0000;stroke:#ff0000;"/>
    <path clip-path="url(#p4479a21574)" d="M 252.573569 109.037549 
C 253.859188 109.037549 255.092326 108.526767 256.001396 107.617696 
C 256.910466 106.708626 257.421249 105.475489 257.421249 104.189869 
C 257.421249 102.904249 256.910466 101.671112 256.001396 100.762042 
C 255.092326 99.852971 253.859188 99.342189 252.573569 99.342189 
C 251.287949 99.342189 250.054812 99.852971 249.145741 100.762042 
C 248.236671 101.671112 247.725889 102.904249 247.725889 104.189869 
C 247.725889 105.475489 248.236671 106.708626 249.145741 107.617696 
C 250.054812 108.526767 251.287949 109.037549 252.573569 109.037549 
z
" style="fill:#ff0000;stroke:#ff0000;"/>
    <path clip-path="url(#p4479a21574)" d="M 259.71382 122.13286 
C 261.310554 122.13286 262.842105 121.498471 263.971167 120.36941 
C 265.100228 119.240348 265.734617 117.708797 265.734617 116.112063 
C 265.734617 114.515329 265.100228 112.983778 263.971167 111.854717 
C 262.842105 110.725655 261.310554 110.091266 259.71382 110.091266 
C 258.117086 110.091266 256.585535 110.725655 255.456474 111.854717 
C 254.327412 112.983778 253.693023 114.515329 253.693023 116.112063 
C 253.693023 117.708797 254.327412 119.240348 255.456474 120.36941 
C 256.585535 121.498471 258.117086 122.13286 259.71382 122.13286 
z
" style="fill:#ff0000;stroke:#ff0000;"/>
    <path clip-path="url(#p4479a21574)" d="M 266.893307 134.203047 
C 268.511915 134.203047 270.064447 133.559967 271.208976 132.415438 
C 272.353505 131.270909 272.996585 129.718377 272.996585 128.099769 
C 272.996585 126.481161 272.353505 124.928628 271.208976 123.7841 
C 270.064447 122.639571 268.511915 121.996491 266.893307 121.996491 
C 265.274699 121.996491 263.722166 122.639571 262.577638 123.7841 
C 261.433109 124.928628 260.790029 126.481161 260.790029 128.099769 
C 260.790029 129.718377 261.433109 131.270909 262.577638 132.415438 
C 263.722166 133.559967 265.274699 134.203047 266.893307 134.203047 
z
" style="fill:#ff0000;stroke:#ff0000;"/>
    <path clip-path="url(#p4479a21574)" d="M 274.112353 145.810381 
C 275.612568 145.810381 277.05154 145.21434 278.112353 144.153527 
C 279.173165 143.092715 279.769207 141.653742 279.769207 140.153527 
C 279.769207 138.653312 279.173165 137.21434 278.112353 136.153527 
C 277.05154 135.092715 275.612568 134.496673 274.112353 134.496673 
C 272.612137 134.496673 271.173165 135.092715 270.112353 136.153527 
C 269.05154 137.21434 268.455498 138.653312 268.455498 140.153527 
C 268.455498 141.653742 269.05154 143.092715 270.112353 144.153527 
C 271.173165 145.21434 272.612137 145.810381 274.112353 145.810381 
z
" style="fill:#ff0000;stroke:#ff0000;"/>
    <path clip-path="url(#p4479a21574)" d="M 281.371286 158.232074 
C 282.951416 158.232074 284.46704 157.604281 285.584361 156.486961 
C 286.701681 155.36964 287.329473 153.854016 287.329473 152.273886 
C 287.329473 150.693756 286.701681 149.178132 285.584361 148.060811 
C 284.46704 146.943491 282.951416 146.315698 281.371286 146.315698 
C 279.791156 146.315698 278.275531 146.943491 277.158211 148.060811 
C 276.04089 149.178132 275.413098 150.693756 275.413098 152.273886 
C 275.413098 153.854016 276.04089 155.36964 277.158211 156.486961 
C 278.275531 157.604281 279.791156 158.232074 281.371286 158.232074 
z
" style="fill:#ff0000;stroke:#ff0000;"/>
    <path clip-path="url(#p4479a21574)" d="M 288.670438 169.204815 
C 289.928406 169.204815 291.135021 168.705019 292.02454 167.815501 
C 292.914058 166.925982 293.413854 165.719367 293.413854 164.461399 
C 293.413854 163.20343 292.914058 161.996815 292.02454 161.107297 
C 291.135021 160.217778 289.928406 159.717982 288.670438 159.717982 
C 287.412469 159.717982 286.205854 160.217778 285.316336 161.107297 
C 284.426817 161.996815 283.927021 163.20343 283.927021 164.461399 
C 283.927021 165.719367 284.426817 166.925982 285.316336 167.815501 
C 286.205854 168.705019 287.412469 169.204815 288.670438 169.204815 
z
" style="fill:#ff0000;stroke:#ff0000;"/>
    <path clip-path="url(#p4479a21574)" d="M 296.010143 180.424724 
C 296.993543 180.424724 297.936797 180.034015 298.632166 179.338647 
C 299.327534 178.643279 299.718243 177.700024 299.718243 176.716625 
C 299.718243 175.733225 299.327534 174.789971 298.632166 174.094603 
C 297.936797 173.399234 296.993543 173.008526 296.010143 173.008526 
C 295.026744 173.008526 294.08349 173.399234 293.388121 174.094603 
C 292.692753 174.789971 292.302044 175.733225 292.302044 176.716625 
C 292.302044 177.700024 292.692753 178.643279 293.388121 179.338647 
C 294.08349 180.034015 295.026744 180.424724 296.010143 180.424724 
z
" style="fill:#ff0000;stroke:#ff0000;"/>
    <path clip-path="url(#p4479a21574)" d="M 303.390742 191.955606 
C 304.163935 191.955606 304.905565 191.648414 305.452295 191.101683 
C 305.999025 190.554953 306.306218 189.813324 306.306218 189.04013 
C 306.306218 188.266937 305.999025 187.525308 305.452295 186.978578 
C 304.905565 186.431847 304.163935 186.124655 303.390742 186.124655 
C 302.617549 186.124655 301.875919 186.431847 301.329189 186.978578 
C 300.782459 187.525308 300.475266 188.266937 300.475266 189.04013 
C 300.475266 189.813324 300.782459 190.554953 301.329189 191.101683 
C 301.875919 191.648414 302.617549 191.955606 303.390742 191.955606 
z
" style="fill:#ff0000;stroke:#ff0000;"/>
    <path clip-path="url(#p4479a21574)" d="M 310.812576 203.432488 
C 311.342982 203.432488 311.851736 203.221755 312.22679 202.846701 
C 312.601844 202.471647 312.812576 201.962894 312.812576 201.432488 
C 312.812576 200.902082 312.601844 200.393328 312.22679 200.018274 
C 311.851736 199.64322 311.342982 199.432488 310.812576 199.432488 
C 310.28217 199.432488 309.773416 199.64322 309.398363 200.018274 
C 309.023309 200.393328 308.812576 200.902082 308.812576 201.432488 
C 308.812576 201.962894 309.023309 202.471647 309.398363 202.846701 
C 309.773416 203.221755 310.28217 203.432488 310.812576 203.432488 
z
" style="fill:#ff0000;stroke:#ff0000;"/>
    <path clip-path="url(#p4479a21574)" d="M 318.275992 214.894275 
C 318.541195 214.894275 318.795572 214.788909 318.983099 214.601382 
C 319.170626 214.413855 319.275992 214.159478 319.275992 213.894275 
C 319.275992 213.629072 319.170626 213.374695 318.983099 213.187168 
C 318.795572 212.999642 318.541195 212.894275 318.275992 212.894275 
C 318.010789 212.894275 317.756413 212.999642 317.568886 213.187168 
C 317.381359 213.374695 317.275992 213.629072 317.275992 213.894275 
C 317.275992 214.159478 317.381359 214.413855 317.568886 214.601382 
C 317.756413 214.788909 318.010789 214.894275 318.275992 214.894275 
z
" style="fill:#ff0000;stroke:#ff0000;"/>
    <path clip-path="url(#p4479a21574)" d="M 207.466343 57.753581 
C 207.817174 57.753581 208.153682 57.614194 208.401757 57.366119 
C 208.649832 57.118044 208.789219 56.781536 208.789219 56.430705 
C 208.789219 56.079874 208.649832 55.743365 208.401757 55.495291 
C 208.153682 55.247216 207.817174 55.107829 207.466343 55.107829 
C 207.115512 55.107829 206.779003 55.247216 206.530929 55.495291 
C 206.282854 55.743365 206.143467 56.079874 206.143467 56.430705 
C 206.143467 56.781536 206.282854 57.118044 206.530929 57.366119 
C 206.779003 57.614194 207.115512 57.753581 207.466343 57.753581 
z
" style="fill:#ff0000;stroke:#ff0000;"/>
    <path clip-path="url(#p4479a21574)" d="M 197.459219 69.280758 
C 197.972782 69.280758 198.465381 69.076717 198.828525 68.713572 
C 199.191669 68.350428 199.39571 67.85783 199.39571 67.344266 
C 199.39571 66.830702 199.191669 66.338104 198.828525 65.97496 
C 198.465381 65.611815 197.972782 65.407774 197.459219 65.407774 
C 196.945655 65.407774 196.453057 65.611815 196.089912 65.97496 
C 195.726768 66.338104 195.522727 66.830702 195.522727 67.344266 
C 195.522727 67.85783 195.726768 68.350428 196.089912 68.713572 
C 196.453057 69.076717 196.945655 69.280758 197.459219 69.280758 
z
" style="fill:#ff0000;stroke:#ff0000;"/>
    <path clip-path="url(#p4479a21574)" d="M 187.428275 81.406303 
C 188.256372 81.406303 189.050663 81.077297 189.636216 80.491744 
C 190.221768 79.906191 190.550774 79.1119 190.550774 78.283804 
C 190.550774 77.455707 190.221768 76.661416 189.636216 76.075864 
C 189.050663 75.490311 188.256372 75.161305 187.428275 75.161305 
C 186.600179 75.161305 185.805888 75.490311 185.220335 76.075864 
C 184.634783 76.661416 184.305776 77.455707 184.305776 78.283804 
C 184.305776 79.1119 184.634783 79.906191 185.220335 80.491744 
C 185.805888 81.077297 186.600179 81.406303 187.428275 81.406303 
z
" style="fill:#ff0000;stroke:#ff0000;"/>
    <path clip-path="url(#p4479a21574)" d="M 177.373428 93.089984 
C 178.391959 93.089984 179.368912 92.685317 180.089123 91.965106 
C 180.809334 91.244896 181.214001 90.267943 181.214001 89.249411 
C 181.214001 88.230879 180.809334 87.253927 180.089123 86.533716 
C 179.368912 85.813505 178.391959 85.408838 177.373428 85.408838 
C 176.354896 85.408838 175.377943 85.813505 174.657733 86.533716 
C 173.937522 87.253927 173.532855 88.230879 173.532855 89.249411 
C 173.532855 90.267943 173.937522 91.244896 174.657733 91.965106 
C 175.377943 92.685317 176.354896 93.089984 177.373428 93.089984 
z
" style="fill:#ff0000;stroke:#ff0000;"/>
    <path clip-path="url(#p4479a21574)" d="M 167.29459 105.16561 
C 168.600564 105.16561 169.853224 104.646742 170.776687 103.723279 
C 171.70015 102.799816 172.219019 101.547155 172.219019 100.241182 
C 172.219019 98.935208 171.70015 97.682547 170.776687 96.759084 
C 169.853224 95.835622 168.600564 95.316753 167.29459 95.316753 
C 165.988616 95.316753 164.735956 95.835622 163.812493 96.759084 
C 162.88903 97.682547 162.370161 98.935208 162.370161 100.241182 
C 162.370161 101.547155 162.88903 102.799816 163.812493 103.723279 
C 164.735956 104.646742 165.988616 105.16561 167.29459 105.16561 
z
" style="fill:#ff0000;stroke:#ff0000;"/>
    <path clip-path="url(#p4479a21574)" d="M 157.191676 116.690599 
C 158.632098 116.690599 160.013717 116.118313 161.032249 115.099781 
C 162.050781 114.08125 162.623067 112.69963 162.623067 111.259209 
C 162.623067 109.818787 162.050781 108.437167 161.032249 107.418636 
C 160.013717 106.400104 158.632098 105.827818 157.191676 105.827818 
C 155.751255 105.827818 154.369635 106.400104 153.351104 107.418636 
C 152.332572 108.437167 151.760286 109.818787 151.760286 111.259209 
C 151.760286 112.69963 152.332572 114.08125 153.351104 115.099781 
C 154.369635 116.118313 155.751255 116.690599 157.191676 116.690599 
z
" style="fill:#ff0000;stroke:#ff0000;"/>
    <path clip-path="url(#p4479a21574)" d="M 147.064601 128.468 
C 148.699422 128.468 150.267506 127.818479 151.4235 126.662485 
C 152.579493 125.506492 153.229015 123.938408 153.229015 122.303586 
C 153.229015 120.668765 152.579493 119.100681 151.4235 117.944687 
C 150.267506 116.788694 148.699422 116.139172 147.064601 116.139172 
C 145.429779 116.139172 143.861695 116.788694 142.705702 117.944687 
C 141.549708 119.100681 140.900187 120.668765 140.900187 122.303586 
C 140.900187 123.938408 141.549708 125.506492 142.705702 126.662485 
C 143.861695 127.818479 145.429779 128.468 147.064601 128.468 
z
" style="fill:#ff0000;stroke:#ff0000;"/>
    <path clip-path="url(#p4479a21574)" d="M 136.913276 139.009124 
C 138.407619 139.009124 139.84096 138.415415 140.89762 137.358754 
C 141.954281 136.302094 142.54799 134.868753 142.54799 133.37441 
C 142.54799 131.880066 141.954281 130.446726 140.89762 129.390065 
C 139.84096 128.333405 138.407619 127.739696 136.913276 127.739696 
C 135.418932 127.739696 133.985592 128.333405 132.928931 129.390065 
C 131.872271 130.446726 131.278562 131.880066 131.278562 133.37441 
C 131.278562 134.868753 131.872271 136.302094 132.928931 137.358754 
C 133.985592 138.415415 135.418932 139.009124 136.913276 139.009124 
z
" style="fill:#ff0000;stroke:#ff0000;"/>
    <path clip-path="url(#p4479a21574)" d="M 126.737615 150.736756 
C 128.399107 150.736756 129.992773 150.076638 131.167626 148.901785 
C 132.342479 147.726932 133.002597 146.133266 133.002597 144.471774 
C 133.002597 142.810281 132.342479 141.216615 131.167626 140.041762 
C 129.992773 138.86691 128.399107 138.206792 126.737615 138.206792 
C 125.076122 138.206792 123.482456 138.86691 122.307603 140.041762 
C 121.132751 141.216615 120.472633 142.810281 120.472633 144.471774 
C 120.472633 146.133266 121.132751 147.726932 122.307603 148.901785 
C 123.482456 150.076638 125.076122 150.736756 126.737615 150.736756 
z
" style="fill:#ff0000;stroke:#ff0000;"/>
    <path clip-path="url(#p4479a21574)" d="M 116.53753 160.33919 
C 117.795499 160.33919 119.002114 159.839394 119.891632 158.949876 
C 120.78115 158.060357 121.280946 156.853743 121.280946 155.595774 
C 121.280946 154.337805 120.78115 153.13119 119.891632 152.241672 
C 119.002114 151.352154 117.795499 150.852357 116.53753 150.852357 
C 115.279561 150.852357 114.072946 151.352154 113.183428 152.241672 
C 112.29391 153.13119 111.794113 154.337805 111.794113 155.595774 
C 111.794113 156.853743 112.29391 158.060357 113.183428 158.949876 
C 114.072946 159.839394 115.279561 160.33919 116.53753 160.33919 
z
" style="fill:#ff0000;stroke:#ff0000;"/>
    <path clip-path="url(#p4479a21574)" d="M 106.312933 170.899818 
C 107.414404 170.899818 108.47091 170.462199 109.249768 169.683341 
C 110.028626 168.904483 110.466245 167.847977 110.466245 166.746506 
C 110.466245 165.645035 110.028626 164.588529 109.249768 163.809671 
C 108.47091 163.030813 107.414404 162.593194 106.312933 162.593194 
C 105.211462 162.593194 104.154956 163.030813 103.376098 163.809671 
C 102.59724 164.588529 102.159621 165.645035 102.159621 166.746506 
C 102.159621 167.847977 102.59724 168.904483 103.376098 169.683341 
C 104.154956 170.462199 105.211462 170.899818 106.312933 170.899818 
z
" style="fill:#ff0000;stroke:#ff0000;"/>
    <path clip-path="url(#p4479a21574)" d="M 96.063736 181.388169 
C 96.982426 181.388169 97.863613 181.023169 98.513225 180.373557 
C 99.162838 179.723944 99.527837 178.842757 99.527837 177.924067 
C 99.527837 177.005376 99.162838 176.124189 98.513225 175.474577 
C 97.863613 174.824965 96.982426 174.459965 96.063736 174.459965 
C 95.145045 174.459965 94.263858 174.824965 93.614246 175.474577 
C 92.964634 176.124189 92.599634 177.005376 92.599634 177.924067 
C 92.599634 178.842757 92.964634 179.723944 93.614246 180.373557 
C 94.263858 181.023169 95.145045 181.388169 96.063736 181.388169 
z
" style="fill:#ff0000;stroke:#ff0000;"/>
    <path clip-path="url(#p4479a21574)" d="M 85.789849 190.999382 
C 86.285999 190.999382 86.761894 190.80226 87.112725 190.451429 
C 87.463556 190.100598 87.660678 189.624703 87.660678 189.128553 
C 87.660678 188.632404 87.463556 188.156508 87.112725 187.805678 
C 86.761894 187.454847 86.285999 187.257725 85.789849 187.257725 
C 85.2937 187.257725 84.817804 187.454847 84.466974 187.805678 
C 84.116143 188.156508 83.919021 188.632404 83.919021 189.128553 
C 83.919021 189.624703 84.116143 190.100598 84.466974 190.451429 
C 84.817804 190.80226 85.2937 190.999382 85.789849 190.999382 
z
" style="fill:#ff0000;stroke:#ff0000;"/>
    <path clip-path="url(#p4479a21574)" d="M 75.491184 201.226088 
C 75.720857 201.226088 75.941154 201.134838 76.103557 200.972435 
C 76.26596 200.810032 76.35721 200.589736 76.35721 200.360063 
C 76.35721 200.13039 76.26596 199.910094 76.103557 199.74769 
C 75.941154 199.585287 75.720857 199.494037 75.491184 199.494037 
C 75.261512 199.494037 75.041215 199.585287 74.878812 199.74769 
C 74.716409 199.910094 74.625159 200.13039 74.625159 200.360063 
C 74.625159 200.589736 74.716409 200.810032 74.878812 200.972435 
C 75.041215 201.134838 75.261512 201.226088 75.491184 201.226088 
z
" style="fill:#ff0000;stroke:#ff0000;"/>
    <path clip-path="url(#p4479a21574)" d="M 308.024995 226.535243 
C 308.321501 226.535243 308.605903 226.41744 308.815564 226.207779 
C 309.025226 225.998117 309.143029 225.713715 309.143029 225.417209 
C 309.143029 225.120703 309.025226 224.836301 308.815564 224.62664 
C 308.605903 224.416978 308.321501 224.299175 308.024995 224.299175 
C 307.728489 224.299175 307.444087 224.416978 307.234425 224.62664 
C 307.024764 224.836301 306.906961 225.120703 306.906961 225.417209 
C 306.906961 225.713715 307.024764 225.998117 307.234425 226.207779 
C 307.444087 226.41744 307.728489 226.535243 308.024995 226.535243 
z
" style="fill:#ff0000;stroke:#ff0000;"/>
    <path clip-path="url(#p4479a21574)" d="M 290.324347 227.009581 
C 291.013365 227.009581 291.674255 226.735831 292.161464 226.248622 
C 292.648674 225.761413 292.922423 225.100523 292.922423 224.411505 
C 292.922423 223.722487 292.648674 223.061597 292.161464 222.574388 
C 291.674255 222.087178 291.013365 221.813429 290.324347 221.813429 
C 289.635329 221.813429 288.974439 222.087178 288.48723 222.574388 
C 288.000021 223.061597 287.726271 223.722487 287.726271 224.411505 
C 287.726271 225.100523 288.000021 225.761413 288.48723 226.248622 
C 288.974439 226.735831 289.635329 227.009581 290.324347 227.009581 
z
" style="fill:#ff0000;stroke:#ff0000;"/>
    <path clip-path="url(#p4479a21574)" d="M 272.679137 226.36699 
C 273.463618 226.36699 274.216075 226.055313 274.770787 225.500601 
C 275.325499 224.945888 275.637176 224.193432 275.637176 223.40895 
C 275.637176 222.624469 275.325499 221.872012 274.770787 221.3173 
C 274.216075 220.762588 273.463618 220.450911 272.679137 220.450911 
C 271.894655 220.450911 271.142199 220.762588 270.587487 221.3173 
C 270.032774 221.872012 269.721097 222.624469 269.721097 223.40895 
C 269.721097 224.193432 270.032774 224.945888 270.587487 225.500601 
C 271.142199 226.055313 271.894655 226.36699 272.679137 226.36699 
z
" style="fill:#ff0000;stroke:#ff0000;"/>
    <path clip-path="url(#p4479a21574)" d="M 255.089103 226.652172 
C 256.214265 226.652172 257.293494 226.20514 258.089103 225.409531 
C 258.884712 224.613922 259.331744 223.534692 259.331744 222.409531 
C 259.331744 221.28437 258.884712 220.20514 258.089103 219.409531 
C 257.293494 218.613922 256.214265 218.16689 255.089103 218.16689 
C 253.963942 218.16689 252.884712 218.613922 252.089103 219.409531 
C 251.293494 220.20514 250.846462 221.28437 250.846462 222.409531 
C 250.846462 223.534692 251.293494 224.613922 252.089103 225.409531 
C 252.884712 226.20514 253.963942 226.652172 255.089103 226.652172 
z
" style="fill:#ff0000;stroke:#ff0000;"/>
    <path clip-path="url(#p4479a21574)" d="M 237.553988 226.512251 
C 238.906264 226.512251 240.203336 225.974986 241.159539 225.018783 
C 242.115743 224.06258 242.653008 222.765508 242.653008 221.413232 
C 242.653008 220.060956 242.115743 218.763884 241.159539 217.807681 
C 240.203336 216.851477 238.906264 216.314212 237.553988 216.314212 
C 236.201712 216.314212 234.90464 216.851477 233.948437 217.807681 
C 232.992234 218.763884 232.454969 220.060956 232.454969 221.413232 
C 232.454969 222.765508 232.992234 224.06258 233.948437 225.018783 
C 234.90464 225.974986 236.201712 226.512251 237.553988 226.512251 
z
" style="fill:#ff0000;stroke:#ff0000;"/>
    <path clip-path="url(#p4479a21574)" d="M 220.073535 226.054752 
C 221.567879 226.054752 223.001219 225.461043 224.05788 224.404383 
C 225.11454 223.347722 225.708249 221.914382 225.708249 220.420038 
C 225.708249 218.925695 225.11454 217.492355 224.05788 216.435694 
C 223.001219 215.379034 221.567879 214.785325 220.073535 214.785325 
C 218.579192 214.785325 217.145851 215.379034 216.089191 216.435694 
C 215.03253 217.492355 214.438821 218.925695 214.438821 220.420038 
C 214.438821 221.914382 215.03253 223.347722 216.089191 224.404383 
C 217.145851 225.461043 218.579192 226.054752 220.073535 226.054752 
z
" style="fill:#ff0000;stroke:#ff0000;"/>
    <path clip-path="url(#p4479a21574)" d="M 202.647489 225.674934 
C 204.303682 225.674934 205.892264 225.016922 207.063369 223.845817 
C 208.234474 222.674712 208.892487 221.086129 208.892487 219.429936 
C 208.892487 217.773743 208.234474 216.185161 207.063369 215.014056 
C 205.892264 213.842951 204.303682 213.184938 202.647489 213.184938 
C 200.991296 213.184938 199.402714 213.842951 198.231608 215.014056 
C 197.060503 216.185161 196.402491 217.773743 196.402491 219.429936 
C 196.402491 221.086129 197.060503 222.674712 198.231608 223.845817 
C 199.402714 225.016922 200.991296 225.674934 202.647489 225.674934 
z
" style="fill:#ff0000;stroke:#ff0000;"/>
    <path clip-path="url(#p4479a21574)" d="M 185.275595 224.187474 
C 186.799071 224.187474 188.260355 223.58219 189.337615 222.50493 
C 190.414875 221.42767 191.020158 219.966387 191.020158 218.442911 
C 191.020158 216.919435 190.414875 215.458152 189.337615 214.380892 
C 188.260355 213.303632 186.799071 212.698348 185.275595 212.698348 
C 183.75212 212.698348 182.290836 213.303632 181.213576 214.380892 
C 180.136316 215.458152 179.531033 216.919435 179.531033 218.442911 
C 179.531033 219.966387 180.136316 221.42767 181.213576 222.50493 
C 182.290836 223.58219 183.75212 224.187474 185.275595 224.187474 
z
" style="fill:#ff0000;stroke:#ff0000;"/>
    <path clip-path="url(#p4479a21574)" d="M 167.957603 223.004216 
C 169.428225 223.004216 170.838813 222.419932 171.8787 221.380045 
C 172.918587 220.340158 173.502871 218.92957 173.502871 217.458948 
C 173.502871 215.988326 172.918587 214.577738 171.8787 213.537851 
C 170.838813 212.497964 169.428225 211.91368 167.957603 211.91368 
C 166.486981 211.91368 165.076393 212.497964 164.036506 213.537851 
C 162.996619 214.577738 162.412335 215.988326 162.412335 217.458948 
C 162.412335 218.92957 162.996619 220.340158 164.036506 221.380045 
C 165.076393 222.419932 166.486981 223.004216 167.957603 223.004216 
z
" style="fill:#ff0000;stroke:#ff0000;"/>
    <path clip-path="url(#p4479a21574)" d="M 150.693261 221.552479 
C 152.03902 221.552479 153.329841 221.017804 154.281436 220.066209 
C 155.233031 219.114614 155.767707 217.823792 155.767707 216.478034 
C 155.767707 215.132275 155.233031 213.841454 154.281436 212.889859 
C 153.329841 211.938263 152.03902 211.403588 150.693261 211.403588 
C 149.347502 211.403588 148.056681 211.938263 147.105086 212.889859 
C 146.153491 213.841454 145.618815 215.132275 145.618815 216.478034 
C 145.618815 217.823792 146.153491 219.114614 147.105086 220.066209 
C 148.056681 221.017804 149.347502 221.552479 150.693261 221.552479 
z
" style="fill:#ff0000;stroke:#ff0000;"/>
    <path clip-path="url(#p4479a21574)" d="M 133.482321 219.405278 
C 134.517972 219.405278 135.511345 218.993809 136.243661 218.261493 
C 136.975977 217.529177 137.387446 216.535804 137.387446 215.500153 
C 137.387446 214.464502 136.975977 213.471129 136.243661 212.738813 
C 135.511345 212.006497 134.517972 211.595028 133.482321 211.595028 
C 132.44667 211.595028 131.453297 212.006497 130.720981 212.738813 
C 129.988665 213.471129 129.577196 214.464502 129.577196 215.500153 
C 129.577196 216.535804 129.988665 217.529177 130.720981 218.261493 
C 131.453297 218.993809 132.44667 219.405278 133.482321 219.405278 
z
" style="fill:#ff0000;stroke:#ff0000;"/>
    <path clip-path="url(#p4479a21574)" d="M 116.324535 217.525293 
C 117.120144 217.525293 117.883275 217.209194 118.445855 216.646613 
C 119.008436 216.084033 119.324535 215.320902 119.324535 214.525293 
C 119.324535 213.729684 119.008436 212.966553 118.445855 212.403973 
C 117.883275 211.841392 117.120144 211.525293 116.324535 211.525293 
C 115.528926 211.525293 114.765795 211.841392 114.203215 212.403973 
C 113.640634 212.966553 113.324535 213.729684 113.324535 214.525293 
C 113.324535 215.320902 113.640634 216.084033 114.203215 216.646613 
C 114.765795 217.209194 115.528926 217.525293 116.324535 217.525293 
z
" style="fill:#ff0000;stroke:#ff0000;"/>
    <path clip-path="url(#p4479a21574)" d="M 99.219657 215.614992 
C 99.766387 215.614992 100.290799 215.397773 100.677395 215.011177 
C 101.063992 214.62458 101.28121 214.100169 101.28121 213.553439 
C 101.28121 213.006709 101.063992 212.482297 100.677395 212.095701 
C 100.290799 211.709104 99.766387 211.491886 99.219657 211.491886 
C 98.672927 211.491886 98.148516 211.709104 97.761919 212.095701 
C 97.375323 212.482297 97.158104 213.006709 97.158104 213.553439 
C 97.158104 214.100169 97.375323 214.62458 97.761919 215.011177 
C 98.148516 215.397773 98.672927 215.614992 99.219657 215.614992 
z
" style="fill:#ff0000;stroke:#ff0000;"/>
    <path clip-path="url(#p4479a21574)" d="M 82.167443 213.809322 
C 82.49225 213.809322 82.803796 213.680275 83.033469 213.450602 
C 83.263142 213.22093 83.392188 212.909383 83.392188 212.584577 
C 83.392188 212.259771 83.263142 211.948224 83.033469 211.718551 
C 82.803796 211.488879 82.49225 211.359832 82.167443 211.359832 
C 81.842637 211.359832 81.531091 211.488879 81.301418 211.718551 
C 81.071745 211.948224 80.942699 212.259771 80.942699 212.584577 
C 80.942699 212.909383 81.071745 213.22093 81.301418 213.450602 
C 81.531091 213.680275 81.842637 213.809322 82.167443 213.809322 
z
" style="fill:#ff0000;stroke:#ff0000;"/>
   </g>
   <g id="legend_1">
    <g id="patch_6">
     <path d="M 21.2 291.2 
L 294.2 291.2 
Q 297.2 291.2 297.2 288.2 
L 297.2 249.95 
Q 297.2 246.95 294.2 246.95 
L 21.2 246.95 
Q 18.2 246.95 18.2 249.95 
L 18.2 288.2 
Q 18.2 291.2 21.2 291.2 
z
" style="fill:#ffffff;opacity:0.8;stroke:#cccccc;stroke-linejoin:miter;"/>
    </g>
    <g id="Path3DCollection_3">
     <defs>
      <path d="M 0 4.472136 
C 1.186024 4.472136 2.323632 4.000923 3.162278 3.162278 
C 4.000923 2.323632 4.472136 1.186024 4.472136 0 
C 4.472136 -1.186024 4.000923 -2.323632 3.162278 -3.162278 
C 2.323632 -4.000923 1.186024 -4.472136 0 -4.472136 
C -1.186024 -4.472136 -2.323632 -4.000923 -3.162278 -3.162278 
C -4.000923 -2.323632 -4.472136 -1.186024 -4.472136 0 
C -4.472136 1.186024 -4.000923 2.323632 -3.162278 3.162278 
C -2.323632 4.000923 -1.186024 4.472136 0 4.472136 
z
" id="mbafca0245c" style="stroke:#ff0000;"/>
     </defs>
     <g>
      <use style="fill:#ff0000;stroke:#ff0000;" x="39.2" xlink:href="#mbafca0245c" y="259.5125"/>
     </g>
    </g>
    <g id="text_28">
     <!-- probability of absorbing state -->
     <defs>
      <path d="M 44.140625 23.828125 
Q 44.140625 12.5 38.671875 6.640625 
Q 33.203125 0.78125 25.390625 0.78125 
Q 21.09375 0.78125 17.96875 2.53125 
Q 14.84375 4.296875 12.5 7.8125 
L 12.5 -12.5 
L 4.6875 -12.5 
L 4.6875 45.703125 
L 12.5 45.703125 
L 12.5 39.84375 
Q 14.84375 43.359375 17.96875 44.921875 
Q 21.09375 46.484375 25.390625 46.484375 
Q 33.203125 46.484375 38.671875 40.8125 
Q 44.140625 35.15625 44.140625 23.828125 
z
M 35.546875 23.828125 
Q 35.546875 31.25 32.609375 35.34375 
Q 29.6875 39.453125 23.828125 39.453125 
Q 19.140625 39.453125 15.8125 35.34375 
Q 12.5 31.25 12.5 23.828125 
Q 12.5 16.40625 15.8125 12.109375 
Q 19.140625 7.8125 23.828125 7.8125 
Q 29.6875 7.8125 32.609375 12.109375 
Q 35.546875 16.40625 35.546875 23.828125 
z
" id="SimHei-70"/>
      <path d="M 39.0625 37.890625 
Q 31.640625 39.0625 26.5625 35.734375 
Q 21.484375 32.421875 17.96875 24.21875 
L 17.96875 1.953125 
L 10.15625 1.953125 
L 10.15625 45.703125 
L 17.96875 45.703125 
L 17.96875 34.375 
Q 21.484375 40.625 26.75 43.546875 
Q 32.03125 46.484375 39.0625 46.484375 
z
" id="SimHei-72"/>
      <path d="M 44.140625 23.828125 
Q 44.140625 12.5 38.671875 6.828125 
Q 33.203125 1.171875 25.390625 1.171875 
Q 21.09375 1.171875 17.96875 2.734375 
Q 14.84375 4.296875 12.5 7.8125 
L 12.5 1.953125 
L 4.6875 1.953125 
L 4.6875 68.75 
L 12.5 68.75 
L 12.5 39.84375 
Q 14.84375 43.359375 17.96875 45.109375 
Q 21.09375 46.875 25.390625 46.875 
Q 33.203125 46.875 38.671875 41.015625 
Q 44.140625 35.15625 44.140625 23.828125 
z
M 35.546875 23.828125 
Q 35.546875 31.25 32.609375 35.546875 
Q 29.6875 39.84375 23.828125 39.84375 
Q 19.140625 39.84375 15.8125 35.546875 
Q 12.5 31.25 12.5 23.828125 
Q 12.5 16.40625 15.8125 12.296875 
Q 19.140625 8.203125 23.828125 8.203125 
Q 29.6875 8.203125 32.609375 12.296875 
Q 35.546875 16.40625 35.546875 23.828125 
z
" id="SimHei-62"/>
      <path d="M 44.921875 1.953125 
L 35.546875 1.953125 
Q 34.765625 2.734375 34.375 4.09375 
Q 33.984375 5.46875 33.984375 7.421875 
Q 31.25 4.296875 27.34375 2.734375 
Q 23.4375 1.171875 19.140625 1.171875 
Q 12.890625 1.171875 8.59375 4.296875 
Q 4.296875 7.421875 4.296875 13.28125 
Q 4.296875 19.140625 8.203125 22.65625 
Q 12.109375 26.171875 20.3125 27.34375 
Q 25.78125 28.125 29.875 29.296875 
Q 33.984375 30.46875 33.984375 32.421875 
Q 33.984375 34.765625 32.21875 37.109375 
Q 30.46875 39.453125 24.609375 39.453125 
Q 19.921875 39.453125 17.765625 37.6875 
Q 15.625 35.9375 14.84375 32.8125 
L 6.25 32.8125 
Q 7.03125 39.0625 11.90625 42.765625 
Q 16.796875 46.484375 24.609375 46.484375 
Q 33.203125 46.484375 37.5 42.578125 
Q 41.796875 38.671875 41.796875 31.640625 
L 41.796875 10.15625 
Q 41.796875 7.8125 42.578125 5.859375 
Q 43.359375 3.90625 44.921875 1.953125 
z
M 33.984375 16.40625 
L 33.984375 24.21875 
Q 31.640625 23.4375 29.484375 22.84375 
Q 27.34375 22.265625 22.265625 21.484375 
Q 16.40625 20.703125 14.640625 18.75 
Q 12.890625 16.796875 12.890625 14.0625 
Q 12.890625 11.71875 14.640625 9.953125 
Q 16.40625 8.203125 19.921875 8.203125 
Q 23.4375 8.203125 27.53125 10.15625 
Q 31.640625 12.109375 33.984375 16.40625 
z
" id="SimHei-61"/>
      <path d="M 28.515625 1.953125 
L 20.703125 1.953125 
L 20.703125 68.75 
L 28.515625 68.75 
z
" id="SimHei-6c"/>
      <path d="M 42.96875 3.125 
Q 41.015625 2.34375 38.46875 1.75 
Q 35.9375 1.171875 31.640625 1.171875 
Q 24.609375 1.171875 20.3125 5.078125 
Q 16.015625 8.984375 16.015625 16.015625 
L 16.015625 39.453125 
L 2.734375 39.453125 
L 2.734375 45.703125 
L 16.015625 45.703125 
L 16.015625 60.9375 
L 23.828125 60.9375 
L 23.828125 45.703125 
L 39.84375 45.703125 
L 39.84375 39.453125 
L 23.828125 39.453125 
L 23.828125 15.625 
Q 23.828125 12.5 25.390625 10.34375 
Q 26.953125 8.203125 31.25 8.203125 
Q 35.546875 8.203125 38.28125 8.984375 
Q 41.015625 9.765625 42.96875 10.9375 
z
" id="SimHei-74"/>
      <path d="M 45.3125 45.703125 
L 27.34375 -1.5625 
Q 25.78125 -7.03125 22.65625 -9.765625 
Q 19.53125 -12.5 14.84375 -12.5 
Q 12.890625 -12.5 11.125 -12.296875 
Q 9.375 -12.109375 7.8125 -11.328125 
L 7.8125 -3.515625 
Q 9.375 -4.296875 10.9375 -4.6875 
Q 12.5 -5.078125 13.671875 -5.078125 
Q 16.796875 -5.078125 17.96875 -4.09375 
Q 19.140625 -3.125 20.3125 0.390625 
L 3.125 45.703125 
L 11.71875 45.703125 
L 24.21875 11.328125 
L 24.609375 11.328125 
L 36.71875 45.703125 
z
" id="SimHei-79"/>
      <path d="M 46.484375 39.0625 
Q 43.75 39.84375 41.203125 40.03125 
Q 38.671875 40.234375 35.9375 39.453125 
Q 37.109375 38.28125 37.890625 36.515625 
Q 38.671875 34.765625 38.671875 31.25 
Q 38.671875 24.609375 34.171875 20.3125 
Q 29.6875 16.015625 23.046875 16.015625 
Q 21.484375 16.015625 18.9375 16.59375 
Q 16.40625 17.1875 14.84375 17.96875 
Q 13.671875 17.1875 13.28125 16.40625 
Q 12.890625 15.625 12.890625 14.453125 
Q 12.890625 12.5 15.625 11.515625 
Q 18.359375 10.546875 25.390625 10.546875 
Q 36.71875 10.546875 40.8125 7.421875 
Q 44.921875 4.296875 44.921875 -0.390625 
Q 44.921875 -6.640625 38.859375 -9.5625 
Q 32.8125 -12.5 24.609375 -12.5 
Q 14.0625 -12.5 8.984375 -9.765625 
Q 3.90625 -7.03125 3.90625 -2.34375 
Q 3.90625 0 5.859375 2.34375 
Q 7.8125 4.6875 10.9375 6.25 
Q 8.59375 7.421875 7.21875 9.171875 
Q 5.859375 10.9375 5.859375 13.671875 
Q 5.859375 16.015625 7.609375 17.765625 
Q 9.375 19.53125 11.71875 20.703125 
Q 9.765625 22.65625 8.59375 25.390625 
Q 7.421875 28.125 7.421875 31.25 
Q 7.421875 37.890625 11.90625 42.1875 
Q 16.40625 46.484375 23.046875 46.484375 
Q 26.5625 46.484375 29.09375 45.5 
Q 31.640625 44.53125 33.59375 42.578125 
Q 36.71875 44.921875 39.84375 45.890625 
Q 42.96875 46.875 46.484375 46.484375 
z
M 30.859375 31.25 
Q 30.859375 35.15625 28.90625 37.5 
Q 26.953125 39.84375 23.046875 39.84375 
Q 19.140625 39.84375 17.1875 37.5 
Q 15.234375 35.15625 15.234375 31.25 
Q 15.234375 27.34375 17.1875 25 
Q 19.140625 22.65625 23.046875 22.65625 
Q 26.953125 22.65625 28.90625 25 
Q 30.859375 27.34375 30.859375 31.25 
z
M 37.5 -1.171875 
Q 37.5 0.390625 35.734375 1.953125 
Q 33.984375 3.515625 26.953125 3.515625 
Q 25.390625 3.515625 22.65625 3.703125 
Q 19.921875 3.90625 16.40625 4.296875 
Q 13.28125 3.125 12.109375 1.5625 
Q 10.9375 0 10.9375 -1.5625 
Q 10.9375 -3.90625 14.0625 -5.46875 
Q 17.1875 -7.03125 25 -7.03125 
Q 31.640625 -7.03125 34.5625 -5.265625 
Q 37.5 -3.515625 37.5 -1.171875 
z
" id="SimHei-67"/>
      <path d="M 44.53125 16.796875 
Q 43.75 9.765625 38.28125 5.46875 
Q 32.8125 1.171875 25.390625 1.171875 
Q 16.015625 1.171875 9.953125 7.21875 
Q 3.90625 13.28125 3.90625 23.828125 
Q 3.90625 34.375 9.953125 40.421875 
Q 16.015625 46.484375 25.390625 46.484375 
Q 33.59375 46.484375 38.859375 41.203125 
Q 44.140625 35.9375 44.140625 23.828125 
L 12.5 23.828125 
Q 12.5 15.234375 16.203125 11.71875 
Q 19.921875 8.203125 25.390625 8.203125 
Q 29.6875 8.203125 32.421875 10.34375 
Q 35.15625 12.5 35.9375 16.796875 
z
M 35.15625 30.078125 
Q 34.375 35.546875 31.640625 37.6875 
Q 28.90625 39.84375 24.609375 39.84375 
Q 20.703125 39.84375 17.578125 37.6875 
Q 14.453125 35.546875 12.890625 30.078125 
z
" id="SimHei-65"/>
     </defs>
     <g transform="translate(66.2 263.45)scale(0.15 -0.15)">
      <use xlink:href="#SimHei-70"/>
      <use x="50" xlink:href="#SimHei-72"/>
      <use x="100" xlink:href="#SimHei-6f"/>
      <use x="150" xlink:href="#SimHei-62"/>
      <use x="200" xlink:href="#SimHei-61"/>
      <use x="250" xlink:href="#SimHei-62"/>
      <use x="300" xlink:href="#SimHei-69"/>
      <use x="350" xlink:href="#SimHei-6c"/>
      <use x="400" xlink:href="#SimHei-69"/>
      <use x="450" xlink:href="#SimHei-74"/>
      <use x="500" xlink:href="#SimHei-79"/>
      <use x="550" xlink:href="#SimHei-20"/>
      <use x="600" xlink:href="#SimHei-6f"/>
      <use x="650" xlink:href="#SimHei-66"/>
      <use x="700" xlink:href="#SimHei-20"/>
      <use x="750" xlink:href="#SimHei-61"/>
      <use x="800" xlink:href="#SimHei-62"/>
      <use x="850" xlink:href="#SimHei-73"/>
      <use x="900" xlink:href="#SimHei-6f"/>
      <use x="950" xlink:href="#SimHei-72"/>
      <use x="1000" xlink:href="#SimHei-62"/>
      <use x="1050" xlink:href="#SimHei-69"/>
      <use x="1100" xlink:href="#SimHei-6e"/>
      <use x="1150" xlink:href="#SimHei-67"/>
      <use x="1200" xlink:href="#SimHei-20"/>
      <use x="1250" xlink:href="#SimHei-73"/>
      <use x="1300" xlink:href="#SimHei-74"/>
      <use x="1350" xlink:href="#SimHei-61"/>
      <use x="1400" xlink:href="#SimHei-74"/>
      <use x="1450" xlink:href="#SimHei-65"/>
     </g>
    </g>
    <g id="Path3DCollection_4">
     <g>
      <use style="fill:#008000;stroke:#008000;" x="39.2" xlink:href="#m76186516b6" y="279.3875"/>
     </g>
    </g>
    <g id="text_29">
     <!-- start state -->
     <g transform="translate(66.2 283.325)scale(0.15 -0.15)">
      <use xlink:href="#SimHei-73"/>
      <use x="50" xlink:href="#SimHei-74"/>
      <use x="100" xlink:href="#SimHei-61"/>
      <use x="150" xlink:href="#SimHei-72"/>
      <use x="200" xlink:href="#SimHei-74"/>
      <use x="250" xlink:href="#SimHei-20"/>
      <use x="300" xlink:href="#SimHei-73"/>
      <use x="350" xlink:href="#SimHei-74"/>
      <use x="400" xlink:href="#SimHei-61"/>
      <use x="450" xlink:href="#SimHei-74"/>
      <use x="500" xlink:href="#SimHei-65"/>
     </g>
    </g>
   </g>
  </g>
 </g>
 <defs>
  <clipPath id="p4479a21574">
   <rect height="288" width="360" x="10.7" y="10.7"/>
  </clipPath>
 </defs>
</svg>
