<?xml version="1.0" encoding="utf-8" standalone="no"?>
<!DOCTYPE svg PUBLIC "-//W3C//DTD SVG 1.1//EN"
  "http://www.w3.org/Graphics/SVG/1.1/DTD/svg11.dtd">
<!-- Created with matplotlib (http://matplotlib.org/) -->
<svg height="309.4pt" version="1.1" viewBox="0 0 381.4 309.4" width="381.4pt" xmlns="http://www.w3.org/2000/svg" xmlns:xlink="http://www.w3.org/1999/xlink">
 <defs>
  <style type="text/css">
*{stroke-linecap:butt;stroke-linejoin:round;}
  </style>
 </defs>
 <g id="figure_1">
  <g id="patch_1">
   <path d="M 0 309.4 
L 381.4 309.4 
L 381.4 0 
L 0 0 
z
" style="fill:none;"/>
  </g>
  <g id="patch_2">
   <path d="M 10.7 298.7 
L 370.7 298.7 
L 370.7 10.7 
L 10.7 10.7 
z
" style="fill:#ffffff;"/>
  </g>
  <g id="pane3d_1">
   <g id="patch_3">
    <path d="M 219.619567 185.462306 
L 335.768129 233.715199 
L 340.919918 79.597002 
L 220.435568 41.545085 
" style="fill:#f2f2f2;opacity:0.5;stroke:#f2f2f2;stroke-linejoin:miter;"/>
   </g>
  </g>
  <g id="pane3d_2">
   <g id="patch_4">
    <path d="M 219.619567 185.462306 
L 58.794045 217.8137 
L 53.895826 67.034254 
L 220.435568 41.545085 
" style="fill:#e6e6e6;opacity:0.5;stroke:#e6e6e6;stroke-linejoin:miter;"/>
   </g>
  </g>
  <g id="pane3d_3">
   <g id="patch_5">
    <path d="M 219.619567 185.462306 
L 58.794045 217.8137 
L 168.062833 271.631196 
L 335.768129 233.715199 
" style="fill:#ececec;opacity:0.5;stroke:#ececec;stroke-linejoin:miter;"/>
   </g>
  </g>
  <g id="axis3d_1">
   <g id="line2d_1">
    <path d="M 335.768129 233.715199 
L 168.062833 271.631196 
" style="fill:none;stroke:#000000;stroke-linecap:square;stroke-width:0.8;"/>
   </g>
   <g id="text_1">
    <!-- coins of 大熊 -->
    <defs>
     <path d="M 44.53125 19.53125 
Q 44.53125 11.328125 38.859375 6.25 
Q 33.203125 1.171875 24.609375 1.171875 
Q 16.015625 1.171875 9.765625 7.21875 
Q 3.515625 13.28125 3.515625 23.828125 
Q 3.515625 34.375 9.765625 40.421875 
Q 16.015625 46.484375 24.609375 46.484375 
Q 33.203125 46.484375 38.28125 41.984375 
Q 43.359375 37.5 43.359375 31.25 
L 34.765625 31.25 
Q 34.375 35.9375 31.4375 37.6875 
Q 28.515625 39.453125 24.609375 39.453125 
Q 19.921875 39.453125 16.015625 35.734375 
Q 12.109375 32.03125 12.109375 23.828125 
Q 12.109375 15.625 16.015625 11.90625 
Q 19.921875 8.203125 24.609375 8.203125 
Q 29.6875 8.203125 32.8125 10.9375 
Q 35.9375 13.671875 35.9375 19.53125 
z
" id="SimHei-63"/>
     <path d="M 45.703125 23.828125 
Q 45.703125 13.671875 39.453125 7.421875 
Q 33.203125 1.171875 24.609375 1.171875 
Q 16.015625 1.171875 9.765625 7.421875 
Q 3.515625 13.671875 3.515625 23.828125 
Q 3.515625 33.984375 9.765625 40.234375 
Q 16.015625 46.484375 24.609375 46.484375 
Q 33.203125 46.484375 39.453125 40.234375 
Q 45.703125 33.984375 45.703125 23.828125 
z
M 37.109375 23.828125 
Q 37.109375 31.640625 33.203125 35.546875 
Q 29.296875 39.453125 24.609375 39.453125 
Q 19.921875 39.453125 16.015625 35.546875 
Q 12.109375 31.640625 12.109375 23.828125 
Q 12.109375 16.015625 16.015625 12.109375 
Q 19.921875 8.203125 24.609375 8.203125 
Q 29.296875 8.203125 33.203125 12.109375 
Q 37.109375 16.015625 37.109375 23.828125 
z
" id="SimHei-6f"/>
     <path d="M 28.125 58.203125 
L 20.3125 58.203125 
L 20.3125 68.359375 
L 28.125 68.359375 
z
M 28.125 1.953125 
L 20.3125 1.953125 
L 20.3125 45.703125 
L 28.125 45.703125 
z
" id="SimHei-69"/>
     <path d="M 43.75 1.953125 
L 35.9375 1.953125 
L 35.9375 30.078125 
Q 35.9375 34.765625 33.59375 37.5 
Q 31.25 40.234375 27.34375 40.234375 
Q 22.265625 40.234375 17.765625 34.953125 
Q 13.28125 29.6875 13.28125 21.875 
L 13.28125 1.953125 
L 5.46875 1.953125 
L 5.46875 45.703125 
L 13.28125 45.703125 
L 13.28125 37.5 
Q 16.40625 41.796875 20.109375 44.140625 
Q 23.828125 46.484375 29.6875 46.484375 
Q 36.71875 46.484375 40.234375 42.578125 
Q 43.75 38.671875 43.75 32.8125 
z
" id="SimHei-6e"/>
     <path d="M 42.96875 14.0625 
Q 42.96875 7.8125 38.078125 4.484375 
Q 33.203125 1.171875 25.78125 1.171875 
Q 16.40625 1.171875 11.328125 4.875 
Q 6.25 8.59375 6.25 15.625 
L 14.0625 15.625 
Q 14.0625 10.9375 17.375 9.375 
Q 20.703125 7.8125 25.390625 7.8125 
Q 30.078125 7.8125 32.421875 9.5625 
Q 34.765625 11.328125 34.765625 14.0625 
Q 34.765625 16.015625 32.8125 17.96875 
Q 30.859375 19.921875 23.046875 21.09375 
Q 14.0625 22.265625 10.734375 25.578125 
Q 7.421875 28.90625 7.421875 34.375 
Q 7.421875 39.0625 11.90625 42.765625 
Q 16.40625 46.484375 25 46.484375 
Q 32.8125 46.484375 37.296875 42.96875 
Q 41.796875 39.453125 41.796875 33.59375 
L 33.984375 33.59375 
Q 33.984375 37.109375 31.4375 38.46875 
Q 28.90625 39.84375 25 39.84375 
Q 19.921875 39.84375 17.765625 38.078125 
Q 15.625 36.328125 15.625 33.984375 
Q 15.625 31.25 17.578125 29.6875 
Q 19.53125 28.125 25.78125 27.34375 
Q 35.9375 25.78125 39.453125 22.453125 
Q 42.96875 19.140625 42.96875 14.0625 
z
" id="SimHei-73"/>
     <path id="SimHei-20"/>
     <path d="M 44.53125 59.765625 
Q 42.578125 60.9375 39.84375 61.71875 
Q 37.109375 62.5 32.8125 62.5 
Q 28.515625 62.5 26.953125 60.34375 
Q 25.390625 58.203125 25.390625 55.078125 
L 25.390625 45.703125 
L 41.40625 45.703125 
L 41.40625 39.453125 
L 25.390625 39.453125 
L 25.390625 1.953125 
L 17.578125 1.953125 
L 17.578125 39.453125 
L 4.296875 39.453125 
L 4.296875 45.703125 
L 17.578125 45.703125 
L 17.578125 54.6875 
Q 17.578125 61.71875 21.875 65.625 
Q 26.171875 69.53125 33.203125 69.53125 
Q 37.5 69.53125 40.03125 68.9375 
Q 42.578125 68.359375 44.53125 67.578125 
z
" id="SimHei-66"/>
     <path d="M 45.3125 53.125 
Q 45.703125 66.796875 45.5 71.484375 
Q 45.3125 76.171875 44.921875 80.46875 
Q 49.609375 79.6875 55.46875 79.296875 
Q 54.296875 75.390625 53.703125 67.96875 
Q 53.125 60.546875 53.125 53.125 
L 73.046875 53.125 
Q 83.59375 53.125 92.578125 53.90625 
L 92.578125 45.3125 
Q 84.765625 45.703125 76.5625 45.703125 
L 53.515625 45.703125 
Q 55.078125 39.0625 58.984375 32.21875 
Q 62.890625 25.390625 66.984375 20.109375 
Q 71.09375 14.84375 78.3125 8.984375 
Q 85.546875 3.125 94.140625 -0.78125 
Q 91.015625 -3.125 87.890625 -8.59375 
Q 80.859375 -4.6875 74.015625 1.171875 
Q 67.1875 7.03125 60.34375 16.59375 
Q 53.515625 26.171875 50 34.375 
Q 46.875 25.78125 43.359375 20.109375 
Q 39.84375 14.453125 35.734375 9.765625 
Q 31.640625 5.078125 25.1875 0.390625 
Q 18.75 -4.296875 10.546875 -8.984375 
Q 7.421875 -4.296875 3.515625 -0.78125 
Q 11.71875 1.953125 19.71875 7.03125 
Q 27.734375 12.109375 32.8125 18.546875 
Q 37.890625 25 41.015625 32.03125 
Q 44.140625 39.0625 44.921875 45.703125 
L 23.4375 45.703125 
Q 14.0625 45.703125 8.59375 45.3125 
L 8.59375 53.90625 
Q 14.0625 53.515625 23.4375 53.125 
z
" id="SimHei-5927"/>
     <path d="M 49.609375 52.34375 
Q 49.21875 46.484375 49.21875 40.625 
L 49.21875 19.53125 
Q 49.21875 15.234375 46.484375 13.859375 
Q 43.75 12.5 34.765625 11.328125 
Q 33.59375 14.84375 31.640625 18.359375 
Q 38.671875 18.75 40.421875 18.9375 
Q 42.1875 19.140625 41.796875 23.4375 
L 18.359375 23.4375 
L 18.359375 12.5 
L 10.15625 12.5 
Q 10.546875 25 10.546875 33.59375 
Q 10.546875 42.1875 10.15625 52.34375 
L 49.609375 52.34375 
z
M 65.625 45.3125 
Q 65.234375 41.015625 65.234375 34.375 
Q 81.640625 38.671875 88.28125 43.359375 
Q 90.234375 39.453125 93.359375 36.71875 
Q 85.9375 34.765625 65.625 28.125 
L 65.625 23.046875 
Q 65.625 19.53125 70.703125 19.53125 
L 80.46875 19.53125 
Q 83.59375 19.53125 85.15625 20.890625 
Q 86.71875 22.265625 88.28125 28.125 
Q 92.1875 26.171875 96.875 25.390625 
Q 93.359375 17.1875 91.40625 15.234375 
Q 89.453125 13.28125 83.984375 13.28125 
L 65.234375 13.28125 
Q 57.03125 13.28125 57.03125 19.53125 
L 57.03125 37.5 
Q 57.03125 40.625 56.640625 45.3125 
L 65.625 45.3125 
z
M 92.578125 69.140625 
Q 78.515625 65.234375 64.84375 61.328125 
Q 64.84375 54.6875 68.359375 54.6875 
L 80.46875 54.6875 
Q 83.203125 54.6875 84.765625 56.4375 
Q 86.328125 58.203125 86.71875 62.5 
Q 90.234375 60.9375 94.921875 59.765625 
Q 92.96875 51.5625 90.421875 50.1875 
Q 87.890625 48.828125 82.8125 48.828125 
L 64.84375 48.828125 
Q 57.03125 48.828125 57.03125 54.296875 
L 57.03125 71.09375 
Q 57.03125 75.78125 56.640625 80.46875 
L 65.625 80.46875 
Q 65.234375 75.390625 65.234375 67.1875 
Q 78.515625 70.3125 86.328125 76.171875 
Q 88.671875 72.65625 92.578125 69.140625 
z
M 32.03125 78.125 
Q 24.609375 71.484375 16.40625 62.890625 
Q 22.65625 63.28125 40.625 65.234375 
Q 38.671875 67.578125 35.546875 70.703125 
Q 39.0625 72.265625 42.96875 74.21875 
Q 51.171875 63.28125 55.078125 58.59375 
Q 51.171875 57.03125 48.046875 54.6875 
L 44.53125 59.765625 
Q 42.578125 59.375 33.203125 58.59375 
Q 23.828125 57.8125 9.375 55.859375 
Q 7.421875 59.375 6.25 62.890625 
Q 10.15625 64.84375 14.640625 69.53125 
Q 19.140625 74.21875 23.4375 82.03125 
Q 27.734375 79.6875 32.03125 78.125 
z
M 41.796875 28.90625 
L 41.796875 35.546875 
L 18.359375 35.546875 
L 18.359375 28.90625 
z
M 20.3125 6.640625 
Q 17.1875 3.125 11.71875 -9.765625 
Q 6.640625 -7.8125 3.90625 -7.03125 
Q 6.640625 -1.5625 11.71875 8.984375 
Q 15.625 7.8125 20.3125 6.640625 
z
M 85.9375 10.15625 
Q 92.578125 -1.953125 94.140625 -5.46875 
Q 89.84375 -6.640625 86.328125 -8.59375 
Q 83.984375 -2.34375 78.515625 7.03125 
Q 81.25 8.203125 85.9375 10.15625 
z
M 41.796875 41.015625 
L 41.796875 46.875 
L 18.359375 46.875 
L 18.359375 41.015625 
z
M 62.890625 8.59375 
Q 65.625 -1.953125 66.40625 -5.859375 
L 58.59375 -7.421875 
Q 57.421875 -3.90625 55.46875 7.421875 
Q 58.59375 8.203125 62.890625 8.59375 
z
M 39.84375 7.421875 
Q 40.234375 3.90625 42.578125 -6.640625 
Q 38.671875 -6.640625 34.375 -7.8125 
Q 33.59375 -3.125 32.03125 6.640625 
Q 35.15625 7.421875 39.84375 7.421875 
z
" id="SimHei-718a"/>
    </defs>
    <g style="fill:#800080;" transform="translate(235.061813 295.570823)rotate(-12.739652)scale(0.12 -0.12)">
     <use xlink:href="#SimHei-63"/>
     <use x="50" xlink:href="#SimHei-6f"/>
     <use x="100" xlink:href="#SimHei-69"/>
     <use x="150" xlink:href="#SimHei-6e"/>
     <use x="200" xlink:href="#SimHei-73"/>
     <use x="250" xlink:href="#SimHei-20"/>
     <use x="300" xlink:href="#SimHei-6f"/>
     <use x="350" xlink:href="#SimHei-66"/>
     <use x="400" xlink:href="#SimHei-20"/>
     <use x="450" xlink:href="#SimHei-5927"/>
     <use x="550" xlink:href="#SimHei-718a"/>
    </g>
   </g>
   <g id="Line3DCollection_1">
    <path d="M 325.649087 236.002984 
L 209.876104 187.422284 
L 210.363217 43.086674 
" style="fill:none;stroke:#b0b0b0;stroke-width:0.8;"/>
    <path d="M 305.615951 240.532216 
L 190.60155 191.299522 
L 190.43149 46.137256 
" style="fill:none;stroke:#b0b0b0;stroke-width:0.8;"/>
    <path d="M 285.302458 245.124834 
L 171.077619 195.226923 
L 170.232989 49.228668 
" style="fill:none;stroke:#b0b0b0;stroke-width:0.8;"/>
    <path d="M 264.70268 249.782177 
L 151.299439 199.205469 
L 149.762321 52.361736 
" style="fill:none;stroke:#b0b0b0;stroke-width:0.8;"/>
    <path d="M 243.810523 254.505623 
L 131.262013 203.236164 
L 129.013948 55.537307 
" style="fill:none;stroke:#b0b0b0;stroke-width:0.8;"/>
    <path d="M 222.619718 259.29659 
L 110.960209 207.320041 
L 107.982181 58.756252 
" style="fill:none;stroke:#b0b0b0;stroke-width:0.8;"/>
    <path d="M 201.123814 264.156536 
L 90.38876 211.458159 
L 86.661174 62.019466 
" style="fill:none;stroke:#b0b0b0;stroke-width:0.8;"/>
    <path d="M 179.316176 269.086961 
L 69.542258 215.651607 
L 65.044918 65.327868 
" style="fill:none;stroke:#b0b0b0;stroke-width:0.8;"/>
   </g>
   <g id="xtick_1">
    <g id="line2d_2">
     <path d="M 324.648958 235.583309 
L 327.653217 236.843957 
" style="fill:none;stroke:#000000;stroke-linecap:square;stroke-width:0.8;"/>
    </g>
    <g id="text_2">
     <!-- 0 -->
     <defs>
      <path d="M 3.125 29.296875 
Q 3.90625 50 6.4375 56.046875 
Q 8.984375 62.109375 13.671875 66.015625 
Q 18.359375 69.921875 25.1875 69.921875 
Q 32.03125 69.921875 37.109375 64.25 
Q 42.1875 58.59375 43.75 50 
Q 45.3125 41.40625 44.71875 30.265625 
Q 44.140625 19.140625 40.8125 12.109375 
Q 37.5 5.078125 30.859375 2.34375 
Q 24.21875 -0.390625 17.578125 2.921875 
Q 10.9375 6.25 8.203125 11.71875 
Q 5.46875 17.1875 4.296875 23.234375 
Q 3.125 29.296875 3.90625 50 
z
M 12.890625 52.734375 
Q 10.546875 31.25 12.5 22.84375 
Q 14.453125 14.453125 18.9375 10.9375 
Q 23.4375 7.421875 28.125 9.5625 
Q 32.8125 11.71875 34.953125 18.15625 
Q 37.109375 24.609375 37.109375 32.21875 
Q 37.109375 39.84375 36.515625 46.09375 
Q 35.9375 52.34375 33 57.421875 
Q 30.078125 62.5 25.1875 62.6875 
Q 20.3125 62.890625 16.59375 57.8125 
Q 12.890625 52.734375 10.546875 31.25 
z
" id="SimHei-30"/>
     </defs>
     <g transform="translate(330.134125 260.095778)scale(0.15 -0.15)">
      <use xlink:href="#SimHei-30"/>
     </g>
    </g>
   </g>
   <g id="xtick_2">
    <g id="line2d_3">
     <path d="M 304.621865 240.106691 
L 307.607998 241.384926 
" style="fill:none;stroke:#000000;stroke-linecap:square;stroke-width:0.8;"/>
    </g>
    <g id="text_3">
     <!-- 2 -->
     <defs>
      <path d="M 4.6875 3.90625 
Q 5.078125 9.765625 10.15625 14.453125 
Q 15.234375 19.140625 23.046875 29.09375 
Q 30.859375 39.0625 33.203125 44.53125 
Q 35.546875 50 34.953125 53.90625 
Q 34.375 57.8125 31.25 60.34375 
Q 28.125 62.890625 24.015625 62.5 
Q 19.921875 62.109375 16.203125 59.375 
Q 12.5 56.640625 10.546875 51.171875 
L 3.125 52.34375 
Q 6.25 61.328125 11.125 65.421875 
Q 16.015625 69.53125 22.65625 69.921875 
Q 26.5625 70.3125 29.6875 69.71875 
Q 32.8125 69.140625 36.125 66.984375 
Q 39.453125 64.84375 41.59375 60.546875 
Q 43.75 56.25 43.15625 50.1875 
Q 42.578125 44.140625 37.109375 35.734375 
Q 31.640625 27.34375 16.015625 9.375 
L 44.140625 9.375 
L 44.140625 2.34375 
L 4.6875 2.34375 
z
" id="SimHei-32"/>
     </defs>
     <g transform="translate(310.096382 264.735082)scale(0.15 -0.15)">
      <use xlink:href="#SimHei-32"/>
     </g>
    </g>
   </g>
   <g id="xtick_3">
    <g id="line2d_4">
     <path d="M 284.314682 244.693335 
L 287.281886 245.989527 
" style="fill:none;stroke:#000000;stroke-linecap:square;stroke-width:0.8;"/>
    </g>
    <g id="text_4">
     <!-- 4 -->
     <defs>
      <path d="M 31.25 17.1875 
L 1.171875 17.1875 
L 1.171875 23.828125 
L 32.8125 69.53125 
L 38.671875 69.53125 
L 38.671875 23.828125 
L 48.046875 23.828125 
L 48.046875 17.1875 
L 38.671875 17.1875 
L 38.671875 2.34375 
L 31.25 2.34375 
z
M 31.25 23.828125 
L 31.25 54.6875 
L 9.375 23.828125 
z
" id="SimHei-34"/>
     </defs>
     <g transform="translate(289.777342 269.439513)scale(0.15 -0.15)">
      <use xlink:href="#SimHei-34"/>
     </g>
    </g>
   </g>
   <g id="xtick_4">
    <g id="line2d_5">
     <path d="M 263.721492 249.344577 
L 266.668935 250.659107 
" style="fill:none;stroke:#000000;stroke-linecap:square;stroke-width:0.8;"/>
    </g>
    <g id="text_5">
     <!-- 6 -->
     <defs>
      <path d="M 3.515625 19.53125 
Q 4.296875 30.859375 6.046875 34.765625 
Q 7.8125 38.671875 11.328125 44.53125 
L 27.34375 69.53125 
L 36.328125 69.53125 
L 19.921875 43.75 
Q 30.46875 46.484375 36.71875 42.96875 
Q 42.96875 39.453125 45.109375 34.953125 
Q 47.265625 30.46875 47.453125 25.1875 
Q 47.65625 19.921875 45.890625 14.84375 
Q 44.140625 9.765625 39.640625 5.65625 
Q 35.15625 1.5625 27.140625 1.171875 
Q 19.140625 0.78125 13.46875 4.09375 
Q 7.8125 7.421875 5.65625 13.46875 
Q 3.515625 19.53125 4.296875 30.859375 
z
M 12.5 16.015625 
Q 19.53125 8.59375 25.390625 8.203125 
Q 31.25 7.8125 35.15625 12.109375 
Q 39.0625 16.40625 39.0625 24.609375 
Q 39.0625 32.8125 34.171875 35.9375 
Q 29.296875 39.0625 23.234375 38.28125 
Q 17.1875 37.5 14.453125 32.421875 
Q 11.71875 27.34375 12.109375 21.671875 
Q 12.5 16.015625 19.53125 8.59375 
z
" id="SimHei-36"/>
     </defs>
     <g transform="translate(269.171041 274.210454)scale(0.15 -0.15)">
      <use xlink:href="#SimHei-36"/>
     </g>
    </g>
   </g>
   <g id="xtick_5">
    <g id="line2d_6">
     <path d="M 242.83621 254.061792 
L 245.763028 255.395052 
" style="fill:none;stroke:#000000;stroke-linecap:square;stroke-width:0.8;"/>
    </g>
    <g id="text_6">
     <!-- 8 -->
     <defs>
      <path d="M 2.734375 16.796875 
Q 2.734375 26.171875 5.078125 30.65625 
Q 7.421875 35.15625 12.890625 37.890625 
Q 8.203125 40.625 6.640625 43.9375 
Q 5.078125 47.265625 4.875 51.5625 
Q 4.6875 55.859375 6.046875 58.984375 
Q 7.421875 62.109375 10.15625 64.84375 
Q 12.890625 67.578125 16.203125 68.546875 
Q 19.53125 69.53125 23.4375 69.53125 
Q 27.34375 69.53125 30.46875 68.75 
Q 33.59375 67.96875 37.109375 65.421875 
Q 40.625 62.890625 42.1875 58.203125 
Q 43.75 53.515625 41.984375 47.265625 
Q 40.234375 41.015625 32.8125 37.5 
Q 39.453125 35.546875 42.1875 31.4375 
Q 44.921875 27.34375 44.921875 21.484375 
Q 44.921875 15.625 43.15625 12.109375 
Q 41.40625 8.59375 39.25 6.25 
Q 37.109375 3.90625 33.390625 2.53125 
Q 29.6875 1.171875 24.015625 1.171875 
Q 18.359375 1.171875 14.25 2.53125 
Q 10.15625 3.90625 7.421875 6.640625 
Q 4.6875 9.375 3.703125 13.078125 
Q 2.734375 16.796875 2.734375 26.171875 
z
M 10.9375 26.5625 
Q 10.546875 17.1875 12.296875 13.671875 
Q 14.0625 10.15625 18.75 9.171875 
Q 23.4375 8.203125 28.515625 9.375 
Q 33.59375 10.546875 35.546875 14.84375 
Q 37.5 19.140625 36.90625 23.4375 
Q 36.328125 27.734375 32.03125 30.65625 
Q 27.734375 33.59375 22.65625 33.203125 
Q 17.578125 32.8125 14.25 29.6875 
Q 10.9375 26.5625 10.546875 17.1875 
z
M 12.109375 56.25 
Q 12.109375 48.4375 14.84375 44.921875 
Q 17.578125 41.40625 23.4375 41.40625 
Q 29.296875 41.40625 32.21875 44.921875 
Q 35.15625 48.4375 34.953125 53.3125 
Q 34.765625 58.203125 31.4375 60.546875 
Q 28.125 62.890625 22.453125 62.5 
Q 16.796875 62.109375 14.453125 59.171875 
Q 12.109375 56.25 12.109375 48.4375 
z
" id="SimHei-38"/>
     </defs>
     <g transform="translate(248.271344 279.049324)scale(0.15 -0.15)">
      <use xlink:href="#SimHei-38"/>
     </g>
    </g>
   </g>
   <g id="xtick_6">
    <g id="line2d_7">
     <path d="M 221.652577 258.846394 
L 224.557878 260.198787 
" style="fill:none;stroke:#000000;stroke-linecap:square;stroke-width:0.8;"/>
    </g>
    <g id="text_7">
     <!-- 10 -->
     <defs>
      <path d="M 21.875 56.25 
Q 16.796875 51.171875 8.984375 46.484375 
L 8.984375 53.90625 
Q 18.75 60.546875 25 69.53125 
L 29.6875 69.53125 
L 29.6875 2.34375 
L 21.875 2.34375 
z
" id="SimHei-31"/>
     </defs>
     <g transform="translate(223.321939 283.957585)scale(0.15 -0.15)">
      <use xlink:href="#SimHei-31"/>
      <use x="50" xlink:href="#SimHei-30"/>
     </g>
    </g>
   </g>
   <g id="xtick_7">
    <g id="line2d_8">
     <path d="M 200.164153 263.699837 
L 203.047012 265.071778 
" style="fill:none;stroke:#000000;stroke-linecap:square;stroke-width:0.8;"/>
    </g>
    <g id="text_8">
     <!-- 12 -->
     <g transform="translate(201.816333 288.936741)scale(0.15 -0.15)">
      <use xlink:href="#SimHei-31"/>
      <use x="50" xlink:href="#SimHei-32"/>
     </g>
    </g>
   </g>
   <g id="xtick_8">
    <g id="line2d_9">
     <path d="M 178.364314 268.623617 
L 181.22377 270.015533 
" style="fill:none;stroke:#000000;stroke-linecap:square;stroke-width:0.8;"/>
    </g>
    <g id="text_9">
     <!-- 14 -->
     <g transform="translate(179.997844 293.988337)scale(0.15 -0.15)">
      <use xlink:href="#SimHei-31"/>
      <use x="50" xlink:href="#SimHei-34"/>
     </g>
    </g>
   </g>
  </g>
  <g id="axis3d_2">
   <g id="line2d_10">
    <path d="M 58.794045 217.8137 
L 168.062833 271.631196 
" style="fill:none;stroke:#000000;stroke-linecap:square;stroke-width:0.8;"/>
   </g>
   <g id="text_10">
    <!-- coins of 胖虎 -->
    <defs>
     <path d="M 21.484375 1.953125 
Q 25.78125 1.5625 28.515625 1.75 
Q 31.25 1.953125 31.640625 7.03125 
L 31.640625 26.171875 
L 18.359375 26.171875 
Q 16.796875 14.453125 14.453125 5.859375 
Q 12.109375 -2.734375 10.15625 -7.03125 
Q 6.640625 -3.90625 3.125 -2.734375 
Q 6.640625 2.734375 8.78125 10.34375 
Q 10.9375 17.96875 11.71875 30.859375 
L 11.71875 64.453125 
Q 11.71875 71.09375 11.328125 76.953125 
L 38.671875 76.953125 
Q 38.28125 69.140625 38.28125 61.328125 
L 38.28125 1.953125 
Q 38.28125 -6.25 23.4375 -7.03125 
Q 23.046875 -3.125 21.484375 1.953125 
z
M 64.453125 45.3125 
L 64.453125 69.140625 
Q 64.453125 73.828125 63.671875 79.296875 
L 72.265625 79.296875 
Q 71.875 74.21875 71.875 69.140625 
L 71.875 45.3125 
L 82.421875 45.3125 
Q 85.9375 45.3125 91.796875 45.703125 
L 91.796875 38.671875 
Q 88.28125 39.0625 82.421875 39.0625 
L 71.875 39.0625 
L 71.875 23.4375 
L 84.765625 23.4375 
Q 91.015625 23.4375 96.09375 23.828125 
L 96.09375 16.796875 
Q 90.234375 17.1875 84.765625 17.1875 
L 71.875 17.1875 
L 71.875 3.90625 
Q 71.875 -2.34375 72.265625 -8.984375 
L 64.0625 -8.984375 
Q 64.453125 -2.734375 64.453125 3.90625 
L 64.453125 17.1875 
L 53.90625 17.1875 
Q 48.4375 17.1875 42.578125 16.796875 
L 42.578125 23.828125 
Q 48.046875 23.4375 54.296875 23.4375 
L 64.453125 23.4375 
L 64.453125 39.0625 
L 53.90625 39.0625 
Q 48.4375 39.0625 43.359375 38.671875 
L 43.359375 45.703125 
Q 48.4375 45.3125 53.515625 45.3125 
z
M 31.640625 32.8125 
L 31.640625 48.828125 
L 18.75 48.828125 
L 18.75 32.8125 
z
M 31.640625 55.078125 
L 31.640625 70.703125 
L 18.75 70.703125 
L 18.75 55.078125 
z
M 51.5625 51.953125 
Q 50 58.984375 44.921875 71.09375 
L 51.171875 74.21875 
Q 55.859375 63.28125 58.59375 54.6875 
Q 54.296875 53.515625 51.5625 51.953125 
z
M 77.34375 53.90625 
Q 83.984375 67.96875 84.765625 73.4375 
Q 88.671875 71.875 92.578125 70.703125 
Q 90.625 67.96875 88.671875 62.890625 
Q 86.71875 57.8125 84.375 51.953125 
Q 80.859375 53.90625 77.34375 53.90625 
z
" id="SimHei-80d6"/>
     <path d="M 25.78125 45.703125 
Q 33.203125 46.09375 44.140625 46.875 
L 44.140625 56.640625 
L 20.703125 56.640625 
Q 20.703125 31.640625 20.109375 23.4375 
Q 19.53125 15.234375 17.578125 8 
Q 15.625 0.78125 10.9375 -7.8125 
Q 7.8125 -5.46875 3.125 -3.90625 
Q 7.03125 0.78125 9.171875 6.828125 
Q 11.328125 12.890625 12.109375 18.75 
Q 12.890625 24.609375 13.078125 30.265625 
Q 13.28125 35.9375 13.28125 42.96875 
Q 13.28125 50.390625 12.890625 62.5 
L 44.140625 62.5 
L 44.140625 74.609375 
Q 44.140625 77.34375 43.359375 82.421875 
L 51.953125 82.421875 
Q 51.5625 78.515625 51.5625 75.390625 
L 71.09375 75.390625 
Q 76.171875 75.390625 84.765625 76.171875 
L 84.765625 69.53125 
Q 76.171875 69.921875 70.703125 69.921875 
L 51.171875 69.921875 
L 51.171875 62.5 
L 93.75 62.5 
Q 92.1875 57.8125 89.84375 46.875 
Q 85.15625 48.046875 82.03125 48.4375 
Q 83.984375 52.734375 85.15625 56.640625 
L 51.171875 56.640625 
L 51.171875 47.65625 
Q 65.234375 49.21875 74.21875 50.78125 
L 75 44.140625 
Q 64.0625 42.96875 51.171875 41.40625 
L 51.171875 36.71875 
Q 51.171875 33.203125 57.421875 33.203125 
L 70.3125 33.203125 
Q 75 32.8125 76.359375 34.5625 
Q 77.734375 36.328125 78.515625 41.015625 
Q 81.640625 39.0625 86.71875 37.109375 
Q 84.765625 30.859375 82.03125 29.09375 
Q 79.296875 27.34375 73.828125 27.34375 
L 54.296875 27.34375 
Q 44.140625 27.34375 44.140625 33.59375 
L 44.140625 41.015625 
Q 36.328125 40.234375 27.34375 39.0625 
Q 26.5625 42.578125 25.78125 45.703125 
z
M 71.09375 22.265625 
Q 70.703125 16.796875 70.703125 10.9375 
L 70.703125 2.34375 
Q 70.703125 -1.953125 75 -1.953125 
L 81.25 -1.953125 
Q 85.9375 -1.953125 86.71875 0.78125 
Q 87.5 3.515625 87.5 7.421875 
Q 91.40625 5.078125 96.09375 4.296875 
Q 93.359375 -3.90625 91.59375 -5.859375 
Q 89.84375 -7.8125 85.15625 -7.8125 
L 72.65625 -7.8125 
Q 63.671875 -7.8125 63.671875 -1.171875 
L 63.671875 16.40625 
L 45.3125 16.40625 
Q 45.3125 4.6875 41.203125 -0.578125 
Q 37.109375 -5.859375 26.171875 -10.546875 
Q 25 -6.640625 21.484375 -3.515625 
Q 35.9375 0.78125 37.109375 7.421875 
Q 38.28125 14.0625 37.890625 22.265625 
L 71.09375 22.265625 
z
" id="SimHei-864e"/>
    </defs>
    <g style="fill:#800080;" transform="translate(49.092792 257.912399)rotate(-333.778649)scale(0.12 -0.12)">
     <use xlink:href="#SimHei-63"/>
     <use x="50" xlink:href="#SimHei-6f"/>
     <use x="100" xlink:href="#SimHei-69"/>
     <use x="150" xlink:href="#SimHei-6e"/>
     <use x="200" xlink:href="#SimHei-73"/>
     <use x="250" xlink:href="#SimHei-20"/>
     <use x="300" xlink:href="#SimHei-6f"/>
     <use x="350" xlink:href="#SimHei-66"/>
     <use x="400" xlink:href="#SimHei-20"/>
     <use x="450" xlink:href="#SimHei-80d6"/>
     <use x="550" xlink:href="#SimHei-864e"/>
    </g>
   </g>
   <g id="Line3DCollection_2">
    <path d="M 227.548604 43.791556 
L 226.494241 188.318329 
L 65.235235 220.98614 
" style="fill:none;stroke:#b0b0b0;stroke-width:0.8;"/>
    <path d="M 241.688876 48.257402 
L 240.154088 193.993191 
L 78.043534 227.294534 
" style="fill:none;stroke:#b0b0b0;stroke-width:0.8;"/>
    <path d="M 256.106644 52.810887 
L 254.072998 199.775679 
L 91.108144 233.729167 
" style="fill:none;stroke:#b0b0b0;stroke-width:0.8;"/>
    <path d="M 270.810156 57.454617 
L 268.25841 205.668883 
L 104.436836 240.293868 
" style="fill:none;stroke:#b0b0b0;stroke-width:0.8;"/>
    <path d="M 285.807992 62.191302 
L 282.718053 211.676014 
L 118.0377 246.992619 
" style="fill:none;stroke:#b0b0b0;stroke-width:0.8;"/>
    <path d="M 301.10908 67.023762 
L 297.459956 217.800407 
L 131.919157 253.829569 
" style="fill:none;stroke:#b0b0b0;stroke-width:0.8;"/>
    <path d="M 316.722709 71.95493 
L 312.492466 224.045531 
L 146.089982 260.80904 
" style="fill:none;stroke:#b0b0b0;stroke-width:0.8;"/>
    <path d="M 332.658556 76.987861 
L 327.824262 230.41499 
L 160.559317 267.935534 
" style="fill:none;stroke:#b0b0b0;stroke-width:0.8;"/>
   </g>
   <g id="xtick_9">
    <g id="line2d_11">
     <path d="M 66.594479 220.710784 
L 62.513215 221.537566 
" style="fill:none;stroke:#000000;stroke-linecap:square;stroke-width:0.8;"/>
    </g>
    <g id="text_11">
     <!-- 0 -->
     <g transform="translate(50.195232 243.623733)scale(0.15 -0.15)">
      <use xlink:href="#SimHei-30"/>
     </g>
    </g>
   </g>
   <g id="xtick_10">
    <g id="line2d_12">
     <path d="M 79.410645 227.013697 
L 75.305726 227.856945 
" style="fill:none;stroke:#000000;stroke-linecap:square;stroke-width:0.8;"/>
    </g>
    <g id="text_12">
     <!-- 2 -->
     <g transform="translate(62.908596 250.062791)scale(0.15 -0.15)">
      <use xlink:href="#SimHei-32"/>
     </g>
    </g>
   </g>
   <g id="xtick_11">
    <g id="line2d_13">
     <path d="M 92.483165 233.442684 
L 88.354458 234.302894 
" style="fill:none;stroke:#000000;stroke-linecap:square;stroke-width:0.8;"/>
    </g>
    <g id="text_13">
     <!-- 4 -->
     <g transform="translate(75.876714 256.630876)scale(0.15 -0.15)">
      <use xlink:href="#SimHei-34"/>
     </g>
    </g>
   </g>
   <g id="xtick_12">
    <g id="line2d_14">
     <path d="M 105.81981 240.001565 
L 101.667187 240.879255 
" style="fill:none;stroke:#000000;stroke-linecap:square;stroke-width:0.8;"/>
    </g>
    <g id="text_14">
     <!-- 6 -->
     <g transform="translate(89.10732 263.331906)scale(0.15 -0.15)">
      <use xlink:href="#SimHei-36"/>
     </g>
    </g>
   </g>
   <g id="xtick_13">
    <g id="line2d_15">
     <path d="M 119.428666 246.694319 
L 115.252006 247.590026 
" style="fill:none;stroke:#000000;stroke-linecap:square;stroke-width:0.8;"/>
    </g>
    <g id="text_15">
     <!-- 8 -->
     <g transform="translate(102.608465 270.169958)scale(0.15 -0.15)">
      <use xlink:href="#SimHei-38"/>
     </g>
    </g>
   </g>
   <g id="xtick_14">
    <g id="line2d_16">
     <path d="M 133.318153 253.525084 
L 129.117343 254.439371 
" style="fill:none;stroke:#000000;stroke-linecap:square;stroke-width:0.8;"/>
    </g>
    <g id="text_16">
     <!-- 10 -->
     <g transform="translate(112.638533 277.14928)scale(0.15 -0.15)">
      <use xlink:href="#SimHei-31"/>
      <use x="50" xlink:href="#SimHei-30"/>
     </g>
    </g>
   </g>
   <g id="xtick_15">
    <g id="line2d_17">
     <path d="M 147.497042 260.498176 
L 143.271977 261.431625 
" style="fill:none;stroke:#000000;stroke-linecap:square;stroke-width:0.8;"/>
    </g>
    <g id="text_17">
     <!-- 12 -->
     <g transform="translate(126.706257 284.274293)scale(0.15 -0.15)">
      <use xlink:href="#SimHei-31"/>
      <use x="50" xlink:href="#SimHei-32"/>
     </g>
    </g>
   </g>
   <g id="xtick_16">
    <g id="line2d_18">
     <path d="M 161.974472 267.618089 
L 157.725058 268.57131 
" style="fill:none;stroke:#000000;stroke-linecap:square;stroke-width:0.8;"/>
    </g>
    <g id="text_18">
     <!-- 14 -->
     <g transform="translate(141.07074 291.549608)scale(0.15 -0.15)">
      <use xlink:href="#SimHei-31"/>
      <use x="50" xlink:href="#SimHei-34"/>
     </g>
    </g>
   </g>
  </g>
  <g id="axis3d_3">
   <g id="line2d_19">
    <path d="M 58.794045 217.8137 
L 53.895826 67.034254 
" style="fill:none;stroke:#000000;stroke-linecap:square;stroke-width:0.8;"/>
   </g>
   <g id="text_19">
    <!-- coins of 静香 -->
    <defs>
     <path d="M 67.578125 78.90625 
Q 65.625 76.5625 64.640625 74.40625 
Q 63.671875 72.265625 62.890625 70.3125 
L 84.375 70.3125 
Q 82.03125 66.796875 80.078125 62.296875 
Q 78.125 57.8125 75.78125 52.734375 
L 90.234375 52.734375 
Q 89.84375 47.265625 89.84375 41.015625 
L 89.84375 36.71875 
Q 93.359375 36.71875 96.875 37.109375 
L 96.875 30.46875 
Q 94.140625 30.859375 89.84375 30.859375 
L 89.84375 25.390625 
Q 89.84375 17.578125 90.234375 10.546875 
L 83.203125 10.546875 
L 83.203125 14.84375 
L 72.265625 14.84375 
L 72.265625 0.390625 
Q 71.875 -4.6875 68.9375 -6.640625 
Q 66.015625 -8.59375 56.25 -9.375 
Q 56.25 -5.46875 53.90625 -1.171875 
Q 58.984375 -1.5625 62.296875 -1.171875 
Q 65.625 -0.78125 65.625 2.734375 
L 65.625 14.84375 
L 60.15625 14.84375 
Q 55.46875 14.84375 50.390625 14.453125 
L 50.390625 20.703125 
Q 55.078125 20.3125 60.15625 20.3125 
L 65.625 20.3125 
L 65.625 30.859375 
L 59.765625 30.859375 
Q 54.6875 30.859375 48.046875 30.46875 
L 48.046875 36.71875 
Q 53.515625 36.328125 60.15625 36.328125 
L 65.625 36.328125 
L 65.625 47.265625 
L 60.15625 47.265625 
Q 57.8125 47.265625 51.953125 46.875 
L 51.953125 51.953125 
Q 50.78125 50.78125 48.828125 48.4375 
Q 46.875 51.5625 44.140625 53.90625 
Q 50.390625 60.15625 53.703125 68.15625 
Q 57.03125 76.171875 58.984375 82.03125 
Q 62.890625 80.078125 67.578125 78.90625 
z
M 42.96875 36.328125 
Q 42.578125 30.859375 42.578125 25 
L 42.578125 1.171875 
Q 42.578125 -4.6875 39.453125 -6.25 
Q 36.328125 -7.8125 30.078125 -8.984375 
Q 29.6875 -5.46875 27.34375 -1.5625 
Q 36.328125 -1.5625 35.546875 1.953125 
L 35.546875 6.640625 
L 15.234375 6.640625 
L 15.234375 -8.203125 
L 8.203125 -8.203125 
Q 8.59375 -3.90625 8.59375 1.953125 
L 8.59375 25 
Q 8.59375 30.859375 8.203125 36.328125 
L 42.96875 36.328125 
z
M 21.875 71.09375 
Q 21.875 74.609375 21.484375 80.46875 
L 29.296875 80.46875 
Q 28.90625 74.609375 28.90625 71.09375 
L 33.984375 71.09375 
Q 39.453125 71.09375 46.875 71.484375 
L 46.875 65.234375 
Q 39.453125 65.625 33.984375 65.625 
L 28.90625 65.625 
L 28.90625 59.375 
L 33.984375 59.375 
Q 36.328125 59.375 42.578125 59.765625 
L 42.578125 53.515625 
Q 35.9375 53.90625 33.59375 53.90625 
L 28.90625 53.90625 
L 28.90625 47.65625 
L 35.15625 47.65625 
Q 40.625 47.65625 46.484375 48.046875 
L 46.484375 41.796875 
Q 40.234375 42.1875 35.15625 42.1875 
L 15.625 42.1875 
Q 9.375 42.1875 3.90625 41.796875 
L 3.90625 48.046875 
Q 9.375 47.65625 15.625 47.65625 
L 21.875 47.65625 
L 21.875 53.90625 
L 15.234375 53.90625 
Q 12.890625 53.90625 8.59375 53.515625 
L 8.59375 59.765625 
Q 12.890625 59.375 15.234375 59.375 
L 21.875 59.375 
L 21.875 65.625 
L 15.234375 65.625 
Q 10.15625 65.625 4.6875 65.234375 
L 4.6875 71.484375 
Q 10.15625 71.09375 15.234375 71.09375 
z
M 52.734375 53.515625 
Q 57.421875 53.125 64.453125 53.125 
L 68.359375 53.125 
Q 72.265625 61.328125 73.4375 64.84375 
L 60.15625 64.84375 
Q 55.078125 56.640625 52.734375 53.515625 
z
M 35.546875 12.109375 
L 35.546875 19.140625 
L 15.234375 19.140625 
L 15.234375 12.109375 
z
M 35.546875 24.609375 
L 35.546875 30.859375 
L 15.234375 30.859375 
L 15.234375 24.609375 
z
M 83.203125 36.328125 
L 83.203125 47.265625 
L 72.265625 47.265625 
L 72.265625 36.328125 
z
M 83.203125 20.3125 
L 83.203125 30.859375 
L 72.265625 30.859375 
L 72.265625 20.3125 
z
" id="SimHei-9759"/>
     <path d="M 45.703125 33.59375 
L 45.703125 53.90625 
Q 36.71875 44.140625 26.359375 38.28125 
Q 16.015625 32.421875 10.546875 30.078125 
Q 10.546875 33.203125 5.46875 36.71875 
Q 16.015625 39.453125 24.21875 44.53125 
Q 32.421875 49.609375 37.109375 54.296875 
L 21.484375 54.296875 
Q 14.84375 54.296875 7.8125 53.90625 
L 7.8125 60.15625 
Q 14.84375 59.765625 21.484375 59.765625 
L 45.703125 59.765625 
L 45.703125 69.921875 
Q 38.28125 69.140625 17.96875 67.578125 
Q 16.796875 71.09375 14.453125 74.609375 
Q 32.8125 74.609375 50.390625 76.953125 
Q 67.96875 79.296875 74.609375 82.03125 
Q 76.953125 78.125 81.25 73.828125 
Q 74.609375 73.4375 67.96875 72.65625 
Q 61.328125 71.875 52.34375 70.703125 
L 52.34375 59.765625 
L 78.125 59.765625 
Q 83.984375 59.765625 91.40625 60.15625 
L 91.40625 53.90625 
Q 84.375 54.296875 78.125 54.296875 
L 61.71875 54.296875 
Q 66.40625 48.4375 74.21875 43.15625 
Q 82.03125 37.890625 94.140625 34.765625 
Q 89.84375 31.640625 88.28125 26.953125 
Q 82.421875 29.296875 77.34375 32.03125 
Q 76.5625 25 76.5625 12.5 
Q 76.5625 -0.78125 76.953125 -8.984375 
L 69.53125 -8.984375 
L 69.53125 -3.125 
L 28.515625 -3.125 
L 28.515625 -9.375 
L 21.875 -9.375 
L 21.875 11.71875 
Q 21.875 25 21.484375 33.59375 
z
M 69.53125 17.96875 
L 69.53125 27.734375 
L 28.515625 27.734375 
L 28.515625 17.96875 
z
M 69.53125 2.734375 
L 69.53125 12.5 
L 28.515625 12.5 
L 28.515625 2.734375 
z
M 71.484375 35.9375 
Q 62.109375 42.578125 52.734375 54.296875 
L 52.34375 54.296875 
L 52.34375 33.59375 
L 75 33.59375 
z
" id="SimHei-9999"/>
    </defs>
    <g style="fill:#800080;" transform="translate(10.565293 102.842551)rotate(-271.860655)scale(0.12 -0.12)">
     <use xlink:href="#SimHei-63"/>
     <use x="50" xlink:href="#SimHei-6f"/>
     <use x="100" xlink:href="#SimHei-69"/>
     <use x="150" xlink:href="#SimHei-6e"/>
     <use x="200" xlink:href="#SimHei-73"/>
     <use x="250" xlink:href="#SimHei-20"/>
     <use x="300" xlink:href="#SimHei-6f"/>
     <use x="350" xlink:href="#SimHei-66"/>
     <use x="400" xlink:href="#SimHei-20"/>
     <use x="450" xlink:href="#SimHei-9759"/>
     <use x="550" xlink:href="#SimHei-9999"/>
    </g>
   </g>
   <g id="Line3DCollection_3">
    <path d="M 58.492454 208.529967 
L 219.669895 176.585888 
L 336.085066 224.233899 
" style="fill:none;stroke:#b0b0b0;stroke-width:0.8;"/>
    <path d="M 57.897709 190.222231 
L 219.769111 159.08724 
L 336.710174 205.533478 
" style="fill:none;stroke:#b0b0b0;stroke-width:0.8;"/>
    <path d="M 57.297781 171.754931 
L 219.869148 141.443949 
L 337.340869 186.665935 
" style="fill:none;stroke:#b0b0b0;stroke-width:0.8;"/>
    <path d="M 56.692601 153.125973 
L 219.970014 123.654212 
L 337.977226 167.629019 
" style="fill:none;stroke:#b0b0b0;stroke-width:0.8;"/>
    <path d="M 56.0821 134.333224 
L 220.071722 105.716199 
L 338.619321 148.42044 
" style="fill:none;stroke:#b0b0b0;stroke-width:0.8;"/>
    <path d="M 55.466207 115.374514 
L 220.17428 87.628049 
L 339.267233 129.037865 
" style="fill:none;stroke:#b0b0b0;stroke-width:0.8;"/>
    <path d="M 54.844852 96.247636 
L 220.277701 69.387869 
L 339.92104 109.478918 
" style="fill:none;stroke:#b0b0b0;stroke-width:0.8;"/>
    <path d="M 54.21796 76.950341 
L 220.381995 50.993734 
L 340.580823 89.741182 
" style="fill:none;stroke:#b0b0b0;stroke-width:0.8;"/>
   </g>
   <g id="xtick_17">
    <g id="line2d_20">
     <path d="M 59.850818 208.26075 
L 55.772207 209.069099 
" style="fill:none;stroke:#000000;stroke-linecap:square;stroke-width:0.8;"/>
    </g>
    <g id="text_20">
     <!-- 0 -->
     <g transform="translate(36.319991 217.800274)scale(0.15 -0.15)">
      <use xlink:href="#SimHei-30"/>
     </g>
    </g>
   </g>
   <g id="xtick_18">
    <g id="line2d_21">
     <path d="M 59.262222 189.959775 
L 55.165133 190.747826 
" style="fill:none;stroke:#000000;stroke-linecap:square;stroke-width:0.8;"/>
    </g>
    <g id="text_21">
     <!-- 2 -->
     <g transform="translate(35.646444 199.518717)scale(0.15 -0.15)">
      <use xlink:href="#SimHei-32"/>
     </g>
    </g>
   </g>
   <g id="xtick_19">
    <g id="line2d_22">
     <path d="M 58.668498 171.499365 
L 54.552763 172.266732 
" style="fill:none;stroke:#000000;stroke-linecap:square;stroke-width:0.8;"/>
    </g>
    <g id="text_22">
     <!-- 4 -->
     <g transform="translate(34.967036 181.078092)scale(0.15 -0.15)">
      <use xlink:href="#SimHei-34"/>
     </g>
    </g>
   </g>
   <g id="xtick_20">
    <g id="line2d_23">
     <path d="M 58.069579 152.877427 
L 53.935029 153.623718 
" style="fill:none;stroke:#000000;stroke-linecap:square;stroke-width:0.8;"/>
    </g>
    <g id="text_23">
     <!-- 6 -->
     <g transform="translate(34.281691 162.476316)scale(0.15 -0.15)">
      <use xlink:href="#SimHei-36"/>
     </g>
    </g>
   </g>
   <g id="xtick_21">
    <g id="line2d_24">
     <path d="M 57.465397 134.091831 
L 53.311858 134.816645 
" style="fill:none;stroke:#000000;stroke-linecap:square;stroke-width:0.8;"/>
    </g>
    <g id="text_24">
     <!-- 8 -->
     <g transform="translate(33.590331 143.711265)scale(0.15 -0.15)">
      <use xlink:href="#SimHei-38"/>
     </g>
    </g>
   </g>
   <g id="xtick_22">
    <g id="line2d_25">
     <path d="M 56.855881 115.140412 
L 52.683179 115.843338 
" style="fill:none;stroke:#000000;stroke-linecap:square;stroke-width:0.8;"/>
    </g>
    <g id="text_25">
     <!-- 10 -->
     <g transform="translate(29.142875 124.780781)scale(0.15 -0.15)">
      <use xlink:href="#SimHei-31"/>
      <use x="50" xlink:href="#SimHei-30"/>
     </g>
    </g>
   </g>
   <g id="xtick_23">
    <g id="line2d_26">
     <path d="M 56.240962 96.020962 
L 52.048919 96.701585 
" style="fill:none;stroke:#000000;stroke-linecap:square;stroke-width:0.8;"/>
    </g>
    <g id="text_26">
     <!-- 12 -->
     <g transform="translate(28.439244 105.682667)scale(0.15 -0.15)">
      <use xlink:href="#SimHei-31"/>
      <use x="50" xlink:href="#SimHei-32"/>
     </g>
    </g>
   </g>
   <g id="xtick_24">
    <g id="line2d_27">
     <path d="M 55.620566 76.731239 
L 51.409002 77.389131 
" style="fill:none;stroke:#000000;stroke-linecap:square;stroke-width:0.8;"/>
    </g>
    <g id="text_27">
     <!-- 14 -->
     <g transform="translate(27.729354 86.414686)scale(0.15 -0.15)">
      <use xlink:href="#SimHei-31"/>
      <use x="50" xlink:href="#SimHei-34"/>
     </g>
    </g>
   </g>
  </g>
  <g id="axes_1">
   <g id="Path3DCollection_1">
    <defs>
     <path d="M 0 5 
C 1.326016 5 2.597899 4.473168 3.535534 3.535534 
C 4.473168 2.597899 5 1.326016 5 0 
C 5 -1.326016 4.473168 -2.597899 3.535534 -3.535534 
C 2.597899 -4.473168 1.326016 -5 0 -5 
C -1.326016 -5 -2.597899 -4.473168 -3.535534 -3.535534 
C -4.473168 -2.597899 -5 -1.326016 -5 0 
C -5 1.326016 -4.473168 2.597899 -3.535534 3.535534 
C -2.597899 4.473168 -1.326016 5 0 5 
z
" id="m8df8a41002" style="stroke:#008000;"/>
    </defs>
    <g clip-path="url(#p3d22b70e3b)">
     <use style="fill:#008000;stroke:#008000;" x="181.039972" xlink:href="#m8df8a41002" y="123.946994"/>
    </g>
   </g>
   <g id="Path3DCollection_2">
    <path clip-path="url(#p3d22b70e3b)" d="M 224.398551 57.499136 
C 224.492314 57.499136 224.58225 57.461884 224.648551 57.395583 
C 224.714852 57.329282 224.752104 57.239346 224.752104 57.145583 
C 224.752104 57.05182 224.714852 56.961884 224.648551 56.895583 
C 224.58225 56.829282 224.492314 56.79203 224.398551 56.79203 
C 224.304787 56.79203 224.214852 56.829282 224.148551 56.895583 
C 224.08225 56.961884 224.044997 57.05182 224.044997 57.145583 
C 224.044997 57.239346 224.08225 57.329282 224.148551 57.395583 
C 224.214852 57.461884 224.304787 57.499136 224.398551 57.499136 
z
" style="fill:#ff0000;stroke:#ff0000;"/>
    <path clip-path="url(#p3d22b70e3b)" d="M 231.385035 70.747521 
C 231.898598 70.747521 232.391197 70.54348 232.754341 70.180335 
C 233.117485 69.817191 233.321526 69.324593 233.321526 68.811029 
C 233.321526 68.297465 233.117485 67.804867 232.754341 67.441723 
C 232.391197 67.078578 231.898598 66.874537 231.385035 66.874537 
C 230.871471 66.874537 230.378873 67.078578 230.015728 67.441723 
C 229.652584 67.804867 229.448543 68.297465 229.448543 68.811029 
C 229.448543 69.324593 229.652584 69.817191 230.015728 70.180335 
C 230.378873 70.54348 230.871471 70.747521 231.385035 70.747521 
z
" style="fill:#ff0000;stroke:#ff0000;"/>
    <path clip-path="url(#p3d22b70e3b)" d="M 238.409492 83.368306 
C 239.159599 83.368306 239.879085 83.070285 240.409492 82.539879 
C 240.939898 82.009473 241.237919 81.289987 241.237919 80.539879 
C 241.237919 79.789771 240.939898 79.070285 240.409492 78.539879 
C 239.879085 78.009473 239.159599 77.711452 238.409492 77.711452 
C 237.659384 77.711452 236.939898 78.009473 236.409492 78.539879 
C 235.879085 79.070285 235.581064 79.789771 235.581064 80.539879 
C 235.581064 81.289987 235.879085 82.009473 236.409492 82.539879 
C 236.939898 83.070285 237.659384 83.368306 238.409492 83.368306 
z
" style="fill:#ff0000;stroke:#ff0000;"/>
    <path clip-path="url(#p3d22b70e3b)" d="M 245.472232 95.920826 
C 246.423827 95.920826 247.336575 95.542753 248.009454 94.869874 
C 248.682334 94.196994 249.060407 93.284246 249.060407 92.332651 
C 249.060407 91.381056 248.682334 90.468307 248.009454 89.795428 
C 247.336575 89.122549 246.423827 88.744476 245.472232 88.744476 
C 244.520636 88.744476 243.607888 89.122549 242.935009 89.795428 
C 242.262129 90.468307 241.884057 91.381056 241.884057 92.332651 
C 241.884057 93.284246 242.262129 94.196994 242.935009 94.869874 
C 243.607888 95.542753 244.520636 95.920826 245.472232 95.920826 
z
" style="fill:#ff0000;stroke:#ff0000;"/>
    <path clip-path="url(#p3d22b70e3b)" d="M 252.573569 108.030442 
C 253.592101 108.030442 254.569053 107.625775 255.289264 106.905564 
C 256.009475 106.185353 256.414142 105.208401 256.414142 104.189869 
C 256.414142 103.171337 256.009475 102.194385 255.289264 101.474174 
C 254.569053 100.753963 253.592101 100.349296 252.573569 100.349296 
C 251.555037 100.349296 250.578084 100.753963 249.857874 101.474174 
C 249.137663 102.194385 248.732996 103.171337 248.732996 104.189869 
C 248.732996 105.208401 249.137663 106.185353 249.857874 106.905564 
C 250.578084 107.625775 251.555037 108.030442 252.573569 108.030442 
z
" style="fill:#ff0000;stroke:#ff0000;"/>
    <path clip-path="url(#p3d22b70e3b)" d="M 259.71382 119.936328 
C 260.728027 119.936328 261.700831 119.533379 262.417984 118.816227 
C 263.135136 118.099074 263.538085 117.12627 263.538085 116.112063 
C 263.538085 115.097856 263.135136 114.125052 262.417984 113.4079 
C 261.700831 112.690747 260.728027 112.287799 259.71382 112.287799 
C 258.699613 112.287799 257.726809 112.690747 257.009657 113.4079 
C 256.292504 114.125052 255.889556 115.097856 255.889556 116.112063 
C 255.889556 117.12627 256.292504 118.099074 257.009657 118.816227 
C 257.726809 119.533379 258.699613 119.936328 259.71382 119.936328 
z
" style="fill:#ff0000;stroke:#ff0000;"/>
    <path clip-path="url(#p3d22b70e3b)" d="M 266.893307 131.340139 
C 267.752663 131.340139 268.576938 130.998713 269.184595 130.391057 
C 269.792251 129.7834 270.133677 128.959125 270.133677 128.099769 
C 270.133677 127.240412 269.792251 126.416138 269.184595 125.808481 
C 268.576938 125.200824 267.752663 124.859398 266.893307 124.859398 
C 266.03395 124.859398 265.209676 125.200824 264.602019 125.808481 
C 263.994362 126.416138 263.652936 127.240412 263.652936 128.099769 
C 263.652936 128.959125 263.994362 129.7834 264.602019 130.391057 
C 265.209676 130.998713 266.03395 131.340139 266.893307 131.340139 
z
" style="fill:#ff0000;stroke:#ff0000;"/>
    <path clip-path="url(#p3d22b70e3b)" d="M 274.112353 142.95977 
C 274.856577 142.95977 275.57042 142.664087 276.096666 142.137841 
C 276.622912 141.611595 276.918596 140.897752 276.918596 140.153527 
C 276.918596 139.409303 276.622912 138.69546 276.096666 138.169214 
C 275.57042 137.642968 274.856577 137.347284 274.112353 137.347284 
C 273.368128 137.347284 272.654285 137.642968 272.128039 138.169214 
C 271.601793 138.69546 271.30611 139.409303 271.30611 140.153527 
C 271.30611 140.897752 271.601793 141.611595 272.128039 142.137841 
C 272.654285 142.664087 273.368128 142.95977 274.112353 142.95977 
z
" style="fill:#ff0000;stroke:#ff0000;"/>
    <path clip-path="url(#p3d22b70e3b)" d="M 281.371286 154.481826 
C 281.956838 154.481826 282.518487 154.249184 282.932535 153.835136 
C 283.346584 153.421087 283.579226 152.859439 283.579226 152.273886 
C 283.579226 151.688333 283.346584 151.126685 282.932535 150.712637 
C 282.518487 150.298588 281.956838 150.065946 281.371286 150.065946 
C 280.785733 150.065946 280.224085 150.298588 279.810036 150.712637 
C 279.395988 151.126685 279.163346 151.688333 279.163346 152.273886 
C 279.163346 152.859439 279.395988 153.421087 279.810036 153.835136 
C 280.224085 154.249184 280.785733 154.481826 281.371286 154.481826 
z
" style="fill:#ff0000;stroke:#ff0000;"/>
    <path clip-path="url(#p3d22b70e3b)" d="M 288.670438 166.697467 
C 289.26345 166.697467 289.832254 166.46186 290.251577 166.042538 
C 290.670899 165.623215 290.906506 165.054411 290.906506 164.461399 
C 290.906506 163.868387 290.670899 163.299583 290.251577 162.88026 
C 289.832254 162.460937 289.26345 162.225331 288.670438 162.225331 
C 288.077426 162.225331 287.508622 162.460937 287.089299 162.88026 
C 286.669976 163.299583 286.43437 163.868387 286.43437 164.461399 
C 286.43437 165.054411 286.669976 165.623215 287.089299 166.042538 
C 287.508622 166.46186 288.077426 166.697467 288.670438 166.697467 
z
" style="fill:#ff0000;stroke:#ff0000;"/>
    <path clip-path="url(#p3d22b70e3b)" d="M 296.010143 178.216625 
C 296.407948 178.216625 296.789513 178.058575 297.070804 177.777285 
C 297.352094 177.495995 297.510143 177.11443 297.510143 176.716625 
C 297.510143 176.31882 297.352094 175.937255 297.070804 175.655965 
C 296.789513 175.374674 296.407948 175.216625 296.010143 175.216625 
C 295.612339 175.216625 295.230774 175.374674 294.949483 175.655965 
C 294.668193 175.937255 294.510143 176.31882 294.510143 176.716625 
C 294.510143 177.11443 294.668193 177.495995 294.949483 177.777285 
C 295.230774 178.058575 295.612339 178.216625 296.010143 178.216625 
z
" style="fill:#ff0000;stroke:#ff0000;"/>
    <path clip-path="url(#p3d22b70e3b)" d="M 303.390742 190.409437 
C 303.753886 190.409437 304.102206 190.265158 304.358988 190.008376 
C 304.61577 189.751595 304.760048 189.403275 304.760048 189.04013 
C 304.760048 188.676986 304.61577 188.328666 304.358988 188.071885 
C 304.102206 187.815103 303.753886 187.670824 303.390742 187.670824 
C 303.027598 187.670824 302.679278 187.815103 302.422496 188.071885 
C 302.165714 188.328666 302.021436 188.676986 302.021436 189.04013 
C 302.021436 189.403275 302.165714 189.751595 302.422496 190.008376 
C 302.679278 190.265158 303.027598 190.409437 303.390742 190.409437 
z
" style="fill:#ff0000;stroke:#ff0000;"/>
    <path clip-path="url(#p3d22b70e3b)" d="M 310.812576 202.04486 
C 310.974979 202.04486 311.130753 201.980337 311.245589 201.8655 
C 311.360425 201.750664 311.424949 201.594891 311.424949 201.432488 
C 311.424949 201.270085 311.360425 201.114311 311.245589 200.999475 
C 311.130753 200.884639 310.974979 200.820115 310.812576 200.820115 
C 310.650173 200.820115 310.4944 200.884639 310.379563 200.999475 
C 310.264727 201.114311 310.200204 201.270085 310.200204 201.432488 
C 310.200204 201.594891 310.264727 201.750664 310.379563 201.8655 
C 310.4944 201.980337 310.650173 202.04486 310.812576 202.04486 
z
" style="fill:#ff0000;stroke:#ff0000;"/>
    <path clip-path="url(#p3d22b70e3b)" d="M 318.275992 214.506648 
C 318.438395 214.506648 318.594169 214.442124 318.709005 214.327288 
C 318.823841 214.212452 318.888365 214.056678 318.888365 213.894275 
C 318.888365 213.731872 318.823841 213.576099 318.709005 213.461263 
C 318.594169 213.346426 318.438395 213.281903 318.275992 213.281903 
C 318.113589 213.281903 317.957816 213.346426 317.84298 213.461263 
C 317.728143 213.576099 317.66362 213.731872 317.66362 213.894275 
C 317.66362 214.056678 317.728143 214.212452 317.84298 214.327288 
C 317.957816 214.442124 318.113589 214.506648 318.275992 214.506648 
z
" style="fill:#ff0000;stroke:#ff0000;"/>
    <path clip-path="url(#p3d22b70e3b)" d="M 207.466343 57.491365 
C 207.747633 57.491365 208.017441 57.379607 208.216343 57.180705 
C 208.415245 56.981803 208.527003 56.711995 208.527003 56.430705 
C 208.527003 56.149415 208.415245 55.879607 208.216343 55.680705 
C 208.017441 55.481803 207.747633 55.370045 207.466343 55.370045 
C 207.185053 55.370045 206.915245 55.481803 206.716343 55.680705 
C 206.517441 55.879607 206.405683 56.149415 206.405683 56.430705 
C 206.405683 56.711995 206.517441 56.981803 206.716343 57.180705 
C 206.915245 57.379607 207.185053 57.491365 207.466343 57.491365 
z
" style="fill:#ff0000;stroke:#ff0000;"/>
    <path clip-path="url(#p3d22b70e3b)" d="M 197.459219 69.435916 
C 198.013931 69.435916 198.545998 69.215527 198.938239 68.823286 
C 199.330479 68.431045 199.550869 67.898978 199.550869 67.344266 
C 199.550869 66.789554 199.330479 66.257487 198.938239 65.865246 
C 198.545998 65.473005 198.013931 65.252616 197.459219 65.252616 
C 196.904507 65.252616 196.372439 65.473005 195.980199 65.865246 
C 195.587958 66.257487 195.367569 66.789554 195.367569 67.344266 
C 195.367569 67.898978 195.587958 68.431045 195.980199 68.823286 
C 196.372439 69.215527 196.904507 69.435916 197.459219 69.435916 
z
" style="fill:#ff0000;stroke:#ff0000;"/>
    <path clip-path="url(#p3d22b70e3b)" d="M 187.428275 81.504828 
C 188.282501 81.504828 189.101855 81.165441 189.705884 80.561412 
C 190.309913 79.957383 190.6493 79.138029 190.6493 78.283804 
C 190.6493 77.429578 190.309913 76.610224 189.705884 76.006195 
C 189.101855 75.402167 188.282501 75.062779 187.428275 75.062779 
C 186.57405 75.062779 185.754696 75.402167 185.150667 76.006195 
C 184.546638 76.610224 184.207251 77.429578 184.207251 78.283804 
C 184.207251 79.138029 184.546638 79.957383 185.150667 80.561412 
C 185.754696 81.165441 186.57405 81.504828 187.428275 81.504828 
z
" style="fill:#ff0000;stroke:#ff0000;"/>
    <path clip-path="url(#p3d22b70e3b)" d="M 177.373428 94.032193 
C 178.641836 94.032193 179.858465 93.528249 180.755365 92.631348 
C 181.652265 91.734448 182.156209 90.51782 182.156209 89.249411 
C 182.156209 87.981003 181.652265 86.764374 180.755365 85.867474 
C 179.858465 84.970574 178.641836 84.46663 177.373428 84.46663 
C 176.105019 84.46663 174.888391 84.970574 173.99149 85.867474 
C 173.09459 86.764374 172.590646 87.981003 172.590646 89.249411 
C 172.590646 90.51782 173.09459 91.734448 173.99149 92.631348 
C 174.888391 93.528249 176.105019 94.032193 177.373428 94.032193 
z
" style="fill:#ff0000;stroke:#ff0000;"/>
    <path clip-path="url(#p3d22b70e3b)" d="M 167.29459 106.893249 
C 169.058739 106.893249 170.75087 106.192345 171.998312 104.944903 
C 173.245754 103.697462 173.946657 102.00533 173.946657 100.241182 
C 173.946657 98.477033 173.245754 96.784901 171.998312 95.53746 
C 170.75087 94.290018 169.058739 93.589114 167.29459 93.589114 
C 165.530441 93.589114 163.83831 94.290018 162.590868 95.53746 
C 161.343426 96.784901 160.642523 98.477033 160.642523 100.241182 
C 160.642523 102.00533 161.343426 103.697462 162.590868 104.944903 
C 163.83831 106.192345 165.530441 106.893249 167.29459 106.893249 
z
" style="fill:#ff0000;stroke:#ff0000;"/>
    <path clip-path="url(#p3d22b70e3b)" d="M 157.191676 118.980931 
C 159.239501 118.980931 161.203728 118.167322 162.651759 116.719291 
C 164.09979 115.27126 164.913399 113.307033 164.913399 111.259209 
C 164.913399 109.211384 164.09979 107.247157 162.651759 105.799126 
C 161.203728 104.351095 159.239501 103.537486 157.191676 103.537486 
C 155.143852 103.537486 153.179625 104.351095 151.731594 105.799126 
C 150.283563 107.247157 149.469954 109.211384 149.469954 111.259209 
C 149.469954 113.307033 150.283563 115.27126 151.731594 116.719291 
C 153.179625 118.167322 155.143852 118.980931 157.191676 118.980931 
z
" style="fill:#ff0000;stroke:#ff0000;"/>
    <path clip-path="url(#p3d22b70e3b)" d="M 147.064601 129.471222 
C 148.96548 129.471222 150.78876 128.715995 152.132884 127.37187 
C 153.477009 126.027746 154.232236 124.204466 154.232236 122.303586 
C 154.232236 120.402707 153.477009 118.579427 152.132884 117.235303 
C 150.78876 115.891178 148.96548 115.135951 147.064601 115.135951 
C 145.163721 115.135951 143.340441 115.891178 141.996317 117.235303 
C 140.652192 118.579427 139.896965 120.402707 139.896965 122.303586 
C 139.896965 124.204466 140.652192 126.027746 141.996317 127.37187 
C 143.340441 128.715995 145.163721 129.471222 147.064601 129.471222 
z
" style="fill:#ff0000;stroke:#ff0000;"/>
    <path clip-path="url(#p3d22b70e3b)" d="M 136.913276 138.473429 
C 138.265552 138.473429 139.562624 137.936164 140.518827 136.979961 
C 141.47503 136.023758 142.012295 134.726686 142.012295 133.37441 
C 142.012295 132.022134 141.47503 130.725062 140.518827 129.768858 
C 139.562624 128.812655 138.265552 128.27539 136.913276 128.27539 
C 135.561 128.27539 134.263928 128.812655 133.307725 129.768858 
C 132.351521 130.725062 131.814256 132.022134 131.814256 133.37441 
C 131.814256 134.726686 132.351521 136.023758 133.307725 136.979961 
C 134.263928 137.936164 135.561 138.473429 136.913276 138.473429 
z
" style="fill:#ff0000;stroke:#ff0000;"/>
    <path clip-path="url(#p3d22b70e3b)" d="M 126.737615 148.128958 
C 127.707511 148.128958 128.637814 147.743614 129.323635 147.057794 
C 130.009455 146.371973 130.394799 145.44167 130.394799 144.471774 
C 130.394799 143.501877 130.009455 142.571574 129.323635 141.885754 
C 128.637814 141.199933 127.707511 140.814589 126.737615 140.814589 
C 125.767718 140.814589 124.837415 141.199933 124.151595 141.885754 
C 123.465774 142.571574 123.08043 143.501877 123.08043 144.471774 
C 123.08043 145.44167 123.465774 146.371973 124.151595 147.057794 
C 124.837415 147.743614 125.767718 148.128958 126.737615 148.128958 
z
" style="fill:#ff0000;stroke:#ff0000;"/>
    <path clip-path="url(#p3d22b70e3b)" d="M 116.53753 158.311469 
C 117.257741 158.311469 117.94855 158.025326 118.457816 157.51606 
C 118.967082 157.006794 119.253225 156.315985 119.253225 155.595774 
C 119.253225 154.875563 118.967082 154.184753 118.457816 153.675487 
C 117.94855 153.166221 117.257741 152.880079 116.53753 152.880079 
C 115.817319 152.880079 115.126509 153.166221 114.617243 153.675487 
C 114.107977 154.184753 113.821835 154.875563 113.821835 155.595774 
C 113.821835 156.315985 114.107977 157.006794 114.617243 157.51606 
C 115.126509 158.025326 115.817319 158.311469 116.53753 158.311469 
z
" style="fill:#ff0000;stroke:#ff0000;"/>
    <path clip-path="url(#p3d22b70e3b)" d="M 106.312933 168.682998 
C 106.826497 168.682998 107.319095 168.478957 107.682239 168.115812 
C 108.045384 167.752668 108.249425 167.26007 108.249425 166.746506 
C 108.249425 166.232942 108.045384 165.740344 107.682239 165.3772 
C 107.319095 165.014055 106.826497 164.810014 106.312933 164.810014 
C 105.799369 164.810014 105.306771 165.014055 104.943627 165.3772 
C 104.580482 165.740344 104.376441 166.232942 104.376441 166.746506 
C 104.376441 167.26007 104.580482 167.752668 104.943627 168.115812 
C 105.306771 168.478957 105.799369 168.682998 106.312933 168.682998 
z
" style="fill:#ff0000;stroke:#ff0000;"/>
    <path clip-path="url(#p3d22b70e3b)" d="M 96.063736 179.544252 
C 96.493414 179.544252 96.905551 179.373539 97.20938 179.069711 
C 97.513208 178.765883 97.683921 178.353745 97.683921 177.924067 
C 97.683921 177.494389 97.513208 177.082251 97.20938 176.778423 
C 96.905551 176.474595 96.493414 176.303882 96.063736 176.303882 
C 95.634058 176.303882 95.22192 176.474595 94.918092 176.778423 
C 94.614263 177.082251 94.443551 177.494389 94.443551 177.924067 
C 94.443551 178.353745 94.614263 178.765883 94.918092 179.069711 
C 95.22192 179.373539 95.634058 179.544252 96.063736 179.544252 
z
" style="fill:#ff0000;stroke:#ff0000;"/>
    <path clip-path="url(#p3d22b70e3b)" d="M 85.789849 189.628553 
C 85.922451 189.628553 86.049639 189.57587 86.143403 189.482107 
C 86.237166 189.388343 86.289849 189.261155 86.289849 189.128553 
C 86.289849 188.995952 86.237166 188.868763 86.143403 188.775 
C 86.049639 188.681237 85.922451 188.628553 85.789849 188.628553 
C 85.657248 188.628553 85.530059 188.681237 85.436296 188.775 
C 85.342532 188.868763 85.289849 188.995952 85.289849 189.128553 
C 85.289849 189.261155 85.342532 189.388343 85.436296 189.482107 
C 85.530059 189.57587 85.657248 189.628553 85.789849 189.628553 
z
" style="fill:#ff0000;stroke:#ff0000;"/>
    <path clip-path="url(#p3d22b70e3b)" d="M 75.491184 201.226088 
C 75.720857 201.226088 75.941154 201.134838 76.103557 200.972435 
C 76.26596 200.810032 76.35721 200.589736 76.35721 200.360063 
C 76.35721 200.13039 76.26596 199.910094 76.103557 199.74769 
C 75.941154 199.585287 75.720857 199.494037 75.491184 199.494037 
C 75.261512 199.494037 75.041215 199.585287 74.878812 199.74769 
C 74.716409 199.910094 74.625159 200.13039 74.625159 200.360063 
C 74.625159 200.589736 74.716409 200.810032 74.878812 200.972435 
C 75.041215 201.134838 75.261512 201.226088 75.491184 201.226088 
z
" style="fill:#ff0000;stroke:#ff0000;"/>
    <path clip-path="url(#p3d22b70e3b)" d="M 308.024995 225.770763 
C 308.118758 225.770763 308.208694 225.73351 308.274995 225.667209 
C 308.341296 225.600908 308.378548 225.510973 308.378548 225.417209 
C 308.378548 225.323446 308.341296 225.23351 308.274995 225.167209 
C 308.208694 225.100908 308.118758 225.063656 308.024995 225.063656 
C 307.931231 225.063656 307.841296 225.100908 307.774995 225.167209 
C 307.708694 225.23351 307.671441 225.323446 307.671441 225.417209 
C 307.671441 225.510973 307.708694 225.600908 307.774995 225.667209 
C 307.841296 225.73351 307.931231 225.770763 308.024995 225.770763 
z
" style="fill:#ff0000;stroke:#ff0000;"/>
    <path clip-path="url(#p3d22b70e3b)" d="M 290.324347 225.023877 
C 290.48675 225.023877 290.642524 224.959354 290.75736 224.844518 
C 290.872196 224.729681 290.93672 224.573908 290.93672 224.411505 
C 290.93672 224.249102 290.872196 224.093329 290.75736 223.978492 
C 290.642524 223.863656 290.48675 223.799133 290.324347 223.799133 
C 290.161944 223.799133 290.006171 223.863656 289.891334 223.978492 
C 289.776498 224.093329 289.711975 224.249102 289.711975 224.411505 
C 289.711975 224.573908 289.776498 224.729681 289.891334 224.844518 
C 290.006171 224.959354 290.161944 225.023877 290.324347 225.023877 
z
" style="fill:#ff0000;stroke:#ff0000;"/>
    <path clip-path="url(#p3d22b70e3b)" d="M 272.679137 224.526984 
C 272.975643 224.526984 273.260045 224.409181 273.469706 224.19952 
C 273.679367 223.989858 273.797171 223.705457 273.797171 223.40895 
C 273.797171 223.112444 273.679367 222.828042 273.469706 222.618381 
C 273.260045 222.40872 272.975643 222.290916 272.679137 222.290916 
C 272.382631 222.290916 272.098229 222.40872 271.888567 222.618381 
C 271.678906 222.828042 271.561103 223.112444 271.561103 223.40895 
C 271.561103 223.705457 271.678906 223.989858 271.888567 224.19952 
C 272.098229 224.409181 272.382631 224.526984 272.679137 224.526984 
z
" style="fill:#ff0000;stroke:#ff0000;"/>
    <path clip-path="url(#p3d22b70e3b)" d="M 255.089103 224.177298 
C 255.55792 224.177298 256.007599 223.991035 256.339103 223.659531 
C 256.670607 223.328027 256.85687 222.878348 256.85687 222.409531 
C 256.85687 221.940714 256.670607 221.491035 256.339103 221.159531 
C 256.007599 220.828027 255.55792 220.641764 255.089103 220.641764 
C 254.620286 220.641764 254.170607 220.828027 253.839103 221.159531 
C 253.507599 221.491035 253.321336 221.940714 253.321336 222.409531 
C 253.321336 222.878348 253.507599 223.328027 253.839103 223.659531 
C 254.170607 223.991035 254.620286 224.177298 255.089103 224.177298 
z
" style="fill:#ff0000;stroke:#ff0000;"/>
    <path clip-path="url(#p3d22b70e3b)" d="M 237.553988 222.782538 
C 237.917133 222.782538 238.265452 222.638259 238.522234 222.381478 
C 238.779016 222.124696 238.923295 221.776376 238.923295 221.413232 
C 238.923295 221.050088 238.779016 220.701768 238.522234 220.444986 
C 238.265452 220.188204 237.917133 220.043925 237.553988 220.043925 
C 237.190844 220.043925 236.842524 220.188204 236.585742 220.444986 
C 236.328961 220.701768 236.184682 221.050088 236.184682 221.413232 
C 236.184682 221.776376 236.328961 222.124696 236.585742 222.381478 
C 236.842524 222.638259 237.190844 222.782538 237.553988 222.782538 
z
" style="fill:#ff0000;stroke:#ff0000;"/>
    <path clip-path="url(#p3d22b70e3b)" d="M 220.073535 222.683885 
C 220.673914 222.683885 221.249784 222.445352 221.674316 222.02082 
C 222.098848 221.596287 222.337381 221.020417 222.337381 220.420038 
C 222.337381 219.819659 222.098848 219.243789 221.674316 218.819257 
C 221.249784 218.394725 220.673914 218.156192 220.073535 218.156192 
C 219.473156 218.156192 218.897286 218.394725 218.472754 218.819257 
C 218.048222 219.243789 217.809689 219.819659 217.809689 220.420038 
C 217.809689 221.020417 218.048222 221.596287 218.472754 222.02082 
C 218.897286 222.445352 219.473156 222.683885 220.073535 222.683885 
z
" style="fill:#ff0000;stroke:#ff0000;"/>
    <path clip-path="url(#p3d22b70e3b)" d="M 202.647489 221.693783 
C 203.247868 221.693783 203.823738 221.455249 204.24827 221.030717 
C 204.672802 220.606185 204.911335 220.030315 204.911335 219.429936 
C 204.911335 218.829557 204.672802 218.253687 204.24827 217.829155 
C 203.823738 217.404623 203.247868 217.16609 202.647489 217.16609 
C 202.04711 217.16609 201.47124 217.404623 201.046708 217.829155 
C 200.622176 218.253687 200.383642 218.829557 200.383642 219.429936 
C 200.383642 220.030315 200.622176 220.606185 201.046708 221.030717 
C 201.47124 221.455249 202.04711 221.693783 202.647489 221.693783 
z
" style="fill:#ff0000;stroke:#ff0000;"/>
    <path clip-path="url(#p3d22b70e3b)" d="M 185.275595 220.706757 
C 185.875974 220.706757 186.451844 220.468224 186.876376 220.043692 
C 187.300909 219.61916 187.539442 219.04329 187.539442 218.442911 
C 187.539442 217.842532 187.300909 217.266662 186.876376 216.84213 
C 186.451844 216.417598 185.875974 216.179065 185.275595 216.179065 
C 184.675216 216.179065 184.099346 216.417598 183.674814 216.84213 
C 183.250282 217.266662 183.011749 217.842532 183.011749 218.442911 
C 183.011749 219.04329 183.250282 219.61916 183.674814 220.043692 
C 184.099346 220.468224 184.675216 220.706757 185.275595 220.706757 
z
" style="fill:#ff0000;stroke:#ff0000;"/>
    <path clip-path="url(#p3d22b70e3b)" d="M 167.957603 219.666888 
C 168.543156 219.666888 169.104804 219.434246 169.518853 219.020198 
C 169.932901 218.606149 170.165543 218.044501 170.165543 217.458948 
C 170.165543 216.873396 169.932901 216.311747 169.518853 215.897699 
C 169.104804 215.48365 168.543156 215.251008 167.957603 215.251008 
C 167.37205 215.251008 166.810402 215.48365 166.396354 215.897699 
C 165.982305 216.311747 165.749663 216.873396 165.749663 217.458948 
C 165.749663 218.044501 165.982305 218.606149 166.396354 219.020198 
C 166.810402 219.434246 167.37205 219.666888 167.957603 219.666888 
z
" style="fill:#ff0000;stroke:#ff0000;"/>
    <path clip-path="url(#p3d22b70e3b)" d="M 150.693261 218.849742 
C 151.322246 218.849742 151.925553 218.599844 152.370312 218.155085 
C 152.815071 217.710325 153.064969 217.107018 153.064969 216.478034 
C 153.064969 215.849049 152.815071 215.245742 152.370312 214.800983 
C 151.925553 214.356224 151.322246 214.106325 150.693261 214.106325 
C 150.064277 214.106325 149.460969 214.356224 149.01621 214.800983 
C 148.571451 215.245742 148.321553 215.849049 148.321553 216.478034 
C 148.321553 217.107018 148.571451 217.710325 149.01621 218.155085 
C 149.460969 218.599844 150.064277 218.849742 150.693261 218.849742 
z
" style="fill:#ff0000;stroke:#ff0000;"/>
    <path clip-path="url(#p3d22b70e3b)" d="M 133.482321 217.370982 
C 133.978471 217.370982 134.454366 217.17386 134.805197 216.823029 
C 135.156027 216.472198 135.35315 215.996303 135.35315 215.500153 
C 135.35315 215.004004 135.156027 214.528108 134.805197 214.177278 
C 134.454366 213.826447 133.978471 213.629325 133.482321 213.629325 
C 132.986171 213.629325 132.510276 213.826447 132.159445 214.177278 
C 131.808615 214.528108 131.611492 215.004004 131.611492 215.500153 
C 131.611492 215.996303 131.808615 216.472198 132.159445 216.823029 
C 132.510276 217.17386 132.986171 217.370982 133.482321 217.370982 
z
" style="fill:#ff0000;stroke:#ff0000;"/>
    <path clip-path="url(#p3d22b70e3b)" d="M 116.324535 216.066396 
C 116.73324 216.066396 117.125261 215.904016 117.41426 215.615018 
C 117.703258 215.326019 117.865638 214.933998 117.865638 214.525293 
C 117.865638 214.116588 117.703258 213.724567 117.41426 213.435568 
C 117.125261 213.14657 116.73324 212.984189 116.324535 212.984189 
C 115.915829 212.984189 115.523809 213.14657 115.23481 213.435568 
C 114.945812 213.724567 114.783431 214.116588 114.783431 214.525293 
C 114.783431 214.933998 114.945812 215.326019 115.23481 215.615018 
C 115.523809 215.904016 115.915829 216.066396 116.324535 216.066396 
z
" style="fill:#ff0000;stroke:#ff0000;"/>
    <path clip-path="url(#p3d22b70e3b)" d="M 99.219657 214.488853 
C 99.467732 214.488853 99.70568 214.390292 99.881095 214.214877 
C 100.05651 214.039461 100.155072 213.801514 100.155072 213.553439 
C 100.155072 213.305364 100.05651 213.067416 99.881095 212.892001 
C 99.70568 212.716586 99.467732 212.618024 99.219657 212.618024 
C 98.971582 212.618024 98.733635 212.716586 98.558219 212.892001 
C 98.382804 213.067416 98.284243 213.305364 98.284243 213.553439 
C 98.284243 213.801514 98.382804 214.039461 98.558219 214.214877 
C 98.733635 214.390292 98.971582 214.488853 99.219657 214.488853 
z
" style="fill:#ff0000;stroke:#ff0000;"/>
    <path clip-path="url(#p3d22b70e3b)" d="M 82.167443 213.084577 
C 82.300045 213.084577 82.427233 213.031894 82.520997 212.93813 
C 82.61476 212.844367 82.667443 212.717178 82.667443 212.584577 
C 82.667443 212.451975 82.61476 212.324787 82.520997 212.231023 
C 82.427233 212.13726 82.300045 212.084577 82.167443 212.084577 
C 82.034842 212.084577 81.907654 212.13726 81.81389 212.231023 
C 81.720127 212.324787 81.667443 212.451975 81.667443 212.584577 
C 81.667443 212.717178 81.720127 212.844367 81.81389 212.93813 
C 81.907654 213.031894 82.034842 213.084577 82.167443 213.084577 
z
" style="fill:#ff0000;stroke:#ff0000;"/>
   </g>
   <g id="legend_1">
    <g id="patch_6">
     <path d="M 21.2 291.2 
L 294.2 291.2 
Q 297.2 291.2 297.2 288.2 
L 297.2 249.95 
Q 297.2 246.95 294.2 246.95 
L 21.2 246.95 
Q 18.2 246.95 18.2 249.95 
L 18.2 288.2 
Q 18.2 291.2 21.2 291.2 
z
" style="fill:#ffffff;opacity:0.8;stroke:#cccccc;stroke-linejoin:miter;"/>
    </g>
    <g id="Path3DCollection_3">
     <defs>
      <path d="M 0 5.465803 
C 1.449548 5.465803 2.839921 4.889891 3.864906 3.864906 
C 4.889891 2.839921 5.465803 1.449548 5.465803 0 
C 5.465803 -1.449548 4.889891 -2.839921 3.864906 -3.864906 
C 2.839921 -4.889891 1.449548 -5.465803 0 -5.465803 
C -1.449548 -5.465803 -2.839921 -4.889891 -3.864906 -3.864906 
C -4.889891 -2.839921 -5.465803 -1.449548 -5.465803 0 
C -5.465803 1.449548 -4.889891 2.839921 -3.864906 3.864906 
C -2.839921 4.889891 -1.449548 5.465803 0 5.465803 
z
" id="m87cc5f7988" style="stroke:#ff0000;"/>
     </defs>
     <g>
      <use style="fill:#ff0000;stroke:#ff0000;" x="39.2" xlink:href="#m87cc5f7988" y="259.5125"/>
     </g>
    </g>
    <g id="text_28">
     <!-- probability of absorbing state -->
     <defs>
      <path d="M 44.140625 23.828125 
Q 44.140625 12.5 38.671875 6.640625 
Q 33.203125 0.78125 25.390625 0.78125 
Q 21.09375 0.78125 17.96875 2.53125 
Q 14.84375 4.296875 12.5 7.8125 
L 12.5 -12.5 
L 4.6875 -12.5 
L 4.6875 45.703125 
L 12.5 45.703125 
L 12.5 39.84375 
Q 14.84375 43.359375 17.96875 44.921875 
Q 21.09375 46.484375 25.390625 46.484375 
Q 33.203125 46.484375 38.671875 40.8125 
Q 44.140625 35.15625 44.140625 23.828125 
z
M 35.546875 23.828125 
Q 35.546875 31.25 32.609375 35.34375 
Q 29.6875 39.453125 23.828125 39.453125 
Q 19.140625 39.453125 15.8125 35.34375 
Q 12.5 31.25 12.5 23.828125 
Q 12.5 16.40625 15.8125 12.109375 
Q 19.140625 7.8125 23.828125 7.8125 
Q 29.6875 7.8125 32.609375 12.109375 
Q 35.546875 16.40625 35.546875 23.828125 
z
" id="SimHei-70"/>
      <path d="M 39.0625 37.890625 
Q 31.640625 39.0625 26.5625 35.734375 
Q 21.484375 32.421875 17.96875 24.21875 
L 17.96875 1.953125 
L 10.15625 1.953125 
L 10.15625 45.703125 
L 17.96875 45.703125 
L 17.96875 34.375 
Q 21.484375 40.625 26.75 43.546875 
Q 32.03125 46.484375 39.0625 46.484375 
z
" id="SimHei-72"/>
      <path d="M 44.140625 23.828125 
Q 44.140625 12.5 38.671875 6.828125 
Q 33.203125 1.171875 25.390625 1.171875 
Q 21.09375 1.171875 17.96875 2.734375 
Q 14.84375 4.296875 12.5 7.8125 
L 12.5 1.953125 
L 4.6875 1.953125 
L 4.6875 68.75 
L 12.5 68.75 
L 12.5 39.84375 
Q 14.84375 43.359375 17.96875 45.109375 
Q 21.09375 46.875 25.390625 46.875 
Q 33.203125 46.875 38.671875 41.015625 
Q 44.140625 35.15625 44.140625 23.828125 
z
M 35.546875 23.828125 
Q 35.546875 31.25 32.609375 35.546875 
Q 29.6875 39.84375 23.828125 39.84375 
Q 19.140625 39.84375 15.8125 35.546875 
Q 12.5 31.25 12.5 23.828125 
Q 12.5 16.40625 15.8125 12.296875 
Q 19.140625 8.203125 23.828125 8.203125 
Q 29.6875 8.203125 32.609375 12.296875 
Q 35.546875 16.40625 35.546875 23.828125 
z
" id="SimHei-62"/>
      <path d="M 44.921875 1.953125 
L 35.546875 1.953125 
Q 34.765625 2.734375 34.375 4.09375 
Q 33.984375 5.46875 33.984375 7.421875 
Q 31.25 4.296875 27.34375 2.734375 
Q 23.4375 1.171875 19.140625 1.171875 
Q 12.890625 1.171875 8.59375 4.296875 
Q 4.296875 7.421875 4.296875 13.28125 
Q 4.296875 19.140625 8.203125 22.65625 
Q 12.109375 26.171875 20.3125 27.34375 
Q 25.78125 28.125 29.875 29.296875 
Q 33.984375 30.46875 33.984375 32.421875 
Q 33.984375 34.765625 32.21875 37.109375 
Q 30.46875 39.453125 24.609375 39.453125 
Q 19.921875 39.453125 17.765625 37.6875 
Q 15.625 35.9375 14.84375 32.8125 
L 6.25 32.8125 
Q 7.03125 39.0625 11.90625 42.765625 
Q 16.796875 46.484375 24.609375 46.484375 
Q 33.203125 46.484375 37.5 42.578125 
Q 41.796875 38.671875 41.796875 31.640625 
L 41.796875 10.15625 
Q 41.796875 7.8125 42.578125 5.859375 
Q 43.359375 3.90625 44.921875 1.953125 
z
M 33.984375 16.40625 
L 33.984375 24.21875 
Q 31.640625 23.4375 29.484375 22.84375 
Q 27.34375 22.265625 22.265625 21.484375 
Q 16.40625 20.703125 14.640625 18.75 
Q 12.890625 16.796875 12.890625 14.0625 
Q 12.890625 11.71875 14.640625 9.953125 
Q 16.40625 8.203125 19.921875 8.203125 
Q 23.4375 8.203125 27.53125 10.15625 
Q 31.640625 12.109375 33.984375 16.40625 
z
" id="SimHei-61"/>
      <path d="M 28.515625 1.953125 
L 20.703125 1.953125 
L 20.703125 68.75 
L 28.515625 68.75 
z
" id="SimHei-6c"/>
      <path d="M 42.96875 3.125 
Q 41.015625 2.34375 38.46875 1.75 
Q 35.9375 1.171875 31.640625 1.171875 
Q 24.609375 1.171875 20.3125 5.078125 
Q 16.015625 8.984375 16.015625 16.015625 
L 16.015625 39.453125 
L 2.734375 39.453125 
L 2.734375 45.703125 
L 16.015625 45.703125 
L 16.015625 60.9375 
L 23.828125 60.9375 
L 23.828125 45.703125 
L 39.84375 45.703125 
L 39.84375 39.453125 
L 23.828125 39.453125 
L 23.828125 15.625 
Q 23.828125 12.5 25.390625 10.34375 
Q 26.953125 8.203125 31.25 8.203125 
Q 35.546875 8.203125 38.28125 8.984375 
Q 41.015625 9.765625 42.96875 10.9375 
z
" id="SimHei-74"/>
      <path d="M 45.3125 45.703125 
L 27.34375 -1.5625 
Q 25.78125 -7.03125 22.65625 -9.765625 
Q 19.53125 -12.5 14.84375 -12.5 
Q 12.890625 -12.5 11.125 -12.296875 
Q 9.375 -12.109375 7.8125 -11.328125 
L 7.8125 -3.515625 
Q 9.375 -4.296875 10.9375 -4.6875 
Q 12.5 -5.078125 13.671875 -5.078125 
Q 16.796875 -5.078125 17.96875 -4.09375 
Q 19.140625 -3.125 20.3125 0.390625 
L 3.125 45.703125 
L 11.71875 45.703125 
L 24.21875 11.328125 
L 24.609375 11.328125 
L 36.71875 45.703125 
z
" id="SimHei-79"/>
      <path d="M 46.484375 39.0625 
Q 43.75 39.84375 41.203125 40.03125 
Q 38.671875 40.234375 35.9375 39.453125 
Q 37.109375 38.28125 37.890625 36.515625 
Q 38.671875 34.765625 38.671875 31.25 
Q 38.671875 24.609375 34.171875 20.3125 
Q 29.6875 16.015625 23.046875 16.015625 
Q 21.484375 16.015625 18.9375 16.59375 
Q 16.40625 17.1875 14.84375 17.96875 
Q 13.671875 17.1875 13.28125 16.40625 
Q 12.890625 15.625 12.890625 14.453125 
Q 12.890625 12.5 15.625 11.515625 
Q 18.359375 10.546875 25.390625 10.546875 
Q 36.71875 10.546875 40.8125 7.421875 
Q 44.921875 4.296875 44.921875 -0.390625 
Q 44.921875 -6.640625 38.859375 -9.5625 
Q 32.8125 -12.5 24.609375 -12.5 
Q 14.0625 -12.5 8.984375 -9.765625 
Q 3.90625 -7.03125 3.90625 -2.34375 
Q 3.90625 0 5.859375 2.34375 
Q 7.8125 4.6875 10.9375 6.25 
Q 8.59375 7.421875 7.21875 9.171875 
Q 5.859375 10.9375 5.859375 13.671875 
Q 5.859375 16.015625 7.609375 17.765625 
Q 9.375 19.53125 11.71875 20.703125 
Q 9.765625 22.65625 8.59375 25.390625 
Q 7.421875 28.125 7.421875 31.25 
Q 7.421875 37.890625 11.90625 42.1875 
Q 16.40625 46.484375 23.046875 46.484375 
Q 26.5625 46.484375 29.09375 45.5 
Q 31.640625 44.53125 33.59375 42.578125 
Q 36.71875 44.921875 39.84375 45.890625 
Q 42.96875 46.875 46.484375 46.484375 
z
M 30.859375 31.25 
Q 30.859375 35.15625 28.90625 37.5 
Q 26.953125 39.84375 23.046875 39.84375 
Q 19.140625 39.84375 17.1875 37.5 
Q 15.234375 35.15625 15.234375 31.25 
Q 15.234375 27.34375 17.1875 25 
Q 19.140625 22.65625 23.046875 22.65625 
Q 26.953125 22.65625 28.90625 25 
Q 30.859375 27.34375 30.859375 31.25 
z
M 37.5 -1.171875 
Q 37.5 0.390625 35.734375 1.953125 
Q 33.984375 3.515625 26.953125 3.515625 
Q 25.390625 3.515625 22.65625 3.703125 
Q 19.921875 3.90625 16.40625 4.296875 
Q 13.28125 3.125 12.109375 1.5625 
Q 10.9375 0 10.9375 -1.5625 
Q 10.9375 -3.90625 14.0625 -5.46875 
Q 17.1875 -7.03125 25 -7.03125 
Q 31.640625 -7.03125 34.5625 -5.265625 
Q 37.5 -3.515625 37.5 -1.171875 
z
" id="SimHei-67"/>
      <path d="M 44.53125 16.796875 
Q 43.75 9.765625 38.28125 5.46875 
Q 32.8125 1.171875 25.390625 1.171875 
Q 16.015625 1.171875 9.953125 7.21875 
Q 3.90625 13.28125 3.90625 23.828125 
Q 3.90625 34.375 9.953125 40.421875 
Q 16.015625 46.484375 25.390625 46.484375 
Q 33.59375 46.484375 38.859375 41.203125 
Q 44.140625 35.9375 44.140625 23.828125 
L 12.5 23.828125 
Q 12.5 15.234375 16.203125 11.71875 
Q 19.921875 8.203125 25.390625 8.203125 
Q 29.6875 8.203125 32.421875 10.34375 
Q 35.15625 12.5 35.9375 16.796875 
z
M 35.15625 30.078125 
Q 34.375 35.546875 31.640625 37.6875 
Q 28.90625 39.84375 24.609375 39.84375 
Q 20.703125 39.84375 17.578125 37.6875 
Q 14.453125 35.546875 12.890625 30.078125 
z
" id="SimHei-65"/>
     </defs>
     <g transform="translate(66.2 263.45)scale(0.15 -0.15)">
      <use xlink:href="#SimHei-70"/>
      <use x="50" xlink:href="#SimHei-72"/>
      <use x="100" xlink:href="#SimHei-6f"/>
      <use x="150" xlink:href="#SimHei-62"/>
      <use x="200" xlink:href="#SimHei-61"/>
      <use x="250" xlink:href="#SimHei-62"/>
      <use x="300" xlink:href="#SimHei-69"/>
      <use x="350" xlink:href="#SimHei-6c"/>
      <use x="400" xlink:href="#SimHei-69"/>
      <use x="450" xlink:href="#SimHei-74"/>
      <use x="500" xlink:href="#SimHei-79"/>
      <use x="550" xlink:href="#SimHei-20"/>
      <use x="600" xlink:href="#SimHei-6f"/>
      <use x="650" xlink:href="#SimHei-66"/>
      <use x="700" xlink:href="#SimHei-20"/>
      <use x="750" xlink:href="#SimHei-61"/>
      <use x="800" xlink:href="#SimHei-62"/>
      <use x="850" xlink:href="#SimHei-73"/>
      <use x="900" xlink:href="#SimHei-6f"/>
      <use x="950" xlink:href="#SimHei-72"/>
      <use x="1000" xlink:href="#SimHei-62"/>
      <use x="1050" xlink:href="#SimHei-69"/>
      <use x="1100" xlink:href="#SimHei-6e"/>
      <use x="1150" xlink:href="#SimHei-67"/>
      <use x="1200" xlink:href="#SimHei-20"/>
      <use x="1250" xlink:href="#SimHei-73"/>
      <use x="1300" xlink:href="#SimHei-74"/>
      <use x="1350" xlink:href="#SimHei-61"/>
      <use x="1400" xlink:href="#SimHei-74"/>
      <use x="1450" xlink:href="#SimHei-65"/>
     </g>
    </g>
    <g id="Path3DCollection_4">
     <g>
      <use style="fill:#008000;stroke:#008000;" x="39.2" xlink:href="#m8df8a41002" y="279.3875"/>
     </g>
    </g>
    <g id="text_29">
     <!-- start state -->
     <g transform="translate(66.2 283.325)scale(0.15 -0.15)">
      <use xlink:href="#SimHei-73"/>
      <use x="50" xlink:href="#SimHei-74"/>
      <use x="100" xlink:href="#SimHei-61"/>
      <use x="150" xlink:href="#SimHei-72"/>
      <use x="200" xlink:href="#SimHei-74"/>
      <use x="250" xlink:href="#SimHei-20"/>
      <use x="300" xlink:href="#SimHei-73"/>
      <use x="350" xlink:href="#SimHei-74"/>
      <use x="400" xlink:href="#SimHei-61"/>
      <use x="450" xlink:href="#SimHei-74"/>
      <use x="500" xlink:href="#SimHei-65"/>
     </g>
    </g>
   </g>
  </g>
 </g>
 <defs>
  <clipPath id="p3d22b70e3b">
   <rect height="288" width="360" x="10.7" y="10.7"/>
  </clipPath>
 </defs>
</svg>
