<?xml version="1.0" encoding="utf-8" standalone="no"?>
<!DOCTYPE svg PUBLIC "-//W3C//DTD SVG 1.1//EN"
  "http://www.w3.org/Graphics/SVG/1.1/DTD/svg11.dtd">
<!-- Created with matplotlib (http://matplotlib.org/) -->
<svg height="309.4pt" version="1.1" viewBox="0 0 381.4 309.4" width="381.4pt" xmlns="http://www.w3.org/2000/svg" xmlns:xlink="http://www.w3.org/1999/xlink">
 <defs>
  <style type="text/css">
*{stroke-linecap:butt;stroke-linejoin:round;}
  </style>
 </defs>
 <g id="figure_1">
  <g id="patch_1">
   <path d="M 0 309.4 
L 381.4 309.4 
L 381.4 0 
L 0 0 
z
" style="fill:none;"/>
  </g>
  <g id="patch_2">
   <path d="M 10.7 298.7 
L 370.7 298.7 
L 370.7 10.7 
L 10.7 10.7 
z
" style="fill:#ffffff;"/>
  </g>
  <g id="pane3d_1">
   <g id="patch_3">
    <path d="M 219.619567 185.462306 
L 335.768129 233.715199 
L 340.919918 79.597002 
L 220.435568 41.545085 
" style="fill:#f2f2f2;opacity:0.5;stroke:#f2f2f2;stroke-linejoin:miter;"/>
   </g>
  </g>
  <g id="pane3d_2">
   <g id="patch_4">
    <path d="M 219.619567 185.462306 
L 58.794045 217.8137 
L 53.895826 67.034254 
L 220.435568 41.545085 
" style="fill:#e6e6e6;opacity:0.5;stroke:#e6e6e6;stroke-linejoin:miter;"/>
   </g>
  </g>
  <g id="pane3d_3">
   <g id="patch_5">
    <path d="M 219.619567 185.462306 
L 58.794045 217.8137 
L 168.062833 271.631196 
L 335.768129 233.715199 
" style="fill:#ececec;opacity:0.5;stroke:#ececec;stroke-linejoin:miter;"/>
   </g>
  </g>
  <g id="axis3d_1">
   <g id="line2d_1">
    <path d="M 335.768129 233.715199 
L 168.062833 271.631196 
" style="fill:none;stroke:#000000;stroke-linecap:square;stroke-width:0.8;"/>
   </g>
   <g id="text_1">
    <!-- coins of 大熊 -->
    <defs>
     <path d="M 44.53125 19.53125 
Q 44.53125 11.328125 38.859375 6.25 
Q 33.203125 1.171875 24.609375 1.171875 
Q 16.015625 1.171875 9.765625 7.21875 
Q 3.515625 13.28125 3.515625 23.828125 
Q 3.515625 34.375 9.765625 40.421875 
Q 16.015625 46.484375 24.609375 46.484375 
Q 33.203125 46.484375 38.28125 41.984375 
Q 43.359375 37.5 43.359375 31.25 
L 34.765625 31.25 
Q 34.375 35.9375 31.4375 37.6875 
Q 28.515625 39.453125 24.609375 39.453125 
Q 19.921875 39.453125 16.015625 35.734375 
Q 12.109375 32.03125 12.109375 23.828125 
Q 12.109375 15.625 16.015625 11.90625 
Q 19.921875 8.203125 24.609375 8.203125 
Q 29.6875 8.203125 32.8125 10.9375 
Q 35.9375 13.671875 35.9375 19.53125 
z
" id="SimHei-63"/>
     <path d="M 45.703125 23.828125 
Q 45.703125 13.671875 39.453125 7.421875 
Q 33.203125 1.171875 24.609375 1.171875 
Q 16.015625 1.171875 9.765625 7.421875 
Q 3.515625 13.671875 3.515625 23.828125 
Q 3.515625 33.984375 9.765625 40.234375 
Q 16.015625 46.484375 24.609375 46.484375 
Q 33.203125 46.484375 39.453125 40.234375 
Q 45.703125 33.984375 45.703125 23.828125 
z
M 37.109375 23.828125 
Q 37.109375 31.640625 33.203125 35.546875 
Q 29.296875 39.453125 24.609375 39.453125 
Q 19.921875 39.453125 16.015625 35.546875 
Q 12.109375 31.640625 12.109375 23.828125 
Q 12.109375 16.015625 16.015625 12.109375 
Q 19.921875 8.203125 24.609375 8.203125 
Q 29.296875 8.203125 33.203125 12.109375 
Q 37.109375 16.015625 37.109375 23.828125 
z
" id="SimHei-6f"/>
     <path d="M 28.125 58.203125 
L 20.3125 58.203125 
L 20.3125 68.359375 
L 28.125 68.359375 
z
M 28.125 1.953125 
L 20.3125 1.953125 
L 20.3125 45.703125 
L 28.125 45.703125 
z
" id="SimHei-69"/>
     <path d="M 43.75 1.953125 
L 35.9375 1.953125 
L 35.9375 30.078125 
Q 35.9375 34.765625 33.59375 37.5 
Q 31.25 40.234375 27.34375 40.234375 
Q 22.265625 40.234375 17.765625 34.953125 
Q 13.28125 29.6875 13.28125 21.875 
L 13.28125 1.953125 
L 5.46875 1.953125 
L 5.46875 45.703125 
L 13.28125 45.703125 
L 13.28125 37.5 
Q 16.40625 41.796875 20.109375 44.140625 
Q 23.828125 46.484375 29.6875 46.484375 
Q 36.71875 46.484375 40.234375 42.578125 
Q 43.75 38.671875 43.75 32.8125 
z
" id="SimHei-6e"/>
     <path d="M 42.96875 14.0625 
Q 42.96875 7.8125 38.078125 4.484375 
Q 33.203125 1.171875 25.78125 1.171875 
Q 16.40625 1.171875 11.328125 4.875 
Q 6.25 8.59375 6.25 15.625 
L 14.0625 15.625 
Q 14.0625 10.9375 17.375 9.375 
Q 20.703125 7.8125 25.390625 7.8125 
Q 30.078125 7.8125 32.421875 9.5625 
Q 34.765625 11.328125 34.765625 14.0625 
Q 34.765625 16.015625 32.8125 17.96875 
Q 30.859375 19.921875 23.046875 21.09375 
Q 14.0625 22.265625 10.734375 25.578125 
Q 7.421875 28.90625 7.421875 34.375 
Q 7.421875 39.0625 11.90625 42.765625 
Q 16.40625 46.484375 25 46.484375 
Q 32.8125 46.484375 37.296875 42.96875 
Q 41.796875 39.453125 41.796875 33.59375 
L 33.984375 33.59375 
Q 33.984375 37.109375 31.4375 38.46875 
Q 28.90625 39.84375 25 39.84375 
Q 19.921875 39.84375 17.765625 38.078125 
Q 15.625 36.328125 15.625 33.984375 
Q 15.625 31.25 17.578125 29.6875 
Q 19.53125 28.125 25.78125 27.34375 
Q 35.9375 25.78125 39.453125 22.453125 
Q 42.96875 19.140625 42.96875 14.0625 
z
" id="SimHei-73"/>
     <path id="SimHei-20"/>
     <path d="M 44.53125 59.765625 
Q 42.578125 60.9375 39.84375 61.71875 
Q 37.109375 62.5 32.8125 62.5 
Q 28.515625 62.5 26.953125 60.34375 
Q 25.390625 58.203125 25.390625 55.078125 
L 25.390625 45.703125 
L 41.40625 45.703125 
L 41.40625 39.453125 
L 25.390625 39.453125 
L 25.390625 1.953125 
L 17.578125 1.953125 
L 17.578125 39.453125 
L 4.296875 39.453125 
L 4.296875 45.703125 
L 17.578125 45.703125 
L 17.578125 54.6875 
Q 17.578125 61.71875 21.875 65.625 
Q 26.171875 69.53125 33.203125 69.53125 
Q 37.5 69.53125 40.03125 68.9375 
Q 42.578125 68.359375 44.53125 67.578125 
z
" id="SimHei-66"/>
     <path d="M 45.3125 53.125 
Q 45.703125 66.796875 45.5 71.484375 
Q 45.3125 76.171875 44.921875 80.46875 
Q 49.609375 79.6875 55.46875 79.296875 
Q 54.296875 75.390625 53.703125 67.96875 
Q 53.125 60.546875 53.125 53.125 
L 73.046875 53.125 
Q 83.59375 53.125 92.578125 53.90625 
L 92.578125 45.3125 
Q 84.765625 45.703125 76.5625 45.703125 
L 53.515625 45.703125 
Q 55.078125 39.0625 58.984375 32.21875 
Q 62.890625 25.390625 66.984375 20.109375 
Q 71.09375 14.84375 78.3125 8.984375 
Q 85.546875 3.125 94.140625 -0.78125 
Q 91.015625 -3.125 87.890625 -8.59375 
Q 80.859375 -4.6875 74.015625 1.171875 
Q 67.1875 7.03125 60.34375 16.59375 
Q 53.515625 26.171875 50 34.375 
Q 46.875 25.78125 43.359375 20.109375 
Q 39.84375 14.453125 35.734375 9.765625 
Q 31.640625 5.078125 25.1875 0.390625 
Q 18.75 -4.296875 10.546875 -8.984375 
Q 7.421875 -4.296875 3.515625 -0.78125 
Q 11.71875 1.953125 19.71875 7.03125 
Q 27.734375 12.109375 32.8125 18.546875 
Q 37.890625 25 41.015625 32.03125 
Q 44.140625 39.0625 44.921875 45.703125 
L 23.4375 45.703125 
Q 14.0625 45.703125 8.59375 45.3125 
L 8.59375 53.90625 
Q 14.0625 53.515625 23.4375 53.125 
z
" id="SimHei-5927"/>
     <path d="M 49.609375 52.34375 
Q 49.21875 46.484375 49.21875 40.625 
L 49.21875 19.53125 
Q 49.21875 15.234375 46.484375 13.859375 
Q 43.75 12.5 34.765625 11.328125 
Q 33.59375 14.84375 31.640625 18.359375 
Q 38.671875 18.75 40.421875 18.9375 
Q 42.1875 19.140625 41.796875 23.4375 
L 18.359375 23.4375 
L 18.359375 12.5 
L 10.15625 12.5 
Q 10.546875 25 10.546875 33.59375 
Q 10.546875 42.1875 10.15625 52.34375 
L 49.609375 52.34375 
z
M 65.625 45.3125 
Q 65.234375 41.015625 65.234375 34.375 
Q 81.640625 38.671875 88.28125 43.359375 
Q 90.234375 39.453125 93.359375 36.71875 
Q 85.9375 34.765625 65.625 28.125 
L 65.625 23.046875 
Q 65.625 19.53125 70.703125 19.53125 
L 80.46875 19.53125 
Q 83.59375 19.53125 85.15625 20.890625 
Q 86.71875 22.265625 88.28125 28.125 
Q 92.1875 26.171875 96.875 25.390625 
Q 93.359375 17.1875 91.40625 15.234375 
Q 89.453125 13.28125 83.984375 13.28125 
L 65.234375 13.28125 
Q 57.03125 13.28125 57.03125 19.53125 
L 57.03125 37.5 
Q 57.03125 40.625 56.640625 45.3125 
L 65.625 45.3125 
z
M 92.578125 69.140625 
Q 78.515625 65.234375 64.84375 61.328125 
Q 64.84375 54.6875 68.359375 54.6875 
L 80.46875 54.6875 
Q 83.203125 54.6875 84.765625 56.4375 
Q 86.328125 58.203125 86.71875 62.5 
Q 90.234375 60.9375 94.921875 59.765625 
Q 92.96875 51.5625 90.421875 50.1875 
Q 87.890625 48.828125 82.8125 48.828125 
L 64.84375 48.828125 
Q 57.03125 48.828125 57.03125 54.296875 
L 57.03125 71.09375 
Q 57.03125 75.78125 56.640625 80.46875 
L 65.625 80.46875 
Q 65.234375 75.390625 65.234375 67.1875 
Q 78.515625 70.3125 86.328125 76.171875 
Q 88.671875 72.65625 92.578125 69.140625 
z
M 32.03125 78.125 
Q 24.609375 71.484375 16.40625 62.890625 
Q 22.65625 63.28125 40.625 65.234375 
Q 38.671875 67.578125 35.546875 70.703125 
Q 39.0625 72.265625 42.96875 74.21875 
Q 51.171875 63.28125 55.078125 58.59375 
Q 51.171875 57.03125 48.046875 54.6875 
L 44.53125 59.765625 
Q 42.578125 59.375 33.203125 58.59375 
Q 23.828125 57.8125 9.375 55.859375 
Q 7.421875 59.375 6.25 62.890625 
Q 10.15625 64.84375 14.640625 69.53125 
Q 19.140625 74.21875 23.4375 82.03125 
Q 27.734375 79.6875 32.03125 78.125 
z
M 41.796875 28.90625 
L 41.796875 35.546875 
L 18.359375 35.546875 
L 18.359375 28.90625 
z
M 20.3125 6.640625 
Q 17.1875 3.125 11.71875 -9.765625 
Q 6.640625 -7.8125 3.90625 -7.03125 
Q 6.640625 -1.5625 11.71875 8.984375 
Q 15.625 7.8125 20.3125 6.640625 
z
M 85.9375 10.15625 
Q 92.578125 -1.953125 94.140625 -5.46875 
Q 89.84375 -6.640625 86.328125 -8.59375 
Q 83.984375 -2.34375 78.515625 7.03125 
Q 81.25 8.203125 85.9375 10.15625 
z
M 41.796875 41.015625 
L 41.796875 46.875 
L 18.359375 46.875 
L 18.359375 41.015625 
z
M 62.890625 8.59375 
Q 65.625 -1.953125 66.40625 -5.859375 
L 58.59375 -7.421875 
Q 57.421875 -3.90625 55.46875 7.421875 
Q 58.59375 8.203125 62.890625 8.59375 
z
M 39.84375 7.421875 
Q 40.234375 3.90625 42.578125 -6.640625 
Q 38.671875 -6.640625 34.375 -7.8125 
Q 33.59375 -3.125 32.03125 6.640625 
Q 35.15625 7.421875 39.84375 7.421875 
z
" id="SimHei-718a"/>
    </defs>
    <g style="fill:#ff0000;" transform="translate(225.772789 298.698192)rotate(-12.739652)scale(0.15 -0.15)">
     <use xlink:href="#SimHei-63"/>
     <use x="50" xlink:href="#SimHei-6f"/>
     <use x="100" xlink:href="#SimHei-69"/>
     <use x="150" xlink:href="#SimHei-6e"/>
     <use x="200" xlink:href="#SimHei-73"/>
     <use x="250" xlink:href="#SimHei-20"/>
     <use x="300" xlink:href="#SimHei-6f"/>
     <use x="350" xlink:href="#SimHei-66"/>
     <use x="400" xlink:href="#SimHei-20"/>
     <use x="450" xlink:href="#SimHei-5927"/>
     <use x="550" xlink:href="#SimHei-718a"/>
    </g>
   </g>
   <g id="Line3DCollection_1">
    <path d="M 313.42555 238.766567 
L 198.113054 189.78852 
L 198.200139 44.948252 
" style="fill:none;stroke:#b0b0b0;stroke-width:0.8;"/>
    <path d="M 289.981096 244.067055 
L 175.572588 194.322723 
L 174.884057 48.516815 
" style="fill:none;stroke:#b0b0b0;stroke-width:0.8;"/>
    <path d="M 266.153852 249.454086 
L 152.692045 198.925335 
L 151.203986 52.141087 
" style="fill:none;stroke:#b0b0b0;stroke-width:0.8;"/>
    <path d="M 241.934367 254.929798 
L 129.46367 203.597916 
L 127.151337 55.822383 
" style="fill:none;stroke:#b0b0b0;stroke-width:0.8;"/>
    <path d="M 217.312875 260.496399 
L 105.879472 208.342073 
L 102.717246 59.562059 
" style="fill:none;stroke:#b0b0b0;stroke-width:0.8;"/>
    <path d="M 192.279282 266.15617 
L 81.931212 213.159466 
L 77.892568 63.361515 
" style="fill:none;stroke:#b0b0b0;stroke-width:0.8;"/>
   </g>
   <g id="xtick_1">
    <g id="line2d_2">
     <path d="M 312.429087 238.343327 
L 315.422351 239.614692 
" style="fill:none;stroke:#000000;stroke-linecap:square;stroke-width:0.8;"/>
    </g>
    <g id="text_2">
     <!-- 2 -->
     <defs>
      <path d="M 4.6875 3.90625 
Q 5.078125 9.765625 10.15625 14.453125 
Q 15.234375 19.140625 23.046875 29.09375 
Q 30.859375 39.0625 33.203125 44.53125 
Q 35.546875 50 34.953125 53.90625 
Q 34.375 57.8125 31.25 60.34375 
Q 28.125 62.890625 24.015625 62.5 
Q 19.921875 62.109375 16.203125 59.375 
Q 12.5 56.640625 10.546875 51.171875 
L 3.125 52.34375 
Q 6.25 61.328125 11.125 65.421875 
Q 16.015625 69.53125 22.65625 69.921875 
Q 26.5625 70.3125 29.6875 69.71875 
Q 32.8125 69.140625 36.125 66.984375 
Q 39.453125 64.84375 41.59375 60.546875 
Q 43.75 56.25 43.15625 50.1875 
Q 42.578125 44.140625 37.109375 35.734375 
Q 31.640625 27.34375 16.015625 9.375 
L 44.140625 9.375 
L 44.140625 2.34375 
L 4.6875 2.34375 
z
" id="SimHei-32"/>
     </defs>
     <g transform="translate(317.907879 262.926499)scale(0.15 -0.15)">
      <use xlink:href="#SimHei-32"/>
     </g>
    </g>
   </g>
   <g id="xtick_2">
    <g id="line2d_3">
     <path d="M 288.99185 243.636935 
L 291.963464 244.92898 
" style="fill:none;stroke:#000000;stroke-linecap:square;stroke-width:0.8;"/>
    </g>
    <g id="text_3">
     <!-- 4 -->
     <defs>
      <path d="M 31.25 17.1875 
L 1.171875 17.1875 
L 1.171875 23.828125 
L 32.8125 69.53125 
L 38.671875 69.53125 
L 38.671875 23.828125 
L 48.046875 23.828125 
L 48.046875 17.1875 
L 38.671875 17.1875 
L 38.671875 2.34375 
L 31.25 2.34375 
z
M 31.25 23.828125 
L 31.25 54.6875 
L 9.375 23.828125 
z
" id="SimHei-34"/>
     </defs>
     <g transform="translate(294.457336 268.355962)scale(0.15 -0.15)">
      <use xlink:href="#SimHei-34"/>
     </g>
    </g>
   </g>
   <g id="xtick_3">
    <g id="line2d_4">
     <path d="M 265.172194 249.016917 
L 268.121047 250.330151 
" style="fill:none;stroke:#000000;stroke-linecap:square;stroke-width:0.8;"/>
    </g>
    <g id="text_4">
     <!-- 6 -->
     <defs>
      <path d="M 3.515625 19.53125 
Q 4.296875 30.859375 6.046875 34.765625 
Q 7.8125 38.671875 11.328125 44.53125 
L 27.34375 69.53125 
L 36.328125 69.53125 
L 19.921875 43.75 
Q 30.46875 46.484375 36.71875 42.96875 
Q 42.96875 39.453125 45.109375 34.953125 
Q 47.265625 30.46875 47.453125 25.1875 
Q 47.65625 19.921875 45.890625 14.84375 
Q 44.140625 9.765625 39.640625 5.65625 
Q 35.15625 1.5625 27.140625 1.171875 
Q 19.140625 0.78125 13.46875 4.09375 
Q 7.8125 7.421875 5.65625 13.46875 
Q 3.515625 19.53125 4.296875 30.859375 
z
M 12.5 16.015625 
Q 19.53125 8.59375 25.390625 8.203125 
Q 31.25 7.8125 35.15625 12.109375 
Q 39.0625 16.40625 39.0625 24.609375 
Q 39.0625 32.8125 34.171875 35.9375 
Q 29.296875 39.0625 23.234375 38.28125 
Q 17.1875 37.5 14.453125 32.421875 
Q 11.71875 27.34375 12.109375 21.671875 
Q 12.5 16.015625 19.53125 8.59375 
z
" id="SimHei-36"/>
     </defs>
     <g transform="translate(270.622703 273.874353)scale(0.15 -0.15)">
      <use xlink:href="#SimHei-36"/>
     </g>
    </g>
   </g>
   <g id="xtick_4">
    <g id="line2d_5">
     <path d="M 240.960681 254.485405 
L 243.885619 255.820354 
" style="fill:none;stroke:#000000;stroke-linecap:square;stroke-width:0.8;"/>
    </g>
    <g id="text_5">
     <!-- 8 -->
     <defs>
      <path d="M 2.734375 16.796875 
Q 2.734375 26.171875 5.078125 30.65625 
Q 7.421875 35.15625 12.890625 37.890625 
Q 8.203125 40.625 6.640625 43.9375 
Q 5.078125 47.265625 4.875 51.5625 
Q 4.6875 55.859375 6.046875 58.984375 
Q 7.421875 62.109375 10.15625 64.84375 
Q 12.890625 67.578125 16.203125 68.546875 
Q 19.53125 69.53125 23.4375 69.53125 
Q 27.34375 69.53125 30.46875 68.75 
Q 33.59375 67.96875 37.109375 65.421875 
Q 40.625 62.890625 42.1875 58.203125 
Q 43.75 53.515625 41.984375 47.265625 
Q 40.234375 41.015625 32.8125 37.5 
Q 39.453125 35.546875 42.1875 31.4375 
Q 44.921875 27.34375 44.921875 21.484375 
Q 44.921875 15.625 43.15625 12.109375 
Q 41.40625 8.59375 39.25 6.25 
Q 37.109375 3.90625 33.390625 2.53125 
Q 29.6875 1.171875 24.015625 1.171875 
Q 18.359375 1.171875 14.25 2.53125 
Q 10.15625 3.90625 7.421875 6.640625 
Q 4.6875 9.375 3.703125 13.078125 
Q 2.734375 16.796875 2.734375 26.171875 
z
M 10.9375 26.5625 
Q 10.546875 17.1875 12.296875 13.671875 
Q 14.0625 10.15625 18.75 9.171875 
Q 23.4375 8.203125 28.515625 9.375 
Q 33.59375 10.546875 35.546875 14.84375 
Q 37.5 19.140625 36.90625 23.4375 
Q 36.328125 27.734375 32.03125 30.65625 
Q 27.734375 33.59375 22.65625 33.203125 
Q 17.578125 32.8125 14.25 29.6875 
Q 10.9375 26.5625 10.546875 17.1875 
z
M 12.109375 56.25 
Q 12.109375 48.4375 14.84375 44.921875 
Q 17.578125 41.40625 23.4375 41.40625 
Q 29.296875 41.40625 32.21875 44.921875 
Q 35.15625 48.4375 34.953125 53.3125 
Q 34.765625 58.203125 31.4375 60.546875 
Q 28.125 62.890625 22.453125 62.5 
Q 16.796875 62.109375 14.453125 59.171875 
Q 12.109375 56.25 12.109375 48.4375 
z
" id="SimHei-38"/>
     </defs>
     <g transform="translate(246.394465 279.483875)scale(0.15 -0.15)">
      <use xlink:href="#SimHei-38"/>
     </g>
    </g>
   </g>
   <g id="xtick_5">
    <g id="line2d_6">
     <path d="M 216.347561 260.044602 
L 219.247379 261.401808 
" style="fill:none;stroke:#000000;stroke-linecap:square;stroke-width:0.8;"/>
    </g>
    <g id="text_6">
     <!-- 10 -->
     <defs>
      <path d="M 21.875 56.25 
Q 16.796875 51.171875 8.984375 46.484375 
L 8.984375 53.90625 
Q 18.75 60.546875 25 69.53125 
L 29.6875 69.53125 
L 29.6875 2.34375 
L 21.875 2.34375 
z
" id="SimHei-31"/>
      <path d="M 3.125 29.296875 
Q 3.90625 50 6.4375 56.046875 
Q 8.984375 62.109375 13.671875 66.015625 
Q 18.359375 69.921875 25.1875 69.921875 
Q 32.03125 69.921875 37.109375 64.25 
Q 42.1875 58.59375 43.75 50 
Q 45.3125 41.40625 44.71875 30.265625 
Q 44.140625 19.140625 40.8125 12.109375 
Q 37.5 5.078125 30.859375 2.34375 
Q 24.21875 -0.390625 17.578125 2.921875 
Q 10.9375 6.25 8.203125 11.71875 
Q 5.46875 17.1875 4.296875 23.234375 
Q 3.125 29.296875 3.90625 50 
z
M 12.890625 52.734375 
Q 10.546875 31.25 12.5 22.84375 
Q 14.453125 14.453125 18.9375 10.9375 
Q 23.4375 7.421875 28.125 9.5625 
Q 32.8125 11.71875 34.953125 18.15625 
Q 37.109375 24.609375 37.109375 32.21875 
Q 37.109375 39.84375 36.515625 46.09375 
Q 35.9375 52.34375 33 57.421875 
Q 30.078125 62.5 25.1875 62.6875 
Q 20.3125 62.890625 16.59375 57.8125 
Q 12.890625 52.734375 10.546875 31.25 
z
" id="SimHei-30"/>
     </defs>
     <g transform="translate(218.012792 285.186803)scale(0.15 -0.15)">
      <use xlink:href="#SimHei-31"/>
      <use x="50" xlink:href="#SimHei-30"/>
     </g>
    </g>
   </g>
   <g id="xtick_6">
    <g id="line2d_7">
     <path d="M 191.322758 265.696782 
L 194.196202 267.076807 
" style="fill:none;stroke:#000000;stroke-linecap:square;stroke-width:0.8;"/>
    </g>
    <g id="text_7">
     <!-- 12 -->
     <g transform="translate(192.967522 290.98549)scale(0.15 -0.15)">
      <use xlink:href="#SimHei-31"/>
      <use x="50" xlink:href="#SimHei-32"/>
     </g>
    </g>
   </g>
  </g>
  <g id="axis3d_2">
   <g id="line2d_8">
    <path d="M 58.794045 217.8137 
L 168.062833 271.631196 
" style="fill:none;stroke:#000000;stroke-linecap:square;stroke-width:0.8;"/>
   </g>
   <g id="text_8">
    <!-- coins of 胖虎 -->
    <defs>
     <path d="M 21.484375 1.953125 
Q 25.78125 1.5625 28.515625 1.75 
Q 31.25 1.953125 31.640625 7.03125 
L 31.640625 26.171875 
L 18.359375 26.171875 
Q 16.796875 14.453125 14.453125 5.859375 
Q 12.109375 -2.734375 10.15625 -7.03125 
Q 6.640625 -3.90625 3.125 -2.734375 
Q 6.640625 2.734375 8.78125 10.34375 
Q 10.9375 17.96875 11.71875 30.859375 
L 11.71875 64.453125 
Q 11.71875 71.09375 11.328125 76.953125 
L 38.671875 76.953125 
Q 38.28125 69.140625 38.28125 61.328125 
L 38.28125 1.953125 
Q 38.28125 -6.25 23.4375 -7.03125 
Q 23.046875 -3.125 21.484375 1.953125 
z
M 64.453125 45.3125 
L 64.453125 69.140625 
Q 64.453125 73.828125 63.671875 79.296875 
L 72.265625 79.296875 
Q 71.875 74.21875 71.875 69.140625 
L 71.875 45.3125 
L 82.421875 45.3125 
Q 85.9375 45.3125 91.796875 45.703125 
L 91.796875 38.671875 
Q 88.28125 39.0625 82.421875 39.0625 
L 71.875 39.0625 
L 71.875 23.4375 
L 84.765625 23.4375 
Q 91.015625 23.4375 96.09375 23.828125 
L 96.09375 16.796875 
Q 90.234375 17.1875 84.765625 17.1875 
L 71.875 17.1875 
L 71.875 3.90625 
Q 71.875 -2.34375 72.265625 -8.984375 
L 64.0625 -8.984375 
Q 64.453125 -2.734375 64.453125 3.90625 
L 64.453125 17.1875 
L 53.90625 17.1875 
Q 48.4375 17.1875 42.578125 16.796875 
L 42.578125 23.828125 
Q 48.046875 23.4375 54.296875 23.4375 
L 64.453125 23.4375 
L 64.453125 39.0625 
L 53.90625 39.0625 
Q 48.4375 39.0625 43.359375 38.671875 
L 43.359375 45.703125 
Q 48.4375 45.3125 53.515625 45.3125 
z
M 31.640625 32.8125 
L 31.640625 48.828125 
L 18.75 48.828125 
L 18.75 32.8125 
z
M 31.640625 55.078125 
L 31.640625 70.703125 
L 18.75 70.703125 
L 18.75 55.078125 
z
M 51.5625 51.953125 
Q 50 58.984375 44.921875 71.09375 
L 51.171875 74.21875 
Q 55.859375 63.28125 58.59375 54.6875 
Q 54.296875 53.515625 51.5625 51.953125 
z
M 77.34375 53.90625 
Q 83.984375 67.96875 84.765625 73.4375 
Q 88.671875 71.875 92.578125 70.703125 
Q 90.625 67.96875 88.671875 62.890625 
Q 86.71875 57.8125 84.375 51.953125 
Q 80.859375 53.90625 77.34375 53.90625 
z
" id="SimHei-80d6"/>
     <path d="M 25.78125 45.703125 
Q 33.203125 46.09375 44.140625 46.875 
L 44.140625 56.640625 
L 20.703125 56.640625 
Q 20.703125 31.640625 20.109375 23.4375 
Q 19.53125 15.234375 17.578125 8 
Q 15.625 0.78125 10.9375 -7.8125 
Q 7.8125 -5.46875 3.125 -3.90625 
Q 7.03125 0.78125 9.171875 6.828125 
Q 11.328125 12.890625 12.109375 18.75 
Q 12.890625 24.609375 13.078125 30.265625 
Q 13.28125 35.9375 13.28125 42.96875 
Q 13.28125 50.390625 12.890625 62.5 
L 44.140625 62.5 
L 44.140625 74.609375 
Q 44.140625 77.34375 43.359375 82.421875 
L 51.953125 82.421875 
Q 51.5625 78.515625 51.5625 75.390625 
L 71.09375 75.390625 
Q 76.171875 75.390625 84.765625 76.171875 
L 84.765625 69.53125 
Q 76.171875 69.921875 70.703125 69.921875 
L 51.171875 69.921875 
L 51.171875 62.5 
L 93.75 62.5 
Q 92.1875 57.8125 89.84375 46.875 
Q 85.15625 48.046875 82.03125 48.4375 
Q 83.984375 52.734375 85.15625 56.640625 
L 51.171875 56.640625 
L 51.171875 47.65625 
Q 65.234375 49.21875 74.21875 50.78125 
L 75 44.140625 
Q 64.0625 42.96875 51.171875 41.40625 
L 51.171875 36.71875 
Q 51.171875 33.203125 57.421875 33.203125 
L 70.3125 33.203125 
Q 75 32.8125 76.359375 34.5625 
Q 77.734375 36.328125 78.515625 41.015625 
Q 81.640625 39.0625 86.71875 37.109375 
Q 84.765625 30.859375 82.03125 29.09375 
Q 79.296875 27.34375 73.828125 27.34375 
L 54.296875 27.34375 
Q 44.140625 27.34375 44.140625 33.59375 
L 44.140625 41.015625 
Q 36.328125 40.234375 27.34375 39.0625 
Q 26.5625 42.578125 25.78125 45.703125 
z
M 71.09375 22.265625 
Q 70.703125 16.796875 70.703125 10.9375 
L 70.703125 2.34375 
Q 70.703125 -1.953125 75 -1.953125 
L 81.25 -1.953125 
Q 85.9375 -1.953125 86.71875 0.78125 
Q 87.5 3.515625 87.5 7.421875 
Q 91.40625 5.078125 96.09375 4.296875 
Q 93.359375 -3.90625 91.59375 -5.859375 
Q 89.84375 -7.8125 85.15625 -7.8125 
L 72.65625 -7.8125 
Q 63.671875 -7.8125 63.671875 -1.171875 
L 63.671875 16.40625 
L 45.3125 16.40625 
Q 45.3125 4.6875 41.203125 -0.578125 
Q 37.109375 -5.859375 26.171875 -10.546875 
Q 25 -6.640625 21.484375 -3.515625 
Q 35.9375 0.78125 37.109375 7.421875 
Q 38.28125 14.0625 37.890625 22.265625 
L 71.09375 22.265625 
z
" id="SimHei-864e"/>
    </defs>
    <g style="fill:#ff0000;" transform="translate(39.895658 254.519072)rotate(-333.778649)scale(0.15 -0.15)">
     <use xlink:href="#SimHei-63"/>
     <use x="50" xlink:href="#SimHei-6f"/>
     <use x="100" xlink:href="#SimHei-69"/>
     <use x="150" xlink:href="#SimHei-6e"/>
     <use x="200" xlink:href="#SimHei-73"/>
     <use x="250" xlink:href="#SimHei-20"/>
     <use x="300" xlink:href="#SimHei-6f"/>
     <use x="350" xlink:href="#SimHei-66"/>
     <use x="400" xlink:href="#SimHei-20"/>
     <use x="450" xlink:href="#SimHei-80d6"/>
     <use x="550" xlink:href="#SimHei-864e"/>
    </g>
   </g>
   <g id="Line3DCollection_2">
    <path d="M 236.562475 46.638358 
L 235.202871 191.936252 
L 73.399469 225.007221 
" style="fill:none;stroke:#b0b0b0;stroke-width:0.8;"/>
    <path d="M 253.14412 51.875249 
L 251.213719 198.587817 
L 88.423255 232.406795 
" style="fill:none;stroke:#b0b0b0;stroke-width:0.8;"/>
    <path d="M 270.105621 57.232108 
L 267.578915 205.386593 
L 103.798058 239.979254 
" style="fill:none;stroke:#b0b0b0;stroke-width:0.8;"/>
    <path d="M 287.460181 62.713104 
L 284.310353 212.337521 
L 119.536327 247.730729 
" style="fill:none;stroke:#b0b0b0;stroke-width:0.8;"/>
    <path d="M 305.221624 68.322604 
L 301.420467 219.445767 
L 135.651104 255.667643 
" style="fill:none;stroke:#b0b0b0;stroke-width:0.8;"/>
    <path d="M 323.404429 74.065181 
L 318.922259 226.716731 
L 152.156063 263.79673 
" style="fill:none;stroke:#b0b0b0;stroke-width:0.8;"/>
   </g>
   <g id="xtick_7">
    <g id="line2d_9">
     <path d="M 74.76374 224.728378 
L 70.66736 225.565636 
" style="fill:none;stroke:#000000;stroke-linecap:square;stroke-width:0.8;"/>
    </g>
    <g id="text_9">
     <!-- 2 -->
     <g transform="translate(58.298915 247.728082)scale(0.15 -0.15)">
      <use xlink:href="#SimHei-32"/>
     </g>
    </g>
   </g>
   <g id="xtick_8">
    <g id="line2d_10">
     <path d="M 89.79666 232.121477 
L 85.672813 232.978187 
" style="fill:none;stroke:#000000;stroke-linecap:square;stroke-width:0.8;"/>
    </g>
    <g id="text_10">
     <!-- 4 -->
     <g transform="translate(73.211627 255.281064)scale(0.15 -0.15)">
      <use xlink:href="#SimHei-34"/>
     </g>
    </g>
   </g>
   <g id="xtick_9">
    <g id="line2d_11">
     <path d="M 105.180654 239.687232 
L 101.029169 240.56408 
" style="fill:none;stroke:#000000;stroke-linecap:square;stroke-width:0.8;"/>
    </g>
    <g id="text_11">
     <!-- 6 -->
     <g transform="translate(88.473235 263.010755)scale(0.15 -0.15)">
      <use xlink:href="#SimHei-36"/>
     </g>
    </g>
   </g>
   <g id="xtick_10">
    <g id="line2d_12">
     <path d="M 120.928167 247.431764 
L 116.74888 248.329468 
" style="fill:none;stroke:#000000;stroke-linecap:square;stroke-width:0.8;"/>
    </g>
    <g id="text_12">
     <!-- 8 -->
     <g transform="translate(104.096128 270.923429)scale(0.15 -0.15)">
      <use xlink:href="#SimHei-38"/>
     </g>
    </g>
   </g>
   <g id="xtick_11">
    <g id="line2d_13">
     <path d="M 137.052237 255.361484 
L 132.845 256.280798 
" style="fill:none;stroke:#000000;stroke-linecap:square;stroke-width:0.8;"/>
    </g>
    <g id="text_13">
     <!-- 10 -->
     <g transform="translate(116.343289 279.025662)scale(0.15 -0.15)">
      <use xlink:href="#SimHei-31"/>
      <use x="50" xlink:href="#SimHei-30"/>
     </g>
    </g>
   </g>
   <g id="xtick_12">
    <g id="line2d_14">
     <path d="M 153.566535 263.483116 
L 149.33121 264.424829 
" style="fill:none;stroke:#000000;stroke-linecap:square;stroke-width:0.8;"/>
    </g>
    <g id="text_14">
     <!-- 12 -->
     <g transform="translate(132.72833 287.324349)scale(0.15 -0.15)">
      <use xlink:href="#SimHei-31"/>
      <use x="50" xlink:href="#SimHei-32"/>
     </g>
    </g>
   </g>
  </g>
  <g id="axis3d_3">
   <g id="line2d_15">
    <path d="M 58.794045 217.8137 
L 53.895826 67.034254 
" style="fill:none;stroke:#000000;stroke-linecap:square;stroke-width:0.8;"/>
   </g>
   <g id="text_15">
    <!-- coins of 静香 -->
    <defs>
     <path d="M 67.578125 78.90625 
Q 65.625 76.5625 64.640625 74.40625 
Q 63.671875 72.265625 62.890625 70.3125 
L 84.375 70.3125 
Q 82.03125 66.796875 80.078125 62.296875 
Q 78.125 57.8125 75.78125 52.734375 
L 90.234375 52.734375 
Q 89.84375 47.265625 89.84375 41.015625 
L 89.84375 36.71875 
Q 93.359375 36.71875 96.875 37.109375 
L 96.875 30.46875 
Q 94.140625 30.859375 89.84375 30.859375 
L 89.84375 25.390625 
Q 89.84375 17.578125 90.234375 10.546875 
L 83.203125 10.546875 
L 83.203125 14.84375 
L 72.265625 14.84375 
L 72.265625 0.390625 
Q 71.875 -4.6875 68.9375 -6.640625 
Q 66.015625 -8.59375 56.25 -9.375 
Q 56.25 -5.46875 53.90625 -1.171875 
Q 58.984375 -1.5625 62.296875 -1.171875 
Q 65.625 -0.78125 65.625 2.734375 
L 65.625 14.84375 
L 60.15625 14.84375 
Q 55.46875 14.84375 50.390625 14.453125 
L 50.390625 20.703125 
Q 55.078125 20.3125 60.15625 20.3125 
L 65.625 20.3125 
L 65.625 30.859375 
L 59.765625 30.859375 
Q 54.6875 30.859375 48.046875 30.46875 
L 48.046875 36.71875 
Q 53.515625 36.328125 60.15625 36.328125 
L 65.625 36.328125 
L 65.625 47.265625 
L 60.15625 47.265625 
Q 57.8125 47.265625 51.953125 46.875 
L 51.953125 51.953125 
Q 50.78125 50.78125 48.828125 48.4375 
Q 46.875 51.5625 44.140625 53.90625 
Q 50.390625 60.15625 53.703125 68.15625 
Q 57.03125 76.171875 58.984375 82.03125 
Q 62.890625 80.078125 67.578125 78.90625 
z
M 42.96875 36.328125 
Q 42.578125 30.859375 42.578125 25 
L 42.578125 1.171875 
Q 42.578125 -4.6875 39.453125 -6.25 
Q 36.328125 -7.8125 30.078125 -8.984375 
Q 29.6875 -5.46875 27.34375 -1.5625 
Q 36.328125 -1.5625 35.546875 1.953125 
L 35.546875 6.640625 
L 15.234375 6.640625 
L 15.234375 -8.203125 
L 8.203125 -8.203125 
Q 8.59375 -3.90625 8.59375 1.953125 
L 8.59375 25 
Q 8.59375 30.859375 8.203125 36.328125 
L 42.96875 36.328125 
z
M 21.875 71.09375 
Q 21.875 74.609375 21.484375 80.46875 
L 29.296875 80.46875 
Q 28.90625 74.609375 28.90625 71.09375 
L 33.984375 71.09375 
Q 39.453125 71.09375 46.875 71.484375 
L 46.875 65.234375 
Q 39.453125 65.625 33.984375 65.625 
L 28.90625 65.625 
L 28.90625 59.375 
L 33.984375 59.375 
Q 36.328125 59.375 42.578125 59.765625 
L 42.578125 53.515625 
Q 35.9375 53.90625 33.59375 53.90625 
L 28.90625 53.90625 
L 28.90625 47.65625 
L 35.15625 47.65625 
Q 40.625 47.65625 46.484375 48.046875 
L 46.484375 41.796875 
Q 40.234375 42.1875 35.15625 42.1875 
L 15.625 42.1875 
Q 9.375 42.1875 3.90625 41.796875 
L 3.90625 48.046875 
Q 9.375 47.65625 15.625 47.65625 
L 21.875 47.65625 
L 21.875 53.90625 
L 15.234375 53.90625 
Q 12.890625 53.90625 8.59375 53.515625 
L 8.59375 59.765625 
Q 12.890625 59.375 15.234375 59.375 
L 21.875 59.375 
L 21.875 65.625 
L 15.234375 65.625 
Q 10.15625 65.625 4.6875 65.234375 
L 4.6875 71.484375 
Q 10.15625 71.09375 15.234375 71.09375 
z
M 52.734375 53.515625 
Q 57.421875 53.125 64.453125 53.125 
L 68.359375 53.125 
Q 72.265625 61.328125 73.4375 64.84375 
L 60.15625 64.84375 
Q 55.078125 56.640625 52.734375 53.515625 
z
M 35.546875 12.109375 
L 35.546875 19.140625 
L 15.234375 19.140625 
L 15.234375 12.109375 
z
M 35.546875 24.609375 
L 35.546875 30.859375 
L 15.234375 30.859375 
L 15.234375 24.609375 
z
M 83.203125 36.328125 
L 83.203125 47.265625 
L 72.265625 47.265625 
L 72.265625 36.328125 
z
M 83.203125 20.3125 
L 83.203125 30.859375 
L 72.265625 30.859375 
L 72.265625 20.3125 
z
" id="SimHei-9759"/>
     <path d="M 45.703125 33.59375 
L 45.703125 53.90625 
Q 36.71875 44.140625 26.359375 38.28125 
Q 16.015625 32.421875 10.546875 30.078125 
Q 10.546875 33.203125 5.46875 36.71875 
Q 16.015625 39.453125 24.21875 44.53125 
Q 32.421875 49.609375 37.109375 54.296875 
L 21.484375 54.296875 
Q 14.84375 54.296875 7.8125 53.90625 
L 7.8125 60.15625 
Q 14.84375 59.765625 21.484375 59.765625 
L 45.703125 59.765625 
L 45.703125 69.921875 
Q 38.28125 69.140625 17.96875 67.578125 
Q 16.796875 71.09375 14.453125 74.609375 
Q 32.8125 74.609375 50.390625 76.953125 
Q 67.96875 79.296875 74.609375 82.03125 
Q 76.953125 78.125 81.25 73.828125 
Q 74.609375 73.4375 67.96875 72.65625 
Q 61.328125 71.875 52.34375 70.703125 
L 52.34375 59.765625 
L 78.125 59.765625 
Q 83.984375 59.765625 91.40625 60.15625 
L 91.40625 53.90625 
Q 84.375 54.296875 78.125 54.296875 
L 61.71875 54.296875 
Q 66.40625 48.4375 74.21875 43.15625 
Q 82.03125 37.890625 94.140625 34.765625 
Q 89.84375 31.640625 88.28125 26.953125 
Q 82.421875 29.296875 77.34375 32.03125 
Q 76.5625 25 76.5625 12.5 
Q 76.5625 -0.78125 76.953125 -8.984375 
L 69.53125 -8.984375 
L 69.53125 -3.125 
L 28.515625 -3.125 
L 28.515625 -9.375 
L 21.875 -9.375 
L 21.875 11.71875 
Q 21.875 25 21.484375 33.59375 
z
M 69.53125 17.96875 
L 69.53125 27.734375 
L 28.515625 27.734375 
L 28.515625 17.96875 
z
M 69.53125 2.734375 
L 69.53125 12.5 
L 28.515625 12.5 
L 28.515625 2.734375 
z
M 71.484375 35.9375 
Q 62.109375 42.578125 52.734375 54.296875 
L 52.34375 54.296875 
L 52.34375 33.59375 
L 75 33.59375 
z
" id="SimHei-9999"/>
    </defs>
    <g style="fill:#ff0000;" transform="translate(9.253153 93.130034)rotate(-271.860655)scale(0.15 -0.15)">
     <use xlink:href="#SimHei-63"/>
     <use x="50" xlink:href="#SimHei-6f"/>
     <use x="100" xlink:href="#SimHei-69"/>
     <use x="150" xlink:href="#SimHei-6e"/>
     <use x="200" xlink:href="#SimHei-73"/>
     <use x="250" xlink:href="#SimHei-20"/>
     <use x="300" xlink:href="#SimHei-6f"/>
     <use x="350" xlink:href="#SimHei-66"/>
     <use x="400" xlink:href="#SimHei-20"/>
     <use x="450" xlink:href="#SimHei-9759"/>
     <use x="550" xlink:href="#SimHei-9999"/>
    </g>
   </g>
   <g id="Line3DCollection_3">
    <path d="M 58.13043 197.385953 
L 219.730294 165.933445 
L 336.465556 212.851342 
" style="fill:none;stroke:#b0b0b0;stroke-width:0.8;"/>
    <path d="M 57.437753 176.063621 
L 219.845812 145.559679 
L 337.193707 191.068379 
" style="fill:none;stroke:#b0b0b0;stroke-width:0.8;"/>
    <path d="M 56.738058 154.525269 
L 219.96244 124.990192 
L 337.929422 169.059106 
" style="fill:none;stroke:#b0b0b0;stroke-width:0.8;"/>
    <path d="M 56.031239 132.767597 
L 220.080193 104.22215 
L 338.672821 146.819976 
" style="fill:none;stroke:#b0b0b0;stroke-width:0.8;"/>
    <path d="M 55.317185 110.787238 
L 220.199089 83.252664 
L 339.424024 124.347371 
" style="fill:none;stroke:#b0b0b0;stroke-width:0.8;"/>
    <path d="M 54.595786 88.580757 
L 220.319143 62.078789 
L 340.183156 101.637595 
" style="fill:none;stroke:#b0b0b0;stroke-width:0.8;"/>
   </g>
   <g id="xtick_13">
    <g id="line2d_16">
     <path d="M 59.492536 197.120844 
L 55.402678 197.916861 
" style="fill:none;stroke:#000000;stroke-linecap:square;stroke-width:0.8;"/>
    </g>
    <g id="text_16">
     <!-- 2 -->
     <g transform="translate(35.909998 206.672164)scale(0.15 -0.15)">
      <use xlink:href="#SimHei-32"/>
     </g>
    </g>
   </g>
   <g id="xtick_14">
    <g id="line2d_17">
     <path d="M 58.807022 175.806441 
L 54.695638 176.578653 
" style="fill:none;stroke:#000000;stroke-linecap:square;stroke-width:0.8;"/>
    </g>
    <g id="text_17">
     <!-- 4 -->
     <g transform="translate(35.125551 185.380534)scale(0.15 -0.15)">
      <use xlink:href="#SimHei-34"/>
     </g>
    </g>
   </g>
   <g id="xtick_15">
    <g id="line2d_18">
     <path d="M 58.114567 154.276193 
L 53.981429 155.024075 
" style="fill:none;stroke:#000000;stroke-linecap:square;stroke-width:0.8;"/>
    </g>
    <g id="text_18">
     <!-- 6 -->
     <g transform="translate(34.33317 163.87356)scale(0.15 -0.15)">
      <use xlink:href="#SimHei-36"/>
     </g>
    </g>
   </g>
   <g id="xtick_16">
    <g id="line2d_19">
     <path d="M 57.415063 132.526804 
L 53.259941 133.249819 
" style="fill:none;stroke:#000000;stroke-linecap:square;stroke-width:0.8;"/>
    </g>
    <g id="text_19">
     <!-- 8 -->
     <g transform="translate(33.532734 142.147959)scale(0.15 -0.15)">
      <use xlink:href="#SimHei-38"/>
     </g>
    </g>
   </g>
   <g id="xtick_17">
    <g id="line2d_20">
     <path d="M 56.708403 110.554911 
L 52.531062 111.252509 
" style="fill:none;stroke:#000000;stroke-linecap:square;stroke-width:0.8;"/>
    </g>
    <g id="text_20">
     <!-- 10 -->
     <g transform="translate(28.97412 120.200378)scale(0.15 -0.15)">
      <use xlink:href="#SimHei-31"/>
      <use x="50" xlink:href="#SimHei-30"/>
     </g>
    </g>
   </g>
   <g id="xtick_18">
    <g id="line2d_21">
     <path d="M 55.994476 88.357082 
L 51.794678 89.028701 
" style="fill:none;stroke:#000000;stroke-linecap:square;stroke-width:0.8;"/>
    </g>
    <g id="text_21">
     <!-- 12 -->
     <g transform="translate(28.157201 98.027399)scale(0.15 -0.15)">
      <use xlink:href="#SimHei-31"/>
      <use x="50" xlink:href="#SimHei-32"/>
     </g>
    </g>
   </g>
  </g>
  <g id="axes_1">
   <g id="Path3DCollection_1">
    <defs>
     <path d="M 0 1.118034 
C 0.296506 1.118034 0.580908 1.000231 0.790569 0.790569 
C 1.000231 0.580908 1.118034 0.296506 1.118034 0 
C 1.118034 -0.296506 1.000231 -0.580908 0.790569 -0.790569 
C 0.580908 -1.000231 0.296506 -1.118034 0 -1.118034 
C -0.296506 -1.118034 -0.580908 -1.000231 -0.790569 -0.790569 
C -1.000231 -0.580908 -1.118034 -0.296506 -1.118034 0 
C -1.118034 0.296506 -1.000231 0.580908 -0.790569 0.790569 
C -0.580908 1.000231 -0.296506 1.118034 0 1.118034 
z
" id="C0_0_a726f6707a"/>
    </defs>
    <g clip-path="url(#pe52c074eb0)">
     <use style="fill:#31678e;fill-opacity:0.630894;stroke:#31678e;stroke-opacity:0.630894;" x="204.110135" xlink:href="#C0_0_a726f6707a" y="161.186113"/>
    </g>
    <g clip-path="url(#pe52c074eb0)">
     <use style="fill:#3a548c;fill-opacity:0.604905;stroke:#3a548c;stroke-opacity:0.604905;" x="213.735958" xlink:href="#C0_0_a726f6707a" y="149.095866"/>
    </g>
    <g clip-path="url(#pe52c074eb0)">
     <use style="fill:#3a548c;fill-opacity:0.666416;stroke:#3a548c;stroke-opacity:0.666416;" x="222.093194" xlink:href="#C0_0_a726f6707a" y="163.961621"/>
    </g>
    <g clip-path="url(#pe52c074eb0)">
     <use style="fill:#306a8e;fill-opacity:0.568456;stroke:#306a8e;stroke-opacity:0.568456;" x="193.468081" xlink:href="#C0_0_a726f6707a" y="147.049466"/>
    </g>
    <g clip-path="url(#pe52c074eb0)">
     <use style="fill:#31678e;fill-opacity:0.691317;stroke:#31678e;stroke-opacity:0.691317;" x="212.394454" xlink:href="#C0_0_a726f6707a" y="175.755896"/>
    </g>
    <g clip-path="url(#pe52c074eb0)">
     <use style="fill:#297b8e;fill-opacity:0.596772;stroke:#297b8e;stroke-opacity:0.596772;" x="184.010754" xlink:href="#C0_0_a726f6707a" y="159.767387"/>
    </g>
    <g clip-path="url(#pe52c074eb0)">
     <use style="fill:#287c8e;fill-opacity:0.654799;stroke:#287c8e;stroke-opacity:0.654799;" x="191.815782" xlink:href="#C0_0_a726f6707a" y="173.825931"/>
    </g>
    <g clip-path="url(#pe52c074eb0)">
     <use style="fill:#433d84;fill-opacity:0.633556;stroke:#433d84;stroke-opacity:0.633556;" x="233.232542" xlink:href="#C0_0_a726f6707a" y="149.1303"/>
    </g>
    <g clip-path="url(#pe52c074eb0)">
     <use style="fill:#3b518b;fill-opacity:0.550516;stroke:#3b518b;stroke-opacity:0.550516;" x="208.009836" xlink:href="#C0_0_a726f6707a" y="135.216801"/>
    </g>
    <g clip-path="url(#pe52c074eb0)">
     <use style="fill:#3b528b;fill-opacity:0.726613;stroke:#3b528b;stroke-opacity:0.726613;" x="232.220234" xlink:href="#C0_0_a726f6707a" y="177.649628"/>
    </g>
    <g clip-path="url(#pe52c074eb0)">
     <use style="fill:#277e8e;fill-opacity:0.541559;stroke:#277e8e;stroke-opacity:0.541559;" x="174.688516" xlink:href="#C0_0_a726f6707a" y="147.227423"/>
    </g>
    <g clip-path="url(#pe52c074eb0)">
     <use style="fill:#297a8e;fill-opacity:0.714711;stroke:#297a8e;stroke-opacity:0.714711;" x="201.304697" xlink:href="#C0_0_a726f6707a" y="187.709803"/>
    </g>
    <g clip-path="url(#pe52c074eb0)">
     <use style="fill:#218e8d;fill-opacity:0.618069;stroke:#218e8d;stroke-opacity:0.618069;" x="172.476648" xlink:href="#C0_0_a726f6707a" y="171.28473"/>
    </g>
    <g clip-path="url(#pe52c074eb0)">
     <use style="fill:#443a83;fill-opacity:0.574228;stroke:#443a83;stroke-opacity:0.574228;" x="225.77767" xlink:href="#C0_0_a726f6707a" y="134.524611"/>
    </g>
    <g clip-path="url(#pe52c074eb0)">
     <use style="fill:#443b84;fill-opacity:0.690644;stroke:#443b84;stroke-opacity:0.690644;" x="241.578299" xlink:href="#C0_0_a726f6707a" y="162.666859"/>
    </g>
    <g clip-path="url(#pe52c074eb0)">
     <use style="fill:#31678e;fill-opacity:0.516044;stroke:#31678e;stroke-opacity:0.516044;" x="188.35857" xlink:href="#C0_0_a726f6707a" y="133.494465"/>
    </g>
    <g clip-path="url(#pe52c074eb0)">
     <use style="fill:#31688e;fill-opacity:0.741744;stroke:#31688e;stroke-opacity:0.741744;" x="219.075197" xlink:href="#C0_0_a726f6707a" y="188.018281"/>
    </g>
    <g clip-path="url(#pe52c074eb0)">
     <use style="fill:#20928c;fill-opacity:0.563973;stroke:#20928c;stroke-opacity:0.563973;" x="162.834577" xlink:href="#C0_0_a726f6707a" y="159.223225"/>
    </g>
    <g clip-path="url(#pe52c074eb0)">
     <use style="fill:#21918c;fill-opacity:0.681439;stroke:#21918c;stroke-opacity:0.681439;" x="179.590152" xlink:href="#C0_0_a726f6707a" y="187.26059"/>
    </g>
    <g clip-path="url(#pe52c074eb0)">
     <use style="fill:#481d6f;fill-opacity:0.608456;stroke:#481d6f;stroke-opacity:0.608456;" x="247.311593" xlink:href="#C0_0_a726f6707a" y="135.341832"/>
    </g>
    <g clip-path="url(#pe52c074eb0)">
     <use style="fill:#481f70;fill-opacity:0.67628;stroke:#481f70;stroke-opacity:0.67628;" x="256.238298" xlink:href="#C0_0_a726f6707a" y="151.860764"/>
    </g>
    <g clip-path="url(#pe52c074eb0)">
     <use style="fill:#443a83;fill-opacity:0.518983;stroke:#443a83;stroke-opacity:0.518983;" x="218.062942" xlink:href="#C0_0_a726f6707a" y="121.265359"/>
    </g>
    <g clip-path="url(#pe52c074eb0)">
     <use style="fill:#443a83;fill-opacity:0.759858;stroke:#443a83;stroke-opacity:0.759858;" x="251.943028" xlink:href="#C0_0_a726f6707a" y="178.970204"/>
    </g>
    <g clip-path="url(#pe52c074eb0)">
     <use style="fill:#3a548c;fill-opacity:0.492313;stroke:#3a548c;stroke-opacity:0.492313;" x="197.927675" xlink:href="#C0_0_a726f6707a" y="122.110448"/>
    </g>
    <g clip-path="url(#pe52c074eb0)">
     <use style="fill:#3b528b;fill-opacity:0.787485;stroke:#3b528b;stroke-opacity:0.787485;" x="240.501494" xlink:href="#C0_0_a726f6707a" y="192.356163"/>
    </g>
    <g clip-path="url(#pe52c074eb0)">
     <use style="fill:#287d8e;fill-opacity:0.479521;stroke:#287d8e;stroke-opacity:0.479521;" x="166.392758" xlink:href="#C0_0_a726f6707a" y="132.175338"/>
    </g>
    <g clip-path="url(#pe52c074eb0)">
     <use style="fill:#287d8e;fill-opacity:0.772843;stroke:#287d8e;stroke-opacity:0.772843;" x="206.964535" xlink:href="#C0_0_a726f6707a" y="202.747296"/>
    </g>
    <g clip-path="url(#pe52c074eb0)">
     <use style="fill:#218f8d;fill-opacity:0.509608;stroke:#218f8d;stroke-opacity:0.509608;" x="157.073778" xlink:href="#C0_0_a726f6707a" y="145.366546"/>
    </g>
    <g clip-path="url(#pe52c074eb0)">
     <use style="fill:#218e8d;fill-opacity:0.739841;stroke:#218e8d;stroke-opacity:0.739841;" x="189.423745" xlink:href="#C0_0_a726f6707a" y="200.536651"/>
    </g>
    <g clip-path="url(#pe52c074eb0)">
     <use style="fill:#20a386;fill-opacity:0.585401;stroke:#20a386;stroke-opacity:0.585401;" x="151.432088" xlink:href="#C0_0_a726f6707a" y="170.721903"/>
    </g>
    <g clip-path="url(#pe52c074eb0)">
     <use style="fill:#20a486;fill-opacity:0.645224;stroke:#20a486;stroke-opacity:0.645224;" x="159.220844" xlink:href="#C0_0_a726f6707a" y="185.329694"/>
    </g>
    <g clip-path="url(#pe52c074eb0)">
     <use style="fill:#481d6f;fill-opacity:0.557501;stroke:#481d6f;stroke-opacity:0.557501;" x="240.251753" xlink:href="#C0_0_a726f6707a" y="123.087655"/>
    </g>
    <g clip-path="url(#pe52c074eb0)">
     <use style="fill:#482071;fill-opacity:0.728165;stroke:#482071;stroke-opacity:0.728165;" x="262.896475" xlink:href="#C0_0_a726f6707a" y="164.572835"/>
    </g>
    <g clip-path="url(#pe52c074eb0)">
     <use style="fill:#31688e;fill-opacity:0.455222;stroke:#31688e;stroke-opacity:0.455222;" x="178.926134" xlink:href="#C0_0_a726f6707a" y="119.311084"/>
    </g>
    <g clip-path="url(#pe52c074eb0)">
     <use style="fill:#31668e;fill-opacity:0.807808;stroke:#31668e;stroke-opacity:0.807808;" x="229.413788" xlink:href="#C0_0_a726f6707a" y="203.382712"/>
    </g>
    <g clip-path="url(#pe52c074eb0)">
     <use style="fill:#21a685;fill-opacity:0.537816;stroke:#21a685;stroke-opacity:0.537816;" x="143.30755" xlink:href="#C0_0_a726f6707a" y="159.954499"/>
    </g>
    <g clip-path="url(#pe52c074eb0)">
     <use style="fill:#20a386;fill-opacity:0.702445;stroke:#20a386;stroke-opacity:0.702445;" x="167.581517" xlink:href="#C0_0_a726f6707a" y="198.899839"/>
    </g>
    <g clip-path="url(#pe52c074eb0)">
     <use style="fill:#440154;fill-opacity:0.647238;stroke:#440154;stroke-opacity:0.647238;" x="267.533781" xlink:href="#C0_0_a726f6707a" y="138.112093"/>
    </g>
    <g clip-path="url(#pe52c074eb0)">
     <use style="fill:#443a83;fill-opacity:0.463728;stroke:#443a83;stroke-opacity:0.463728;" x="210.43767" xlink:href="#C0_0_a726f6707a" y="107.963511"/>
    </g>
    <g clip-path="url(#pe52c074eb0)">
     <use style="fill:#443983;fill-opacity:0.815882;stroke:#443983;stroke-opacity:0.815882;" x="260.500672" xlink:href="#C0_0_a726f6707a" y="192.092307"/>
    </g>
    <g clip-path="url(#pe52c074eb0)">
     <use style="fill:#20928c;fill-opacity:0.446913;stroke:#20928c;stroke-opacity:0.446913;" x="146.106904" xlink:href="#C0_0_a726f6707a" y="131.295691"/>
    </g>
    <g clip-path="url(#pe52c074eb0)">
     <use style="fill:#20928c;fill-opacity:0.794452;stroke:#20928c;stroke-opacity:0.794452;" x="194.258734" xlink:href="#C0_0_a726f6707a" y="214.876112"/>
    </g>
    <g clip-path="url(#pe52c074eb0)">
     <use style="fill:#35b779;fill-opacity:0.61078;stroke:#35b779;stroke-opacity:0.61078;" x="139.1629" xlink:href="#C0_0_a726f6707a" y="183.795518"/>
    </g>
    <g clip-path="url(#pe52c074eb0)">
     <use style="fill:#440154;fill-opacity:0.589092;stroke:#440154;stroke-opacity:0.589092;" x="259.546208" xlink:href="#C0_0_a726f6707a" y="124.098181"/>
    </g>
    <g clip-path="url(#pe52c074eb0)">
     <use style="fill:#440154;fill-opacity:0.703114;stroke:#440154;stroke-opacity:0.703114;" x="275.648148" xlink:href="#C0_0_a726f6707a" y="151.3853"/>
    </g>
    <g clip-path="url(#pe52c074eb0)">
     <use style="fill:#481d6f;fill-opacity:0.497658;stroke:#481d6f;stroke-opacity:0.497658;" x="231.737748" xlink:href="#C0_0_a726f6707a" y="108.794144"/>
    </g>
    <g clip-path="url(#pe52c074eb0)">
     <use style="fill:#482173;fill-opacity:0.789528;stroke:#482173;stroke-opacity:0.789528;" x="271.203118" xlink:href="#C0_0_a726f6707a" y="179.416487"/>
    </g>
    <g clip-path="url(#pe52c074eb0)">
     <use style="fill:#3b528b;fill-opacity:0.429616;stroke:#3b528b;stroke-opacity:0.429616;" x="190.423995" xlink:href="#C0_0_a726f6707a" y="106.509821"/>
    </g>
    <g clip-path="url(#pe52c074eb0)">
     <use style="fill:#3b528b;fill-opacity:0.84204;stroke:#3b528b;stroke-opacity:0.84204;" x="248.192045" xlink:href="#C0_0_a726f6707a" y="205.418239"/>
    </g>
    <g clip-path="url(#pe52c074eb0)">
     <use style="fill:#287d8e;fill-opacity:0.42523;stroke:#287d8e;stroke-opacity:0.42523;" x="158.934013" xlink:href="#C0_0_a726f6707a" y="119.090944"/>
    </g>
    <g clip-path="url(#pe52c074eb0)">
     <use style="fill:#287d8e;fill-opacity:0.834091;stroke:#287d8e;stroke-opacity:0.834091;" x="215.513881" xlink:href="#C0_0_a726f6707a" y="217.449013"/>
    </g>
    <g clip-path="url(#pe52c074eb0)">
     <use style="fill:#20a386;fill-opacity:0.474709;stroke:#20a386;stroke-opacity:0.474709;" x="136.2138" xlink:href="#C0_0_a726f6707a" y="144.049146"/>
    </g>
    <g clip-path="url(#pe52c074eb0)">
     <use style="fill:#20a386;fill-opacity:0.771306;stroke:#20a386;stroke-opacity:0.771306;" x="176.76861" xlink:href="#C0_0_a726f6707a" y="215.616387"/>
    </g>
    <g clip-path="url(#pe52c074eb0)">
     <use style="fill:#35b779;fill-opacity:0.559247;stroke:#35b779;stroke-opacity:0.559247;" x="132.422255" xlink:href="#C0_0_a726f6707a" y="171.225697"/>
    </g>
    <g clip-path="url(#pe52c074eb0)">
     <use style="fill:#38b977;fill-opacity:0.677447;stroke:#38b977;stroke-opacity:0.677447;" x="146.977419" xlink:href="#C0_0_a726f6707a" y="200.45625"/>
    </g>
    <g clip-path="url(#pe52c074eb0)">
     <use style="fill:#440256;fill-opacity:0.526685;stroke:#440256;stroke-opacity:0.526685;" x="249.753102" xlink:href="#C0_0_a726f6707a" y="109.596202"/>
    </g>
    <g clip-path="url(#pe52c074eb0)">
     <use style="fill:#440256;fill-opacity:0.758069;stroke:#440256;stroke-opacity:0.758069;" x="282.420946" xlink:href="#C0_0_a726f6707a" y="164.973231"/>
    </g>
    <g clip-path="url(#pe52c074eb0)">
     <use style="fill:#31688e;fill-opacity:0.400372;stroke:#31688e;stroke-opacity:0.400372;" x="171.721213" xlink:href="#C0_0_a726f6707a" y="105.945955"/>
    </g>
    <g clip-path="url(#pe52c074eb0)">
     <use style="fill:#306a8e;fill-opacity:0.866805;stroke:#306a8e;stroke-opacity:0.866805;" x="234.820202" xlink:href="#C0_0_a726f6707a" y="218.793347"/>
    </g>
    <g clip-path="url(#pe52c074eb0)">
     <use style="fill:#37b878;fill-opacity:0.499256;stroke:#37b878;stroke-opacity:0.499256;" x="123.438363" xlink:href="#C0_0_a726f6707a" y="157.095138"/>
    </g>
    <g clip-path="url(#pe52c074eb0)">
     <use style="fill:#35b779;fill-opacity:0.732961;stroke:#35b779;stroke-opacity:0.732961;" x="156.151914" xlink:href="#C0_0_a726f6707a" y="213.152137"/>
    </g>
    <g clip-path="url(#pe52c074eb0)">
     <use style="fill:#481c6e;fill-opacity:0.442054;stroke:#481c6e;stroke-opacity:0.442054;" x="224.483473" xlink:href="#C0_0_a726f6707a" y="95.223166"/>
    </g>
    <g clip-path="url(#pe52c074eb0)">
     <use style="fill:#482173;fill-opacity:0.848958;stroke:#482173;stroke-opacity:0.848958;" x="279.606315" xlink:href="#C0_0_a726f6707a" y="193.634317"/>
    </g>
    <g clip-path="url(#pe52c074eb0)">
     <use style="fill:#443b84;fill-opacity:0.405884;stroke:#443b84;stroke-opacity:0.405884;" x="201.764156" xlink:href="#C0_0_a726f6707a" y="94.343489"/>
    </g>
    <g clip-path="url(#pe52c074eb0)">
     <use style="fill:#443a83;fill-opacity:0.879594;stroke:#443a83;stroke-opacity:0.879594;" x="268.952495" xlink:href="#C0_0_a726f6707a" y="207.580488"/>
    </g>
    <g clip-path="url(#pe52c074eb0)">
     <use style="fill:#5ec962;fill-opacity:0.582742;stroke:#5ec962;stroke-opacity:0.582742;" x="119.251333" xlink:href="#C0_0_a726f6707a" y="184.12909"/>
    </g>
    <g clip-path="url(#pe52c074eb0)">
     <use style="fill:#5cc863;fill-opacity:0.641069;stroke:#5cc863;stroke-opacity:0.641069;" x="128.32216" xlink:href="#C0_0_a726f6707a" y="197.719419"/>
    </g>
    <g clip-path="url(#pe52c074eb0)">
     <use style="fill:#440256;fill-opacity:0.472581;stroke:#440256;stroke-opacity:0.472581;" x="241.960942" xlink:href="#C0_0_a726f6707a" y="96.715294"/>
    </g>
    <g clip-path="url(#pe52c074eb0)">
     <use style="fill:#440256;fill-opacity:0.821143;stroke:#440256;stroke-opacity:0.821143;" x="291.766147" xlink:href="#C0_0_a726f6707a" y="179.874413"/>
    </g>
    <g clip-path="url(#pe52c074eb0)">
     <use style="fill:#3b528b;fill-opacity:0.374867;stroke:#3b528b;stroke-opacity:0.374867;" x="183.116504" xlink:href="#C0_0_a726f6707a" y="93.220427"/>
    </g>
    <g clip-path="url(#pe52c074eb0)">
     <use style="fill:#3b528b;fill-opacity:0.901066;stroke:#3b528b;stroke-opacity:0.901066;" x="256.384117" xlink:href="#C0_0_a726f6707a" y="219.607269"/>
    </g>
    <g clip-path="url(#pe52c074eb0)">
     <use style="fill:#5ac864;fill-opacity:0.526317;stroke:#5ac864;stroke-opacity:0.526317;" x="113.43753" xlink:href="#C0_0_a726f6707a" y="169.674542"/>
    </g>
    <g clip-path="url(#pe52c074eb0)">
     <use style="fill:#5cc863;fill-opacity:0.703217;stroke:#5cc863;stroke-opacity:0.703217;" x="136.739818" xlink:href="#C0_0_a726f6707a" y="212.750498"/>
    </g>
    <g clip-path="url(#pe52c074eb0)">
     <use style="fill:#482071;fill-opacity:0.384778;stroke:#482071;stroke-opacity:0.384778;" x="214.33176" xlink:href="#C0_0_a726f6707a" y="82.427204"/>
    </g>
    <g clip-path="url(#pe52c074eb0)">
     <use style="fill:#482071;fill-opacity:0.908329;stroke:#482071;stroke-opacity:0.908329;" x="288.671366" xlink:href="#C0_0_a726f6707a" y="207.542136"/>
    </g>
    <g clip-path="url(#pe52c074eb0)">
     <use style="fill:#93d741;fill-opacity:0.609749;stroke:#93d741;stroke-opacity:0.609749;" x="107.419433" xlink:href="#C0_0_a726f6707a" y="197.500627"/>
    </g>
    <g clip-path="url(#pe52c074eb0)">
     <use style="fill:#440154;fill-opacity:0.411502;stroke:#440154;stroke-opacity:0.411502;" x="233.584892" xlink:href="#C0_0_a726f6707a" y="81.987993"/>
    </g>
    <g clip-path="url(#pe52c074eb0)">
     <use style="fill:#450457;fill-opacity:0.879811;stroke:#450457;stroke-opacity:0.879811;" x="299.354642" xlink:href="#C0_0_a726f6707a" y="194.221976"/>
    </g>
    <g clip-path="url(#pe52c074eb0)">
     <use style="fill:#443b84;fill-opacity:0.352122;stroke:#443b84;stroke-opacity:0.352122;" x="193.925845" xlink:href="#C0_0_a726f6707a" y="81.586128"/>
    </g>
    <g clip-path="url(#pe52c074eb0)">
     <use style="fill:#443a83;fill-opacity:0.931491;stroke:#443a83;stroke-opacity:0.931491;" x="276.335057" xlink:href="#C0_0_a726f6707a" y="219.976287"/>
    </g>
    <g clip-path="url(#pe52c074eb0)">
     <use style="fill:#90d743;fill-opacity:0.553942;stroke:#90d743;stroke-opacity:0.553942;" x="100.520413" xlink:href="#C0_0_a726f6707a" y="183.711477"/>
    </g>
    <g clip-path="url(#pe52c074eb0)">
     <use style="fill:#8ed645;fill-opacity:0.671304;stroke:#8ed645;stroke-opacity:0.671304;" x="116.763027" xlink:href="#C0_0_a726f6707a" y="211.943987"/>
    </g>
    <g clip-path="url(#pe52c074eb0)">
     <use style="fill:#440256;fill-opacity:0.357472;stroke:#440256;stroke-opacity:0.357472;" x="225.313912" xlink:href="#C0_0_a726f6707a" y="69.340839"/>
    </g>
    <g clip-path="url(#pe52c074eb0)">
     <use style="fill:#450457;fill-opacity:0.939815;stroke:#450457;stroke-opacity:0.939815;" x="307.857324" xlink:href="#C0_0_a726f6707a" y="208.56906"/>
    </g>
    <g clip-path="url(#pe52c074eb0)">
     <use style="fill:#482071;fill-opacity:0.323894;stroke:#482071;stroke-opacity:0.323894;" x="205.962266" xlink:href="#C0_0_a726f6707a" y="67.756012"/>
    </g>
    <g clip-path="url(#pe52c074eb0)">
     <use style="fill:#482071;fill-opacity:0.965676;stroke:#482071;stroke-opacity:0.965676;" x="296.505021" xlink:href="#C0_0_a726f6707a" y="221.382867"/>
    </g>
    <g clip-path="url(#pe52c074eb0)">
     <use style="fill:#c8e020;fill-opacity:0.578403;stroke:#c8e020;stroke-opacity:0.578403;" x="88.923107" xlink:href="#C0_0_a726f6707a" y="196.211293"/>
    </g>
    <g clip-path="url(#pe52c074eb0)">
     <use style="fill:#c8e020;fill-opacity:0.635027;stroke:#c8e020;stroke-opacity:0.635027;" x="96.227974" xlink:href="#C0_0_a726f6707a" y="210.067625"/>
    </g>
    <g clip-path="url(#pe52c074eb0)">
     <use style="fill:#440154;fill-opacity:0.3;stroke:#440154;stroke-opacity:0.3;" x="218.124275" xlink:href="#C0_0_a726f6707a" y="55.177849"/>
    </g>
    <g clip-path="url(#pe52c074eb0)">
     <use style="fill:#440154;stroke:#440154;" x="317.628161" xlink:href="#C0_0_a726f6707a" y="222.410621"/>
    </g>
    <g clip-path="url(#pe52c074eb0)">
     <use style="fill:#fde725;fill-opacity:0.60201;stroke:#fde725;stroke-opacity:0.60201;" x="76.196735" xlink:href="#C0_0_a726f6707a" y="208.952001"/>
    </g>
   </g>
   <g id="Path3DCollection_2">
    <path clip-path="url(#pe52c074eb0)" d="M 203.207052 163.782965 
L 205.44312 159.310829 
L 200.970984 159.310829 
z
" style="fill:#31688e;fill-opacity:0.629892;stroke:#31688e;stroke-opacity:0.629892;"/>
    <path clip-path="url(#pe52c074eb0)" d="M 214.962957 150.834654 
L 217.199025 146.362518 
L 212.726889 146.362518 
z
" style="fill:#3b518b;fill-opacity:0.604175;stroke:#3b518b;stroke-opacity:0.604175;"/>
    <path clip-path="url(#pe52c074eb0)" d="M 223.118347 164.804498 
L 225.354415 160.332362 
L 220.882279 160.332362 
z
" style="fill:#3b518b;fill-opacity:0.662424;stroke:#3b518b;stroke-opacity:0.662424;"/>
    <path clip-path="url(#pe52c074eb0)" d="M 195.128879 149.840942 
L 197.364947 145.368806 
L 192.892811 145.368806 
z
" style="fill:#31688e;fill-opacity:0.571849;stroke:#31688e;stroke-opacity:0.571849;"/>
    <path clip-path="url(#pe52c074eb0)" d="M 211.336552 177.813574 
L 213.57262 173.341438 
L 209.100484 173.341438 
z
" style="fill:#31688e;fill-opacity:0.688304;stroke:#31688e;stroke-opacity:0.688304;"/>
    <path clip-path="url(#pe52c074eb0)" d="M 183.365968 162.765034 
L 185.602036 158.292898 
L 181.1299 158.292898 
z
" style="fill:#287c8e;fill-opacity:0.597475;stroke:#287c8e;stroke-opacity:0.597475;"/>
    <path clip-path="url(#pe52c074eb0)" d="M 191.418167 176.767598 
L 193.654235 172.295463 
L 189.182099 172.295463 
z
" style="fill:#287c8e;fill-opacity:0.655681;stroke:#287c8e;stroke-opacity:0.655681;"/>
    <path clip-path="url(#pe52c074eb0)" d="M 234.867124 151.831878 
L 237.103192 147.359742 
L 232.631056 147.359742 
z
" style="fill:#443983;fill-opacity:0.636616;stroke:#443983;stroke-opacity:0.636616;"/>
    <path clip-path="url(#pe52c074eb0)" d="M 206.858987 136.952889 
L 209.095055 132.480753 
L 204.62292 132.480753 
z
" style="fill:#3b518b;fill-opacity:0.546294;stroke:#3b518b;stroke-opacity:0.546294;"/>
    <path clip-path="url(#pe52c074eb0)" d="M 231.325646 178.863262 
L 233.561714 174.391126 
L 229.089578 174.391126 
z
" style="fill:#3b518b;fill-opacity:0.721043;stroke:#3b518b;stroke-opacity:0.721043;"/>
    <path clip-path="url(#pe52c074eb0)" d="M 175.364518 148.850722 
L 177.600586 144.378586 
L 173.12845 144.378586 
z
" style="fill:#287c8e;fill-opacity:0.539636;stroke:#287c8e;stroke-opacity:0.539636;"/>
    <path clip-path="url(#pe52c074eb0)" d="M 199.521602 190.859259 
L 201.75767 186.387123 
L 197.285534 186.387123 
z
" style="fill:#287c8e;fill-opacity:0.714258;stroke:#287c8e;stroke-opacity:0.714258;"/>
    <path clip-path="url(#pe52c074eb0)" d="M 171.570117 175.725317 
L 173.806185 171.253181 
L 169.334049 171.253181 
z
" style="fill:#21908d;fill-opacity:0.623174;stroke:#21908d;stroke-opacity:0.623174;"/>
    <path clip-path="url(#pe52c074eb0)" d="M 226.686023 137.922514 
L 228.922091 133.450378 
L 224.449955 133.450378 
z
" style="fill:#443983;fill-opacity:0.57853;stroke:#443983;stroke-opacity:0.57853;"/>
    <path clip-path="url(#pe52c074eb0)" d="M 243.100226 165.829652 
L 245.336294 161.357516 
L 240.864158 161.357516 
z
" style="fill:#443983;fill-opacity:0.695071;stroke:#443983;stroke-opacity:0.695071;"/>
    <path clip-path="url(#pe52c074eb0)" d="M 187.101549 135.986668 
L 189.337617 131.514532 
L 184.865481 131.514532 
z
" style="fill:#31688e;fill-opacity:0.514171;stroke:#31688e;stroke-opacity:0.514171;"/>
    <path clip-path="url(#pe52c074eb0)" d="M 219.517871 191.933615 
L 221.753939 187.461479 
L 217.281803 187.461479 
z
" style="fill:#31688e;fill-opacity:0.747089;stroke:#31688e;stroke-opacity:0.747089;"/>
    <path clip-path="url(#pe52c074eb0)" d="M 163.594725 161.750686 
L 165.830793 157.27855 
L 161.358657 157.27855 
z
" style="fill:#21908d;fill-opacity:0.565173;stroke:#21908d;stroke-opacity:0.565173;"/>
    <path clip-path="url(#pe52c074eb0)" d="M 179.596166 189.788709 
L 181.832234 185.316573 
L 177.360098 185.316573 
z
" style="fill:#21908d;fill-opacity:0.681543;stroke:#21908d;stroke-opacity:0.681543;"/>
    <path clip-path="url(#pe52c074eb0)" d="M 246.583024 138.895561 
L 248.819092 134.423425 
L 244.346956 134.423425 
z
" style="fill:#481f70;fill-opacity:0.61088;stroke:#481f70;stroke-opacity:0.61088;"/>
    <path clip-path="url(#pe52c074eb0)" d="M 254.841752 152.832632 
L 257.07782 148.360496 
L 252.605684 148.360496 
z
" style="fill:#481f70;fill-opacity:0.669171;stroke:#481f70;stroke-opacity:0.669171;"/>
    <path clip-path="url(#pe52c074eb0)" d="M 218.556432 124.100727 
L 220.7925 119.628591 
L 216.320364 119.628591 
z
" style="fill:#443983;fill-opacity:0.520811;stroke:#443983;stroke-opacity:0.520811;"/>
    <path clip-path="url(#pe52c074eb0)" d="M 251.385827 179.916683 
L 253.621895 175.444547 
L 249.149759 175.444547 
z
" style="fill:#443983;fill-opacity:0.753898;stroke:#443983;stroke-opacity:0.753898;"/>
    <path clip-path="url(#pe52c074eb0)" d="M 198.805952 123.158374 
L 201.04202 118.686238 
L 196.569884 118.686238 
z
" style="fill:#3b518b;fill-opacity:0.488777;stroke:#3b518b;stroke-opacity:0.488777;"/>
    <path clip-path="url(#pe52c074eb0)" d="M 239.585353 193.011798 
L 241.821421 188.539662 
L 237.349285 188.539662 
z
" style="fill:#3b518b;fill-opacity:0.780037;stroke:#3b518b;stroke-opacity:0.780037;"/>
    <path clip-path="url(#pe52c074eb0)" d="M 167.413341 135.023832 
L 169.649409 130.551696 
L 165.177273 130.551696 
z
" style="fill:#287c8e;fill-opacity:0.482161;stroke:#287c8e;stroke-opacity:0.482161;"/>
    <path clip-path="url(#pe52c074eb0)" d="M 207.676761 205.040868 
L 209.912829 200.568732 
L 205.440693 200.568732 
z
" style="fill:#287c8e;fill-opacity:0.773208;stroke:#287c8e;stroke-opacity:0.773208;"/>
    <path clip-path="url(#pe52c074eb0)" d="M 155.66951 147.863977 
L 157.905578 143.391841 
L 153.433442 143.391841 
z
" style="fill:#21908d;fill-opacity:0.507537;stroke:#21908d;stroke-opacity:0.507537;"/>
    <path clip-path="url(#pe52c074eb0)" d="M 187.673355 203.941709 
L 189.909423 199.469573 
L 185.437287 199.469573 
z
" style="fill:#21908d;fill-opacity:0.740284;stroke:#21908d;stroke-opacity:0.740284;"/>
    <path clip-path="url(#pe52c074eb0)" d="M 151.79203 174.686709 
L 154.028098 170.214573 
L 149.555962 170.214573 
z
" style="fill:#20a486;fill-opacity:0.59078;stroke:#20a486;stroke-opacity:0.59078;"/>
    <path clip-path="url(#pe52c074eb0)" d="M 159.741189 188.721944 
L 161.977257 184.249808 
L 157.505121 184.249808 
z
" style="fill:#20a486;fill-opacity:0.648944;stroke:#20a486;stroke-opacity:0.648944;"/>
    <path clip-path="url(#pe52c074eb0)" d="M 238.376386 125.046394 
L 240.612454 120.574258 
L 236.140318 120.574258 
z
" style="fill:#481f70;fill-opacity:0.552957;stroke:#481f70;stroke-opacity:0.552957;"/>
    <path clip-path="url(#pe52c074eb0)" d="M 263.153067 166.858447 
L 265.389135 162.386311 
L 260.916999 162.386311 
z
" style="fill:#481f70;fill-opacity:0.727834;stroke:#481f70;stroke-opacity:0.727834;"/>
    <path clip-path="url(#pe52c074eb0)" d="M 179.124583 122.219318 
L 181.360651 117.747182 
L 176.888515 117.747182 
z
" style="fill:#31688e;fill-opacity:0.456855;stroke:#31688e;stroke-opacity:0.456855;"/>
    <path clip-path="url(#pe52c074eb0)" d="M 227.751506 206.143948 
L 229.987574 201.671812 
L 225.515438 201.671812 
z
" style="fill:#31688e;fill-opacity:0.806249;stroke:#31688e;stroke-opacity:0.806249;"/>
    <path clip-path="url(#pe52c074eb0)" d="M 143.892954 160.739902 
L 146.129022 156.267766 
L 141.656886 156.267766 
z
" style="fill:#20a486;fill-opacity:0.532983;stroke:#20a486;stroke-opacity:0.532983;"/>
    <path clip-path="url(#pe52c074eb0)" d="M 167.740908 202.846449 
L 169.976976 198.374313 
L 165.50484 198.374313 
z
" style="fill:#20a486;fill-opacity:0.707477;stroke:#20a486;stroke-opacity:0.707477;"/>
    <path clip-path="url(#pe52c074eb0)" d="M 266.550362 139.872047 
L 268.78643 135.399911 
L 264.314294 135.399911 
z
" style="fill:#440154;fill-opacity:0.643345;stroke:#440154;stroke-opacity:0.643345;"/>
    <path clip-path="url(#pe52c074eb0)" d="M 210.477865 110.36569 
L 212.713933 105.893554 
L 208.241797 105.893554 
z
" style="fill:#443983;fill-opacity:0.463453;stroke:#443983;stroke-opacity:0.463453;"/>
    <path clip-path="url(#pe52c074eb0)" d="M 259.724429 194.093826 
L 261.960497 189.62169 
L 257.488361 189.62169 
z
" style="fill:#443983;fill-opacity:0.813102;stroke:#443983;stroke-opacity:0.813102;"/>
    <path clip-path="url(#pe52c074eb0)" d="M 147.794001 134.064365 
L 150.030069 129.592229 
L 145.557933 129.592229 
z
" style="fill:#21918c;fill-opacity:0.450262;stroke:#21918c;stroke-opacity:0.450262;"/>
    <path clip-path="url(#pe52c074eb0)" d="M 195.802175 218.185178 
L 198.038243 213.713042 
L 193.566107 213.713042 
z
" style="fill:#21918c;fill-opacity:0.799401;stroke:#21918c;stroke-opacity:0.799401;"/>
    <path clip-path="url(#pe52c074eb0)" d="M 139.956297 187.658944 
L 142.192365 183.186808 
L 137.720229 183.186808 
z
" style="fill:#35b779;fill-opacity:0.61646;stroke:#35b779;stroke-opacity:0.61646;"/>
    <path clip-path="url(#pe52c074eb0)" d="M 258.266184 125.995394 
L 260.502252 121.523258 
L 256.030116 121.523258 
z
" style="fill:#440154;fill-opacity:0.585217;stroke:#440154;stroke-opacity:0.585217;"/>
    <path clip-path="url(#pe52c074eb0)" d="M 274.887215 153.836935 
L 277.123283 149.364799 
L 272.651147 149.364799 
z
" style="fill:#440154;fill-opacity:0.701842;stroke:#440154;stroke-opacity:0.701842;"/>
    <path clip-path="url(#pe52c074eb0)" d="M 230.221347 111.284303 
L 232.457415 106.812167 
L 227.985279 106.812167 
z
" style="fill:#481f70;fill-opacity:0.495398;stroke:#481f70;stroke-opacity:0.495398;"/>
    <path clip-path="url(#pe52c074eb0)" d="M 271.517473 180.973857 
L 273.753541 176.501721 
L 269.281405 176.501721 
z
" style="fill:#481f70;fill-opacity:0.786871;stroke:#481f70;stroke-opacity:0.786871;"/>
    <path clip-path="url(#pe52c074eb0)" d="M 190.803373 109.450287 
L 193.039441 104.978151 
L 188.567305 104.978151 
z
" style="fill:#3b518b;fill-opacity:0.43162;stroke:#3b518b;stroke-opacity:0.43162;"/>
    <path clip-path="url(#pe52c074eb0)" d="M 247.897971 207.250968 
L 250.134039 202.778832 
L 245.661903 202.778832 
z
" style="fill:#3b518b;fill-opacity:0.839408;stroke:#3b518b;stroke-opacity:0.839408;"/>
    <path clip-path="url(#pe52c074eb0)" d="M 159.511963 121.283543 
L 161.748031 116.811407 
L 157.275895 116.811407 
z
" style="fill:#287c8e;fill-opacity:0.425045;stroke:#287c8e;stroke-opacity:0.425045;"/>
    <path clip-path="url(#pe52c074eb0)" d="M 215.884143 219.313291 
L 218.120211 214.841155 
L 213.648075 214.841155 
z
" style="fill:#287c8e;fill-opacity:0.832535;stroke:#287c8e;stroke-opacity:0.832535;"/>
    <path clip-path="url(#pe52c074eb0)" d="M 136.043489 146.880689 
L 138.279557 142.408553 
L 133.807421 142.408553 
z
" style="fill:#20a486;fill-opacity:0.47555;stroke:#20a486;stroke-opacity:0.47555;"/>
    <path clip-path="url(#pe52c074eb0)" d="M 175.791672 217.061079 
L 178.02774 212.588943 
L 173.555604 212.588943 
z
" style="fill:#20a486;fill-opacity:0.766384;stroke:#20a486;stroke-opacity:0.766384;"/>
    <path clip-path="url(#pe52c074eb0)" d="M 132.083536 173.651756 
L 134.319604 169.17962 
L 129.847468 169.17962 
z
" style="fill:#35b779;fill-opacity:0.558501;stroke:#35b779;stroke-opacity:0.558501;"/>
    <path clip-path="url(#pe52c074eb0)" d="M 147.879043 201.755067 
L 150.115111 197.282931 
L 145.642975 197.282931 
z
" style="fill:#35b779;fill-opacity:0.674786;stroke:#35b779;stroke-opacity:0.674786;"/>
    <path clip-path="url(#pe52c074eb0)" d="M 250.034184 112.206143 
L 252.270252 107.734007 
L 247.798116 107.734007 
z
" style="fill:#440154;fill-opacity:0.527455;stroke:#440154;stroke-opacity:0.527455;"/>
    <path clip-path="url(#pe52c074eb0)" d="M 283.277247 167.890902 
L 285.513315 163.418766 
L 281.041179 163.418766 
z
" style="fill:#440154;fill-opacity:0.760713;stroke:#440154;stroke-opacity:0.760713;"/>
    <path clip-path="url(#pe52c074eb0)" d="M 171.19751 108.538077 
L 173.433578 104.065941 
L 168.961442 104.065941 
z
" style="fill:#31688e;fill-opacity:0.399898;stroke:#31688e;stroke-opacity:0.399898;"/>
    <path clip-path="url(#pe52c074eb0)" d="M 236.037959 220.44544 
L 238.274027 215.973304 
L 233.801892 215.973304 
z
" style="fill:#31688e;fill-opacity:0.865789;stroke:#31688e;stroke-opacity:0.865789;"/>
    <path clip-path="url(#pe52c074eb0)" d="M 124.26029 159.732664 
L 126.496358 155.260528 
L 122.024222 155.260528 
z
" style="fill:#35b779;fill-opacity:0.500907;stroke:#35b779;stroke-opacity:0.500907;"/>
    <path clip-path="url(#pe52c074eb0)" d="M 155.852252 215.940974 
L 158.08832 211.468838 
L 153.616184 211.468838 
z
" style="fill:#35b779;fill-opacity:0.733484;stroke:#35b779;stroke-opacity:0.733484;"/>
    <path clip-path="url(#pe52c074eb0)" d="M 222.117422 97.608469 
L 224.353489 93.136333 
L 219.881354 93.136333 
z
" style="fill:#481f70;fill-opacity:0.438199;stroke:#481f70;stroke-opacity:0.438199;"/>
    <path clip-path="url(#pe52c074eb0)" d="M 279.935481 195.179722 
L 282.171549 190.707586 
L 277.699413 190.707586 
z
" style="fill:#481f70;fill-opacity:0.846286;stroke:#481f70;stroke-opacity:0.846286;"/>
    <path clip-path="url(#pe52c074eb0)" d="M 202.449844 96.716591 
L 204.685912 92.244455 
L 200.213776 92.244455 
z
" style="fill:#443983;fill-opacity:0.406454;stroke:#443983;stroke-opacity:0.406454;"/>
    <path clip-path="url(#pe52c074eb0)" d="M 268.116543 208.36195 
L 270.352611 203.889814 
L 265.880475 203.889814 
z
" style="fill:#443983;fill-opacity:0.872686;stroke:#443983;stroke-opacity:0.872686;"/>
    <path clip-path="url(#pe52c074eb0)" d="M 120.241119 186.599691 
L 122.477187 182.127555 
L 118.005051 182.127555 
z
" style="fill:#5cc863;fill-opacity:0.58409;stroke:#5cc863;stroke-opacity:0.58409;"/>
    <path clip-path="url(#pe52c074eb0)" d="M 128.087385 200.667543 
L 130.323453 196.195407 
L 125.851317 196.195407 
z
" style="fill:#5cc863;fill-opacity:0.642211;stroke:#5cc863;stroke-opacity:0.642211;"/>
    <path clip-path="url(#pe52c074eb0)" d="M 241.85387 98.503471 
L 244.089938 94.031335 
L 239.617802 94.031335 
z
" style="fill:#440154;fill-opacity:0.470056;stroke:#440154;stroke-opacity:0.470056;"/>
    <path clip-path="url(#pe52c074eb0)" d="M 291.720969 182.034804 
L 293.957037 177.562668 
L 289.484901 177.562668 
z
" style="fill:#440154;fill-opacity:0.819961;stroke:#440154;stroke-opacity:0.819961;"/>
    <path clip-path="url(#pe52c074eb0)" d="M 182.850776 95.827819 
L 185.086844 91.355683 
L 180.614709 91.355683 
z
" style="fill:#3b528b;fill-opacity:0.37482;stroke:#3b528b;stroke-opacity:0.37482;"/>
    <path clip-path="url(#pe52c074eb0)" d="M 256.264011 221.581646 
L 258.500079 217.10951 
L 254.027943 217.10951 
z
" style="fill:#3b528b;fill-opacity:0.899161;stroke:#3b528b;stroke-opacity:0.899161;"/>
    <path clip-path="url(#pe52c074eb0)" d="M 112.444269 172.620439 
L 114.680337 168.148303 
L 110.208201 168.148303 
z
" style="fill:#5cc863;fill-opacity:0.526335;stroke:#5cc863;stroke-opacity:0.526335;"/>
    <path clip-path="url(#pe52c074eb0)" d="M 135.983539 214.824841 
L 138.219607 210.352705 
L 133.747471 210.352705 
z
" style="fill:#5ec962;fill-opacity:0.700701;stroke:#5ec962;stroke-opacity:0.700701;"/>
    <path clip-path="url(#pe52c074eb0)" d="M 214.06413 84.018084 
L 216.300198 79.545948 
L 211.828062 79.545948 
z
" style="fill:#481f70;fill-opacity:0.381358;stroke:#481f70;stroke-opacity:0.381358;"/>
    <path clip-path="url(#pe52c074eb0)" d="M 288.407607 209.476916 
L 290.643675 205.00478 
L 286.171539 205.00478 
z
" style="fill:#481f70;fill-opacity:0.906083;stroke:#481f70;stroke-opacity:0.906083;"/>
    <path clip-path="url(#pe52c074eb0)" d="M 108.365564 199.583856 
L 110.601632 195.111721 
L 106.129496 195.111721 
z
" style="fill:#90d743;fill-opacity:0.609751;stroke:#90d743;stroke-opacity:0.609751;"/>
    <path clip-path="url(#pe52c074eb0)" d="M 233.724757 84.886564 
L 235.960825 80.414428 
L 231.488689 80.414428 
z
" style="fill:#440154;fill-opacity:0.413016;stroke:#440154;stroke-opacity:0.413016;"/>
    <path clip-path="url(#pe52c074eb0)" d="M 300.218897 196.269506 
L 302.454965 191.79737 
L 297.982829 191.79737 
z
" style="fill:#440154;fill-opacity:0.879588;stroke:#440154;stroke-opacity:0.879588;"/>
    <path clip-path="url(#pe52c074eb0)" d="M 194.471896 83.152624 
L 196.707964 78.680488 
L 192.235828 78.680488 
z
" style="fill:#443983;fill-opacity:0.349811;stroke:#443983;stroke-opacity:0.349811;"/>
    <path clip-path="url(#pe52c074eb0)" d="M 276.562685 222.721933 
L 278.798753 218.249797 
L 274.326617 218.249797 
z
" style="fill:#443983;fill-opacity:0.932653;stroke:#443983;stroke-opacity:0.932653;"/>
    <path clip-path="url(#pe52c074eb0)" d="M 100.595289 185.544163 
L 102.831357 181.072027 
L 98.359221 181.072027 
z
" style="fill:#90d743;fill-opacity:0.551834;stroke:#90d743;stroke-opacity:0.551834;"/>
    <path clip-path="url(#pe52c074eb0)" d="M 116.185156 213.712659 
L 118.421224 209.240523 
L 113.949088 209.240523 
z
" style="fill:#90d743;fill-opacity:0.668035;stroke:#90d743;stroke-opacity:0.668035;"/>
    <path clip-path="url(#pe52c074eb0)" d="M 225.646365 71.35462 
L 227.882433 66.882484 
L 223.410297 66.882484 
z
" style="fill:#440154;fill-opacity:0.356331;stroke:#440154;stroke-opacity:0.356331;"/>
    <path clip-path="url(#pe52c074eb0)" d="M 308.771556 210.595887 
L 311.007624 206.123751 
L 306.535488 206.123751 
z
" style="fill:#440154;fill-opacity:0.9396;stroke:#440154;stroke-opacity:0.9396;"/>
    <path clip-path="url(#pe52c074eb0)" d="M 206.061 70.512348 
L 208.297068 66.040212 
L 203.824932 66.040212 
z
" style="fill:#481f70;fill-opacity:0.324871;stroke:#481f70;stroke-opacity:0.324871;"/>
    <path clip-path="url(#pe52c074eb0)" d="M 296.934376 223.866321 
L 299.170444 219.394185 
L 294.698308 219.394185 
z
" style="fill:#481f70;fill-opacity:0.966266;stroke:#481f70;stroke-opacity:0.966266;"/>
    <path clip-path="url(#pe52c074eb0)" d="M 88.71321 198.503987 
L 90.949278 194.031851 
L 86.477142 194.031851 
z
" style="fill:#c8e020;fill-opacity:0.577405;stroke:#c8e020;stroke-opacity:0.577405;"/>
    <path clip-path="url(#pe52c074eb0)" d="M 96.456731 212.604406 
L 98.692799 208.13227 
L 94.220663 208.13227 
z
" style="fill:#c8e020;fill-opacity:0.635483;stroke:#c8e020;stroke-opacity:0.635483;"/>
    <path clip-path="url(#pe52c074eb0)" d="M 217.618223 57.906846 
L 219.854291 53.43471 
L 215.382155 53.43471 
z
" style="fill:#440154;fill-opacity:0.3;stroke:#440154;stroke-opacity:0.3;"/>
    <path clip-path="url(#pe52c074eb0)" d="M 317.379476 225.014833 
L 319.615544 220.542697 
L 315.143408 220.542697 
z
" style="fill:#440154;stroke:#440154;"/>
    <path clip-path="url(#pe52c074eb0)" d="M 76.797894 211.500063 
L 79.033962 207.027927 
L 74.561826 207.027927 
z
" style="fill:#fde725;fill-opacity:0.603047;stroke:#fde725;stroke-opacity:0.603047;"/>
   </g>
   <g id="legend_1">
    <g id="patch_6">
     <path d="M 20.5 59 
L 205.3 59 
Q 208.1 59 208.1 56.2 
L 208.1 20.5 
Q 208.1 17.7 205.3 17.7 
L 20.5 17.7 
Q 17.7 17.7 17.7 20.5 
L 17.7 56.2 
Q 17.7 59 20.5 59 
z
" style="fill:#ffffff;opacity:0.8;stroke:#cccccc;stroke-linejoin:miter;"/>
    </g>
    <g id="Path3DCollection_3">
     <path d="M 37.3 30.543034 
C 37.596506 30.543034 37.880908 30.425231 38.090569 30.215569 
C 38.300231 30.005908 38.418034 29.721506 38.418034 29.425 
C 38.418034 29.128494 38.300231 28.844092 38.090569 28.634431 
C 37.880908 28.424769 37.596506 28.306966 37.3 28.306966 
C 37.003494 28.306966 36.719092 28.424769 36.509431 28.634431 
C 36.299769 28.844092 36.181966 29.128494 36.181966 29.425 
C 36.181966 29.721506 36.299769 30.005908 36.509431 30.215569 
C 36.719092 30.425231 37.003494 30.543034 37.3 30.543034 
z
" style="fill:#31678e;stroke:#31678e;"/>
    </g>
    <g id="text_22">
     <!-- Program simulation -->
     <defs>
      <path d="M 46.09375 48.4375 
Q 46.09375 39.0625 40.625 33.59375 
Q 35.15625 28.125 25.390625 28.125 
L 14.0625 28.125 
L 14.0625 1.953125 
L 5.078125 1.953125 
L 5.078125 68.75 
L 25.390625 68.75 
Q 35.15625 68.75 40.625 63.28125 
Q 46.09375 57.8125 46.09375 48.4375 
z
M 37.109375 48.4375 
Q 37.109375 55.859375 33.59375 58.59375 
Q 30.078125 61.328125 23.046875 61.328125 
L 14.0625 61.328125 
L 14.0625 35.546875 
L 23.046875 35.546875 
Q 30.078125 35.546875 33.59375 38.28125 
Q 37.109375 41.015625 37.109375 48.4375 
z
" id="SimHei-50"/>
      <path d="M 39.0625 37.890625 
Q 31.640625 39.0625 26.5625 35.734375 
Q 21.484375 32.421875 17.96875 24.21875 
L 17.96875 1.953125 
L 10.15625 1.953125 
L 10.15625 45.703125 
L 17.96875 45.703125 
L 17.96875 34.375 
Q 21.484375 40.625 26.75 43.546875 
Q 32.03125 46.484375 39.0625 46.484375 
z
" id="SimHei-72"/>
      <path d="M 46.484375 39.0625 
Q 43.75 39.84375 41.203125 40.03125 
Q 38.671875 40.234375 35.9375 39.453125 
Q 37.109375 38.28125 37.890625 36.515625 
Q 38.671875 34.765625 38.671875 31.25 
Q 38.671875 24.609375 34.171875 20.3125 
Q 29.6875 16.015625 23.046875 16.015625 
Q 21.484375 16.015625 18.9375 16.59375 
Q 16.40625 17.1875 14.84375 17.96875 
Q 13.671875 17.1875 13.28125 16.40625 
Q 12.890625 15.625 12.890625 14.453125 
Q 12.890625 12.5 15.625 11.515625 
Q 18.359375 10.546875 25.390625 10.546875 
Q 36.71875 10.546875 40.8125 7.421875 
Q 44.921875 4.296875 44.921875 -0.390625 
Q 44.921875 -6.640625 38.859375 -9.5625 
Q 32.8125 -12.5 24.609375 -12.5 
Q 14.0625 -12.5 8.984375 -9.765625 
Q 3.90625 -7.03125 3.90625 -2.34375 
Q 3.90625 0 5.859375 2.34375 
Q 7.8125 4.6875 10.9375 6.25 
Q 8.59375 7.421875 7.21875 9.171875 
Q 5.859375 10.9375 5.859375 13.671875 
Q 5.859375 16.015625 7.609375 17.765625 
Q 9.375 19.53125 11.71875 20.703125 
Q 9.765625 22.65625 8.59375 25.390625 
Q 7.421875 28.125 7.421875 31.25 
Q 7.421875 37.890625 11.90625 42.1875 
Q 16.40625 46.484375 23.046875 46.484375 
Q 26.5625 46.484375 29.09375 45.5 
Q 31.640625 44.53125 33.59375 42.578125 
Q 36.71875 44.921875 39.84375 45.890625 
Q 42.96875 46.875 46.484375 46.484375 
z
M 30.859375 31.25 
Q 30.859375 35.15625 28.90625 37.5 
Q 26.953125 39.84375 23.046875 39.84375 
Q 19.140625 39.84375 17.1875 37.5 
Q 15.234375 35.15625 15.234375 31.25 
Q 15.234375 27.34375 17.1875 25 
Q 19.140625 22.65625 23.046875 22.65625 
Q 26.953125 22.65625 28.90625 25 
Q 30.859375 27.34375 30.859375 31.25 
z
M 37.5 -1.171875 
Q 37.5 0.390625 35.734375 1.953125 
Q 33.984375 3.515625 26.953125 3.515625 
Q 25.390625 3.515625 22.65625 3.703125 
Q 19.921875 3.90625 16.40625 4.296875 
Q 13.28125 3.125 12.109375 1.5625 
Q 10.9375 0 10.9375 -1.5625 
Q 10.9375 -3.90625 14.0625 -5.46875 
Q 17.1875 -7.03125 25 -7.03125 
Q 31.640625 -7.03125 34.5625 -5.265625 
Q 37.5 -3.515625 37.5 -1.171875 
z
" id="SimHei-67"/>
      <path d="M 44.921875 1.953125 
L 35.546875 1.953125 
Q 34.765625 2.734375 34.375 4.09375 
Q 33.984375 5.46875 33.984375 7.421875 
Q 31.25 4.296875 27.34375 2.734375 
Q 23.4375 1.171875 19.140625 1.171875 
Q 12.890625 1.171875 8.59375 4.296875 
Q 4.296875 7.421875 4.296875 13.28125 
Q 4.296875 19.140625 8.203125 22.65625 
Q 12.109375 26.171875 20.3125 27.34375 
Q 25.78125 28.125 29.875 29.296875 
Q 33.984375 30.46875 33.984375 32.421875 
Q 33.984375 34.765625 32.21875 37.109375 
Q 30.46875 39.453125 24.609375 39.453125 
Q 19.921875 39.453125 17.765625 37.6875 
Q 15.625 35.9375 14.84375 32.8125 
L 6.25 32.8125 
Q 7.03125 39.0625 11.90625 42.765625 
Q 16.796875 46.484375 24.609375 46.484375 
Q 33.203125 46.484375 37.5 42.578125 
Q 41.796875 38.671875 41.796875 31.640625 
L 41.796875 10.15625 
Q 41.796875 7.8125 42.578125 5.859375 
Q 43.359375 3.90625 44.921875 1.953125 
z
M 33.984375 16.40625 
L 33.984375 24.21875 
Q 31.640625 23.4375 29.484375 22.84375 
Q 27.34375 22.265625 22.265625 21.484375 
Q 16.40625 20.703125 14.640625 18.75 
Q 12.890625 16.796875 12.890625 14.0625 
Q 12.890625 11.71875 14.640625 9.953125 
Q 16.40625 8.203125 19.921875 8.203125 
Q 23.4375 8.203125 27.53125 10.15625 
Q 31.640625 12.109375 33.984375 16.40625 
z
" id="SimHei-61"/>
      <path d="M 47.65625 1.953125 
L 39.84375 1.953125 
L 39.84375 33.59375 
Q 39.84375 35.9375 39.0625 37.5 
Q 38.28125 39.0625 35.9375 39.0625 
Q 33.203125 39.0625 30.859375 36.125 
Q 28.515625 33.203125 28.515625 28.515625 
L 28.515625 1.953125 
L 20.703125 1.953125 
L 20.703125 33.59375 
Q 20.703125 35.9375 19.921875 37.5 
Q 19.140625 39.0625 16.796875 39.0625 
Q 14.0625 39.0625 11.71875 36.125 
Q 9.375 33.203125 9.375 28.515625 
L 9.375 1.953125 
L 1.5625 1.953125 
L 1.5625 45.703125 
L 9.375 45.703125 
L 9.375 39.84375 
Q 11.328125 42.96875 14.0625 44.71875 
Q 16.796875 46.484375 19.921875 46.484375 
Q 23.046875 46.484375 25.1875 44.71875 
Q 27.34375 42.96875 28.125 39.84375 
Q 30.078125 42.96875 32.609375 44.71875 
Q 35.15625 46.484375 38.28125 46.484375 
Q 42.96875 46.484375 45.3125 43.9375 
Q 47.65625 41.40625 47.65625 36.71875 
z
" id="SimHei-6d"/>
      <path d="M 43.75 1.953125 
L 35.9375 1.953125 
L 35.9375 10.15625 
Q 32.8125 5.859375 29.09375 3.515625 
Q 25.390625 1.171875 19.53125 1.171875 
Q 12.5 1.171875 8.984375 5.078125 
Q 5.46875 8.984375 5.46875 14.84375 
L 5.46875 45.703125 
L 13.28125 45.703125 
L 13.28125 17.578125 
Q 13.28125 12.890625 15.625 10.15625 
Q 17.96875 7.421875 21.875 7.421875 
Q 26.953125 7.421875 31.4375 12.6875 
Q 35.9375 17.96875 35.9375 25.78125 
L 35.9375 45.703125 
L 43.75 45.703125 
z
" id="SimHei-75"/>
      <path d="M 28.515625 1.953125 
L 20.703125 1.953125 
L 20.703125 68.75 
L 28.515625 68.75 
z
" id="SimHei-6c"/>
      <path d="M 42.96875 3.125 
Q 41.015625 2.34375 38.46875 1.75 
Q 35.9375 1.171875 31.640625 1.171875 
Q 24.609375 1.171875 20.3125 5.078125 
Q 16.015625 8.984375 16.015625 16.015625 
L 16.015625 39.453125 
L 2.734375 39.453125 
L 2.734375 45.703125 
L 16.015625 45.703125 
L 16.015625 60.9375 
L 23.828125 60.9375 
L 23.828125 45.703125 
L 39.84375 45.703125 
L 39.84375 39.453125 
L 23.828125 39.453125 
L 23.828125 15.625 
Q 23.828125 12.5 25.390625 10.34375 
Q 26.953125 8.203125 31.25 8.203125 
Q 35.546875 8.203125 38.28125 8.984375 
Q 41.015625 9.765625 42.96875 10.9375 
z
" id="SimHei-74"/>
     </defs>
     <g transform="translate(62.5 33.1)scale(0.14 -0.14)">
      <use xlink:href="#SimHei-50"/>
      <use x="50" xlink:href="#SimHei-72"/>
      <use x="100" xlink:href="#SimHei-6f"/>
      <use x="150" xlink:href="#SimHei-67"/>
      <use x="200" xlink:href="#SimHei-72"/>
      <use x="250" xlink:href="#SimHei-61"/>
      <use x="300" xlink:href="#SimHei-6d"/>
      <use x="350" xlink:href="#SimHei-20"/>
      <use x="400" xlink:href="#SimHei-73"/>
      <use x="450" xlink:href="#SimHei-69"/>
      <use x="500" xlink:href="#SimHei-6d"/>
      <use x="550" xlink:href="#SimHei-75"/>
      <use x="600" xlink:href="#SimHei-6c"/>
      <use x="650" xlink:href="#SimHei-61"/>
      <use x="700" xlink:href="#SimHei-74"/>
      <use x="750" xlink:href="#SimHei-69"/>
      <use x="800" xlink:href="#SimHei-6f"/>
      <use x="850" xlink:href="#SimHei-6e"/>
     </g>
    </g>
    <g id="Path3DCollection_4">
     <path d="M 37.3 50.211068 
L 39.536068 45.738932 
L 35.063932 45.738932 
z
" style="fill:#31688e;stroke:#31688e;"/>
    </g>
    <g id="text_23">
     <!-- Theoretical analysis -->
     <defs>
      <path d="M 44.53125 61.328125 
L 28.90625 61.328125 
L 28.90625 1.953125 
L 19.921875 1.953125 
L 19.921875 61.328125 
L 4.296875 61.328125 
L 4.296875 68.75 
L 44.53125 68.75 
z
" id="SimHei-54"/>
      <path d="M 43.75 1.953125 
L 35.9375 1.953125 
L 35.9375 30.078125 
Q 35.9375 34.765625 33.59375 37.5 
Q 31.25 40.234375 27.34375 40.234375 
Q 22.265625 40.234375 17.765625 34.953125 
Q 13.28125 29.6875 13.28125 21.875 
L 13.28125 1.953125 
L 5.46875 1.953125 
L 5.46875 68.75 
L 13.28125 68.75 
L 13.28125 37.5 
Q 16.40625 41.796875 20.109375 44.140625 
Q 23.828125 46.484375 29.6875 46.484375 
Q 36.71875 46.484375 40.234375 42.578125 
Q 43.75 38.671875 43.75 32.8125 
z
" id="SimHei-68"/>
      <path d="M 44.53125 16.796875 
Q 43.75 9.765625 38.28125 5.46875 
Q 32.8125 1.171875 25.390625 1.171875 
Q 16.015625 1.171875 9.953125 7.21875 
Q 3.90625 13.28125 3.90625 23.828125 
Q 3.90625 34.375 9.953125 40.421875 
Q 16.015625 46.484375 25.390625 46.484375 
Q 33.59375 46.484375 38.859375 41.203125 
Q 44.140625 35.9375 44.140625 23.828125 
L 12.5 23.828125 
Q 12.5 15.234375 16.203125 11.71875 
Q 19.921875 8.203125 25.390625 8.203125 
Q 29.6875 8.203125 32.421875 10.34375 
Q 35.15625 12.5 35.9375 16.796875 
z
M 35.15625 30.078125 
Q 34.375 35.546875 31.640625 37.6875 
Q 28.90625 39.84375 24.609375 39.84375 
Q 20.703125 39.84375 17.578125 37.6875 
Q 14.453125 35.546875 12.890625 30.078125 
z
" id="SimHei-65"/>
      <path d="M 45.3125 45.703125 
L 27.34375 -1.5625 
Q 25.78125 -7.03125 22.65625 -9.765625 
Q 19.53125 -12.5 14.84375 -12.5 
Q 12.890625 -12.5 11.125 -12.296875 
Q 9.375 -12.109375 7.8125 -11.328125 
L 7.8125 -3.515625 
Q 9.375 -4.296875 10.9375 -4.6875 
Q 12.5 -5.078125 13.671875 -5.078125 
Q 16.796875 -5.078125 17.96875 -4.09375 
Q 19.140625 -3.125 20.3125 0.390625 
L 3.125 45.703125 
L 11.71875 45.703125 
L 24.21875 11.328125 
L 24.609375 11.328125 
L 36.71875 45.703125 
z
" id="SimHei-79"/>
     </defs>
     <g transform="translate(62.5 51.65)scale(0.14 -0.14)">
      <use xlink:href="#SimHei-54"/>
      <use x="50" xlink:href="#SimHei-68"/>
      <use x="100" xlink:href="#SimHei-65"/>
      <use x="150" xlink:href="#SimHei-6f"/>
      <use x="200" xlink:href="#SimHei-72"/>
      <use x="250" xlink:href="#SimHei-65"/>
      <use x="300" xlink:href="#SimHei-74"/>
      <use x="350" xlink:href="#SimHei-69"/>
      <use x="400" xlink:href="#SimHei-63"/>
      <use x="450" xlink:href="#SimHei-61"/>
      <use x="500" xlink:href="#SimHei-6c"/>
      <use x="550" xlink:href="#SimHei-20"/>
      <use x="600" xlink:href="#SimHei-61"/>
      <use x="650" xlink:href="#SimHei-6e"/>
      <use x="700" xlink:href="#SimHei-61"/>
      <use x="750" xlink:href="#SimHei-6c"/>
      <use x="800" xlink:href="#SimHei-79"/>
      <use x="850" xlink:href="#SimHei-73"/>
      <use x="900" xlink:href="#SimHei-69"/>
      <use x="950" xlink:href="#SimHei-73"/>
     </g>
    </g>
   </g>
  </g>
 </g>
 <defs>
  <clipPath id="pe52c074eb0">
   <rect height="288" width="360" x="10.7" y="10.7"/>
  </clipPath>
 </defs>
</svg>
